<?xml version="1.0" encoding="UTF-8"?>
<!DOCTYPE svg PUBLIC "-//W3C//DTD SVG 1.1//EN" "http://www.w3.org/Graphics/SVG/1.1/DTD/svg11.dtd">
<!-- Creator: CorelDRAW X6 -->
<svg xmlns="http://www.w3.org/2000/svg" xml:space="preserve" width="1000px" height="1091px" version="1.1" style="shape-rendering:geometricPrecision; text-rendering:geometricPrecision; image-rendering:optimizeQuality; fill-rule:evenodd; clip-rule:evenodd"
viewBox="0 0 100000 109091"
 xmlns:xlink="http://www.w3.org/1999/xlink">
 <defs>
  <style type="text/css">
   <![CDATA[
    .str16 {stroke:#332C2B;stroke-width:91.4545}
    .str15 {stroke:#332C2B;stroke-width:109.818}
    .str14 {stroke:#332C2B;stroke-width:182.909}
    .str9 {stroke:#FEFEFE;stroke-width:8685.27}
    .str6 {stroke:#332C2B;stroke-width:9789.45}
    .str3 {stroke:#332C2B;stroke-width:11507.6}
    .str0 {stroke:#FEFEFE;stroke-width:11718.9}
    .str2 {stroke:#332C2B;stroke-width:14963.6}
    .str11 {stroke:#332C2B;stroke-width:18368.4}
    .str7 {stroke:#332C2B;stroke-width:20505.5}
    .str1 {stroke:#00A2E9;stroke-width:23450.4;stroke-linejoin:round}
    .str4 {stroke:#332C2B;stroke-width:26474.2}
    .str5 {stroke:#332C2B;stroke-width:26474.2;stroke-linejoin:round}
    .str8 {stroke:#332C2B;stroke-width:27021.3}
    .str12 {stroke:#823520;stroke-width:75162.4;stroke-linejoin:round}
    .str13 {stroke:#6D583D;stroke-width:86041.3;stroke-linejoin:round}
    .str10 {stroke:#823520;stroke-width:86041.3;stroke-linejoin:round}
    .fil0 {fill:none}
    .fil10 {fill:black}
    .fil3 {fill:#00A2E9}
    .fil5 {fill:#332C2B}
    .fil2 {fill:#6D583D}
    .fil6 {fill:#823520}
    .fil1 {fill:#B6B49E}
    .fil7 {fill:#D3C34F}
    .fil8 {fill:#EB7223}
    .fil9 {fill:#F2DBA2}
    .fil4 {fill:#FEFEFE}
    .fnt15 {font-weight:normal;font-size:1598.36px;font-family:'宋体'}
    .fnt11 {font-weight:normal;font-size:1613.09px;font-family:'Arial'}
    .fnt14 {font-weight:normal;font-size:1613.09px;font-family:'Arial Unicode MS'}
    .fnt12 {font-weight:normal;font-size:1613.09px;font-family:'Times New Roman'}
    .fnt10 {font-weight:normal;font-size:1613.27px;font-family:'Arial Unicode MS'}
    .fnt2 {font-weight:normal;font-size:1935.82px;font-family:'Times New Roman'}
    .fnt9 {font-weight:normal;font-size:1935.82px;font-family:'宋体'}
    .fnt0 {font-weight:normal;font-size:2201.82px;font-family:'Arial'}
    .fnt4 {font-weight:normal;font-size:2258.36px;font-family:'Arial'}
    .fnt5 {font-weight:normal;font-size:2258.36px;font-family:'Arial Unicode MS'}
    .fnt8 {font-weight:normal;font-size:2258.36px;font-family:'Times New Roman'}
    .fnt3 {font-weight:normal;font-size:2258.36px;font-family:'宋体'}
    .fnt7 {font-weight:normal;font-size:2581.09px;font-family:'Arial'}
    .fnt6 {font-weight:normal;font-size:3226.36px;font-family:'Arial Unicode MS'}
    .fnt13 {font-weight:normal;font-size:806.545px;font-family:'Arial';baseline-shift:super}
    .fnt1 {font-weight:normal;font-size:1100.91px;font-family:'Arial';baseline-shift:sub}
   ]]>
  </style>
 </defs>
<symbol id="符号22" viewBox="5749856 4116869 461303 343902">
 <polygon class="fil0 str0" points="6044060,4131007 6044060,4210277 5764209,4210277 5843603,4289671 5764209,4367463 6044060,4367463 6044060,4446733 6202848,4289671 "/>
 <polygon id="_1" class="fil1" points="6044060,4131007 6044060,4210277 5764209,4210277 5843603,4289671 5764209,4367463 6044060,4367463 6044060,4446733 6202848,4289671 "/>
</symbol>
<symbol id="符号28" viewBox="75250160 53629078 229305 345467">
 <polygon class="fil2" points="75253177,53974545 75363304,53629078 75479466,53974545 75250160,53974545 "/>
</symbol>
<symbol id="符号17" viewBox="76656418 54950793 480451 211557">
 <polygon class="fil3" points="76834664,55027277 76836206,55028819 76840831,55028819 76846999,55028819 76856250,55028819 76865501,55028819 76877836,55027277 76890171,55027277 76902506,55027277 76917925,55025735 76931801,55024193 76945678,55021109 76959555,55019567 76971890,55014942 76984225,55011858 76995017,55007233 77004269,55001065 77011978,54994898 77021229,54990272 77028938,54985647 77036648,54981021 77044357,54976395 77053608,54973312 77061317,54970228 77069027,54968686 77076736,54967144 77085987,54967144 77093697,54967144 77101406,54968686 77110657,54970228 77118366,54973312 77136869,54987188 77136869,54988730 77133785,54988730 77129159,54987188 77122992,54987188 77116825,54985647 77109115,54985647 77099864,54985647 77090613,54985647 77079820,54987188 77070569,54988730 77059776,54991814 77048983,54996439 77039731,55002607 77030480,55010316 77021229,55019567 77007352,55028819 76991934,55038070 76978057,55045779 76964180,55051947 76948762,55058114 76936427,55062739 76922550,55067365 76910215,55071991 76897880,55075074 76887087,55078158 76870127,55082784 76863959,55084326 76856250,55085867 76851624,55085867 "/>
 <path class="fil3 str1" d="M76856250 55056572c0,-52423 -41630,-94053 -94053,-94053 -52423,0 -94053,41630 -94053,94053 0,52423 41630,94053 94053,94053 52423,0 94053,-41630 94053,-94053z"/>
</symbol>
<symbol id="符号24" viewBox="39060541 27841969 343967 343967">
 <circle class="fil4 str2" cx="39232525" cy="28013953" r="164502"/>
 <circle class="fil5 str2" cx="39232525" cy="28013953" r="97599"/>
</symbol>
<symbol id="符号16" viewBox="39424301 28102052 343551 343551">
 <circle class="fil4 str3" cx="39596077" cy="28273827" r="166021"/>
 <circle class="fil5 str3" cx="39596077" cy="28273827" r="98501"/>
</symbol>
<symbol id="符号21" viewBox="63518599 45241757 226758 343958">
 <polygon class="fil6" points="63521146,45585715 63630703,45241757 63745356,45585715 63518599,45585715 "/>
</symbol>
<symbol id="符号1" viewBox="75250160 53629078 229305 345467">
 <polygon class="fil6" points="75253177,53974545 75363304,53629078 75479466,53974545 75250160,53974545 "/>
</symbol>
<symbol id="符号26" viewBox="41600399 41287445 343974 343974">
 <circle class="fil4 str4" cx="41772386" cy="41459432" r="158750"/>
 <circle class="fil0 str4" cx="41673516" cy="41558303" r="59879"/>
</symbol>
<symbol id="符号5" viewBox="69333233 49481494 343974 343974">
 <path class="fil4 str5" d="M69663970 49653481c0,-87730 -71020,-158750 -158750,-158750 -87730,0 -158750,71020 -158750,158750 0,87730 71020,158750 158750,158750 87730,0 158750,-71020 158750,-158750z"/>
</symbol>
<symbol id="符号8" viewBox="69333233 49481494 343974 343974">
 <path class="fil4 str5" d="M69663970 49653481c0,-87730 -71020,-158750 -158750,-158750 -87730,0 -158750,71020 -158750,158750 0,87730 71020,158750 158750,158750 87730,0 158750,-71020 158750,-158750z"/>
</symbol>
<symbol id="符号15" viewBox="33493874 23862855 343611 343611">
 <circle class="fil4 str6" cx="33665679" cy="24034660" r="166911"/>
 <circle class="fil0 str6" cx="33665679" cy="24034660" r="62845"/>
</symbol>
<symbol id="符号9" viewBox="41603384 41285203 343232 343232">
 <circle class="fil4 str7" cx="41774999" cy="41456819" r="161363"/>
 <circle class="fil0 str7" cx="41674501" cy="41557317" r="60865"/>
</symbol>
<symbol id="符号3" viewBox="41613636 41294122 29501766 9560667">
 <rect class="fil4" x="41613636" y="41294122" width="324060" height="324060"/>
 <line class="fil0 str8" x1="70781769" y1="50519775" x2="71105828" y2= "50845257" />
 <line class="fil0 str8" x1="70781769" y1="50845257" x2="71105828" y2= "50519775" />
</symbol>
<symbol id="符号23" viewBox="4138327 3065286 481053 254891">
 <polygon class="fil0 str9" points="4495630,3075770 4495630,3134521 4216222,3134521 4216222,3251017 4495630,3251017 4495630,3309767 4613223,3193363 "/>
 <polygon id="_1_0" class="fil1" points="4495630,3075770 4495630,3134521 4216222,3134521 4216222,3251017 4495630,3251017 4495630,3309767 4613223,3193363 "/>
 <polygon class="fil0 str9" points="4172090,3134521 4172090,3251017 4201511,3251017 4201511,3134521 "/>
 <polygon id="_1_1" class="fil1" points="4172090,3134521 4172090,3251017 4201511,3251017 4201511,3134521 "/>
 <polygon class="fil0 str9" points="4142669,3134521 4142669,3251017 4157380,3251017 4157380,3134521 "/>
 <polygon id="_1_2" class="fil1" points="4142669,3134521 4142669,3251017 4157380,3251017 4157380,3134521 "/>
</symbol>
<symbol id="符号2" viewBox="225996676 161463770 344010 348536">
 <path class="fil6 str10" d="M226297665 161638038c0,-72412 -58835,-131247 -126721,-131247 -72412,0 -131247,58835 -131247,131247 0,72412 58835,131247 131247,131247 72412,0 126721,-58835 126721,-131247z"/>
</symbol>
<symbol id="符号6" viewBox="41603384 41285203 343232 343232">
 <circle class="fil4 str7" cx="41774999" cy="41456819" r="161363"/>
 <circle class="fil0 str7" cx="41674501" cy="41557317" r="60865"/>
</symbol>
<symbol id="符号18" viewBox="41613636 34242933 6744863 344367">
 <rect class="fil4" x="41613636" y="34249417" width="330432" height="330432"/>
 <line class="fil0 str11" x1="48021564" y1="34249417" x2="48351996" y2= "34580815" />
 <line class="fil0 str11" x1="48021564" y1="34580815" x2="48351996" y2= "34249417" />
</symbol>
<symbol id="符号19" viewBox="197383239 141014195 344004 344004">
 <path class="fil6 str12" d="M197689662 141186197c0,-75117 -59303,-134421 -134421,-134421 -75117,0 -134421,59303 -134421,134421 0,75117 59303,134421 134421,134421 75117,0 134421,-59303 134421,-134421z"/>
</symbol>
<symbol id="符号10" viewBox="39424301 28102052 343551 343551">
 <circle class="fil4 str3" cx="39596077" cy="28273827" r="166021"/>
 <circle class="fil5 str3" cx="39596077" cy="28273827" r="98501"/>
</symbol>
<symbol id="符号7" viewBox="39424301 28102052 343551 343551">
 <circle class="fil4 str3" cx="39596077" cy="28273827" r="166021"/>
 <circle class="fil5 str3" cx="39596077" cy="28273827" r="98501"/>
</symbol>
<symbol id="符号4" viewBox="76656418 54950793 480451 211557">
 <polygon class="fil3" points="76834664,55027277 76836206,55028819 76840831,55028819 76846999,55028819 76856250,55028819 76865501,55028819 76877836,55027277 76890171,55027277 76902506,55027277 76917925,55025735 76931801,55024193 76945678,55021109 76959555,55019567 76971890,55014942 76984225,55011858 76995017,55007233 77004269,55001065 77011978,54994898 77021229,54990272 77028938,54985647 77036648,54981021 77044357,54976395 77053608,54973312 77061317,54970228 77069027,54968686 77076736,54967144 77085987,54967144 77093697,54967144 77101406,54968686 77110657,54970228 77118366,54973312 77136869,54987188 77136869,54988730 77133785,54988730 77129159,54987188 77122992,54987188 77116825,54985647 77109115,54985647 77099864,54985647 77090613,54985647 77079820,54987188 77070569,54988730 77059776,54991814 77048983,54996439 77039731,55002607 77030480,55010316 77021229,55019567 77007352,55028819 76991934,55038070 76978057,55045779 76964180,55051947 76948762,55058114 76936427,55062739 76922550,55067365 76910215,55071991 76897880,55075074 76887087,55078158 76870127,55082784 76863959,55084326 76856250,55085867 76851624,55085867 "/>
 <path class="fil3 str1" d="M76856250 55056572c0,-52423 -41630,-94053 -94053,-94053 -52423,0 -94053,41630 -94053,94053 0,52423 41630,94053 94053,94053 52423,0 94053,-41630 94053,-94053z"/>
</symbol>
<symbol id="符号20" viewBox="34678391 24596044 185208 344655">
 <polygon class="fil6" points="34680480,24940699 34769603,24596044 34863600,24940699 34678391,24940699 "/>
</symbol>
<symbol id="符号11" viewBox="39424301 28102052 343551 343551">
 <circle class="fil4 str3" cx="39596077" cy="28273827" r="166021"/>
 <circle class="fil5 str3" cx="39596077" cy="28273827" r="98501"/>
</symbol>
<symbol id="符号25" viewBox="70772194 50510243 343209 344546">
 <line class="fil0 str8" x1="70781769" y1="50519775" x2="71105828" y2= "50845257" />
 <line class="fil0 str8" x1="70781769" y1="50845257" x2="71105828" y2= "50519775" />
</symbol>
<symbol id="符号14" viewBox="69333233 49481494 343974 343974">
 <path class="fil4 str5" d="M69663970 49653481c0,-87730 -71020,-158750 -158750,-158750 -87730,0 -158750,71020 -158750,158750 0,87730 71020,158750 158750,158750 87730,0 158750,-71020 158750,-158750z"/>
</symbol>
<symbol id="符号12" viewBox="69333233 49481494 343974 343974">
 <path class="fil4 str5" d="M69663970 49653481c0,-87730 -71020,-158750 -158750,-158750 -87730,0 -158750,71020 -158750,158750 0,87730 71020,158750 158750,158750 87730,0 158750,-71020 158750,-158750z"/>
</symbol>
<symbol id="符号13" viewBox="41603384 41285203 343232 343232">
 <circle class="fil4 str7" cx="41774999" cy="41456819" r="161363"/>
 <circle class="fil0 str7" cx="41674501" cy="41557317" r="60865"/>
</symbol>
<symbol id="符号27" viewBox="225996676 161463770 344010 348536">
 <path class="fil2 str13" d="M226297665 161638038c0,-72412 -58835,-131247 -126721,-131247 -72412,0 -131247,58835 -131247,131247 0,72412 58835,131247 131247,131247 72412,0 126721,-58835 126721,-131247z"/>
</symbol>
 <g id="图层_x0020_1">
  <metadata id="CorelCorpID_0Corel-Layer"/>
  <g id="_1129432096">
   <polyline class="fil0 str14" points="11956,18009 11956,39229 98971,39229 "/>
   <line class="fil0 str15" x1="98971" y1="39229" x2="98971" y2= "38334" />
   <line class="fil0 str15" x1="81710" y1="39229" x2="81710" y2= "38310" />
   <line class="fil0 str15" x1="61539" y1="39229" x2="61539" y2= "38377" />
   <line class="fil0 str15" x1="49162" y1="39229" x2="49162" y2= "38353" />
   <line class="fil0 str15" x1="24464" y1="39229" x2="24464" y2= "38401" />
   <line class="fil0 str15" x1="12875" y1="34880" x2="11952" y2= "34880" />
   <line class="fil0 str15" x1="12875" y1="30488" x2="11952" y2= "30488" />
   <line class="fil0 str15" x1="12875" y1="26307" x2="11952" y2= "26307" />
   <line class="fil0 str15" x1="12875" y1="21925" x2="11952" y2= "21925" />
   <line class="fil0 str15" x1="12875" y1="18024" x2="11952" y2= "18024" />
   <g transform="matrix(1 0 0 1 -33637.1 -12444.7)">
    <text x="50000" y="54545"  class="fil5 fnt0">JD</text>
   </g>
   <g transform="matrix(1 0 0 1 -31328 -12002.2)">
    <text x="50000" y="54986"  class="fil5 fnt1">7</text>
   </g>
   <g transform="matrix(1 0 0 1 -20922.7 -12411.1)">
    <text x="50000" y="54545"  class="fil5 fnt0">JD</text>
   </g>
   <g transform="matrix(1 0 0 1 -18613.6 -11973.3)">
    <text x="50000" y="54986"  class="fil5 fnt1">1</text>
   </g>
   <g transform="matrix(1 0 0 1 -8771.09 -12444.7)">
    <text x="50000" y="54545"  class="fil5 fnt0">JD</text>
   </g>
   <g transform="matrix(1 0 0 1 -6457.27 -12002.2)">
    <text x="50000" y="54986"  class="fil5 fnt1">5</text>
   </g>
   <g transform="matrix(1 0 0 1 3755.64 -12411.1)">
    <text x="50000" y="54545"  class="fil5 fnt0">JD</text>
   </g>
   <g transform="matrix(1 0 0 1 6069.64 -11968.4)">
    <text x="50000" y="54986"  class="fil5 fnt1">6</text>
   </g>
   <g transform="matrix(1 0 0 1 41124.5 -12411.1)">
    <text x="50000" y="54545"  class="fil5 fnt0">JD</text>
   </g>
   <g transform="matrix(1 0 0 1 43438.4 -11968.4)">
    <text x="50000" y="54986"  class="fil5 fnt1">2</text>
   </g>
   <g transform="matrix(1 0 0 1 16325.8 -12411.1)">
    <text x="50000" y="54545"  class="fil5 fnt0">JD</text>
   </g>
   <g transform="matrix(1 0 0 1 18634.9 -11968.4)">
    <text x="50000" y="54986"  class="fil5 fnt1">3</text>
   </g>
   <g transform="matrix(1 0 0 1 29367.5 -12411.1)">
    <text x="50000" y="54545"  class="fil5 fnt0">JD</text>
   </g>
   <g transform="matrix(1 0 0 1 31676.5 -11968.4)">
    <text x="50000" y="54986"  class="fil5 fnt1">4</text>
   </g>
   <g transform="matrix(1 0 0 1 -39530.2 -14537.3)">
    <text x="50000" y="54545"  class="fil5 fnt2">0</text>
   </g>
   <g transform="matrix(1 0 0 1 -43046.7 -18972.7)">
    <text x="50000" y="54545"  class="fil5 fnt2">1 000</text>
   </g>
   <g transform="matrix(1 0 0 1 -43046.7 -35814.5)">
    <text x="50000" y="54545"  class="fil5 fnt2">5 000</text>
   </g>
   <g transform="matrix(1 0 0 1 -43046.7 -31990.2)">
    <text x="50000" y="54545"  class="fil5 fnt2">4 000</text>
   </g>
   <g transform="matrix(1 0 0 1 -43046.7 -27535.6)">
    <text x="50000" y="54545"  class="fil5 fnt2">3 000</text>
   </g>
   <g transform="matrix(1 0 0 1 -43046.7 -23307.1)">
    <text x="50000" y="54545"  class="fil5 fnt2">2 000</text>
   </g>
   <g>
    <g transform="matrix(0.95 0 0 1 -40993.1 -40102.7)">
     <text x="50000" y="54545"  class="fil5 fnt3">日喀则</text>
    </g>
   </g>
   <g>
    <g transform="matrix(0.95 0 0 1 -33779.1 -20311.5)">
     <text x="50000" y="54545"  class="fil5 fnt4">  </text>
     <text x="51255" y="54545"  class="fil5 fnt5">潜在沙漠化</text>
    </g>
   </g>
   <g>
    <g transform="matrix(0.95 0 0 1 -8323.82 -30902.9)">
     <text x="50000" y="54545"  class="fil5 fnt5">中度沙漠化</text>
    </g>
   </g>
   <g>
    <g transform="matrix(0.95 0 0 1 -13158 -28663.1)">
     <text x="50000" y="54545"  class="fil5 fnt2">Moderately desertified land</text>
    </g>
   </g>
   <g>
    <g transform="matrix(0.95 0 0 1 25184.9 -35260.4)">
     <text x="50000" y="54545"  class="fil5 fnt5">重度沙漠化</text>
    </g>
   </g>
   <g>
    <g transform="matrix(0.95 0 0 1 21372.5 -33356.9)">
     <text x="50000" y="54545"  class="fil5 fnt2">Severely desertified land</text>
    </g>
   </g>
   <rect class="fil7 str16" x="27831" y="27053" width="5340" height="12176"/>
   <rect class="fil7 str16" x="40108" y="29357" width="5340" height="9871"/>
   <rect class="fil7 str16" x="52524" y="27813" width="5340" height="11411"/>
   <rect class="fil8 str16" x="64941" y="25523" width="5340" height="13701"/>
   <rect class="fil8 str16" x="78083" y="25788" width="5340" height="13441"/>
   <rect class="fil8 str16" x="89845" y="21747" width="5340" height="17482"/>
   <line class="fil0 str15" x1="36606" y1="39229" x2="36606" y2= "38353" />
   <line class="fil0 str15" x1="74133" y1="39214" x2="74133" y2= "38363" />
   <line class="fil0 str15" x1="86425" y1="39214" x2="86425" y2= "38363" />
   <rect class="fil7 str16" x="34629" y="87340" width="6326" height="13907"/>
   <rect class="fil7 str16" x="51658" y="85531" width="6326" height="15716"/>
   <rect class="fil8 str16" x="69756" y="84925" width="6480" height="16322"/>
   <rect class="fil8 str16" x="86997" y="84352" width="6461" height="16895"/>
   <polyline class="fil0 str14" points="11860,80027 11860,101247 98870,101247 "/>
   <line class="fil0 str15" x1="98870" y1="101194" x2="98870" y2= "100304" />
   <line class="fil0 str15" x1="81614" y1="101194" x2="81614" y2= "100275" />
   <line class="fil0 str15" x1="64305" y1="101194" x2="64305" y2= "100347" />
   <line class="fil0 str15" x1="46391" y1="101194" x2="46391" y2= "100323" />
   <line class="fil0 str15" x1="29140" y1="101194" x2="29140" y2= "100367" />
   <line class="fil0 str15" x1="12769" y1="96903" x2="11855" y2= "96903" />
   <line class="fil0 str15" x1="12769" y1="92506" x2="11855" y2= "92506" />
   <line class="fil0 str15" x1="12769" y1="88331" x2="11855" y2= "88331" />
   <line class="fil0 str15" x1="12769" y1="83943" x2="11855" y2= "83943" />
   <line class="fil0 str15" x1="12769" y1="80042" x2="11855" y2= "80042" />
   <g transform="matrix(1 0 0 1 -32901.1 49641.1)">
    <text x="50000" y="54545"  class="fil5 fnt0">SQH</text>
   </g>
   <g transform="matrix(1 0 0 1 -28764 50078.7)">
    <text x="50000" y="54986"  class="fil5 fnt1">1</text>
   </g>
   <g transform="matrix(1 0 0 1 -14399.5 49641.1)">
    <text x="50000" y="54545"  class="fil5 fnt0">SQH</text>
   </g>
   <g transform="matrix(1 0 0 1 -10262.4 50078.7)">
    <text x="50000" y="54986"  class="fil5 fnt1">3</text>
   </g>
   <g transform="matrix(1 0 0 1 3019.64 49641.1)">
    <text x="50000" y="54545"  class="fil5 fnt0">SQH</text>
   </g>
   <g transform="matrix(1 0 0 1 7156.73 50078.7)">
    <text x="50000" y="54986"  class="fil5 fnt1">2</text>
   </g>
   <g transform="matrix(1 0 0 1 20876.7 49641.1)">
    <text x="50000" y="54545"  class="fil5 fnt0">SQH</text>
   </g>
   <g transform="matrix(1 0 0 1 25013.8 50078.7)">
    <text x="50000" y="54986"  class="fil5 fnt1">4</text>
   </g>
   <g transform="matrix(1 0 0 1 38084.2 49641.1)">
    <text x="50000" y="54545"  class="fil5 fnt0">SQH</text>
   </g>
   <g transform="matrix(1 0 0 1 42221.3 50078.7)">
    <text x="50000" y="54986"  class="fil5 fnt1">5</text>
   </g>
   <g>
    <g transform="matrix(0.95 0 0 1 -37969.5 47404.9)">
     <text x="50000" y="54545"  class="fil5 fnt2">0</text>
    </g>
   </g>
   <g>
    <g transform="matrix(0.95 0 0 1 -41186.2 43062.7)">
     <text x="50000" y="54545"  class="fil5 fnt2">1 000</text>
    </g>
   </g>
   <g>
    <g transform="matrix(0.95 0 0 1 -41186.2 26188.4)">
     <text x="50000" y="54545"  class="fil5 fnt2">5 000</text>
    </g>
   </g>
   <g>
    <g transform="matrix(0.95 0 0 1 -41186.2 30044)">
     <text x="50000" y="54545"  class="fil5 fnt2">4 000</text>
    </g>
   </g>
   <g>
    <g transform="matrix(0.95 0 0 1 -41186.2 34660.9)">
     <text x="50000" y="54545"  class="fil5 fnt2">3 000</text>
    </g>
   </g>
   <g>
    <g transform="matrix(0.95 0 0 1 -41186.2 38844.9)">
     <text x="50000" y="54545"  class="fil5 fnt2">2 000</text>
    </g>
   </g>
   <g>
    <g transform="matrix(0.95 0 0 1 -40880.5 21966)">
     <text x="50000" y="54545"  class="fil5 fnt5">狮泉河</text>
    </g>
   </g>
   <g>
    <g transform="matrix(0.95 0 0 1 -2962.36 28032)">
     <text x="50000" y="54545"  class="fil5 fnt5">中度沙漠化</text>
    </g>
   </g>
   <g>
    <g transform="matrix(0.95 0 0 1 31951.6 26601.6)">
     <text x="50000" y="54545"  class="fil5 fnt5">重度沙漠化</text>
    </g>
   </g>
   <rect class="fil9 str16" x="34648" y="60920" width="6326" height="7630"/>
   <rect class="fil7 str16" x="51673" y="55907" width="6326" height="12642"/>
   <rect class="fil7 str16" x="68818" y="59251" width="6480" height="9299"/>
   <rect class="fil8 str16" x="86054" y="51910" width="6461" height="16640"/>
   <polyline class="fil0 str14" points="11875,47335 11875,68554 98047,68554 "/>
   <line class="fil0 str15" x1="97932" y1="68554" x2="97932" y2= "67664" />
   <line class="fil0 str15" x1="80676" y1="68554" x2="80676" y2= "67640" />
   <line class="fil0 str15" x1="63367" y1="68554" x2="63367" y2= "67707" />
   <line class="fil0 str15" x1="46405" y1="68554" x2="46405" y2= "67683" />
   <line class="fil0 str15" x1="29154" y1="68554" x2="29154" y2= "67732" />
   <line class="fil0 str15" x1="12875" y1="64205" x2="11952" y2= "64205" />
   <line class="fil0 str15" x1="12875" y1="60193" x2="11952" y2= "60193" />
   <line class="fil0 str15" x1="12875" y1="55922" x2="11952" y2= "55922" />
   <line class="fil0 str15" x1="12875" y1="51852" x2="11952" y2= "51852" />
   <line class="fil0 str15" x1="12875" y1="47349" x2="11952" y2= "47349" />
   <g transform="matrix(1 0 0 1 -39530.2 14870)">
    <text x="50000" y="54545"  class="fil5 fnt2">0</text>
   </g>
   <g transform="matrix(1 0 0 1 -43046.7 10319.1)">
    <text x="50000" y="54545"  class="fil5 fnt2">1 000</text>
   </g>
   <g transform="matrix(1 0 0 1 -43046.7 -6402.55)">
    <text x="50000" y="54545"  class="fil5 fnt2">5 000</text>
   </g>
   <g transform="matrix(1 0 0 1 -43046.7 -1909.45)">
    <text x="50000" y="54545"  class="fil5 fnt2">4 000</text>
   </g>
   <g transform="matrix(1 0 0 1 -43046.7 2064.18)">
    <text x="50000" y="54545"  class="fil5 fnt2">3 000</text>
   </g>
   <g transform="matrix(1 0 0 1 -43046.7 6451.45)">
    <text x="50000" y="54545"  class="fil5 fnt2">2 000</text>
   </g>
   <g>
    <g transform="matrix(0.95 0 0 1 -40734.4 -10463.6)">
     <text x="50000" y="54545"  class="fil5 fnt3">那曲</text>
    </g>
   </g>
   <g>
    <g transform="matrix(0.95 0 0 1 -14802.7 3293.27)">
     <text x="50000" y="54545"  class="fil5 fnt5">轻度沙漠化</text>
    </g>
   </g>
   <g>
    <g transform="matrix(0.95 0 0 1 -18311.1 5137.64)">
     <text x="50000" y="54545"  class="fil5 fnt2">Slightly desertified land</text>
    </g>
   </g>
   <g>
    <g transform="matrix(0.95 0 0 1 10685.8 -1995.64)">
     <text x="50000" y="54545"  class="fil5 fnt5">中度沙漠化</text>
    </g>
   </g>
   <g>
    <g transform="matrix(0.95 0 0 1 36337.8 -5723.82)">
     <text x="50000" y="54545"  class="fil5 fnt5">重度沙漠化</text>
    </g>
   </g>
   <g transform="matrix(1 0 0 1 -31294.4 16952.9)">
    <text x="50000" y="54545"  class="fil5 fnt0">NQ</text>
   </g>
   <g transform="matrix(1 0 0 1 -28369.5 17395.5)">
    <text x="50000" y="54986"  class="fil5 fnt1">2</text>
   </g>
   <g transform="matrix(1 0 0 1 -13754.9 16952.9)">
    <text x="50000" y="54545"  class="fil5 fnt0">NQ</text>
   </g>
   <g transform="matrix(1 0 0 1 -10830 17395.5)">
    <text x="50000" y="54986"  class="fil5 fnt1">6</text>
   </g>
   <g transform="matrix(1 0 0 1 3423.82 16952.9)">
    <text x="50000" y="54545"  class="fil5 fnt0">NQ</text>
   </g>
   <g transform="matrix(1 0 0 1 6348.55 17395.5)">
    <text x="50000" y="54986"  class="fil5 fnt1">4</text>
   </g>
   <g transform="matrix(1 0 0 1 20963.3 16952.9)">
    <text x="50000" y="54545"  class="fil5 fnt0">NQ</text>
   </g>
   <g transform="matrix(1 0 0 1 23888 17395.5)">
    <text x="50000" y="54986"  class="fil5 fnt1">3</text>
   </g>
   <g transform="matrix(1 0 0 1 37896.5 16952.9)">
    <text x="50000" y="54545"  class="fil5 fnt0">NQ</text>
   </g>
   <g transform="matrix(1 0 0 1 40821.5 17395.5)">
    <text x="50000" y="54986"  class="fil5 fnt1">5</text>
   </g>
   <g>
    <g transform="matrix(1.2 0 0 1 -30302.2 -47822.9)">
     <text x="50000" y="54545"  class="fil10 fnt6">土地沙漠化不同阶段的风蚀速度</text>
    </g>
   </g>
   <g transform="matrix(1 0 0 1 -35094.7 -44209.1)">
    <text x="50000" y="54545"  class="fil10 fnt7">The erosive speed of different stages of desertification in different regions</text>
   </g>
   <g>
    <g transform="matrix(0.95 0 0 1 32525.5 -3844.73)">
     <text x="50000" y="54545"  class="fil5 fnt2">Severely desertified land</text>
    </g>
   </g>
   <g>
    <g transform="matrix(0.95 0 0 1 26615.6 28521.6)">
     <text x="50000" y="54545"  class="fil5 fnt8">Severely desertified land</text>
    </g>
   </g>
   <g>
    <g transform="matrix(0.95 0 0 1 -9489.82 29970.9)">
     <text x="50000" y="54545"  class="fil5 fnt8">Moderately desertified land</text>
    </g>
   </g>
   <g>
    <g transform="matrix(0.95 0 0 1 5852.18 -130.545)">
     <text x="50000" y="54545"  class="fil5 fnt2">Moderately desertified land</text>
    </g>
   </g>
   <g>
    <g transform="matrix(0.95 0 0 1 -33779.1 9527.82)">
     <text x="50000" y="54545"  class="fil5 fnt4">  </text>
     <text x="51255" y="54545"  class="fil5 fnt5">潜在沙漠化</text>
    </g>
   </g>
   <g>
    <g transform="matrix(0.95 0 0 1 -31818.7 41696)">
     <text x="50000" y="54545"  class="fil5 fnt4">  </text>
     <text x="51255" y="54545"  class="fil5 fnt5">潜在沙漠化</text>
    </g>
   </g>
   <g>
    <g transform="matrix(2.64845E-014 1 -1 2.64845E-014 55812.7 29382)">
     <text x="50000" y="54545"  class="fil5 fnt3">风蚀率</text>
     <text x="56775" y="54545"  class="fil5 fnt3">\</text>
    </g>
    <g transform="matrix(2.64845E-014 1 -1 2.64845E-014 55812.7 37285.8)">
     <text x="50000" y="54545"  class="fil5 fnt9">(</text>
    </g>
    <g transform="matrix(2.64845E-014 1 -1 2.64845E-014 55812.7 40191.5)">
     <text x="50000" y="54545"  class="fil5 fnt9">\</text>
     <text x="58711" y="54545"  class="fil5 fnt9">·</text>
     <text x="62583" y="54545"  class="fil5 fnt9">)</text>
     <text x="50968" y="54545"  class="fil5 fnt9">平方千米</text>
     <text x="60647" y="54545"  class="fil5 fnt9">年</text>
    </g>
    <g transform="matrix(2.64845E-014 1 -1 2.64845E-014 55812.7 38252.7)">
     <text x="50000" y="54545"  class="fil5 fnt9">吨</text>
    </g>
   </g>
   <g transform="matrix(1 0 0 1 -35426.7 -18405.1)">
    <text x="50000" y="54545"  class="fil5 fnt2">Potential land </text>
   </g>
   <g transform="matrix(1 0 0 1 -35426.7 -16476)">
    <text x="50000" y="54545"  class="fil5 fnt2">desertification</text>
   </g>
   <g transform="matrix(1 0 0 1 -35426.7 11435.1)">
    <text x="50000" y="54545"  class="fil5 fnt2">Potential land </text>
   </g>
   <g transform="matrix(1 0 0 1 -35426.7 13364.2)">
    <text x="50000" y="54545"  class="fil5 fnt2">desertification</text>
   </g>
   <g transform="matrix(1 0 0 1 -34387.6 43603.6)">
    <text x="50000" y="54545"  class="fil5 fnt8">Potential land </text>
   </g>
   <g transform="matrix(1 0 0 1 -34387.6 45855.1)">
    <text x="50000" y="54545"  class="fil5 fnt8">desertification</text>
   </g>
   <g>
    <g transform="matrix(2.64845E-014 -1 1 2.64845E-014 -49757.5 153184)">
     <text x="50000" y="54545"  class="fil5 fnt2">Soil erosion rate/</text>
    </g>
    <g transform="matrix(2.64845E-014 -1 1 2.64845E-014 -49757.5 139960)">
     <text x="50000" y="54545"  class="fil5 fnt10">［</text>
    </g>
    <g transform="matrix(2.64845E-014 -1 1 2.64845E-014 -49757.5 138344)">
     <text x="50000" y="54545"  class="fil5 fnt11">t/(</text>
    </g>
    <g transform="matrix(2.64845E-014 -1 1 2.64845E-014 -49757.5 136217)">
     <text x="50000" y="54545"  class="fil5 fnt11">m</text>
    </g>
    <g transform="matrix(2.64845E-014 -1 1 2.64845E-014 -49757.5 134654)">
     <text x="50000" y="54545"  class="fil5 fnt11">·a)</text>
    </g>
    <g transform="matrix(2.64845E-014 -1 1 2.64845E-014 -49757.5 137021)">
     <text x="50000" y="54545"  class="fil5 fnt12">k</text>
    </g>
    <g transform="matrix(2.64845E-014 -1 1 2.64845E-014 -50560.7 135058)">
     <text x="50000" y="53739"  class="fil5 fnt13">2</text>
    </g>
    <g transform="matrix(2.64845E-014 -1 1 2.64845E-014 -49757.5 131888)">
     <text x="50000" y="54545"  class="fil5 fnt14">］</text>
    </g>
   </g>
   <g transform="matrix(1 0 0 1 -43229.5 -8629.82)">
    <text x="50000" y="54545"  class="fil5 fnt2">Nagqu </text>
   </g>
   <g transform="matrix(1 0 0 1 -42960.2 -37993.8)">
    <text x="50000" y="54545"  class="fil5 fnt2">Xigaze</text>
   </g>
   <g transform="matrix(1 0 0 1 -44119.5 23788.7)">
    <text x="50000" y="54545"  class="fil5 fnt2">Shiquanhe</text>
   </g>
   <g>
    <g transform="matrix(-1.14438 -0 -0 -1 70305.9 68958.4)">
     <text x="50000" y="54545"  class="fil5 fnt15">ˇ</text>
    </g>
   </g>
   <g>
    <g transform="matrix(2.64845E-014 1 -1 2.64845E-014 55812.7 -2323.82)">
     <text x="50000" y="54545"  class="fil5 fnt3">风蚀率</text>
     <text x="56775" y="54545"  class="fil5 fnt3">\</text>
    </g>
    <g transform="matrix(2.64845E-014 1 -1 2.64845E-014 55812.7 5580.18)">
     <text x="50000" y="54545"  class="fil5 fnt9">(</text>
    </g>
    <g transform="matrix(2.64845E-014 1 -1 2.64845E-014 55812.7 8485.64)">
     <text x="50000" y="54545"  class="fil5 fnt9">\</text>
     <text x="58711" y="54545"  class="fil5 fnt9">·</text>
     <text x="62583" y="54545"  class="fil5 fnt9">)</text>
     <text x="50968" y="54545"  class="fil5 fnt9">平方千米</text>
     <text x="60647" y="54545"  class="fil5 fnt9">年</text>
    </g>
    <g transform="matrix(2.64845E-014 1 -1 2.64845E-014 55812.7 6547.09)">
     <text x="50000" y="54545"  class="fil5 fnt9">吨</text>
    </g>
   </g>
   <g>
    <g transform="matrix(2.64845E-014 -1 1 2.64845E-014 -49757.5 121479)">
     <text x="50000" y="54545"  class="fil5 fnt2">Soil erosion rate/</text>
    </g>
    <g transform="matrix(2.64845E-014 -1 1 2.64845E-014 -49757.5 108255)">
     <text x="50000" y="54545"  class="fil5 fnt10">［</text>
    </g>
    <g transform="matrix(2.64845E-014 -1 1 2.64845E-014 -49757.5 106638)">
     <text x="50000" y="54545"  class="fil5 fnt11">t/(</text>
    </g>
    <g transform="matrix(2.64845E-014 -1 1 2.64845E-014 -49757.5 104512)">
     <text x="50000" y="54545"  class="fil5 fnt11">m</text>
    </g>
    <g transform="matrix(2.64845E-014 -1 1 2.64845E-014 -49757.5 102949)">
     <text x="50000" y="54545"  class="fil5 fnt11">·a)</text>
    </g>
    <g transform="matrix(2.64845E-014 -1 1 2.64845E-014 -49757.5 105315)">
     <text x="50000" y="54545"  class="fil5 fnt12">k</text>
    </g>
    <g transform="matrix(2.64845E-014 -1 1 2.64845E-014 -50560.7 103353)">
     <text x="50000" y="53739"  class="fil5 fnt13">2</text>
    </g>
    <g transform="matrix(2.64845E-014 -1 1 2.64845E-014 -49757.5 100183)">
     <text x="50000" y="54545"  class="fil5 fnt14">］</text>
    </g>
   </g>
   <g>
    <g transform="matrix(2.64845E-014 1 -1 2.64845E-014 55812.7 -29306.9)">
     <text x="50000" y="54545"  class="fil5 fnt3">风蚀率</text>
     <text x="56775" y="54545"  class="fil5 fnt3">\</text>
    </g>
    <g transform="matrix(2.64845E-014 1 -1 2.64845E-014 55812.7 -21403.1)">
     <text x="50000" y="54545"  class="fil5 fnt9">(</text>
    </g>
    <g transform="matrix(2.64845E-014 1 -1 2.64845E-014 55812.7 -18497.5)">
     <text x="50000" y="54545"  class="fil5 fnt9">\</text>
     <text x="58711" y="54545"  class="fil5 fnt9">·</text>
     <text x="62583" y="54545"  class="fil5 fnt9">)</text>
     <text x="50968" y="54545"  class="fil5 fnt9">平方千米</text>
     <text x="60647" y="54545"  class="fil5 fnt9">年</text>
    </g>
    <g transform="matrix(2.64845E-014 1 -1 2.64845E-014 55812.7 -20436.2)">
     <text x="50000" y="54545"  class="fil5 fnt9">吨</text>
    </g>
   </g>
   <g>
    <g transform="matrix(2.64845E-014 -1 1 2.64845E-014 -49757.5 94496)">
     <text x="50000" y="54545"  class="fil5 fnt2">Soil erosion rate/</text>
    </g>
    <g transform="matrix(2.64845E-014 -1 1 2.64845E-014 -49757.5 81271.6)">
     <text x="50000" y="54545"  class="fil5 fnt10">［</text>
    </g>
    <g transform="matrix(2.64845E-014 -1 1 2.64845E-014 -49757.5 79655.3)">
     <text x="50000" y="54545"  class="fil5 fnt11">t/(</text>
    </g>
    <g transform="matrix(2.64845E-014 -1 1 2.64845E-014 -49757.5 77528.9)">
     <text x="50000" y="54545"  class="fil5 fnt11">m</text>
    </g>
    <g transform="matrix(2.64845E-014 -1 1 2.64845E-014 -49757.5 75965.5)">
     <text x="50000" y="54545"  class="fil5 fnt11">·a)</text>
    </g>
    <g transform="matrix(2.64845E-014 -1 1 2.64845E-014 -49757.5 78332.4)">
     <text x="50000" y="54545"  class="fil5 fnt12">k</text>
    </g>
    <g transform="matrix(2.64845E-014 -1 1 2.64845E-014 -50560.7 76369.6)">
     <text x="50000" y="53739"  class="fil5 fnt13">2</text>
    </g>
    <g transform="matrix(2.64845E-014 -1 1 2.64845E-014 -49757.5 73199.5)">
     <text x="50000" y="54545"  class="fil5 fnt14">］</text>
    </g>
   </g>
  </g>
 </g>
 <g id="图层_x0020_9">
  <metadata id="CorelCorpID_1Corel-Layer"/>
  <g id="_1129430016">
  </g>
  <g id="_1129427520">
  </g>
  <g id="_1129428608">
  </g>
 </g>
</svg>
