<?xml version="1.0" encoding="UTF-8"?>
<!DOCTYPE svg PUBLIC "-//W3C//DTD SVG 1.1//EN" "http://www.w3.org/Graphics/SVG/1.1/DTD/svg11.dtd">
<!-- Creator: CorelDRAW X6 -->
<svg xmlns="http://www.w3.org/2000/svg" xml:space="preserve" width="1000px" height="344px" version="1.1" style="shape-rendering:geometricPrecision; text-rendering:geometricPrecision; image-rendering:optimizeQuality; fill-rule:evenodd; clip-rule:evenodd"
viewBox="0 0 100000 34375"
 xmlns:xlink="http://www.w3.org/1999/xlink">
 <defs>
  <style type="text/css">
   <![CDATA[
    .str0 {stroke:#332C2B;stroke-width:62.5}
    .str1 {stroke:#FEFEFE;stroke-width:312.5}
    .fil2 {fill:none}
    .fil1 {fill:#332C2B}
    .fil3 {fill:#B6B49E}
    .fil0 {fill:#FEFEFE}
    .fil5 {fill:black}
    .fil4 {fill:#BFD0DF}
    .fnt4 {font-weight:normal;font-size:1102.44px;font-family:'Times New Roman'}
    .fnt1 {font-weight:normal;font-size:1499.88px;font-family:'方正书宋简体'}
    .fnt0 {font-weight:normal;font-size:1543.38px;font-family:'方正书宋简体'}
    .fnt3 {font-weight:normal;font-size:1763.88px;font-family:'Arial'}
    .fnt2 {font-weight:normal;font-size:2204.88px;font-family:'方正准圆简体'}
   ]]>
  </style>
 </defs>
<symbol id="符号11" viewBox="49281 16469 1438 1438">
 <circle class="fil0 str0" cx="50000" cy="17187" r="687"/>
 <circle class="fil1 str0" cx="50000" cy="17188" r="406"/>
</symbol>
<symbol id="符号23" viewBox="41378 12600 17309 9173">
 <polygon class="fil2 str1" points="54233,12977 54233,15093 44180,15093 44180,19282 54233,19282 54233,21398 58466,17210 "/>
 <polygon id="1" class="fil3" points="54233,12977 54233,15093 44180,15093 44180,19282 54233,19282 54233,21398 58466,17210 "/>
 <polygon class="fil2 str1" points="42593,15093 42593,19282 43651,19282 43651,15093 "/>
 <polygon id="1" class="fil3" points="42593,15093 42593,19282 43651,19282 43651,15093 "/>
 <polygon class="fil2 str1" points="41534,15093 41534,19282 42064,19282 42064,15093 "/>
 <polygon id="1" class="fil3" points="41534,15093 41534,19282 42064,19282 42064,15093 "/>
</symbol>
<symbol id="符号22" viewBox="43770 12600 12300 9173">
 <polygon class="fil2 str1" points="51615,12977 51615,15093 44152,15093 46269,17210 44152,19282 51615,19282 51615,21398 55848,17210 "/>
 <polygon id="1" class="fil3" points="51615,12977 51615,15093 44152,15093 46269,17210 44152,19282 51615,19282 51615,21398 55848,17210 "/>
</symbol>
<symbol id="符号13" viewBox="49500 16688 1000 1000">
 <circle class="fil0 str0" cx="50000" cy="17187" r="469"/>
 <circle class="fil2 str0" cx="50000" cy="17188" r="176"/>
</symbol>
 <g id="图层_x0020_2">
  <metadata id="CorelCorpID_0Corel-Layer"/>
  <g id="_795521088">
   <rect class="fil4" x="2322" y="12270" width="10067" height="3750"/>
   <rect class="fil4" x="19017" y="9467" width="9172" height="3750"/>
   <rect class="fil4" x="18997" y="14516" width="9187" height="3750"/>
   <rect class="fil4" x="33229" y="7663" width="16633" height="3750"/>
   <rect class="fil4" x="54263" y="7911" width="8428" height="3750"/>
   <rect class="fil4" x="33288" y="15743" width="16587" height="3750"/>
   <rect class="fil4" x="54326" y="15736" width="8366" height="3750"/>
   <rect class="fil4" x="67987" y="12255" width="14220" height="3750"/>
   <rect class="fil4" x="86277" y="14562" width="10025" height="3750"/>
   <rect class="fil4" x="86348" y="9483" width="10073" height="3750"/>
   <rect class="fil4" x="2304" y="28427" width="10065" height="3750"/>
   <rect class="fil4" x="15971" y="28509" width="8837" height="3750"/>
   <rect class="fil4" x="28743" y="30268" width="9099" height="3750"/>
   <rect class="fil4" x="28566" y="25421" width="9292" height="3750"/>
   <rect class="fil4" x="41532" y="28445" width="11272" height="3750"/>
   <rect class="fil4" x="56690" y="28427" width="6505" height="3750"/>
   <rect class="fil4" x="65800" y="23796" width="7727" height="3750"/>
   <rect class="fil4" x="67302" y="28729" width="6265" height="3750"/>
   <rect class="fil4" x="77438" y="28420" width="8017" height="3750"/>
   <rect class="fil4" x="89194" y="28414" width="9317" height="3750"/>
   <rect class="fil4" x="37417" y="20463" width="5426" height="3750"/>
   <use transform="scale(0.223626 0.248378)" x="330080" y="116040" width="12300" height="9173" xlink:href="#符号22"/>
   <use transform="scale(0.223626 0.248378)" x="283971" y="116040" width="12300" height="9173" xlink:href="#符号22"/>
   <use transform="scale(0.223626 0.248378)" x="237384" y="116040" width="12300" height="9173" xlink:href="#符号22"/>
   <use transform="scale(0.223626 0.248378)" x="169743" y="116040" width="12300" height="9173" xlink:href="#符号22"/>
   <use transform="matrix(0.276531 -0.139485 0.102278 0.202768 49455.6 18964.2)" x="43770" y="12600" width="12300" height="9173" xlink:href="#符号22"/>
   <use transform="scale(0.38571 0.248378)" x="33648" y="49595" width="12300" height="9173" xlink:href="#符号22"/>
   <rect class="fil0" x="1540" y="11657" width="10195" height="3750"/>
   <rect class="fil0" x="18440" y="8845" width="9127" height="3750"/>
   <rect class="fil0" x="18405" y="13887" width="9146" height="3750"/>
   <rect class="fil0" x="32697" y="7037" width="16533" height="3750"/>
   <rect class="fil0" x="53836" y="7285" width="8230" height="3750"/>
   <rect class="fil0" x="32697" y="15121" width="16554" height="3750"/>
   <rect class="fil0" x="53815" y="15121" width="8251" height="3750"/>
   <rect class="fil0" x="67227" y="11629" width="14356" height="3750"/>
   <rect class="fil0" x="85707" y="13929" width="9970" height="3750"/>
   <rect class="fil0" x="85712" y="8857" width="10083" height="3750"/>
   <rect class="fil0" x="1489" y="27798" width="10252" height="3750"/>
   <text x="3553" y="29715"  class="fil1 fnt0">草场退化           </text>
   <rect class="fil0" x="15463" y="27869" width="8714" height="3750"/>
   <text x="15224" y="29830"  class="fil1 fnt0">“黑土滩”地            </text>
   <rect class="fil0" x="27988" y="29636" width="9254" height="3750"/>
   <text x="28889" y="31581"  class="fil1 fnt1">进一步退化              </text>
   <rect class="fil0" x="27975" y="24795" width="9254" height="3750"/>
   <text x="5992" y="26755"  class="fil1 fnt0">                                                              多年冻土                                                                            </text>
   <rect class="fil0" x="40947" y="27821" width="11228" height="3750"/>
   <text x="42744" y="29684"  class="fil1 fnt0">表土被吹走              </text>
   <rect class="fil0" x="56195" y="27806" width="6386" height="3750"/>
   <text x="56340" y="29658"  class="fil1 fnt0">土壤贫瘠              </text>
   <rect class="fil0" x="65218" y="23158" width="7684" height="3750"/>
   <rect class="fil0" x="66682" y="28102" width="6258" height="3750"/>
   <rect class="fil0" x="76832" y="27790" width="7988" height="3750"/>
   <rect class="fil0" x="88640" y="27790" width="9247" height="3750"/>
   <rect class="fil0" x="36711" y="19821" width="5426" height="3750"/>
   <use transform="scale(0.210863 0.248378)" x="59189" y="116040" width="12300" height="9173" xlink:href="#符号22"/>
   <use transform="scale(0.218799 0.248378)" x="114442" y="116040" width="12300" height="9173" xlink:href="#符号22"/>
   <use transform="scale(0.262381 0.248378)" x="191309" y="63617" width="12300" height="9173" xlink:href="#符号22"/>
   <use transform="scale(0.215711 0.248378)" x="397453" y="116040" width="12300" height="9173" xlink:href="#符号22"/>
   <g transform="matrix(1.2 0 0 1 -32854 -14970)">
    <text x="50000" y="17188"  class="fil1 fnt2">草场退化过程中冻土环境和生态变化系列</text>
   </g>
   <text x="22971" y="4656"  class="fil5 fnt3">Frozen soil and ecological variation in grassland degradation processes</text>
   <text x="4817" y="8871"  class="fil1 fnt0">                                                                                   地下水位下降                     </text>
   <text x="54889" y="9148"  class="fil1 fnt0">土壤旱化</text>
   <text x="4752" y="10694"  class="fil1 fnt0">                                        多年冻土                                                                                                                                                                   </text>
   <text x="86920" y="10746"  class="fil1 fnt0">草场沙漠化</text>
   <text x="3574" y="13549"  class="fil1 fnt0">草场退化                       </text>
   <text x="19144" y="15736"  class="fil1 fnt0">进一步退化                                                                                                               </text>
   <text x="69027" y="13514"  class="fil1 fnt0">草场进一步退化                        </text>
   <text x="86857" y="15814"  class="fil1 fnt0">土地沙漠化</text>
   <text x="6732" y="17031"  class="fil1 fnt0">                                                                              地下水质变化                          </text>
   <text x="54106" y="17001"  class="fil1 fnt0">土壤盐渍化</text>
   <text x="2157" y="21634"  class="fil1 fnt0">                                                                                             (盐化)</text>
   <text x="66012" y="24963"  class="fil1 fnt0">土壤生态</text>
   <g transform="matrix(1 0 0 1 17538.1 12712.9)">
    <text x="50000" y="17188"  class="fil1 fnt0">功能低</text>
    <text x="54630" y="17188"  class="fil1 fnt0">               </text>
   </g>
   <text x="77763" y="29666"  class="fil1 fnt0">地表裸露              </text>
   <text x="89429" y="29673"  class="fil1 fnt0">土地沙漠化</text>
   <use transform="scale(0.215711 0.248378)" x="383692" y="49595" width="12300" height="9173" xlink:href="#符号22"/>
   <use transform="matrix(0.270455 0.150928 -0.110669 0.198313 53410.1 924.09)" x="43770" y="12600" width="12300" height="9173" xlink:href="#符号22"/>
   <use transform="scale(0.262381 0.248378)" x="191309" y="33300" width="12300" height="9173" xlink:href="#符号22"/>
   <use transform="matrix(0.270085 0.151588 -0.111153 0.198042 19135.7 4336.56)" x="43770" y="12600" width="12300" height="9173" xlink:href="#符号22"/>
   <use transform="matrix(0.272073 -0.147991 0.108516 0.199499 15219.6 15549.8)" x="43770" y="12600" width="12300" height="9173" xlink:href="#符号22"/>
   <text x="1695" y="14736"  class="fil1 fnt4">Grassland degradation   </text>
   <text x="20584" y="11869"  class="fil1 fnt4">Permafrost            </text>
   <text x="18618" y="16868"  class="fil1 fnt4">Further degradation </text>
   <text x="36038" y="10040"  class="fil1 fnt4">Falling of water tables  </text>
   <text x="32721" y="18145"  class="fil1 fnt4">Change of underground water quality        </text>
   <text x="55489" y="10341"  class="fil1 fnt4">Soil aridity</text>
   <text x="54376" y="18161"  class="fil1 fnt4">Soil salinization</text>
   <text x="67254" y="14692"  class="fil1 fnt4">Further degradation in grassland    </text>
   <text x="85843" y="11858"  class="fil1 fnt4">Pasture desertification</text>
   <text x="86543" y="16952"  class="fil1 fnt4">Land desertification</text>
   <text x="36793" y="22819"  class="fil1 fnt4">Salinization</text>
   <text x="17115" y="30947"  class="fil1 fnt4">Black beach</text>
   <text x="40877" y="30897"  class="fil1 fnt4">Topsoil to be blown away  </text>
   <text x="57424" y="30823"  class="fil1 fnt4">Poor soil</text>
   <text x="66292" y="26168"  class="fil1 fnt4">Soil ecology</text>
   <text x="66828" y="31066"  class="fil1 fnt4">Low function       </text>
   <text x="76832" y="30790"  class="fil1 fnt4">Bare earth surface</text>
   <text x="1673" y="30853"  class="fil1 fnt4">Grassland degradation   </text>
   <text x="30182" y="27907"  class="fil1 fnt4">Permafrost            </text>
   <text x="28255" y="32709"  class="fil1 fnt4">Further degradation </text>
   <text x="88842" y="30817"  class="fil1 fnt4">Land desertification</text>
  </g>
 </g>
</svg>
