<?xml version="1.0" encoding="UTF-8"?>
<!DOCTYPE svg PUBLIC "-//W3C//DTD SVG 1.1//EN" "http://www.w3.org/Graphics/SVG/1.1/DTD/svg11.dtd">
<!-- Creator: CorelDRAW X6 -->
<svg xmlns="http://www.w3.org/2000/svg" xml:space="preserve" width="1001px" height="334px" version="1.1" style="shape-rendering:geometricPrecision; text-rendering:geometricPrecision; image-rendering:optimizeQuality; fill-rule:evenodd; clip-rule:evenodd"
viewBox="0 0 100100 33367"
 xmlns:xlink="http://www.w3.org/1999/xlink">
 <defs>
  <style type="text/css">
   <![CDATA[
    .str0 {stroke:#332C2B;stroke-width:66.7333}
    .str1 {stroke:#FEFEFE;stroke-width:333.667}
    .fil1 {fill:none}
    .fil3 {fill:#332C2B}
    .fil2 {fill:#B6B49E}
    .fil0 {fill:#FEFEFE}
    .fil5 {fill:black}
    .fil4 {fill:#BFD0DF}
    .fnt5 {font-weight:normal;font-size:1134.47px;font-family:'Times New Roman'}
    .fnt3 {font-weight:normal;font-size:1177.11px;font-family:'Times New Roman'}
    .fnt6 {font-weight:normal;font-size:1177.11px;font-family:'幼圆'}
    .fnt4 {font-weight:normal;font-size:1177.11px;font-family:'方正书宋简体'}
    .fnt2 {font-weight:normal;font-size:1647.91px;font-family:'方正书宋简体'}
    .fnt1 {font-weight:normal;font-size:1883.35px;font-family:'Arial'}
    .fnt0 {font-weight:normal;font-size:2354.22px;font-family:'方正准圆简体'}
   ]]>
  </style>
 </defs>
<symbol id="符号13" viewBox="49516 16149 1068 1068">
 <circle class="fil0 str0" cx="50050" cy="16683" r="500"/>
 <circle class="fil1 str0" cx="50050" cy="16683" r="188"/>
</symbol>
<symbol id="符号23" viewBox="40844 11785 18481 9795">
 <polygon class="fil1 str1" points="54570,12187 54570,14447 43836,14447 43836,18920 54570,18920 54570,21179 59089,16707 "/>
 <polygon id="1" class="fil2" points="54570,12187 54570,14447 43836,14447 43836,18920 54570,18920 54570,21179 59089,16707 "/>
 <polygon class="fil1 str1" points="42141,14447 42141,18920 43271,18920 43271,14447 "/>
 <polygon id="1" class="fil2" points="42141,14447 42141,18920 43271,18920 43271,14447 "/>
 <polygon class="fil1 str1" points="41011,14447 41011,18920 41576,18920 41576,14447 "/>
 <polygon id="1" class="fil2" points="41011,14447 41011,18920 41576,18920 41576,14447 "/>
</symbol>
<symbol id="符号11" viewBox="49283 15916 1535 1535">
 <circle class="fil0 str0" cx="50050" cy="16683" r="734"/>
 <circle class="fil3 str0" cx="50050" cy="16683" r="434"/>
</symbol>
<symbol id="符号22" viewBox="43397 11785 13133 9795">
 <polygon class="fil1 str1" points="51774,12187 51774,14447 43806,14447 46066,16707 43806,18920 51774,18920 51774,21179 56294,16707 "/>
 <polygon id="1" class="fil2" points="51774,12187 51774,14447 43806,14447 46066,16707 43806,18920 51774,18920 51774,21179 56294,16707 "/>
</symbol>
 <g id="图层_x0020_2">
  <metadata id="CorelCorpID_0Corel-Layer"/>
  <g id="_719389328">
   <rect class="fil4" x="73108" y="9183" width="12443" height="4004"/>
   <polygon class="fil4" points="17976,12922 32877,12922 32877,16926 17976,16926 "/>
   <rect class="fil4" x="21147" y="22799" width="11729" height="4004"/>
   <rect class="fil4" x="21071" y="28109" width="11729" height="4004"/>
   <rect class="fil4" x="63193" y="22979" width="36344" height="4004"/>
   <rect class="fil4" x="63202" y="28390" width="36354" height="4004"/>
   <rect class="fil4" x="63256" y="12027" width="8204" height="4004"/>
   <rect class="fil4" x="92336" y="11955" width="7198" height="4004"/>
   <rect class="fil4" x="1074" y="19236" width="15892" height="4004"/>
   <rect class="fil4" x="1130" y="24387" width="15882" height="4004"/>
   <rect class="fil4" x="63299" y="17240" width="8191" height="4004"/>
   <rect class="fil4" x="88342" y="17137" width="11203" height="4004"/>
   <rect class="fil4" x="38566" y="9206" width="14134" height="4004"/>
   <use transform="scale(1.05888 0.296859)" x="67735" y="43477" width="18481" height="9795" xlink:href="#符号23"/>
   <use transform="scale(1.43761 0.296859)" x="23232" y="43477" width="18481" height="9795" xlink:href="#符号23"/>
   <use transform="scale(1.60281 0.296859)" x="20817" y="78398" width="18481" height="9795" xlink:href="#符号23"/>
   <use transform="scale(1.60281 0.296859)" x="20817" y="92660" width="18481" height="9795" xlink:href="#符号23"/>
   <rect class="fil0" x="37939" y="8526" width="14098" height="4004"/>
   <rect class="fil0" x="72365" y="8526" width="12514" height="4004"/>
   <polygon class="fil0" points="17323,12240 32209,12240 32209,16244 17323,16244 "/>
   <rect class="fil0" x="20522" y="22126" width="11687" height="4004"/>
   <rect class="fil0" x="20456" y="27447" width="11681" height="4004"/>
   <rect class="fil0" x="62568" y="22313" width="36301" height="4004"/>
   <rect class="fil0" x="62602" y="27718" width="36283" height="4004"/>
   <rect class="fil0" x="62589" y="11349" width="8168" height="4004"/>
   <rect class="fil0" x="91430" y="11293" width="7446" height="4004"/>
   <rect class="fil0" x="544" y="18571" width="15761" height="4004"/>
   <rect class="fil0" x="547" y="23715" width="15798" height="4004"/>
   <rect class="fil0" x="62604" y="16540" width="8183" height="4004"/>
   <rect class="fil0" x="87694" y="16486" width="11203" height="4004"/>
   <g transform="matrix(1.2 0 0 1 -35581.3 -13699.4)">
    <text x="50050" y="16683"  class="fil3 fnt0">岛状冻土区内高寒沼泽化草甸植物群落演替系列</text>
   </g>
   <text x="14817" y="5621"  class="fil5 fnt1">Plant community succession series of alpine frost swamp meadow in patchy permafrost region</text>
   <text x="10044" y="10519"  class="fil3 fnt2">                                                                        植被完全被破坏                                           </text>
   <text x="74547" y="10519"  class="fil3 fnt2">表土被吹走    </text>
   <text x="1930" y="14197"  class="fil3 fnt2">                                          ①土壤层</text>
   <text x="30503" y="14197"  class="fil3 fnt2">                             </text>
   <text x="25560" y="14197"  class="fil3 fnt2">干燥化</text>
   <text x="42268" y="14197"  class="fil3 fnt2">                   </text>
   <text x="63413" y="13306"  class="fil3 fnt2">次生裸地                                    </text>
   <text x="84608" y="13306"  class="fil3 fnt2">             </text>
   <text x="93530" y="13250"  class="fil3 fnt2">沙化</text>
   <text x="26287" y="18423"  class="fil3 fnt2">                                                                                             </text>
   <text x="72128" y="18423"  class="fil3 fnt2">                             </text>
   <text x="87949" y="18423"  class="fil3 fnt2">  (不可逆演替)</text>
   <text x="64014" y="18423"  class="fil3 fnt2">                    </text>
   <text x="83892" y="18423"  class="fil3 fnt2">          </text>
   <text x="1869" y="20572"  class="fil3 fnt2">高寒沼泽多年冻土</text>
   <text x="5224" y="25691"  class="fil3 fnt2">退化草甸                          </text>
   <text x="21445" y="24217"  class="fil3 fnt2">②土壤层稍湿             </text>
   <text x="44719" y="24217"  class="fil3 fnt2">                   </text>
   <text x="36606" y="24217"  class="fil3 fnt2">                    </text>
   <text x="52427" y="24217"  class="fil3 fnt2"> </text>
   <text x="66296" y="24409"  class="fil3 fnt2">高寒草甸及高寒草原草甸(部分可逆演替)</text>
   <text x="4743" y="29419"  class="fil3 fnt2">                                         ③土壤层潮湿             </text>
   <text x="45055" y="29419"  class="fil3 fnt2">                   </text>
   <text x="36536" y="29419"  class="fil3 fnt2">                     </text>
   <text x="52763" y="29419"  class="fil3 fnt2"> </text>
   <text x="65496" y="29821"  class="fil3 fnt2">高寒草甸及高寒草原草甸(基本上可逆演替)</text>
   <text x="63403" y="18590"  class="fil3 fnt2"> (黑土滩)</text>
   <text x="2311" y="21816"  class="fil3 fnt3">Alpine swamp permafrost</text>
   <text x="4023" y="26897"  class="fil3 fnt3">Degraded meadow</text>
   <text x="19223" y="15485"  class="fil3 fnt4">①</text>
   <text x="20400" y="15485"  class="fil3 fnt3">Soil layer </text>
   <text x="25239" y="15485"  class="fil5 fnt3">desertification</text>
   <text x="20591" y="25480"  class="fil3 fnt4">②</text>
   <text x="21768" y="25480"  class="fil3 fnt3">Slightly wet soil layer    </text>
   <text x="22450" y="30675"  class="fil3 fnt4">③</text>
   <text x="23627" y="30675"  class="fil3 fnt3">Wet soil layer</text>
   <text x="38052" y="11749"  class="fil3 fnt5">Total destruction of vegetation</text>
   <text x="63046" y="14558"  class="fil3 fnt3">Secondary bare</text>
   <text x="72553" y="11733"  class="fil3 fnt3">Topsoil to be blown away</text>
   <text x="91658" y="14488"  class="fil3 fnt3">Desertification</text>
   <text x="87921" y="19618"  class="fil3 fnt3">Irreversible succession</text>
   <text x="63582" y="25596"  class="fil3 fnt3">Alpine meadow and alpine steppe meadow (partly reversible succession)</text>
   <text x="62887" y="31053"  class="fil3 fnt3">Alpine meadow and alpine steppe meadow (basically reversible succession)</text>
   <text x="63343" y="19772"  class="fil3 fnt6">(</text>
   <text x="69716" y="19772"  class="fil3 fnt6">)</text>
   <text x="63932" y="19772"  class="fil3 fnt3">Black beach</text>
  </g>
 </g>
</svg>
