<?xml version="1.0" encoding="UTF-8"?>
<!DOCTYPE svg PUBLIC "-//W3C//DTD SVG 1.1//EN" "http://www.w3.org/Graphics/SVG/1.1/DTD/svg11.dtd">
<!-- Creator: CorelDRAW X6 -->
<svg  onload="Init(evt)" x="0px" y="0px" xmlns="http://www.w3.org/2000/svg" xml:space="preserve" width="1000px" height="786px" version="1.1" style="shape-rendering:geometricPrecision; text-rendering:geometricPrecision; image-rendering:optimizeQuality; fill-rule:evenodd; clip-rule:evenodd"
viewBox="0 0 10000 7857"
 xmlns:xlink="http://www.w3.org/1999/xlink">
 <script  xlink:href="../js/Map0_2.js"></script>
 
 <script language="Javascript">
      <![CDATA[
	
       function Showimg(n) {
         document.getElementById('rect'+n).setAttribute("style", "visibility: visible");
   }
  
	    function closeinfotip(n)
	{
	document.getElementById('infotip'+n).setAttribute("style", "visibility: hidden"); 
	}
 
	   ]]>
	  
    </script>
 <defs>
  <style type="text/css">
   <![CDATA[
    .str0 {stroke:#332C2B;stroke-width:2.38095}
    .str2 {stroke:#332C2B;stroke-width:2.38095;stroke-linecap:round;stroke-linejoin:round}
    .str4 {stroke:#00A2E9;stroke-width:4.7619}
    .str5 {stroke:#FEFEFE;stroke-width:4.7619}
    .str1 {stroke:#FEFEFE;stroke-width:11.9048}
    .str3 {stroke:#985618;stroke-width:28.5714;stroke-dasharray:28.571429 28.571429}
    .fil2 {fill:none}
	.fil100 {fill:#332C2B; fill-opacity:0}
    .fil1 {fill:#332C2B}
    .fil3 {fill:#B6B49E}
    .fil0 {fill:#FEFEFE}
    .fil5 {fill:#FEFEFE}
    .fil4 {fill:#332C2B;fill-rule:nonzero}
    .fil6 {fill:#2F318B;fill-rule:nonzero}
   ]]>
  </style>
   <clipPath id="id0">
    <rect x="983" y="2732" width="8312" height="4781"/>
   </clipPath>
   <clipPath id="id1">
    <rect x="1602" y="2777" width="2561" height="1603"/>
   </clipPath>
   <clipPath id="id2">
    <rect x="4374" y="443" width="3094" height="4582"/>
   </clipPath>
   <clipPath id="id3">
    <rect x="1602" y="5070" width="3065" height="2339"/>
   </clipPath>
 </defs>
  <g id="map">
<symbol id="符号11" viewBox="4973 3901 55 55">
 <circle class="fil0 str0" cx="5000" cy="3929" r="26"/>
 <circle class="fil1 str0" cx="5000" cy="3929" r="15"/>
</symbol>
<symbol id="符号22" viewBox="4763 3754 469 349">
 <polygon class="fil2 str1" points="5062,3768 5062,3849 4777,3849 4858,3929 4777,4008 5062,4008 5062,4089 5223,3929 "/>
 <polygon id="1" class="fil3" points="5062,3768 5062,3849 4777,3849 4858,3929 4777,4008 5062,4008 5062,4089 5223,3929 "/>
</symbol>
<symbol id="符号23" viewBox="4672 3754 659 349">
 <polygon class="fil2 str1" points="5161,3768 5161,3849 4778,3849 4778,4008 5161,4008 5161,4089 5323,3929 "/>
 <polygon id="1" class="fil3" points="5161,3768 5161,3849 4778,3849 4778,4008 5161,4008 5161,4089 5323,3929 "/>
 <polygon class="fil2 str1" points="4718,3849 4718,4008 4758,4008 4758,3849 "/>
 <polygon id="1" class="fil3" points="4718,3849 4718,4008 4758,4008 4758,3849 "/>
 <polygon class="fil2 str1" points="4678,3849 4678,4008 4698,4008 4698,3849 "/>
 <polygon id="1" class="fil3" points="4678,3849 4678,4008 4698,4008 4698,3849 "/>
</symbol>
<symbol id="符号13" viewBox="4981 3910 38 38">
 <circle class="fil0 str0" cx="5000" cy="3929" r="18"/>
 <circle class="fil2 str0" cx="5000" cy="3929" r="7"/>
</symbol>
 <g id="底图">
  <metadata id="CorelCorpID_0Corel-Layer"/>
  <g style="clip-path:url(#id0)">
   <image id="底图图片.png" x="983" y="2732" width="8312" height="4781" xlink:href="106-107土地沙漠化现代过程兰_ImgID1.png"/>
  </g>
 </g>
 <g id="文字注记">
  <metadata id="CorelCorpID_1Corel-Layer"/>
  <use transform="scale(0.539503 0.53953)" x="11038" y="11078" width="55" height="55" xlink:href="#符号11"/>
  <path class="fil4" d="M5904 5916c2,0 6,0 12,0 0,-6 0,-11 0,-15l6 0c0,2 0,7 0,15 2,0 4,0 7,0l0 5c-4,0 -6,0 -7,0l0 12c3,-1 5,-3 7,-4 0,2 1,3 1,5 -2,1 -5,3 -9,4l0 23c0,3 -1,4 -3,5 -2,1 -5,2 -9,2 0,-2 -1,-4 -2,-7 5,0 8,0 9,-1 0,-1 1,-2 1,-4l0 -17c-2,1 -5,2 -9,5 -1,-2 -2,-4 -3,-5 3,-1 8,-3 13,-5l0 -15c-6,0 -10,0 -12,0l0 -5zm69 49c-3,0 -6,0 -9,0l-26 0c-5,0 -8,0 -11,0l0 -5c3,0 6,0 11,0l13 0c1,-4 3,-9 5,-16 2,-7 3,-13 5,-21 2,2 4,3 7,3 -1,1 -2,5 -4,9 -1,5 -4,13 -7,24l8 0c3,0 6,0 9,0l0 5zm-42 -50c2,0 5,0 8,0l24 0c3,0 6,0 6,0l0 5c-1,0 -3,0 -7,0l-24 0c-1,0 -4,0 -8,0l0 -5zm8 11c4,12 7,21 9,27 -2,1 -4,1 -6,2 -2,-7 -5,-16 -9,-27 2,-1 4,-1 6,-2zm9 -26c3,5 5,9 6,12 -2,0 -4,1 -6,2 -1,-3 -2,-7 -5,-12 1,0 3,-1 5,-2z"/>
  <path id="1" class="fil4" d="M5989 5951c6,0 8,-1 8,-4 0,-3 -2,-6 -5,-10 2,-4 3,-8 5,-12l-10 0 0 45 -6 0c0,-4 0,-7 0,-10l0 -30c0,-3 0,-6 0,-9l23 0c-1,2 -2,4 -3,7 -1,3 -3,6 -4,9 5,6 7,11 5,14 -2,3 -5,5 -10,6 0,-2 -1,-4 -3,-6zm57 -39c-3,0 -5,0 -8,0l-13 0c0,1 0,3 0,4l-6 0 0 -4 -15 0 0 5 -6 0c0,-2 1,-3 1,-5l-11 0c-3,0 -6,0 -9,0l0 -5c3,0 6,0 9,0l11 0c0,-1 0,-3 -1,-6l7 0c0,3 0,5 0,6l15 0c0,-1 0,-3 0,-6l6 0c0,3 0,5 0,6l13 0c3,0 6,0 8,0l0 5zm-50 53c4,-2 7,-4 9,-6 2,-3 3,-6 3,-10 0,-4 0,-7 0,-10l22 0c2,-4 3,-7 3,-10 2,1 4,2 7,2 -1,1 -2,3 -4,7 4,0 8,0 12,0l0 5c-4,0 -7,0 -10,0l-23 0c0,7 -1,13 -4,17 -2,4 -5,7 -9,9 -1,-2 -3,-3 -5,-5zm29 -42c0,-2 -1,-3 -1,-5 2,0 4,-1 6,-1 1,2 1,5 2,7 6,0 11,0 14,0l0 5c-4,0 -7,0 -11,0l-14 0c-4,0 -8,0 -11,0l0 -5c3,0 8,0 15,0zm-6 6c2,2 3,5 4,7 -1,1 -3,1 -5,3 -1,-3 -3,-5 -4,-7 2,-1 3,-2 4,-3z"/>
  <use transform="scale(0.558629 0.558651)" x="3428" y="8302" width="38" height="38" xlink:href="#符号13"/>
  <use transform="scale(0.558667 0.558623)" x="9140" y="11040" width="38" height="38" xlink:href="#符号13"/>
  <use transform="scale(0.558667 0.55868)" x="11239" y="9303" width="38" height="38" xlink:href="#符号13"/>
  <circle class="fil0 str0" cx="8106" cy="6000" r="10"/>
  <circle class="fil2 str0" cx="8106" cy="6000" r="4"/>
  <path class="fil4" d="M6163 5230c4,-3 6,-6 8,-9 1,-3 2,-6 3,-10 -4,0 -7,0 -8,0l0 -5c2,0 5,0 9,0l0 -8c-3,0 -6,0 -8,0l0 -5c2,0 5,0 8,0l0 -9c-2,0 -4,0 -7,0l0 -4c2,0 5,0 8,0l17 0c0,2 0,5 0,9l0 37c0,2 -1,4 -2,4 -1,1 -4,1 -7,2 -1,-2 -1,-4 -2,-6 3,0 5,0 6,0 1,0 1,-1 1,-2l0 -15 -8 0c0,5 -1,9 -3,12 -2,3 -4,7 -7,11 -1,-1 -3,-2 -5,-3zm37 -44l0 49 -5 0c0,-4 0,-7 0,-11l0 -31c0,-3 0,-7 0,-11l22 0c-4,10 -7,17 -8,20 2,3 4,6 6,8 1,3 2,5 2,7 0,2 -1,4 -3,6 -2,1 -4,2 -8,3 0,-2 -1,-4 -3,-6 3,0 5,-1 7,-1 1,-1 2,-2 2,-3 0,-1 -1,-4 -2,-6 -1,-3 -3,-5 -5,-8 1,-3 4,-9 6,-17l-11 0zm-14 9l0 -9 -8 0 0 9 8 0zm0 12l0 -8 -8 0 0 8 8 0z"/>
  <path id="1" class="fil4" d="M6273 5224c0,4 0,8 0,10l-5 0 0 -5 -38 0 0 5 -5 0c0,-4 0,-8 0,-10l0 -20c0,-4 0,-7 0,-10l14 0 0 -5c0,-2 0,-5 0,-6l5 0c0,2 0,4 0,6l0 5 10 0 0 -6c0,-2 0,-4 0,-6l5 0c0,2 0,4 0,6l0 6 15 0c0,2 0,6 0,11l0 21zm-20 2l0 -14 -10 0 0 14 10 0zm14 0l0 -14 -10 0 0 14 10 0zm-29 0l0 -14 -9 0 0 14 9 0zm14 -18l0 -12 -10 0 0 12 10 0zm14 0l0 -12 -10 0 0 12 10 0zm-29 0l0 -12 -9 0 0 12 9 0z"/>
  <path class="fil4" d="M5055 6097c0,8 0,16 0,25 0,9 0,18 0,25l-5 0 0 -6 -28 0 0 7 -5 0c0,-7 0,-15 0,-25 0,-9 0,-18 0,-26l38 0zm-5 40l0 -16 -28 0 0 16 28 0zm0 -20l0 -16 -28 0 0 16 28 0z"/>
  <path id="1" class="fil4" d="M5083 6129c3,0 6,-1 8,-3 3,-1 5,-3 7,-4 -1,-1 -2,-2 -2,-2 0,-1 -1,-2 -2,-4 -1,2 -2,3 -2,3 0,1 -1,2 -3,3 -1,-1 -3,-2 -4,-3 2,-1 4,-3 6,-6 2,-3 4,-6 5,-8 2,1 3,1 6,2 -1,1 -2,2 -3,3l15 0c-1,3 -3,5 -5,7 -2,2 -3,4 -5,5 2,1 4,2 6,3 3,1 6,2 10,2 -1,1 -2,3 -3,5 -1,0 -3,-1 -4,-1 0,2 0,4 0,5l0 6c0,2 0,4 0,7l-4 0 0 -3 -15 0 0 4 -4 0c0,-2 0,-5 0,-7l0 -5c0,-1 0,-3 0,-5 -1,1 -3,1 -4,2 -1,-2 -1,-3 -3,-5zm0 -28c0,3 0,7 0,10l0 15c0,3 0,6 0,9l-4 0 0 -5 -6 0 0 9 -5 0c0,-3 0,-6 0,-10l0 -19c0,-3 0,-7 0,-10l15 0zm17 -1c-1,-1 -2,-3 -2,-4 2,0 3,-1 5,-2 0,1 1,2 3,6l14 0c0,1 0,3 0,5 0,2 0,3 0,4l-4 0 0 -5 -23 0 0 6 -5 0c0,-1 0,-3 0,-4 0,-1 0,-3 0,-5l14 0zm-21 27l0 -22 -6 0 0 22 6 0zm31 15l0 -7 -15 0 0 7 15 0zm4 -11c-2,-1 -4,-1 -6,-2 -2,-1 -4,-2 -6,-4 -1,1 -3,2 -5,3 -2,1 -4,2 -5,2l23 0zm-12 -11c1,-1 2,-2 3,-3 1,-1 2,-2 3,-3l-10 0c0,1 1,2 2,3 1,1 2,2 3,3z"/>
  <path id="2" class="fil4" d="M5154 6099c0,2 0,5 0,8l0 16c0,3 0,6 0,9l-5 0 0 -29 -15 0 0 29 -5 0c0,-3 0,-5 0,-8l0 -17c0,-3 0,-6 0,-8l25 0zm22 -3c0,2 0,4 0,7l0 41c0,2 -1,4 -2,4 -1,1 -4,1 -7,1 0,-2 -1,-4 -2,-6 3,0 4,0 5,0 1,0 1,-1 1,-3l0 -38c0,-2 0,-5 0,-7l5 0zm-32 13c0,2 -1,4 -1,6 0,2 0,5 0,9 0,4 -1,7 -2,10 -1,3 -2,5 -4,7 -1,2 -4,5 -8,8 -1,-1 -3,-3 -5,-4 4,-2 6,-4 8,-6 2,-2 3,-5 4,-8 1,-3 1,-6 1,-10 0,-4 0,-8 0,-12 2,0 4,0 6,0zm21 -6c0,2 0,4 0,6l0 20c0,3 0,6 0,8l-5 0c0,-3 0,-5 0,-8l0 -20c0,-2 0,-4 0,-6l5 0zm-20 31c2,2 4,3 6,4 2,1 3,3 5,4 -1,1 -2,2 -3,4 -2,-2 -4,-3 -5,-5 -2,-1 -3,-3 -5,-4 1,-1 2,-2 3,-3z"/>
  <path id="3" class="fil4" d="M5225 6105c4,0 8,0 12,0l0 5c-4,0 -8,0 -12,0l-12 0 0 8 18 0c0,3 0,6 0,8l0 11c0,3 -1,4 -3,5 -2,1 -4,2 -7,2 0,-2 -1,-4 -2,-6 3,0 5,0 6,0 1,0 1,-1 1,-2l0 -15 -13 0 0 18c0,4 0,7 0,10l-5 0c0,-3 0,-6 0,-10l0 -18 -13 0 0 23 -5 0c0,-2 0,-5 0,-9l0 -8c0,-4 0,-7 0,-9l18 0 0 -8 -12 0c-4,0 -8,0 -12,0l0 -5c4,0 8,0 12,0l29 0zm-17 -10c2,2 4,4 6,7 -2,1 -3,2 -4,2 -1,-2 -3,-5 -5,-7 1,-1 2,-2 4,-3z"/>
  <path class="fil4" d="M1970 4658c0,2 0,5 0,8l8 0c3,0 5,0 8,0l0 4c-2,0 -5,0 -8,0l-11 0c0,-2 0,-4 0,-6 0,-2 0,-3 0,-5l-2 1c-1,-2 -2,-3 -3,-3 2,-1 4,-2 6,-3 2,-1 3,-3 4,-4l-5 0c0,-2 0,-5 0,-8 0,-3 0,-5 0,-8l28 0c0,3 0,6 0,8 0,3 0,5 0,7l-19 0c-1,1 -1,2 -3,3l23 0c0,2 0,4 0,6l0 9c0,3 -1,4 -2,5 -1,1 -3,1 -6,2 0,-2 -1,-3 -2,-5 2,0 4,0 5,0 1,0 1,-1 1,-3l0 -11 -9 0 -1 2c3,2 5,3 7,4 -1,1 -2,2 -3,3 -2,-2 -4,-3 -6,-5 -1,2 -3,3 -5,5 -1,-1 -2,-2 -3,-3 2,-1 4,-2 5,-4 1,-1 2,-3 3,-4l-9 0c-1,1 -2,2 -4,3l4 0zm-14 3l0 -4 -6 0 0 8 -4 0c0,-4 0,-10 0,-17 0,-8 0,-14 0,-19l15 0c0,3 0,8 0,17 0,8 0,14 0,16l-4 0zm20 -33c0,1 0,2 0,4l-4 0c0,-1 0,-2 0,-4 -3,0 -6,0 -9,0l0 -4c3,0 6,0 9,0 0,-1 0,-3 0,-4l4 0c0,2 0,3 0,4l8 0c0,-1 0,-2 0,-4l5 0c0,2 0,3 0,4 4,0 7,0 10,0l0 4c-3,0 -5,0 -7,0l-3 0c0,1 0,2 0,3l-5 0c0,-1 0,-2 0,-3l-8 0zm-20 25l0 -22 -6 0 0 22 6 0zm34 -14l0 -3 -19 0 0 3 19 0zm0 6l0 -3 -19 0 0 3 19 0z"/>
  <path id="1" class="fil4" d="M2046 4641c1,-2 2,-4 3,-7l-30 0c-3,4 -6,7 -9,10 -1,-1 -2,-2 -4,-3 4,-3 7,-7 10,-11 3,-5 5,-8 6,-10 2,1 4,2 5,2 -2,2 -3,5 -5,8l35 0c-2,5 -4,10 -6,13 -2,-1 -3,-1 -5,-2zm-12 -3c0,2 0,5 0,7l0 20c0,4 -1,6 -3,7 -2,1 -5,2 -8,2 0,-2 -1,-4 -2,-6 4,0 6,0 7,0 1,0 1,-2 1,-3l0 -19c0,-2 0,-5 0,-7l5 0zm9 8c6,7 11,13 14,17 -1,1 -3,2 -4,3 -6,-8 -11,-14 -13,-17 1,-1 3,-2 4,-3zm-21 3c-1,1 -3,4 -5,7 -2,3 -5,7 -9,11 -1,-1 -2,-2 -4,-4 2,-2 5,-4 7,-7 3,-3 5,-6 7,-10 2,2 3,3 4,3z"/>
  <path class="fil4" d="M8174 5992c0,6 0,10 0,13l-5 0 0 -4 -36 0 0 3 -5 0c0,-3 0,-7 0,-13 0,-6 0,-10 0,-13l46 0 0 13zm-4 -38c0,3 0,6 0,10 0,4 0,8 0,11l-37 0c0,-3 0,-7 0,-11 0,-4 0,-7 0,-10l37 0zm-1 35l0 -6 -36 0 0 6 36 0zm0 9l0 -5 -36 0 0 5 36 0zm-4 -35l0 -5 -28 0 0 5 28 0zm0 8l0 -4 -28 0 0 4 28 0z"/>
  <path id="1" class="fil4" d="M8212 5980c0,4 0,8 0,12 0,4 0,8 0,13l-4 0 0 -3 -13 0 0 3 -4 0c0,-3 0,-6 0,-9l0 -9c-2,1 -3,2 -5,3 -1,-2 -2,-3 -3,-3 3,-2 6,-3 8,-5 3,-2 5,-4 7,-6 -6,0 -11,0 -14,0l0 -4c4,0 8,0 12,0l0 -7c-4,0 -7,0 -9,0l0 -4c2,0 5,0 9,0 0,-4 0,-6 0,-7l5 0c0,1 0,3 0,7 2,0 4,0 6,0l0 4c-2,0 -4,0 -6,0l0 7 1 0c4,-5 7,-10 9,-15 1,1 2,2 4,3 -1,2 -3,4 -4,6 -1,2 -3,5 -4,7 3,0 6,0 9,0l0 4c-4,0 -8,0 -12,0 -2,2 -4,4 -6,6l14 0zm17 -4c3,3 5,6 6,8 1,2 2,5 1,7 0,2 -1,4 -3,5 -1,1 -4,2 -7,3 0,-1 -1,-3 -2,-5 3,0 5,0 6,-1 1,-1 2,-2 2,-4 0,-2 -1,-4 -3,-6 -2,-2 -3,-4 -5,-6 1,-3 3,-9 5,-17l-8 0 0 46 -4 0c0,-3 0,-7 0,-10l0 -28c0,-4 0,-7 0,-11l18 0c-3,8 -5,15 -6,20zm-21 13l0 -6 -13 0 0 6 13 0zm0 9l0 -5 -13 0 0 5 13 0z"/>
  <line class="fil2 str2" x1="8121" y1="6015" x2="8242" y2= "6015" />
  <line class="fil2 str0" x1="6165" y1="5244" x2="6283" y2= "5244" />
  <line class="fil2 str0" x1="5018" y1="6158" x2="5234" y2= "6158" />
  <line class="fil2 str0" x1="1942" y1="4677" x2="2061" y2= "4677" />
  <path class="fil4" d="M2004 725c0,4 -1,9 -1,14l0 33c8,0 13,0 16,0l0 8c-4,0 -11,0 -18,0l-86 0c-5,0 -9,0 -13,0l0 -8c3,0 8,0 14,0l0 -32c0,-6 0,-11 -1,-15l27 0c0,-8 0,-13 -1,-15l11 0c0,3 -1,8 -1,15l16 0c0,-7 0,-13 -1,-16l11 0c0,3 -1,8 -1,16l26 0zm3 81c-5,-4 -17,-10 -36,-17l7 -7c4,2 10,4 18,8 8,3 14,6 19,9 -3,2 -5,5 -8,8zm-55 -16c-18,9 -31,15 -38,18 -2,-3 -5,-5 -8,-7 8,-3 15,-5 21,-8 6,-3 11,-6 15,-10 3,2 6,5 10,7zm-9 -19l0 -17 -16 0 0 17 16 0zm26 0l0 -17 -16 0 0 17 16 0zm25 0l0 -17 -15 0 0 17 15 0zm-25 -25l0 -15 -16 0 0 15 16 0zm-26 0l0 -15 -16 0 0 15 16 0zm51 0l0 -15 -15 0 0 15 15 0z"/>
  <path id="1" class="fil4" d="M2080 767c0,-6 1,-12 1,-16l0 -5 -17 0c-1,7 -4,13 -8,17 -4,4 -9,8 -13,10 -2,-3 -4,-5 -8,-8 6,-2 11,-5 14,-8 3,-3 5,-7 6,-11 -6,0 -13,0 -20,0l0 -8c7,0 15,0 21,0 0,-6 1,-12 1,-18 -5,0 -10,0 -15,0l0 -8c5,0 10,0 17,0l30 0c4,0 8,0 13,0l0 8c-4,0 -8,0 -11,0l0 18c4,0 9,0 14,0l0 8c-5,0 -10,0 -14,0l0 6c0,5 0,10 1,15l-11 0zm8 10c0,-2 0,-5 -1,-9l11 0c0,4 -1,7 -1,9l22 0c7,0 13,0 18,0l0 8c-6,0 -13,0 -18,0l-22 0 0 14 37 0c6,0 11,0 17,0l0 8c-5,0 -11,0 -16,0l-83 0c-6,0 -12,0 -17,0l0 -8c5,0 11,0 17,0l36 0 0 -14 -20 0c-7,0 -14,0 -21,0l2 -8c6,0 13,0 20,0l20 0zm57 -69c0,5 -1,10 -1,15l0 33c0,5 -1,9 -3,11 -2,2 -7,3 -15,4 -1,-3 -3,-6 -5,-10 7,0 11,0 12,-1 1,-1 1,-3 1,-6l0 -31c0,-5 0,-10 -1,-15l10 0zm-24 8c0,3 -1,8 -1,13l0 13c0,4 0,9 1,13l-10 0c0,-5 1,-9 1,-13l0 -13c0,-5 0,-10 -1,-13l10 0zm-40 23l0 -18 -16 0c0,8 -1,14 -1,18l16 0z"/>
  <path id="2" class="fil4" d="M2277 720c-5,0 -12,0 -20,0l-76 0 0 79 83 0c7,0 12,0 16,0l0 8c-4,0 -10,0 -17,0l-93 0c0,-7 1,-12 1,-15l0 -65c0,-5 0,-9 -1,-13l107 0 0 8zm-73 11c12,7 22,14 31,20 8,-8 14,-15 17,-23 4,2 8,4 13,6 -4,2 -7,5 -10,8 -3,3 -7,8 -12,14 12,8 21,16 28,23 -4,2 -7,5 -9,7 -5,-7 -15,-15 -27,-23 -5,5 -10,9 -16,13 -5,4 -12,8 -20,13 -3,-3 -6,-5 -10,-6 7,-3 13,-6 18,-9 5,-4 12,-9 19,-17 -9,-7 -19,-13 -32,-20 3,-2 6,-5 7,-7z"/>
  <path id="3" class="fil4" d="M2347 744l0 -19c0,-5 0,-10 -1,-13l12 0c0,4 -1,8 -1,13l0 19 19 0c9,0 17,0 26,0l0 9c-8,0 -16,0 -26,0l-19 0 0 42 33 0c9,0 16,0 23,0l0 9c-6,0 -14,0 -23,0l-76 0c-9,0 -17,0 -22,0l0 -9c6,0 13,0 22,0l32 0 0 -42 -20 0c-9,0 -17,0 -24,1l0 -9c8,0 16,0 24,0l20 0z"/>
  <path id="4" class="fil4" d="M2466 759c-2,-3 -3,-6 -5,-8 4,-1 8,-2 14,-3l0 -10c0,-5 0,-11 -1,-17l10 0c0,6 -1,12 -1,17l0 8 15 -5 0 -17c0,-5 0,-10 -1,-14l11 0c0,3 -1,8 -1,15l0 14c5,-1 14,-4 27,-7 0,3 -1,8 -1,15l0 17c0,7 -1,12 -5,14 -4,2 -8,4 -14,5 -1,-3 -3,-6 -5,-9 6,-1 10,-1 12,-2 2,-1 2,-4 2,-10l0 -18c-6,1 -11,3 -16,4l0 29c0,5 0,9 1,13l-11 0c0,-5 1,-9 1,-13l0 -26 -15 5 0 35c0,6 2,9 7,9l33 0c3,0 6,-1 7,-3 1,-2 2,-5 3,-10 3,2 7,3 11,4 -2,6 -4,10 -7,13 -2,2 -6,3 -11,3l-40 0c-8,0 -11,-4 -12,-12l0 -37c-4,1 -7,2 -9,3zm-14 23c5,-1 10,-3 16,-5 0,3 -1,6 -1,9 -6,2 -12,4 -20,6 -7,2 -14,4 -19,6 -1,-3 -3,-6 -5,-9 5,-1 11,-3 17,-4l0 -38c-6,0 -12,0 -16,0l0 -8c4,0 9,0 16,0l0 -14c0,-5 0,-10 -1,-15l11 0c0,4 -1,9 -1,15l0 14c6,0 11,0 15,0l0 8c-4,0 -9,0 -15,0l0 35z"/>
  <path id="5" class="fil4" d="M2669 762c-4,3 -7,7 -10,11 -3,4 -7,8 -12,12 -5,4 -11,8 -19,12 -8,4 -19,8 -32,11 -1,-3 -4,-5 -8,-8 13,-1 26,-6 39,-13 14,-7 24,-17 30,-31l13 5zm-33 -53c0,4 -1,9 -1,14l0 34c0,6 0,11 1,16l-11 0c0,-5 1,-11 1,-16l0 -34c0,-5 0,-10 -1,-14l11 0zm-51 61c-2,3 -4,7 -7,14 -3,6 -6,14 -9,22 -4,-2 -8,-4 -13,-6 3,-3 7,-8 10,-15 3,-7 6,-14 9,-20 3,2 6,4 10,6zm31 -38c-2,3 -4,8 -6,15 -2,7 -5,14 -8,22 -3,-1 -7,-2 -10,-3 2,-4 4,-10 6,-16 2,-7 4,-13 5,-20 4,1 9,2 13,3zm35 -9c9,6 17,13 26,20 -4,2 -7,4 -9,6 -6,-7 -14,-14 -24,-21 2,-1 4,-3 7,-6zm-78 -10c7,4 13,9 19,14 -3,3 -6,5 -9,7 -5,-6 -11,-11 -17,-15 2,-2 4,-4 7,-6zm-9 27c7,4 14,8 20,12 -3,3 -6,6 -7,8 -8,-6 -14,-10 -19,-13 2,-2 4,-4 6,-6z"/>
  <path id="6" class="fil4" d="M2797 735c0,5 -1,9 -1,12l0 9c0,5 0,9 1,13l-30 0c-1,4 -1,7 -2,9l21 0c3,0 9,0 17,0l0 7c-9,-1 -15,-1 -17,-1l-14 0c4,5 9,9 15,12 6,3 13,4 20,5 -3,2 -5,5 -7,8 -11,-3 -19,-6 -25,-10 -6,-4 -10,-8 -13,-12 -3,5 -8,9 -14,13 -6,4 -16,7 -29,10 -1,-3 -4,-5 -7,-8 11,-1 19,-3 26,-5 7,-3 11,-7 14,-12l-10 0c-5,0 -13,0 -21,1l0 -7c9,0 16,0 23,0l11 0c1,-3 2,-6 2,-9l-27 0c0,-4 1,-8 1,-13l0 -8c0,-5 0,-9 -1,-12l66 0zm-25 -10l-18 0 0 7 -9 0 0 -7 -5 0c-3,0 -9,0 -17,0l0 -7c9,0 14,0 17,0l5 0 0 -3c0,-2 0,-5 -1,-9l10 0c0,4 -1,7 -1,9l0 2 18 0 0 -3c0,-3 0,-6 -1,-8l10 0c0,3 -1,6 -1,8l0 3 8 0c2,0 7,0 14,0l0 7c-7,0 -12,0 -14,0l-8 0 0 8 -9 0 0 -8zm-87 75c4,-4 8,-9 12,-16 4,-7 7,-13 10,-19 3,2 6,4 9,5 -2,4 -5,9 -9,16 -4,7 -7,13 -9,19 -3,-2 -7,-3 -12,-5zm102 -38l0 -8 -47 0 0 8 47 0zm0 -14l0 -7 -47 0 0 7 47 0zm-80 10c-3,-3 -7,-5 -10,-8 -4,-2 -8,-4 -11,-6l6 -6c3,2 7,4 11,6 4,2 8,4 11,7 -3,2 -5,5 -7,7zm8 -27c-4,-3 -8,-6 -11,-9 -3,-2 -6,-4 -9,-6 2,-2 4,-4 6,-6 3,2 7,4 11,6 4,2 7,5 10,7 -3,2 -5,4 -7,7z"/>
  <path id="7" class="fil4" d="M2893 712c0,1 -1,5 -1,11l0 30c6,-5 12,-9 18,-14 5,-5 10,-10 13,-15 3,2 6,4 10,6 -3,3 -7,7 -14,12 -6,6 -12,10 -15,12 -4,2 -8,5 -12,8l0 27c0,5 2,7 7,7l20 0c3,0 5,-1 5,-4 1,-2 2,-5 2,-10 3,2 7,4 12,4 -2,8 -4,13 -7,15 -2,2 -6,3 -10,3l-29 0c-7,0 -11,-3 -11,-10l0 -25c-2,2 -5,4 -9,6 -4,2 -8,4 -12,6 -2,-3 -4,-5 -7,-7 4,-2 9,-4 15,-7 5,-3 10,-5 14,-8l0 -38c0,-3 0,-6 -1,-9l11 0zm-31 3c-3,3 -5,6 -7,9 -1,2 -3,6 -5,10l0 53c0,9 0,16 1,21l-11 0c0,-5 1,-12 1,-20l0 -41c-3,4 -6,7 -8,9 -2,2 -4,4 -6,6 -2,-2 -5,-4 -8,-6 5,-4 9,-8 12,-12 3,-4 6,-8 9,-12 3,-4 5,-8 6,-11 2,-4 3,-7 4,-9 2,1 6,3 12,4z"/>
  <path id="8" class="fil4" d="M3003 744l0 -19c0,-5 0,-10 -1,-13l12 0c0,4 -1,8 -1,13l0 19 19 0c9,0 17,0 26,0l0 9c-8,0 -16,0 -26,0l-19 0 0 42 33 0c9,0 16,0 23,0l0 9c-6,0 -14,0 -23,0l-76 0c-9,0 -17,0 -22,0l0 -9c6,0 13,0 22,0l32 0 0 -42 -20 0c-9,0 -17,0 -24,1l0 -9c8,0 16,0 24,0l20 0z"/>
  <path id="9" class="fil4" d="M3151 779c-2,1 -4,3 -6,5l0 13c3,-1 6,-3 10,-6 0,2 2,5 4,7 -9,5 -15,8 -18,11 -3,-3 -6,-5 -8,-6 3,-1 4,-4 4,-6l0 -8c-7,4 -15,8 -23,11 -1,-2 -3,-5 -6,-7 4,-1 9,-3 15,-6 6,-3 11,-5 14,-8 -7,0 -14,0 -19,0l0 -7c5,0 11,0 20,0l0 -6c-5,0 -11,0 -15,0l0 -7c4,0 10,0 15,0l0 -5c-8,0 -14,0 -18,0l0 -7c4,0 11,0 18,0l0 -5 -16 0c0,-3 1,-6 1,-8 0,-3 0,-6 -1,-9l31 0c0,3 -1,6 -1,8 0,2 0,5 1,9l-7 0 0 5 17 0 0 -5 -4 0c0,-3 1,-5 1,-8 0,-3 0,-6 -1,-9l30 0c0,3 -1,6 -1,9 0,3 0,5 1,9l-18 0 0 5c8,0 13,0 18,0l0 7c-5,0 -11,0 -18,0l0 5c6,0 11,0 17,0l0 7c-5,0 -10,0 -17,0l0 6c9,0 17,0 22,0l0 7c-5,0 -10,0 -14,0l-16 0c2,4 4,7 8,11 3,-3 5,-6 8,-10 2,1 5,3 9,4 -2,1 -3,3 -5,4 -2,2 -3,3 -5,5 4,3 11,5 21,6 -2,1 -5,4 -7,8 -11,-3 -19,-6 -24,-11 -6,-5 -10,-9 -13,-14 3,-1 5,-2 8,-3l-13 0zm-47 -43c3,0 7,0 11,0l0 7c-4,0 -8,0 -11,0l0 32c4,-2 8,-3 10,-5 0,2 0,5 1,7 -3,1 -7,2 -14,5 -6,2 -12,5 -16,7 -2,-3 -4,-6 -6,-7 4,-1 9,-2 16,-5l0 -34c-5,0 -10,0 -14,0l0 -7c4,0 9,0 14,0l0 -11c0,-3 0,-7 -1,-12l10 0c0,5 -1,8 -1,12l0 11zm55 -28c2,3 3,7 4,9l16 0c5,0 11,0 16,0l0 7c-5,0 -10,0 -16,0l-42 0c-6,0 -12,0 -18,0l0 -7c6,0 13,0 18,0l15 0c-1,-3 -2,-5 -3,-8 2,0 5,-1 10,-2zm5 65l0 -6 -17 0 0 6 17 0zm0 -12l0 -5 -17 0 0 5 17 0zm-19 -22l0 -5 -12 0 0 5 12 0zm36 0l0 -5 -11 0 0 5 11 0z"/>
  <path id="10" class="fil4" d="M3211 770c8,-4 16,-9 23,-16 7,-6 14,-14 20,-24l-18 0c-5,0 -11,0 -18,0l0 -8c9,0 16,0 20,0l19 0c3,-7 4,-12 5,-15 5,1 9,2 12,3 -1,1 -3,5 -5,12l41 0c6,0 12,0 18,0l0 8c-6,0 -12,0 -16,0l-46 0c-2,4 -5,7 -8,11l59 0c0,7 -1,14 -1,19l0 35c0,4 -1,7 -4,9 -3,2 -9,3 -17,4 0,-3 -2,-7 -4,-10 5,1 9,1 11,0 2,0 4,-2 4,-5l0 -9 -53 0 0 23 -11 0c0,-7 1,-13 1,-18l0 -30c-7,7 -15,13 -23,18 -1,-2 -4,-4 -9,-7zm96 -9l0 -12 -53 0 0 12 53 0zm0 17l0 -11 -53 0 0 11 53 0z"/>
  <path id="11" class="fil4" d="M3441 716c0,8 -1,15 -1,20l0 55c0,4 1,6 3,6 2,0 4,0 5,0 1,0 2,-1 3,-3 1,-2 1,-5 1,-8 3,1 7,3 11,3 -1,6 -3,10 -4,12 -1,2 -4,3 -7,3l-11 0c-4,0 -7,-1 -9,-2 -2,-2 -3,-5 -2,-10l0 -70 -19 0c0,16 0,29 -1,38 -1,9 -2,17 -5,24 -3,7 -8,15 -15,22 -2,-2 -5,-4 -9,-7 5,-3 9,-7 12,-12 3,-5 5,-9 6,-14 1,-5 2,-10 2,-15 0,-5 1,-12 1,-20 0,-9 0,-16 -1,-23l40 0zm-60 35c5,6 10,11 12,15 -2,2 -5,4 -9,6 -2,-4 -6,-9 -11,-15l0 31c0,6 0,12 1,19l-11 0c0,-7 1,-14 1,-19l0 -27c-2,4 -4,8 -6,12 -2,4 -5,8 -9,13 -3,-3 -6,-5 -8,-7 3,-3 6,-8 11,-15 4,-7 8,-16 10,-25l-3 0c-5,0 -10,0 -14,1l0 -8c5,0 9,0 14,0l5 0 0 -9c0,-5 0,-9 -1,-13l12 0c-1,3 -1,7 -1,13l0 9 6 0c4,0 8,0 13,0l0 8c-7,0 -14,0 -18,0l0 17c2,-1 4,-3 7,-5z"/>
  <path id="12" class="fil4" d="M3502 734c6,0 12,0 17,0l17 0 0 -11c-21,1 -33,1 -37,1l0 10c0,13 -1,23 -1,29 0,6 -1,13 -3,19 -2,6 -5,14 -11,22 -3,-2 -7,-3 -12,-4 5,-6 9,-12 11,-19 2,-6 3,-15 4,-25 1,-10 1,-18 1,-24 0,-6 0,-11 -1,-16 10,0 19,0 28,0 9,0 19,-1 30,-2 11,-1 20,-3 28,-5 1,3 3,6 7,10 -4,0 -9,0 -14,1 -5,0 -12,1 -21,1l0 12 26 0c5,0 10,0 16,0l0 8c-5,0 -10,0 -16,0l-26 0 0 11 32 0c0,5 -1,10 -1,15 0,5 0,10 1,15l-11 0 0 -22 -48 0 0 25 -10 0c0,-5 1,-11 1,-16 0,-5 0,-11 -1,-15l27 0 0 -11 -17 0c-6,0 -12,0 -17,0l0 -8zm47 32c-1,5 -2,10 -3,15 -1,6 -5,11 -12,15 -7,5 -16,8 -28,12 -1,-2 -3,-5 -7,-7 10,-2 17,-4 23,-7 6,-3 10,-6 12,-9 2,-4 4,-7 4,-11 0,-4 0,-7 0,-9 4,0 8,1 12,1zm5 16c5,2 12,5 18,8 7,3 13,6 18,9 -2,1 -4,4 -7,7 -7,-5 -19,-11 -34,-17 2,-3 4,-5 5,-7z"/>
  <path id="13" class="fil4" d="M3691 807l0 -6 -55 0 0 7 -11 0c0,-4 1,-9 1,-15 0,-7 0,-13 -1,-20l76 0c0,3 -1,9 -1,17 0,8 0,14 1,17l-11 0zm-24 -93c4,4 10,8 20,13 10,5 22,10 37,13 -4,3 -7,6 -8,9 -10,-3 -19,-7 -29,-12 -10,-5 -18,-11 -25,-18 -9,8 -17,14 -25,19 -8,5 -17,9 -26,13 -1,-2 -3,-5 -7,-8 11,-3 22,-7 32,-14 10,-7 18,-15 23,-23 5,1 9,3 11,4l-4 3zm24 79l0 -14 -55 0 0 14 55 0zm5 -46c-3,3 -7,7 -12,12 -4,5 -9,9 -12,12 -2,-2 -5,-3 -7,-4 4,-3 8,-7 13,-13l-39 0c-3,0 -7,0 -13,0l0 -7c5,0 10,0 13,0l57 0zm-35 -18c5,6 8,10 9,12 -1,0 -4,1 -9,3 -3,-5 -5,-9 -8,-12 3,-1 6,-2 8,-4z"/>
  <path id="14" class="fil4" d="M3837 755c0,3 -1,8 -1,14 0,5 0,10 1,13l-37 0 0 6 24 0c6,0 11,0 16,0l0 6c-5,0 -10,0 -16,0l-24 0 0 6 35 0c5,0 11,0 16,0l0 6c-5,0 -11,0 -16,0l-79 0c-5,0 -11,0 -16,0l0 -6c6,0 12,0 16,0l35 0 0 -6 -26 0c-5,0 -10,0 -15,1l0 -7c5,0 11,0 15,0l26 0 0 -6 -37 0c0,-5 1,-10 1,-14 0,-5 0,-9 -1,-12l84 0zm-1 -42c0,4 -1,8 -1,12 0,4 0,9 1,14l-82 0c0,-6 1,-11 1,-14 0,-4 0,-8 -1,-12l82 0zm-6 32c8,0 16,-1 23,-1l0 7c-7,0 -14,0 -22,0l-67 0c-9,0 -18,0 -27,0l0 -7c9,0 18,1 27,1l67 0zm-4 -10l0 -6 -62 0 0 6 62 0zm0 -11l0 -5 -62 0 0 5 62 0zm1 42l0 -5 -27 0 0 5 27 0zm-36 0l0 -5 -27 0 0 5 27 0zm0 10l0 -5 -27 0 0 5 27 0zm36 0l0 -5 -27 0 0 5 27 0z"/>
  <path class="fil4" d="M1928 871l8 -1c0,3 1,6 3,8 1,2 3,4 6,5 3,1 6,2 10,2 3,0 6,0 8,-1 2,-1 4,-2 5,-4 1,-2 2,-3 2,-5 0,-2 -1,-4 -2,-5 -1,-1 -3,-3 -6,-4 -2,-1 -5,-2 -11,-3 -6,-1 -10,-3 -12,-4 -3,-2 -5,-4 -7,-6 -1,-2 -2,-5 -2,-8 0,-3 1,-6 3,-9 2,-3 4,-5 8,-6 3,-1 7,-2 12,-2 5,0 9,1 12,2 4,2 6,4 8,7 2,3 3,6 3,10l-8 1c0,-4 -2,-7 -4,-9 -2,-2 -6,-3 -11,-3 -5,0 -9,1 -11,3 -2,2 -3,4 -3,7 0,2 1,4 2,6 2,1 6,3 13,4 7,2 11,3 14,4 4,2 6,4 8,6 2,3 3,6 3,9 0,3 -1,7 -3,9 -2,3 -5,5 -8,7 -4,2 -8,2 -12,2 -6,0 -10,-1 -14,-3 -4,-2 -7,-4 -9,-8 -2,-3 -3,-7 -3,-11z"/>
  <path id="1" class="fil4" d="M1986 868c0,-8 2,-15 7,-19 4,-3 9,-5 14,-5 6,0 11,2 15,6 4,4 6,10 6,17 0,6 -1,10 -3,14 -2,3 -4,6 -8,8 -3,2 -7,3 -11,3 -6,0 -12,-2 -16,-6 -4,-4 -6,-10 -6,-18zm8 0c0,6 1,10 4,13 3,3 6,4 10,4 4,0 7,-1 10,-4 3,-3 4,-7 4,-13 0,-6 -1,-10 -4,-13 -3,-3 -6,-4 -10,-4 -4,0 -7,1 -10,4 -3,3 -4,7 -4,13z"/>
  <path id="2" class="fil4" d="M2037 837l0 -9 8 0 0 9 -8 0zm0 54l0 -46 8 0 0 46 -8 0z"/>
  <polygon id="3" class="fil4" points="2057,891 2057,828 2065,828 2065,891 "/>
  <path id="4" class="fil4" d="M2098 868c0,-8 2,-15 7,-19 4,-3 9,-5 14,-5 6,0 11,2 15,6 4,4 6,10 6,17 0,6 -1,10 -3,14 -2,3 -4,6 -8,8 -3,2 -7,3 -11,3 -6,0 -12,-2 -16,-6 -4,-4 -6,-10 -6,-18zm8 0c0,6 1,10 4,13 3,3 6,4 10,4 4,0 7,-1 10,-4 3,-3 4,-7 4,-13 0,-6 -1,-10 -4,-13 -3,-3 -6,-4 -10,-4 -4,0 -7,1 -10,4 -3,3 -4,7 -4,13z"/>
  <path id="5" class="fil4" d="M2150 891l0 -46 7 0 0 7c2,-3 3,-5 5,-6 2,-1 3,-2 5,-2 3,0 5,1 8,2l-3 7c-2,-1 -4,-2 -6,-2 -2,0 -3,1 -5,2 -1,1 -2,2 -3,4 -1,3 -1,6 -1,9l0 24 -8 0z"/>
  <path id="6" class="fil4" d="M2178 895l7 1c0,2 1,4 3,5 2,1 5,2 8,2 4,0 6,-1 8,-2 2,-1 3,-3 4,-6 0,-2 1,-5 1,-10 -3,4 -8,6 -13,6 -6,0 -11,-2 -15,-7 -3,-5 -5,-10 -5,-16 0,-4 1,-8 2,-12 2,-4 4,-7 7,-9 3,-2 7,-3 11,-3 5,0 10,2 13,7l0 -6 7 0 0 40c0,7 -1,12 -2,15 -1,3 -4,5 -7,7 -3,2 -7,3 -12,3 -5,0 -10,-1 -13,-4 -3,-2 -5,-6 -5,-11zm6 -27c0,6 1,10 4,13 2,3 5,4 9,4 4,0 7,-1 9,-4 2,-3 4,-7 4,-13 0,-6 -1,-10 -4,-13 -2,-3 -5,-4 -9,-4 -3,0 -6,1 -9,4 -2,3 -4,7 -4,12z"/>
  <path id="7" class="fil4" d="M2259 885c-3,2 -6,4 -8,5 -3,1 -6,2 -9,2 -5,0 -9,-1 -12,-4 -3,-2 -4,-6 -4,-9 0,-2 1,-4 2,-6 1,-2 2,-3 4,-4 2,-1 4,-2 6,-3 2,0 4,-1 7,-1 6,-1 11,-2 14,-3 0,-1 0,-2 0,-2 0,-3 -1,-5 -2,-7 -2,-2 -5,-3 -9,-3 -4,0 -6,1 -8,2 -2,1 -3,4 -4,7l-8 -1c1,-3 2,-6 3,-8 2,-2 4,-4 7,-5 3,-1 6,-2 10,-2 4,0 7,0 10,1 2,1 4,2 5,3 1,1 2,3 2,5 0,1 0,4 0,7l0 10c0,7 0,12 0,14 0,2 1,4 2,6l-8 0c-1,-2 -1,-4 -2,-6zm-1 -17c-3,1 -7,2 -13,3 -3,0 -5,1 -7,2 -1,1 -2,1 -3,2 -1,1 -1,2 -1,4 0,2 1,4 2,5 2,1 4,2 7,2 3,0 6,-1 8,-2 2,-1 4,-3 5,-5 1,-2 1,-4 1,-8l0 -3z"/>
  <path id="8" class="fil4" d="M2278 891l0 -46 7 0 0 6c3,-5 8,-7 15,-7 3,0 5,1 8,1 2,1 4,2 5,4 1,2 2,4 2,6 0,1 0,4 0,8l0 28 -8 0 0 -28c0,-3 0,-6 -1,-7 -1,-2 -2,-3 -3,-4 -2,-1 -3,-1 -5,-1 -3,0 -6,1 -9,3 -2,2 -4,6 -4,12l0 25 -8 0z"/>
  <path id="9" class="fil4" d="M2327 837l0 -9 8 0 0 9 -8 0zm0 54l0 -46 8 0 0 46 -8 0z"/>
  <path id="10" class="fil4" d="M2376 874l8 1c-1,5 -3,9 -6,12 -3,3 -8,4 -13,4 -6,0 -11,-2 -15,-6 -4,-4 -6,-10 -6,-18 0,-5 1,-9 2,-13 2,-4 4,-6 7,-8 3,-2 7,-3 11,-3 5,0 9,1 12,4 3,3 5,6 6,11l-7 1c-1,-3 -2,-5 -4,-7 -2,-2 -4,-2 -7,-2 -4,0 -7,1 -10,4 -2,3 -4,7 -4,13 0,6 1,11 4,13 2,3 5,4 9,4 3,0 6,-1 8,-3 2,-2 3,-5 4,-9z"/>
  <path id="11" class="fil4" d="M2415 891l0 -46 7 0 0 6c1,-2 3,-4 6,-5 2,-1 5,-2 8,-2 3,0 6,1 8,2 2,1 4,3 5,6 4,-5 8,-8 14,-8 5,0 8,1 11,4 2,3 4,6 4,12l0 31 -8 0 0 -29c0,-3 0,-5 -1,-7 -1,-1 -1,-2 -3,-3 -1,-1 -3,-1 -5,-1 -3,0 -6,1 -8,3 -2,2 -3,6 -3,10l0 27 -8 0 0 -30c0,-3 -1,-6 -2,-8 -1,-2 -3,-3 -6,-3 -2,0 -4,1 -6,2 -2,1 -3,3 -4,5 -1,2 -1,5 -1,10l0 24 -8 0z"/>
  <path id="12" class="fil4" d="M2518 885c-3,2 -6,4 -8,5 -3,1 -6,2 -9,2 -5,0 -9,-1 -12,-4 -3,-2 -4,-6 -4,-9 0,-2 1,-4 2,-6 1,-2 2,-3 4,-4 2,-1 4,-2 6,-3 2,0 4,-1 7,-1 6,-1 11,-2 14,-3 0,-1 0,-2 0,-2 0,-3 -1,-5 -2,-7 -2,-2 -5,-3 -9,-3 -4,0 -6,1 -8,2 -2,1 -3,4 -4,7l-8 -1c1,-3 2,-6 3,-8 2,-2 4,-4 7,-5 3,-1 6,-2 10,-2 4,0 7,0 10,1 2,1 4,2 5,3 1,1 2,3 2,5 0,1 0,4 0,7l0 10c0,7 0,12 0,14 0,2 1,4 2,6l-8 0c-1,-2 -1,-4 -2,-6zm-1 -17c-3,1 -7,2 -13,3 -3,0 -5,1 -7,2 -1,1 -2,1 -3,2 -1,1 -1,2 -1,4 0,2 1,4 2,5 2,1 4,2 7,2 3,0 6,-1 8,-2 2,-1 4,-3 5,-5 1,-2 1,-4 1,-8l0 -3z"/>
  <path id="13" class="fil4" d="M2554 884l1 7c-2,0 -4,1 -6,1 -3,0 -5,0 -7,-1 -2,-1 -3,-2 -3,-4 -1,-1 -1,-5 -1,-9l0 -26 -6 0 0 -6 6 0 0 -11 8 -5 0 16 8 0 0 6 -8 0 0 27c0,2 0,4 0,4 0,1 1,1 1,2 1,0 1,1 3,1 1,0 2,0 3,0z"/>
  <path id="14" class="fil4" d="M2579 884l1 7c-2,0 -4,1 -6,1 -3,0 -5,0 -7,-1 -2,-1 -3,-2 -3,-4 -1,-1 -1,-5 -1,-9l0 -26 -6 0 0 -6 6 0 0 -11 8 -5 0 16 8 0 0 6 -8 0 0 27c0,2 0,4 0,4 0,1 1,1 1,2 1,0 1,1 3,1 1,0 2,0 3,0z"/>
  <path id="15" class="fil4" d="M2618 876l8 1c-1,5 -4,8 -7,11 -3,3 -8,4 -13,4 -7,0 -12,-2 -16,-6 -4,-4 -6,-10 -6,-17 0,-8 2,-14 6,-18 4,-4 9,-6 15,-6 6,0 11,2 15,6 4,4 6,10 6,18 0,0 0,1 0,2l-34 0c0,5 2,9 4,12 3,3 6,4 10,4 3,0 5,-1 7,-2 2,-2 4,-4 5,-7zm-25 -12l25 0c0,-4 -1,-7 -3,-9 -2,-3 -6,-4 -10,-4 -4,0 -7,1 -9,4 -2,2 -4,6 -4,10z"/>
  <path id="16" class="fil4" d="M2635 891l0 -46 7 0 0 7c2,-3 3,-5 5,-6 2,-1 3,-2 5,-2 3,0 5,1 8,2l-3 7c-2,-1 -4,-2 -6,-2 -2,0 -3,1 -5,2 -1,1 -2,2 -3,4 -1,3 -1,6 -1,9l0 24 -8 0z"/>
  <path id="17" class="fil4" d="M2717 874l8 1c-1,5 -3,9 -6,12 -3,3 -8,4 -13,4 -6,0 -11,-2 -15,-6 -4,-4 -6,-10 -6,-18 0,-5 1,-9 2,-13 2,-4 4,-6 7,-8 3,-2 7,-3 11,-3 5,0 9,1 12,4 3,3 5,6 6,11l-7 1c-1,-3 -2,-5 -4,-7 -2,-2 -4,-2 -7,-2 -4,0 -7,1 -10,4 -2,3 -4,7 -4,13 0,6 1,11 4,13 2,3 5,4 9,4 3,0 6,-1 8,-3 2,-2 3,-5 4,-9z"/>
  <path id="18" class="fil4" d="M2728 868c0,-8 2,-15 7,-19 4,-3 9,-5 14,-5 6,0 11,2 15,6 4,4 6,10 6,17 0,6 -1,10 -3,14 -2,3 -4,6 -8,8 -3,2 -7,3 -11,3 -6,0 -12,-2 -16,-6 -4,-4 -6,-10 -6,-18zm8 0c0,6 1,10 4,13 3,3 6,4 10,4 4,0 7,-1 10,-4 3,-3 4,-7 4,-13 0,-6 -1,-10 -4,-13 -3,-3 -6,-4 -10,-4 -4,0 -7,1 -10,4 -3,3 -4,7 -4,13z"/>
  <path id="19" class="fil4" d="M2780 891l0 -46 7 0 0 6c3,-5 8,-7 15,-7 3,0 5,1 8,1 2,1 4,2 5,4 1,2 2,4 2,6 0,1 0,4 0,8l0 28 -8 0 0 -28c0,-3 0,-6 -1,-7 -1,-2 -2,-3 -3,-4 -2,-1 -3,-1 -5,-1 -3,0 -6,1 -9,3 -2,2 -4,6 -4,12l0 25 -8 0z"/>
  <path id="20" class="fil4" d="M2846 884l1 7c-2,0 -4,1 -6,1 -3,0 -5,0 -7,-1 -2,-1 -3,-2 -3,-4 -1,-1 -1,-5 -1,-9l0 -26 -6 0 0 -6 6 0 0 -11 8 -5 0 16 8 0 0 6 -8 0 0 27c0,2 0,4 0,4 0,1 1,1 1,2 1,0 1,1 3,1 1,0 2,0 3,0z"/>
  <path id="21" class="fil4" d="M2885 876l8 1c-1,5 -4,8 -7,11 -3,3 -8,4 -13,4 -7,0 -12,-2 -16,-6 -4,-4 -6,-10 -6,-17 0,-8 2,-14 6,-18 4,-4 9,-6 15,-6 6,0 11,2 15,6 4,4 6,10 6,18 0,0 0,1 0,2l-34 0c0,5 2,9 4,12 3,3 6,4 10,4 3,0 5,-1 7,-2 2,-2 4,-4 5,-7zm-25 -12l25 0c0,-4 -1,-7 -3,-9 -2,-3 -6,-4 -10,-4 -4,0 -7,1 -9,4 -2,2 -4,6 -4,10z"/>
  <path id="22" class="fil4" d="M2903 891l0 -46 7 0 0 6c3,-5 8,-7 15,-7 3,0 5,1 8,1 2,1 4,2 5,4 1,2 2,4 2,6 0,1 0,4 0,8l0 28 -8 0 0 -28c0,-3 0,-6 -1,-7 -1,-2 -2,-3 -3,-4 -2,-1 -3,-1 -5,-1 -3,0 -6,1 -9,3 -2,2 -4,6 -4,12l0 25 -8 0z"/>
  <path id="23" class="fil4" d="M2969 884l1 7c-2,0 -4,1 -6,1 -3,0 -5,0 -7,-1 -2,-1 -3,-2 -3,-4 -1,-1 -1,-5 -1,-9l0 -26 -6 0 0 -6 6 0 0 -11 8 -5 0 16 8 0 0 6 -8 0 0 27c0,2 0,4 0,4 0,1 1,1 1,2 1,0 1,1 3,1 1,0 2,0 3,0z"/>
  <path id="24" class="fil4" d="M2998 868c0,-8 2,-15 7,-19 4,-3 9,-5 14,-5 6,0 11,2 15,6 4,4 6,10 6,17 0,6 -1,10 -3,14 -2,3 -4,6 -8,8 -3,2 -7,3 -11,3 -6,0 -12,-2 -16,-6 -4,-4 -6,-10 -6,-18zm8 0c0,6 1,10 4,13 3,3 6,4 10,4 4,0 7,-1 10,-4 3,-3 4,-7 4,-13 0,-6 -1,-10 -4,-13 -3,-3 -6,-4 -10,-4 -4,0 -7,1 -10,4 -3,3 -4,7 -4,13z"/>
  <path id="25" class="fil4" d="M3052 891l0 -40 -7 0 0 -6 7 0 0 -5c0,-3 0,-5 1,-7 1,-2 2,-4 4,-5 2,-1 4,-2 8,-2 2,0 5,0 7,1l-1 7c-2,0 -3,0 -5,0 -2,0 -4,1 -5,2 -1,1 -1,3 -1,6l0 4 9 0 0 6 -9 0 0 40 -8 0z"/>
  <polygon id="26" class="fil4" points="3099,891 3099,828 3106,828 3106,891 "/>
  <path id="27" class="fil4" d="M3148 885c-3,2 -6,4 -8,5 -3,1 -6,2 -9,2 -5,0 -9,-1 -12,-4 -3,-2 -4,-6 -4,-9 0,-2 1,-4 2,-6 1,-2 2,-3 4,-4 2,-1 4,-2 6,-3 2,0 4,-1 7,-1 6,-1 11,-2 14,-3 0,-1 0,-2 0,-2 0,-3 -1,-5 -2,-7 -2,-2 -5,-3 -9,-3 -4,0 -6,1 -8,2 -2,1 -3,4 -4,7l-8 -1c1,-3 2,-6 3,-8 2,-2 4,-4 7,-5 3,-1 6,-2 10,-2 4,0 7,0 10,1 2,1 4,2 5,3 1,1 2,3 2,5 0,1 0,4 0,7l0 10c0,7 0,12 0,14 0,2 1,4 2,6l-8 0c-1,-2 -1,-4 -2,-6zm-1 -17c-3,1 -7,2 -13,3 -3,0 -5,1 -7,2 -1,1 -2,1 -3,2 -1,1 -1,2 -1,4 0,2 1,4 2,5 2,1 4,2 7,2 3,0 6,-1 8,-2 2,-1 4,-3 5,-5 1,-2 1,-4 1,-8l0 -3z"/>
  <path id="28" class="fil4" d="M3167 891l0 -46 7 0 0 6c3,-5 8,-7 15,-7 3,0 5,1 8,1 2,1 4,2 5,4 1,2 2,4 2,6 0,1 0,4 0,8l0 28 -8 0 0 -28c0,-3 0,-6 -1,-7 -1,-2 -2,-3 -3,-4 -2,-1 -3,-1 -5,-1 -3,0 -6,1 -9,3 -2,2 -4,6 -4,12l0 25 -8 0z"/>
  <path id="29" class="fil4" d="M3246 891l0 -6c-3,5 -7,7 -13,7 -4,0 -7,-1 -10,-3 -3,-2 -5,-5 -7,-8 -2,-4 -3,-8 -3,-12 0,-5 1,-9 2,-12 2,-4 4,-7 7,-9 3,-2 6,-3 10,-3 3,0 5,1 7,2 2,1 4,3 5,5l0 -23 8 0 0 63 -7 0zm-25 -23c0,6 1,10 4,13 2,3 5,4 9,4 3,0 6,-1 9,-4 2,-3 4,-7 4,-13 0,-6 -1,-11 -4,-14 -2,-3 -5,-4 -9,-4 -3,0 -6,1 -9,4 -2,3 -3,7 -3,13z"/>
  <path id="30" class="fil4" d="M3320 891l0 -6c-3,5 -7,7 -13,7 -4,0 -7,-1 -10,-3 -3,-2 -5,-5 -7,-8 -2,-4 -3,-8 -3,-12 0,-5 1,-9 2,-12 2,-4 4,-7 7,-9 3,-2 6,-3 10,-3 3,0 5,1 7,2 2,1 4,3 5,5l0 -23 8 0 0 63 -7 0zm-25 -23c0,6 1,10 4,13 2,3 5,4 9,4 3,0 6,-1 9,-4 2,-3 4,-7 4,-13 0,-6 -1,-11 -4,-14 -2,-3 -5,-4 -9,-4 -3,0 -6,1 -9,4 -2,3 -3,7 -3,13z"/>
  <path id="31" class="fil4" d="M3370 876l8 1c-1,5 -4,8 -7,11 -3,3 -8,4 -13,4 -7,0 -12,-2 -16,-6 -4,-4 -6,-10 -6,-17 0,-8 2,-14 6,-18 4,-4 9,-6 15,-6 6,0 11,2 15,6 4,4 6,10 6,18 0,0 0,1 0,2l-34 0c0,5 2,9 4,12 3,3 6,4 10,4 3,0 5,-1 7,-2 2,-2 4,-4 5,-7zm-25 -12l25 0c0,-4 -1,-7 -3,-9 -2,-3 -6,-4 -10,-4 -4,0 -7,1 -9,4 -2,2 -4,6 -4,10z"/>
  <path id="32" class="fil4" d="M3385 877l8 -1c0,3 2,5 4,7 2,2 5,2 8,2 4,0 6,-1 8,-2 2,-1 3,-3 3,-5 0,-2 -1,-3 -2,-4 -1,-1 -4,-2 -8,-3 -6,-1 -10,-3 -12,-4 -2,-1 -4,-3 -5,-4 -1,-2 -2,-4 -2,-6 0,-2 0,-4 1,-6 1,-2 2,-3 4,-4 1,-1 3,-2 5,-2 2,-1 4,-1 7,-1 4,0 7,1 9,2 3,1 5,2 6,4 1,2 2,4 3,7l-8 1c0,-2 -1,-4 -3,-6 -2,-1 -4,-2 -7,-2 -4,0 -6,1 -8,2 -2,1 -2,3 -2,4 0,1 0,2 1,3 1,1 2,2 3,2 1,0 3,1 7,2 5,1 9,3 11,4 2,1 4,2 5,4 1,2 2,4 2,7 0,3 -1,5 -2,7 -2,2 -4,4 -7,5 -3,1 -6,2 -10,2 -6,0 -10,-1 -14,-4 -3,-2 -5,-6 -6,-11z"/>
  <path id="33" class="fil4" d="M3464 876l8 1c-1,5 -4,8 -7,11 -3,3 -8,4 -13,4 -7,0 -12,-2 -16,-6 -4,-4 -6,-10 -6,-17 0,-8 2,-14 6,-18 4,-4 9,-6 15,-6 6,0 11,2 15,6 4,4 6,10 6,18 0,0 0,1 0,2l-34 0c0,5 2,9 4,12 3,3 6,4 10,4 3,0 5,-1 7,-2 2,-2 4,-4 5,-7zm-25 -12l25 0c0,-4 -1,-7 -3,-9 -2,-3 -6,-4 -10,-4 -4,0 -7,1 -9,4 -2,2 -4,6 -4,10z"/>
  <path id="34" class="fil4" d="M3481 891l0 -46 7 0 0 7c2,-3 3,-5 5,-6 2,-1 3,-2 5,-2 3,0 5,1 8,2l-3 7c-2,-1 -4,-2 -6,-2 -2,0 -3,1 -5,2 -1,1 -2,2 -3,4 -1,3 -1,6 -1,9l0 24 -8 0z"/>
  <path id="35" class="fil4" d="M3528 884l1 7c-2,0 -4,1 -6,1 -3,0 -5,0 -7,-1 -2,-1 -3,-2 -3,-4 -1,-1 -1,-5 -1,-9l0 -26 -6 0 0 -6 6 0 0 -11 8 -5 0 16 8 0 0 6 -8 0 0 27c0,2 0,4 0,4 0,1 1,1 1,2 1,0 1,1 3,1 1,0 2,0 3,0z"/>
  <path id="36" class="fil4" d="M3535 837l0 -9 8 0 0 9 -8 0zm0 54l0 -46 8 0 0 46 -8 0z"/>
  <path id="37" class="fil4" d="M3557 891l0 -40 -7 0 0 -6 7 0 0 -5c0,-3 0,-5 1,-7 1,-2 2,-4 4,-5 2,-1 4,-2 8,-2 2,0 5,0 7,1l-1 7c-2,0 -3,0 -5,0 -2,0 -4,1 -5,2 -1,1 -1,3 -1,6l0 4 9 0 0 6 -9 0 0 40 -8 0z"/>
  <path id="38" class="fil4" d="M3579 837l0 -9 8 0 0 9 -8 0zm0 54l0 -46 8 0 0 46 -8 0z"/>
  <path id="39" class="fil4" d="M3629 874l8 1c-1,5 -3,9 -6,12 -3,3 -8,4 -13,4 -6,0 -11,-2 -15,-6 -4,-4 -6,-10 -6,-18 0,-5 1,-9 2,-13 2,-4 4,-6 7,-8 3,-2 7,-3 11,-3 5,0 9,1 12,4 3,3 5,6 6,11l-7 1c-1,-3 -2,-5 -4,-7 -2,-2 -4,-2 -7,-2 -4,0 -7,1 -10,4 -2,3 -4,7 -4,13 0,6 1,11 4,13 2,3 5,4 9,4 3,0 6,-1 8,-3 2,-2 3,-5 4,-9z"/>
  <path id="40" class="fil4" d="M3673 885c-3,2 -6,4 -8,5 -3,1 -6,2 -9,2 -5,0 -9,-1 -12,-4 -3,-2 -4,-6 -4,-9 0,-2 1,-4 2,-6 1,-2 2,-3 4,-4 2,-1 4,-2 6,-3 2,0 4,-1 7,-1 6,-1 11,-2 14,-3 0,-1 0,-2 0,-2 0,-3 -1,-5 -2,-7 -2,-2 -5,-3 -9,-3 -4,0 -6,1 -8,2 -2,1 -3,4 -4,7l-8 -1c1,-3 2,-6 3,-8 2,-2 4,-4 7,-5 3,-1 6,-2 10,-2 4,0 7,0 10,1 2,1 4,2 5,3 1,1 2,3 2,5 0,1 0,4 0,7l0 10c0,7 0,12 0,14 0,2 1,4 2,6l-8 0c-1,-2 -1,-4 -2,-6zm-1 -17c-3,1 -7,2 -13,3 -3,0 -5,1 -7,2 -1,1 -2,1 -3,2 -1,1 -1,2 -1,4 0,2 1,4 2,5 2,1 4,2 7,2 3,0 6,-1 8,-2 2,-1 4,-3 5,-5 1,-2 1,-4 1,-8l0 -3z"/>
  <path id="41" class="fil4" d="M3709 884l1 7c-2,0 -4,1 -6,1 -3,0 -5,0 -7,-1 -2,-1 -3,-2 -3,-4 -1,-1 -1,-5 -1,-9l0 -26 -6 0 0 -6 6 0 0 -11 8 -5 0 16 8 0 0 6 -8 0 0 27c0,2 0,4 0,4 0,1 1,1 1,2 1,0 1,1 3,1 1,0 2,0 3,0z"/>
  <path id="42" class="fil4" d="M3717 837l0 -9 8 0 0 9 -8 0zm0 54l0 -46 8 0 0 46 -8 0z"/>
  <path id="43" class="fil4" d="M3733 868c0,-8 2,-15 7,-19 4,-3 9,-5 14,-5 6,0 11,2 15,6 4,4 6,10 6,17 0,6 -1,10 -3,14 -2,3 -4,6 -8,8 -3,2 -7,3 -11,3 -6,0 -12,-2 -16,-6 -4,-4 -6,-10 -6,-18zm8 0c0,6 1,10 4,13 3,3 6,4 10,4 4,0 7,-1 10,-4 3,-3 4,-7 4,-13 0,-6 -1,-10 -4,-13 -3,-3 -6,-4 -10,-4 -4,0 -7,1 -10,4 -3,3 -4,7 -4,13z"/>
  <path id="44" class="fil4" d="M3785 891l0 -46 7 0 0 6c3,-5 8,-7 15,-7 3,0 5,1 8,1 2,1 4,2 5,4 1,2 2,4 2,6 0,1 0,4 0,8l0 28 -8 0 0 -28c0,-3 0,-6 -1,-7 -1,-2 -2,-3 -3,-4 -2,-1 -3,-1 -5,-1 -3,0 -6,1 -9,3 -2,2 -4,6 -4,12l0 25 -8 0z"/>
  <path id="45" class="fil4" d="M2383 935l0 -9 8 0 0 9 -8 0zm0 54l0 -46 8 0 0 46 -8 0z"/>
  <path id="46" class="fil4" d="M2402 990l0 -46 7 0 0 6c3,-5 8,-7 15,-7 3,0 5,1 8,1 2,1 4,2 5,4 1,2 2,4 2,6 0,1 0,4 0,8l0 28 -8 0 0 -28c0,-3 0,-6 -1,-7 -1,-2 -2,-3 -3,-4 -2,-1 -3,-1 -5,-1 -3,0 -6,1 -9,3 -2,2 -4,6 -4,12l0 25 -8 0z"/>
  <path id="47" class="fil4" d="M2505 990l0 -6c-3,5 -7,7 -13,7 -4,0 -7,-1 -10,-3 -3,-2 -5,-5 -7,-8 -2,-4 -3,-8 -3,-12 0,-5 1,-9 2,-12 2,-4 4,-7 7,-9 3,-2 6,-3 10,-3 3,0 5,1 7,2 2,1 4,3 5,5l0 -23 8 0 0 63 -7 0zm-25 -23c0,6 1,10 4,13 2,3 5,4 9,4 3,0 6,-1 9,-4 2,-3 4,-7 4,-13 0,-6 -1,-11 -4,-14 -2,-3 -5,-4 -9,-4 -3,0 -6,1 -9,4 -2,3 -3,7 -3,13z"/>
  <path id="48" class="fil4" d="M2525 935l0 -9 8 0 0 9 -8 0zm0 54l0 -46 8 0 0 46 -8 0z"/>
  <path id="49" class="fil4" d="M2546 990l0 -40 -7 0 0 -6 7 0 0 -5c0,-3 0,-5 1,-7 1,-2 2,-4 4,-5 2,-1 4,-2 8,-2 2,0 5,0 7,1l-1 7c-2,0 -3,0 -5,0 -2,0 -4,1 -5,2 -1,1 -1,3 -1,6l0 4 9 0 0 6 -9 0 0 40 -8 0z"/>
  <path id="50" class="fil4" d="M2569 990l0 -40 -7 0 0 -6 7 0 0 -5c0,-3 0,-5 1,-7 1,-2 2,-4 4,-5 2,-1 4,-2 8,-2 2,0 5,0 7,1l-1 7c-2,0 -3,0 -5,0 -2,0 -4,1 -5,2 -1,1 -1,3 -1,6l0 4 9 0 0 6 -9 0 0 40 -8 0z"/>
  <path id="51" class="fil4" d="M2623 975l8 1c-1,5 -4,8 -7,11 -3,3 -8,4 -13,4 -7,0 -12,-2 -16,-6 -4,-4 -6,-10 -6,-17 0,-8 2,-14 6,-18 4,-4 9,-6 15,-6 6,0 11,2 15,6 4,4 6,10 6,18 0,0 0,1 0,2l-34 0c0,5 2,9 4,12 3,3 6,4 10,4 3,0 5,-1 7,-2 2,-2 4,-4 5,-7zm-25 -12l25 0c0,-4 -1,-7 -3,-9 -2,-3 -6,-4 -10,-4 -4,0 -7,1 -9,4 -2,2 -4,6 -4,10z"/>
  <path id="52" class="fil4" d="M2641 990l0 -46 7 0 0 7c2,-3 3,-5 5,-6 2,-1 3,-2 5,-2 3,0 5,1 8,2l-3 7c-2,-1 -4,-2 -6,-2 -2,0 -3,1 -5,2 -1,1 -2,2 -3,4 -1,3 -1,6 -1,9l0 24 -8 0z"/>
  <path id="53" class="fil4" d="M2702 975l8 1c-1,5 -4,8 -7,11 -3,3 -8,4 -13,4 -7,0 -12,-2 -16,-6 -4,-4 -6,-10 -6,-17 0,-8 2,-14 6,-18 4,-4 9,-6 15,-6 6,0 11,2 15,6 4,4 6,10 6,18 0,0 0,1 0,2l-34 0c0,5 2,9 4,12 3,3 6,4 10,4 3,0 5,-1 7,-2 2,-2 4,-4 5,-7zm-25 -12l25 0c0,-4 -1,-7 -3,-9 -2,-3 -6,-4 -10,-4 -4,0 -7,1 -9,4 -2,2 -4,6 -4,10z"/>
  <path id="54" class="fil4" d="M2719 990l0 -46 7 0 0 6c3,-5 8,-7 15,-7 3,0 5,1 8,1 2,1 4,2 5,4 1,2 2,4 2,6 0,1 0,4 0,8l0 28 -8 0 0 -28c0,-3 0,-6 -1,-7 -1,-2 -2,-3 -3,-4 -2,-1 -3,-1 -5,-1 -3,0 -6,1 -9,3 -2,2 -4,6 -4,12l0 25 -8 0z"/>
  <path id="55" class="fil4" d="M2785 983l1 7c-2,0 -4,1 -6,1 -3,0 -5,0 -7,-1 -2,-1 -3,-2 -3,-4 -1,-1 -1,-5 -1,-9l0 -26 -6 0 0 -6 6 0 0 -11 8 -5 0 16 8 0 0 6 -8 0 0 27c0,2 0,4 0,4 0,1 1,1 1,2 1,0 1,1 3,1 1,0 2,0 3,0z"/>
  <path id="56" class="fil4" d="M2834 983l1 7c-2,0 -4,1 -6,1 -3,0 -5,0 -7,-1 -2,-1 -3,-2 -3,-4 -1,-1 -1,-5 -1,-9l0 -26 -6 0 0 -6 6 0 0 -11 8 -5 0 16 8 0 0 6 -8 0 0 27c0,2 0,4 0,4 0,1 1,1 1,2 1,0 1,1 3,1 1,0 2,0 3,0z"/>
  <path id="57" class="fil4" d="M2842 1007l-1 -7c2,0 3,1 4,1 2,0 3,0 4,-1 1,-1 2,-1 3,-2 0,-1 1,-3 2,-6 0,0 0,-1 1,-2l-17 -46 8 0 10 26c1,3 2,7 3,11 1,-3 2,-7 3,-10l10 -27 8 0 -17 47c-2,5 -3,8 -4,10 -1,3 -3,4 -5,6 -2,1 -4,2 -6,2 -2,0 -3,0 -5,-1z"/>
  <path id="58" class="fil4" d="M2886 1007l0 -63 7 0 0 6c2,-2 4,-4 6,-5 2,-1 5,-2 8,-2 4,0 7,1 10,3 3,2 5,5 7,8 2,4 2,8 2,12 0,5 -1,9 -3,13 -2,4 -4,7 -7,9 -3,2 -7,3 -10,3 -3,0 -5,-1 -7,-2 -2,-1 -4,-2 -5,-4l0 22 -8 0zm7 -40c0,6 1,10 4,13 2,3 5,4 9,4 3,0 6,-1 9,-4 2,-3 4,-7 4,-14 0,-6 -1,-10 -4,-13 -2,-3 -5,-4 -9,-4 -3,0 -6,2 -9,5 -3,3 -4,8 -4,13z"/>
  <path id="59" class="fil4" d="M2935 935l0 -9 8 0 0 9 -8 0zm0 54l0 -46 8 0 0 46 -8 0z"/>
  <path id="60" class="fil4" d="M2985 973l8 1c-1,5 -3,9 -6,12 -3,3 -8,4 -13,4 -6,0 -11,-2 -15,-6 -4,-4 -6,-10 -6,-18 0,-5 1,-9 2,-13 2,-4 4,-6 7,-8 3,-2 7,-3 11,-3 5,0 9,1 12,4 3,3 5,6 6,11l-7 1c-1,-3 -2,-5 -4,-7 -2,-2 -4,-2 -7,-2 -4,0 -7,1 -10,4 -2,3 -4,7 -4,13 0,6 1,11 4,13 2,3 5,4 9,4 3,0 6,-1 8,-3 2,-2 3,-5 4,-9z"/>
  <path id="61" class="fil4" d="M3029 984c-3,2 -6,4 -8,5 -3,1 -6,2 -9,2 -5,0 -9,-1 -12,-4 -3,-2 -4,-6 -4,-9 0,-2 1,-4 2,-6 1,-2 2,-3 4,-4 2,-1 4,-2 6,-3 2,0 4,-1 7,-1 6,-1 11,-2 14,-3 0,-1 0,-2 0,-2 0,-3 -1,-5 -2,-7 -2,-2 -5,-3 -9,-3 -4,0 -6,1 -8,2 -2,1 -3,4 -4,7l-8 -1c1,-3 2,-6 3,-8 2,-2 4,-4 7,-5 3,-1 6,-2 10,-2 4,0 7,0 10,1 2,1 4,2 5,3 1,1 2,3 2,5 0,1 0,4 0,7l0 10c0,7 0,12 0,14 0,2 1,4 2,6l-8 0c-1,-2 -1,-4 -2,-6zm-1 -17c-3,1 -7,2 -13,3 -3,0 -5,1 -7,2 -1,1 -2,1 -3,2 -1,1 -1,2 -1,4 0,2 1,4 2,5 2,1 4,2 7,2 3,0 6,-1 8,-2 2,-1 4,-3 5,-5 1,-2 1,-4 1,-8l0 -3z"/>
  <polygon id="62" class="fil4" points="3048,990 3048,927 3055,927 3055,990 "/>
  <path id="63" class="fil4" d="M3092 990l0 -46 7 0 0 7c2,-3 3,-5 5,-6 2,-1 3,-2 5,-2 3,0 5,1 8,2l-3 7c-2,-1 -4,-2 -6,-2 -2,0 -3,1 -5,2 -1,1 -2,2 -3,4 -1,3 -1,6 -1,9l0 24 -8 0z"/>
  <path id="64" class="fil4" d="M3153 975l8 1c-1,5 -4,8 -7,11 -3,3 -8,4 -13,4 -7,0 -12,-2 -16,-6 -4,-4 -6,-10 -6,-17 0,-8 2,-14 6,-18 4,-4 9,-6 15,-6 6,0 11,2 15,6 4,4 6,10 6,18 0,0 0,1 0,2l-34 0c0,5 2,9 4,12 3,3 6,4 10,4 3,0 5,-1 7,-2 2,-2 4,-4 5,-7zm-25 -12l25 0c0,-4 -1,-7 -3,-9 -2,-3 -6,-4 -10,-4 -4,0 -7,1 -9,4 -2,2 -4,6 -4,10z"/>
  <path id="65" class="fil4" d="M3169 993l7 1c0,2 1,4 3,5 2,1 5,2 8,2 4,0 6,-1 8,-2 2,-1 3,-3 4,-6 0,-2 1,-5 1,-10 -3,4 -8,6 -13,6 -6,0 -11,-2 -15,-7 -3,-5 -5,-10 -5,-16 0,-4 1,-8 2,-12 2,-4 4,-7 7,-9 3,-2 7,-3 11,-3 5,0 10,2 13,7l0 -6 7 0 0 40c0,7 -1,12 -2,15 -1,3 -4,5 -7,7 -3,2 -7,3 -12,3 -5,0 -10,-1 -13,-4 -3,-2 -5,-6 -5,-11zm6 -27c0,6 1,10 4,13 2,3 5,4 9,4 4,0 7,-1 9,-4 2,-3 4,-7 4,-13 0,-6 -1,-10 -4,-13 -2,-3 -5,-4 -9,-4 -3,0 -6,1 -9,4 -2,3 -4,7 -4,12z"/>
  <path id="66" class="fil4" d="M3219 935l0 -9 8 0 0 9 -8 0zm0 54l0 -46 8 0 0 46 -8 0z"/>
  <path id="67" class="fil4" d="M3236 967c0,-8 2,-15 7,-19 4,-3 9,-5 14,-5 6,0 11,2 15,6 4,4 6,10 6,17 0,6 -1,10 -3,14 -2,3 -4,6 -8,8 -3,2 -7,3 -11,3 -6,0 -12,-2 -16,-6 -4,-4 -6,-10 -6,-18zm8 0c0,6 1,10 4,13 3,3 6,4 10,4 4,0 7,-1 10,-4 3,-3 4,-7 4,-13 0,-6 -1,-10 -4,-13 -3,-3 -6,-4 -10,-4 -4,0 -7,1 -10,4 -3,3 -4,7 -4,13z"/>
  <path id="68" class="fil4" d="M3288 990l0 -46 7 0 0 6c3,-5 8,-7 15,-7 3,0 5,1 8,1 2,1 4,2 5,4 1,2 2,4 2,6 0,1 0,4 0,8l0 28 -8 0 0 -28c0,-3 0,-6 -1,-7 -1,-2 -2,-3 -3,-4 -2,-1 -3,-1 -5,-1 -3,0 -6,1 -9,3 -2,2 -4,6 -4,12l0 25 -8 0z"/>
  <path id="69" class="fil4" d="M3334 976l8 -1c0,3 2,5 4,7 2,2 5,2 8,2 4,0 6,-1 8,-2 2,-1 3,-3 3,-5 0,-2 -1,-3 -2,-4 -1,-1 -4,-2 -8,-3 -6,-1 -10,-3 -12,-4 -2,-1 -4,-3 -5,-4 -1,-2 -2,-4 -2,-6 0,-2 0,-4 1,-6 1,-2 2,-3 4,-4 1,-1 3,-2 5,-2 2,-1 4,-1 7,-1 4,0 7,1 9,2 3,1 5,2 6,4 1,2 2,4 3,7l-8 1c0,-2 -1,-4 -3,-6 -2,-1 -4,-2 -7,-2 -4,0 -6,1 -8,2 -2,1 -2,3 -2,4 0,1 0,2 1,3 1,1 2,2 3,2 1,0 3,1 7,2 5,1 9,3 11,4 2,1 4,2 5,4 1,2 2,4 2,7 0,3 -1,5 -2,7 -2,2 -4,4 -7,5 -3,1 -6,2 -10,2 -6,0 -10,-1 -14,-4 -3,-2 -5,-6 -6,-11z"/>
 </g>
 <g id="cirs">
  <metadata id="CorelCorpID_2Corel-Layer"/>
  <ellipse id="cir1"  onclick="Showimg(1)" class="fil100 str3" cx="2140" cy="4649" rx="245" ry="140"/>
  <ellipse id="cir2"  onclick="Showimg(2)" class="fil100 str3" cx="6072" cy="5207" rx="245" ry="140"/>
  <ellipse id="cir3"  onclick="Showimg(3)" class="fil100 str3" cx="5100" cy="6118" rx="245" ry="140"/>
 </g>
 <g id="rect1" style="visibility:hidden" >
  <metadata id="CorelCorpID_3Corel-Layer"/>
  <g style="clip-path:url(#id1)">
   <image id="rect1_0" x="1602" y="2777" width="2561" height="1603" xlink:href="106-107土地沙漠化现代过程兰_ImgID2.png"/>
  </g>
 </g>
 <g id="rect2" style="visibility:hidden" >
  <metadata id="CorelCorpID_4Corel-Layer"/>
  <g style="clip-path:url(#id2)">
   <image id="rect2_1" x="4374" y="443" width="3094" height="4582" xlink:href="106-107土地沙漠化现代过程兰_ImgID3.png"/>
  </g>
 </g>
 <g id="rect3" style="visibility:hidden" >
  <metadata id="CorelCorpID_5Corel-Layer"/>
  <g style="clip-path:url(#id3)">
   <image id="rect3_2" x="1602" y="5070" width="3065" height="2339" xlink:href="106-107土地沙漠化现代过程兰_ImgID4.png"/>
  </g>
 </g>
 <g id="infotip1">
  <metadata id="CorelCorpID_6Corel-Layer"/>
  <path class="fil5 str4" d="M1956 4947c0,0 0,24 13,23 14,0 505,0 505,0 0,0 11,1 11,-25 0,-26 0,-112 0,-112 0,0 1,-16 -19,-16 -20,0 -235,0 -235,0l-32 -51 0 50 -102 0 -127 0c0,0 -13,2 -13,19 0,17 0,111 0,111z"/>
  <path class="fil6" d="M2016 4829c0,2 0,5 0,9l14 0c2,0 5,0 7,0l0 5c-2,0 -5,0 -7,0l-14 0 0 8 17 0c0,4 0,7 0,11 0,4 0,7 0,10l-36 0c0,-3 0,-7 0,-10 0,-4 0,-8 0,-11l14 0 0 -13c0,-3 0,-5 0,-7l5 0zm12 38l0 -13 -26 0 0 13 26 0zm-28 9c-3,7 -5,12 -6,14 -1,-1 -3,-2 -4,-3 2,-3 4,-8 5,-14 1,1 3,1 5,2zm34 -1c3,5 5,9 7,13 -1,1 -2,1 -4,3 -1,-3 -3,-8 -6,-13 1,-1 3,-2 4,-3zm-12 15c-1,-3 -3,-7 -5,-12 1,-1 2,-2 4,-3 3,6 5,10 5,12 -1,1 -3,2 -4,3zm-14 0c0,-2 -1,-6 -4,-12 1,-1 3,-1 4,-2 2,6 4,10 4,12 -2,1 -3,1 -5,2z"/>
  <path id="1" class="fil6" d="M2069 4841l0 -5c0,-2 0,-3 0,-6l5 0c0,2 0,4 0,6l0 5 11 0c3,0 5,0 7,0l0 5c-2,0 -4,0 -7,0l-11 0 0 11 17 0c3,0 5,0 7,0l0 5c-2,0 -4,0 -7,0l-17 0 0 21 12 0 0 -11c0,-1 0,-3 0,-5l5 0c0,2 0,4 0,5l0 11c0,3 0,5 0,8l-5 0 0 -4 -33 0c0,-2 0,-4 0,-7l0 -8c0,-1 0,-2 0,-5l5 0c0,2 0,4 0,5l0 10 12 0 0 -21 -16 0c-3,0 -6,0 -8,0l0 -5c2,0 5,0 8,0l16 0 0 -11 -11 0c-3,0 -5,0 -7,0l0 -5c2,0 4,0 7,1l11 0z"/>
  <path id="2" class="fil6" d="M2125 4838c0,-3 0,-6 0,-8l4 0c0,2 0,5 0,8l14 0c2,0 5,0 7,0l0 5c-3,0 -5,0 -7,0l-8 0c2,3 4,5 7,7 3,2 7,4 11,5 -1,1 -2,3 -3,5 -5,-2 -8,-4 -12,-7 -3,-3 -6,-6 -8,-10l-1 0 0 14 14 0c0,3 0,7 0,10 0,4 0,7 0,11l-31 0c0,-3 0,-7 0,-11 0,-4 0,-8 0,-11 -2,1 -4,3 -7,4 -1,-2 -2,-3 -3,-5 3,-1 6,-3 10,-5 3,-3 6,-6 8,-9l-6 0c-3,0 -5,0 -8,0l0 -5c3,0 6,0 8,0l12 0zm19 46c2,0 5,0 7,0l0 5c-6,0 -9,0 -12,0l-28 0c-3,0 -5,0 -8,0l0 -5c3,0 5,0 8,0l32 0zm-5 -10l0 -5 -23 0 0 5 23 0zm0 -9l0 -4 -23 0 0 4 23 0zm-14 -9l0 -14 -1 0c-2,3 -3,6 -5,8 -2,2 -4,4 -7,7l13 0z"/>
  <path id="3" class="fil6" d="M2206 4835c-3,0 -7,0 -10,1 -4,0 -8,1 -12,1 0,2 -1,4 -1,5l12 0c2,0 5,0 8,0l0 4c-3,0 -6,0 -8,0l-13 0c0,2 -1,3 -2,5l19 0c3,0 7,0 10,-1l0 5c-4,0 -7,0 -10,0l-20 0c-1,2 -2,4 -3,5l26 0c0,3 0,6 0,10l0 12c0,3 0,6 0,10l-4 0 0 -4 -23 0 0 4 -4 0c0,-3 0,-6 0,-9l0 -16c-2,3 -6,6 -10,10 -1,-2 -2,-3 -4,-4 3,-2 6,-4 10,-7 3,-3 6,-6 7,-10l-8 0c-3,0 -5,0 -7,0l0 -4c2,0 5,0 7,0l10 0c1,-2 1,-3 2,-5l-6 0c-2,0 -5,0 -7,0l0 -4c2,0 5,0 7,0l7 0c0,-2 1,-3 1,-5 -2,0 -4,0 -7,0 -3,0 -6,0 -9,1 0,-1 -1,-3 -2,-5 4,0 11,0 19,-1 9,-1 16,-2 22,-3 1,2 2,4 3,6zm-7 48l0 -4 -23 0 0 4 23 0zm0 -8l0 -4 -23 0 0 4 23 0zm0 -8l0 -4 -23 0 0 4 23 0z"/>
  <path id="4" class="fil6" d="M2233 4874c4,-2 6,-3 8,-5 2,-2 4,-4 6,-7 -3,0 -5,0 -7,1 -2,0 -4,1 -5,1 -1,-2 -1,-4 -2,-5 1,0 3,-2 4,-4 2,-3 3,-6 5,-9 -5,0 -8,0 -11,0l0 -4c2,0 4,0 7,0l19 0c3,0 5,0 8,0l0 4c-3,0 -6,0 -9,0l-13 0c1,1 2,2 4,3 -1,1 -4,5 -8,11 3,0 6,0 11,-1 2,-4 3,-7 4,-9 1,1 3,2 5,3 -1,1 -2,3 -3,4 -1,2 -2,4 -4,8 -2,3 -4,6 -7,8 -2,2 -5,4 -8,7 -1,-2 -2,-3 -3,-4zm30 -11c-1,1 -2,3 -4,5 -1,2 -3,5 -4,7 5,5 9,9 11,12 -1,1 -3,3 -4,4 -2,-4 -5,-7 -10,-12 -3,3 -5,5 -8,7 -3,2 -6,4 -11,6 -1,-2 -1,-3 -3,-5 4,-1 8,-3 11,-5 3,-2 5,-4 7,-6 2,-2 4,-5 5,-8 2,-3 3,-6 4,-8 1,1 3,2 5,3zm-43 22c1,-1 2,-3 2,-6l0 -23 -2 0c-1,0 -3,0 -5,0l0 -5c2,0 4,0 5,0l6 0c0,3 0,7 0,10l0 18c2,-2 4,-4 5,-6 0,2 1,3 2,5 -2,2 -4,3 -6,5 -2,2 -3,3 -4,5 -1,-2 -2,-3 -3,-4zm5 -40c-2,-5 -5,-8 -6,-11 1,-1 2,-2 4,-3 2,3 4,6 7,11 -1,1 -3,2 -4,3zm18 -13c1,-1 2,-2 4,-3 3,3 4,5 5,7 -1,1 -3,2 -4,3 -2,-3 -3,-6 -5,-7z"/>
  <path id="5" class="fil6" d="M2288 4860c-1,-2 -1,-4 -2,-5 2,0 4,-1 6,-2l0 -6c0,-3 0,-7 0,-11l4 0c0,4 0,7 0,11l0 5 7 -3 0 -11c0,-3 0,-6 0,-9l5 0c0,2 0,5 0,9l0 9c2,-1 6,-2 11,-4 0,2 0,5 0,9l0 10c0,5 -1,7 -2,9 -2,1 -3,2 -6,3 0,-2 -1,-4 -2,-6 3,0 4,-1 5,-1 1,-1 1,-3 1,-6l0 -11c-2,1 -5,2 -7,3l0 18c0,3 0,6 0,8l-5 0c0,-3 0,-6 0,-8l0 -16 -7 3 0 22c0,4 1,5 3,5l14 0c1,0 2,-1 3,-2 0,-1 1,-3 1,-6 1,1 3,2 5,2 -1,4 -2,6 -3,8 -1,1 -3,2 -5,2l-17 0c-3,0 -5,-2 -5,-7l0 -23c-2,1 -3,1 -4,2zm-6 14c2,-1 4,-2 7,-3 0,2 0,4 0,5 -2,1 -5,2 -8,3 -3,1 -6,3 -8,4 0,-2 -1,-4 -2,-6 2,-1 5,-2 7,-3l0 -23c-3,0 -5,0 -7,0l0 -5c2,0 4,0 7,0l0 -8c0,-3 0,-6 0,-9l5 0c0,2 0,5 0,9l0 8c3,0 5,0 6,0l0 5c-2,0 -4,0 -6,0l0 22z"/>
  <path id="6" class="fil6" d="M2376 4837c-2,0 -5,0 -9,0l-33 0 0 49 36 0c3,0 5,0 7,0l0 5c-2,0 -4,0 -7,0l-40 0c0,-4 0,-7 0,-9l0 -40c0,-3 0,-6 0,-8l46 0 0 5zm-31 7c5,4 10,8 13,12 3,-5 6,-9 7,-14 2,1 4,2 6,4 -2,1 -3,3 -4,5 -1,2 -3,5 -5,9 5,5 9,10 12,14 -2,1 -3,3 -4,4 -2,-4 -6,-9 -12,-14 -2,3 -4,6 -7,8 -2,2 -5,5 -8,8 -1,-2 -3,-3 -4,-4 3,-2 6,-3 8,-6 2,-2 5,-6 8,-10 -4,-4 -8,-8 -14,-12 1,-1 2,-3 3,-4z"/>
  <path id="7" class="fil6" d="M2012 4918l0 -12c0,-3 0,-6 0,-8l5 0c0,2 0,5 0,8l0 12 8 0c4,0 7,0 11,0l0 6c-3,0 -7,0 -11,0l-8 0 0 26 14 0c4,0 7,0 10,0l0 6c-3,0 -6,0 -10,0l-33 0c-4,0 -7,0 -9,0l0 -6c2,0 6,0 9,0l14 0 0 -26 -9 0c-4,0 -7,0 -10,1l0 -6c3,0 7,0 10,0l9 0z"/>
  <path id="8" class="fil6" d="M2076 4940c-1,1 -2,2 -3,3l0 8c1,-1 3,-2 4,-4 0,1 1,3 2,4 -4,3 -7,5 -8,7 -1,-2 -2,-3 -3,-4 1,-1 2,-2 2,-4l0 -5c-3,2 -6,5 -10,7 -1,-1 -1,-3 -3,-4 2,-1 4,-2 7,-3 3,-2 5,-3 6,-5 -3,0 -6,0 -8,0l0 -4c2,0 5,0 9,0l0 -3c-2,0 -5,0 -7,0l0 -4c2,0 4,0 7,0l0 -3c-3,0 -6,0 -8,0l0 -4c2,0 5,0 8,0l0 -3 -7 0c0,-2 0,-3 0,-5 0,-2 0,-3 0,-6l13 0c0,2 0,4 0,5 0,1 0,3 0,6l-3 0 0 3 7 0 0 -3 -2 0c0,-2 0,-3 0,-5 0,-2 0,-4 0,-6l13 0c0,2 0,4 0,5 0,2 0,3 0,5l-8 0 0 3c3,0 6,0 8,0l0 4c-2,0 -5,0 -8,0l0 3c2,0 5,0 7,0l0 4c-2,0 -4,0 -7,0l0 3c4,0 7,0 9,0l0 4c-2,0 -4,0 -6,0l-7 0c1,2 2,4 4,7 1,-2 2,-4 3,-6 1,1 2,2 4,3 -1,1 -1,2 -2,3 -1,1 -1,2 -2,3 2,2 5,3 9,4 -1,1 -2,2 -3,5 -5,-2 -8,-4 -10,-7 -2,-3 -4,-6 -6,-9 1,-1 2,-1 3,-2l-5 0zm-20 -26c1,0 3,0 5,0l0 4c-2,0 -4,0 -5,0l0 19c2,-1 3,-2 4,-3 0,1 0,3 0,4 -1,1 -3,2 -6,3 -3,1 -5,3 -7,4 -1,-2 -2,-3 -2,-4 2,-1 4,-1 7,-3l0 -21c-2,0 -4,0 -6,0l0 -4c2,0 4,0 6,0l0 -7c0,-2 0,-4 0,-7l4 0c0,3 0,5 0,7l0 7zm24 -17c1,2 1,4 2,6l7 0c2,0 5,0 7,0l0 4c-2,0 -4,0 -7,0l-18 0c-2,0 -5,0 -8,0l0 -4c3,0 5,0 8,0l7 0c0,-2 -1,-3 -1,-5 1,0 2,0 4,-1zm2 40l0 -3 -7 0 0 3 7 0zm0 -7l0 -3 -7 0 0 3 7 0zm-8 -13l0 -3 -5 0 0 3 5 0zm16 0l0 -3 -5 0 0 3 5 0z"/>
  <path id="9" class="fil6" d="M2102 4934c3,-2 7,-6 10,-10 3,-4 6,-9 9,-15l-8 0c-2,0 -5,0 -8,0l0 -5c4,0 7,0 9,0l8 0c1,-4 2,-7 2,-9 2,1 4,1 5,2 0,1 -1,3 -2,8l18 0c2,0 5,0 8,0l0 5c-3,0 -5,0 -7,0l-20 0c-1,2 -2,5 -3,7l25 0c0,4 0,8 0,12l0 21c0,2 -1,4 -2,5 -1,1 -4,2 -7,2 0,-2 -1,-4 -2,-6 2,0 4,0 5,0 1,0 2,-1 2,-3l0 -5 -23 0 0 14 -5 0c0,-4 0,-8 0,-11l0 -19c-3,4 -6,8 -10,11 -1,-1 -2,-3 -4,-4zm41 -6l0 -7 -23 0 0 7 23 0zm0 11l0 -7 -23 0 0 7 23 0z"/>
  <path id="10" class="fil6" d="M2201 4901c0,5 0,9 0,13l0 34c0,2 0,4 1,4 1,0 2,0 2,0 1,0 1,-1 1,-2 0,-1 0,-3 0,-5 1,1 3,2 5,2 -1,4 -1,6 -2,7 -1,1 -2,2 -3,2l-5 0c-2,0 -3,0 -4,-1 -1,-1 -1,-3 -1,-6l0 -43 -8 0c0,10 0,18 0,23 0,6 -1,11 -2,15 -1,4 -3,9 -6,14 -1,-1 -2,-2 -4,-4 2,-2 4,-4 5,-7 1,-3 2,-6 3,-9 0,-3 1,-6 1,-9 0,-3 0,-8 0,-13 0,-5 0,-10 0,-14l17 0zm-26 22c2,4 4,7 5,9 -1,1 -2,2 -4,3 -1,-2 -2,-5 -5,-9l0 19c0,4 0,7 0,12l-5 0c0,-4 0,-8 0,-12l0 -17c-1,3 -2,5 -2,7 -1,2 -2,5 -4,8 -1,-2 -2,-3 -4,-4 1,-2 3,-5 5,-9 2,-5 3,-10 4,-15l-1 0c-2,0 -4,0 -6,1l0 -5c2,0 4,0 6,0l2 0 0 -5c0,-3 0,-5 0,-8l5 0c0,2 0,4 0,8l0 5 2 0c2,0 3,0 5,0l0 5c-3,0 -6,0 -8,0l0 10c1,-1 2,-2 3,-3z"/>
  <path id="11" class="fil6" d="M2227 4912c2,0 5,0 7,0l7 0 0 -7c-9,1 -14,1 -16,1l0 6c0,8 0,14 0,18 0,4 -1,8 -1,12 -1,4 -2,8 -5,14 -1,-1 -3,-2 -5,-2 2,-4 4,-7 5,-11 1,-4 1,-9 2,-15 0,-6 0,-11 0,-15 0,-4 0,-7 0,-10 4,0 8,0 12,0 4,0 8,-1 13,-1 5,-1 9,-2 12,-3 0,2 1,4 3,6 -2,0 -4,0 -6,0 -2,0 -5,1 -9,1l0 7 11 0c2,0 4,0 7,0l0 5c-2,0 -4,0 -7,0l-11 0 0 7 14 0c0,3 0,6 0,9 0,3 0,6 0,9l-5 0 0 -14 -20 0 0 15 -4 0c0,-3 0,-7 0,-10 0,-3 0,-6 0,-9l12 0 0 -7 -7 0c-2,0 -5,0 -7,0l0 -5zm20 20c-1,3 -1,6 -1,9 0,3 -2,7 -5,9 -3,3 -7,5 -12,7 0,-1 -1,-3 -3,-4 4,-1 7,-3 10,-4 2,-2 4,-3 5,-6 1,-2 2,-5 2,-7 0,-2 0,-4 0,-6 2,0 3,0 5,1zm2 10c2,1 5,3 8,5 3,2 5,4 8,6 -1,1 -2,2 -3,4 -3,-3 -8,-7 -15,-10 1,-2 2,-3 2,-4z"/>
  <path id="12" class="fil6" d="M2308 4957l0 -4 -24 0 0 4 -5 0c0,-2 0,-6 0,-9 0,-4 0,-8 0,-12l33 0c0,2 0,6 0,11 0,5 0,9 0,10l-5 0zm-10 -57c2,2 4,5 9,8 4,3 9,6 16,8 -2,2 -3,4 -4,6 -4,-2 -8,-4 -12,-7 -4,-3 -8,-7 -11,-11 -4,5 -7,9 -11,12 -3,3 -7,5 -11,8 0,-1 -1,-3 -3,-5 5,-2 9,-4 14,-9 4,-4 8,-9 10,-14 2,1 4,2 5,2l-2 2zm10 49l0 -9 -24 0 0 9 24 0zm2 -28c-1,2 -3,4 -5,7 -2,3 -4,5 -5,7 -1,-1 -2,-2 -3,-3 2,-2 3,-5 5,-8l-17 0c-1,0 -3,0 -5,0l0 -4c2,0 4,0 5,0l25 0zm-15 -11c2,4 3,6 4,7 -1,0 -2,1 -4,2 -1,-3 -2,-6 -3,-7 1,-1 3,-1 3,-2z"/>
  <path id="13" class="fil6" d="M2371 4925c0,2 0,5 0,8 0,3 0,6 0,8l-16 0 0 3 10 0c2,0 5,0 7,0l0 4c-2,0 -4,0 -7,0l-10 0 0 4 15 0c2,0 5,0 7,0l0 4c-2,0 -5,0 -7,0l-34 0c-2,0 -5,0 -7,0l0 -4c3,0 5,0 7,0l15 0 0 -4 -11 0c-2,0 -4,0 -7,1l0 -4c2,0 5,0 7,0l11 0 0 -3 -16 0c0,-3 0,-6 0,-9 0,-3 0,-5 0,-8l36 0zm0 -26c0,3 0,5 0,7 0,2 0,5 0,9l-35 0c0,-4 0,-7 0,-9 0,-2 0,-5 0,-7l35 0zm-3 19c4,0 7,0 10,-1l0 4c-3,0 -6,0 -9,0l-29 0c-4,0 -8,0 -12,0l0 -4c4,0 8,0 12,1l29 0zm-2 -6l0 -3 -27 0 0 3 27 0zm0 -7l0 -3 -27 0 0 3 27 0zm0 26l0 -3 -12 0 0 3 12 0zm-16 0l0 -3 -12 0 0 3 12 0zm0 6l0 -3 -12 0 0 3 12 0zm16 0l0 -3 -12 0 0 3 12 0z"/>
  <rect id="close1"   onclick="closeinfotip(1)" class="fil5 str5" x="2412" y="4827" width="53.7807" height="53.7815" rx="8" ry="8"/>
  <line class="fil2 str4" x1="2455" y1="4838" x2="2423" y2= "4869" />
  <line class="fil2 str4" x1="2423" y1="4838" x2="2455" y2= "4869" />
 </g>
 <g id="infotip2">
  <metadata id="CorelCorpID_7Corel-Layer"/>
  <path class="fil5 str4" d="M4996 6438c0,0 0,24 13,23 14,0 505,0 505,0 0,0 11,1 11,-25 0,-26 0,-112 0,-112 0,0 1,-16 -19,-16 -20,0 -235,0 -235,0l-32 -51 0 50 -102 0 -127 0c0,0 -13,2 -13,19 0,17 0,111 0,111z"/>
  <path class="fil6" d="M5056 6319c0,2 0,5 0,9l14 0c2,0 5,0 7,0l0 5c-2,0 -5,0 -7,0l-14 0 0 8 17 0c0,4 0,7 0,11 0,4 0,7 0,10l-36 0c0,-3 0,-7 0,-10 0,-4 0,-8 0,-11l14 0 0 -13c0,-3 0,-5 0,-7l5 0zm12 38l0 -13 -26 0 0 13 26 0zm-28 9c-3,7 -5,12 -6,14 -1,-1 -3,-2 -4,-3 2,-3 4,-8 5,-14 1,1 3,1 5,2zm34 -1c3,5 5,9 7,13 -1,1 -2,1 -4,3 -1,-3 -3,-8 -6,-13 1,-1 3,-2 4,-3zm-12 15c-1,-3 -3,-7 -5,-12 1,-1 2,-2 4,-3 3,6 5,10 5,12 -1,1 -3,2 -4,3zm-14 0c0,-2 -1,-6 -4,-12 1,-1 3,-1 4,-2 2,6 4,10 4,12 -2,1 -3,1 -5,2z"/>
  <path id="1" class="fil6" d="M5109 6331l0 -5c0,-2 0,-3 0,-6l5 0c0,2 0,4 0,6l0 5 11 0c3,0 5,0 7,0l0 5c-2,0 -4,0 -7,0l-11 0 0 11 17 0c3,0 5,0 7,0l0 5c-2,0 -4,0 -7,0l-17 0 0 21 12 0 0 -11c0,-1 0,-3 0,-5l5 0c0,2 0,4 0,5l0 11c0,3 0,5 0,8l-5 0 0 -4 -33 0c0,-2 0,-4 0,-7l0 -8c0,-1 0,-2 0,-5l5 0c0,2 0,4 0,5l0 10 12 0 0 -21 -16 0c-3,0 -6,0 -8,0l0 -5c2,0 5,0 8,0l16 0 0 -11 -11 0c-3,0 -5,0 -7,0l0 -5c2,0 4,0 7,1l11 0z"/>
  <path id="2" class="fil6" d="M5165 6328c0,-3 0,-6 0,-8l4 0c0,2 0,5 0,8l14 0c2,0 5,0 7,0l0 5c-3,0 -5,0 -7,0l-8 0c2,3 4,5 7,7 3,2 7,4 11,5 -1,1 -2,3 -3,5 -5,-2 -8,-4 -12,-7 -3,-3 -6,-6 -8,-10l-1 0 0 14 14 0c0,3 0,7 0,10 0,4 0,7 0,11l-31 0c0,-3 0,-7 0,-11 0,-4 0,-8 0,-11 -2,1 -4,3 -7,4 -1,-2 -2,-3 -3,-5 3,-1 6,-3 10,-5 3,-3 6,-6 8,-9l-6 0c-3,0 -5,0 -8,0l0 -5c3,0 6,0 8,0l12 0zm19 46c2,0 5,0 7,0l0 5c-6,0 -9,0 -12,0l-28 0c-3,0 -5,0 -8,0l0 -5c3,0 5,0 8,0l32 0zm-5 -10l0 -5 -23 0 0 5 23 0zm0 -9l0 -4 -23 0 0 4 23 0zm-14 -9l0 -14 -1 0c-2,3 -3,6 -5,8 -2,2 -4,4 -7,7l13 0z"/>
  <path id="3" class="fil6" d="M5246 6325c-3,0 -7,0 -10,1 -4,0 -8,1 -12,1 0,2 -1,4 -1,5l12 0c2,0 5,0 8,0l0 4c-3,0 -6,0 -8,0l-13 0c0,2 -1,3 -2,5l19 0c3,0 7,0 10,-1l0 5c-4,0 -7,0 -10,0l-20 0c-1,2 -2,4 -3,5l26 0c0,3 0,6 0,10l0 12c0,3 0,6 0,10l-4 0 0 -4 -23 0 0 4 -4 0c0,-3 0,-6 0,-9l0 -16c-2,3 -6,6 -10,10 -1,-2 -2,-3 -4,-4 3,-2 6,-4 10,-7 3,-3 6,-6 7,-10l-8 0c-3,0 -5,0 -7,0l0 -4c2,0 5,0 7,0l10 0c1,-2 1,-3 2,-5l-6 0c-2,0 -5,0 -7,0l0 -4c2,0 5,0 7,0l7 0c0,-2 1,-3 1,-5 -2,0 -4,0 -7,0 -3,0 -6,0 -9,1 0,-1 -1,-3 -2,-5 4,0 11,0 19,-1 9,-1 16,-2 22,-3 1,2 2,4 3,6zm-7 48l0 -4 -23 0 0 4 23 0zm0 -8l0 -4 -23 0 0 4 23 0zm0 -8l0 -4 -23 0 0 4 23 0z"/>
  <path id="4" class="fil6" d="M5273 6364c4,-2 6,-3 8,-5 2,-2 4,-4 6,-7 -3,0 -5,0 -7,1 -2,0 -4,1 -5,1 -1,-2 -1,-4 -2,-5 1,0 3,-2 4,-4 2,-3 3,-6 5,-9 -5,0 -8,0 -11,0l0 -4c2,0 4,0 7,0l19 0c3,0 5,0 8,0l0 4c-3,0 -6,0 -9,0l-13 0c1,1 2,2 4,3 -1,1 -4,5 -8,11 3,0 6,0 11,-1 2,-4 3,-7 4,-9 1,1 3,2 5,3 -1,1 -2,3 -3,4 -1,2 -2,4 -4,8 -2,3 -4,6 -7,8 -2,2 -5,4 -8,7 -1,-2 -2,-3 -3,-4zm30 -11c-1,1 -2,3 -4,5 -1,2 -3,5 -4,7 5,5 9,9 11,12 -1,1 -3,3 -4,4 -2,-4 -5,-7 -10,-12 -3,3 -5,5 -8,7 -3,2 -6,4 -11,6 -1,-2 -1,-3 -3,-5 4,-1 8,-3 11,-5 3,-2 5,-4 7,-6 2,-2 4,-5 5,-8 2,-3 3,-6 4,-8 1,1 3,2 5,3zm-43 22c1,-1 2,-3 2,-6l0 -23 -2 0c-1,0 -3,0 -5,0l0 -5c2,0 4,0 5,0l6 0c0,3 0,7 0,10l0 18c2,-2 4,-4 5,-6 0,2 1,3 2,5 -2,2 -4,3 -6,5 -2,2 -3,3 -4,5 -1,-2 -2,-3 -3,-4zm5 -40c-2,-5 -5,-8 -6,-11 1,-1 2,-2 4,-3 2,3 4,6 7,11 -1,1 -3,2 -4,3zm18 -13c1,-1 2,-2 4,-3 3,3 4,5 5,7 -1,1 -3,2 -4,3 -2,-3 -3,-6 -5,-7z"/>
  <path id="5" class="fil6" d="M5328 6350c-1,-2 -1,-4 -2,-5 2,0 4,-1 6,-2l0 -6c0,-3 0,-7 0,-11l4 0c0,4 0,7 0,11l0 5 7 -3 0 -11c0,-3 0,-6 0,-9l5 0c0,2 0,5 0,9l0 9c2,-1 6,-2 11,-4 0,2 0,5 0,9l0 10c0,5 -1,7 -2,9 -2,1 -3,2 -6,3 0,-2 -1,-4 -2,-6 3,0 4,-1 5,-1 1,-1 1,-3 1,-6l0 -11c-2,1 -5,2 -7,3l0 18c0,3 0,6 0,8l-5 0c0,-3 0,-6 0,-8l0 -16 -7 3 0 22c0,4 1,5 3,5l14 0c1,0 2,-1 3,-2 0,-1 1,-3 1,-6 1,1 3,2 5,2 -1,4 -2,6 -3,8 -1,1 -3,2 -5,2l-17 0c-3,0 -5,-2 -5,-7l0 -23c-2,1 -3,1 -4,2zm-6 14c2,-1 4,-2 7,-3 0,2 0,4 0,5 -2,1 -5,2 -8,3 -3,1 -6,3 -8,4 0,-2 -1,-4 -2,-6 2,-1 5,-2 7,-3l0 -23c-3,0 -5,0 -7,0l0 -5c2,0 4,0 7,0l0 -8c0,-3 0,-6 0,-9l5 0c0,2 0,5 0,9l0 8c3,0 5,0 6,0l0 5c-2,0 -4,0 -6,0l0 22z"/>
  <path id="6" class="fil6" d="M5416 6327c-2,0 -5,0 -9,0l-33 0 0 49 36 0c3,0 5,0 7,0l0 5c-2,0 -4,0 -7,0l-40 0c0,-4 0,-7 0,-9l0 -40c0,-3 0,-6 0,-8l46 0 0 5zm-31 7c5,4 10,8 13,12 3,-5 6,-9 7,-14 2,1 4,2 6,4 -2,1 -3,3 -4,5 -1,2 -3,5 -5,9 5,5 9,10 12,14 -2,1 -3,3 -4,4 -2,-4 -6,-9 -12,-14 -2,3 -4,6 -7,8 -2,2 -5,5 -8,8 -1,-2 -3,-3 -4,-4 3,-2 6,-3 8,-6 2,-2 5,-6 8,-10 -4,-4 -8,-8 -14,-12 1,-1 2,-3 3,-4z"/>
  <path id="7" class="fil6" d="M5052 6408l0 -12c0,-3 0,-6 0,-8l5 0c0,2 0,5 0,8l0 12 8 0c4,0 7,0 11,0l0 6c-3,0 -7,0 -11,0l-8 0 0 26 14 0c4,0 7,0 10,0l0 6c-3,0 -6,0 -10,0l-33 0c-4,0 -7,0 -9,0l0 -6c2,0 6,0 9,0l14 0 0 -26 -9 0c-4,0 -7,0 -10,1l0 -6c3,0 7,0 10,0l9 0z"/>
  <path id="8" class="fil6" d="M5116 6430c-1,1 -2,2 -3,3l0 8c1,-1 3,-2 4,-4 0,1 1,3 2,4 -4,3 -7,5 -8,7 -1,-2 -2,-3 -3,-4 1,-1 2,-2 2,-4l0 -5c-3,2 -6,5 -10,7 -1,-1 -1,-3 -3,-4 2,-1 4,-2 7,-3 3,-2 5,-3 6,-5 -3,0 -6,0 -8,0l0 -4c2,0 5,0 9,0l0 -3c-2,0 -5,0 -7,0l0 -4c2,0 4,0 7,0l0 -3c-3,0 -6,0 -8,0l0 -4c2,0 5,0 8,0l0 -3 -7 0c0,-2 0,-3 0,-5 0,-2 0,-3 0,-6l13 0c0,2 0,4 0,5 0,1 0,3 0,6l-3 0 0 3 7 0 0 -3 -2 0c0,-2 0,-3 0,-5 0,-2 0,-4 0,-6l13 0c0,2 0,4 0,5 0,2 0,3 0,5l-8 0 0 3c3,0 6,0 8,0l0 4c-2,0 -5,0 -8,0l0 3c2,0 5,0 7,0l0 4c-2,0 -4,0 -7,0l0 3c4,0 7,0 9,0l0 4c-2,0 -4,0 -6,0l-7 0c1,2 2,4 4,7 1,-2 2,-4 3,-6 1,1 2,2 4,3 -1,1 -1,2 -2,3 -1,1 -1,2 -2,3 2,2 5,3 9,4 -1,1 -2,2 -3,5 -5,-2 -8,-4 -10,-7 -2,-3 -4,-6 -6,-9 1,-1 2,-1 3,-2l-5 0zm-20 -26c1,0 3,0 5,0l0 4c-2,0 -4,0 -5,0l0 19c2,-1 3,-2 4,-3 0,1 0,3 0,4 -1,1 -3,2 -6,3 -3,1 -5,3 -7,4 -1,-2 -2,-3 -2,-4 2,-1 4,-1 7,-3l0 -21c-2,0 -4,0 -6,0l0 -4c2,0 4,0 6,0l0 -7c0,-2 0,-4 0,-7l4 0c0,3 0,5 0,7l0 7zm24 -17c1,2 1,4 2,6l7 0c2,0 5,0 7,0l0 4c-2,0 -4,0 -7,0l-18 0c-2,0 -5,0 -8,0l0 -4c3,0 5,0 8,0l7 0c0,-2 -1,-3 -1,-5 1,0 2,0 4,-1zm2 40l0 -3 -7 0 0 3 7 0zm0 -7l0 -3 -7 0 0 3 7 0zm-8 -13l0 -3 -5 0 0 3 5 0zm16 0l0 -3 -5 0 0 3 5 0z"/>
  <path id="9" class="fil6" d="M5142 6424c3,-2 7,-6 10,-10 3,-4 6,-9 9,-15l-8 0c-2,0 -5,0 -8,0l0 -5c4,0 7,0 9,0l8 0c1,-4 2,-7 2,-9 2,1 4,1 5,2 0,1 -1,3 -2,8l18 0c2,0 5,0 8,0l0 5c-3,0 -5,0 -7,0l-20 0c-1,2 -2,5 -3,7l25 0c0,4 0,8 0,12l0 21c0,2 -1,4 -2,5 -1,1 -4,2 -7,2 0,-2 -1,-4 -2,-6 2,0 4,0 5,0 1,0 2,-1 2,-3l0 -5 -23 0 0 14 -5 0c0,-4 0,-8 0,-11l0 -19c-3,4 -6,8 -10,11 -1,-1 -2,-3 -4,-4zm41 -6l0 -7 -23 0 0 7 23 0zm0 11l0 -7 -23 0 0 7 23 0z"/>
  <path id="10" class="fil6" d="M5240 6391c0,5 0,9 0,13l0 34c0,2 0,4 1,4 1,0 2,0 2,0 1,0 1,-1 1,-2 0,-1 0,-3 0,-5 1,1 3,2 5,2 -1,4 -1,6 -2,7 -1,1 -2,2 -3,2l-5 0c-2,0 -3,0 -4,-1 -1,-1 -1,-3 -1,-6l0 -43 -8 0c0,10 0,18 0,23 0,6 -1,11 -2,15 -1,4 -3,9 -6,14 -1,-1 -2,-2 -4,-4 2,-2 4,-4 5,-7 1,-3 2,-6 3,-9 0,-3 1,-6 1,-9 0,-3 0,-8 0,-13 0,-5 0,-10 0,-14l17 0zm-26 22c2,4 4,7 5,9 -1,1 -2,2 -4,3 -1,-2 -2,-5 -5,-9l0 19c0,4 0,7 0,12l-5 0c0,-4 0,-8 0,-12l0 -17c-1,3 -2,5 -2,7 -1,2 -2,5 -4,8 -1,-2 -2,-3 -4,-4 1,-2 3,-5 5,-9 2,-5 3,-10 4,-15l-1 0c-2,0 -4,0 -6,1l0 -5c2,0 4,0 6,0l2 0 0 -5c0,-3 0,-5 0,-8l5 0c0,2 0,4 0,8l0 5 2 0c2,0 3,0 5,0l0 5c-3,0 -6,0 -8,0l0 10c1,-1 2,-2 3,-3z"/>
  <path id="11" class="fil6" d="M5267 6402c2,0 5,0 7,0l7 0 0 -7c-9,1 -14,1 -16,1l0 6c0,8 0,14 0,18 0,4 -1,8 -1,12 -1,4 -2,8 -5,14 -1,-1 -3,-2 -5,-2 2,-4 4,-7 5,-11 1,-4 1,-9 2,-15 0,-6 0,-11 0,-15 0,-4 0,-7 0,-10 4,0 8,0 12,0 4,0 8,-1 13,-1 5,-1 9,-2 12,-3 0,2 1,4 3,6 -2,0 -4,0 -6,0 -2,0 -5,1 -9,1l0 7 11 0c2,0 4,0 7,0l0 5c-2,0 -4,0 -7,0l-11 0 0 7 14 0c0,3 0,6 0,9 0,3 0,6 0,9l-5 0 0 -14 -20 0 0 15 -4 0c0,-3 0,-7 0,-10 0,-3 0,-6 0,-9l12 0 0 -7 -7 0c-2,0 -5,0 -7,0l0 -5zm20 20c-1,3 -1,6 -1,9 0,3 -2,7 -5,9 -3,3 -7,5 -12,7 0,-1 -1,-3 -3,-4 4,-1 7,-3 10,-4 2,-2 4,-3 5,-6 1,-2 2,-5 2,-7 0,-2 0,-4 0,-6 2,0 3,0 5,1zm2 10c2,1 5,3 8,5 3,2 5,4 8,6 -1,1 -2,2 -3,4 -3,-3 -8,-7 -15,-10 1,-2 2,-3 2,-4z"/>
  <path id="12" class="fil6" d="M5348 6447l0 -4 -24 0 0 4 -5 0c0,-2 0,-6 0,-9 0,-4 0,-8 0,-12l33 0c0,2 0,6 0,11 0,5 0,9 0,10l-5 0zm-10 -57c2,2 4,5 9,8 4,3 9,6 16,8 -2,2 -3,4 -4,6 -4,-2 -8,-4 -12,-7 -4,-3 -8,-7 -11,-11 -4,5 -7,9 -11,12 -3,3 -7,5 -11,8 0,-1 -1,-3 -3,-5 5,-2 9,-4 14,-9 4,-4 8,-9 10,-14 2,1 4,2 5,2l-2 2zm10 49l0 -9 -24 0 0 9 24 0zm2 -28c-1,2 -3,4 -5,7 -2,3 -4,5 -5,7 -1,-1 -2,-2 -3,-3 2,-2 3,-5 5,-8l-17 0c-1,0 -3,0 -5,0l0 -4c2,0 4,0 5,0l25 0zm-15 -11c2,4 3,6 4,7 -1,0 -2,1 -4,2 -1,-3 -2,-6 -3,-7 1,-1 3,-1 3,-2z"/>
  <path id="13" class="fil6" d="M5410 6415c0,2 0,5 0,8 0,3 0,6 0,8l-16 0 0 3 10 0c2,0 5,0 7,0l0 4c-2,0 -4,0 -7,0l-10 0 0 4 15 0c2,0 5,0 7,0l0 4c-2,0 -5,0 -7,0l-34 0c-2,0 -5,0 -7,0l0 -4c3,0 5,0 7,0l15 0 0 -4 -11 0c-2,0 -4,0 -7,1l0 -4c2,0 5,0 7,0l11 0 0 -3 -16 0c0,-3 0,-6 0,-9 0,-3 0,-5 0,-8l36 0zm0 -26c0,3 0,5 0,7 0,2 0,5 0,9l-35 0c0,-4 0,-7 0,-9 0,-2 0,-5 0,-7l35 0zm-3 19c4,0 7,0 10,-1l0 4c-3,0 -6,0 -9,0l-29 0c-4,0 -8,0 -12,0l0 -4c4,0 8,0 12,1l29 0zm-2 -6l0 -3 -27 0 0 3 27 0zm0 -7l0 -3 -27 0 0 3 27 0zm0 26l0 -3 -12 0 0 3 12 0zm-16 0l0 -3 -12 0 0 3 12 0zm0 6l0 -3 -12 0 0 3 12 0zm16 0l0 -3 -12 0 0 3 12 0z"/>
  <rect id="close2"   onclick="closeinfotip(2)" class="fil5 str5" x="5452" y="6317" width="53.7807" height="53.7815" rx="8" ry="8"/>
  <line class="fil2 str4" x1="5495" y1="6328" x2="5463" y2= "6359" />
  <line class="fil2 str4" x1="5463" y1="6328" x2="5495" y2= "6359" />
 </g>
 <g id="infotip3">
  <metadata id="CorelCorpID_8Corel-Layer"/>
  <path class="fil5 str4" d="M5877 5539c0,0 0,24 13,23 14,0 505,0 505,0 0,0 11,1 11,-25 0,-26 0,-112 0,-112 0,0 1,-16 -19,-16 -20,0 -235,0 -235,0l-32 -51 0 50 -102 0 -127 0c0,0 -13,2 -13,19 0,17 0,111 0,111z"/>
  <path class="fil6" d="M5937 5421c0,2 0,5 0,9l14 0c2,0 5,0 7,0l0 5c-2,0 -5,0 -7,0l-14 0 0 8 17 0c0,4 0,7 0,11 0,4 0,7 0,10l-36 0c0,-3 0,-7 0,-10 0,-4 0,-8 0,-11l14 0 0 -13c0,-3 0,-5 0,-7l5 0zm12 38l0 -13 -26 0 0 13 26 0zm-28 9c-3,7 -5,12 -6,14 -1,-1 -3,-2 -4,-3 2,-3 4,-8 5,-14 1,1 3,1 5,2zm34 -1c3,5 5,9 7,13 -1,1 -2,1 -4,3 -1,-3 -3,-8 -6,-13 1,-1 3,-2 4,-3zm-12 15c-1,-3 -3,-7 -5,-12 1,-1 2,-2 4,-3 3,6 5,10 5,12 -1,1 -3,2 -4,3zm-14 0c0,-2 -1,-6 -4,-12 1,-1 3,-1 4,-2 2,6 4,10 4,12 -2,1 -3,1 -5,2z"/>
  <path id="1" class="fil6" d="M5990 5432l0 -5c0,-2 0,-3 0,-6l5 0c0,2 0,4 0,6l0 5 11 0c3,0 5,0 7,0l0 5c-2,0 -4,0 -7,0l-11 0 0 11 17 0c3,0 5,0 7,0l0 5c-2,0 -4,0 -7,0l-17 0 0 21 12 0 0 -11c0,-1 0,-3 0,-5l5 0c0,2 0,4 0,5l0 11c0,3 0,5 0,8l-5 0 0 -4 -33 0c0,-2 0,-4 0,-7l0 -8c0,-1 0,-2 0,-5l5 0c0,2 0,4 0,5l0 10 12 0 0 -21 -16 0c-3,0 -6,0 -8,0l0 -5c2,0 5,0 8,0l16 0 0 -11 -11 0c-3,0 -5,0 -7,0l0 -5c2,0 4,0 7,1l11 0z"/>
  <path id="2" class="fil6" d="M6046 5429c0,-3 0,-6 0,-8l4 0c0,2 0,5 0,8l14 0c2,0 5,0 7,0l0 5c-3,0 -5,0 -7,0l-8 0c2,3 4,5 7,7 3,2 7,4 11,5 -1,1 -2,3 -3,5 -5,-2 -8,-4 -12,-7 -3,-3 -6,-6 -8,-10l-1 0 0 14 14 0c0,3 0,7 0,10 0,4 0,7 0,11l-31 0c0,-3 0,-7 0,-11 0,-4 0,-8 0,-11 -2,1 -4,3 -7,4 -1,-2 -2,-3 -3,-5 3,-1 6,-3 10,-5 3,-3 6,-6 8,-9l-6 0c-3,0 -5,0 -8,0l0 -5c3,0 6,0 8,0l12 0zm19 46c2,0 5,0 7,0l0 5c-6,0 -9,0 -12,0l-28 0c-3,0 -5,0 -8,0l0 -5c3,0 5,0 8,0l32 0zm-5 -10l0 -5 -23 0 0 5 23 0zm0 -9l0 -4 -23 0 0 4 23 0zm-14 -9l0 -14 -1 0c-2,3 -3,6 -5,8 -2,2 -4,4 -7,7l13 0z"/>
  <path id="3" class="fil6" d="M6127 5426c-3,0 -7,0 -10,1 -4,0 -8,1 -12,1 0,2 -1,4 -1,5l12 0c2,0 5,0 8,0l0 4c-3,0 -6,0 -8,0l-13 0c0,2 -1,3 -2,5l19 0c3,0 7,0 10,-1l0 5c-4,0 -7,0 -10,0l-20 0c-1,2 -2,4 -3,5l26 0c0,3 0,6 0,10l0 12c0,3 0,6 0,10l-4 0 0 -4 -23 0 0 4 -4 0c0,-3 0,-6 0,-9l0 -16c-2,3 -6,6 -10,10 -1,-2 -2,-3 -4,-4 3,-2 6,-4 10,-7 3,-3 6,-6 7,-10l-8 0c-3,0 -5,0 -7,0l0 -4c2,0 5,0 7,0l10 0c1,-2 1,-3 2,-5l-6 0c-2,0 -5,0 -7,0l0 -4c2,0 5,0 7,0l7 0c0,-2 1,-3 1,-5 -2,0 -4,0 -7,0 -3,0 -6,0 -9,1 0,-1 -1,-3 -2,-5 4,0 11,0 19,-1 9,-1 16,-2 22,-3 1,2 2,4 3,6zm-7 48l0 -4 -23 0 0 4 23 0zm0 -8l0 -4 -23 0 0 4 23 0zm0 -8l0 -4 -23 0 0 4 23 0z"/>
  <path id="4" class="fil6" d="M6154 5465c4,-2 6,-3 8,-5 2,-2 4,-4 6,-7 -3,0 -5,0 -7,1 -2,0 -4,1 -5,1 -1,-2 -1,-4 -2,-5 1,0 3,-2 4,-4 2,-3 3,-6 5,-9 -5,0 -8,0 -11,0l0 -4c2,0 4,0 7,0l19 0c3,0 5,0 8,0l0 4c-3,0 -6,0 -9,0l-13 0c1,1 2,2 4,3 -1,1 -4,5 -8,11 3,0 6,0 11,-1 2,-4 3,-7 4,-9 1,1 3,2 5,3 -1,1 -2,3 -3,4 -1,2 -2,4 -4,8 -2,3 -4,6 -7,8 -2,2 -5,4 -8,7 -1,-2 -2,-3 -3,-4zm30 -11c-1,1 -2,3 -4,5 -1,2 -3,5 -4,7 5,5 9,9 11,12 -1,1 -3,3 -4,4 -2,-4 -5,-7 -10,-12 -3,3 -5,5 -8,7 -3,2 -6,4 -11,6 -1,-2 -1,-3 -3,-5 4,-1 8,-3 11,-5 3,-2 5,-4 7,-6 2,-2 4,-5 5,-8 2,-3 3,-6 4,-8 1,1 3,2 5,3zm-43 22c1,-1 2,-3 2,-6l0 -23 -2 0c-1,0 -3,0 -5,0l0 -5c2,0 4,0 5,0l6 0c0,3 0,7 0,10l0 18c2,-2 4,-4 5,-6 0,2 1,3 2,5 -2,2 -4,3 -6,5 -2,2 -3,3 -4,5 -1,-2 -2,-3 -3,-4zm5 -40c-2,-5 -5,-8 -6,-11 1,-1 2,-2 4,-3 2,3 4,6 7,11 -1,1 -3,2 -4,3zm18 -13c1,-1 2,-2 4,-3 3,3 4,5 5,7 -1,1 -3,2 -4,3 -2,-3 -3,-6 -5,-7z"/>
  <path id="5" class="fil6" d="M6209 5451c-1,-2 -1,-4 -2,-5 2,0 4,-1 6,-2l0 -6c0,-3 0,-7 0,-11l4 0c0,4 0,7 0,11l0 5 7 -3 0 -11c0,-3 0,-6 0,-9l5 0c0,2 0,5 0,9l0 9c2,-1 6,-2 11,-4 0,2 0,5 0,9l0 10c0,5 -1,7 -2,9 -2,1 -3,2 -6,3 0,-2 -1,-4 -2,-6 3,0 4,-1 5,-1 1,-1 1,-3 1,-6l0 -11c-2,1 -5,2 -7,3l0 18c0,3 0,6 0,8l-5 0c0,-3 0,-6 0,-8l0 -16 -7 3 0 22c0,4 1,5 3,5l14 0c1,0 2,-1 3,-2 0,-1 1,-3 1,-6 1,1 3,2 5,2 -1,4 -2,6 -3,8 -1,1 -3,2 -5,2l-17 0c-3,0 -5,-2 -5,-7l0 -23c-2,1 -3,1 -4,2zm-6 14c2,-1 4,-2 7,-3 0,2 0,4 0,5 -2,1 -5,2 -8,3 -3,1 -6,3 -8,4 0,-2 -1,-4 -2,-6 2,-1 5,-2 7,-3l0 -23c-3,0 -5,0 -7,0l0 -5c2,0 4,0 7,0l0 -8c0,-3 0,-6 0,-9l5 0c0,2 0,5 0,9l0 8c3,0 5,0 6,0l0 5c-2,0 -4,0 -6,0l0 22z"/>
  <path id="6" class="fil6" d="M6297 5428c-2,0 -5,0 -9,0l-33 0 0 49 36 0c3,0 5,0 7,0l0 5c-2,0 -4,0 -7,0l-40 0c0,-4 0,-7 0,-9l0 -40c0,-3 0,-6 0,-8l46 0 0 5zm-31 7c5,4 10,8 13,12 3,-5 6,-9 7,-14 2,1 4,2 6,4 -2,1 -3,3 -4,5 -1,2 -3,5 -5,9 5,5 9,10 12,14 -2,1 -3,3 -4,4 -2,-4 -6,-9 -12,-14 -2,3 -4,6 -7,8 -2,2 -5,5 -8,8 -1,-2 -3,-3 -4,-4 3,-2 6,-3 8,-6 2,-2 5,-6 8,-10 -4,-4 -8,-8 -14,-12 1,-1 2,-3 3,-4z"/>
  <path id="7" class="fil6" d="M5933 5509l0 -12c0,-3 0,-6 0,-8l5 0c0,2 0,5 0,8l0 12 8 0c4,0 7,0 11,0l0 6c-3,0 -7,0 -11,0l-8 0 0 26 14 0c4,0 7,0 10,0l0 6c-3,0 -6,0 -10,0l-33 0c-4,0 -7,0 -9,0l0 -6c2,0 6,0 9,0l14 0 0 -26 -9 0c-4,0 -7,0 -10,1l0 -6c3,0 7,0 10,0l9 0z"/>
  <path id="8" class="fil6" d="M5997 5531c-1,1 -2,2 -3,3l0 8c1,-1 3,-2 4,-4 0,1 1,3 2,4 -4,3 -7,5 -8,7 -1,-2 -2,-3 -3,-4 1,-1 2,-2 2,-4l0 -5c-3,2 -6,5 -10,7 -1,-1 -1,-3 -3,-4 2,-1 4,-2 7,-3 3,-2 5,-3 6,-5 -3,0 -6,0 -8,0l0 -4c2,0 5,0 9,0l0 -3c-2,0 -5,0 -7,0l0 -4c2,0 4,0 7,0l0 -3c-3,0 -6,0 -8,0l0 -4c2,0 5,0 8,0l0 -3 -7 0c0,-2 0,-3 0,-5 0,-2 0,-3 0,-6l13 0c0,2 0,4 0,5 0,1 0,3 0,6l-3 0 0 3 7 0 0 -3 -2 0c0,-2 0,-3 0,-5 0,-2 0,-4 0,-6l13 0c0,2 0,4 0,5 0,2 0,3 0,5l-8 0 0 3c3,0 6,0 8,0l0 4c-2,0 -5,0 -8,0l0 3c2,0 5,0 7,0l0 4c-2,0 -4,0 -7,0l0 3c4,0 7,0 9,0l0 4c-2,0 -4,0 -6,0l-7 0c1,2 2,4 4,7 1,-2 2,-4 3,-6 1,1 2,2 4,3 -1,1 -1,2 -2,3 -1,1 -1,2 -2,3 2,2 5,3 9,4 -1,1 -2,2 -3,5 -5,-2 -8,-4 -10,-7 -2,-3 -4,-6 -6,-9 1,-1 2,-1 3,-2l-5 0zm-20 -26c1,0 3,0 5,0l0 4c-2,0 -4,0 -5,0l0 19c2,-1 3,-2 4,-3 0,1 0,3 0,4 -1,1 -3,2 -6,3 -3,1 -5,3 -7,4 -1,-2 -2,-3 -2,-4 2,-1 4,-1 7,-3l0 -21c-2,0 -4,0 -6,0l0 -4c2,0 4,0 6,0l0 -7c0,-2 0,-4 0,-7l4 0c0,3 0,5 0,7l0 7zm24 -17c1,2 1,4 2,6l7 0c2,0 5,0 7,0l0 4c-2,0 -4,0 -7,0l-18 0c-2,0 -5,0 -8,0l0 -4c3,0 5,0 8,0l7 0c0,-2 -1,-3 -1,-5 1,0 2,0 4,-1zm2 40l0 -3 -7 0 0 3 7 0zm0 -7l0 -3 -7 0 0 3 7 0zm-8 -13l0 -3 -5 0 0 3 5 0zm16 0l0 -3 -5 0 0 3 5 0z"/>
  <path id="9" class="fil6" d="M6023 5525c3,-2 7,-6 10,-10 3,-4 6,-9 9,-15l-8 0c-2,0 -5,0 -8,0l0 -5c4,0 7,0 9,0l8 0c1,-4 2,-7 2,-9 2,1 4,1 5,2 0,1 -1,3 -2,8l18 0c2,0 5,0 8,0l0 5c-3,0 -5,0 -7,0l-20 0c-1,2 -2,5 -3,7l25 0c0,4 0,8 0,12l0 21c0,2 -1,4 -2,5 -1,1 -4,2 -7,2 0,-2 -1,-4 -2,-6 2,0 4,0 5,0 1,0 2,-1 2,-3l0 -5 -23 0 0 14 -5 0c0,-4 0,-8 0,-11l0 -19c-3,4 -6,8 -10,11 -1,-1 -2,-3 -4,-4zm41 -6l0 -7 -23 0 0 7 23 0zm0 11l0 -7 -23 0 0 7 23 0z"/>
  <path id="10" class="fil6" d="M6122 5492c0,5 0,9 0,13l0 34c0,2 0,4 1,4 1,0 2,0 2,0 1,0 1,-1 1,-2 0,-1 0,-3 0,-5 1,1 3,2 5,2 -1,4 -1,6 -2,7 -1,1 -2,2 -3,2l-5 0c-2,0 -3,0 -4,-1 -1,-1 -1,-3 -1,-6l0 -43 -8 0c0,10 0,18 0,23 0,6 -1,11 -2,15 -1,4 -3,9 -6,14 -1,-1 -2,-2 -4,-4 2,-2 4,-4 5,-7 1,-3 2,-6 3,-9 0,-3 1,-6 1,-9 0,-3 0,-8 0,-13 0,-5 0,-10 0,-14l17 0zm-26 22c2,4 4,7 5,9 -1,1 -2,2 -4,3 -1,-2 -2,-5 -5,-9l0 19c0,4 0,7 0,12l-5 0c0,-4 0,-8 0,-12l0 -17c-1,3 -2,5 -2,7 -1,2 -2,5 -4,8 -1,-2 -2,-3 -4,-4 1,-2 3,-5 5,-9 2,-5 3,-10 4,-15l-1 0c-2,0 -4,0 -6,1l0 -5c2,0 4,0 6,0l2 0 0 -5c0,-3 0,-5 0,-8l5 0c0,2 0,4 0,8l0 5 2 0c2,0 3,0 5,0l0 5c-3,0 -6,0 -8,0l0 10c1,-1 2,-2 3,-3z"/>
  <path id="11" class="fil6" d="M6148 5504c2,0 5,0 7,0l7 0 0 -7c-9,1 -14,1 -16,1l0 6c0,8 0,14 0,18 0,4 -1,8 -1,12 -1,4 -2,8 -5,14 -1,-1 -3,-2 -5,-2 2,-4 4,-7 5,-11 1,-4 1,-9 2,-15 0,-6 0,-11 0,-15 0,-4 0,-7 0,-10 4,0 8,0 12,0 4,0 8,-1 13,-1 5,-1 9,-2 12,-3 0,2 1,4 3,6 -2,0 -4,0 -6,0 -2,0 -5,1 -9,1l0 7 11 0c2,0 4,0 7,0l0 5c-2,0 -4,0 -7,0l-11 0 0 7 14 0c0,3 0,6 0,9 0,3 0,6 0,9l-5 0 0 -14 -20 0 0 15 -4 0c0,-3 0,-7 0,-10 0,-3 0,-6 0,-9l12 0 0 -7 -7 0c-2,0 -5,0 -7,0l0 -5zm20 20c-1,3 -1,6 -1,9 0,3 -2,7 -5,9 -3,3 -7,5 -12,7 0,-1 -1,-3 -3,-4 4,-1 7,-3 10,-4 2,-2 4,-3 5,-6 1,-2 2,-5 2,-7 0,-2 0,-4 0,-6 2,0 3,0 5,1zm2 10c2,1 5,3 8,5 3,2 5,4 8,6 -1,1 -2,2 -3,4 -3,-3 -8,-7 -15,-10 1,-2 2,-3 2,-4z"/>
  <path id="12" class="fil6" d="M6229 5548l0 -4 -24 0 0 4 -5 0c0,-2 0,-6 0,-9 0,-4 0,-8 0,-12l33 0c0,2 0,6 0,11 0,5 0,9 0,10l-5 0zm-10 -57c2,2 4,5 9,8 4,3 9,6 16,8 -2,2 -3,4 -4,6 -4,-2 -8,-4 -12,-7 -4,-3 -8,-7 -11,-11 -4,5 -7,9 -11,12 -3,3 -7,5 -11,8 0,-1 -1,-3 -3,-5 5,-2 9,-4 14,-9 4,-4 8,-9 10,-14 2,1 4,2 5,2l-2 2zm10 49l0 -9 -24 0 0 9 24 0zm2 -28c-1,2 -3,4 -5,7 -2,3 -4,5 -5,7 -1,-1 -2,-2 -3,-3 2,-2 3,-5 5,-8l-17 0c-1,0 -3,0 -5,0l0 -4c2,0 4,0 5,0l25 0zm-15 -11c2,4 3,6 4,7 -1,0 -2,1 -4,2 -1,-3 -2,-6 -3,-7 1,-1 3,-1 3,-2z"/>
  <path id="13" class="fil6" d="M6292 5516c0,2 0,5 0,8 0,3 0,6 0,8l-16 0 0 3 10 0c2,0 5,0 7,0l0 4c-2,0 -4,0 -7,0l-10 0 0 4 15 0c2,0 5,0 7,0l0 4c-2,0 -5,0 -7,0l-34 0c-2,0 -5,0 -7,0l0 -4c3,0 5,0 7,0l15 0 0 -4 -11 0c-2,0 -4,0 -7,1l0 -4c2,0 5,0 7,0l11 0 0 -3 -16 0c0,-3 0,-6 0,-9 0,-3 0,-5 0,-8l36 0zm0 -26c0,3 0,5 0,7 0,2 0,5 0,9l-35 0c0,-4 0,-7 0,-9 0,-2 0,-5 0,-7l35 0zm-3 19c4,0 7,0 10,-1l0 4c-3,0 -6,0 -9,0l-29 0c-4,0 -8,0 -12,0l0 -4c4,0 8,0 12,1l29 0zm-2 -6l0 -3 -27 0 0 3 27 0zm0 -7l0 -3 -27 0 0 3 27 0zm0 26l0 -3 -12 0 0 3 12 0zm-16 0l0 -3 -12 0 0 3 12 0zm0 6l0 -3 -12 0 0 3 12 0zm16 0l0 -3 -12 0 0 3 12 0z"/>
  <rect id="close3"   onclick="closeinfotip(3)" class="fil5 str5" x="6333" y="5419" width="53.7807" height="53.7815" rx="8" ry="8"/>
  <line class="fil2 str4" x1="6376" y1="5429" x2="6344" y2= "5461" />
  <line class="fil2 str4" x1="6344" y1="5429" x2="6376" y2= "5461" />
 </g>
 </g>
</svg>
