<?xml version="1.0" encoding="UTF-8"?>
<!DOCTYPE svg PUBLIC "-//W3C//DTD SVG 1.1//EN" "http://www.w3.org/Graphics/SVG/1.1/DTD/svg11.dtd">
<!-- Creator: CorelDRAW X6 -->
<svg xmlns="http://www.w3.org/2000/svg" xml:space="preserve" width="1000px" height="590px" version="1.1" style="shape-rendering:geometricPrecision; text-rendering:geometricPrecision; image-rendering:optimizeQuality; fill-rule:evenodd; clip-rule:evenodd"
viewBox="0 0 100000 59000"
 xmlns:xlink="http://www.w3.org/1999/xlink">
 <defs>
  <style type="text/css">
   <![CDATA[
    .str3 {stroke:#332C2B;stroke-width:38.1}
    .str5 {stroke:#00A2E9;stroke-width:40;stroke-linejoin:round}
    .str0 {stroke:#332C2B;stroke-width:50}
    .str9 {stroke:#B6B6B7;stroke-width:50}
    .str1 {stroke:#332C2B;stroke-width:50;stroke-linejoin:round}
    .str2 {stroke:#6D583D;stroke-width:50;stroke-linejoin:round}
    .str4 {stroke:#823520;stroke-width:50;stroke-linejoin:round}
    .str6 {stroke:#332C2B;stroke-width:60}
    .str8 {stroke:#B6B6B7;stroke-width:60}
    .str10 {stroke:#332C2B;stroke-width:75}
    .str7 {stroke:#FEFEFE;stroke-width:2000}
    .fil1 {fill:none}
    .fil3 {fill:#332C2B}
    .fil2 {fill:#FEFEFE}
    .fil5 {fill:#00A2E9}
    .fil0 {fill:#6D583D}
    .fil4 {fill:#823520}
    .fil6 {fill:#D5C296}
    .fil8 {fill:#E5ECF0}
    .fil7 {fill:#E6E4C7}
    .fil9 {fill:#EFEDDF}
    .fil10 {fill:#FFFCDB}
    .fnt7 {font-weight:normal;font-size:970.15px;font-family:'Times New Roman'}
    .fnt4 {font-weight:normal;font-size:1000px;font-family:'Times New Roman'}
    .fnt2 {font-weight:normal;font-size:1058.35px;font-family:'Times New Roman'}
    .fnt3 {font-weight:normal;font-size:1058.35px;font-family:'宋体'}
    .fnt1 {font-weight:normal;font-size:1234.7px;font-family:'方正书宋简体'}
    .fnt0 {font-weight:normal;font-size:1322.9px;font-family:'黑体'}
    .fnt6 {font-weight:normal;font-size:1411.1px;font-family:'Arial'}
    .fnt5 {font-weight:normal;font-size:1763.9px;font-family:'方正准圆简体'}
   ]]>
  </style>
 </defs>
<symbol id="符号45" viewBox="49800 29200 400 600">
 <polygon class="fil0" points="49805,29800 49997,29200 50200,29800 49800,29800 "/>
</symbol>
<symbol id="符号43" viewBox="49682 29182 635 635">
 <line class="fil1 str0" x1="49700" y1="29200" x2="50300" y2= "29800" />
 <line class="fil1 str0" x1="49700" y1="29800" x2="50300" y2= "29200" />
</symbol>
<symbol id="符号40" viewBox="49675 29175 650 650">
 <path class="fil2 str1" d="M50300 29500c0,-166 -134,-300 -300,-300 -166,0 -300,134 -300,300 0,166 134,300 300,300 166,0 300,-134 300,-300z"/>
</symbol>
<symbol id="符号31" viewBox="49682 29182 635 635">
 <line class="fil1 str0" x1="49700" y1="29200" x2="50300" y2= "29800" />
 <line class="fil1 str0" x1="49700" y1="29800" x2="50300" y2= "29200" />
</symbol>
<symbol id="符号21" viewBox="49675 29175 650 650">
 <path class="fil2 str1" d="M50300 29500c0,-166 -134,-300 -300,-300 -166,0 -300,134 -300,300 0,166 134,300 300,300 166,0 300,-134 300,-300z"/>
</symbol>
<symbol id="符号39" viewBox="49800 29200 400 600">
 <polygon class="fil0" points="49805,29800 49997,29200 50200,29800 49800,29800 "/>
</symbol>
<symbol id="符号38" viewBox="49900 29400 200 200">
 <path class="fil0 str2" d="M50075 29500c0,-41 -34,-75 -75,-75 -42,0 -75,34 -75,75 0,41 34,75 75,75 41,0 75,-34 75,-75z"/>
</symbol>
<symbol id="符号41" viewBox="49681 29181 638 638">
 <circle class="fil2 str3" cx="50000" cy="29500" r="300"/>
 <circle class="fil1 str3" cx="50000" cy="29500" r="113"/>
</symbol>
<symbol id="符号12" viewBox="49675 29175 650 650">
 <path class="fil2 str1" d="M50300 29500c0,-166 -134,-300 -300,-300 -166,0 -300,134 -300,300 0,166 134,300 300,300 166,0 300,-134 300,-300z"/>
</symbol>
<symbol id="符号9" viewBox="49681 29181 638 638">
 <circle class="fil2 str3" cx="50000" cy="29500" r="300"/>
 <circle class="fil1 str3" cx="50000" cy="29500" r="112"/>
</symbol>
<symbol id="符号7" viewBox="49431 28931 1138 1138">
 <circle class="fil2 str3" cx="50000" cy="29500" r="550"/>
 <circle class="fil3 str3" cx="50000" cy="29500" r="325"/>
</symbol>
<symbol id="符号33" viewBox="49800 29200 400 600">
 <polygon class="fil0" points="49805,29800 49997,29200 50200,29800 49800,29800 "/>
</symbol>
<symbol id="符号23" viewBox="49431 28931 1138 1138">
 <circle class="fil2 str3" cx="50000" cy="29500" r="550"/>
 <circle class="fil3 str3" cx="50000" cy="29500" r="325"/>
</symbol>
<symbol id="符号1" viewBox="49800 29200 400 600">
 <polygon class="fil4" points="49805,29800 49997,29200 50200,29800 49800,29800 "/>
</symbol>
<symbol id="符号11" viewBox="49431 28931 1138 1138">
 <circle class="fil2 str3" cx="50000" cy="29500" r="550"/>
 <circle class="fil3 str3" cx="50000" cy="29500" r="325"/>
</symbol>
<symbol id="符号34" viewBox="49775 29275 450 450">
 <path class="fil2 str1" d="M50200 29500c0,-110 -90,-200 -200,-200 -110,0 -200,90 -200,200 0,111 90,200 200,200 110,0 200,-89 200,-200z"/>
 <circle class="fil3" cx="50000" cy="29500" r="75"/>
</symbol>
<symbol id="符号16" viewBox="49431 28931 1138 1138">
 <circle class="fil2 str3" cx="50000" cy="29500" r="550"/>
 <circle class="fil3 str3" cx="50000" cy="29500" r="325"/>
</symbol>
<symbol id="符号10" viewBox="49431 28931 1138 1138">
 <circle class="fil2 str3" cx="50000" cy="29500" r="550"/>
 <circle class="fil3 str3" cx="50000" cy="29500" r="325"/>
</symbol>
<symbol id="符号3" viewBox="49682 29182 635 635">
 <rect class="fil2" x="49700" y="29200" width="600" height="600"/>
 <line class="fil1 str0" x1="49700" y1="29200" x2="50300" y2= "29800" />
 <line class="fil1 str0" x1="49700" y1="29800" x2="50300" y2= "29200" />
</symbol>
<symbol id="符号24" viewBox="49682 29182 635 635">
 <line class="fil1 str0" x1="49700" y1="29200" x2="50300" y2= "29800" />
 <line class="fil1 str0" x1="49700" y1="29800" x2="50300" y2= "29200" />
</symbol>
<symbol id="符号44" viewBox="49900 29400 200 200">
 <path class="fil0 str2" d="M50075 29500c0,-41 -34,-75 -75,-75 -42,0 -75,34 -75,75 0,41 34,75 75,75 41,0 75,-34 75,-75z"/>
</symbol>
<symbol id="符号8" viewBox="49675 29175 650 650">
 <path class="fil2 str1" d="M50300 29500c0,-166 -134,-300 -300,-300 -166,0 -300,134 -300,300 0,166 134,300 300,300 166,0 300,-134 300,-300z"/>
</symbol>
<symbol id="符号2" viewBox="49900 29400 200 200">
 <path class="fil4 str4" d="M50075 29500c0,-41 -34,-75 -75,-75 -42,0 -75,34 -75,75 0,41 34,75 75,75 41,0 75,-34 75,-75z"/>
</symbol>
<symbol id="符号14" viewBox="49675 29175 650 650">
 <path class="fil2 str1" d="M50300 29500c0,-166 -134,-300 -300,-300 -166,0 -300,134 -300,300 0,166 134,300 300,300 166,0 300,-134 300,-300z"/>
</symbol>
<symbol id="符号37" viewBox="49682 29182 635 635">
 <line class="fil1 str0" x1="49700" y1="29200" x2="50300" y2= "29800" />
 <line class="fil1 str0" x1="49700" y1="29800" x2="50300" y2= "29200" />
</symbol>
<symbol id="符号36" viewBox="49431 28931 1138 1138">
 <circle class="fil2 str3" cx="50000" cy="29500" r="550"/>
 <circle class="fil3 str3" cx="50000" cy="29500" r="325"/>
</symbol>
<symbol id="符号42" viewBox="49431 28931 1138 1138">
 <circle class="fil2 str3" cx="50000" cy="29500" r="550"/>
 <circle class="fil3 str3" cx="50000" cy="29500" r="325"/>
</symbol>
<symbol id="符号30" viewBox="49431 28931 1138 1138">
 <circle class="fil2 str3" cx="50000" cy="29500" r="550"/>
 <circle class="fil3 str3" cx="50000" cy="29500" r="325"/>
</symbol>
<symbol id="符号20" viewBox="49765 29145 470 710">
 <polygon class="fil4" points="49771,29855 49997,29145 50235,29855 49765,29855 "/>
</symbol>
<symbol id="符号4" viewBox="49580 29320 820 360">
 <polygon class="fil5" points="49885,29450 49888,29450 49895,29450 49906,29451 49920,29451 49937,29451 49957,29450 49978,29449 50001,29448 50025,29446 50049,29443 50073,29439 50097,29435 50119,29429 50140,29422 50158,29414 50174,29405 50188,29395 50202,29386 50216,29377 50229,29369 50243,29363 50257,29357 50271,29352 50285,29349 50298,29347 50312,29346 50327,29346 50341,29349 50355,29352 50369,29358 50400,29381 50400,29382 50395,29382 50388,29381 50377,29380 50365,29378 50352,29377 50337,29377 50320,29378 50303,29380 50286,29383 50269,29389 50251,29396 50234,29406 50217,29419 50202,29435 50178,29451 50153,29466 50129,29479 50104,29491 50080,29502 50057,29511 50034,29518 50013,29525 49993,29530 49975,29535 49945,29543 49933,29545 49921,29548 49912,29549 "/>
 <path class="fil5 str5" d="M49922 29500c0,-88 -72,-160 -161,-160 -89,0 -161,72 -161,160 0,88 72,160 161,160 89,0 161,-72 161,-160z"/>
</symbol>
<symbol id="符号17" viewBox="49580 29320 820 360">
 <polygon class="fil5" points="49885,29450 49888,29450 49895,29450 49906,29451 49920,29451 49937,29451 49957,29450 49978,29449 50001,29448 50025,29446 50049,29443 50073,29439 50097,29435 50119,29429 50140,29422 50158,29414 50174,29405 50188,29395 50202,29386 50216,29377 50229,29369 50243,29363 50257,29357 50271,29352 50285,29349 50298,29347 50312,29346 50327,29346 50341,29349 50355,29352 50369,29358 50400,29381 50400,29382 50395,29382 50388,29381 50377,29380 50365,29378 50352,29377 50337,29377 50320,29378 50303,29380 50286,29383 50269,29389 50251,29396 50234,29406 50217,29419 50202,29435 50178,29451 50153,29466 50129,29479 50104,29491 50080,29502 50057,29511 50034,29518 50013,29525 49993,29530 49975,29535 49945,29543 49933,29545 49921,29548 49912,29549 "/>
 <path class="fil5 str5" d="M49922 29500c0,-88 -72,-160 -161,-160 -89,0 -161,72 -161,160 0,88 72,160 161,160 89,0 161,-72 161,-160z"/>
</symbol>
<symbol id="符号15" viewBox="49606 29106 788 788">
 <circle class="fil2 str3" cx="50000" cy="29500" r="375"/>
 <circle class="fil1 str3" cx="50000" cy="29500" r="141"/>
</symbol>
<symbol id="符号29" viewBox="49681 29181 638 638">
 <circle class="fil2 str3" cx="50000" cy="29500" r="300"/>
 <circle class="fil1 str3" cx="50000" cy="29500" r="112"/>
</symbol>
<symbol id="符号6" viewBox="49681 29181 638 638">
 <circle class="fil2 str3" cx="50000" cy="29500" r="300"/>
 <circle class="fil1 str3" cx="50000" cy="29500" r="113"/>
</symbol>
<symbol id="符号13" viewBox="49681 29181 638 638">
 <circle class="fil2 str3" cx="50000" cy="29500" r="300"/>
 <circle class="fil1 str3" cx="50000" cy="29500" r="113"/>
</symbol>
<symbol id="符号19" viewBox="49885 29385 230 230">
 <path class="fil4 str4" d="M50090 29500c0,-50 -40,-90 -90,-90 -50,0 -90,40 -90,90 0,50 40,90 90,90 50,0 90,-40 90,-90z"/>
</symbol>
<symbol id="符号35" viewBox="49681 29181 638 638">
 <circle class="fil2 str3" cx="50000" cy="29500" r="300"/>
 <circle class="fil1 str3" cx="50000" cy="29500" r="113"/>
</symbol>
<symbol id="符号32" viewBox="49900 29400 200 200">
 <path class="fil0 str2" d="M50075 29500c0,-41 -34,-75 -75,-75 -42,0 -75,34 -75,75 0,41 34,75 75,75 41,0 75,-34 75,-75z"/>
</symbol>
<symbol id="符号28" viewBox="49675 29175 650 650">
 <path class="fil2 str1" d="M50300 29500c0,-166 -134,-300 -300,-300 -166,0 -300,134 -300,300 0,166 134,300 300,300 166,0 300,-134 300,-300z"/>
</symbol>
<symbol id="符号26" viewBox="49765 29145 470 710">
 <polygon class="fil0" points="49771,29855 49997,29145 50235,29855 49765,29855 "/>
</symbol>
<symbol id="符号25" viewBox="49885 29385 230 230">
 <path class="fil0 str2" d="M50090 29500c0,-50 -40,-90 -90,-90 -50,0 -90,40 -90,90 0,50 40,90 90,90 50,0 90,-40 90,-90z"/>
</symbol>
<symbol id="符号18" viewBox="49682 29182 635 635">
 <rect class="fil2" x="49700" y="29200" width="600" height="600"/>
 <line class="fil1 str0" x1="49700" y1="29200" x2="50300" y2= "29800" />
 <line class="fil1 str0" x1="49700" y1="29800" x2="50300" y2= "29200" />
</symbol>
<symbol id="符号5" viewBox="49675 29175 650 650">
 <path class="fil2 str1" d="M50300 29500c0,-166 -134,-300 -300,-300 -166,0 -300,134 -300,300 0,166 134,300 300,300 166,0 300,-134 300,-300z"/>
</symbol>
<symbol id="符号22" viewBox="49606 29106 788 788">
 <circle class="fil2 str3" cx="50000" cy="29500" r="375"/>
 <circle class="fil1 str3" cx="50000" cy="29500" r="141"/>
</symbol>
<symbol id="符号27" viewBox="49800 29200 400 600">
 <polygon class="fil0" points="49805,29800 49997,29200 50200,29800 49800,29800 "/>
</symbol>
 <g id="图层_x0020_2" visibility="hidden">
  <metadata id="CorelCorpID_0Corel-Layer"/>
  <rect class="fil6" x="5110" y="62775" width="4873" height="12722" rx="731" ry="731"/>
  <rect class="fil6" x="-53751" y="56721" width="15815" height="7535" rx="1130" ry="1130"/>
  <rect class="fil7 str6" x="-54331" y="56197" width="15815" height="7535" rx="1130" ry="1130"/>
  <path class="fil6" d="M-17495 62762l3424 0c404,0 734,337 734,750l0 11220c0,412 -330,750 -734,750l-3424 0c-404,0 -734,-337 -734,-750l0 -11220c0,-412 330,-750 734,-750z"/>
  <path class="fil7 str6" d="M-18039 62227l3424 0c404,0 734,337 734,750l0 11220c0,412 -330,750 -734,750l-3424 0c-404,0 -734,-337 -734,-750l0 -11220c0,-412 330,-750 734,-750z"/>
  <rect class="fil6" x="-12387" y="62775" width="9077" height="12722" rx="1362" ry="1362"/>
  <rect class="fil7 str6" x="-12937" y="62225" width="9077" height="12722" rx="1362" ry="1362"/>
  <path class="fil6" d="M-1489 62726l4557 0c537,0 977,436 977,970l0 10804c0,533 -439,970 -977,970l-4557 0c-537,0 -977,-436 -977,-970l0 -10804c0,-533 439,-970 977,-970z"/>
  <path class="fil7 str6" d="M-1989 62226l4557 0c537,0 977,436 977,970l0 10804c0,533 -439,970 -977,970l-4557 0c-537,0 -977,-436 -977,-970l0 -10804c0,-533 439,-970 977,-970z"/>
  <rect class="fil7 str6" x="4549" y="62210" width="4873" height="12722" rx="731" ry="731"/>
  <rect class="fil6" x="11611" y="62405" width="8989" height="6994" rx="1399" ry="1399"/>
  <rect class="fil7 str6" x="11056" y="61835" width="8989" height="6994" rx="1399" ry="1399"/>
  <rect class="fil6" x="22209" y="62361" width="11190" height="7012" rx="1403" ry="1403"/>
  <rect class="fil7 str6" x="21668" y="61779" width="11190" height="7012" rx="1403" ry="1403"/>
  <path class="fil6" d="M12949 73033l6199 0c767,0 1395,669 1395,1486l0 4458c0,817 -628,1486 -1395,1486l-6199 0c-767,0 -1395,-669 -1395,-1486l0 -4458c0,-817 628,-1486 1395,-1486z"/>
  <path class="fil7 str6" d="M12399 72463l6199 0c767,0 1395,672 1395,1493l0 4478c0,821 -628,1493 -1395,1493l-6199 0c-767,0 -1395,-672 -1395,-1493l0 -4478c0,-821 628,-1493 1395,-1493z"/>
  <path class="fil6" d="M23653 73016l8303 0c784,0 1425,672 1425,1493l0 4478c0,821 -641,1493 -1425,1493l-8303 0c-784,0 -1425,-672 -1425,-1493l0 -4478c0,-821 641,-1493 1425,-1493z"/>
  <path class="fil7 str6" d="M23103 72454l8303 0c784,0 1425,675 1425,1499l0 4498c0,825 -641,1499 -1425,1499l-8303 0c-784,0 -1425,-675 -1425,-1499l0 -4498c0,-825 641,-1499 1425,-1499z"/>
 </g>
 <g id="图名">
  <metadata id="CorelCorpID_1Corel-Layer"/>
  <g id="_883674352">
   <path class="fil8" d="M3806 785l92388 0c1418,0 2578,775 2578,1723l0 53984c0,948 -1160,1723 -2578,1723l-92388 0c-1418,0 -2578,-775 -2578,-1723l0 -53984c0,-948 1160,-1723 2578,-1723z"/>
   <rect class="fil1 str7" x="6892" y="10562" width="86207" height="41933"/>
   <polygon class="fil2" points="7027,10512 93003,10512 93003,52495 7027,52495 "/>
   <polygon class="fil9" points="6891,10536 92929,10536 92965,17919 6891,17779 "/>
   <rect class="fil10" x="6859" y="17782" width="7332" height="34716"/>
   <rect class="fil10" x="48201" y="17859" width="6175" height="34631"/>
   <rect class="fil10" x="68267" y="17886" width="6175" height="34599"/>
   <rect class="fil10" x="26107" y="17822" width="6175" height="34668"/>
   <line class="fil1 str8" x1="6927" y1="31152" x2="92934" y2= "31285" />
   <line class="fil1 str9" x1="6944" y1="17782" x2="92948" y2= "17915" />
   <line class="fil1 str9" x1="26116" y1="13369" x2="92987" y2= "13503" />
   <text x="13946" y="14273"  class="fil3 fnt0">影响因素</text>
   <text x="37939" y="11977"  class="fil3 fnt0">沙漠化土地面积变化量</text>
   <text x="65092" y="11982"  class="fil3 fnt0">沙漠化土地面积变化率</text>
   <text x="9278" y="23363"  class="fil3 fnt1">气候</text>
   <text x="9278" y="24761"  class="fil3 fnt1">因素</text>
   <text x="9280" y="41315"  class="fil3 fnt1">人文</text>
   <text x="9280" y="42713"  class="fil3 fnt1">因素</text>
   <text x="18858" y="19522"  class="fil3 fnt1">气温</text>
   <text x="18248" y="22222"  class="fil3 fnt1">降水</text>
   <text x="20717" y="22222"  class="fil3 fnt1">量</text>
   <text x="18856" y="24889"  class="fil3 fnt1">风速</text>
   <text x="18248" y="27281"  class="fil3 fnt1">蒸发</text>
   <text x="20717" y="27281"  class="fil3 fnt1">量</text>
   <text x="17619" y="29957"  class="fil3 fnt1">大风日数</text>
   <text x="27339" y="15682"  class="fil3 fnt1">总面积</text>
   <text x="35527" y="14900"  class="fil3 fnt1">沙质沙漠</text>
   <text x="35527" y="16299"  class="fil3 fnt1">  化土地</text>
   <text x="49403" y="14887"  class="fil3 fnt1">沙砾质沙</text>
   <text x="49403" y="16286"  class="fil3 fnt1">漠化土地</text>
   <text x="60591" y="15682"  class="fil3 fnt1">总面积</text>
   <text x="68911" y="14900"  class="fil3 fnt1">沙质沙漠</text>
   <text x="68911" y="16299"  class="fil3 fnt1">  化土地</text>
   <text x="82557" y="14887"  class="fil3 fnt1">沙砾质沙</text>
   <text x="82557" y="16286"  class="fil3 fnt1">漠化土地</text>
   <text x="17099" y="32942"  class="fil3 fnt1">非有效灌溉</text>
   <text x="17099" y="34201"  class="fil3 fnt1">  耕地面积</text>
   <text x="17696" y="37827"  class="fil3 fnt1">耕地面积</text>
   <text x="17080" y="40519"  class="fil3 fnt1">农业总产值</text>
   <text x="17696" y="43207"  class="fil3 fnt1">播种面积</text>
   <text x="17712" y="45891"  class="fil3 fnt1">人口数量</text>
   <text x="17712" y="48579"  class="fil3 fnt1">牲畜数量</text>
   <text x="17080" y="51275"  class="fil3 fnt1">牲畜超载率</text>
   <text x="27971" y="19666"  class="fil3 fnt2">0.320</text>
   <text x="36587" y="19666"  class="fil3 fnt3">-</text>
   <text x="37116" y="19666"  class="fil3 fnt2">0.150</text>
   <text x="50059" y="19666"  class="fil3 fnt3">-</text>
   <text x="50588" y="19666"  class="fil3 fnt2">0.223</text>
   <text x="60952" y="19666"  class="fil3 fnt2">0.019</text>
   <text x="70029" y="19666"  class="fil3 fnt3">-</text>
   <text x="70558" y="19666"  class="fil3 fnt2">0.512</text>
   <text x="83810" y="19666"  class="fil3 fnt2">0.283</text>
   <text x="37140" y="22362"  class="fil3 fnt2">0.218</text>
   <text x="50015" y="22362"  class="fil3 fnt3">-</text>
   <text x="50544" y="22362"  class="fil3 fnt2">0.232</text>
   <text x="60951" y="22362"  class="fil3 fnt2">0.222</text>
   <text x="70576" y="22362"  class="fil3 fnt2">0.228</text>
   <text x="83810" y="22362"  class="fil3 fnt2">0.093</text>
   <text x="28102" y="22362"  class="fil3 fnt2">0.211</text>
   <text x="37116" y="25024"  class="fil3 fnt2">0.240</text>
   <text x="50016" y="25024"  class="fil3 fnt3">-</text>
   <text x="50546" y="25024"  class="fil3 fnt2">0.089</text>
   <text x="60465" y="25024"  class="fil3 fnt3">-</text>
   <text x="60995" y="25024"  class="fil3 fnt2">0.553</text>
   <text x="70114" y="25024"  class="fil3 fnt3">-</text>
   <text x="70644" y="25024"  class="fil3 fnt2">0.181</text>
   <text x="83239" y="25024"  class="fil3 fnt3">-</text>
   <text x="83768" y="25024"  class="fil3 fnt2">0.739</text>
   <text x="27445" y="25024"  class="fil3 fnt3">-</text>
   <text x="27974" y="25024"  class="fil3 fnt2">0.596</text>
   <text x="36593" y="27670"  class="fil3 fnt3">-</text>
   <text x="37122" y="27670"  class="fil3 fnt2">0.262</text>
   <text x="50570" y="27670"  class="fil3 fnt2">0.365</text>
   <text x="60425" y="27670"  class="fil3 fnt3">-</text>
   <text x="60954" y="27670"  class="fil3 fnt2">0.307</text>
   <text x="70022" y="27670"  class="fil3 fnt3">-</text>
   <text x="70551" y="27670"  class="fil3 fnt2">0.544</text>
   <text x="83281" y="27670"  class="fil3 fnt3">-</text>
   <text x="83810" y="27670"  class="fil3 fnt2">0.183</text>
   <text x="27466" y="27670"  class="fil3 fnt3">-</text>
   <text x="27995" y="27670"  class="fil3 fnt2">0.588</text>
   <text x="37122" y="30347"  class="fil3 fnt2">0.142</text>
   <text x="50544" y="30347"  class="fil3 fnt2">0.042</text>
   <text x="60976" y="30347"  class="fil3 fnt2">0.205</text>
   <text x="70555" y="30347"  class="fil3 fnt2">0.066</text>
   <text x="83281" y="30347"  class="fil3 fnt3">-</text>
   <text x="83810" y="30347"  class="fil3 fnt2">0.003</text>
   <text x="27995" y="30347"  class="fil3 fnt2">0.338</text>
   <text x="37290" y="34152"  class="fil3 fnt4">0.119</text>
   <text x="50168" y="34152"  class="fil3 fnt3">-</text>
   <text x="50697" y="34152"  class="fil3 fnt4">0.005</text>
   <text x="61073" y="34152"  class="fil3 fnt4">0.504</text>
   <text x="70681" y="34152"  class="fil3 fnt4">0.090</text>
   <text x="83898" y="34152"  class="fil3 fnt4">0.377</text>
   <text x="28103" y="34152"  class="fil3 fnt4">0.046</text>
   <text x="36764" y="37962"  class="fil3 fnt3">-</text>
   <text x="37293" y="37962"  class="fil3 fnt4">0.093</text>
   <text x="50689" y="37962"  class="fil3 fnt4">0.148</text>
   <text x="61104" y="37962"  class="fil3 fnt4">0.125</text>
   <text x="70712" y="37962"  class="fil3 fnt4">0.195</text>
   <text x="83419" y="37962"  class="fil3 fnt3">-</text>
   <text x="83949" y="37962"  class="fil3 fnt4">0.118</text>
   <text x="27658" y="37962"  class="fil3 fnt3">-</text>
   <text x="28187" y="37962"  class="fil3 fnt4">0.501</text>
   <text x="37248" y="40659"  class="fil3 fnt4">0.156</text>
   <text x="50697" y="40659"  class="fil3 fnt4">0.045</text>
   <text x="60544" y="40659"  class="fil3 fnt3">-</text>
   <text x="61074" y="40659"  class="fil3 fnt4">0.220</text>
   <text x="70174" y="40659"  class="fil3 fnt3">-</text>
   <text x="70703" y="40659"  class="fil3 fnt4">0.068</text>
   <text x="83408" y="40659"  class="fil3 fnt3">-</text>
   <text x="83937" y="40659"  class="fil3 fnt4">0.083</text>
   <text x="28101" y="40659"  class="fil3 fnt4">0.120</text>
   <text x="37245" y="43350"  class="fil3 fnt4">0.080</text>
   <text x="50673" y="43350"  class="fil3 fnt4">0.692</text>
   <text x="61073" y="43350"  class="fil3 fnt4">0.164</text>
   <text x="70684" y="43350"  class="fil3 fnt4">0.096</text>
   <text x="83911" y="43350"  class="fil3 fnt4">0.028</text>
   <text x="27571" y="43350"  class="fil3 fnt3">-</text>
   <text x="28101" y="43350"  class="fil3 fnt4">0.240</text>
   <text x="36716" y="46031"  class="fil3 fnt3">-</text>
   <text x="37245" y="46031"  class="fil3 fnt4">0.020</text>
   <text x="50137" y="46031"  class="fil3 fnt3">-</text>
   <text x="50666" y="46031"  class="fil3 fnt4">0.364</text>
   <text x="61104" y="46031"  class="fil3 fnt4">0.475</text>
   <text x="70729" y="46031"  class="fil3 fnt4">0.053</text>
   <text x="83920" y="46031"  class="fil3 fnt4">0.485</text>
   <text x="28109" y="46031"  class="fil3 fnt4">0.167</text>
   <text x="36724" y="48718"  class="fil3 fnt3">-</text>
   <text x="37253" y="48718"  class="fil3 fnt4">0.529</text>
   <text x="50689" y="48718"  class="fil3 fnt4">0.128</text>
   <text x="60552" y="48718"  class="fil3 fnt3">-</text>
   <text x="61081" y="48718"  class="fil3 fnt4">0.279</text>
   <text x="70160" y="48718"  class="fil3 fnt3">-</text>
   <text x="70689" y="48718"  class="fil3 fnt4">0.329</text>
   <text x="83889" y="48718"  class="fil3 fnt4">0.340</text>
   <text x="27602" y="48718"  class="fil3 fnt3">-</text>
   <text x="28131" y="48718"  class="fil3 fnt4">0.285</text>
   <text x="36724" y="51414"  class="fil3 fnt3">-</text>
   <text x="37253" y="51414"  class="fil3 fnt4">0.529</text>
   <text x="50689" y="51414"  class="fil3 fnt4">0.128</text>
   <text x="60575" y="51414"  class="fil3 fnt3">-</text>
   <text x="61104" y="51414"  class="fil3 fnt4">0.185</text>
   <text x="70155" y="51414"  class="fil3 fnt3">-</text>
   <text x="70684" y="51414"  class="fil3 fnt4">0.306</text>
   <text x="83911" y="51414"  class="fil3 fnt4">0.428</text>
   <text x="27602" y="51414"  class="fil3 fnt3">-</text>
   <text x="28131" y="51414"  class="fil3 fnt4">0.285</text>
   <g transform="matrix(1.2 0 0 1 -40588.5 -24562.3)">
    <text x="50000" y="29500"  class="fil3 fnt5">&quot;一江两河&quot; 中部流域沙漠化土地面积变化与影响因素间的相关系数</text>
   </g>
   <text x="15958" y="6891"  class="fil3 fnt6">Correlation coefficient of between area change of desertified land and effect factors in the midstream basin of </text>
   <text x="15958" y="8468"  class="fil3 fnt6">                                          the Yarlung Zangbo R., the Lhasa R. and  the Nianchu R.</text>
   <text x="15958" y="10044"  class="fil3 fnt6"> </text>
   <line class="fil1 str8" x1="26111" y1="10483" x2="26111" y2= "52499" />
   <text x="12739" y="15234"  class="fil3 fnt2">Influencing factor</text>
   <text x="38030" y="12993"  class="fil3 fnt2">Change area of desertifocation </text>
   <text x="27262" y="16656"  class="fil3 fnt7">Total area</text>
   <text x="32904" y="17343"  class="fil3 fnt7">Sandy desertification land</text>
   <text x="43651" y="17343"  class="fil3 fnt7">Sandy and gravelly desertification land</text>
   <text x="7262" y="25848"  class="fil3 fnt2">Climate factors</text>
   <text x="7380" y="43732"  class="fil3 fnt2">Human factors</text>
   <text x="17705" y="28266"  class="fil3 fnt7">Evaporation</text>
   <text x="18165" y="30926"  class="fil3 fnt7">Gale days</text>
   <g transform="matrix(1 0 0 1 -29838.3 5872.55)">
    <text x="44461" y="29500"  class="fil3 fnt7">Non-effective irrigation area</text>
   </g>
   <g transform="matrix(1 0 0 1 -29838.3 5872.55)">
    <text x="46484" y="30360"  class="fil3 fnt7"> of cultivated land</text>
   </g>
   <text x="15311" y="41449"  class="fil3 fnt7">Total agrivultural pouput</text>
   <text x="18122" y="44169"  class="fil3 fnt7">Sown area</text>
   <text x="18054" y="46818"  class="fil3 fnt7">Population</text>
   <text x="18239" y="49509"  class="fil3 fnt7">Livestock</text>
   <text x="14481" y="52181"  class="fil3 fnt7">Overloading rate of livestock</text>
   <text x="16330" y="38744"  class="fil3 fnt7">Agricultur acereage</text>
   <text x="60688" y="16656"  class="fil3 fnt7">Total area</text>
   <text x="66288" y="17343"  class="fil3 fnt7">Sandy desertification land</text>
   <text x="77402" y="17343"  class="fil3 fnt7">Sandy and gravelly desertification land</text>
   <text x="17597" y="23149"  class="fil3 fnt7">Precipitation</text>
   <text x="17644" y="20417"  class="fil3 fnt7">Temperature</text>
   <text x="17788" y="25811"  class="fil3 fnt7">Wind speed</text>
   <text x="65268" y="12993"  class="fil3 fnt2">Change rate of desertifocation </text>
   <line class="fil1 str8" x1="59181" y1="10529" x2="59181" y2= "52503" />
   <rect class="fil1 str10" x="6892" y="10512" width="86084" height="41982"/>
  </g>
 </g>
</svg>
