<?xml version="1.0" encoding="UTF-8"?>
<!DOCTYPE svg PUBLIC "-//W3C//DTD SVG 1.1//EN" "http://www.w3.org/Graphics/SVG/1.1/DTD/svg11.dtd">
<!-- Creator: CorelDRAW X6 -->
<svg xmlns="http://www.w3.org/2000/svg" xml:space="preserve" width="1000px" height="224px" version="1.1" style="shape-rendering:geometricPrecision; text-rendering:geometricPrecision; image-rendering:optimizeQuality; fill-rule:evenodd; clip-rule:evenodd"
viewBox="0 0 100000 22388"
 xmlns:xlink="http://www.w3.org/1999/xlink">
 <defs>
  <style type="text/css">
   <![CDATA[
    .str1 {stroke:#332C2B;stroke-width:22.7463}
    .str3 {stroke:#00A2E9;stroke-width:23.8806;stroke-linejoin:round}
    .str0 {stroke:#332C2B;stroke-width:29.8507}
    .str4 {stroke:#332C2B;stroke-width:29.8507;stroke-linejoin:round}
    .str2 {stroke:#6D583D;stroke-width:29.8507;stroke-linejoin:round}
    .str5 {stroke:#823520;stroke-width:29.8507;stroke-linejoin:round}
    .str7 {stroke:#332C2B;stroke-width:35.8209}
    .str11 {stroke:#FEFEFE;stroke-width:35.8209}
    .str10 {stroke:#332C2B;stroke-width:44.7761}
    .str14 {stroke:#E62129;stroke-width:44.7761}
    .str13 {stroke:#006B9E;stroke-width:44.7761}
    .str6 {stroke:#FEFEFE;stroke-width:59.7015}
    .str9 {stroke:#009B4C;stroke-width:104.478}
    .str8 {stroke:#BF8C3B;stroke-width:104.478}
    .str12 {stroke:#E62129;stroke-width:104.478}
    .str15 {stroke:#E62129;stroke-width:74.6269;stroke-dasharray:149.253731 74.626866}
    .str16 {stroke:#0084CD;stroke-width:74.6269;stroke-dasharray:149.253731 74.626866}
    .fil0 {fill:none}
    .fil2 {fill:#332C2B}
    .fil9 {fill:#DED572}
    .fil1 {fill:#FEFEFE}
    .fil4 {fill:#00A2E9}
    .fil3 {fill:#6D583D}
    .fil5 {fill:#823520}
    .fil8 {fill:#A9BAA1}
    .fil11 {fill:#E0F1F4}
    .fil7 {fill:#EBECD6}
    .fil10 {fill:#FCE2C4}
    .fil6 {fill:#FEF8F0}
    .fnt8 {font-weight:normal;font-size:446.388px;font-family:'Times New Roman'}
    .fnt6 {font-weight:normal;font-size:526.537px;font-family:'Times New Roman'}
    .fnt10 {font-weight:normal;font-size:526.537px;font-family:'方正书宋简体'}
    .fnt7 {font-weight:normal;font-size:577.731px;font-family:'方正书宋简体'}
    .fnt5 {font-weight:normal;font-size:631.851px;font-family:'Arial'}
    .fnt0 {font-weight:normal;font-size:631.851px;font-family:'Times New Roman'}
    .fnt2 {font-weight:normal;font-size:631.851px;font-family:'宋体'}
    .fnt9 {font-weight:normal;font-size:631.851px;font-family:'方正书宋简体'}
    .fnt1 {font-weight:normal;font-size:737.134px;font-family:'宋体'}
    .fnt4 {font-weight:normal;font-size:842.448px;font-family:'Arial'}
    .fnt3 {font-weight:normal;font-size:1053.07px;font-family:'方正准圆简体'}
   ]]>
  </style>
 </defs>
<symbol id="符号43" viewBox="49810 11004 379 379">
 <line class="fil0 str0" x1="49821" y1="11015" x2="50179" y2= "11373" />
 <line class="fil0 str0" x1="49821" y1="11373" x2="50179" y2= "11015" />
</symbol>
<symbol id="符号36" viewBox="49660 10854 679 679">
 <circle class="fil1 str1" cx="50000" cy="11194" r="328"/>
 <circle class="fil2 str1" cx="50000" cy="11194" r="194"/>
</symbol>
<symbol id="符号25" viewBox="49931 11125 137 137">
 <path class="fil3 str2" d="M50054 11194c0,-30 -24,-54 -54,-54 -30,0 -54,24 -54,54 0,30 24,54 54,54 30,0 54,-24 54,-54z"/>
</symbol>
<symbol id="符号6" viewBox="49810 11004 381 381">
 <circle class="fil1 str1" cx="50000" cy="11194" r="179"/>
 <circle class="fil0 str1" cx="50000" cy="11194" r="67"/>
</symbol>
<symbol id="符号4" viewBox="49749 11087 490 215">
 <polygon class="fil4" points="49932,11164 49933,11164 49937,11164 49944,11165 49952,11165 49962,11165 49974,11164 49987,11164 50001,11163 50015,11162 50029,11160 50044,11158 50058,11155 50071,11152 50083,11148 50094,11143 50104,11137 50112,11131 50120,11126 50129,11121 50137,11116 50145,11112 50153,11109 50162,11106 50170,11104 50178,11102 50187,11102 50195,11102 50203,11104 50212,11106 50220,11109 50239,11123 50239,11124 50236,11124 50231,11123 50225,11122 50218,11121 50210,11121 50201,11121 50191,11121 50181,11122 50171,11124 50160,11128 50150,11132 50140,11138 50130,11146 50120,11155 50106,11165 50091,11174 50077,11182 50062,11189 50048,11195 50034,11200 50020,11205 50007,11209 49996,11212 49985,11215 49967,11220 49960,11221 49953,11223 49947,11223 "/>
 <path class="fil4 str3" d="M49954 11194c0,-53 -43,-96 -96,-96 -53,0 -96,43 -96,96 0,53 43,96 96,96 53,0 96,-43 96,-96z"/>
</symbol>
<symbol id="符号26" viewBox="49860 10982 281 424">
 <polygon class="fil3" points="49863,11406 49998,10982 50140,11406 49860,11406 "/>
</symbol>
<symbol id="符号17" viewBox="49749 11087 490 215">
 <polygon class="fil4" points="49932,11164 49933,11164 49937,11164 49944,11165 49952,11165 49962,11165 49974,11164 49987,11164 50001,11163 50015,11162 50029,11160 50044,11158 50058,11155 50071,11152 50083,11148 50094,11143 50104,11137 50112,11131 50120,11126 50129,11121 50137,11116 50145,11112 50153,11109 50162,11106 50170,11104 50178,11102 50187,11102 50195,11102 50203,11104 50212,11106 50220,11109 50239,11123 50239,11124 50236,11124 50231,11123 50225,11122 50218,11121 50210,11121 50201,11121 50191,11121 50181,11122 50171,11124 50160,11128 50150,11132 50140,11138 50130,11146 50120,11155 50106,11165 50091,11174 50077,11182 50062,11189 50048,11195 50034,11200 50020,11205 50007,11209 49996,11212 49985,11215 49967,11220 49960,11221 49953,11223 49947,11223 "/>
 <path class="fil4 str3" d="M49954 11194c0,-53 -43,-96 -96,-96 -53,0 -96,43 -96,96 0,53 43,96 96,96 53,0 96,-43 96,-96z"/>
</symbol>
<symbol id="符号7" viewBox="49660 10854 679 679">
 <circle class="fil1 str1" cx="50000" cy="11194" r="328"/>
 <circle class="fil2 str1" cx="50000" cy="11194" r="194"/>
</symbol>
<symbol id="符号39" viewBox="49881 11015 239 358">
 <polygon class="fil3" points="49884,11373 49998,11015 50119,11373 49881,11373 "/>
</symbol>
<symbol id="符号12" viewBox="49806 11000 388 388">
 <path class="fil1 str4" d="M50179 11194c0,-99 -80,-179 -179,-179 -99,0 -179,80 -179,179 0,99 80,179 179,179 99,0 179,-80 179,-179z"/>
</symbol>
<symbol id="符号40" viewBox="49806 11000 388 388">
 <path class="fil1 str4" d="M50179 11194c0,-99 -80,-179 -179,-179 -99,0 -179,80 -179,179 0,99 80,179 179,179 99,0 179,-80 179,-179z"/>
</symbol>
<symbol id="符号28" viewBox="49806 11000 388 388">
 <path class="fil1 str4" d="M50179 11194c0,-99 -80,-179 -179,-179 -99,0 -179,80 -179,179 0,99 80,179 179,179 99,0 179,-80 179,-179z"/>
</symbol>
<symbol id="符号23" viewBox="49660 10854 679 679">
 <circle class="fil1 str1" cx="50000" cy="11194" r="328"/>
 <circle class="fil2 str1" cx="50000" cy="11194" r="194"/>
</symbol>
<symbol id="符号16" viewBox="49660 10854 679 679">
 <circle class="fil1 str1" cx="50000" cy="11194" r="328"/>
 <circle class="fil2 str1" cx="50000" cy="11194" r="194"/>
</symbol>
<symbol id="符号2" viewBox="49940 11134 119 119">
 <path class="fil5 str5" d="M50045 11194c0,-25 -20,-45 -45,-45 -25,0 -45,20 -45,45 0,25 20,45 45,45 25,0 45,-20 45,-45z"/>
</symbol>
<symbol id="符号31" viewBox="49810 11004 379 379">
 <line class="fil0 str0" x1="49821" y1="11015" x2="50179" y2= "11373" />
 <line class="fil0 str0" x1="49821" y1="11373" x2="50179" y2= "11015" />
</symbol>
<symbol id="符号24" viewBox="49810 11004 379 379">
 <line class="fil0 str0" x1="49821" y1="11015" x2="50179" y2= "11373" />
 <line class="fil0 str0" x1="49821" y1="11373" x2="50179" y2= "11015" />
</symbol>
<symbol id="符号1" viewBox="49881 11015 239 358">
 <polygon class="fil5" points="49884,11373 49998,11015 50119,11373 49881,11373 "/>
</symbol>
<symbol id="符号34" viewBox="49866 11060 269 269">
 <path class="fil1 str4" d="M50119 11194c0,-66 -53,-119 -119,-119 -66,0 -119,53 -119,119 0,66 53,119 119,119 66,0 119,-53 119,-119z"/>
 <circle class="fil2" cx="50000" cy="11194" r="45"/>
</symbol>
<symbol id="符号27" viewBox="49881 11015 239 358">
 <polygon class="fil3" points="49884,11373 49998,11015 50119,11373 49881,11373 "/>
</symbol>
<symbol id="符号18" viewBox="49810 11004 379 379">
 <rect class="fil1" x="49821" y="11015" width="358" height="358"/>
 <line class="fil0 str0" x1="49821" y1="11015" x2="50179" y2= "11373" />
 <line class="fil0 str0" x1="49821" y1="11373" x2="50179" y2= "11015" />
</symbol>
<symbol id="符号38" viewBox="49940 11134 119 119">
 <path class="fil3 str2" d="M50045 11194c0,-25 -20,-45 -45,-45 -25,0 -45,20 -45,45 0,25 20,45 45,45 25,0 45,-20 45,-45z"/>
</symbol>
<symbol id="符号35" viewBox="49810 11004 381 381">
 <circle class="fil1 str1" cx="50000" cy="11194" r="179"/>
 <circle class="fil0 str1" cx="50000" cy="11194" r="67"/>
</symbol>
<symbol id="符号41" viewBox="49810 11004 381 381">
 <circle class="fil1 str1" cx="50000" cy="11194" r="179"/>
 <circle class="fil0 str1" cx="50000" cy="11194" r="67"/>
</symbol>
<symbol id="符号22" viewBox="49765 10959 471 471">
 <circle class="fil1 str1" cx="50000" cy="11194" r="224"/>
 <circle class="fil0 str1" cx="50000" cy="11194" r="84"/>
</symbol>
<symbol id="符号15" viewBox="49765 10959 471 471">
 <circle class="fil1 str1" cx="50000" cy="11194" r="224"/>
 <circle class="fil0 str1" cx="50000" cy="11194" r="84"/>
</symbol>
<symbol id="符号13" viewBox="49810 11004 381 381">
 <circle class="fil1 str1" cx="50000" cy="11194" r="179"/>
 <circle class="fil0 str1" cx="50000" cy="11194" r="67"/>
</symbol>
<symbol id="符号45" viewBox="49881 11015 239 358">
 <polygon class="fil3" points="49884,11373 49998,11015 50119,11373 49881,11373 "/>
</symbol>
<symbol id="符号42" viewBox="49660 10854 679 679">
 <circle class="fil1 str1" cx="50000" cy="11194" r="328"/>
 <circle class="fil2 str1" cx="50000" cy="11194" r="194"/>
</symbol>
<symbol id="符号29" viewBox="49810 11004 381 381">
 <circle class="fil1 str1" cx="50000" cy="11194" r="179"/>
 <circle class="fil0 str1" cx="50000" cy="11194" r="67"/>
</symbol>
<symbol id="符号20" viewBox="49860 10982 281 424">
 <polygon class="fil5" points="49863,11406 49998,10982 50140,11406 49860,11406 "/>
</symbol>
<symbol id="符号19" viewBox="49931 11125 137 137">
 <path class="fil5 str5" d="M50054 11194c0,-30 -24,-54 -54,-54 -30,0 -54,24 -54,54 0,30 24,54 54,54 30,0 54,-24 54,-54z"/>
</symbol>
<symbol id="符号8" viewBox="49806 11000 388 388">
 <path class="fil1 str4" d="M50179 11194c0,-99 -80,-179 -179,-179 -99,0 -179,80 -179,179 0,99 80,179 179,179 99,0 179,-80 179,-179z"/>
</symbol>
<symbol id="符号5" viewBox="49806 11000 388 388">
 <path class="fil1 str4" d="M50179 11194c0,-99 -80,-179 -179,-179 -99,0 -179,80 -179,179 0,99 80,179 179,179 99,0 179,-80 179,-179z"/>
</symbol>
<symbol id="符号3" viewBox="49810 11004 379 379">
 <rect class="fil1" x="49821" y="11015" width="358" height="358"/>
 <line class="fil0 str0" x1="49821" y1="11015" x2="50179" y2= "11373" />
 <line class="fil0 str0" x1="49821" y1="11373" x2="50179" y2= "11015" />
</symbol>
<symbol id="符号11" viewBox="49660 10854 679 679">
 <circle class="fil1 str1" cx="50000" cy="11194" r="328"/>
 <circle class="fil2 str1" cx="50000" cy="11194" r="194"/>
</symbol>
<symbol id="符号37" viewBox="49810 11004 379 379">
 <line class="fil0 str0" x1="49821" y1="11015" x2="50179" y2= "11373" />
 <line class="fil0 str0" x1="49821" y1="11373" x2="50179" y2= "11015" />
</symbol>
<symbol id="符号32" viewBox="49940 11134 119 119">
 <path class="fil3 str2" d="M50045 11194c0,-25 -20,-45 -45,-45 -25,0 -45,20 -45,45 0,25 20,45 45,45 25,0 45,-20 45,-45z"/>
</symbol>
<symbol id="符号10" viewBox="49660 10854 679 679">
 <circle class="fil1 str1" cx="50000" cy="11194" r="328"/>
 <circle class="fil2 str1" cx="50000" cy="11194" r="194"/>
</symbol>
<symbol id="符号33" viewBox="49881 11015 239 358">
 <polygon class="fil3" points="49884,11373 49998,11015 50119,11373 49881,11373 "/>
</symbol>
<symbol id="符号30" viewBox="49660 10854 679 679">
 <circle class="fil1 str1" cx="50000" cy="11194" r="328"/>
 <circle class="fil2 str1" cx="50000" cy="11194" r="194"/>
</symbol>
<symbol id="符号9" viewBox="49810 11004 381 381">
 <circle class="fil1 str1" cx="50000" cy="11194" r="179"/>
 <circle class="fil0 str1" cx="50000" cy="11194" r="67"/>
</symbol>
<symbol id="符号14" viewBox="49806 11000 388 388">
 <path class="fil1 str4" d="M50179 11194c0,-99 -80,-179 -179,-179 -99,0 -179,80 -179,179 0,99 80,179 179,179 99,0 179,-80 179,-179z"/>
</symbol>
<symbol id="符号44" viewBox="49940 11134 119 119">
 <path class="fil3 str2" d="M50045 11194c0,-25 -20,-45 -45,-45 -25,0 -45,20 -45,45 0,25 20,45 45,45 25,0 45,-20 45,-45z"/>
</symbol>
<symbol id="符号21" viewBox="49806 11000 388 388">
 <path class="fil1 str4" d="M50179 11194c0,-99 -80,-179 -179,-179 -99,0 -179,80 -179,179 0,99 80,179 179,179 99,0 179,-80 179,-179z"/>
</symbol>
 <g id="naqu">
  <metadata id="CorelCorpID_0Corel-Layer"/>
  <g id="_834505984">
   <g>
    <rect class="fil6" x="71853" y="5960" width="24411" height="12468"/>
    <text x="96727" y="6206"  class="fil2 fnt0">300</text>
    <text x="96727" y="8640"  class="fil2 fnt0">250</text>
    <text x="96727" y="11081"  class="fil2 fnt0">200</text>
    <text x="96727" y="13617"  class="fil2 fnt0">150</text>
    <text x="96727" y="16088"  class="fil2 fnt0">100</text>
    <text x="96727" y="18571"  class="fil2 fnt0">50</text>
    <text x="94502" y="4794"  class="fil2 fnt1">大牲畜</text>
    <text x="96713" y="4794"  class="fil2 fnt2">(</text>
    <text x="98293" y="4794"  class="fil2 fnt2">)</text>
    <text x="97029" y="4794"  class="fil2 fnt2">万头</text>
    <text x="70492" y="6133"  class="fil2 fnt0">650</text>
    <text x="70492" y="8684"  class="fil2 fnt0">550</text>
    <text x="70492" y="11185"  class="fil2 fnt0">450</text>
    <text x="70492" y="13691"  class="fil2 fnt0">350</text>
    <text x="70492" y="16188"  class="fil2 fnt0">250</text>
    <text x="70492" y="18611"  class="fil2 fnt0">150</text>
    <g transform="matrix(1.2 0 0 1 19811.9 -8474.3)">
     <text x="50000" y="11194"  class="fil2 fnt3">那曲牲畜数量变化</text>
    </g>
    <text x="75371" y="3911"  class="fil2 fnt4">Livestock number and population change of Nagqu</text>
    <text x="71154" y="19218"  class="fil2 fnt5">1958</text>
    <text x="73598" y="19217"  class="fil2 fnt5">1962</text>
    <text x="76583" y="19217"  class="fil2 fnt5">1967</text>
    <text x="79555" y="19214"  class="fil2 fnt5">1972</text>
    <text x="82541" y="19214"  class="fil2 fnt5">1977</text>
    <text x="85512" y="19214"  class="fil2 fnt5">1982</text>
    <text x="88498" y="19214"  class="fil2 fnt5">1987</text>
    <text x="91469" y="19214"  class="fil2 fnt5">1992</text>
    <text x="95893" y="19214"  class="fil2 fnt5">1999</text>
    <text x="70293" y="4797"  class="fil2 fnt1">小牲畜</text>
    <text x="72505" y="4797"  class="fil2 fnt2">(万头)</text>
    <text x="94330" y="19214"  class="fil2 fnt5">1997</text>
    <polygon class="fil7" points="96264,8836 95698,9120 95086,8719 94530,9161 93892,7810 93318,8615 92728,8613 92124,7475 91507,8574 90937,9387 90325,8594 89741,8090 89124,7960 88533,8836 87933,9093 87351,8613 86767,8090 86176,7451 85534,7180 84959,7040 84368,6812 83785,6914 83164,7427 82582,8086 81986,8463 81389,9162 80764,9960 80182,10861 79590,10851 79007,10856 78412,10865 77808,10637 77182,9223 76582,10637 76008,11505 75391,12284 74813,13282 74221,14692 73638,15568 73025,16725 72396,17476 71842,17607 71842,18421 96264,18421 "/>
    <polygon class="fil8" points="96272,12193 95672,12908 95079,12412 94489,12857 93886,11436 93299,11678 92687,11319 92101,11199 91505,12007 90910,12369 90314,11327 89716,11498 89122,11560 88530,11742 87929,11925 87336,11864 86742,11745 86138,11740 85551,12241 84955,12346 84357,12057 83759,11854 83167,13128 82567,12185 81974,12060 81380,12298 80781,12363 80187,12794 79593,12796 78990,12852 78400,12727 77803,12603 77199,11688 76610,12601 76017,12781 75421,13580 74824,14381 74229,15691 73623,16566 73032,16482 72429,17287 71856,17329 71849,18410 96267,18443 "/>
    <line class="fil0 str6" x1="72438" y1="5981" x2="72438" y2= "18409" />
    <g>
     <path class="fil0 str6" d="M73033 5981c0,4143 0,8285 0,12428"/>
     <path class="fil0 str6" d="M73629 5981c0,4143 0,8285 0,12428"/>
     <path class="fil0 str6" d="M74225 5981c0,4143 0,8285 0,12428"/>
     <path class="fil0 str6" d="M74820 5982c0,4143 0,8285 0,12428"/>
     <path class="fil0 str6" d="M75416 5982c0,4143 0,8285 0,12428"/>
     <path class="fil0 str6" d="M76012 5982c0,4143 0,8285 0,12428"/>
     <path class="fil0 str6" d="M76607 5982c0,4143 0,8285 0,12428"/>
     <path class="fil0 str6" d="M77203 5982c0,4143 0,8285 0,12428"/>
     <path class="fil0 str6" d="M77799 5982c0,4143 0,8285 0,12428"/>
     <path class="fil0 str6" d="M78395 5982c0,4143 0,8285 0,12428"/>
     <path class="fil0 str6" d="M78990 5982c0,4143 0,8285 0,12428"/>
     <path class="fil0 str6" d="M79586 5983c0,4143 0,8285 0,12428"/>
     <path class="fil0 str6" d="M80182 5983c0,4143 0,8285 0,12428"/>
     <path class="fil0 str6" d="M80777 5983c0,4143 0,8285 0,12428"/>
     <path class="fil0 str6" d="M81373 5983c0,4143 0,8285 0,12428"/>
     <path class="fil0 str6" d="M81969 5983c0,4143 0,8285 0,12428"/>
     <path class="fil0 str6" d="M82564 5983c0,4143 0,8285 0,12428"/>
     <path class="fil0 str6" d="M83160 5983c0,4143 0,8285 0,12428"/>
     <path class="fil0 str6" d="M83756 5983c0,4143 0,8285 0,12428"/>
     <path class="fil0 str6" d="M84351 5984c0,4143 0,8285 0,12428"/>
     <path class="fil0 str6" d="M84947 5984c0,4143 0,8285 0,12428"/>
     <path class="fil0 str6" d="M85543 5984c0,4143 0,8285 0,12428"/>
     <path class="fil0 str6" d="M86139 5984c0,4143 0,8285 0,12428"/>
     <path class="fil0 str6" d="M86734 5984c0,4143 0,8285 0,12428"/>
     <path class="fil0 str6" d="M87330 5984c0,4143 0,8285 0,12428"/>
     <path class="fil0 str6" d="M87926 5984c0,4143 0,8285 0,12428"/>
     <path class="fil0 str6" d="M88521 5984c0,4143 0,8285 0,12428"/>
     <path class="fil0 str6" d="M89117 5985c0,4143 0,8285 0,12428"/>
     <path class="fil0 str6" d="M89713 5985c0,4143 0,8285 0,12428"/>
     <path class="fil0 str6" d="M90308 5985c0,4143 0,8285 0,12428"/>
     <path class="fil0 str6" d="M90904 5985c0,4143 0,8285 0,12428"/>
     <path class="fil0 str6" d="M91500 5985c0,4143 0,8285 0,12428"/>
     <path class="fil0 str6" d="M92096 5985c0,4143 0,8285 0,12428"/>
     <path class="fil0 str6" d="M92691 5985c0,4143 0,8285 0,12428"/>
     <path class="fil0 str6" d="M93287 5985c0,4143 0,8285 0,12428"/>
     <path class="fil0 str6" d="M93883 5985c0,4143 0,8285 0,12428"/>
     <path class="fil0 str6" d="M94478 5986c0,4143 0,8285 0,12428"/>
     <path class="fil0 str6" d="M95074 5986c0,4143 0,8285 0,12428"/>
    </g>
    <line class="fil0 str6" x1="95670" y1="5986" x2="95670" y2= "18414" />
    <line class="fil0 str7" x1="71612" y1="18430" x2="71860" y2= "18430" />
    <g>
     <path class="fil0 str7" d="M71612 15935c83,0 166,0 248,0"/>
     <path class="fil0 str7" d="M71612 13441c83,0 166,0 248,0"/>
     <path class="fil0 str7" d="M71612 10946c83,0 166,0 248,0"/>
     <path class="fil0 str7" d="M71612 8452c83,0 166,0 248,0"/>
    </g>
    <line class="fil0 str7" x1="71612" y1="5957" x2="71860" y2= "5957" />
    <line class="fil0 str8" x1="72482" y1="7331" x2="73718" y2= "7331" />
    <line class="fil0 str9" x1="72482" y1="8368" x2="73718" y2= "8368" />
    <text x="74006" y="7032"  class="fil2 fnt1">大牲畜</text>
    <text x="74006" y="8416"  class="fil2 fnt1">小牲畜</text>
    <polyline class="fil0 str8" points="71856,17329 72429,17287 73032,16482 73623,16566 74229,15691 74824,14381 75421,13580 76017,12781 76610,12601 77199,11688 77803,12603 78400,12727 78990,12852 79593,12796 80187,12794 80781,12363 81380,12298 81974,12060 82567,12185 83167,13128 83759,11854 84357,12057 84955,12346 85551,12241 86138,11740 86742,11745 87336,11864 87929,11925 88530,11742 89122,11560 89716,11498 90314,11327 90910,12369 91505,12007 92101,11199 92687,11319 93299,11678 93886,11436 94489,12857 95079,12412 95672,12908 96272,12193 "/>
    <polyline class="fil0 str9" points="96267,8836 95679,9121 95082,8715 94481,9171 93892,7808 93290,8611 92699,8609 92105,7479 91508,8571 90908,9390 90316,8590 89722,8087 89124,7957 88533,8832 87933,9088 87341,8609 86738,8087 86148,7458 85548,7179 84954,7039 84358,6812 83766,6914 83169,7426 82572,8083 81977,8460 81389,9157 80783,9948 80182,10852 79590,10842 79003,10848 78407,10857 77808,10629 77201,9218 76610,10621 76013,11495 75421,12264 74817,13268 74221,14675 73638,15549 73030,16704 72435,17442 71842,17584 "/>
    <line class="fil0 str7" x1="96243" y1="5957" x2="96465" y2= "5957" />
    <line class="fil0 str6" x1="71867" y1="8451" x2="96247" y2= "8451" />
    <line class="fil0 str6" x1="71867" y1="10935" x2="96247" y2= "10935" />
    <line class="fil0 str6" x1="71867" y1="13419" x2="96247" y2= "13419" />
    <line class="fil0 str6" x1="71867" y1="15904" x2="96247" y2= "15904" />
    <line class="fil0 str7" x1="73631" y1="18431" x2="73631" y2= "18182" />
    <line class="fil0 str7" x1="76014" y1="18431" x2="76014" y2= "18182" />
    <line class="fil0 str7" x1="78397" y1="18431" x2="78397" y2= "18182" />
    <line class="fil0 str7" x1="80779" y1="18431" x2="80779" y2= "18182" />
    <line class="fil0 str7" x1="83162" y1="18431" x2="83162" y2= "18058" />
    <line class="fil0 str7" x1="85545" y1="18431" x2="85545" y2= "18182" />
    <line class="fil0 str7" x1="87928" y1="18431" x2="87928" y2= "18182" />
    <line class="fil0 str7" x1="90311" y1="18431" x2="90311" y2= "18182" />
    <line class="fil0 str7" x1="92694" y1="18431" x2="92694" y2= "18182" />
    <line class="fil0 str7" x1="95076" y1="18431" x2="95076" y2= "18058" />
    <g>
     <path class="fil0 str7" d="M96243 8451c74,0 147,0 221,0"/>
     <path class="fil0 str7" d="M96243 10946c74,0 147,0 221,0"/>
     <path class="fil0 str7" d="M96243 13440c74,0 147,0 221,0"/>
     <path class="fil0 str7" d="M96243 15935c74,0 147,0 221,0"/>
    </g>
    <line class="fil0 str7" x1="96243" y1="18429" x2="96465" y2= "18429" />
    <line class="fil0 str7" x1="72439" y1="18431" x2="72439" y2= "18182" />
    <line class="fil0 str7" x1="73035" y1="18431" x2="73035" y2= "18182" />
    <line class="fil0 str7" x1="74227" y1="18431" x2="74227" y2= "18058" />
    <line class="fil0 str7" x1="74822" y1="18431" x2="74822" y2= "18182" />
    <line class="fil0 str7" x1="75418" y1="18431" x2="75418" y2= "18182" />
    <line class="fil0 str7" x1="76609" y1="18431" x2="76609" y2= "18182" />
    <line class="fil0 str7" x1="77205" y1="18431" x2="77205" y2= "18058" />
    <line class="fil0 str7" x1="77801" y1="18431" x2="77801" y2= "18182" />
    <line class="fil0 str7" x1="78992" y1="18431" x2="78992" y2= "18182" />
    <line class="fil0 str7" x1="79588" y1="18431" x2="79588" y2= "18182" />
    <line class="fil0 str7" x1="80184" y1="18431" x2="80184" y2= "18058" />
    <line class="fil0 str7" x1="81375" y1="18431" x2="81375" y2= "18182" />
    <line class="fil0 str7" x1="81971" y1="18431" x2="81971" y2= "18182" />
    <line class="fil0 str7" x1="82567" y1="18431" x2="82567" y2= "18182" />
    <line class="fil0 str7" x1="83758" y1="18431" x2="83758" y2= "18182" />
    <line class="fil0 str7" x1="84354" y1="18431" x2="84354" y2= "18182" />
    <line class="fil0 str7" x1="84949" y1="18431" x2="84949" y2= "18182" />
    <line class="fil0 str7" x1="86141" y1="18431" x2="86141" y2= "18058" />
    <line class="fil0 str7" x1="86737" y1="18431" x2="86737" y2= "18182" />
    <line class="fil0 str7" x1="87332" y1="18431" x2="87332" y2= "18182" />
    <line class="fil0 str7" x1="88524" y1="18431" x2="88524" y2= "18182" />
    <line class="fil0 str7" x1="89119" y1="18431" x2="89119" y2= "18058" />
    <line class="fil0 str7" x1="89715" y1="18431" x2="89715" y2= "18182" />
    <line class="fil0 str7" x1="90907" y1="18431" x2="90907" y2= "18182" />
    <line class="fil0 str7" x1="91502" y1="18431" x2="91502" y2= "18182" />
    <line class="fil0 str7" x1="92098" y1="18431" x2="92098" y2= "18058" />
    <line class="fil0 str7" x1="93289" y1="18431" x2="93289" y2= "18182" />
    <line class="fil0 str7" x1="93885" y1="18431" x2="93885" y2= "18182" />
    <line class="fil0 str7" x1="94481" y1="18431" x2="94481" y2= "18182" />
    <line class="fil0 str7" x1="95672" y1="18431" x2="95672" y2= "18182" />
    <g transform="matrix(1 0 0 1 32401.6 9290.72)">
     <text x="50000" y="11194"  class="fil2 fnt1">年</text>
     <text x="50737" y="11194"  class="fil2 fnt1">份</text>
    </g>
    <rect class="fil0 str10" x="71853" y="5960" width="24411" height="12468"/>
    <text x="74006" y="8962"  class="fil2 fnt0">Lightfeeder</text>
    <text x="74006" y="7614"  class="fil2 fnt0">Livestock</text>
    <text x="68790" y="5390"  class="fil2 fnt0">Lightfeeder</text>
    <text x="71737" y="5390"  class="fil2 fnt6">(0.01 million head)</text>
    <text x="93226" y="5414"  class="fil2 fnt0">Livestock</text>
    <text x="95717" y="5414"  class="fil2 fnt6">(0.01 million head)</text>
    <text x="83987" y="20439"  class="fil2 fnt2">(</text>
    <text x="85467" y="20439"  class="fil2 fnt2">)</text>
    <text x="84303" y="20439"  class="fil2 fnt0">Year</text>
   </g>
   <g>
    <rect class="fil6" x="37687" y="6195" width="30202" height="11219"/>
    <path class="fil9" d="M67918 6329l-809 309 -666 167 -761 285 -714 285 -761 357 -761 167 -690 238 -761 214 -690 262 -785 190 -738 381 -690 285 -785 262 -761 286 -714 1118 -738 -738 -714 333 -761 143 -761 214 -714 214 -761 190 -666 214 -785 167 -738 167 -738 143 -738 167 -714 48 -738 642 -785 24 -690 95 -761 71 -761 167 -666 95 -785 262 -714 48 -761 595 -761 48 -690 595 -761 571 -690 833 -761 809 17 156 30193 7c0,0 33,-11082 29,-11083z"/>
    <line class="fil0 str11" x1="37710" y1="7785" x2="67879" y2= "7785" />
    <line class="fil0 str11" x1="37710" y1="9422" x2="67879" y2= "9422" />
    <line class="fil0 str11" x1="37690" y1="10996" x2="67859" y2= "10996" />
    <line class="fil0 str11" x1="37710" y1="12635" x2="67879" y2= "12635" />
    <line class="fil0 str11" x1="37710" y1="14213" x2="67879" y2= "14213" />
    <line class="fil0 str11" x1="37710" y1="15854" x2="67879" y2= "15854" />
    <text x="36709" y="6409"  class="fil2 fnt0">36</text>
    <text x="36711" y="8004"  class="fil2 fnt0">32</text>
    <text x="36721" y="9600"  class="fil2 fnt0">28</text>
    <text x="36706" y="11195"  class="fil2 fnt0">24</text>
    <text x="36707" y="12786"  class="fil2 fnt0">20</text>
    <text x="36709" y="14381"  class="fil2 fnt0">16</text>
    <text x="36711" y="15976"  class="fil2 fnt0">12</text>
    <text x="37037" y="17567"  class="fil2 fnt0">8</text>
    <text x="37137" y="18275"  class="fil2 fnt5">1958</text>
    <g transform="matrix(1.2 0 0 1 -10675.3 -7535.94)">
     <text x="50000" y="11194"  class="fil2 fnt3">那曲人口变化</text>
    </g>
    <text x="39258" y="18274"  class="fil2 fnt5">1961</text>
    <text x="41428" y="18274"  class="fil2 fnt5">1964</text>
    <text x="43650" y="18274"  class="fil2 fnt5">1967</text>
    <text x="45857" y="18272"  class="fil2 fnt5">1970</text>
    <text x="48082" y="18272"  class="fil2 fnt5">1973</text>
    <text x="50277" y="18274"  class="fil2 fnt5">1976</text>
    <text x="52496" y="18272"  class="fil2 fnt5">1979</text>
    <text x="54709" y="18272"  class="fil2 fnt5">1982</text>
    <text x="56931" y="18275"  class="fil2 fnt5">1985</text>
    <text x="59130" y="18272"  class="fil2 fnt5">1988</text>
    <text x="61340" y="18272"  class="fil2 fnt5">1991</text>
    <text x="63510" y="18272"  class="fil2 fnt5">1994</text>
    <text x="65732" y="18272"  class="fil2 fnt5">1997</text>
    <line class="fil0 str11" x1="38433" y1="6213" x2="38433" y2= "17433" />
    <line class="fil0 str11" x1="39168" y1="6208" x2="39168" y2= "17433" />
    <line class="fil0 str11" x1="39904" y1="6210" x2="39904" y2= "17427" />
    <line class="fil0 str11" x1="40639" y1="6194" x2="40639" y2= "17433" />
    <line class="fil0 str11" x1="41375" y1="6205" x2="41375" y2= "17427" />
    <line class="fil0 str11" x1="42111" y1="6173" x2="42111" y2= "17436" />
    <line class="fil0 str11" x1="42846" y1="6173" x2="42846" y2= "17436" />
    <line class="fil0 str11" x1="43582" y1="6173" x2="43582" y2= "17436" />
    <line class="fil0 str11" x1="44317" y1="6173" x2="44317" y2= "17436" />
    <line class="fil0 str11" x1="45053" y1="6173" x2="45053" y2= "17436" />
    <line class="fil0 str11" x1="45788" y1="6173" x2="45788" y2= "17436" />
    <line class="fil0 str11" x1="46524" y1="6173" x2="46524" y2= "17436" />
    <line class="fil0 str11" x1="47260" y1="6173" x2="47260" y2= "17436" />
    <line class="fil0 str11" x1="47995" y1="6173" x2="47995" y2= "17436" />
    <line class="fil0 str11" x1="48731" y1="6173" x2="48731" y2= "17436" />
    <line class="fil0 str11" x1="49466" y1="6173" x2="49466" y2= "17436" />
    <line class="fil0 str11" x1="50202" y1="6173" x2="50202" y2= "17436" />
    <line class="fil0 str11" x1="50937" y1="6173" x2="50937" y2= "17436" />
    <line class="fil0 str11" x1="51673" y1="6173" x2="51673" y2= "17436" />
    <line class="fil0 str11" x1="52409" y1="6173" x2="52409" y2= "17436" />
    <line class="fil0 str11" x1="53144" y1="6173" x2="53144" y2= "17436" />
    <line class="fil0 str11" x1="53880" y1="6173" x2="53880" y2= "17436" />
    <line class="fil0 str11" x1="54615" y1="6173" x2="54615" y2= "17436" />
    <line class="fil0 str11" x1="55351" y1="6173" x2="55351" y2= "17436" />
    <line class="fil0 str11" x1="56086" y1="6173" x2="56086" y2= "17436" />
    <line class="fil0 str11" x1="56822" y1="6173" x2="56822" y2= "17436" />
    <line class="fil0 str11" x1="57558" y1="6173" x2="57558" y2= "17436" />
    <line class="fil0 str11" x1="58293" y1="6173" x2="58293" y2= "17436" />
    <line class="fil0 str11" x1="59029" y1="6173" x2="59029" y2= "17436" />
    <line class="fil0 str11" x1="59764" y1="6173" x2="59764" y2= "17436" />
    <line class="fil0 str11" x1="60500" y1="6173" x2="60500" y2= "17436" />
    <line class="fil0 str11" x1="61235" y1="6173" x2="61235" y2= "17436" />
    <line class="fil0 str11" x1="61971" y1="6173" x2="61971" y2= "17436" />
    <line class="fil0 str11" x1="62707" y1="6173" x2="62707" y2= "17436" />
    <line class="fil0 str11" x1="63442" y1="6173" x2="63442" y2= "17436" />
    <line class="fil0 str11" x1="64178" y1="6173" x2="64178" y2= "17436" />
    <line class="fil0 str11" x1="65649" y1="6173" x2="65649" y2= "17436" />
    <line class="fil0 str11" x1="66385" y1="6173" x2="66385" y2= "17436" />
    <line class="fil0 str11" x1="64913" y1="6173" x2="64913" y2= "17436" />
    <line class="fil0 str11" x1="67120" y1="6173" x2="67120" y2= "17436" />
    <rect class="fil0 str10" x="37687" y="6195" width="30202" height="11219"/>
    <line class="fil0 str7" x1="37412" y1="17417" x2="37674" y2= "17417" />
    <g>
     <path class="fil0 str7" d="M37412 15813c88,0 175,0 263,0"/>
     <path class="fil0 str7" d="M37412 14210c88,0 175,0 263,0"/>
     <path class="fil0 str7" d="M37412 12606c88,0 175,0 263,0"/>
     <path class="fil0 str7" d="M37412 11003c88,0 175,0 263,0"/>
     <path class="fil0 str7" d="M37412 9399c88,0 175,0 263,0"/>
     <path class="fil0 str7" d="M37412 7796c88,0 175,0 263,0"/>
    </g>
    <line class="fil0 str7" x1="37412" y1="6193" x2="37674" y2= "6193" />
    <polyline class="fil0 str12" points="37679,17249 38440,16440 39130,15607 39891,15036 40581,14442 41343,14394 42104,13799 42818,13752 43603,13490 44269,13395 45030,13228 45792,13157 46482,13062 47267,13038 48004,12396 48718,12348 49456,12181 50193,12039 50931,11872 51716,11706 52382,11491 53143,11301 53857,11087 54618,10873 55380,10730 56093,10397 56831,11135 57545,10016 58306,9731 59091,9469 59781,9184 60519,8803 61304,8613 61994,8351 62755,8137 63445,7899 64206,7732 64968,7376 65681,7090 66443,6805 67109,6638 67918,6329 "/>
    <line class="fil0 str7" x1="39897" y1="17408" x2="39897" y2= "17014" />
    <line class="fil0 str7" x1="42840" y1="17408" x2="42840" y2= "17145" />
    <line class="fil0 str7" x1="45784" y1="17408" x2="45784" y2= "17145" />
    <line class="fil0 str7" x1="48728" y1="17408" x2="48728" y2= "17014" />
    <line class="fil0 str7" x1="51671" y1="17408" x2="51671" y2= "17145" />
    <line class="fil0 str7" x1="54615" y1="17408" x2="54615" y2= "17145" />
    <line class="fil0 str7" x1="57559" y1="17408" x2="57559" y2= "17014" />
    <line class="fil0 str7" x1="60502" y1="17408" x2="60502" y2= "17145" />
    <line class="fil0 str7" x1="63446" y1="17408" x2="63446" y2= "17145" />
    <line class="fil0 str7" x1="66390" y1="17408" x2="66390" y2= "17014" />
    <line class="fil0 str7" x1="38425" y1="17408" x2="38425" y2= "17145" />
    <line class="fil0 str7" x1="39161" y1="17408" x2="39161" y2= "17145" />
    <line class="fil0 str7" x1="40633" y1="17408" x2="40633" y2= "17145" />
    <line class="fil0 str7" x1="41369" y1="17408" x2="41369" y2= "17145" />
    <line class="fil0 str7" x1="42104" y1="17408" x2="42104" y2= "17014" />
    <line class="fil0 str7" x1="43576" y1="17408" x2="43576" y2= "17145" />
    <line class="fil0 str7" x1="44312" y1="17408" x2="44312" y2= "17014" />
    <line class="fil0 str7" x1="45048" y1="17408" x2="45048" y2= "17145" />
    <line class="fil0 str7" x1="46520" y1="17408" x2="46520" y2= "17014" />
    <line class="fil0 str7" x1="47256" y1="17408" x2="47256" y2= "17145" />
    <line class="fil0 str7" x1="47992" y1="17408" x2="47992" y2= "17145" />
    <line class="fil0 str7" x1="49464" y1="17408" x2="49464" y2= "17145" />
    <line class="fil0 str7" x1="50200" y1="17408" x2="50200" y2= "17145" />
    <line class="fil0 str7" x1="50935" y1="17408" x2="50935" y2= "17014" />
    <line class="fil0 str7" x1="52407" y1="17408" x2="52407" y2= "17145" />
    <line class="fil0 str7" x1="53143" y1="17408" x2="53143" y2= "17014" />
    <line class="fil0 str7" x1="53879" y1="17408" x2="53879" y2= "17145" />
    <line class="fil0 str7" x1="55351" y1="17408" x2="55351" y2= "17014" />
    <line class="fil0 str7" x1="56087" y1="17408" x2="56087" y2= "17145" />
    <line class="fil0 str7" x1="56823" y1="17408" x2="56823" y2= "17145" />
    <line class="fil0 str7" x1="58295" y1="17408" x2="58295" y2= "17145" />
    <line class="fil0 str7" x1="59030" y1="17408" x2="59030" y2= "17145" />
    <line class="fil0 str7" x1="59766" y1="17408" x2="59766" y2= "17014" />
    <line class="fil0 str7" x1="61238" y1="17408" x2="61238" y2= "17145" />
    <line class="fil0 str7" x1="61974" y1="17408" x2="61974" y2= "17014" />
    <line class="fil0 str7" x1="62710" y1="17408" x2="62710" y2= "17145" />
    <line class="fil0 str7" x1="64182" y1="17408" x2="64182" y2= "17014" />
    <line class="fil0 str7" x1="64918" y1="17408" x2="64918" y2= "17145" />
    <line class="fil0 str7" x1="65654" y1="17408" x2="65654" y2= "17145" />
    <line class="fil0 str7" x1="67125" y1="17408" x2="67125" y2= "17145" />
    <text x="36096" y="5022"  class="fil2 fnt7">    </text>
    <text x="36665" y="5022"  class="fil2 fnt1">人口</text>
    <text x="38139" y="5022"  class="fil2 fnt2">(</text>
    <text x="39719" y="5022"  class="fil2 fnt2">)</text>
    <text x="38455" y="5022"  class="fil2 fnt2">万人</text>
    <text x="51434" y="19544"  class="fil2 fnt1">年</text>
    <text x="52171" y="19544"  class="fil2 fnt1">份</text>
    <text x="67259" y="18272"  class="fil2 fnt5">1999</text>
    <text x="47812" y="4826"  class="fil2 fnt4">Population change of Nagqu</text>
    <text x="33800" y="5575"  class="fil2 fnt8">        </text>
    <text x="34692" y="5575"  class="fil2 fnt0">Population</text>
    <text x="37430" y="5575"  class="fil2 fnt6">(0.01 million person)</text>
    <text x="53046" y="19498"  class="fil2 fnt2">(</text>
    <text x="54526" y="19498"  class="fil2 fnt2">)</text>
    <text x="53362" y="19498"  class="fil2 fnt0">Year</text>
   </g>
   <g>
    <text x="14380" y="21957"  class="fil2 fnt1">年</text>
    <text x="15117" y="21957"  class="fil2 fnt1">份</text>
    <g>
     <polygon class="fil1" points="31052,4740 31058,19713 1717,19713 1714,4759 "/>
     <path class="fil10" d="M30703 5646c0,0 -450,6476 -511,7965 -61,1489 -245,50 -245,50l-143 -1037c0,0 -225,-3213 -225,-3447 0,-234 -184,-2075 -327,-2543 -143,-469 -818,469 -920,636 -102,167 -143,485 -348,619 -205,134 -327,117 -614,251 -286,134 -348,1740 -429,2242 -82,502 -205,502 -327,234 -123,-268 -389,-2309 -511,-2912 -123,-602 -368,134 -368,134 0,0 -441,1093 -724,1424 -283,332 -442,-671 -442,-671 0,0 -327,-2125 -491,-2527 -164,-402 -532,284 -532,284 0,0 -675,2677 -736,3296 -61,619 -164,-50 -429,-619 -266,-569 -307,-552 -716,-586 -409,-33 -695,2510 -695,3464 0,954 -245,770 -429,686 -184,-84 -675,-1037 -787,-1223 -112,-186 -665,-333 -1176,-667 -511,-335 -532,-251 -736,117 -205,368 -311,710 -429,1054 -119,344 -525,-338 -634,-502 -109,-164 -444,-1010 -470,-1372 -26,-362 -184,-837 -450,-636 -266,201 -511,335 -675,100 -164,-234 -266,-720 -552,-753 -286,-33 -532,2226 -675,2443 -143,218 -184,-318 -368,-1021 -184,-703 -450,67 -532,351 -82,284 -664,898 -733,1176 -70,278 -310,-205 -412,-540 -102,-335 -414,-998 -573,-937 -159,61 -348,1941 -348,2159 0,218 -552,2610 -777,3179 -225,569 -245,33 -368,-268 -123,-301 -327,-1506 -470,-1857 -143,-351 -777,-1071 -839,-1188 -61,-117 -102,-803 -143,-971 -41,-167 -65,-1277 -133,-1634 -68,-357 -171,-691 -235,-341 -65,350 -82,870 -82,870 0,0 -368,4786 -409,6158 -41,1372 -184,1288 -348,1088 -164,-201 -205,-904 -225,-2610 -20,-1707 -573,-1991 -798,-2309 -225,-318 -920,-234 -1329,0 -409,234 -1125,218 -1432,167 -307,-50 -307,-535 -450,-720 -143,-184 -920,-50 -920,-50l-315 82 2 7777 29340 -12 -5 -14156 -349 101z"/>
     <path class="fil11" d="M30662 8981c0,0 0,14 -150,-65 -379,-201 -460,163 -538,353 0,0 -300,1508 -379,2099 -220,1643 -686,-1216 -741,-1414 -115,-418 -203,29 -203,29 0,0 -97,317 -291,1428 -28,158 -216,2346 -485,1010 0,0 -212,-1385 -309,-2135 -97,-750 -317,-123 -317,-123 0,0 -203,1594 -309,2236 -106,642 -167,692 -212,779 -66,130 -198,-457 -203,-476 0,0 -361,-1789 -361,-1825 0,-36 -370,-1385 -458,-1587 -88,-202 -212,-382 -414,-361 -203,22 -353,534 -467,721 -115,188 -282,-7 -520,-317 -119,-155 -229,-233 -348,-268 -877,-259 -952,2721 -1028,3185 -212,1302 -294,962 -484,19l-123 -1046c0,0 -141,-1327 -264,-1623 -123,-296 -300,231 -300,231 -131,337 -239,1019 -864,959 -349,-34 -452,-342 -626,-563 -194,-245 -309,180 -309,180 0,0 -309,1378 -291,1428 18,51 -176,411 -256,433 -79,22 -123,-289 -123,-289l-115 -1169 -97 -1068c0,0 -115,-1125 -238,-1940 -123,-815 -247,-108 -247,-108l-291 2171c0,0 -185,2070 -220,2200 -35,130 -141,58 -229,-14 -88,-72 -291,-426 -388,-678 -97,-252 -185,-101 -388,29 -203,130 -273,224 -414,123 -141,-101 -309,-628 -494,-952 -185,-325 -494,404 -573,577 -79,173 -185,245 -229,202 -44,-43 -132,-94 -150,-180 -18,-87 -326,-620 -423,-707 -97,-87 -194,144 -212,260 -12,79 -245,946 -410,1541 -325,1176 -886,1145 -1019,60 -9,-72 -317,-1363 -353,-1493 -35,-130 -194,-22 -247,14 -287,195 -87,1793 -652,1132 -62,-72 -194,-664 -203,-866 -18,-408 -30,-1876 -724,-1242 -61,56 -134,122 -219,196 -547,476 -873,1161 -873,1334 0,173 -379,1471 -441,1645 -62,173 -106,159 -203,87 -97,-72 -132,-180 -132,-180l-150 -353 -326 -1010c0,0 -370,-1998 -414,-2200 -49,-227 -88,-547 -186,-853 -724,-2256 -946,1407 -1028,1810 -145,705 -490,1257 -1409,797 -107,-54 -89,-132 -178,-229 -151,-165 -369,361 -446,444 -59,63 -410,146 -571,176 -157,29 -583,-3 -666,-151 -92,-163 -658,-203 -827,-103 -65,39 -428,15 -613,0 -184,-15 -291,-54 -291,-54l-286 -64 2 8547 29340 0 -4 -10592 -392 -140z"/>
     <g transform="matrix(1.2 0 0 1 -49090.6 -9948.75)">
      <text x="50000" y="11194"  class="fil2 fnt3">那曲气温与降水变化</text>
     </g>
     <line class="fil0 str7" x1="2344" y1="19701" x2="2349" y2= "19434" />
     <line class="fil0 str7" x1="7690" y1="19701" x2="7695" y2= "19434" />
     <line class="fil0 str7" x1="8396" y1="19713" x2="8400" y2= "19287" />
     <line class="fil0 str7" x1="7063" y1="19695" x2="7068" y2= "19428" />
     <line class="fil0 str7" x1="6349" y1="19701" x2="6353" y2= "19434" />
     <line class="fil0 str7" x1="5724" y1="19701" x2="5728" y2= "19434" />
     <line class="fil0 str7" x1="5018" y1="19704" x2="5023" y2= "19277" />
     <line class="fil0 str7" x1="4388" y1="19689" x2="4392" y2= "19422" />
     <line class="fil0 str7" x1="3686" y1="19714" x2="3690" y2= "19446" />
     <line class="fil0 str7" x1="3052" y1="19707" x2="3056" y2= "19440" />
     <line class="fil0 str7" x1="13735" y1="19707" x2="13740" y2= "19440" />
     <line class="fil0 str7" x1="14366" y1="19701" x2="14370" y2= "19434" />
     <line class="fil0 str7" x1="15066" y1="19708" x2="15071" y2= "19269" />
     <line class="fil0 str7" x1="13028" y1="19719" x2="13033" y2= "19452" />
     <line class="fil0 str7" x1="12398" y1="19701" x2="12403" y2= "19434" />
     <line class="fil0 str7" x1="11688" y1="19717" x2="11693" y2= "19294" />
     <line class="fil0 str7" x1="11067" y1="19720" x2="11071" y2= "19453" />
     <line class="fil0 str7" x1="10358" y1="19707" x2="10362" y2= "19440" />
     <line class="fil0 str7" x1="9727" y1="19707" x2="9732" y2= "19440" />
     <line class="fil0 str7" x1="9022" y1="19689" x2="9026" y2= "19422" />
     <line class="fil0 str7" x1="20410" y1="19689" x2="20415" y2= "19422" />
     <line class="fil0 str7" x1="21041" y1="19701" x2="21045" y2= "19434" />
     <line class="fil0 str7" x1="19709" y1="19707" x2="19714" y2= "19440" />
     <line class="fil0 str7" x1="19083" y1="19689" x2="19087" y2= "19422" />
     <line class="fil0 str7" x1="18364" y1="19712" x2="18368" y2= "19294" />
     <line class="fil0 str7" x1="17734" y1="19701" x2="17738" y2= "19434" />
     <line class="fil0 str7" x1="17032" y1="19702" x2="17037" y2= "19434" />
     <line class="fil0 str7" x1="16407" y1="19695" x2="16412" y2= "19428" />
     <line class="fil0 str7" x1="15697" y1="19701" x2="15702" y2= "19434" />
     <line class="fil0 str7" x1="26380" y1="19701" x2="26385" y2= "19434" />
     <line class="fil0 str7" x1="27006" y1="19707" x2="27011" y2= "19440" />
     <line class="fil0 str7" x1="27710" y1="19708" x2="27715" y2= "19441" />
     <line class="fil0 str7" x1="25743" y1="19714" x2="25748" y2= "19446" />
     <line class="fil0 str7" x1="25049" y1="19703" x2="25053" y2= "19285" />
     <line class="fil0 str7" x1="24408" y1="19695" x2="24413" y2= "19427" />
     <line class="fil0 str7" x1="23703" y1="19707" x2="23707" y2= "19440" />
     <line class="fil0 str7" x1="23078" y1="19707" x2="23082" y2= "19440" />
     <line class="fil0 str7" x1="22372" y1="19695" x2="22377" y2= "19428" />
     <line class="fil0 str7" x1="21662" y1="19713" x2="21667" y2= "19295" />
     <line class="fil0 str7" x1="30378" y1="19708" x2="30383" y2= "19441" />
     <line class="fil0 str7" x1="29761" y1="19708" x2="29766" y2= "19441" />
     <line class="fil0 str7" x1="28420" y1="19694" x2="28425" y2= "19276" />
     <line class="fil0 str7" x1="29052" y1="19701" x2="29057" y2= "19434" />
     <line class="fil0 str7" x1="1418" y1="8601" x2="1705" y2= "8601" />
     <line class="fil0 str7" x1="1418" y1="6660" x2="1706" y2= "6660" />
     <line class="fil0 str7" x1="1418" y1="17924" x2="1705" y2= "17924" />
     <line class="fil0 str7" x1="1428" y1="16060" x2="1716" y2= "16060" />
     <line class="fil0 str7" x1="1417" y1="14196" x2="1705" y2= "14196" />
     <line class="fil0 str7" x1="1415" y1="12393" x2="1703" y2= "12393" />
     <line class="fil0 str7" x1="1422" y1="10465" x2="1710" y2= "10465" />
     <line class="fil0 str7" x1="31068" y1="17666" x2="31359" y2= "17663" />
     <line class="fil0 str7" x1="31068" y1="11300" x2="31359" y2= "11297" />
     <line class="fil0 str7" x1="31068" y1="13419" x2="31359" y2= "13415" />
     <line class="fil0 str7" x1="31062" y1="6995" x2="31353" y2= "6992" />
     <line class="fil0 str7" x1="31068" y1="9181" x2="31359" y2= "9178" />
     <line class="fil0 str7" x1="31068" y1="15538" x2="31359" y2= "15534" />
     <text x="572" y="4988"  class="fil2 fnt0">0</text>
     <text x="1043" y="4988"  class="fil2 fnt0">0</text>
     <text x="888" y="4988"  class="fil2 fnt9">.</text>
     <text x="245" y="6889"  class="fil2 fnt9">-</text>
     <text x="907" y="6889"  class="fil2 fnt9">.</text>
     <text x="591" y="6889"  class="fil2 fnt0">0</text>
     <text x="1062" y="6889"  class="fil2 fnt0">5</text>
     <text x="226" y="8823"  class="fil2 fnt9">-</text>
     <text x="888" y="8823"  class="fil2 fnt9">.</text>
     <text x="572" y="8823"  class="fil2 fnt0">1</text>
     <text x="1043" y="8823"  class="fil2 fnt0">0</text>
     <text x="245" y="10681"  class="fil2 fnt9">-</text>
     <text x="907" y="10681"  class="fil2 fnt9">.</text>
     <text x="591" y="10681"  class="fil2 fnt0">1</text>
     <text x="1062" y="10681"  class="fil2 fnt0">5</text>
     <text x="226" y="12628"  class="fil2 fnt9">-</text>
     <text x="888" y="12628"  class="fil2 fnt9">.</text>
     <text x="572" y="12628"  class="fil2 fnt0">2</text>
     <text x="1043" y="12628"  class="fil2 fnt0">0</text>
     <text x="245" y="14422"  class="fil2 fnt9">-</text>
     <text x="907" y="14422"  class="fil2 fnt9">.</text>
     <text x="591" y="14422"  class="fil2 fnt0">2</text>
     <text x="1062" y="14422"  class="fil2 fnt0">5</text>
     <text x="226" y="16314"  class="fil2 fnt9">-</text>
     <text x="888" y="16314"  class="fil2 fnt9">.</text>
     <text x="572" y="16314"  class="fil2 fnt0">3</text>
     <text x="1043" y="16314"  class="fil2 fnt0">0</text>
     <text x="245" y="18173"  class="fil2 fnt9">-</text>
     <text x="907" y="18173"  class="fil2 fnt9">.</text>
     <text x="591" y="18173"  class="fil2 fnt0">3</text>
     <text x="1062" y="18173"  class="fil2 fnt0">5</text>
     <text x="226" y="19971"  class="fil2 fnt9">-</text>
     <text x="888" y="19971"  class="fil2 fnt9">.</text>
     <text x="572" y="19971"  class="fil2 fnt0">4</text>
     <text x="1043" y="19971"  class="fil2 fnt0">0</text>
     <text x="31503" y="4987"  class="fil2 fnt0">700</text>
     <text x="31503" y="7211"  class="fil2 fnt0">600</text>
     <text x="31503" y="9434"  class="fil2 fnt0">500</text>
     <text x="31503" y="11470"  class="fil2 fnt0">400</text>
     <text x="31503" y="13655"  class="fil2 fnt0">300</text>
     <text x="31503" y="15717"  class="fil2 fnt0">200</text>
     <text x="31503" y="17833"  class="fil2 fnt0">100</text>
     <text x="31503" y="20019"  class="fil2 fnt0">0</text>
     <path class="fil0 str13" d="M1731 11172c0,0 297,67 347,79 50,12 123,25 215,32 184,15 547,39 613,0 169,-101 735,-61 827,103 83,148 509,180 666,151 161,-29 512,-112 571,-176 77,-83 295,-609 446,-444 89,98 71,176 178,229 919,460 1264,-92 1409,-797 83,-403 304,-4066 1028,-1810 98,306 136,625 186,853 44,202 414,2200 414,2200l326 1010 150 353c0,0 35,108 132,180 97,72 141,87 203,-87 62,-173 441,-1471 441,-1645 0,-173 326,-858 873,-1334 85,-74 158,-140 219,-196 694,-634 706,834 724,1242 9,202 141,793 203,866 565,660 366,-937 652,-1132 53,-36 212,-144 247,-14 35,130 344,1421 353,1493 133,1084 694,1116 1019,-60 164,-595 397,-1462 410,-1541 18,-115 115,-346 212,-260 97,87 406,620 423,707 18,87 106,137 150,180 44,43 150,-29 229,-202 79,-173 388,-902 573,-577 185,325 353,851 494,952 141,101 212,7 414,-123 203,-130 291,-281 388,-29 97,252 300,606 388,678 88,72 194,144 229,14 35,-130 220,-2200 220,-2200l291 -2171c0,0 123,-707 247,108 123,815 238,1940 238,1940l97 1068 115 1169c0,0 44,310 123,289 79,-22 273,-382 256,-433 -18,-50 291,-1428 291,-1428 0,0 115,-426 309,-180 174,220 277,529 626,563 625,60 733,-622 864,-959 0,0 176,-527 300,-231 123,296 264,1623 264,1623l123 1046c190,943 272,1283 484,-19 76,-464 150,-3444 1028,-3185 119,35 229,113 348,268 238,310 406,505 520,317 115,-188 264,-700 467,-721 203,-22 326,159 414,361 88,202 458,1551 458,1587 0,36 361,1825 361,1825 5,19 137,606 203,476 44,-87 106,-137 212,-779 106,-642 309,-2236 309,-2236 0,0 220,-628 317,123 97,750 309,2135 309,2135 269,1336 457,-852 485,-1010 194,-1111 291,-1428 291,-1428 0,0 88,-447 203,-29 54,198 520,3057 741,1414 79,-591 379,-2099 379,-2099 78,-191 158,-554 538,-353 28,15 51,26 69,35"/>
     <path class="fil0 str14" d="M1731 11952c0,0 348,-106 423,-116 225,-29 689,-70 797,68 143,184 143,669 450,720 307,50 1023,67 1432,-167 409,-234 1104,-318 1329,0 225,318 777,602 798,2309 20,1707 61,2410 225,2610 164,201 307,284 348,-1088 41,-1372 409,-6158 409,-6158 0,0 17,-520 82,-870 65,-350 167,-16 235,341 68,357 92,1466 133,1634 41,167 82,853 143,971 61,117 695,837 839,1188 143,351 348,1556 470,1857 123,301 143,837 368,268 225,-569 777,-2962 777,-3179 0,-218 189,-2098 348,-2159 159,-61 470,602 573,937 102,335 342,818 412,540 69,-278 652,-891 733,-1176 82,-284 348,-1054 532,-351 184,703 225,1238 368,1021 143,-218 389,-2477 675,-2443 286,33 389,519 552,753 164,234 409,100 675,-100 266,-201 424,274 450,636 26,362 362,1208 470,1372 109,164 515,846 634,502 119,-344 225,-686 429,-1054 205,-368 225,-452 736,-117 511,335 1064,482 1176,667 112,186 603,1140 787,1223 184,84 429,268 429,-686 0,-954 286,-3497 695,-3464 409,33 450,17 716,586 266,569 368,1238 429,619 61,-619 736,-3296 736,-3296 0,0 368,-686 532,-284 164,402 491,2527 491,2527 0,0 159,1003 442,671 283,-332 724,-1424 724,-1424 0,0 245,-736 368,-134 123,602 389,2644 511,2912 123,268 245,268 327,-234 82,-502 143,-2108 429,-2242 286,-134 409,-117 614,-251 205,-134 245,-452 348,-619 102,-167 777,-1104 920,-636 143,469 327,2309 327,2543 0,234 225,3447 225,3447l143 1037c0,0 184,1439 245,-50 61,-1489 511,-7965 511,-7965"/>
     <text x="1140" y="20656"  class="fil2 fnt5">1955</text>
     <text x="4327" y="20654"  class="fil2 fnt5">1960</text>
     <text x="7683" y="20656"  class="fil2 fnt5">1965</text>
     <text x="11013" y="20652"  class="fil2 fnt5">1970</text>
     <text x="14369" y="20656"  class="fil2 fnt5">1975</text>
     <text x="17699" y="20652"  class="fil2 fnt5">1980</text>
     <text x="21055" y="20656"  class="fil2 fnt5">1985</text>
     <text x="24386" y="20652"  class="fil2 fnt5">1990</text>
     <text x="27742" y="20656"  class="fil2 fnt5">1995</text>
     <text x="30390" y="20652"  class="fil2 fnt5">1999</text>
     <line class="fil0 str15" x1="1998" y1="13335" x2="30547" y2= "7926" />
     <polyline class="fil0 str16" points="2020,11000 10822,11018 17489,10893 19515,10839 23177,10654 26059,10467 27219,10406 30692,10162 "/>
     <line class="fil0 str7" x1="1419" y1="4752" x2="1707" y2= "4752" />
     <line class="fil0 str7" x1="31070" y1="4746" x2="31361" y2= "4742" />
     <text x="28727" y="3462"  class="fil2 fnt1">年降水量</text>
     <text x="31675" y="3462"  class="fil2 fnt2">(</text>
     <text x="33255" y="3462"  class="fil2 fnt2">)</text>
     <text x="31991" y="3462"  class="fil2 fnt2">毫米</text>
     <line class="fil0 str0" x1="31045" y1="4744" x2="31311" y2= "4744" />
     <text x="413" y="3488"  class="fil2 fnt1">年均气温</text>
     <text x="3361" y="3488"  class="fil2 fnt2">(</text>
     <text x="4309" y="3488"  class="fil2 fnt2">)</text>
     <text x="3677" y="3488"  class="fil2 fnt2">℃</text>
     <line class="fil0 str15" x1="17570" y1="17260" x2="19659" y2= "17260" />
     <line class="fil0 str16" x1="17570" y1="16266" x2="19659" y2= "16268" />
     <text x="19957" y="16573"  class="fil2 fnt1">降水趋势线 </text>
     <text x="24012" y="16573"  class="fil2 fnt0">Trend line of precipitation</text>
     <text x="19957" y="17505"  class="fil2 fnt1">气温趋势线 </text>
     <text x="24012" y="17505"  class="fil2 fnt0">Trend line of temperature</text>
     <text x="10668" y="17535"  class="fil2 fnt1">气  温 </text>
     <text x="13248" y="17535"  class="fil2 fnt0">Temperature</text>
     <text x="10668" y="16535"  class="fil2 fnt1">降水量 </text>
     <text x="13248" y="16535"  class="fil2 fnt0">Precipitation</text>
     <polyline class="fil0 str13" points="8291,16266 8995,16091 9585,16404 10380,16266 "/>
     <polyline class="fil0 str14" points="8291,17254 8995,17079 9585,17392 10380,17254 "/>
     <polygon class="fil0 str10" points="31052,4740 31058,19713 1717,19713 1714,4759 "/>
     <text x="7499" y="2450"  class="fil2 fnt4">Temperature and precipitation changes of Nagqu</text>
     <text x="867" y="4037"  class="fil2 fnt0">Temperature</text>
     <text x="28923" y="4028"  class="fil2 fnt0">Precipitation</text>
     <text x="32152" y="4028"  class="fil2 fnt10">(</text>
     <text x="33115" y="4028"  class="fil2 fnt10">)</text>
     <text x="32296" y="4028"  class="fil2 fnt6">mm</text>
     <text x="15979" y="21911"  class="fil2 fnt2">(</text>
     <text x="17459" y="21911"  class="fil2 fnt2">)</text>
     <text x="16294" y="21911"  class="fil2 fnt0">Year</text>
    </g>
   </g>
  </g>
 </g>
</svg>
