<?xml version="1.0" encoding="UTF-8"?>
<!DOCTYPE svg PUBLIC "-//W3C//DTD SVG 1.1//EN" "http://www.w3.org/Graphics/SVG/1.1/DTD/svg11.dtd">
<!-- Creator: CorelDRAW X6 -->
<svg xmlns="http://www.w3.org/2000/svg" xml:space="preserve" width="1000px" height="717px" version="1.1" style="shape-rendering:geometricPrecision; text-rendering:geometricPrecision; image-rendering:optimizeQuality; fill-rule:evenodd; clip-rule:evenodd"
viewBox="0 0 100000 71739"
 xmlns:xlink="http://www.w3.org/1999/xlink">
 <defs>
  <style type="text/css">
   <![CDATA[
    .str3 {stroke:#332C2B;stroke-width:33.1304}
    .str1 {stroke:#00A2E9;stroke-width:34.7826;stroke-linejoin:round}
    .str4 {stroke:#332C2B;stroke-width:43.4783}
    .str2 {stroke:#332C2B;stroke-width:43.4783;stroke-linejoin:round}
    .str0 {stroke:#6D583D;stroke-width:43.4783;stroke-linejoin:round}
    .str5 {stroke:#823520;stroke-width:43.4783;stroke-linejoin:round}
    .str12 {stroke:#332C2B;stroke-width:52.1739}
    .str18 {stroke:#B6B6B7;stroke-width:52.1739}
    .str8 {stroke:#FEFEFE;stroke-width:52.1739}
    .str13 {stroke:#332C2B;stroke-width:65.2174}
    .str17 {stroke:#332C2B;stroke-width:86.9565}
    .str10 {stroke:#E62129;stroke-width:86.9565}
    .str19 {stroke:#AC6249;stroke-width:108.696}
    .str16 {stroke:#006B9E;stroke-width:108.696}
    .str9 {stroke:#657955;stroke-width:108.696}
    .str6 {stroke:#FEFEFE;stroke-width:434.783}
    .str7 {stroke:#E9CF8E;stroke-width:869.565}
    .str11 {stroke:#8ABFB9;stroke-width:152.174;stroke-dasharray:152.173913 152.173913}
    .str14 {stroke:#8ABFB9;stroke-width:152.174;stroke-dasharray:304.347826 152.173913}
    .str15 {stroke:#F08519;stroke-width:173.913;stroke-dasharray:173.913043 173.913043}
    .fil4 {fill:none}
    .fil3 {fill:#332C2B}
    .fil11 {fill:#A0D9F6}
    .fil2 {fill:#FEFEFE}
    .fil13 {fill:black}
    .fil1 {fill:#00A2E9}
    .fil0 {fill:#6D583D}
    .fil5 {fill:#823520}
    .fil10 {fill:#A9BAA1}
    .fil15 {fill:#C2C668}
    .fil12 {fill:#E0F1F4}
    .fil7 {fill:#EBECD6}
    .fil9 {fill:#FBE4DF}
    .fil6 {fill:#FEFEFE;fill-rule:nonzero}
    .fil14 {fill:url(#id0)}
    .fil8 {fill:url(#id1)}
    .fnt11 {font-weight:normal;font-size:766.913px;font-family:'Times New Roman'}
    .fnt10 {font-weight:normal;font-size:766.913px;font-family:'方正书宋简体'}
    .fnt0 {font-weight:normal;font-size:869.565px;font-family:'Times New Roman'}
    .fnt4 {font-weight:normal;font-size:869.652px;font-family:'Times New Roman'}
    .fnt3 {font-weight:normal;font-size:920.304px;font-family:'Arial'}
    .fnt6 {font-weight:normal;font-size:920.304px;font-family:'Times New Roman'}
    .fnt2 {font-weight:normal;font-size:920.304px;font-family:'宋体'}
    .fnt14 {font-weight:normal;font-size:920.304px;font-family:'方正细圆简体'}
    .fnt7 {font-weight:normal;font-size:956.652px;font-family:'方正书宋简体'}
    .fnt5 {font-weight:normal;font-size:1043.48px;font-family:'方正书宋简体'}
    .fnt1 {font-weight:normal;font-size:1073.65px;font-family:'宋体'}
    .fnt12 {font-weight:normal;font-size:1086.96px;font-family:'宋体'}
    .fnt9 {font-weight:normal;font-size:1227.04px;font-family:'Arial'}
    .fnt13 {font-weight:normal;font-size:1533.83px;font-family:'方正书宋简体'}
    .fnt8 {font-weight:normal;font-size:1533.83px;font-family:'方正准圆简体'}
    .fnt15 {font-weight:normal;font-size:383.478px;font-family:'Times New Roman';baseline-shift:super}
   ]]>
  </style>
  <linearGradient id="id0" gradientUnits="userSpaceOnUse" x1="74160" y1="45489" x2="74160" y2="66514.5">
   <stop offset="0" style="stop-color:#F4E8D2"/>
   <stop offset="0.160784" style="stop-color:#F9F3E8"/>
   <stop offset="1" style="stop-color:#FEFEFE"/>
  </linearGradient>
  <linearGradient id="id1" gradientUnits="userSpaceOnUse" x1="24113" y1="12630.8" x2="29435.2" y2="32541.4">
   <stop offset="0" style="stop-color:#FEF4D7"/>
   <stop offset="0.270588" style="stop-color:#FEF9EA"/>
   <stop offset="1" style="stop-color:#FEFEFE"/>
  </linearGradient>
 </defs>
<symbol id="符号25" viewBox="49900 35770 200 200">
 <path class="fil0 str0" d="M50078 35870c0,-43 -35,-78 -78,-78 -43,0 -78,35 -78,78 0,43 35,78 78,78 43,0 78,-35 78,-78z"/>
</symbol>
<symbol id="符号4" viewBox="49635 35713 713 313">
 <polygon class="fil1" points="49900,35826 49902,35826 49908,35826 49918,35827 49930,35827 49945,35827 49962,35826 49981,35825 50001,35824 50022,35822 50043,35820 50064,35817 50084,35813 50104,35808 50121,35802 50137,35795 50151,35787 50163,35778 50175,35770 50187,35763 50199,35756 50211,35750 50223,35745 50235,35741 50247,35738 50260,35736 50272,35735 50284,35736 50296,35738 50309,35741 50321,35746 50347,35766 50348,35767 50344,35767 50337,35766 50328,35765 50318,35764 50306,35763 50293,35763 50279,35763 50264,35765 50249,35768 50234,35773 50218,35779 50203,35788 50189,35799 50175,35813 50155,35827 50133,35840 50112,35852 50091,35862 50070,35871 50049,35879 50030,35885 50011,35891 49994,35896 49978,35900 49952,35907 49942,35909 49931,35911 49923,35912 "/>
 <path class="fil1 str1" d="M49932 35870c0,-77 -63,-139 -140,-139 -77,0 -140,62 -140,139 0,77 63,139 140,139 77,0 140,-62 140,-139z"/>
</symbol>
<symbol id="符号8" viewBox="49717 35587 565 565">
 <path class="fil2 str2" d="M50261 35870c0,-144 -117,-261 -261,-261 -144,0 -261,117 -261,261 0,144 117,261 261,261 144,0 261,-117 261,-261z"/>
</symbol>
<symbol id="符号32" viewBox="49913 35783 174 174">
 <path class="fil0 str0" d="M50065 35870c0,-36 -29,-65 -65,-65 -36,0 -65,29 -65,65 0,36 29,65 65,65 36,0 65,-29 65,-65z"/>
</symbol>
<symbol id="符号11" viewBox="49505 35375 990 990">
 <circle class="fil2 str3" cx="50000" cy="35870" r="478"/>
 <circle class="fil3 str3" cx="50000" cy="35870" r="283"/>
</symbol>
<symbol id="符号43" viewBox="49724 35593 553 553">
 <line class="fil4 str4" x1="49739" y1="35609" x2="50261" y2= "36130" />
 <line class="fil4 str4" x1="49739" y1="36130" x2="50261" y2= "35609" />
</symbol>
<symbol id="符号41" viewBox="49723 35592 555 555">
 <circle class="fil2 str3" cx="50000" cy="35870" r="261"/>
 <circle class="fil4 str3" cx="50000" cy="35870" r="98"/>
</symbol>
<symbol id="符号29" viewBox="49723 35592 555 555">
 <circle class="fil2 str3" cx="50000" cy="35870" r="261"/>
 <circle class="fil4 str3" cx="50000" cy="35870" r="98"/>
</symbol>
<symbol id="符号24" viewBox="49724 35593 553 553">
 <line class="fil4 str4" x1="49739" y1="35609" x2="50261" y2= "36130" />
 <line class="fil4 str4" x1="49739" y1="36130" x2="50261" y2= "35609" />
</symbol>
<symbol id="符号5" viewBox="49717 35587 565 565">
 <path class="fil2 str2" d="M50261 35870c0,-144 -117,-261 -261,-261 -144,0 -261,117 -261,261 0,144 117,261 261,261 144,0 261,-117 261,-261z"/>
</symbol>
<symbol id="符号39" viewBox="49826 35609 348 522">
 <polygon class="fil0" points="49830,36130 49998,35609 50174,36130 49826,36130 "/>
</symbol>
<symbol id="符号36" viewBox="49505 35375 990 990">
 <circle class="fil2 str3" cx="50000" cy="35870" r="478"/>
 <circle class="fil3 str3" cx="50000" cy="35870" r="283"/>
</symbol>
<symbol id="符号9" viewBox="49723 35592 555 555">
 <circle class="fil2 str3" cx="50000" cy="35870" r="261"/>
 <circle class="fil4 str3" cx="50000" cy="35870" r="98"/>
</symbol>
<symbol id="符号2" viewBox="49913 35783 174 174">
 <path class="fil5 str5" d="M50065 35870c0,-36 -29,-65 -65,-65 -36,0 -65,29 -65,65 0,36 29,65 65,65 36,0 65,-29 65,-65z"/>
</symbol>
<symbol id="符号3" viewBox="49724 35593 553 553">
 <rect class="fil2" x="49739" y="35609" width="522" height="522"/>
 <line class="fil4 str4" x1="49739" y1="35609" x2="50261" y2= "36130" />
 <line class="fil4 str4" x1="49739" y1="36130" x2="50261" y2= "35609" />
</symbol>
<symbol id="符号28" viewBox="49717 35587 565 565">
 <path class="fil2 str2" d="M50261 35870c0,-144 -117,-261 -261,-261 -144,0 -261,117 -261,261 0,144 117,261 261,261 144,0 261,-117 261,-261z"/>
</symbol>
<symbol id="符号26" viewBox="49796 35561 409 617">
 <polygon class="fil0" points="49801,36178 49997,35561 50204,36178 49796,36178 "/>
</symbol>
<symbol id="符号19" viewBox="49900 35770 200 200">
 <path class="fil5 str5" d="M50078 35870c0,-43 -35,-78 -78,-78 -43,0 -78,35 -78,78 0,43 35,78 78,78 43,0 78,-35 78,-78z"/>
</symbol>
<symbol id="符号15" viewBox="49657 35527 685 685">
 <circle class="fil2 str3" cx="50000" cy="35870" r="326"/>
 <circle class="fil4 str3" cx="50000" cy="35870" r="122"/>
</symbol>
<symbol id="符号6" viewBox="49723 35592 555 555">
 <circle class="fil2 str3" cx="50000" cy="35870" r="261"/>
 <circle class="fil4 str3" cx="50000" cy="35870" r="98"/>
</symbol>
<symbol id="符号37" viewBox="49724 35593 553 553">
 <line class="fil4 str4" x1="49739" y1="35609" x2="50261" y2= "36130" />
 <line class="fil4 str4" x1="49739" y1="36130" x2="50261" y2= "35609" />
</symbol>
<symbol id="符号14" viewBox="49717 35587 565 565">
 <path class="fil2 str2" d="M50261 35870c0,-144 -117,-261 -261,-261 -144,0 -261,117 -261,261 0,144 117,261 261,261 144,0 261,-117 261,-261z"/>
</symbol>
<symbol id="符号30" viewBox="49505 35375 990 990">
 <circle class="fil2 str3" cx="50000" cy="35870" r="478"/>
 <circle class="fil3 str3" cx="50000" cy="35870" r="283"/>
</symbol>
<symbol id="符号13" viewBox="49723 35592 555 555">
 <circle class="fil2 str3" cx="50000" cy="35870" r="261"/>
 <circle class="fil4 str3" cx="50000" cy="35870" r="98"/>
</symbol>
<symbol id="符号34" viewBox="49804 35674 391 391">
 <path class="fil2 str2" d="M50174 35870c0,-96 -78,-174 -174,-174 -96,0 -174,78 -174,174 0,96 78,174 174,174 96,0 174,-78 174,-174z"/>
 <circle class="fil3" cx="50000" cy="35870" r="65"/>
</symbol>
<symbol id="符号44" viewBox="49913 35783 174 174">
 <path class="fil0 str0" d="M50065 35870c0,-36 -29,-65 -65,-65 -36,0 -65,29 -65,65 0,36 29,65 65,65 36,0 65,-29 65,-65z"/>
</symbol>
<symbol id="符号21" viewBox="49717 35587 565 565">
 <path class="fil2 str2" d="M50261 35870c0,-144 -117,-261 -261,-261 -144,0 -261,117 -261,261 0,144 117,261 261,261 144,0 261,-117 261,-261z"/>
</symbol>
<symbol id="符号18" viewBox="49724 35593 553 553">
 <rect class="fil2" x="49739" y="35609" width="522" height="522"/>
 <line class="fil4 str4" x1="49739" y1="35609" x2="50261" y2= "36130" />
 <line class="fil4 str4" x1="49739" y1="36130" x2="50261" y2= "35609" />
</symbol>
<symbol id="符号17" viewBox="49635 35713 713 313">
 <polygon class="fil1" points="49900,35826 49902,35826 49908,35826 49918,35827 49930,35827 49945,35827 49962,35826 49981,35825 50001,35824 50022,35822 50043,35820 50064,35817 50084,35813 50104,35808 50121,35802 50137,35795 50151,35787 50163,35778 50175,35770 50187,35763 50199,35756 50211,35750 50223,35745 50235,35741 50247,35738 50260,35736 50272,35735 50284,35736 50296,35738 50309,35741 50321,35746 50347,35766 50348,35767 50344,35767 50337,35766 50328,35765 50318,35764 50306,35763 50293,35763 50279,35763 50264,35765 50249,35768 50234,35773 50218,35779 50203,35788 50189,35799 50175,35813 50155,35827 50133,35840 50112,35852 50091,35862 50070,35871 50049,35879 50030,35885 50011,35891 49994,35896 49978,35900 49952,35907 49942,35909 49931,35911 49923,35912 "/>
 <path class="fil1 str1" d="M49932 35870c0,-77 -63,-139 -140,-139 -77,0 -140,62 -140,139 0,77 63,139 140,139 77,0 140,-62 140,-139z"/>
</symbol>
<symbol id="符号10" viewBox="49505 35375 990 990">
 <circle class="fil2 str3" cx="50000" cy="35870" r="478"/>
 <circle class="fil3 str3" cx="50000" cy="35870" r="283"/>
</symbol>
<symbol id="符号7" viewBox="49505 35375 990 990">
 <circle class="fil2 str3" cx="50000" cy="35870" r="478"/>
 <circle class="fil3 str3" cx="50000" cy="35870" r="283"/>
</symbol>
<symbol id="符号27" viewBox="49826 35609 348 522">
 <polygon class="fil0" points="49830,36130 49998,35609 50174,36130 49826,36130 "/>
</symbol>
<symbol id="符号35" viewBox="49723 35592 555 555">
 <circle class="fil2 str3" cx="50000" cy="35870" r="261"/>
 <circle class="fil4 str3" cx="50000" cy="35870" r="98"/>
</symbol>
<symbol id="符号40" viewBox="49717 35587 565 565">
 <path class="fil2 str2" d="M50261 35870c0,-144 -117,-261 -261,-261 -144,0 -261,117 -261,261 0,144 117,261 261,261 144,0 261,-117 261,-261z"/>
</symbol>
<symbol id="符号16" viewBox="49505 35375 990 990">
 <circle class="fil2 str3" cx="50000" cy="35870" r="478"/>
 <circle class="fil3 str3" cx="50000" cy="35870" r="283"/>
</symbol>
<symbol id="符号12" viewBox="49717 35587 565 565">
 <path class="fil2 str2" d="M50261 35870c0,-144 -117,-261 -261,-261 -144,0 -261,117 -261,261 0,144 117,261 261,261 144,0 261,-117 261,-261z"/>
</symbol>
<symbol id="符号42" viewBox="49505 35375 990 990">
 <circle class="fil2 str3" cx="50000" cy="35870" r="478"/>
 <circle class="fil3 str3" cx="50000" cy="35870" r="283"/>
</symbol>
<symbol id="符号31" viewBox="49724 35593 553 553">
 <line class="fil4 str4" x1="49739" y1="35609" x2="50261" y2= "36130" />
 <line class="fil4 str4" x1="49739" y1="36130" x2="50261" y2= "35609" />
</symbol>
<symbol id="符号22" viewBox="49657 35527 685 685">
 <circle class="fil2 str3" cx="50000" cy="35870" r="326"/>
 <circle class="fil4 str3" cx="50000" cy="35870" r="122"/>
</symbol>
<symbol id="符号38" viewBox="49913 35783 174 174">
 <path class="fil0 str0" d="M50065 35870c0,-36 -29,-65 -65,-65 -36,0 -65,29 -65,65 0,36 29,65 65,65 36,0 65,-29 65,-65z"/>
</symbol>
<symbol id="符号45" viewBox="49826 35609 348 522">
 <polygon class="fil0" points="49830,36130 49998,35609 50174,36130 49826,36130 "/>
</symbol>
<symbol id="符号33" viewBox="49826 35609 348 522">
 <polygon class="fil0" points="49830,36130 49998,35609 50174,36130 49826,36130 "/>
</symbol>
<symbol id="符号23" viewBox="49505 35375 990 990">
 <circle class="fil2 str3" cx="50000" cy="35870" r="478"/>
 <circle class="fil3 str3" cx="50000" cy="35870" r="283"/>
</symbol>
<symbol id="符号20" viewBox="49796 35561 409 617">
 <polygon class="fil5" points="49801,36178 49997,35561 50204,36178 49796,36178 "/>
</symbol>
<symbol id="符号1" viewBox="49826 35609 348 522">
 <polygon class="fil5" points="49830,36130 49998,35609 50174,36130 49826,36130 "/>
</symbol>
 <g id="rikez">
  <metadata id="CorelCorpID_0Corel-Layer"/>
  <g id="_872729232">
   <g>
    <polyline class="fil4 str6" points="88317,1169 88294,1296 88226,1539 88317,1680 88525,1984 88780,2104 88681,2258 88567,2372 88563,2469 88684,2569 88735,2643 88758,2725 88786,2962 88770,3040 88693,3239 88418,3384 88357,3472 88267,3548 88222,3638 88177,3743 88026,3924 87996,4044 88011,4134 88102,4345 88237,4420 88426,4403 88568,4371 88667,4309 88743,4212 88848,4197 89187,4279 89242,4318 89312,4446 89410,4512 89590,4548 89682,4650 89594,4835 89589,4966 89638,5009 89770,5030 89848,5118 89922,5329 89980,5430 90062,5481 90170,5465 90207,5468 90330,5583 90458,5615 90492,5580 90599,5308 90700,5230 90809,5207 90856,5223 90979,5289 91080,5290 91156,5380 91250,5617 91253,5675 91221,5778 91259,5855 91427,6002 91449,6045 91490,6171 91566,6214 91736,6194 92212,6337 92298,6370 92328,6462 92194,6702 92206,6824 92329,6912 92402,6986 92605,7295 92583,7370 92567,7552 92667,7570 92681,7638 92691,7799 93050,7955 93316,8084 93455,8168 93575,8294 93755,8352 93876,8404 93946,8446 94041,8522 94203,8537 94304,8575 94354,8627 94411,8741 94446,8759 94566,8792 94842,8807 94994,8829 95089,8852 95225,8931 95241,8957 95272,9236 95336,9334 95410,9349 95598,9335 95687,9380 95884,9318 95974,9312 96113,9385 96179,9494 96180,9488 96238,9456 96340,9440 96771,9458 96973,9498 97038,9527 97168,9608 97285,9643 97449,9649 97596,9612 97747,9793 97838,9822 97838,9913 97928,10063 98018,10109 98139,10199 98169,10334 98109,10515 98169,10695 98169,10876 98229,11117 98304,11282 98394,11342 98394,11568 98274,11824 98259,11959 98304,12140 98289,12230 "/>
    <polyline class="fil4 str6" points="82737,11915 82718,12029 82662,12177 82588,12325 82533,12511 82421,12598 82422,12733 82255,12714 82163,12770 82237,12955 82311,13084 82215,13145 82160,13365 82020,13318 81927,13318 81927,13504 81850,13551 81710,13566 81772,13768 81664,13954 81555,14109 81462,14171 81354,14264 81244,14272 81115,14259 80877,14195 80920,14062 80842,14016 80780,14016 80641,14031 80379,13993 79746,13921 "/>
    <polyline class="fil4 str6" points="79746,13657 80070,13637 80293,13678 80333,13597 80293,13475 80182,13325 80201,13214 80201,13084 80312,13010 80479,12973 80571,12918 80682,13103 80775,13084 80886,13121 80978,13084 80960,12844 80867,12733 80886,12640 80849,12492 80756,12418 80534,12437 80312,12362 79979,12215 79627,12141 79202,12066 79183,11826 79220,11659 79313,11474 79461,11326 79664,11234 79831,11160 79960,11141 80053,11123 80034,10938 80090,10808 80182,10808 80367,10808 80516,10789 80664,10715 80775,10697 80886,10734 81015,10734 81182,10734 81311,10789 81459,10808 81626,10864 81719,10901 81830,10901 81922,10938 82015,10975 82126,10975 82292,10901 82422,10938 82496,10993 82514,11197 82533,11345 82607,11604 82718,11955 "/>
    <polyline class="fil4 str6" points="47070,17097 46974,17059 46802,17001 46591,16963 46361,17020 46151,17106 46008,17246 45806,17530 45461,16983 45404,16782 45375,16667 45309,16515 45205,16494 45080,16598 44977,16660 44915,16743 44769,16826 44686,16992 44666,17137 44666,17261 44666,17531 44666,17718 44645,17925 44458,18070 44312,18334 44024,18535 43708,18737 43392,18995 43365,19021 "/>
    <polyline class="fil4 str6" points="50137,9326 50118,9575 50118,9805 50156,9997 50255,10104 50269,10198 50363,10280 50489,10507 50524,10900 50663,10969 50767,11142 50940,11177 51079,11316 51217,11246 51356,11142 51529,11108 51702,11142 51771,11316 51806,11558 51910,11593 52083,11731 52083,11870 52291,12008 52360,12182 52395,12390 52534,12528 52707,12563 52880,12494 53019,12494 53192,12632 53330,12667 53538,12667 53677,12805 53677,12944 53642,13117 53712,13291 53677,13499 53746,13672 53756,13787 53746,14122 53642,14330 53504,14642 53469,14780 53434,14850 53296,14954 53227,15058 53088,15335 52949,15474 52845,15681 52776,15855 52707,15993 52534,16063 52222,15820 52187,15647 51979,15508 51806,15543 51633,15612 51529,15577 51425,15404 51390,15231 51321,15058 51321,14884 51356,14746 51564,14469 51494,14365 51286,14295 50940,14122 50871,13984 50732,13810 50559,13810 50351,13776 50316,13602 50247,13394 50247,13187 50282,13013 50143,12840 49970,12667 49866,12667 49693,12702 49520,12702 49457,12593 49367,12639 49240,12777 49077,12853 48862,12790 48761,12878 48850,13068 48837,13194 48774,13408 48686,13585 48673,13951 48723,14241 48547,14480 48484,14594 48421,14695 48345,14745 48320,14821 48307,14972 48307,15136 48307,15250 48257,15275 48194,15338 48156,15426 48150,15540 48150,15747 48274,15996 48336,16294 47607,16966 47434,16794 47281,16679 47070,16583 "/>
    <polyline class="fil4 str6" points="52115,4873 52203,4936 52283,4944 52332,4993 52324,5041 52194,5227 52073,5380 51989,5578 51989,5686 52025,5795 52073,5975 52169,6156 52193,6336 52229,6529 52229,6746 52193,6938 52205,7155 52217,7311 52253,7444 52290,7504 52205,7600 52097,7660 52061,7745 52085,7829 52109,7961 52025,8034 52001,8142 52001,8250 52049,8347 52025,8419 51940,8443 51856,8419 51736,8395 51615,8383 51495,8467 51387,8551 51278,8587 51122,8551 50977,8503 50809,8503 50655,8482 50693,8616 50693,8693 50616,8789 50501,8961 50425,9153 50348,9364 "/>
    <polyline class="fil4 str6" points="64989,6540 64644,6405 64338,6329 64088,6195 64057,5985 64119,5683 64248,5646 64396,5628 64581,5591 64748,5591 64933,5517 64989,5387 65155,5313 65340,5257 65581,5183 65840,5054 65840,4924 65895,4795 66080,4776 66266,4776 66414,4758 66580,4758 66747,4832 66913,4926 67080,5054 67228,5017 67450,4795 67617,4554 67653,4295 67746,4017 67876,3851 68061,3796 68172,3629 68116,3425 68246,3407 68338,3333 68364,3187 68574,3157 68755,3111 68665,2991 68574,2931 68469,2856 68319,2780 68138,2675 67641,2630 67566,2525 67280,2540 66949,2510 66739,2404 66769,2178 66799,2118 66754,1968 66648,1893 66603,1727 66648,1607 66573,1546 66498,1456 66423,1366 66302,1276 66152,1215 66016,1230 65926,1276 65836,1366 65715,1486 65730,1652 65836,1938 65926,2209 66016,2449 66092,2675 66122,2841 66077,3051 66152,3262 66046,3322 65956,3292 65896,3127 65791,3021 65791,2931 65715,2871 65625,2901 65505,2976 65505,3202 65490,3352 65399,3382 65279,3412 65204,3337 65159,3157 65159,2931 65129,2841 65036,2786 64948,2856 64843,2811 64737,2841 64647,2811 64557,2720 64421,2690 64301,2705 64211,2780 64060,2720 63925,2675 63864,2766 63804,2856 63819,2991 63834,3081 63789,3217 63699,3277 63548,3277 63443,3322 63308,3322 63217,3292 63112,3232 63007,3172 62901,3066 62796,2991 62646,2916 62570,3066 62525,3142 62435,3172 62360,3217 62284,3247 62239,3322 62194,3412 62104,3488 61953,3518 61818,3503 61682,3473 61577,3518 61457,3563 61336,3533 61186,3518 61066,3488 60930,3473 60840,3488 60765,3533 60674,3578 60584,3608 60449,3563 60343,3533 60223,3518 60148,3578 60087,3668 60012,3698 59922,3698 59847,3593 59756,3488 59666,3443 59576,3382 59455,3337 59350,3352 59275,3397 59154,3412 59034,3473 58884,3503 58748,3397 58613,3352 58432,3322 58237,3322 58086,3322 57981,3322 57800,3322 57620,3292 57484,3292 57394,3202 57258,3247 57123,3247 56988,3217 56867,3202 56792,3202 56687,3081 56461,3006 56295,2856 56190,2720 56130,2570 56133,2448 56160,2359 56145,2269 56009,2209 55904,2073 55769,1953 55723,1787 55723,1592 55407,1712 55197,1878 55202,2248 55227,2449 55046,2464 54881,2464 54730,2374 54655,2148 54535,2013 54324,1998 54143,1998 53993,2073 53842,2148 53748,2246 53598,2227 53453,2223 53319,2127 53190,2262 53105,2314 52898,2280 52509,2151 52445,2133 52343,2129 51926,2209 51643,2314 51631,2352 51747,2721 51920,2760 52018,2888 51977,2990 51690,2951 51422,2990 51230,2913 51076,2721 50872,2789 50648,2949 50655,3090 50663,3202 50687,3307 50729,3418 50885,3603 51038,3622 51152,3557 51207,3677 51385,3845 51468,3893 51815,4017 52039,4183 "/>
    <polyline class="fil4 str6" points="80447,17875 80390,18393 80466,18623 80423,18824 80501,18949 80610,19037 80734,19177 80578,19294 80252,19217 80118,19083 79945,18922 79945,19269 79807,19373 79668,19442 79634,19615 79495,19754 79287,19823 79114,19788 78941,19823 79045,19962 79218,20066 79391,20204 79507,20185 79495,20175 79666,20289 79809,20490 79899,20676 80039,20979 80068,21266 80011,21496 79723,21496 79551,21295 79324,21068 79246,21114 79153,21130 79206,21525 79246,21858 79432,21936 79293,22199 79231,22462 79122,22555 79005,22674 78518,22757 78347,22772 78394,22741 78081,22965 78009,23037 77886,23134 77968,23251 78121,23522 78227,23719 78095,23808 77889,23808 77697,23825 77568,23811 77345,23705 77168,23793 76962,23763 76580,24087 76993,24572 77165,24658 77424,24859 77452,25089 77424,25290 77165,25319 76964,25319 76820,25233 76676,25060 76561,24888 76418,24715 76159,24629 75987,24485 75814,24313 75670,24313 75555,24322 75496,24384 75331,24673 75256,24760 75180,24815 75137,24927 75175,25052 75222,25137 75163,25243 75144,25312 75186,25538 75182,25669 75155,25793 75111,25899 75057,25977 74949,26044 74822,26029 74725,25981 74663,26019 74578,26227 74528,26289 74450,26330 74304,26352 74213,26306 74037,26118 73931,26024 73852,25977 73767,25951 73677,25950 73536,25982 73398,26042 73105,26199 73014,26200 72929,26116 72828,25891 72757,25795 72627,25694 72364,25543 72277,25435 72268,25310 72201,25234 72083,25293 71969,25275 71739,25069 71224,24544 70989,24341 70968,24311 70929,24209 70827,24221 70786,24211 70787,24057 70759,23991 70667,23970 70672,23839 70617,23786 70528,23788 70511,23775 70465,23589 70412,23494 70355,23467 70197,23465 70095,23404 70078,23264 70034,23217 69903,23216 69955,23216 69908,23122 69955,23028 69990,22887 69880,22733 69578,22789 69423,22780 69305,22742 69227,22698 69154,22632 69121,22588 69064,22476 69040,22406 69007,22233 68858,21870 68801,21582 68830,21295 68944,21007 68973,20662 68850,20424 68657,20088 68513,19829 68513,19657 68283,19628 68082,19455 67881,19139 67737,18651 67536,18306 67364,18018 67191,17846 66990,17788 66731,17759 66501,17731 66386,17530 66300,17300 66358,17098 66386,16983 66530,16840 66501,16667 66415,16523 66473,16380 66645,16265 66674,16092 66616,15949 66530,15776 66473,15575 66588,15431 66818,15288 66990,15201 67019,14943 67047,14655 67220,14396 67392,14167 67421,13937 67565,13707 67680,13563 67852,13448 68140,13333 68370,13161 68542,12873 68657,12729 68762,12581 68893,12381 69041,12307 69152,12288 69356,12400 69393,12307 69523,12141 69504,12011 69418,11886 69227,11733 69097,11622 68912,11530 68727,11493 68616,11419 68634,11345 68800,11134 68875,11030 68782,10845 68653,10678 68505,10530 68394,10493 68283,10493 68172,10549 68042,10456 68079,10271 68172,10142 68209,10031 68042,9883 68042,9716 68116,9531 68190,9364 68116,9216 67987,9124 67931,8939 67940,8794 67913,8661 68005,8532 68061,8347 67987,8143 67839,7958 67690,7902 67524,7847 67413,7773 67246,7791 67117,7754 67024,7643 66987,7458 66784,7495 66543,7532 66321,7551 66148,7551 65998,7562 65895,7400 65766,7270 65557,7064 65231,6930 "/>
    <polyline class="fil4 str6" points="79220,12122 79165,12215 79183,12437 79202,12511 79294,12659 79442,12862 79646,13251 79738,13491 79775,13732 79738,13973 79688,14111 79480,14526 79530,14625 79599,14799 79738,14972 79911,15076 79876,15249 79738,15319 79530,15353 79079,15007 78906,15007 78629,15353 78560,15492 78594,15665 78698,15769 78871,15838 79010,15942 79218,15977 79356,16081 79564,16115 79738,16115 80153,16808 80094,16993 80114,17204 80114,17453 80075,17894 80037,18086 "/>
    <polyline class="fil4 str6" points="15257,35571 14826,35476 14540,35547 14254,35576 13926,35490 13693,35330 13625,35404 13454,35547 13454,35705 13525,35891 13740,36091 13897,36077 14026,36148 13911,36305 13811,36362 13597,36434 13582,36505 13597,36663 13525,36806 13225,37006 12782,36920 12524,36749 12467,36577 12539,36377 12453,36334 12338,36420 12238,36505 12067,36434 12092,36142 12057,36036 11998,35907 11868,35765 11680,35553 11551,35447 11445,35436 11303,35400 11197,35436 11115,35565 10974,35730 10867,35735 10714,35663 10580,35643 10237,35605 10022,35590 9779,35605 9636,35690 9536,35819 9522,35962 9479,36062 9464,36177 9436,36291 9436,36420 9438,36552 9449,36825 8392,40507 8314,40680 8314,40751 8357,40852 8438,40960 8621,41168 8778,41353 8878,41438 8978,41587 8998,41639 8998,41847 8860,41847 8756,42020 8583,42090 8444,42263 8271,42367 8167,42506 7959,42540 7820,42471 7682,42540 7578,42713 7405,42852 7266,42852 7058,42748 6989,43060 6816,43164 6642,43199 6573,43372 6642,43753 6539,43926 6331,43961 6157,43892 6123,43753 5950,43718 5776,43718 5603,43822 5430,43857 5222,43961 5049,43995 4841,44411 4841,44758 4910,44931 4772,45070 4633,45139 4564,45485 4390,45555 4356,45728 4252,45867 4217,45971 4183,46213 4009,46352 3975,46490 3871,46629 3836,46837 3836,46975 3420,46975 3455,47149 3524,47322 3524,47530 3490,47668 3464,47728 3329,47724 3241,47753 3084,47871 2878,47871 2800,47832 2673,47793 2487,47763 2389,47656 2301,47636 2213,47656 2154,47656 2085,47626 2007,47558 1929,47509 1850,47479 1703,47470 1606,47411 "/>
    <g>
     <path class="fil6" d="M81061 11352l-25 -936 87 -2 25 936 -87 2zm54 394l-211 -395 401 -11 -190 406z"/>
    </g>
    <g>
     <path class="fil6" d="M79455 12625l-605 -64 9 -87 605 64 -9 87zm398 -2l-420 157 42 -399 378 241z"/>
    </g>
    <path class="fil4 str7" d="M28005 17617l53646 0c1181,0 2148,1003 2148,2228l0 40112c0,1226 -967,2228 -2148,2228l-53646 0c-1181,0 -2148,-1003 -2148,-2228l0 -40112c0,-1226 967,-2228 2148,-2228z"/>
    <rect class="fil7" x="7203" y="44788" width="39084" height="22408"/>
    <polygon class="fil8" points="7160,11693 7160,33484 46389,33484 46389,11688 "/>
    <polygon class="fil9" points="7061,32000 8313,31761 9340,31627 10567,31890 11561,31322 12724,31059 13736,30799 14988,30637 16019,30231 17211,29698 18253,29275 19417,29111 20622,28851 21653,28851 22875,28549 23871,28141 25076,27571 26092,23951 27301,23398 28354,22815 29537,22293 30566,21993 31725,21016 32771,20610 33976,20166 35137,19487 42846,16116 44051,16001 46276,14342 46276,14618 46292,33484 7061,33484 "/>
    <polygon class="fil4" points="7130,32000 8383,31761 9410,31627 10636,31890 11630,31322 12794,31059 13805,30799 15058,30637 16089,30231 17281,29698 18323,29275 19486,29111 20691,28851 21722,28851 22945,28549 23941,28141 25146,27571 26161,23951 27371,23398 28424,22815 29607,22293 30635,21993 31795,21016 32841,20610 34046,20166 35207,19487 42915,16116 44120,16001 46346,14342 46346,14618 46361,33484 7130,33484 "/>
    <polygon class="fil10" points="7214,51418 8148,51571 9088,59306 10016,56776 10919,62894 11845,61342 12756,60526 13679,58726 14605,58026 15568,60055 16431,61467 17362,61335 18282,60805 19211,63001 20131,63650 21074,62134 21990,63392 22909,63847 23846,63539 24746,63002 25685,63285 26597,62583 27529,58456 28448,60272 29361,57345 30297,59871 31234,58036 32160,57370 33097,52418 34018,53822 34944,52418 35891,52818 36814,50492 39608,47115 42390,48446 43339,48844 44274,47868 46203,48174 46288,67219 7204,67208 "/>
    <text x="5452" y="12091"  class="fil3 fnt0">13</text>
    <text x="5415" y="16444"  class="fil3 fnt0">12</text>
    <text x="5518" y="20777"  class="fil3 fnt0">11</text>
    <text x="5410" y="25124"  class="fil3 fnt0">10</text>
    <text x="5852" y="29477"  class="fil3 fnt0">9</text>
    <text x="5864" y="33830"  class="fil3 fnt0">8</text>
    <text x="4738" y="9883"  class="fil3 fnt1">户数</text>
    <text x="6886" y="9883"  class="fil3 fnt2">(千户)</text>
    <text x="45294" y="34907"  class="fil3 fnt3">2000</text>
    <text x="39744" y="34908"  class="fil3 fnt3">1995</text>
    <text x="34129" y="34908"  class="fil3 fnt3">1990</text>
    <text x="28555" y="34908"  class="fil3 fnt3">1985</text>
    <text x="22940" y="34941"  class="fil3 fnt3">1980</text>
    <text x="17366" y="34943"  class="fil3 fnt3">1975</text>
    <text x="11751" y="34943"  class="fil3 fnt3">1970</text>
    <text x="6437" y="34983"  class="fil3 fnt3">1965</text>
    <text x="47240" y="33858"  class="fil3 fnt4">4</text>
    <text x="47240" y="12176"  class="fil3 fnt4">10</text>
    <text x="47240" y="15798"  class="fil3 fnt4">9</text>
    <text x="47240" y="19419"  class="fil3 fnt4">8</text>
    <text x="47240" y="23027"  class="fil3 fnt4">7</text>
    <text x="47240" y="26642"  class="fil3 fnt4">6</text>
    <text x="47240" y="30250"  class="fil3 fnt4">5</text>
    <text x="43791" y="9911"  class="fil3 fnt1">人口</text>
    <text x="45939" y="9911"  class="fil3 fnt5"> </text>
    <text x="46196" y="9911"  class="fil3 fnt2">(</text>
    <text x="48496" y="9911"  class="fil3 fnt2">)</text>
    <text x="46656" y="9911"  class="fil3 fnt2">万人</text>
    <text x="5482" y="45175"  class="fil3 fnt6">24</text>
    <text x="5488" y="48374"  class="fil3 fnt6">22</text>
    <text x="5483" y="51599"  class="fil3 fnt6">20</text>
    <text x="5503" y="54641"  class="fil3 fnt6">18</text>
    <text x="5486" y="57846"  class="fil3 fnt6">16</text>
    <text x="5482" y="61112"  class="fil3 fnt6">14</text>
    <text x="5488" y="64275"  class="fil3 fnt6">12</text>
    <text x="5483" y="67361"  class="fil3 fnt6">10</text>
    <text x="6666" y="68571"  class="fil3 fnt3">1958</text>
    <text x="11809" y="68599"  class="fil3 fnt3">1964</text>
    <text x="17368" y="68570"  class="fil3 fnt3">1970</text>
    <text x="22930" y="68571"  class="fil3 fnt3">1976</text>
    <text x="28486" y="68542"  class="fil3 fnt3">1982</text>
    <text x="34045" y="68571"  class="fil3 fnt3">1988</text>
    <text x="39585" y="68571"  class="fil3 fnt3">1994</text>
    <text x="44547" y="68599"  class="fil3 fnt3">2000</text>
    <text x="5223" y="42985"  class="fil3 fnt7">   </text>
    <text x="5929" y="42985"  class="fil3 fnt1">羊</text>
    <text x="7003" y="42985"  class="fil3 fnt2">(</text>
    <text x="9304" y="42985"  class="fil3 fnt2">)</text>
    <text x="7463" y="42985"  class="fil3 fnt2">万只</text>
    <g transform="matrix(1.2 0 0 1 -42773 -28242.6)">
     <text x="50000" y="35870"  class="fil3 fnt8">日喀则户数和人口变化</text>
    </g>
    <g transform="matrix(1.2 0 0 1 -40554.2 5631.26)">
     <text x="50000" y="35870"  class="fil3 fnt8">日喀则牲畜数量变化</text>
    </g>
    <text x="41551" y="42940"  class="fil3 fnt1">大牲畜</text>
    <text x="44772" y="42940"  class="fil3 fnt2">(</text>
    <text x="47073" y="42940"  class="fil3 fnt2">)</text>
    <text x="45232" y="42940"  class="fil3 fnt2">万头</text>
    <line class="fil4 str8" x1="7237" y1="60814" x2="46273" y2= "60819" />
    <line class="fil4 str8" x1="7237" y1="63995" x2="46273" y2= "63999" />
    <line class="fil4 str8" x1="7237" y1="57634" x2="46273" y2= "57638" />
    <line class="fil4 str8" x1="7237" y1="54454" x2="46273" y2= "54458" />
    <line class="fil4 str8" x1="7237" y1="51273" x2="46273" y2= "51277" />
    <line class="fil4 str8" x1="7237" y1="48093" x2="46273" y2= "48097" />
    <line class="fil4 str8" x1="8170" y1="67139" x2="8170" y2= "44784" />
    <line class="fil4 str8" x1="9087" y1="67139" x2="9087" y2= "44784" />
    <line class="fil4 str8" x1="10003" y1="67139" x2="10003" y2= "44784" />
    <line class="fil4 str8" x1="10919" y1="67139" x2="10919" y2= "44784" />
    <line class="fil4 str8" x1="11835" y1="67139" x2="11835" y2= "44784" />
    <line class="fil4 str8" x1="12751" y1="67139" x2="12751" y2= "44784" />
    <line class="fil4 str8" x1="13671" y1="67139" x2="13671" y2= "44784" />
    <line class="fil4 str8" x1="14592" y1="67139" x2="14592" y2= "44784" />
    <line class="fil4 str8" x1="15512" y1="67139" x2="15512" y2= "44784" />
    <line class="fil4 str8" x1="16432" y1="67139" x2="16432" y2= "44784" />
    <line class="fil4 str8" x1="17353" y1="67139" x2="17353" y2= "44784" />
    <line class="fil4 str8" x1="18273" y1="67139" x2="18273" y2= "44784" />
    <line class="fil4 str8" x1="19198" y1="67139" x2="19198" y2= "44784" />
    <line class="fil4 str8" x1="20123" y1="67139" x2="20123" y2= "44784" />
    <line class="fil4 str8" x1="21047" y1="67139" x2="21047" y2= "44784" />
    <line class="fil4 str8" x1="21972" y1="67139" x2="21972" y2= "44784" />
    <line class="fil4 str8" x1="22897" y1="67139" x2="22897" y2= "44784" />
    <line class="fil4 str8" x1="23822" y1="67139" x2="23822" y2= "44784" />
    <line class="fil4 str8" x1="24747" y1="67139" x2="24747" y2= "44784" />
    <line class="fil4 str8" x1="25671" y1="67139" x2="25671" y2= "44784" />
    <line class="fil4 str8" x1="26596" y1="67139" x2="26596" y2= "44784" />
    <line class="fil4 str8" x1="27521" y1="67139" x2="27521" y2= "44784" />
    <line class="fil4 str8" x1="28446" y1="67139" x2="28446" y2= "44784" />
    <line class="fil4 str8" x1="29370" y1="67139" x2="29370" y2= "44784" />
    <line class="fil4 str8" x1="30300" y1="67139" x2="30300" y2= "44784" />
    <line class="fil4 str8" x1="31229" y1="67139" x2="31229" y2= "44784" />
    <line class="fil4 str8" x1="32158" y1="67139" x2="32158" y2= "44784" />
    <line class="fil4 str8" x1="33087" y1="67139" x2="33087" y2= "44784" />
    <line class="fil4 str8" x1="34016" y1="67139" x2="34016" y2= "44784" />
    <line class="fil4 str8" x1="34945" y1="67139" x2="34945" y2= "44784" />
    <line class="fil4 str8" x1="35874" y1="67139" x2="35874" y2= "44784" />
    <line class="fil4 str8" x1="36803" y1="67139" x2="36803" y2= "44784" />
    <line class="fil4 str8" x1="37733" y1="67139" x2="37733" y2= "44784" />
    <line class="fil4 str8" x1="38662" y1="67139" x2="38662" y2= "44784" />
    <line class="fil4 str8" x1="39591" y1="67139" x2="39591" y2= "44784" />
    <line class="fil4 str8" x1="40524" y1="67139" x2="40524" y2= "44784" />
    <line class="fil4 str8" x1="41458" y1="67139" x2="41458" y2= "44784" />
    <line class="fil4 str8" x1="42391" y1="67139" x2="42391" y2= "44784" />
    <line class="fil4 str8" x1="43325" y1="67139" x2="43325" y2= "44784" />
    <line class="fil4 str8" x1="44258" y1="67139" x2="44258" y2= "44784" />
    <line class="fil4 str8" x1="45192" y1="67139" x2="45192" y2= "44784" />
    <g transform="matrix(1.187 0 0 1 -12220.8 9466.83)">
     <text x="50000" y="35870"  class="fil3 fnt6">7</text>
    </g>
    <text x="47129" y="48501"  class="fil3 fnt6">6.5</text>
    <g transform="matrix(1.187 0 0 1 -12220.8 15728.1)">
     <text x="50000" y="35870"  class="fil3 fnt6">6</text>
    </g>
    <g transform="matrix(1.187 0 0 1 -12220.9 18818.1)">
     <text x="50000" y="35870"  class="fil3 fnt6">5.5</text>
    </g>
    <g transform="matrix(1.187 0 0 1 -12220.9 22107.7)">
     <text x="50000" y="35870"  class="fil3 fnt6">5</text>
    </g>
    <g transform="matrix(1.187 0 0 1 -12220.9 25236.7)">
     <text x="50000" y="35870"  class="fil3 fnt6">4.5</text>
    </g>
    <g transform="matrix(1.187 0 0 1 -12220.9 28369.1)">
     <text x="50000" y="35870"  class="fil3 fnt6">4</text>
    </g>
    <text x="47129" y="67307"  class="fil3 fnt6">3.5</text>
    <polyline class="fil4 str9" points="7226,54895 10026,54905 11854,64900 12763,63940 13674,64220 14616,62713 15532,59537 16474,59524 17360,60561 18282,56917 19238,56938 20135,56356 21031,53434 21980,50185 22911,52305 23833,49904 24769,48898 25686,48898 26632,50345 27554,49875 28465,48709 29387,49605 30306,56520 31244,51640 32155,47836 33092,48457 34028,50479 34958,49735 35877,50636 36803,49589 39602,45961 42389,46261 44261,45951 46253,46408 "/>
    <g transform="matrix(0.999789 0 0 1 -27515 26675.6)">
     <text x="50000" y="35870"  class="fil3 fnt1">大牲畜</text>
    </g>
    <text x="22349" y="49124"  class="fil3 fnt1">羊</text>
    <rect class="fil11" x="8196" y="27823" width="348" height="5667"/>
    <rect class="fil11" x="9287" y="27554" width="348" height="5935"/>
    <rect class="fil11" x="10429" y="27840" width="348" height="5649"/>
    <rect class="fil11" x="11559" y="27044" width="348" height="6445"/>
    <rect class="fil11" x="12682" y="26932" width="348" height="6557"/>
    <rect class="fil11" x="14905" y="26283" width="348" height="7206"/>
    <rect class="fil11" x="19392" y="24228" width="348" height="9261"/>
    <rect class="fil11" x="20497" y="24057" width="348" height="9432"/>
    <rect class="fil11" x="21644" y="23997" width="348" height="9492"/>
    <rect class="fil11" x="22738" y="23731" width="348" height="9758"/>
    <rect class="fil11" x="23853" y="23117" width="348" height="10372"/>
    <rect class="fil11" x="26095" y="22913" width="348" height="10576"/>
    <rect class="fil11" x="31695" y="20237" width="348" height="13252"/>
    <rect class="fil11" x="43962" y="14579" width="348" height="18907"/>
    <rect class="fil11" x="32815" y="19692" width="348" height="13798"/>
    <rect class="fil11" x="33924" y="19184" width="348" height="14305"/>
    <rect class="fil11" x="35055" y="18128" width="348" height="15362"/>
    <rect class="fil11" x="30558" y="20343" width="348" height="13146"/>
    <rect class="fil11" x="29469" y="20680" width="348" height="12809"/>
    <rect class="fil11" x="28328" y="20612" width="348" height="12877"/>
    <rect class="fil11" x="27225" y="20970" width="348" height="12519"/>
    <rect class="fil11" x="24982" y="22027" width="348" height="11463"/>
    <rect class="fil11" x="18272" y="24297" width="348" height="9192"/>
    <rect class="fil11" x="17148" y="23543" width="348" height="9946"/>
    <rect class="fil11" x="16033" y="24845" width="348" height="8644"/>
    <rect class="fil11" x="13802" y="26015" width="348" height="7474"/>
    <rect class="fil11" x="42924" y="17179" width="348" height="16311"/>
    <rect class="fil11" x="45942" y="18053" width="348" height="15437"/>
    <rect class="fil9 str10" x="9489" y="13487" width="2609" height="1522"/>
    <text x="12973" y="14381"  class="fil3 fnt1">人口</text>
    <text x="18486" y="14369"  class="fil3 fnt1">户数</text>
    <line class="fil4 str11" x1="9652" y1="16936" x2="12261" y2= "16936" />
    <text x="12811" y="16840"  class="fil3 fnt1">户数变化趋势线</text>
    <rect class="fil11" x="7086" y="28835" width="294" height="4666"/>
    <line class="fil4 str12" x1="7181" y1="33115" x2="7181" y2= "33550" />
    <path class="fil4 str12" d="M8300 33115c0,145 0,290 0,435"/>
    <path class="fil4 str12" d="M9419 33115c0,145 0,290 0,435"/>
    <path class="fil4 str12" d="M10538 33115c0,145 0,290 0,435"/>
    <path class="fil4 str12" d="M11657 33115c0,145 0,290 0,435"/>
    <path class="fil4 str12" d="M12776 32897c0,217 0,435 0,652"/>
    <path class="fil4 str12" d="M13895 33115c0,145 0,290 0,435"/>
    <path class="fil4 str12" d="M15014 33115c0,145 0,290 0,435"/>
    <path class="fil4 str12" d="M16133 33115c0,145 0,290 0,435"/>
    <path class="fil4 str12" d="M17252 33115c0,145 0,290 0,435"/>
    <path class="fil4 str12" d="M18371 32897c0,217 0,435 0,652"/>
    <path class="fil4 str12" d="M19489 33115c0,145 0,290 0,435"/>
    <path class="fil4 str12" d="M20608 33115c0,145 0,290 0,435"/>
    <path class="fil4 str12" d="M21727 33115c0,145 0,290 0,435"/>
    <path class="fil4 str12" d="M22846 33115c0,145 0,290 0,435"/>
    <path class="fil4 str12" d="M23965 32897c0,217 0,435 0,652"/>
    <path class="fil4 str12" d="M25084 33115c0,145 0,290 0,435"/>
    <path class="fil4 str12" d="M26203 33115c0,145 0,290 0,435"/>
    <path class="fil4 str12" d="M27322 33115c0,145 0,290 0,435"/>
    <path class="fil4 str12" d="M28441 33115c0,145 0,290 0,435"/>
    <path class="fil4 str12" d="M29560 32897c0,217 0,435 0,652"/>
    <path class="fil4 str12" d="M30679 33115c0,145 0,290 0,435"/>
    <path class="fil4 str12" d="M31797 33115c0,145 0,290 0,435"/>
    <path class="fil4 str12" d="M32916 33115c0,145 0,290 0,435"/>
    <path class="fil4 str12" d="M34035 33115c0,145 0,290 0,435"/>
    <path class="fil4 str12" d="M35154 32897c0,217 0,435 0,652"/>
    <path class="fil4 str12" d="M36273 33115c0,145 0,290 0,435"/>
    <path class="fil4 str12" d="M37392 33115c0,145 0,290 0,435"/>
    <path class="fil4 str12" d="M38511 33115c0,145 0,290 0,435"/>
    <path class="fil4 str12" d="M39630 33115c0,145 0,290 0,435"/>
    <path class="fil4 str12" d="M40749 32897c0,217 0,435 0,652"/>
    <path class="fil4 str12" d="M41868 33115c0,145 0,290 0,435"/>
    <path class="fil4 str12" d="M42987 33115c0,145 0,290 0,435"/>
    <path class="fil4 str12" d="M44106 33115c0,145 0,290 0,435"/>
    <path class="fil4 str12" d="M45224 33115c0,145 0,290 0,435"/>
    <line class="fil4 str12" x1="46343" y1="33115" x2="46343" y2= "33550" />
    <line class="fil4 str12" x1="46389" y1="33543" x2="46824" y2= "33543" />
    <g id="_877185264">
     <path class="fil4 str12" d="M46389 29898c145,0 290,0 435,0"/>
     <path class="fil4 str12" d="M46389 26253c145,0 290,0 435,0"/>
     <path class="fil4 str12" d="M46389 22608c145,0 290,0 435,0"/>
     <path class="fil4 str12" d="M46389 18963c145,0 290,0 435,0"/>
     <path class="fil4 str12" d="M46389 15318c145,0 290,0 435,0"/>
    </g>
    <line class="fil4 str12" x1="46389" y1="11673" x2="46824" y2= "11673" />
    <line class="fil4 str12" x1="6703" y1="33543" x2="7137" y2= "33543" />
    <g id="_877183728">
     <path class="fil4 str12" d="M6703 29169c145,0 290,0 435,0"/>
     <path class="fil4 str12" d="M6703 24795c145,0 290,0 435,0"/>
     <path class="fil4 str12" d="M6703 20421c145,0 290,0 435,0"/>
     <path class="fil4 str12" d="M6703 16047c145,0 290,0 435,0"/>
    </g>
    <line class="fil4 str12" x1="6703" y1="11673" x2="7137" y2= "11673" />
    <rect class="fil11" x="17213" y="13486" width="348" height="1524"/>
    <line class="fil4 str12" x1="46258" y1="67219" x2="46693" y2= "67219" />
    <g id="_877181232">
     <path class="fil4 str12" d="M46258 64017c145,0 290,0 435,0"/>
     <path class="fil4 str12" d="M46258 60815c145,0 290,0 435,0"/>
     <path class="fil4 str12" d="M46258 57613c145,0 290,0 435,0"/>
     <path class="fil4 str12" d="M46258 54411c145,0 290,0 435,0"/>
     <path class="fil4 str12" d="M46258 51209c145,0 290,0 435,0"/>
     <path class="fil4 str12" d="M46258 48007c145,0 290,0 435,0"/>
    </g>
    <line class="fil4 str12" x1="46258" y1="44805" x2="46693" y2= "44805" />
    <line class="fil4 str12" x1="6800" y1="67184" x2="7235" y2= "67184" />
    <g id="_877130320">
     <path class="fil4 str12" d="M6800 63987c145,0 290,0 435,0"/>
     <path class="fil4 str12" d="M6800 60790c145,0 290,0 435,0"/>
     <path class="fil4 str12" d="M6800 57593c145,0 290,0 435,0"/>
     <path class="fil4 str12" d="M6800 54396c145,0 290,0 435,0"/>
     <path class="fil4 str12" d="M6800 51199c145,0 290,0 435,0"/>
     <path class="fil4 str12" d="M6800 48002c145,0 290,0 435,0"/>
    </g>
    <line class="fil4 str12" x1="6800" y1="44805" x2="7235" y2= "44805" />
    <polygon class="fil4 str13" points="7151,11677 7151,33529 46343,33529 46343,11672 "/>
    <rect class="fil4 str13" x="7251" y="44805" width="38990" height="22366"/>
    <text x="24789" y="36772"  class="fil3 fnt1">年</text>
    <text x="25862" y="36772"  class="fil3 fnt1">份</text>
    <polyline class="fil4 str10" points="7061,32000 8313,31761 9340,31627 10567,31890 11561,31322 12724,31059 13736,30799 14988,30637 16019,30231 17211,29698 18253,29275 19417,29111 20622,28851 21653,28851 22875,28549 23871,28141 25076,27571 26092,23951 27301,23398 28354,22815 29537,22293 30566,21993 31725,21016 32771,20610 33976,20166 35137,19487 42846,16116 44051,16001 46276,14342 46276,14618 "/>
    <line class="fil4 str14" x1="7144" y1="28361" x2="46355" y2= "15414" />
    <g transform="matrix(1.2 0 0 1 4438.15 -29174.4)">
     <text x="50000" y="35870"  class="fil3 fnt8">日喀则气温与降水量变化</text>
    </g>
    <text x="61225" y="8385"  class="fil3 fnt9">Temperature and precipitation changes of Xigaze</text>
    <path class="fil4 str12" d="M12747 66506c0,217 0,435 0,652"/>
    <path class="fil4 str12" d="M18276 66506c0,217 0,435 0,652"/>
    <path class="fil4 str12" d="M23823 66506c0,217 0,435 0,652"/>
    <path class="fil4 str12" d="M29376 66506c0,217 0,435 0,652"/>
    <path class="fil4 str12" d="M34946 66506c0,217 0,435 0,652"/>
    <path class="fil4 str12" d="M40523 66506c0,217 0,435 0,652"/>
    <text x="52069" y="9904"  class="fil3 fnt1">年均气温</text>
    <text x="56364" y="9904"  class="fil3 fnt2">(</text>
    <text x="57744" y="9904"  class="fil3 fnt2">)</text>
    <text x="56824" y="9904"  class="fil3 fnt2">℃</text>
    <text x="52731" y="10704"  class="fil3 fnt6">Temperature</text>
    <text x="90553" y="9891"  class="fil3 fnt1">年降水量</text>
    <text x="94848" y="9891"  class="fil3 fnt2">(</text>
    <text x="97149" y="9891"  class="fil3 fnt2">)</text>
    <text x="95308" y="9891"  class="fil3 fnt2">毫米</text>
    <text x="90839" y="10716"  class="fil3 fnt6">Precipitation</text>
    <text x="95542" y="10716"  class="fil3 fnt10">(</text>
    <text x="96945" y="10716"  class="fil3 fnt10">)</text>
    <text x="95752" y="10716"  class="fil3 fnt11">mm</text>
    <text x="34501" y="43127"  class="fil3 fnt12">＾</text>
    <text x="84886" y="43079"  class="fil3 fnt12">＾</text>
    <g transform="matrix(1 0 0 1 37012.6 -27561)">
     <text x="50000" y="35870"  class="fil3 fnt12">＾</text>
    </g>
    <text x="39137" y="9272"  class="fil3 fnt12">＾</text>
   </g>
   <g>
    <text x="71313" y="36790"  class="fil3 fnt1">年</text>
    <text x="72387" y="36790"  class="fil3 fnt1">份</text>
    <polygon class="fil2" points="54739,11701 54739,33553 93932,33553 93932,11695 "/>
    <path class="fil12" d="M93545 17921c-194,1887 -449,3760 -657,5644 -289,2626 -545,868 -754,-523 -99,-660 -182,-1266 -201,-1425 -75,-645 -265,-1375 -477,-1260 -594,321 -1111,3887 -1325,4584 -212,687 -424,859 -583,573 -159,-286 -318,-802 -424,-1318 -106,-516 -318,-1089 -530,-1089 -744,0 -579,302 -848,-573 -106,-879 -212,-1757 -318,-2636 0,0 -265,-2177 -318,-2521 -53,-344 -212,-458 -371,-344 -159,115 -399,1150 -399,1150 -158,1038 -317,2076 -475,3114 -95,624 -597,4180 -769,2267 -62,-689 -124,-1378 -186,-2067 -115,-1259 -230,-2518 -344,-3777 0,0 -106,-1490 -159,-1719 -417,-1803 -684,2053 -764,2557 -201,1630 -1250,8390 -2327,3519 -99,-449 -198,-897 -297,-1346 -352,-1594 -447,-1748 -694,-146 -121,1639 -262,3243 -477,4870 -56,422 -374,3827 -795,2005 -44,-191 -88,-382 -133,-573 -181,-784 -530,-1207 -973,-1853 -105,-153 -178,-331 -277,-625 -158,-473 -316,-945 -474,-1418 -31,-92 -168,-536 -320,-934 -512,-1341 -616,207 -953,934 -261,563 -585,-721 -636,-859 -294,-636 -1043,-2463 -1538,-859 -175,726 -321,1440 -606,2127 -472,1137 -780,914 -1134,-129 -251,-741 -423,-1433 -602,-2197 -171,-730 -409,-1237 -893,-26 -204,511 -359,1027 -529,1600 -211,709 -682,3151 -1007,1261 -53,-305 -105,-610 -158,-915 -116,-671 -231,-1342 -347,-2014 -225,-770 -509,-2448 -1459,-1152 -306,417 -708,808 -1021,130 -246,-532 -489,-1217 -713,414 -108,791 -234,1576 -364,2366 -105,636 -244,3664 -657,1286 -106,-611 -212,-1222 -318,-1833 -98,-566 -312,-2981 -562,-1173 -186,1345 -342,2741 -441,4095 -87,1186 -266,2636 -667,795 -62,-284 -124,-568 -186,-852 -106,-840 -212,-1681 -318,-2521 -117,-802 -304,-1450 -525,-2221 -174,-606 -302,-1200 -392,-1904 -163,-1265 -335,-2525 -567,-3782 -105,-874 -184,-2377 -507,-513 -248,1873 -492,3726 -659,5612 -436,1177 -1240,1254 -2148,2092 -654,402 -1244,714 -1775,1289 -531,574 -452,390 -452,390l0 10057 39192 0 0 -15641 -386 9z"/>
    <line class="fil4 str12" x1="54332" y1="30899" x2="54769" y2= "30899" />
    <path class="fil4 str12" d="M54332 28149c145,0 291,0 436,0"/>
    <path class="fil4 str12" d="M54332 25398c145,0 291,0 436,0"/>
    <path class="fil4 str12" d="M54332 22648c145,0 291,0 436,0"/>
    <path class="fil4 str12" d="M54332 19783c145,0 291,0 436,0"/>
    <path class="fil4 str12" d="M54332 17033c145,0 291,0 436,0"/>
    <path class="fil4 str12" d="M54332 14398c145,0 291,0 436,0"/>
    <line class="fil4 str12" x1="55722" y1="33534" x2="55722" y2= "33100" />
    <line class="fil4 str12" x1="56676" y1="33534" x2="56676" y2= "33100" />
    <line class="fil4 str12" x1="57630" y1="33534" x2="57630" y2= "33100" />
    <line class="fil4 str12" x1="58521" y1="33534" x2="58521" y2= "32882" />
    <line class="fil4 str12" x1="59433" y1="33534" x2="59433" y2= "33100" />
    <line class="fil4 str12" x1="60387" y1="33534" x2="60387" y2= "33100" />
    <line class="fil4 str12" x1="61342" y1="33534" x2="61342" y2= "33100" />
    <line class="fil4 str12" x1="62232" y1="33534" x2="62232" y2= "32882" />
    <line class="fil4 str12" x1="63144" y1="33534" x2="63144" y2= "33100" />
    <line class="fil4 str12" x1="64099" y1="33534" x2="64099" y2= "33100" />
    <line class="fil4 str12" x1="64947" y1="33534" x2="64947" y2= "33100" />
    <line class="fil4 str12" x1="65944" y1="33534" x2="65944" y2= "32882" />
    <line class="fil4 str12" x1="66856" y1="33534" x2="66856" y2= "33100" />
    <line class="fil4 str12" x1="67810" y1="33534" x2="67810" y2= "33100" />
    <line class="fil4 str12" x1="68764" y1="33534" x2="68764" y2= "33100" />
    <line class="fil4 str12" x1="69761" y1="33534" x2="69761" y2= "32882" />
    <line class="fil4 str12" x1="70673" y1="33534" x2="70673" y2= "33100" />
    <line class="fil4 str12" x1="71521" y1="33534" x2="71521" y2= "33100" />
    <line class="fil4 str12" x1="72476" y1="33534" x2="72476" y2= "33100" />
    <line class="fil4 str12" x1="73473" y1="33534" x2="73473" y2= "32882" />
    <line class="fil4 str12" x1="74385" y1="33534" x2="74385" y2= "33100" />
    <line class="fil4 str12" x1="75339" y1="33534" x2="75339" y2= "33100" />
    <line class="fil4 str12" x1="76293" y1="33534" x2="76293" y2= "33100" />
    <line class="fil4 str12" x1="77290" y1="33534" x2="77290" y2= "32882" />
    <line class="fil4 str12" x1="78096" y1="33534" x2="78096" y2= "33100" />
    <line class="fil4 str12" x1="79050" y1="33534" x2="79050" y2= "33100" />
    <line class="fil4 str12" x1="80005" y1="33534" x2="80005" y2= "33100" />
    <line class="fil4 str12" x1="81001" y1="33534" x2="81001" y2= "32882" />
    <line class="fil4 str12" x1="81913" y1="33534" x2="81913" y2= "33100" />
    <line class="fil4 str12" x1="82868" y1="33534" x2="82868" y2= "33100" />
    <line class="fil4 str12" x1="83822" y1="33534" x2="83822" y2= "33100" />
    <line class="fil4 str12" x1="84713" y1="33534" x2="84713" y2= "32882" />
    <line class="fil4 str12" x1="85625" y1="33534" x2="85625" y2= "33100" />
    <line class="fil4 str12" x1="86473" y1="33534" x2="86473" y2= "33100" />
    <line class="fil4 str12" x1="87427" y1="33534" x2="87427" y2= "33100" />
    <line class="fil4 str12" x1="88424" y1="33534" x2="88424" y2= "32882" />
    <line class="fil4 str12" x1="89336" y1="33534" x2="89336" y2= "33100" />
    <line class="fil4 str12" x1="90290" y1="33534" x2="90290" y2= "33100" />
    <line class="fil4 str12" x1="91139" y1="33534" x2="91139" y2= "33100" />
    <line class="fil4 str12" x1="92135" y1="33534" x2="92135" y2= "32882" />
    <line class="fil4 str12" x1="93047" y1="33534" x2="93047" y2= "33100" />
    <path class="fil13" d="M60811 18179c0,38 0,76 0,115 -35,0 -71,0 -106,0 0,-38 0,-76 0,-115l106 0z"/>
    <path class="fil13" d="M65371 18523c35,38 71,76 106,115 -35,38 -71,76 -106,115 -35,-38 -71,-76 -106,-115l106 -115z"/>
    <line class="fil4 str12" x1="93916" y1="30899" x2="94350" y2= "30899" />
    <line class="fil4 str12" x1="93916" y1="28149" x2="94350" y2= "28149" />
    <line class="fil4 str12" x1="93916" y1="25398" x2="94350" y2= "25398" />
    <line class="fil4 str12" x1="93916" y1="22648" x2="94350" y2= "22648" />
    <line class="fil4 str12" x1="93916" y1="19783" x2="94350" y2= "19783" />
    <line class="fil4 str12" x1="93916" y1="17033" x2="94350" y2= "17033" />
    <line class="fil4 str12" x1="93916" y1="14398" x2="94350" y2= "14398" />
    <text x="53523" y="33601"  class="fil3 fnt6">0</text>
    <text x="53602" y="31357"  class="fil3 fnt6">1</text>
    <text x="53528" y="28607"  class="fil3 fnt6">2</text>
    <text x="53566" y="25857"  class="fil3 fnt6">3</text>
    <text x="53522" y="23106"  class="fil3 fnt6">4</text>
    <text x="53550" y="20242"  class="fil3 fnt6">5</text>
    <text x="53525" y="17491"  class="fil3 fnt6">6</text>
    <text x="53531" y="14856"  class="fil3 fnt6">7</text>
    <text x="53543" y="12106"  class="fil3 fnt6">8</text>
    <text x="94640" y="33648"  class="fil3 fnt6">0</text>
    <text x="94640" y="31357"  class="fil3 fnt6">100</text>
    <text x="94640" y="28607"  class="fil3 fnt6">200</text>
    <text x="94640" y="25857"  class="fil3 fnt6">300</text>
    <text x="94640" y="23106"  class="fil3 fnt6">400</text>
    <text x="94640" y="20242"  class="fil3 fnt6">500</text>
    <text x="94640" y="17491"  class="fil3 fnt6">600</text>
    <text x="94640" y="14856"  class="fil3 fnt6">700</text>
    <text x="94640" y="12106"  class="fil3 fnt6">800</text>
    <g transform="matrix(0.925371 0 0 1 26078.2 -21644.6)">
     <text x="50000" y="35870"  class="fil3 fnt1">年均气温</text>
    </g>
    <g transform="matrix(0.925371 0 0 1 27984.4 -8698.43)">
     <text x="50000" y="35870"  class="fil3 fnt1">年降水量</text>
    </g>
    <path class="fil4 str15" d="M55165 15543c106,-191 212,-382 318,-573 65,-129 130,-258 195,-387 41,-81 82,-162 123,-244 71,-76 141,-153 212,-229 0,0 265,-57 318,-115 53,-57 106,115 106,115 141,191 283,382 424,573 111,108 222,216 334,323 101,28 202,56 303,85 123,17 247,34 370,50 35,38 71,76 106,115 106,0 212,0 318,0 141,-38 283,-76 424,-115 93,33 186,67 279,100 101,81 203,163 304,244 141,248 283,497 424,745 104,136 208,272 312,408 37,93 75,187 112,280 106,229 212,458 318,688 159,229 318,458 477,688 35,-38 71,-76 106,-115 0,0 36,-222 0,-115 -36,107 159,-435 159,-458 0,-76 0,-153 0,-229 35,-153 71,-306 106,-458 0,0 199,-646 204,-646 6,0 8,-270 8,-270 11,-96 22,-192 33,-289 42,-57 84,-113 126,-170 35,-19 71,-38 106,-57 35,19 71,38 106,57 18,19 35,38 53,57 13,87 26,175 39,262 22,84 44,169 67,253 35,76 71,153 106,229 40,65 80,131 119,196 31,88 62,175 93,263 35,76 71,153 106,229 21,41 43,82 64,124 49,73 99,147 148,220 18,38 35,76 53,115 74,-38 148,-76 222,-114 66,-55 131,-110 197,-166 37,-60 74,-119 111,-179 53,-57 106,-115 159,-172 124,0 247,0 371,0 141,38 283,76 424,115 71,38 141,76 212,115 53,38 106,76 159,115 71,76 141,153 212,229 35,172 71,344 106,516 35,76 71,153 106,229 55,59 111,118 166,177 33,56 66,111 99,167 35,0 71,0 106,0 71,0 141,0 212,0 23,-71 46,-143 69,-214 0,0 37,-359 90,-359 53,0 0,-229 0,-229 35,-153 71,-306 106,-458 35,-76 71,-153 106,-229 71,-153 141,-306 212,-458 0,-76 0,-153 0,-229 20,-116 40,-231 60,-347 51,-56 101,-112 152,-169 53,-57 106,-115 159,-172 35,19 71,38 106,57 67,18 134,36 201,54 56,13 112,25 168,38 36,46 72,91 108,137 71,76 141,153 212,229 35,57 71,115 106,172 124,229 247,458 371,688 53,57 106,115 159,172 88,57 177,115 265,172 35,-38 71,-76 106,-115 53,-153 106,-306 159,-458 0,-76 0,-153 0,-229 88,-229 177,-458 265,-688 53,-153 106,-306 159,-458 0,-76 0,-153 0,-229 22,-70 44,-139 66,-209 49,-64 97,-128 146,-192 88,-38 177,-76 265,-115 177,115 353,229 530,344 53,38 106,76 159,115 18,38 35,76 53,115 71,0 141,0 212,0 141,0 283,0 424,0 71,0 141,0 212,0 71,19 141,38 212,57 177,19 353,38 530,57 71,38 141,76 212,115 71,19 141,38 212,57 177,95 353,191 530,286 177,95 353,191 530,286 159,134 318,267 477,401 106,115 212,229 318,344 71,76 141,153 212,229 124,95 247,191 371,286 88,-19 177,-38 265,-57 35,-38 71,-76 106,-115 53,-134 106,-267 159,-401 18,-76 35,-153 53,-229 88,-153 177,-306 265,-458 39,-143 79,-286 118,-430 67,-48 133,-96 200,-143 18,-38 35,-76 53,-115 53,19 106,38 159,57 57,38 114,77 171,115 33,46 66,92 99,139 33,30 65,59 98,89 54,58 109,115 163,173 18,19 35,38 53,57 53,76 106,153 159,229 35,19 71,38 106,57 35,19 71,38 106,57 61,28 122,56 184,84 80,29 160,59 240,88 71,19 141,38 212,57 106,-38 212,-76 318,-115 77,-113 154,-227 231,-340 43,-28 86,-56 129,-84 74,-54 148,-108 222,-161 71,-15 142,-30 213,-45 53,0 106,0 159,0 40,40 81,80 121,120 33,52 66,103 99,155 33,61 66,123 98,184 35,38 71,76 106,115 65,59 130,117 195,176 23,-1 46,-3 70,-4 35,-38 71,-76 106,-115 35,-38 71,-76 106,-115 88,-134 177,-267 265,-401 108,-147 216,-294 324,-441 39,-95 79,-191 118,-286 47,-140 94,-279 141,-419 69,-125 137,-250 206,-374 55,-47 110,-94 165,-141 103,-35 205,-71 308,-106 56,16 113,32 169,49 74,174 149,348 223,522 32,93 63,187 95,280 35,153 71,306 106,458 53,76 106,153 159,229 45,174 91,349 136,523 78,112 157,224 235,336 53,19 106,38 159,57 48,-91 97,-181 145,-272 93,-100 186,-201 279,-301 283,-267 566,-535 848,-802 212,-134 424,-267 636,-401 177,-115 353,-229 530,-344 124,0 247,0 371,0 35,76 71,153 106,229 230,420 460,840 689,1261 212,95 424,191 636,286 141,0 283,0 424,0 141,76 283,153 424,229 124,-57 247,-115 371,-172 106,-191 212,-382 318,-573 159,-229 318,-458 477,-688 230,-95 459,-191 689,-286 124,-76 247,-153 371,-229 177,-229 353,-458 530,-688 106,-115 212,-229 318,-344 71,0 141,0 212,0 177,76 353,153 530,229 53,57 106,115 159,172 53,96 106,191 159,286 0,0 134,64 106,229 -27,166 53,458 53,458 71,267 141,535 212,802 53,153 106,306 159,458 88,172 177,344 265,516 53,0 106,0 159,0 71,-172 141,-344 212,-516 0,-76 0,-153 0,-229 106,-382 212,-764 318,-1146 0,-191 0,-382 0,-573 71,-229 141,-458 212,-688 35,-38 71,-76 106,-115"/>
    <g transform="matrix(0.925371 0 0 1 7660.92 -960.435)">
     <text x="50000" y="35870"  class="fil3 fnt3">1957</text>
    </g>
    <g transform="matrix(0.925371 0 0 1 11420.7 -962.261)">
     <text x="50000" y="35870"  class="fil3 fnt3">1961</text>
    </g>
    <g transform="matrix(0.925371 0 0 1 15117.1 -960.435)">
     <text x="50000" y="35870"  class="fil3 fnt3">1965</text>
    </g>
    <g transform="matrix(0.925371 0 0 1 18854.9 -962.261)">
     <text x="50000" y="35870"  class="fil3 fnt3">1969</text>
    </g>
    <g transform="matrix(0.925371 0 0 1 22610 -966)">
     <text x="50000" y="35870"  class="fil3 fnt3">1973</text>
    </g>
    <g transform="matrix(0.925371 0 0 1 26340.9 -966)">
     <text x="50000" y="35870"  class="fil3 fnt3">1977</text>
    </g>
    <g transform="matrix(0.925371 0 0 1 30089.1 -966)">
     <text x="50000" y="35870"  class="fil3 fnt3">1981</text>
    </g>
    <g transform="matrix(0.925371 0 0 1 33785.5 -960.435)">
     <text x="50000" y="35870"  class="fil3 fnt3">1985</text>
    </g>
    <g transform="matrix(0.925371 0 0 1 37523.3 -966)">
     <text x="50000" y="35870"  class="fil3 fnt3">1989</text>
    </g>
    <g transform="matrix(0.925371 0 0 1 41278.4 -966)">
     <text x="50000" y="35870"  class="fil3 fnt3">1993</text>
    </g>
    <g transform="matrix(0.925371 0 0 1 45009.4 -966)">
     <text x="50000" y="35870"  class="fil3 fnt3">1997</text>
    </g>
    <g transform="matrix(0.925371 0 0 1 46890.1 -966)">
     <text x="50000" y="35870"  class="fil3 fnt3">1999</text>
    </g>
    <path class="fil4 str16" d="M55191 23107c531,-574 1121,-887 1775,-1289 908,-837 1712,-915 2148,-2092 167,-1886 411,-3740 659,-5612 323,-1864 402,-361 507,513 233,1256 404,2516 567,3782 91,705 218,1298 392,1904 221,771 408,1419 525,2221 106,840 212,1681 318,2521 62,284 124,568 186,852 401,1841 580,390 667,-795 99,-1354 254,-2750 441,-4095 251,-1808 464,607 562,1173 106,611 212,1222 318,1833 413,2379 552,-650 657,-1286 130,-789 256,-1575 364,-2366 223,-1631 467,-946 713,-414 313,678 715,287 1021,-130 951,-1296 1235,383 1459,1152 116,671 231,1342 347,2014 53,305 105,610 158,915 326,1890 796,-551 1007,-1261 170,-573 325,-1088 529,-1600 485,-1211 723,-704 893,26 179,764 351,1456 602,2197 354,1043 662,1266 1134,129 285,-687 431,-1401 606,-2127 495,-1603 1243,224 1538,859 51,139 376,1423 636,859 336,-727 441,-2276 953,-934 152,398 289,842 320,934 158,473 316,945 474,1418 98,294 171,472 277,625 443,646 791,1068 973,1853 44,191 88,382 133,573 421,1822 740,-1584 795,-2005 215,-1627 356,-3232 477,-4870 247,-1602 342,-1448 694,146 99,449 198,897 297,1346 1077,4872 2126,-1888 2327,-3519 80,-503 346,-4359 764,-2557 53,229 159,1719 159,1719 115,1259 230,2518 344,3777 62,689 124,1378 186,2067 172,1912 674,-1643 769,-2267 158,-1038 317,-2076 475,-3114 0,0 240,-1036 399,-1150 159,-115 318,0 371,344 53,344 318,2521 318,2521 106,879 212,1757 318,2636 270,875 105,573 848,573 212,0 424,573 530,1089 106,516 265,1031 424,1318 159,286 371,114 583,-573 215,-697 731,-4263 1325,-4584 212,-115 403,615 477,1260 18,159 102,765 201,1425 209,1390 464,3149 754,523 208,-1884 463,-3757 657,-5644"/>
    <polygon class="fil4 str13" points="54739,11701 54739,33553 93932,33553 93932,11695 "/>
    <rect class="fil14 str17" x="54648" y="44818" width="39024" height="22368"/>
    <text x="53364" y="67400"  class="fil3 fnt6">0</text>
    <text x="54096" y="68554"  class="fil3 fnt3">1965</text>
    <text x="59282" y="68554"  class="fil3 fnt3">1970</text>
    <text x="64875" y="68554"  class="fil3 fnt3">1975</text>
    <text x="70431" y="68554"  class="fil3 fnt3">1980</text>
    <text x="76025" y="68515"  class="fil3 fnt3">1985</text>
    <text x="81581" y="68515"  class="fil3 fnt3">1990</text>
    <text x="87175" y="68554"  class="fil3 fnt3">1995</text>
    <text x="91942" y="68554"  class="fil3 fnt3">2000</text>
    <rect class="fil15" x="54981" y="50783" width="607" height="16361"/>
    <rect class="fil15" x="56305" y="50604" width="607" height="16540"/>
    <rect class="fil15" x="57752" y="50632" width="607" height="16512"/>
    <rect class="fil15" x="59197" y="50693" width="607" height="16451"/>
    <rect class="fil15" x="60558" y="50604" width="607" height="16540"/>
    <rect class="fil15" x="61948" y="50542" width="607" height="16602"/>
    <rect class="fil15" x="63397" y="50504" width="607" height="16640"/>
    <rect class="fil15" x="64720" y="50189" width="607" height="16955"/>
    <rect class="fil15" x="66084" y="50045" width="607" height="17098"/>
    <rect class="fil15" x="67603" y="49959" width="607" height="17184"/>
    <rect class="fil15" x="68913" y="49893" width="607" height="17251"/>
    <rect class="fil15" x="70356" y="49989" width="607" height="17155"/>
    <rect class="fil15" x="71770" y="49995" width="607" height="17149"/>
    <rect class="fil15" x="73131" y="48007" width="607" height="19136"/>
    <rect class="fil15" x="74546" y="48069" width="607" height="19074"/>
    <rect class="fil15" x="75947" y="48167" width="607" height="18976"/>
    <rect class="fil15" x="77321" y="48157" width="607" height="18986"/>
    <rect class="fil15" x="80134" y="48066" width="607" height="19086"/>
    <rect class="fil15" x="78711" y="48223" width="607" height="18921"/>
    <rect class="fil15" x="81487" y="48005" width="607" height="19147"/>
    <rect class="fil15" x="89856" y="48539" width="607" height="18603"/>
    <rect class="fil15" x="92714" y="47457" width="607" height="19699"/>
    <rect class="fil15" x="91322" y="47509" width="607" height="19652"/>
    <g transform="matrix(1.2 0 0 1 852.214 5625.83)">
     <text x="50000" y="35870"  class="fil3 fnt8">日喀则耕地与人均耕地面积变化</text>
     <text x="71474" y="35870"  class="fil3 fnt13"> </text>
    </g>
    <text x="52904" y="64248"  class="fil3 fnt6">20</text>
    <text x="52904" y="61178"  class="fil3 fnt6">40</text>
    <rect class="fil15" x="82902" y="48269" width="607" height="18883"/>
    <rect class="fil15" x="84303" y="48472" width="607" height="18680"/>
    <rect class="fil15" x="85667" y="48573" width="607" height="18579"/>
    <rect class="fil15" x="87094" y="48675" width="607" height="18477"/>
    <rect class="fil15" x="88516" y="48573" width="607" height="18579"/>
    <line class="fil4 str18" x1="93584" y1="48007" x2="54658" y2= "48004" />
    <line class="fil4 str18" x1="93584" y1="54401" x2="54658" y2= "54398" />
    <line class="fil4 str18" x1="93584" y1="57543" x2="54658" y2= "57540" />
    <line class="fil4 str18" x1="93584" y1="60795" x2="54658" y2= "60792" />
    <line class="fil4 str18" x1="93584" y1="63933" x2="54658" y2= "63929" />
    <text x="52904" y="57821"  class="fil3 fnt6">60</text>
    <text x="52904" y="54750"  class="fil3 fnt6">80</text>
    <text x="52444" y="51588"  class="fil3 fnt6">100</text>
    <text x="52444" y="48331"  class="fil3 fnt6">120</text>
    <text x="52444" y="45151"  class="fil3 fnt6">140</text>
    <line class="fil4 str18" x1="93584" y1="51239" x2="54658" y2= "51235" />
    <text x="94574" y="67400"  class="fil3 fnt6">0</text>
    <text x="94574" y="64305"  class="fil3 fnt6">500</text>
    <text x="94574" y="61135"  class="fil3 fnt6">1</text>
    <text x="95289" y="61135"  class="fil3 fnt6">000</text>
    <text x="95034" y="61135"  class="fil3 fnt14"> </text>
    <text x="94574" y="57849"  class="fil3 fnt6">1</text>
    <text x="95289" y="57849"  class="fil3 fnt6">500</text>
    <text x="95034" y="57849"  class="fil3 fnt14"> </text>
    <text x="94574" y="54664"  class="fil3 fnt6">2</text>
    <text x="95289" y="54664"  class="fil3 fnt6">000</text>
    <text x="95034" y="54664"  class="fil3 fnt14"> </text>
    <text x="94574" y="51420"  class="fil3 fnt6">2</text>
    <text x="95289" y="51420"  class="fil3 fnt6">500</text>
    <text x="95034" y="51420"  class="fil3 fnt14"> </text>
    <text x="50943" y="42916"  class="fil3 fnt7">  </text>
    <text x="51414" y="42916"  class="fil3 fnt1">耕地面积</text>
    <text x="55708" y="42916"  class="fil3 fnt2">(</text>
    <text x="59850" y="42916"  class="fil3 fnt2">)</text>
    <text x="56168" y="42916"  class="fil3 fnt2">平方千米</text>
    <line class="fil4 str12" x1="54211" y1="44831" x2="54646" y2= "44831" />
    <text x="87381" y="42916"  class="fil3 fnt1">人均耕地面积</text>
    <text x="93823" y="42916"  class="fil3 fnt2">(</text>
    <text x="97044" y="42916"  class="fil3 fnt2">)</text>
    <text x="94283" y="42916"  class="fil3 fnt2">平方米</text>
    <path class="fil4 str12" d="M54169 63947c145,0 291,0 436,0"/>
    <path class="fil4 str3" d="M54169 67176c145,0 291,0 436,0"/>
    <path class="fil4 str12" d="M54169 60792c145,0 291,0 436,0"/>
    <path class="fil4 str12" d="M54169 57536c145,0 291,0 436,0"/>
    <path class="fil4 str12" d="M54169 54386c145,0 291,0 436,0"/>
    <path class="fil4 str12" d="M54169 51255c145,0 291,0 436,0"/>
    <path class="fil4 str12" d="M54169 48010c145,0 291,0 436,0"/>
    <path class="fil4 str12" d="M93708 63976c145,0 291,0 436,0"/>
    <path class="fil4 str12" d="M93708 60775c145,0 291,0 436,0"/>
    <path class="fil4 str12" d="M93708 57577c145,0 291,0 436,0"/>
    <path class="fil4 str12" d="M93708 54384c145,0 291,0 436,0"/>
    <path class="fil4 str12" d="M93708 51179c145,0 291,0 436,0"/>
    <polyline class="fil4 str19" points="55324,52350 56675,52495 58027,52567 59514,52350 60865,52713 62352,53003 63704,53076 65056,53076 66407,53221 67894,53657 69246,53803 70597,53948 72084,54166 73436,52640 74923,53003 76274,53294 77626,53657 78978,55764 80465,55909 81816,56200 83303,56563 84655,56709 86006,57144 87358,57362 88845,57435 90197,57726 91683,58162 93035,58162 93587,58340 "/>
    <path class="fil4 str17" d="M54646 66578c0,217 0,435 0,652"/>
    <path class="fil4 str12" d="M60221 66578c0,217 0,435 0,652"/>
    <path class="fil4 str12" d="M65796 66578c0,217 0,435 0,652"/>
    <path class="fil4 str12" d="M71371 66578c0,217 0,435 0,652"/>
    <path class="fil4 str12" d="M76946 66578c0,217 0,435 0,652"/>
    <path class="fil4 str12" d="M82521 66578c0,217 0,435 0,652"/>
    <path class="fil4 str12" d="M88096 66578c0,217 0,435 0,652"/>
    <path class="fil4 str12" d="M93671 66578c0,217 0,435 0,652"/>
    <text x="12853" y="9344"  class="fil3 fnt9">Changes of househouds and population of Xigaze</text>
    <text x="61764" y="43225"  class="fil3 fnt9">Farmland area and that per capita of Xigaze</text>
    <text x="20054" y="43221"  class="fil3 fnt9">Liverstock change of Xigaze</text>
    <text x="21754" y="49984"  class="fil3 fnt6">Sheep</text>
    <text x="22244" y="63359"  class="fil3 fnt6">Livestock</text>
    <text x="52291" y="43813"  class="fil3 fnt6">Farmland area</text>
    <text x="57580" y="43813"  class="fil3 fnt11">(km</text>
    <text x="59007" y="43813"  class="fil3 fnt11">)</text>
    <text x="58815" y="43430"  class="fil3 fnt15">2</text>
    <text x="87148" y="43813"  class="fil3 fnt6">Farmland area per capita</text>
    <text x="96269" y="43813"  class="fil3 fnt11">(m</text>
    <text x="97313" y="43813"  class="fil3 fnt11">)</text>
    <text x="97121" y="43430"  class="fil3 fnt15">2</text>
    <text x="27132" y="36695"  class="fil3 fnt2">(</text>
    <text x="29288" y="36695"  class="fil3 fnt2">)</text>
    <text x="27592" y="36695"  class="fil3 fnt6">Year</text>
    <g transform="matrix(1 0 0 1 -31513.6 -20647.6)">
     <text x="50000" y="35870"  class="fil3 fnt6">Households</text>
    </g>
    <text x="12973" y="15148"  class="fil3 fnt6">Population</text>
    <text x="12811" y="17705"  class="fil3 fnt6">Trend line of households change</text>
    <g transform="matrix(1 0 0 1 -45064.8 -25142.8)">
     <text x="50000" y="35870"  class="fil3 fnt6">Households</text>
    </g>
    <text x="41047" y="10733"  class="fil3 fnt6">Population</text>
    <text x="45035" y="10733"  class="fil3 fnt11">(0.01 million person)</text>
    <text x="39693" y="43753"  class="fil3 fnt6">Livestock</text>
    <text x="43322" y="43753"  class="fil3 fnt11">(0.01 million head)</text>
    <text x="3687" y="43816"  class="fil3 fnt6">Sheep</text>
    <text x="5936" y="43816"  class="fil3 fnt11">(0.01 million head)</text>
    <text x="87185" y="46434"  class="fil3 fnt1">  耕地面积</text>
    <text x="87730" y="47251"  class="fil3 fnt6">Farmland area</text>
    <text x="79776" y="57840"  class="fil3 fnt1">人均耕地面积</text>
    <text x="78406" y="58669"  class="fil3 fnt6">Farmland area per capita</text>
    <text x="72013" y="15064"  class="fil3 fnt6">Temperature</text>
    <text x="73871" y="27984"  class="fil3 fnt6">Precipitation</text>
    <text x="73641" y="36738"  class="fil3 fnt2">(</text>
    <text x="75797" y="36738"  class="fil3 fnt2">)</text>
    <text x="74101" y="36738"  class="fil3 fnt6">Year</text>
    <text x="71320" y="70410"  class="fil3 fnt1">年</text>
    <text x="72394" y="70410"  class="fil3 fnt1">份</text>
    <text x="73641" y="70410"  class="fil3 fnt2">(</text>
    <text x="75797" y="70410"  class="fil3 fnt2">)</text>
    <text x="74101" y="70410"  class="fil3 fnt6">Year</text>
    <text x="24279" y="70461"  class="fil3 fnt1">年</text>
    <text x="25353" y="70461"  class="fil3 fnt1">份</text>
    <text x="26607" y="70410"  class="fil3 fnt2">(</text>
    <text x="28763" y="70410"  class="fil3 fnt2">)</text>
    <text x="27067" y="70410"  class="fil3 fnt6">Year</text>
    <path class="fil4 str12" d="M54312 11711c145,0 291,0 436,0"/>
    <line class="fil4 str12" x1="54332" y1="33558" x2="54769" y2= "33558" />
    <line class="fil4 str12" x1="93916" y1="11702" x2="94350" y2= "11702" />
    <line class="fil4 str12" x1="93916" y1="33550" x2="94350" y2= "33550" />
    <rect class="fil4 str13" x="54648" y="44818" width="39024" height="22368"/>
   </g>
  </g>
 </g>
</svg>
