<?xml version="1.0" encoding="UTF-8"?>
<!DOCTYPE svg PUBLIC "-//W3C//DTD SVG 1.1//EN" "http://www.w3.org/Graphics/SVG/1.1/DTD/svg11.dtd">
<!-- Creator: CorelDRAW X6 -->
<svg xmlns="http://www.w3.org/2000/svg" xml:space="preserve" width="1000px" height="515px" version="1.1" style="shape-rendering:geometricPrecision; text-rendering:geometricPrecision; image-rendering:optimizeQuality; fill-rule:evenodd; clip-rule:evenodd"
viewBox="0 0 100000 51515"
 xmlns:xlink="http://www.w3.org/1999/xlink">
 <defs>
  <style type="text/css">
   <![CDATA[
    .str1 {stroke:#332C2B;stroke-width:46.1818}
    .str4 {stroke:#00A2E9;stroke-width:48.4848;stroke-linejoin:round}
    .str3 {stroke:#332C2B;stroke-width:60.6061}
    .str2 {stroke:#332C2B;stroke-width:60.6061;stroke-linejoin:round}
    .str0 {stroke:#6D583D;stroke-width:60.6061;stroke-linejoin:round}
    .str5 {stroke:#823520;stroke-width:60.6061;stroke-linejoin:round}
    .str6 {stroke:#332C2B;stroke-width:72.7273}
    .str8 {stroke:#FEFEFE;stroke-width:242.424}
    .str7 {stroke:#FEFEFE;stroke-width:2424.24}
    .fil3 {fill:none}
    .fil2 {fill:#332C2B}
    .fil1 {fill:#FEFEFE}
    .fil4 {fill:#00A2E9}
    .fil0 {fill:#6D583D}
    .fil5 {fill:#823520}
    .fil6 {fill:#D5C296}
    .fil8 {fill:#E5ECF0}
    .fil7 {fill:#E6E4C7}
    .fil10 {fill:#EFEDDF}
    .fil9 {fill:#FFFDEA}
    .fnt7 {font-weight:normal;font-size:1175.94px;font-family:'Times New Roman'}
    .fnt2 {font-weight:normal;font-size:1282.85px;font-family:'Times New Roman'}
    .fnt6 {font-weight:normal;font-size:1282.85px;font-family:'方正书宋简体'}
    .fnt3 {font-weight:normal;font-size:1282.85px;font-family:'方正细圆简体'}
    .fnt0 {font-weight:normal;font-size:1496.61px;font-family:'方正书宋简体'}
    .fnt1 {font-weight:normal;font-size:1603.52px;font-family:'黑体'}
    .fnt5 {font-weight:normal;font-size:1710.42px;font-family:'Arial'}
    .fnt4 {font-weight:normal;font-size:2138.06px;font-family:'方正准圆简体'}
   ]]>
  </style>
 </defs>
<symbol id="符号25" viewBox="49861 25618 279 279">
 <path class="fil0 str0" d="M50109 25758c0,-60 -49,-109 -109,-109 -60,0 -109,49 -109,109 0,60 49,109 109,109 60,0 109,-49 109,-109z"/>
</symbol>
<symbol id="符号7" viewBox="49310 25068 1380 1380">
 <circle class="fil1 str1" cx="50000" cy="25758" r="667"/>
 <circle class="fil2 str1" cx="50000" cy="25758" r="394"/>
</symbol>
<symbol id="符号35" viewBox="49613 25371 773 773">
 <circle class="fil1 str1" cx="50000" cy="25758" r="364"/>
 <circle class="fil3 str1" cx="50000" cy="25758" r="136"/>
</symbol>
<symbol id="符号44" viewBox="49879 25636 242 242">
 <path class="fil0 str0" d="M50091 25758c0,-50 -41,-91 -91,-91 -50,0 -91,41 -91,91 0,50 41,91 91,91 50,0 91,-41 91,-91z"/>
</symbol>
<symbol id="符号41" viewBox="49613 25371 773 773">
 <circle class="fil1 str1" cx="50000" cy="25758" r="364"/>
 <circle class="fil3 str1" cx="50000" cy="25758" r="136"/>
</symbol>
<symbol id="符号40" viewBox="49606 25364 788 788">
 <path class="fil1 str2" d="M50364 25758c0,-201 -163,-364 -364,-364 -201,0 -364,163 -364,364 0,201 163,364 364,364 201,0 364,-163 364,-364z"/>
</symbol>
<symbol id="符号21" viewBox="49606 25364 788 788">
 <path class="fil1 str2" d="M50364 25758c0,-201 -163,-364 -364,-364 -201,0 -364,163 -364,364 0,201 163,364 364,364 201,0 364,-163 364,-364z"/>
</symbol>
<symbol id="符号31" viewBox="49615 25372 770 770">
 <line class="fil3 str3" x1="49636" y1="25394" x2="50364" y2= "26121" />
 <line class="fil3 str3" x1="49636" y1="26121" x2="50364" y2= "25394" />
</symbol>
<symbol id="符号28" viewBox="49606 25364 788 788">
 <path class="fil1 str2" d="M50364 25758c0,-201 -163,-364 -364,-364 -201,0 -364,163 -364,364 0,201 163,364 364,364 201,0 364,-163 364,-364z"/>
</symbol>
<symbol id="符号17" viewBox="49491 25539 994 436">
 <polygon class="fil4" points="49861,25697 49864,25697 49872,25698 49885,25698 49903,25698 49924,25698 49948,25697 49974,25696 50002,25694 50030,25692 50060,25688 50089,25684 50117,25678 50144,25672 50169,25663 50192,25654 50210,25642 50228,25630 50245,25619 50261,25608 50278,25599 50295,25591 50311,25584 50328,25578 50345,25574 50362,25572 50379,25571 50396,25571 50413,25574 50430,25579 50448,25585 50484,25614 50485,25615 50479,25615 50470,25614 50457,25612 50443,25610 50426,25609 50408,25609 50388,25609 50368,25612 50347,25616 50326,25623 50304,25632 50284,25644 50263,25659 50245,25678 50215,25698 50186,25716 50156,25733 50126,25747 50097,25759 50069,25770 50041,25780 50015,25788 49991,25794 49969,25800 49933,25810 49919,25813 49904,25815 49893,25816 "/>
 <path class="fil4 str4" d="M49906 25758c0,-107 -87,-194 -195,-194 -108,0 -195,87 -195,194 0,107 88,194 195,194 108,0 195,-87 195,-194z"/>
</symbol>
<symbol id="符号12" viewBox="49606 25364 788 788">
 <path class="fil1 str2" d="M50364 25758c0,-201 -163,-364 -364,-364 -201,0 -364,163 -364,364 0,201 163,364 364,364 201,0 364,-163 364,-364z"/>
</symbol>
<symbol id="符号14" viewBox="49606 25364 788 788">
 <path class="fil1 str2" d="M50364 25758c0,-201 -163,-364 -364,-364 -201,0 -364,163 -364,364 0,201 163,364 364,364 201,0 364,-163 364,-364z"/>
</symbol>
<symbol id="符号38" viewBox="49879 25636 242 242">
 <path class="fil0 str0" d="M50091 25758c0,-50 -41,-91 -91,-91 -50,0 -91,41 -91,91 0,50 41,91 91,91 50,0 91,-41 91,-91z"/>
</symbol>
<symbol id="符号43" viewBox="49615 25372 770 770">
 <line class="fil3 str3" x1="49636" y1="25394" x2="50364" y2= "26121" />
 <line class="fil3 str3" x1="49636" y1="26121" x2="50364" y2= "25394" />
</symbol>
<symbol id="符号19" viewBox="49861 25618 279 279">
 <path class="fil5 str5" d="M50109 25758c0,-60 -49,-109 -109,-109 -60,0 -109,49 -109,109 0,60 49,109 109,109 60,0 109,-49 109,-109z"/>
</symbol>
<symbol id="符号9" viewBox="49613 25371 773 773">
 <circle class="fil1 str1" cx="50000" cy="25758" r="364"/>
 <circle class="fil3 str1" cx="50000" cy="25758" r="136"/>
</symbol>
<symbol id="符号11" viewBox="49310 25068 1380 1380">
 <circle class="fil1 str1" cx="50000" cy="25758" r="667"/>
 <circle class="fil2 str1" cx="50000" cy="25758" r="394"/>
</symbol>
<symbol id="符号29" viewBox="49613 25371 773 773">
 <circle class="fil1 str1" cx="50000" cy="25758" r="364"/>
 <circle class="fil3 str1" cx="50000" cy="25758" r="136"/>
</symbol>
<symbol id="符号18" viewBox="49615 25372 770 770">
 <rect class="fil1" x="49636" y="25394" width="727" height="727"/>
 <line class="fil3 str3" x1="49636" y1="25394" x2="50364" y2= "26121" />
 <line class="fil3 str3" x1="49636" y1="26121" x2="50364" y2= "25394" />
</symbol>
<symbol id="符号2" viewBox="49879 25636 242 242">
 <path class="fil5 str5" d="M50091 25758c0,-50 -41,-91 -91,-91 -50,0 -91,41 -91,91 0,50 41,91 91,91 50,0 91,-41 91,-91z"/>
</symbol>
<symbol id="符号13" viewBox="49613 25371 773 773">
 <circle class="fil1 str1" cx="50000" cy="25758" r="364"/>
 <circle class="fil3 str1" cx="50000" cy="25758" r="136"/>
</symbol>
<symbol id="符号16" viewBox="49310 25068 1380 1380">
 <circle class="fil1 str1" cx="50000" cy="25758" r="667"/>
 <circle class="fil2 str1" cx="50000" cy="25758" r="394"/>
</symbol>
<symbol id="符号26" viewBox="49715 25327 570 861">
 <polygon class="fil0" points="49722,26188 49996,25327 50285,26188 49715,26188 "/>
</symbol>
<symbol id="符号3" viewBox="49615 25372 770 770">
 <rect class="fil1" x="49636" y="25394" width="727" height="727"/>
 <line class="fil3 str3" x1="49636" y1="25394" x2="50364" y2= "26121" />
 <line class="fil3 str3" x1="49636" y1="26121" x2="50364" y2= "25394" />
</symbol>
<symbol id="符号30" viewBox="49310 25068 1380 1380">
 <circle class="fil1 str1" cx="50000" cy="25758" r="667"/>
 <circle class="fil2 str1" cx="50000" cy="25758" r="394"/>
</symbol>
<symbol id="符号10" viewBox="49310 25068 1380 1380">
 <circle class="fil1 str1" cx="50000" cy="25758" r="667"/>
 <circle class="fil2 str1" cx="50000" cy="25758" r="394"/>
</symbol>
<symbol id="符号1" viewBox="49758 25394 485 727">
 <polygon class="fil5" points="49764,26121 49997,25394 50242,26121 49758,26121 "/>
</symbol>
<symbol id="符号5" viewBox="49606 25364 788 788">
 <path class="fil1 str2" d="M50364 25758c0,-201 -163,-364 -364,-364 -201,0 -364,163 -364,364 0,201 163,364 364,364 201,0 364,-163 364,-364z"/>
</symbol>
<symbol id="符号24" viewBox="49615 25372 770 770">
 <line class="fil3 str3" x1="49636" y1="25394" x2="50364" y2= "26121" />
 <line class="fil3 str3" x1="49636" y1="26121" x2="50364" y2= "25394" />
</symbol>
<symbol id="符号20" viewBox="49715 25327 570 861">
 <polygon class="fil5" points="49722,26188 49996,25327 50285,26188 49715,26188 "/>
</symbol>
<symbol id="符号34" viewBox="49727 25485 545 545">
 <path class="fil1 str2" d="M50242 25758c0,-134 -109,-242 -242,-242 -134,0 -242,109 -242,242 0,134 109,242 242,242 134,0 242,-108 242,-242z"/>
 <circle class="fil2" cx="50000" cy="25758" r="91"/>
</symbol>
<symbol id="符号23" viewBox="49310 25068 1380 1380">
 <circle class="fil1 str1" cx="50000" cy="25758" r="667"/>
 <circle class="fil2 str1" cx="50000" cy="25758" r="394"/>
</symbol>
<symbol id="符号4" viewBox="49491 25539 994 436">
 <polygon class="fil4" points="49861,25697 49864,25697 49872,25698 49885,25698 49903,25698 49924,25698 49948,25697 49974,25696 50002,25694 50030,25692 50060,25688 50089,25684 50117,25678 50144,25672 50169,25663 50192,25654 50210,25642 50228,25630 50245,25619 50261,25608 50278,25599 50295,25591 50311,25584 50328,25578 50345,25574 50362,25572 50379,25571 50396,25571 50413,25574 50430,25579 50448,25585 50484,25614 50485,25615 50479,25615 50470,25614 50457,25612 50443,25610 50426,25609 50408,25609 50388,25609 50368,25612 50347,25616 50326,25623 50304,25632 50284,25644 50263,25659 50245,25678 50215,25698 50186,25716 50156,25733 50126,25747 50097,25759 50069,25770 50041,25780 50015,25788 49991,25794 49969,25800 49933,25810 49919,25813 49904,25815 49893,25816 "/>
 <path class="fil4 str4" d="M49906 25758c0,-107 -87,-194 -195,-194 -108,0 -195,87 -195,194 0,107 88,194 195,194 108,0 195,-87 195,-194z"/>
</symbol>
<symbol id="符号39" viewBox="49758 25394 485 727">
 <polygon class="fil0" points="49764,26121 49997,25394 50242,26121 49758,26121 "/>
</symbol>
<symbol id="符号37" viewBox="49615 25372 770 770">
 <line class="fil3 str3" x1="49636" y1="25394" x2="50364" y2= "26121" />
 <line class="fil3 str3" x1="49636" y1="26121" x2="50364" y2= "25394" />
</symbol>
<symbol id="符号45" viewBox="49758 25394 485 727">
 <polygon class="fil0" points="49764,26121 49997,25394 50242,26121 49758,26121 "/>
</symbol>
<symbol id="符号33" viewBox="49758 25394 485 727">
 <polygon class="fil0" points="49764,26121 49997,25394 50242,26121 49758,26121 "/>
</symbol>
<symbol id="符号22" viewBox="49522 25280 955 955">
 <circle class="fil1 str1" cx="50000" cy="25758" r="455"/>
 <circle class="fil3 str1" cx="50000" cy="25758" r="170"/>
</symbol>
<symbol id="符号8" viewBox="49606 25364 788 788">
 <path class="fil1 str2" d="M50364 25758c0,-201 -163,-364 -364,-364 -201,0 -364,163 -364,364 0,201 163,364 364,364 201,0 364,-163 364,-364z"/>
</symbol>
<symbol id="符号6" viewBox="49613 25371 773 773">
 <circle class="fil1 str1" cx="50000" cy="25758" r="364"/>
 <circle class="fil3 str1" cx="50000" cy="25758" r="136"/>
</symbol>
<symbol id="符号36" viewBox="49310 25068 1380 1380">
 <circle class="fil1 str1" cx="50000" cy="25758" r="667"/>
 <circle class="fil2 str1" cx="50000" cy="25758" r="394"/>
</symbol>
<symbol id="符号27" viewBox="49758 25394 485 727">
 <polygon class="fil0" points="49764,26121 49997,25394 50242,26121 49758,26121 "/>
</symbol>
<symbol id="符号15" viewBox="49522 25280 955 955">
 <circle class="fil1 str1" cx="50000" cy="25758" r="455"/>
 <circle class="fil3 str1" cx="50000" cy="25758" r="170"/>
</symbol>
<symbol id="符号42" viewBox="49310 25068 1380 1380">
 <circle class="fil1 str1" cx="50000" cy="25758" r="667"/>
 <circle class="fil2 str1" cx="50000" cy="25758" r="394"/>
</symbol>
<symbol id="符号32" viewBox="49879 25636 242 242">
 <path class="fil0 str0" d="M50091 25758c0,-50 -41,-91 -91,-91 -50,0 -91,41 -91,91 0,50 41,91 91,91 50,0 91,-41 91,-91z"/>
</symbol>
 <g id="图层_x0020_2" visibility="hidden">
  <metadata id="CorelCorpID_0Corel-Layer"/>
  <rect class="fil6" x="-4412" y="66091" width="5907" height="15421" rx="886" ry="886"/>
  <rect class="fil6" x="-75759" y="58753" width="19170" height="9133" rx="1370" ry="1370"/>
  <rect class="fil7 str6" x="-76462" y="58117" width="19170" height="9133" rx="1370" ry="1370"/>
  <path class="fil6" d="M-31812 66075l4150 0c489,0 889,409 889,909l0 13600c0,500 -400,909 -889,909l-4150 0c-489,0 -889,-409 -889,-909l0 -13600c0,-500 400,-909 889,-909z"/>
  <path class="fil7 str6" d="M-32472 65426l4150 0c489,0 889,409 889,909l0 13600c0,500 -400,909 -889,909l-4150 0c-489,0 -889,-409 -889,-909l0 -13600c0,-500 400,-909 889,-909z"/>
  <rect class="fil6" x="-25621" y="66091" width="11002" height="15421" rx="1650" ry="1650"/>
  <rect class="fil7 str6" x="-26287" y="65425" width="11002" height="15421" rx="1650" ry="1650"/>
  <path class="fil6" d="M-12411 66032l5524 0c651,0 1184,529 1184,1175l0 13096c0,646 -533,1175 -1184,1175l-5524 0c-651,0 -1184,-529 -1184,-1175l0 -13096c0,-646 533,-1175 1184,-1175z"/>
  <path class="fil7 str6" d="M-13017 65426l5524 0c651,0 1184,529 1184,1175l0 13096c0,646 -533,1175 -1184,1175l-5524 0c-651,0 -1184,-529 -1184,-1175l0 -13096c0,-646 533,-1175 1184,-1175z"/>
  <rect class="fil7 str6" x="-5092" y="65406" width="5907" height="15421" rx="886" ry="886"/>
  <rect class="fil6" x="3468" y="65642" width="10896" height="8477" rx="1695" ry="1695"/>
  <rect class="fil7 str6" x="2796" y="64951" width="10896" height="8477" rx="1695" ry="1695"/>
  <rect class="fil6" x="16314" y="65590" width="13564" height="8500" rx="1700" ry="1700"/>
  <rect class="fil7 str6" x="15658" y="64883" width="13564" height="8500" rx="1700" ry="1700"/>
  <path class="fil6" d="M5090 78525l7514 0c930,0 1691,811 1691,1801l0 5404c0,991 -761,1801 -1691,1801l-7514 0c-930,0 -1691,-811 -1691,-1801l0 -5404c0,-991 761,-1801 1691,-1801z"/>
  <path class="fil7 str6" d="M4424 77834l7514 0c930,0 1691,814 1691,1809l0 5428c0,995 -761,1809 -1691,1809l-7514 0c-930,0 -1691,-814 -1691,-1809l0 -5428c0,-995 761,-1809 1691,-1809z"/>
  <path class="fil6" d="M18064 78505l10064 0c950,0 1727,814 1727,1809l0 5428c0,995 -777,1809 -1727,1809l-10064 0c-950,0 -1727,-814 -1727,-1809l0 -5428c0,-995 777,-1809 1727,-1809z"/>
  <path class="fil7 str6" d="M17397 77823l10064 0c950,0 1727,818 1727,1817l0 5453c0,1000 -777,1817 -1727,1817l-10064 0c-950,0 -1727,-818 -1727,-1817l0 -5453c0,-1000 777,-1817 1727,-1817z"/>
 </g>
 <g id="图名">
  <metadata id="CorelCorpID_1Corel-Layer"/>
  <g id="_804473040">
   <path class="fil8" d="M3013 1431l93975 0c1443,0 2623,657 2623,1460l0 45734c0,803 -1180,1460 -2623,1460l-93975 0c-1443,0 -2623,-657 -2623,-1460l0 -45734c0,-803 1180,-1460 2623,-1460z"/>
   <rect class="fil3 str7" x="7356" y="12894" width="86505" height="31560"/>
   <rect class="fil1" x="7494" y="12894" width="86368" height="31560"/>
   <rect class="fil9 str8" x="54749" y="17519" width="19656" height="26936"/>
   <rect class="fil10" x="7372" y="17434" width="27712" height="27020"/>
   <rect class="fil10" x="7235" y="12875" width="86626" height="4526"/>
   <path class="fil3 str3" d="M7331 17421c86530,0 86530,0 86530,0"/>
   <path class="fil3 str3" d="M7331 20452c86530,0 86530,0 86530,0"/>
   <path class="fil3 str3" d="M7331 23482c86530,0 86530,0 86530,0"/>
   <path class="fil3 str3" d="M7331 26512c86530,0 86530,0 86530,0"/>
   <path class="fil3 str3" d="M7331 29542c86530,0 86530,0 86530,0"/>
   <path class="fil3 str3" d="M7331 32573c86530,0 86530,0 86530,0"/>
   <path class="fil3 str3" d="M7331 35603c86530,0 86530,0 86530,0"/>
   <path class="fil3 str3" d="M35085 12953c0,38961 0,30794 0,30794"/>
   <path class="fil3 str3" d="M54727 12908c0,39060 0,30829 0,30829"/>
   <path class="fil3 str3" d="M74406 12957c0,38956 0,30790 0,30790"/>
   <rect class="fil3 str6" x="7296" y="12826" width="86497" height="31560"/>
   <text x="18973" y="18905"  class="fil2 fnt0">降水量</text>
   <text x="19733" y="22005"  class="fil2 fnt0">温度</text>
   <text x="19710" y="24888"  class="fil2 fnt0">风速</text>
   <text x="18225" y="28013"  class="fil2 fnt0">人口数量</text>
   <text x="18206" y="31016"  class="fil2 fnt0">耕地面积</text>
   <g transform="matrix(1 0 0 1 -33290.4 8383.94)">
    <text x="50000" y="25758"  class="fil2 fnt0">畜均草地面积</text>
   </g>
   <g transform="matrix(1 0 0 1 -31032.8 11266.5)">
    <text x="50000" y="25758"  class="fil2 fnt0">特征根</text>
   </g>
   <text x="19718" y="15226"  class="fil2 fnt0">因子</text>
   <text x="40905" y="15183"  class="fil2 fnt1">第一主成分                                                 </text>
   <text x="60589" y="15183"  class="fil2 fnt1">第二主成分                                             </text>
   <text x="80133" y="15183"  class="fil2 fnt1">第三主成分</text>
   <text x="82431" y="19335"  class="fil2 fnt2">0.6233</text>
   <text x="78212" y="22524"  class="fil2 fnt3">            </text>
   <text x="82481" y="22524"  class="fil2 fnt2">0.6351</text>
   <text x="82528" y="28528"  class="fil2 fnt2">0.1141</text>
   <text x="81954" y="31526"  class="fil2 fnt2">-0.3957</text>
   <text x="82481" y="34656"  class="fil2 fnt2">0.3731</text>
   <text x="82379" y="37537"  class="fil2 fnt2">1.1719</text>
   <text x="82398" y="25398"  class="fil2 fnt2">0.2668</text>
   <g transform="matrix(1.2 0 0 1 -30485.4 -18543.3)">
    <text x="50000" y="25758"  class="fil2 fnt4">藏北高原沙漠化主成分因子负荷矩阵</text>
   </g>
   <text x="17878" y="9555"  class="fil2 fnt5">Principal component factor loadings matrix of desertification of northern Tibet Plateau</text>
   <path class="fil3 str3" d="M7331 38424c86530,0 86530,0 86530,0"/>
   <path class="fil3 str3" d="M7331 41455c86530,0 86530,0 86530,0"/>
   <text x="18955" y="39898"  class="fil2 fnt0">贡献率</text>
   <text x="17459" y="42902"  class="fil2 fnt0">累计贡献率</text>
   <text x="81732" y="40413"  class="fil2 fnt2">19.5316</text>
   <text x="81767" y="43417"  class="fil2 fnt2">79.9605</text>
   <path class="fil3 str3" d="M7331 44455c86530,0 86530,0 86530,0"/>
   <text x="62495" y="19335"  class="fil2 fnt6">-</text>
   <text x="63197" y="19335"  class="fil2 fnt2">0.6648</text>
   <text x="58898" y="22524"  class="fil2 fnt3">            </text>
   <text x="63167" y="22524"  class="fil2 fnt2">0.2074</text>
   <text x="62467" y="28528"  class="fil2 fnt6">-</text>
   <text x="63168" y="28528"  class="fil2 fnt2">0.3490</text>
   <text x="62513" y="31526"  class="fil2 fnt6">-</text>
   <text x="63215" y="31526"  class="fil2 fnt2">0.0114</text>
   <text x="63168" y="34656"  class="fil2 fnt2">0.2610</text>
   <text x="63197" y="37537"  class="fil2 fnt2">1.3578</text>
   <text x="63178" y="25398"  class="fil2 fnt2">0.8269</text>
   <text x="62531" y="40413"  class="fil2 fnt2">22.6456</text>
   <text x="62536" y="43417"  class="fil2 fnt2">60.4289</text>
   <text x="42828" y="19335"  class="fil2 fnt6">-</text>
   <text x="43530" y="19335"  class="fil2 fnt2">0.1158</text>
   <text x="39194" y="22524"  class="fil2 fnt3">            </text>
   <text x="43463" y="22524"  class="fil2 fnt2">0.6729</text>
   <text x="43514" y="28528"  class="fil2 fnt2">0.8453</text>
   <text x="43514" y="31526"  class="fil2 fnt2">0.7013</text>
   <text x="42752" y="34656"  class="fil2 fnt6">-</text>
   <text x="43454" y="34656"  class="fil2 fnt2">0.6900</text>
   <text x="43454" y="37537"  class="fil2 fnt2">2.2670</text>
   <text x="43461" y="25398"  class="fil2 fnt2">0.3252</text>
   <text x="42873" y="40413"  class="fil2 fnt2">37.7833</text>
   <text x="42873" y="43417"  class="fil2 fnt2">37.7833</text>
   <text x="19680" y="16327"  class="fil2 fnt7">Factor</text>
   <text x="18184" y="20073"  class="fil2 fnt7">Precipitation</text>
   <text x="18240" y="23128"  class="fil2 fnt7">Temperature</text>
   <text x="18416" y="25998"  class="fil2 fnt7">Wind speed</text>
   <text x="18640" y="29157"  class="fil2 fnt7">Population</text>
   <text x="16551" y="32109"  class="fil2 fnt7">Agriculture acerage</text>
   <g transform="matrix(1 0 0 1 -34624.9 9520.18)">
    <text x="50000" y="25758"  class="fil2 fnt7">Livestock grassland area</text>
   </g>
   <g transform="matrix(1 0 0 1 -33174.1 12388.3)">
    <text x="50000" y="25758"  class="fil2 fnt7">Characteristic root</text>
   </g>
   <text x="17169" y="41010"  class="fil2 fnt7">Contribution rate</text>
   <text x="14019" y="43988"  class="fil2 fnt7">Accumulative contribution rate</text>
   <text x="37234" y="16554"  class="fil2 fnt2">The first principal component</text>
   <text x="56170" y="16554"  class="fil2 fnt2">The second principal component</text>
   <text x="76283" y="16554"  class="fil2 fnt2">The third principal component</text>
  </g>
 </g>
</svg>
