<?xml version="1.0" encoding="UTF-8"?>
<!DOCTYPE svg PUBLIC "-//W3C//DTD SVG 1.1//EN" "http://www.w3.org/Graphics/SVG/1.1/DTD/svg11.dtd">
<!-- Creator: CorelDRAW X6 -->
<svg xmlns="http://www.w3.org/2000/svg" xml:space="preserve" width="1000px" height="675px" version="1.1" style="shape-rendering:geometricPrecision; text-rendering:geometricPrecision; image-rendering:optimizeQuality; fill-rule:evenodd; clip-rule:evenodd"
viewBox="0 0 100000 67500"
 xmlns:xlink="http://www.w3.org/1999/xlink">
 <defs>
  <style type="text/css">
   <![CDATA[
    .str0 {stroke:#332C2B;stroke-width:38.1}
    .str3 {stroke:#00A2E9;stroke-width:40;stroke-linejoin:round}
    .str4 {stroke:#332C2B;stroke-width:50}
    .str5 {stroke:#332C2B;stroke-width:50;stroke-linejoin:round}
    .str6 {stroke:#6D583D;stroke-width:50;stroke-linejoin:round}
    .str2 {stroke:#823520;stroke-width:50;stroke-linejoin:round}
    .str13 {stroke:#C2884A;stroke-width:50}
    .str7 {stroke:#332C2B;stroke-width:60}
    .str12 {stroke:#C2884A;stroke-width:60}
    .str8 {stroke:#332C2B;stroke-width:75}
    .str14 {stroke:#C2884A;stroke-width:75}
    .str18 {stroke:#FEFEFE;stroke-width:100}
    .str10 {stroke:#009B4C;stroke-width:200}
    .str9 {stroke:#F08519;stroke-width:200}
    .str11 {stroke:#FEFEFE;stroke-width:200}
    .str16 {stroke:#C09928;stroke-width:200}
    .str15 {stroke:#F08519;stroke-width:200}
    .str17 {stroke:#F5AB5A;stroke-width:200}
    .str1 {stroke:#FEFEFE;stroke-width:250}
    .fil1 {fill:none}
    .fil8 {fill:#009B4C}
    .fil4 {fill:#332C2B}
    .fil2 {fill:#B6B49E}
    .fil14 {fill:#E62129}
    .fil9 {fill:#F08519}
    .fil0 {fill:#FEFEFE}
    .fil5 {fill:#00A2E9}
    .fil6 {fill:#6D583D}
    .fil3 {fill:#823520}
    .fil12 {fill:#C09928}
    .fil7 {fill:#E5E9F5}
    .fil11 {fill:#EFA65A}
    .fil13 {fill:#F08519}
    .fil10 {fill:#F5AB5A}
    .fnt14 {font-weight:normal;font-size:849.95px;font-family:'Times New Roman'}
    .fnt15 {font-weight:normal;font-size:850px;font-family:'Times New Roman'}
    .fnt13 {font-weight:normal;font-size:881.95px;font-family:'Times New Roman'}
    .fnt12 {font-weight:normal;font-size:970.15px;font-family:'Times New Roman'}
    .fnt2 {font-weight:normal;font-size:999.95px;font-family:'Times New Roman'}
    .fnt6 {font-weight:normal;font-size:1000.1px;font-family:'Times New Roman'}
    .fnt11 {font-weight:normal;font-size:1058.35px;font-family:'Times New Roman'}
    .fnt4 {font-weight:normal;font-size:1058.35px;font-family:'宋体'}
    .fnt7 {font-weight:normal;font-size:1234.7px;font-family:'@宋体'}
    .fnt8 {font-weight:normal;font-size:1234.7px;font-family:'Times New Roman'}
    .fnt3 {font-weight:normal;font-size:1234.7px;font-family:'宋体'}
    .fnt10 {font-weight:normal;font-size:1234.7px;font-family:'幼圆'}
    .fnt9 {font-weight:normal;font-size:1234.7px;font-family:'方正书宋简体'}
    .fnt1 {font-weight:normal;font-size:1411.1px;font-family:'Arial'}
    .fnt5 {font-weight:normal;font-size:1411.1px;font-family:'宋体'}
    .fnt0 {font-weight:normal;font-size:1763.9px;font-family:'方正准圆简体'}
   ]]>
  </style>
     <clipPath id="id0">
      <path d="M59764 53369l27058 0 0 6476 -27058 0 0 -6476z"/>
     </clipPath>
     <clipPath id="id1">
      <path d="M59620 45921l27306 0 0 14141 -27306 0 0 -14141z"/>
     </clipPath>
     <clipPath id="id2">
      <path d="M9491 51989l27541 0 0 8877 -27541 0 0 -8877z"/>
     </clipPath>
     <clipPath id="id3">
      <path d="M9375 44468l27466 0 0 16183 -27466 0 0 -16183z"/>
     </clipPath>
    <clipPath id="id4">
     <path d="M36630 59856c138,0 250,112 250,250 0,138 -112,250 -250,250 -138,0 -250,-112 -250,-250 0,-138 112,-250 250,-250z"/>
    </clipPath>
       <clipPath id="id5">
       </clipPath>
       <clipPath id="id6">
        <path d="M36630 59856c138,0 250,112 250,250 0,138 -112,250 -250,250 -138,0 -250,-112 -250,-250 0,-138 112,-250 250,-250z"/>
       </clipPath>
       <clipPath id="id7">
       </clipPath>
       <clipPath id="id8">
        <path d="M36630 59856c138,0 250,112 250,250 0,138 -112,250 -250,250 -138,0 -250,-112 -250,-250 0,-138 112,-250 250,-250z"/>
       </clipPath>
       <clipPath id="id9">
        <path d="M36630 59856c138,0 250,112 250,250 0,138 -112,250 -250,250 -138,0 -250,-112 -250,-250 0,-138 112,-250 250,-250z"/>
       </clipPath>
       <clipPath id="id10">
        <path d="M36630 59856c138,0 250,112 250,250 0,138 -112,250 -250,250 -138,0 -250,-112 -250,-250 0,-138 112,-250 250,-250z"/>
       </clipPath>
       <clipPath id="id11">
        <path d="M36842 59973l0 266c-44,70 -122,117 -212,117 -138,0 -250,-112 -250,-250 0,-138 112,-250 250,-250 89,0 167,47 212,117z"/>
       </clipPath>
       <clipPath id="id12">
        <path d="M36630 59856c138,0 250,112 250,250 0,138 -112,250 -250,250 -138,0 -250,-112 -250,-250 0,-138 112,-250 250,-250z"/>
       </clipPath>
     <clipPath id="id13">
      <path d="M9449 10484l27180 0 0 10113 -27180 0 0 -10113z"/>
     </clipPath>
     <clipPath id="id14">
      <path d="M9598 13755l27104 0 0 6987 -27104 0 0 -6987z"/>
     </clipPath>
     <clipPath id="id15">
      <path d="M59385 10562l27428 0 0 10181 -27428 0 0 -10181z"/>
     </clipPath>
     <clipPath id="id16">
      <path d="M59678 12630l27188 0 0 5258 -27188 0 0 -5258z"/>
     </clipPath>
 </defs>
<symbol id="符号26" viewBox="49681 33431 638 638">
 <circle class="fil0 str0" cx="50000" cy="33750" r="300"/>
 <circle class="fil1 str0" cx="50000" cy="33750" r="113"/>
</symbol>
<symbol id="符号23" viewBox="43103 30080 13847 7339">
 <polygon class="fil1 str1" points="53386,30381 53386,32075 45344,32075 45344,35426 53386,35426 53386,37119 56773,33768 "/>
 <polygon id="1" class="fil2" points="53386,30381 53386,32075 45344,32075 45344,35426 53386,35426 53386,37119 56773,33768 "/>
 <polygon class="fil1 str1" points="44074,32075 44074,35426 44921,35426 44921,32075 "/>
 <polygon id="1" class="fil2" points="44074,32075 44074,35426 44921,35426 44921,32075 "/>
 <polygon class="fil1 str1" points="43228,32075 43228,35426 43651,35426 43651,32075 "/>
 <polygon id="1" class="fil2" points="43228,32075 43228,35426 43651,35426 43651,32075 "/>
</symbol>
<symbol id="符号15" viewBox="49331 33081 1338 1338">
 <circle class="fil0 str0" cx="50000" cy="33750" r="650"/>
 <circle class="fil1 str0" cx="50000" cy="33750" r="244"/>
</symbol>
<symbol id="符号2" viewBox="49900 33650 200 200">
 <path class="fil3 str2" d="M50075 33750c0,-41 -34,-75 -75,-75 -42,0 -75,34 -75,75 0,41 34,75 75,75 41,0 75,-34 75,-75z"/>
</symbol>
<symbol id="符号24" viewBox="49431 33181 1138 1138">
 <circle class="fil0 str0" cx="50000" cy="33750" r="550"/>
 <circle class="fil4 str0" cx="50000" cy="33750" r="325"/>
</symbol>
<symbol id="符号1" viewBox="49800 33450 400 600">
 <polygon class="fil3" points="49805,34050 49997,33450 50200,34050 49800,34050 "/>
</symbol>
<symbol id="符号7" viewBox="49431 33181 1138 1138">
 <circle class="fil0 str0" cx="50000" cy="33750" r="550"/>
 <circle class="fil4 str0" cx="50000" cy="33750" r="325"/>
</symbol>
<symbol id="符号13" viewBox="49681 33431 638 638">
 <circle class="fil0 str0" cx="50000" cy="33750" r="300"/>
 <circle class="fil1 str0" cx="50000" cy="33750" r="113"/>
</symbol>
<symbol id="符号17" viewBox="49580 33570 820 360">
 <polygon class="fil5" points="49885,33700 49888,33700 49895,33700 49906,33701 49920,33701 49937,33701 49957,33700 49978,33699 50001,33698 50025,33696 50049,33693 50073,33689 50097,33685 50119,33679 50140,33672 50158,33664 50174,33655 50188,33645 50202,33636 50216,33627 50229,33619 50243,33613 50257,33607 50271,33602 50285,33599 50298,33597 50312,33596 50327,33596 50341,33599 50355,33602 50369,33608 50400,33631 50400,33632 50395,33632 50388,33631 50377,33630 50365,33628 50352,33627 50337,33627 50320,33628 50303,33630 50286,33633 50269,33639 50251,33646 50234,33656 50217,33669 50202,33685 50178,33701 50153,33716 50129,33729 50104,33741 50080,33752 50057,33761 50034,33768 50013,33775 49993,33780 49975,33785 49945,33793 49933,33795 49921,33798 49912,33799 "/>
 <path class="fil5 str3" d="M49922 33750c0,-88 -72,-160 -161,-160 -89,0 -161,72 -161,160 0,88 72,160 161,160 89,0 161,-72 161,-160z"/>
</symbol>
<symbol id="符号19" viewBox="49885 33635 230 230">
 <path class="fil3 str2" d="M50090 33750c0,-50 -40,-90 -90,-90 -50,0 -90,40 -90,90 0,50 40,90 90,90 50,0 90,-40 90,-90z"/>
</symbol>
<symbol id="符号25" viewBox="49682 33432 635 635">
 <line class="fil1 str4" x1="49700" y1="33450" x2="50300" y2= "34050" />
 <line class="fil1 str4" x1="49700" y1="34050" x2="50300" y2= "33450" />
</symbol>
<symbol id="符号20" viewBox="49650 33100 700 1300">
 <polygon class="fil3" points="49659,34400 49996,33100 50350,34400 49650,34400 "/>
</symbol>
<symbol id="符号14" viewBox="49675 33425 650 650">
 <path class="fil0 str5" d="M50300 33750c0,-166 -134,-300 -300,-300 -166,0 -300,134 -300,300 0,166 134,300 300,300 166,0 300,-134 300,-300z"/>
</symbol>
<symbol id="符号27" viewBox="49900 33650 200 200">
 <path class="fil6 str6" d="M50075 33750c0,-41 -34,-75 -75,-75 -42,0 -75,34 -75,75 0,41 34,75 75,75 41,0 75,-34 75,-75z"/>
</symbol>
<symbol id="符号8" viewBox="49675 33425 650 650">
 <path class="fil0 str5" d="M50300 33750c0,-166 -134,-300 -300,-300 -166,0 -300,134 -300,300 0,166 134,300 300,300 166,0 300,-134 300,-300z"/>
</symbol>
<symbol id="符号5" viewBox="49675 33425 650 650">
 <path class="fil0 str5" d="M50300 33750c0,-166 -134,-300 -300,-300 -166,0 -300,134 -300,300 0,166 134,300 300,300 166,0 300,-134 300,-300z"/>
</symbol>
<symbol id="符号18" viewBox="49532 33282 935 935">
 <rect class="fil0" x="49550" y="33300" width="900" height="900"/>
 <line class="fil1 str4" x1="49550" y1="33300" x2="50450" y2= "34200" />
 <line class="fil1 str4" x1="49550" y1="34200" x2="50450" y2= "33300" />
</symbol>
<symbol id="符号10" viewBox="49431 33181 1138 1138">
 <circle class="fil0 str0" cx="50000" cy="33750" r="550"/>
 <circle class="fil4 str0" cx="50000" cy="33750" r="325"/>
</symbol>
<symbol id="符号6" viewBox="49681 33431 638 638">
 <circle class="fil0 str0" cx="50000" cy="33750" r="300"/>
 <circle class="fil1 str0" cx="50000" cy="33750" r="113"/>
</symbol>
<symbol id="符号12" viewBox="49675 33425 650 650">
 <path class="fil0 str5" d="M50300 33750c0,-166 -134,-300 -300,-300 -166,0 -300,134 -300,300 0,166 134,300 300,300 166,0 300,-134 300,-300z"/>
</symbol>
<symbol id="符号21" viewBox="49765 33395 470 710">
 <polygon class="fil3" points="49771,34105 49997,33395 50235,34105 49765,34105 "/>
</symbol>
<symbol id="符号9" viewBox="49681 33431 638 638">
 <circle class="fil0 str0" cx="50000" cy="33750" r="300"/>
 <circle class="fil1 str0" cx="50000" cy="33750" r="112"/>
</symbol>
<symbol id="符号4" viewBox="49580 33570 820 360">
 <polygon class="fil5" points="49885,33700 49888,33700 49895,33700 49906,33701 49920,33701 49937,33701 49957,33700 49978,33699 50001,33698 50025,33696 50049,33693 50073,33689 50097,33685 50119,33679 50140,33672 50158,33664 50174,33655 50188,33645 50202,33636 50216,33627 50229,33619 50243,33613 50257,33607 50271,33602 50285,33599 50298,33597 50312,33596 50327,33596 50341,33599 50355,33602 50369,33608 50400,33631 50400,33632 50395,33632 50388,33631 50377,33630 50365,33628 50352,33627 50337,33627 50320,33628 50303,33630 50286,33633 50269,33639 50251,33646 50234,33656 50217,33669 50202,33685 50178,33701 50153,33716 50129,33729 50104,33741 50080,33752 50057,33761 50034,33768 50013,33775 49993,33780 49975,33785 49945,33793 49933,33795 49921,33798 49912,33799 "/>
 <path class="fil5 str3" d="M49922 33750c0,-88 -72,-160 -161,-160 -89,0 -161,72 -161,160 0,88 72,160 161,160 89,0 161,-72 161,-160z"/>
</symbol>
<symbol id="符号11" viewBox="49431 33181 1138 1138">
 <circle class="fil0 str0" cx="50000" cy="33750" r="550"/>
 <circle class="fil4 str0" cx="50000" cy="33750" r="325"/>
</symbol>
<symbol id="符号28" viewBox="49800 33450 400 600">
 <polygon class="fil6" points="49805,34050 49997,33450 50200,34050 49800,34050 "/>
</symbol>
<symbol id="符号3" viewBox="49682 33432 635 635">
 <rect class="fil0" x="49700" y="33450" width="600" height="600"/>
 <line class="fil1 str4" x1="49700" y1="33450" x2="50300" y2= "34050" />
 <line class="fil1 str4" x1="49700" y1="34050" x2="50300" y2= "33450" />
</symbol>
<symbol id="符号22" viewBox="45016 30080 9840 7339">
 <polygon class="fil1 str1" points="51292,30381 51292,32075 45322,32075 47015,33768 45322,35426 51292,35426 51292,37119 54678,33768 "/>
 <polygon id="1" class="fil2" points="51292,30381 51292,32075 45322,32075 47015,33768 45322,35426 51292,35426 51292,37119 54678,33768 "/>
</symbol>
<symbol id="符号16" viewBox="49431 33181 1138 1138">
 <circle class="fil0 str0" cx="50000" cy="33750" r="550"/>
 <circle class="fil4 str0" cx="50000" cy="33750" r="325"/>
</symbol>
 <g id="图名">
  <metadata id="CorelCorpID_0Corel-Layer"/>
  <g id="_189680384">
   <rect class="fil7" x="6352" y="18753" width="33495" height="1869"/>
   <rect class="fil7" x="6402" y="21491" width="33495" height="2756"/>
   <rect class="fil7" x="6402" y="7743" width="33495" height="1869"/>
   <rect class="fil0" x="6402" y="7743" width="33495" height="2716"/>
   <rect class="fil0" x="6402" y="13243" width="33495" height="2737"/>
   <rect class="fil0" x="6402" y="18699" width="33495" height="2793"/>
   <rect class="fil7" x="6402" y="10459" width="33495" height="2790"/>
   <rect class="fil7" x="6402" y="15981" width="33495" height="2718"/>
   <path class="fil1 str7" d="M39857 24201c0,-16453 0,-16451 0,-16451"/>
   <path class="fil1 str7" d="M-107324182 107407932c0,0 0,0 0,0"/>
   <path class="fil1 str7" d="M13079 24273c0,-500 0,-500 0,-500"/>
   <path class="fil1 str7" d="M19779 24273c0,-500 0,-500 0,-500"/>
   <path class="fil1 str7" d="M26479 24273c0,-500 0,-500 0,-500"/>
   <path class="fil1 str7" d="M33179 24273c0,-500 0,-500 0,-500"/>
   <path class="fil1 str4" d="M6407 24254c33475,0 33471,0 33471,0"/>
   <path class="fil1 str7" d="M6349 7739c33532,0 33529,0 33529,0"/>
   <polyline class="fil1 str8" points="39877,24230 6377,24280 6381,7780 "/>
   <rect class="fil7" x="56639" y="43609" width="33495" height="2036"/>
   <rect class="fil0" x="56639" y="45698" width="33495" height="1980"/>
   <rect class="fil7" x="56639" y="47778" width="33495" height="1980"/>
   <rect class="fil0" x="56639" y="49808" width="33495" height="2045"/>
   <rect class="fil7" x="56639" y="51838" width="33495" height="2045"/>
   <rect class="fil0" x="56639" y="53918" width="33495" height="2045"/>
   <rect class="fil7" x="56639" y="55998" width="33495" height="2045"/>
   <rect class="fil0" x="56639" y="58028" width="33495" height="2045"/>
   <polyline class="fil1 str8" points="90114,60064 56614,60113 56618,43613 "/>
   <path class="fil1 str7" d="M56644 43609c33475,0 33471,0 33471,0"/>
   <path class="fil1 str7" d="M90111 60085c0,-16503 0,-16501 0,-16501"/>
   <g>
    <g style="clip-path:url(#id0)">
     <image x="59764" y="53369" width="27058" height="6476" xlink:href="108-109多样性变化_Images\108-109多样性变化_ImgID1.png"/>
    </g>
   </g>
   <polyline class="fil1 str9" points="86786,59503 80042,59114 73435,58569 66691,55263 59948,53412 "/>
   <g>
    <g style="clip-path:url(#id1)">
     <image x="59620" y="45921" width="27306" height="14141" xlink:href="108-109多样性变化_Images\108-109多样性变化_ImgID2.png"/>
    </g>
   </g>
   <polyline class="fil1 str10" points="59962,46036 66699,50245 73471,55801 80052,58050 86782,59583 "/>
   <path class="fil1 str7" d="M63316 60106c0,-500 0,-500 0,-500"/>
   <path class="fil1 str7" d="M70016 60106c0,-500 0,-500 0,-500"/>
   <path class="fil1 str7" d="M76716 60106c0,-500 0,-500 0,-500"/>
   <path class="fil1 str7" d="M83416 60106c0,-500 0,-500 0,-500"/>
   <g>
    <path class="fil1 str11" d="M73448 55524c138,0 250,112 250,250 0,138 -112,250 -250,250 -138,0 -250,-112 -250,-250 0,-138 112,-250 250,-250z"/>
    <path id="1" class="fil8" d="M73448 55524c138,0 250,112 250,250 0,138 -112,250 -250,250 -138,0 -250,-112 -250,-250 0,-138 112,-250 250,-250z"/>
   </g>
   <g>
    <path class="fil1 str11" d="M59951 53165c138,0 250,112 250,250 0,138 -112,250 -250,250 -138,0 -250,-112 -250,-250 0,-138 112,-250 250,-250z"/>
    <path id="1" class="fil9" d="M59951 53165c138,0 250,112 250,250 0,138 -112,250 -250,250 -138,0 -250,-112 -250,-250 0,-138 112,-250 250,-250z"/>
   </g>
   <g>
    <path class="fil1 str11" d="M66697 55011c138,0 250,112 250,250 0,138 -112,250 -250,250 -138,0 -250,-112 -250,-250 0,-138 112,-250 250,-250z"/>
    <path id="1" class="fil9" d="M66697 55011c138,0 250,112 250,250 0,138 -112,250 -250,250 -138,0 -250,-112 -250,-250 0,-138 112,-250 250,-250z"/>
   </g>
   <g>
    <path class="fil1 str11" d="M80051 57790c138,0 250,112 250,250 0,138 -112,250 -250,250 -138,0 -250,-112 -250,-250 0,-138 112,-250 250,-250z"/>
    <path id="1" class="fil8" d="M80051 57790c138,0 250,112 250,250 0,138 -112,250 -250,250 -138,0 -250,-112 -250,-250 0,-138 112,-250 250,-250z"/>
   </g>
   <g>
    <path class="fil1 str11" d="M66697 49997c138,0 250,112 250,250 0,138 -112,250 -250,250 -138,0 -250,-112 -250,-250 0,-138 112,-250 250,-250z"/>
    <path id="1" class="fil8" d="M66697 49997c138,0 250,112 250,250 0,138 -112,250 -250,250 -138,0 -250,-112 -250,-250 0,-138 112,-250 250,-250z"/>
   </g>
   <g>
    <path class="fil1 str11" d="M59925 45760c138,0 250,112 250,250 0,138 -112,250 -250,250 -138,0 -250,-112 -250,-250 0,-138 112,-250 250,-250z"/>
    <path id="1" class="fil8" d="M59925 45760c138,0 250,112 250,250 0,138 -112,250 -250,250 -138,0 -250,-112 -250,-250 0,-138 112,-250 250,-250z"/>
   </g>
   <g>
    <path class="fil1 str11" d="M80042 58853c138,0 250,112 250,250 0,138 -112,250 -250,250 -138,0 -250,-112 -250,-250 0,-138 112,-250 250,-250z"/>
    <path id="1" class="fil9" d="M80042 58853c138,0 250,112 250,250 0,138 -112,250 -250,250 -138,0 -250,-112 -250,-250 0,-138 112,-250 250,-250z"/>
   </g>
   <g>
    <path class="fil1 str11" d="M73433 58316c138,0 250,112 250,250 0,138 -112,250 -250,250 -138,0 -250,-112 -250,-250 0,-138 112,-250 250,-250z"/>
    <path id="1" class="fil9" d="M73433 58316c138,0 250,112 250,250 0,138 -112,250 -250,250 -138,0 -250,-112 -250,-250 0,-138 112,-250 250,-250z"/>
   </g>
   <g>
    <path class="fil1 str11" d="M86777 59226c138,0 250,112 250,250 0,138 -112,250 -250,250 -138,0 -250,-112 -250,-250 0,-138 112,-250 250,-250z"/>
    <path id="1" class="fil9" d="M86777 59226c138,0 250,112 250,250 0,138 -112,250 -250,250 -138,0 -250,-112 -250,-250 0,-138 112,-250 250,-250z"/>
   </g>
   <g>
    <path class="fil1 str11" d="M86785 59433c138,0 250,112 250,250 0,138 -112,250 -250,250 -138,0 -250,-112 -250,-250 0,-138 112,-250 250,-250z"/>
    <path id="1" class="fil8" d="M86785 59433c138,0 250,112 250,250 0,138 -112,250 -250,250 -138,0 -250,-112 -250,-250 0,-138 112,-250 250,-250z"/>
   </g>
   <rect class="fil0" x="6384" y="58503" width="33495" height="1648"/>
   <rect class="fil7" x="6372" y="53480" width="33495" height="1702"/>
   <rect class="fil7" x="6422" y="56832" width="33495" height="1631"/>
   <rect class="fil7" x="6422" y="43651" width="33495" height="1605"/>
   <rect class="fil0" x="6422" y="45288" width="33495" height="1669"/>
   <rect class="fil0" x="6422" y="48570" width="33495" height="1657"/>
   <rect class="fil0" x="6422" y="51852" width="33495" height="1698"/>
   <rect class="fil0" x="6422" y="55184" width="33495" height="1648"/>
   <rect class="fil7" x="6422" y="46957" width="33495" height="1626"/>
   <rect class="fil7" x="6422" y="50244" width="33495" height="1627"/>
   <path class="fil1 str7" d="M13080 60129c0,-500 0,-500 0,-500"/>
   <path class="fil1 str7" d="M19780 60129c0,-500 0,-500 0,-500"/>
   <path class="fil1 str7" d="M26480 60129c0,-500 0,-500 0,-500"/>
   <path class="fil1 str7" d="M33180 60129c0,-500 0,-500 0,-500"/>
   <path class="fil1 str7" d="M39880 60129c0,-500 0,-500 0,-500"/>
   <path class="fil1 str7" d="M6408 43633c33475,0 33471,0 33471,0"/>
   <path class="fil1 str7" d="M39875 60107c0,-16503 0,-16501 0,-16501"/>
   <g>
    <g style="clip-path:url(#id2)">
     <image x="9491" y="51989" width="27541" height="8877" xlink:href="108-109多样性变化_Images\108-109多样性变化_ImgID3.png"/>
    </g>
   </g>
   <polyline class="fil1 str10" points="36624,60094 29823,58653 23155,57317 16473,52686 9695,51994 "/>
   <g>
    <g style="clip-path:url(#id3)">
     <image x="9375" y="44468" width="27466" height="16183" xlink:href="108-109多样性变化_Images\108-109多样性变化_ImgID4.png"/>
    </g>
   </g>
   <polyline class="fil1 str9" points="9697,44566 16503,48624 23141,56288 29808,58920 36624,60094 "/>
   <polyline class="fil1 str8" points="39878,60086 6378,60136 6382,43636 "/>
   <g style="clip-path:url(#id4)">
    <polygon class="fil10" points="23680,47156 49580,47156 49580,73056 23680,73056 "/>
    <g id="图名_0">
     <metadata id="CorelCorpID_1Corel-Layer"/>
     <g>
      <polygon id="1" class="fil11" points="6352,20622 39847,20622 39847,18753 6352,18753 "/>
      <polygon class="fil11" points="6402,24247 39897,24247 39897,21491 6402,21491 "/>
      <polygon class="fil11" points="6402,9611 39897,9611 39897,7743 6402,7743 "/>
      <polygon class="fil10" points="6402,10459 39897,10459 39897,7743 6402,7743 "/>
      <polygon class="fil10" points="6402,15981 39897,15981 39897,13243 6402,13243 "/>
      <polygon class="fil10" points="6402,21491 39897,21491 39897,18699 6402,18699 "/>
      <polygon class="fil11" points="6402,13248 39897,13248 39897,10459 6402,10459 "/>
      <polygon class="fil11" points="6402,18699 39897,18699 39897,15981 6402,15981 "/>
      <path class="fil1 str12" d="M39857 24201c0,-16453 0,-16451 0,-16451"/>
      <path class="fil1 str12" d="M-107324182 107407932c0,0 0,0 0,0"/>
      <path class="fil1 str12" d="M13079 24273c0,-500 0,-500 0,-500"/>
      <path class="fil1 str12" d="M19779 24273c0,-500 0,-500 0,-500"/>
      <path class="fil1 str12" d="M26479 24273c0,-500 0,-500 0,-500"/>
      <path class="fil1 str12" d="M33179 24273c0,-500 0,-500 0,-500"/>
      <path class="fil1 str13" d="M6407 24254c33475,0 33471,0 33471,0"/>
      <path class="fil1 str12" d="M6349 7739c33532,0 33529,0 33529,0"/>
      <polyline class="fil1 str14" points="39877,24230 6377,24280 6381,7780 "/>
      <polygon class="fil11" points="56639,45646 90134,45646 90134,43609 56639,43609 "/>
      <polygon class="fil10" points="56639,47678 90134,47678 90134,45698 56639,45698 "/>
      <polygon class="fil11" points="56639,49758 90134,49758 90134,47778 56639,47778 "/>
      <polygon class="fil10" points="56639,51852 90134,51852 90134,49808 56639,49808 "/>
      <polygon class="fil11" points="56639,53882 90134,53882 90134,51838 56639,51838 "/>
      <polygon class="fil10" points="56639,55962 90134,55962 90134,53918 56639,53918 "/>
      <polygon class="fil11" points="56639,58042 90134,58042 90134,55998 56639,55998 "/>
      <polygon class="fil10" points="56639,60072 90134,60072 90134,58028 56639,58028 "/>
      <polyline class="fil1 str14" points="90114,60064 56614,60113 56618,43613 "/>
      <path class="fil1 str12" d="M56644 43609c33475,0 33471,0 33471,0"/>
      <path class="fil1 str12" d="M90111 60085c0,-16503 0,-16501 0,-16501"/>
      <g>
      </g>
      <g style="clip-path:url(#id5)">
       <image x="59764" y="53369" width="27058" height="6476" xlink:href="108-109多样性变化_Images\108-109多样性变化_ImgID5.png"/>
      </g>
      <g style="clip-path:url(#id6)">
      </g>
      <polyline class="fil1 str15" points="86786,59503 80042,59114 73435,58569 66691,55263 59948,53412 "/>
      <g>
      </g>
      <g style="clip-path:url(#id7)">
       <image x="59620" y="45921" width="27306" height="14141" xlink:href="108-109多样性变化_Images\108-109多样性变化_ImgID6.png"/>
      </g>
      <g style="clip-path:url(#id8)">
      </g>
      <polyline class="fil1 str16" points="59962,46036 66699,50245 73471,55801 80052,58050 86782,59583 "/>
      <path class="fil1 str12" d="M63316 60106c0,-500 0,-500 0,-500"/>
      <path class="fil1 str12" d="M70016 60106c0,-500 0,-500 0,-500"/>
      <path class="fil1 str12" d="M76716 60106c0,-500 0,-500 0,-500"/>
      <path class="fil1 str12" d="M83416 60106c0,-500 0,-500 0,-500"/>
      <g>
       <path class="fil1 str17" d="M73448 55524c138,0 250,112 250,250 0,138 -112,250 -250,250 -138,0 -250,-112 -250,-250 0,-138 112,-250 250,-250z"/>
       <path id="1" class="fil12" d="M73448 55524c138,0 250,112 250,250 0,138 -112,250 -250,250 -138,0 -250,-112 -250,-250 0,-138 112,-250 250,-250z"/>
      </g>
      <g>
       <path class="fil1 str17" d="M59951 53165c138,0 250,112 250,250 0,138 -112,250 -250,250 -138,0 -250,-112 -250,-250 0,-138 112,-250 250,-250z"/>
       <path id="1" class="fil13" d="M59951 53165c138,0 250,112 250,250 0,138 -112,250 -250,250 -138,0 -250,-112 -250,-250 0,-138 112,-250 250,-250z"/>
      </g>
      <g>
       <path class="fil1 str17" d="M66697 55011c138,0 250,112 250,250 0,138 -112,250 -250,250 -138,0 -250,-112 -250,-250 0,-138 112,-250 250,-250z"/>
       <path id="1" class="fil13" d="M66697 55011c138,0 250,112 250,250 0,138 -112,250 -250,250 -138,0 -250,-112 -250,-250 0,-138 112,-250 250,-250z"/>
      </g>
      <g>
       <path class="fil1 str17" d="M80051 57790c138,0 250,112 250,250 0,138 -112,250 -250,250 -138,0 -250,-112 -250,-250 0,-138 112,-250 250,-250z"/>
       <path id="1" class="fil12" d="M80051 57790c138,0 250,112 250,250 0,138 -112,250 -250,250 -138,0 -250,-112 -250,-250 0,-138 112,-250 250,-250z"/>
      </g>
      <g>
       <path class="fil1 str17" d="M66697 49997c138,0 250,112 250,250 0,138 -112,250 -250,250 -138,0 -250,-112 -250,-250 0,-138 112,-250 250,-250z"/>
       <path id="1" class="fil12" d="M66697 49997c138,0 250,112 250,250 0,138 -112,250 -250,250 -138,0 -250,-112 -250,-250 0,-138 112,-250 250,-250z"/>
      </g>
      <g>
       <path class="fil1 str17" d="M59925 45760c138,0 250,112 250,250 0,138 -112,250 -250,250 -138,0 -250,-112 -250,-250 0,-138 112,-250 250,-250z"/>
       <path id="1" class="fil12" d="M59925 45760c138,0 250,112 250,250 0,138 -112,250 -250,250 -138,0 -250,-112 -250,-250 0,-138 112,-250 250,-250z"/>
      </g>
      <g>
       <path class="fil1 str17" d="M80042 58853c138,0 250,112 250,250 0,138 -112,250 -250,250 -138,0 -250,-112 -250,-250 0,-138 112,-250 250,-250z"/>
       <path id="1" class="fil13" d="M80042 58853c138,0 250,112 250,250 0,138 -112,250 -250,250 -138,0 -250,-112 -250,-250 0,-138 112,-250 250,-250z"/>
      </g>
      <g>
       <path class="fil1 str17" d="M73433 58316c138,0 250,112 250,250 0,138 -112,250 -250,250 -138,0 -250,-112 -250,-250 0,-138 112,-250 250,-250z"/>
       <path id="1" class="fil13" d="M73433 58316c138,0 250,112 250,250 0,138 -112,250 -250,250 -138,0 -250,-112 -250,-250 0,-138 112,-250 250,-250z"/>
      </g>
      <g>
       <path class="fil1 str17" d="M86777 59226c138,0 250,112 250,250 0,138 -112,250 -250,250 -138,0 -250,-112 -250,-250 0,-138 112,-250 250,-250z"/>
       <path id="1" class="fil13" d="M86777 59226c138,0 250,112 250,250 0,138 -112,250 -250,250 -138,0 -250,-112 -250,-250 0,-138 112,-250 250,-250z"/>
      </g>
      <g>
       <path class="fil1 str17" d="M86785 59433c138,0 250,112 250,250 0,138 -112,250 -250,250 -138,0 -250,-112 -250,-250 0,-138 112,-250 250,-250z"/>
       <path id="1" class="fil12" d="M86785 59433c138,0 250,112 250,250 0,138 -112,250 -250,250 -138,0 -250,-112 -250,-250 0,-138 112,-250 250,-250z"/>
      </g>
      <polygon class="fil10" points="6384,60150 39880,60150 39880,58503 6384,58503 "/>
      <polygon class="fil11" points="6372,55182 39867,55182 39867,53480 6372,53480 "/>
      <polygon class="fil11" points="6422,58463 39917,58463 39917,56832 6422,56832 "/>
      <polygon class="fil11" points="6422,45256 39917,45256 39917,43651 6422,43651 "/>
      <polygon class="fil10" points="6422,46957 39917,46957 39917,45288 6422,45288 "/>
      <polygon class="fil10" points="6422,50227 39917,50227 39917,48570 6422,48570 "/>
      <polygon class="fil10" points="6422,53550 39917,53550 39917,51852 6422,51852 "/>
      <polygon class="fil10" points="6422,56832 39917,56832 39917,55184 6422,55184 "/>
      <polygon class="fil11" points="6422,48582 39917,48582 39917,46957 6422,46957 "/>
      <polygon class="fil11" points="6422,51871 39917,51871 39917,50243 6422,50243 "/>
      <path class="fil1 str12" d="M13080 60129c0,-500 0,-500 0,-500"/>
      <path class="fil1 str12" d="M19780 60129c0,-500 0,-500 0,-500"/>
      <path class="fil1 str12" d="M26480 60129c0,-500 0,-500 0,-500"/>
      <path class="fil1 str12" d="M33180 60129c0,-500 0,-500 0,-500"/>
      <path class="fil1 str12" d="M39880 60129c0,-500 0,-500 0,-500"/>
      <path class="fil1 str12" d="M6408 43633c33475,0 33471,0 33471,0"/>
      <path class="fil1 str12" d="M39875 60107c0,-16503 0,-16501 0,-16501"/>
      <g>
      </g>
      <g style="clip-path:url(#id9)">
       <image x="9491" y="51989" width="27541" height="8877" xlink:href="108-109多样性变化_Images\108-109多样性变化_ImgID7.png"/>
      </g>
      <g style="clip-path:url(#id10)">
      </g>
      <polyline class="fil1 str16" points="36624,60094 29823,58653 23155,57317 16473,52686 9695,51994 "/>
      <g>
      </g>
      <g style="clip-path:url(#id11)">
       <image x="9375" y="44468" width="27466" height="16183" xlink:href="108-109多样性变化_Images\108-109多样性变化_ImgID8.png"/>
      </g>
      <g style="clip-path:url(#id12)">
      </g>
      <polyline class="fil1 str15" points="9697,44566 16503,48624 23141,56288 29808,58920 36624,60094 "/>
      <polyline class="fil1 str14" points="39878,60086 6378,60136 6382,43636 "/>
     </g>
    </g>
   </g>
   <g>
    <path class="fil1 str11" d="M36630 59856c138,0 250,112 250,250 0,138 -112,250 -250,250 -138,0 -250,-112 -250,-250 0,-138 112,-250 250,-250z"/>
   </g>
   <g>
    <path class="fil1 str11" d="M36623 59857c138,0 250,112 250,250 0,138 -112,250 -250,250 -138,0 -250,-112 -250,-250 0,-138 112,-250 250,-250z"/>
    <path id="1" class="fil8" d="M36623 59857c138,0 250,112 250,250 0,138 -112,250 -250,250 -138,0 -250,-112 -250,-250 0,-138 112,-250 250,-250z"/>
   </g>
   <rect class="fil14 str18" transform="matrix(0.604916 -0.604916 0.604916 0.604916 9144.44 44544.7)" width="877" height="877"/>
   <rect class="fil14 str18" transform="matrix(0.604916 -0.604916 0.604916 0.604916 15992.8 48600)" width="877" height="877"/>
   <rect class="fil14 str18" transform="matrix(0.604916 -0.604916 0.604916 0.604916 22588.6 56280.3)" width="877" height="877"/>
   <rect class="fil14 str18" transform="matrix(0.604916 -0.604916 0.604916 0.604916 29266.1 58932)" width="877" height="877"/>
   <rect class="fil14 str18" transform="matrix(0.604916 -0.604916 0.604916 0.604916 36044.8 60040)" width="877" height="877"/>
   <rect class="fil8 str18" transform="matrix(0.604916 -0.604916 0.604916 0.604916 9180.84 51969.5)" width="877" height="877"/>
   <rect class="fil8 str18" transform="matrix(0.604916 -0.604916 0.604916 0.604916 15940.7 52708.1)" width="877" height="877"/>
   <rect class="fil8 str18" transform="matrix(0.604916 -0.604916 0.604916 0.604916 22609.7 57303.3)" width="877" height="877"/>
   <rect class="fil8 str18" transform="matrix(0.604916 -0.604916 0.604916 0.604916 29308.9 58568.7)" width="877" height="877"/>
   <path class="fil1 str9" d="M19900 47722c3424,0 3424,0 3424,0"/>
   <path class="fil1 str10" d="M19900 49932c3424,0 3424,0 3424,0"/>
   <rect class="fil8 str18" transform="matrix(0.604916 -0.604916 0.604916 0.604916 21094.8 49912.4)" width="877" height="877"/>
   <rect class="fil14 str18" transform="matrix(0.604916 -0.604916 0.604916 0.604916 21134.5 47739.3)" width="877" height="877"/>
   <g transform="matrix(1.2 0 0 1 -58378.5 4864)">
    <text x="50000" y="33750"  class="fil4 fnt0">安多高寒草甸沙化过程中植被覆盖度和生物量变化</text>
   </g>
   <text x="8010" y="40613"  class="fil4 fnt1">Variations of vegetation cover and biomass in relation</text>
   <text x="5722" y="41874"  class="fil4 fnt1"> to desertification processes in alpine frost meadow of Anduo</text>
   <text x="4173" y="44061"  class="fil4 fnt2">100</text>
   <text x="4673" y="45709"  class="fil4 fnt2">90</text>
   <text x="4673" y="47358"  class="fil4 fnt2">80</text>
   <text x="4673" y="49007"  class="fil4 fnt2">70</text>
   <text x="4673" y="50656"  class="fil4 fnt2">60</text>
   <text x="4673" y="52304"  class="fil4 fnt2">50</text>
   <text x="4673" y="53953"  class="fil4 fnt2">40</text>
   <text x="4673" y="55602"  class="fil4 fnt2">30</text>
   <text x="4673" y="57250"  class="fil4 fnt2">20</text>
   <text x="4673" y="58899"  class="fil4 fnt2">10</text>
   <text x="5172" y="60548"  class="fil4 fnt2">0</text>
   <text x="6127" y="61862"  class="fil4 fnt3">  高寒草甸</text>
   <text x="16005" y="61862"  class="fil4 fnt3"> </text>
   <text x="12300" y="61862"  class="fil4 fnt3">      </text>
   <text x="13954" y="61862"  class="fil4 fnt3">固定沙丘   </text>
   <text x="19942" y="61862"  class="fil4 fnt3">半固定沙丘   </text>
   <text x="27197" y="61862"  class="fil4 fnt3">半流动沙丘     </text>
   <text x="34741" y="61862"  class="fil4 fnt3">流动沙丘</text>
   <text x="23809" y="47534"  class="fil4 fnt3">植被盖度</text>
   <text x="28748" y="47534"  class="fil4 fnt4">(%)</text>
   <text x="30335" y="47534"  class="fil4 fnt4"> </text>
   <text x="23809" y="49912"  class="fil4 fnt3">生物量</text>
   <text x="27513" y="49912"  class="fil4 fnt4">(克干重/平方米 )</text>
   <g transform="matrix(1.2 0 0 1 -9078.38 4854.9)">
    <text x="50000" y="33750"  class="fil4 fnt0">  阿里狮泉河谷沙化过程中植被覆盖度和生物量变化</text>
   </g>
   <text x="57499" y="40613"  class="fil4 fnt1">    Variations of vegetation cover and biomass in relation </text>
   <text x="57499" y="41874"  class="fil4 fnt1">to desertification processes in Shiquan River valleys of Ngari</text>
   <text x="54558" y="44059"  class="fil4 fnt2">160</text>
   <text x="54558" y="46112"  class="fil4 fnt2">140</text>
   <text x="54558" y="48164"  class="fil4 fnt2">120</text>
   <text x="54558" y="50216"  class="fil4 fnt2">100</text>
   <text x="55058" y="52269"  class="fil4 fnt2">80</text>
   <text x="55058" y="54321"  class="fil4 fnt2">60</text>
   <text x="55058" y="56373"  class="fil4 fnt2">40</text>
   <text x="55058" y="58426"  class="fil4 fnt2">20</text>
   <text x="55558" y="60478"  class="fil4 fnt2">0</text>
   <text x="56061" y="61840"  class="fil4 fnt3">  原始植被</text>
   <text x="65939" y="61840"  class="fil4 fnt3"> </text>
   <text x="62235" y="61840"  class="fil4 fnt3">      </text>
   <text x="64157" y="61840"  class="fil4 fnt3">固定沙丘   </text>
   <text x="70178" y="61840"  class="fil4 fnt3">半固定沙丘   </text>
   <text x="77400" y="61840"  class="fil4 fnt3">半流动沙丘     </text>
   <text x="85346" y="61840"  class="fil4 fnt3">流动沙丘</text>
   <text x="70541" y="65011"  class="fil4 fnt5">沙化过程</text>
   <g transform="matrix(1.2 0 0 1 -54768.6 -30980.6)">
    <text x="50000" y="33750"  class="fil4 fnt0">  </text>
    <text x="50882" y="33750"  class="fil4 fnt0">日喀则宽谷沙化过程中物种多样性变化</text>
   </g>
   <g transform="matrix(1.2 0 0 1 -54768.6 -30980.6)">
    <text x="50000" y="35741"  class="fil4 fnt0">       </text>
   </g>
   <text x="4488" y="8040"  class="fil4 fnt6">3.0</text>
   <text x="4518" y="10809"  class="fil4 fnt6">2.5</text>
   <text x="4488" y="13645"  class="fil4 fnt6">2.0</text>
   <text x="4518" y="16305"  class="fil4 fnt6">1.5</text>
   <text x="4488" y="19122"  class="fil4 fnt6">1.0</text>
   <text x="4518" y="21870"  class="fil4 fnt6">0.5</text>
   <text x="5238" y="24810"  class="fil4 fnt6">0</text>
   <text x="6646" y="26024"  class="fil4 fnt3">潜在沙地</text>
   <text x="14281" y="26019"  class="fil4 fnt3">固定沙丘</text>
   <text x="19884" y="26021"  class="fil4 fnt3">半固定沙丘</text>
   <text x="27175" y="26021"  class="fil4 fnt3">半流动沙丘</text>
   <text x="34746" y="26019"  class="fil4 fnt3">流动沙丘</text>
   <g>
    <g style="clip-path:url(#id13)">
     <image x="9449" y="10484" width="27180" height="10113" xlink:href="108-109多样性变化_Images\108-109多样性变化_ImgID9.png"/>
    </g>
   </g>
   <polyline class="fil1 str10" points="9708,12956 16374,10582 23107,14874 29920,20185 36546,19238 "/>
   <g>
    <g style="clip-path:url(#id14)">
     <image x="9598" y="13755" width="27104" height="6987" xlink:href="108-109多样性变化_Images\108-109多样性变化_ImgID10.png"/>
    </g>
   </g>
   <polyline class="fil1 str9" points="9741,13949 16468,13816 23153,17051 29837,20323 36639,20400 "/>
   <g transform="matrix(2.64845E-014 1 -1 2.64845E-014 35405.2 -36956.1)">
    <text x="50000" y="33750"  class="fil4 fnt7">多样性指数</text>
   </g>
   <g transform="matrix(2.64845E-014 1 -1 2.64845E-014 35405.2 -36956.1)">
    <text x="50000" y="34985"  class="fil4 fnt7">    </text>
   </g>
   <text x="26936" y="9505"  class="fil4 fnt8">Shannon</text>
   <text x="31933" y="9505"  class="fil4 fnt8">Wiener</text>
   <text x="31257" y="9505"  class="fil4 fnt9">-</text>
   <text x="35516" y="9505"  class="fil4 fnt3">指数</text>
   <text x="26936" y="11633"  class="fil4 fnt3">丰富度指数</text>
   <path class="fil1 str9" d="M23066 9657c3400,0 3400,0 3400,0"/>
   <path class="fil1 str10" d="M23066 11617c3400,0 3400,0 3400,0"/>
   <rect class="fil8 str18" transform="matrix(0.604916 -0.604916 0.604916 0.604916 24209.4 11622.9)" width="877" height="877"/>
   <rect class="fil14 str18" transform="matrix(0.604916 -0.604916 0.604916 0.604916 24249 9661.03)" width="877" height="877"/>
   <rect class="fil14 str18" transform="matrix(0.604916 -0.604916 0.604916 0.604916 9210.44 13949.1)" width="877" height="877"/>
   <rect class="fil14 str18" transform="matrix(0.604916 -0.604916 0.604916 0.604916 15938 13816.3)" width="877" height="877"/>
   <rect class="fil14 str18" transform="matrix(0.604916 -0.604916 0.604916 0.604916 22622.5 17050.5)" width="877" height="877"/>
   <rect class="fil14 str18" transform="matrix(0.604916 -0.604916 0.604916 0.604916 29307 20323.2)" width="877" height="877"/>
   <rect class="fil8 str18" transform="matrix(0.604916 -0.604916 0.604916 0.604916 9177.29 12956.2)" width="877" height="877"/>
   <rect class="fil8 str18" transform="matrix(0.604916 -0.604916 0.604916 0.604916 15844 10581.6)" width="877" height="877"/>
   <rect class="fil8 str18" transform="matrix(0.604916 -0.604916 0.604916 0.604916 22576.4 14873.5)" width="877" height="877"/>
   <rect class="fil8 str18" transform="matrix(0.604916 -0.604916 0.604916 0.604916 29281.4 20189.1)" width="877" height="877"/>
   <rect class="fil8 str18" transform="matrix(0.604916 -0.604916 0.604916 0.604916 36016 19238.2)" width="877" height="877"/>
   <rect class="fil14 str18" transform="matrix(0.604916 -0.604916 0.604916 0.604916 59417.5 53412.1)" width="877" height="877"/>
   <rect class="fil14 str18" transform="matrix(0.604916 -0.604916 0.604916 0.604916 66161.1 55263)" width="877" height="877"/>
   <rect class="fil14 str18" transform="matrix(0.604916 -0.604916 0.604916 0.604916 72905 58568.7)" width="877" height="877"/>
   <rect class="fil14 str18" transform="matrix(0.604916 -0.604916 0.604916 0.604916 79511.2 59114)" width="877" height="877"/>
   <rect class="fil8 str18" transform="matrix(0.604916 -0.604916 0.604916 0.604916 59394.9 46009.5)" width="877" height="877"/>
   <rect class="fil8 str18" transform="matrix(0.604916 -0.604916 0.604916 0.604916 66169.1 50244.8)" width="877" height="877"/>
   <rect class="fil8 str18" transform="matrix(0.604916 -0.604916 0.604916 0.604916 72940.5 55801.4)" width="877" height="877"/>
   <rect class="fil8 str18" transform="matrix(0.604916 -0.604916 0.604916 0.604916 79521.8 58050.1)" width="877" height="877"/>
   <rect class="fil8 str18" transform="matrix(0.604916 -0.604916 0.604916 0.604916 86254.2 59682.7)" width="877" height="877"/>
   <g transform="matrix(1.2 0 0 1 -3785.37 -30980.6)">
    <text x="50000" y="33750"  class="fil4 fnt0">阿里狮泉河谷沙化过程中物种多样性变化</text>
   </g>
   <text x="54078" y="4776"  class="fil4 fnt1">Variations of biodiversity in relation to desertification processes</text>
   <text x="63281" y="6037"  class="fil4 fnt1"> in Shiquan River valleys of Ngari</text>
   <rect class="fil14 str18" transform="matrix(0.604916 -0.604916 0.604916 0.604916 36108.3 20399.9)" width="877" height="877"/>
   <rect class="fil7" x="56583" y="18753" width="33495" height="1869"/>
   <rect class="fil7" x="56633" y="21891" width="33495" height="2312"/>
   <rect class="fil7" x="56633" y="7743" width="33495" height="2466"/>
   <rect class="fil0" x="56633" y="10209" width="33495" height="2285"/>
   <rect class="fil0" x="56633" y="14881" width="33495" height="2284"/>
   <rect class="fil0" x="56633" y="19587" width="33495" height="2304"/>
   <rect class="fil7" x="56633" y="12494" width="33495" height="2380"/>
   <rect class="fil7" x="56633" y="17164" width="33495" height="2423"/>
   <path class="fil1 str7" d="M90087 24201c0,-16453 0,-16451 0,-16451m-33508 -11c33532,0 33529,0 33529,0"/>
   <path class="fil1 str7" d="M-107324182 107407932c0,0 0,0 0,0"/>
   <path class="fil1 str7" d="M63310 24273c0,-500 0,-500 0,-500"/>
   <path class="fil1 str7" d="M70010 24273c0,-500 0,-500 0,-500"/>
   <path class="fil1 str7" d="M76710 24273c0,-500 0,-500 0,-500"/>
   <path class="fil1 str7" d="M83410 24273c0,-500 0,-500 0,-500"/>
   <path class="fil1 str4" d="M56637 24254c33475,0 33471,0 33471,0"/>
   <polyline class="fil1 str8" points="90108,24230 56607,24280 56612,7780 "/>
   <text x="54768" y="8190"  class="fil4 fnt6">1.4</text>
   <text x="54775" y="10609"  class="fil4 fnt6">1.2</text>
   <text x="54791" y="15258"  class="fil4 fnt6">0.8</text>
   <text x="54772" y="17555"  class="fil4 fnt6">0.6</text>
   <text x="54768" y="19972"  class="fil4 fnt6">0.4</text>
   <text x="54775" y="22320"  class="fil4 fnt6">0.2</text>
   <text x="55519" y="24810"  class="fil4 fnt6">0</text>
   <text x="57042" y="26024"  class="fil4 fnt9">潜在沙地</text>
   <text x="64386" y="26019"  class="fil4 fnt9">固定沙丘</text>
   <text x="70327" y="26021"  class="fil4 fnt9">半固定沙丘</text>
   <text x="77523" y="26021"  class="fil4 fnt9">半流动沙丘</text>
   <text x="85183" y="26019"  class="fil4 fnt9">流动沙丘</text>
   <g>
    <g style="clip-path:url(#id15)">
     <image x="59385" y="10562" width="27428" height="10181" xlink:href="108-109多样性变化_Images\108-109多样性变化_ImgID11.png"/>
    </g>
   </g>
   <polyline class="fil1 str10" points="59680,10623 66655,17164 73667,17770 79916,18555 86718,20338 "/>
   <g>
    <g style="clip-path:url(#id16)">
     <image x="59678" y="12630" width="27188" height="5258" xlink:href="108-109多样性变化_Images\108-109多样性变化_ImgID12.png"/>
    </g>
   </g>
   <polyline class="fil1 str9" points="59801,12666 66465,13154 73721,15273 79880,17569 86813,16436 "/>
   <g transform="matrix(2.64845E-014 1 -1 2.64845E-014 85742 -36956.1)">
    <text x="50000" y="33750"  class="fil4 fnt7">多样性指数</text>
   </g>
   <g transform="matrix(2.64845E-014 1 -1 2.64845E-014 85742 -36956.1)">
    <text x="50000" y="34985"  class="fil4 fnt7">    </text>
   </g>
   <rect class="fil14 str18" transform="matrix(0.604916 -0.604916 0.604916 0.604916 59271.1 12665.9)" width="877" height="877"/>
   <rect class="fil14 str18" transform="matrix(0.604916 -0.604916 0.604916 0.604916 65934.7 13153.8)" width="877" height="877"/>
   <rect class="fil14 str18" transform="matrix(0.604916 -0.604916 0.604916 0.604916 73191 15272.9)" width="877" height="877"/>
   <rect class="fil14 str18" transform="matrix(0.604916 -0.604916 0.604916 0.604916 79349.5 17568.6)" width="877" height="877"/>
   <rect class="fil8 str18" transform="matrix(0.604916 -0.604916 0.604916 0.604916 59255.4 10684.3)" width="877" height="877"/>
   <rect class="fil8 str18" transform="matrix(0.604916 -0.604916 0.604916 0.604916 66123.7 17069.4)" width="877" height="877"/>
   <rect class="fil8 str18" transform="matrix(0.604916 -0.604916 0.604916 0.604916 73136.4 17770.2)" width="877" height="877"/>
   <rect class="fil8 str18" transform="matrix(0.604916 -0.604916 0.604916 0.604916 79385.1 18555.3)" width="877" height="877"/>
   <rect class="fil8 str18" transform="matrix(0.604916 -0.604916 0.604916 0.604916 86187.2 20338.1)" width="877" height="877"/>
   <rect class="fil14 str18" transform="matrix(0.604916 -0.604916 0.604916 0.604916 86280.7 16433.3)" width="877" height="877"/>
   <text x="54855" y="12889"  class="fil4 fnt6">0.1</text>
   <text x="4683" y="4776"  class="fil4 fnt1">Variations of biodiversity in relation to desertification processes</text>
   <text x="16396" y="6195"  class="fil4 fnt1"> in wide valleys of Xigaze</text>
   <text x="78056" y="9313"  class="fil4 fnt8">Shannon</text>
   <text x="83053" y="9313"  class="fil4 fnt8">Wiener</text>
   <text x="82378" y="9313"  class="fil4 fnt9">-</text>
   <text x="86636" y="9313"  class="fil4 fnt3">指数</text>
   <text x="78056" y="11441"  class="fil4 fnt9">丰富度指数</text>
   <path class="fil1 str9" d="M74186 9465c3400,0 3400,0 3400,0"/>
   <path class="fil1 str10" d="M74186 11425c3400,0 3400,0 3400,0"/>
   <rect class="fil8 str18" transform="matrix(0.604916 -0.604916 0.604916 0.604916 75329.8 11431)" width="877" height="877"/>
   <rect class="fil14 str18" transform="matrix(0.604916 -0.604916 0.604916 0.604916 75369.5 9469.08)" width="877" height="877"/>
   <path class="fil1 str9" d="M70036 47401c3424,0 3424,0 3424,0"/>
   <path class="fil1 str10" d="M70036 49611c3424,0 3424,0 3424,0"/>
   <rect class="fil8 str18" transform="matrix(0.604916 -0.604916 0.604916 0.604916 71231 49591.1)" width="877" height="877"/>
   <rect class="fil14 str18" transform="matrix(0.604916 -0.604916 0.604916 0.604916 71270.7 47418)" width="877" height="877"/>
   <text x="73945" y="47212"  class="fil4 fnt3">植被盖度</text>
   <text x="78884" y="47212"  class="fil4 fnt4">(%)</text>
   <text x="80471" y="47212"  class="fil4 fnt3"> </text>
   <text x="73945" y="49591"  class="fil4 fnt3">生物量</text>
   <text x="77649" y="49591"  class="fil4 fnt4">(克干重/平方米 )</text>
   <g transform="matrix(-1.68618 -0 -0 -1 116619 38332.1)">
    <text x="50000" y="33750"  class="fil4 fnt10">ˇ</text>
   </g>
   <text x="20524" y="29039"  class="fil4 fnt5">沙化过程</text>
   <text x="70561" y="29039"  class="fil4 fnt5">沙化过程</text>
   <text x="20423" y="65052"  class="fil4 fnt5">沙化过程</text>
   <g transform="matrix(2.64845E-014 -1 1 2.64845E-014 -30287.2 69375)">
    <text x="50000" y="33750"  class="fil4 fnt11">Diversity index</text>
   </g>
   <text x="26936" y="12570"  class="fil4 fnt12">Richness index</text>
   <text x="26936" y="10306"  class="fil4 fnt12">Shannon-Wiener index</text>
   <text x="23809" y="48445"  class="fil4 fnt12">Vegetation coverage</text>
   <text x="23809" y="50855"  class="fil4 fnt12">Bionass</text>
   <text x="26881" y="50855"  class="fil4 fnt13">(gram dry weight per square meters)</text>
   <text x="68494" y="65957"  class="fil4 fnt11">Desertification process</text>
   <g transform="matrix(0.8 0 0 1 17106 29026.9)">
    <text x="50000" y="33750"  class="fil4 fnt14">Original vegetation </text>
   </g>
   <g transform="matrix(0.8 0 0 1 -32459.9 28927.1)">
    <text x="50000" y="33750"  class="fil4 fnt13">Alpine meadow</text>
   </g>
   <text x="78056" y="12378"  class="fil4 fnt12">Richness index</text>
   <text x="78056" y="10114"  class="fil4 fnt12">Shannon-Wiener index</text>
   <text x="73945" y="48124"  class="fil4 fnt12">Vegetation coverage</text>
   <text x="73945" y="50533"  class="fil4 fnt12">Bionass</text>
   <text x="77018" y="50533"  class="fil4 fnt13">(gram dry weight per square meters)</text>
   <g transform="matrix(0.8 0 0 1 14158.7 -6699.15)">
    <text x="50000" y="33750"  class="fil4 fnt13">Potential aeolian desertified land</text>
   </g>
   <g transform="matrix(0.8 0 0 1 -5440.36 28926.2)">
    <text x="50000" y="33750"  class="fil4 fnt13">Mobile sandy land</text>
   </g>
   <g transform="matrix(0.8 0 0 1 -13170.3 28926.2)">
    <text x="50000" y="33750"  class="fil4 fnt13">Semi-mobile sandy land</text>
   </g>
   <g transform="matrix(0.8 0 0 1 -20170.4 28926.2)">
    <text x="50000" y="33750"  class="fil4 fnt13">Semi-fixed sandy land</text>
   </g>
   <g transform="matrix(0.8 0 0 1 -26011.7 28926.2)">
    <text x="50000" y="33750"  class="fil4 fnt13">Fixed sandy land</text>
   </g>
   <g transform="matrix(0.8 0 0 1 45260.1 29026.9)">
    <text x="50000" y="33750"  class="fil4 fnt15">Mobile sandy land</text>
   </g>
   <g transform="matrix(0.8 0 0 1 37156.7 29026.9)">
    <text x="50000" y="33750"  class="fil4 fnt15">Semi-mobile sandy land</text>
   </g>
   <g transform="matrix(0.8 0 0 1 30180.9 29026.9)">
    <text x="50000" y="33750"  class="fil4 fnt15">Semi-fixed sandy land</text>
   </g>
   <g transform="matrix(0.8 0 0 1 24216.5 29026.9)">
    <text x="50000" y="33750"  class="fil4 fnt15">Fixed sandy land</text>
   </g>
   <g transform="matrix(0.8 0 0 1 45009 -6785.05)">
    <text x="50000" y="33750"  class="fil4 fnt13">Mobile sandy land</text>
   </g>
   <g transform="matrix(0.8 0 0 1 37162.1 -6785.05)">
    <text x="50000" y="33750"  class="fil4 fnt13">Semi-mobile sandy land</text>
   </g>
   <g transform="matrix(0.8 0 0 1 30221.9 -6785.05)">
    <text x="50000" y="33750"  class="fil4 fnt13">Semi-fixed sandy land</text>
   </g>
   <g transform="matrix(0.8 0 0 1 24427.6 -6785.05)">
    <text x="50000" y="33750"  class="fil4 fnt13">Fixed sandy land</text>
   </g>
   <g transform="matrix(0.8 0 0 1 -35543.4 -6699.15)">
    <text x="50000" y="33750"  class="fil4 fnt13">Potential aeolian desertified land</text>
   </g>
   <g transform="matrix(0.8 0 0 1 -5357.86 -6785.05)">
    <text x="50000" y="33750"  class="fil4 fnt13">Mobile sandy land</text>
   </g>
   <g transform="matrix(0.8 0 0 1 -13192.6 -6785.05)">
    <text x="50000" y="33750"  class="fil4 fnt13">Semi-mobile sandy land</text>
   </g>
   <g transform="matrix(0.8 0 0 1 -20228.2 -6785.05)">
    <text x="50000" y="33750"  class="fil4 fnt13">Semi-fixed sandy land</text>
   </g>
   <g transform="matrix(0.8 0 0 1 -25685 -6785.05)">
    <text x="50000" y="33750"  class="fil4 fnt13">Fixed sandy land</text>
   </g>
   <g transform="matrix(2.64845E-014 -1 1 2.64845E-014 20116.4 69375)">
    <text x="50000" y="33750"  class="fil4 fnt11">Diversity index</text>
   </g>
   <text x="18476" y="29984"  class="fil4 fnt11">Desertification process</text>
   <text x="68514" y="29984"  class="fil4 fnt11">Desertification process</text>
   <text x="18376" y="65997"  class="fil4 fnt11">Desertification process</text>
  </g>
 </g>
</svg>
