<?xml version="1.0" encoding="UTF-8"?>
<!DOCTYPE svg PUBLIC "-//W3C//DTD SVG 1.1//EN" "http://www.w3.org/Graphics/SVG/1.1/DTD/svg11.dtd">
<!-- Creator: CorelDRAW X6 -->
<svg  onload="Init(evt)"  xmlns="http://www.w3.org/2000/svg" xml:space="preserve" x="0px" y="0px" width="1000px" height="933px" version="1.1" style="shape-rendering:geometricPrecision; text-rendering:geometricPrecision; image-rendering:optimizeQuality; fill-rule:evenodd; clip-rule:evenodd"
viewBox="0 0 100000 93333"
 xmlns:xlink="http://www.w3.org/1999/xlink">
  <script  xlink:href="../js/Map.js"></script>
 <defs>
  <style type="text/css">
   <![CDATA[
    .str1 {stroke:#332C2B;stroke-width:33.8667}
    .str5 {stroke:#00A2E9;stroke-width:35.5556;stroke-linejoin:round}
    .str2 {stroke:#332C2B;stroke-width:44.4444}
    .str0 {stroke:#332C2B;stroke-width:44.4444;stroke-linejoin:round}
    .str4 {stroke:#6D583D;stroke-width:44.4444;stroke-linejoin:round}
    .str3 {stroke:#823520;stroke-width:44.4444;stroke-linejoin:round}
    .str6 {stroke:#332C2B;stroke-width:53.3333}
    .str7 {stroke:#77919E;stroke-width:177.778}
    .fil3 {fill:none}
    .fil2 {fill:#332C2B}
    .fil1 {fill:#FEFEFE}
    .fil5 {fill:#00A2E9}
    .fil0 {fill:#6D583D}
    .fil4 {fill:#823520}
    .fil9 {fill:#B69B50}
    .fil6 {fill:#D5C296}
    .fil8 {fill:#DCD3BB}
    .fil7 {fill:#E6E4C7}
    .fil10 {fill:#77919E;fill-rule:nonzero}
    .fnt8 {font-weight:normal;font-size:717.778px;font-family:'Times New Roman'}
    .fnt6 {font-weight:normal;font-size:744.756px;font-family:'Times New Roman'}
    .fnt7 {font-weight:normal;font-size:755.556px;font-family:'Times New Roman'}
    .fnt5 {font-weight:normal;font-size:783.956px;font-family:'Times New Roman'}
    .fnt3 {font-weight:normal;font-size:1066.67px;font-family:'方正书宋简体'}
    .fnt2 {font-weight:normal;font-size:1097.51px;font-family:'@方正书宋简体'}
    .fnt4 {font-weight:normal;font-size:1097.51px;font-family:'Arial'}
    .fnt1 {font-weight:normal;font-size:1097.51px;font-family:'方正书宋简体'}
    .fnt0 {font-weight:normal;font-size:1411.11px;font-family:'方正准圆简体'}
   ]]>
  </style>
    <mask id="id0">
  <linearGradient id="id1" gradientUnits="userSpaceOnUse" x1="59232.8" y1="10099.4" x2="50683" y2="10099.4">
   <stop offset="0" style="stop-opacity:1; stop-color:white"/>
   <stop offset="1" style="stop-opacity:0; stop-color:white"/>
  </linearGradient>
     <rect style="fill:url(#id1)" x="50191" y="9343" width="9534" height="1513"/>
    </mask>
    <mask id="id2">
  <linearGradient id="id3" gradientUnits="userSpaceOnUse" x1="39314.5" y1="10099.4" x2="47864.3" y2="10099.4">
   <stop offset="0" style="stop-opacity:1; stop-color:white"/>
   <stop offset="1" style="stop-opacity:0; stop-color:white"/>
  </linearGradient>
     <rect style="fill:url(#id3)" x="38823" y="9343" width="9534" height="1513"/>
    </mask>
    <mask id="id4">
  <linearGradient id="id5" gradientUnits="userSpaceOnUse" x1="60875.8" y1="78736.8" x2="49866.9" y2="78736.8">
   <stop offset="0" style="stop-opacity:1; stop-color:white"/>
   <stop offset="1" style="stop-opacity:0; stop-color:white"/>
  </linearGradient>
     <rect style="fill:url(#id5)" x="47916" y="77980" width="14911" height="1513"/>
    </mask>
    <mask id="id6">
  <linearGradient id="id7" gradientUnits="userSpaceOnUse" x1="31836.9" y1="78736.8" x2="43143.3" y2="78736.8">
   <stop offset="0" style="stop-opacity:1; stop-color:white"/>
   <stop offset="1" style="stop-opacity:0; stop-color:white"/>
  </linearGradient>
     <rect style="fill:url(#id7)" x="30035" y="77980" width="14911" height="1513"/>
    </mask>
 </defs>
 
 <g id="map">
<symbol id="符号39" viewBox="49822 46400 356 533">
 <polygon class="fil0" points="49827,46933 49998,46400 50178,46933 49822,46933 "/>
</symbol>
<symbol id="符号28" viewBox="49711 46378 578 578">
 <path class="fil1 str0" d="M50267 46667c0,-147 -119,-267 -267,-267 -147,0 -267,119 -267,267 0,147 119,267 267,267 147,0 267,-119 267,-267z"/>
</symbol>
<symbol id="符号5" viewBox="49711 46378 578 578">
 <path class="fil1 str0" d="M50267 46667c0,-147 -119,-267 -267,-267 -147,0 -267,119 -267,267 0,147 119,267 267,267 147,0 267,-119 267,-267z"/>
</symbol>
<symbol id="符号36" viewBox="49494 46161 1012 1012">
 <circle class="fil1 str1" cx="50000" cy="46667" r="489"/>
 <circle class="fil2 str1" cx="50000" cy="46667" r="289"/>
</symbol>
<symbol id="符号16" viewBox="49494 46161 1012 1012">
 <circle class="fil1 str1" cx="50000" cy="46667" r="489"/>
 <circle class="fil2 str1" cx="50000" cy="46667" r="289"/>
</symbol>
<symbol id="符号24" viewBox="49718 46384 565 565">
 <line class="fil3 str2" x1="49733" y1="46400" x2="50267" y2= "46933" />
 <line class="fil3 str2" x1="49733" y1="46933" x2="50267" y2= "46400" />
</symbol>
<symbol id="符号18" viewBox="49718 46384 565 565">
 <rect class="fil1" x="49733" y="46400" width="533" height="533"/>
 <line class="fil3 str2" x1="49733" y1="46400" x2="50267" y2= "46933" />
 <line class="fil3 str2" x1="49733" y1="46933" x2="50267" y2= "46400" />
</symbol>
<symbol id="符号2" viewBox="49911 46578 178 178">
 <path class="fil4 str3" d="M50067 46667c0,-37 -30,-67 -67,-67 -37,0 -67,30 -67,67 0,37 30,67 67,67 37,0 67,-30 67,-67z"/>
</symbol>
<symbol id="符号33" viewBox="49822 46400 356 533">
 <polygon class="fil0" points="49827,46933 49998,46400 50178,46933 49822,46933 "/>
</symbol>
<symbol id="符号15" viewBox="49650 46316 701 701">
 <circle class="fil1 str1" cx="50000" cy="46667" r="333"/>
 <circle class="fil3 str1" cx="50000" cy="46667" r="125"/>
</symbol>
<symbol id="符号44" viewBox="49911 46578 178 178">
 <path class="fil0 str4" d="M50067 46667c0,-37 -30,-67 -67,-67 -37,0 -67,30 -67,67 0,37 30,67 67,67 37,0 67,-30 67,-67z"/>
</symbol>
<symbol id="符号42" viewBox="49494 46161 1012 1012">
 <circle class="fil1 str1" cx="50000" cy="46667" r="489"/>
 <circle class="fil2 str1" cx="50000" cy="46667" r="289"/>
</symbol>
<symbol id="符号35" viewBox="49716 46383 567 567">
 <circle class="fil1 str1" cx="50000" cy="46667" r="267"/>
 <circle class="fil3 str1" cx="50000" cy="46667" r="100"/>
</symbol>
<symbol id="符号32" viewBox="49911 46578 178 178">
 <path class="fil0 str4" d="M50067 46667c0,-37 -30,-67 -67,-67 -37,0 -67,30 -67,67 0,37 30,67 67,67 37,0 67,-30 67,-67z"/>
</symbol>
<symbol id="符号9" viewBox="49716 46383 567 567">
 <circle class="fil1 str1" cx="50000" cy="46667" r="267"/>
 <circle class="fil3 str1" cx="50000" cy="46667" r="100"/>
</symbol>
<symbol id="符号3" viewBox="49718 46384 565 565">
 <rect class="fil1" x="49733" y="46400" width="533" height="533"/>
 <line class="fil3 str2" x1="49733" y1="46400" x2="50267" y2= "46933" />
 <line class="fil3 str2" x1="49733" y1="46933" x2="50267" y2= "46400" />
</symbol>
<symbol id="符号21" viewBox="49711 46378 578 578">
 <path class="fil1 str0" d="M50267 46667c0,-147 -119,-267 -267,-267 -147,0 -267,119 -267,267 0,147 119,267 267,267 147,0 267,-119 267,-267z"/>
</symbol>
<symbol id="符号37" viewBox="49718 46384 565 565">
 <line class="fil3 str2" x1="49733" y1="46400" x2="50267" y2= "46933" />
 <line class="fil3 str2" x1="49733" y1="46933" x2="50267" y2= "46400" />
</symbol>
<symbol id="符号34" viewBox="49800 46467 400 400">
 <path class="fil1 str0" d="M50178 46667c0,-98 -80,-178 -178,-178 -98,0 -178,80 -178,178 0,98 80,178 178,178 98,0 178,-80 178,-178z"/>
 <circle class="fil2" cx="50000" cy="46667" r="67"/>
</symbol>
<symbol id="符号45" viewBox="49822 46400 356 533">
 <polygon class="fil0" points="49827,46933 49998,46400 50178,46933 49822,46933 "/>
</symbol>
<symbol id="符号8" viewBox="49711 46378 578 578">
 <path class="fil1 str0" d="M50267 46667c0,-147 -119,-267 -267,-267 -147,0 -267,119 -267,267 0,147 119,267 267,267 147,0 267,-119 267,-267z"/>
</symbol>
<symbol id="符号7" viewBox="49494 46161 1012 1012">
 <circle class="fil1 str1" cx="50000" cy="46667" r="489"/>
 <circle class="fil2 str1" cx="50000" cy="46667" r="289"/>
</symbol>
<symbol id="符号14" viewBox="49711 46378 578 578">
 <path class="fil1 str0" d="M50267 46667c0,-147 -119,-267 -267,-267 -147,0 -267,119 -267,267 0,147 119,267 267,267 147,0 267,-119 267,-267z"/>
</symbol>
<symbol id="符号29" viewBox="49716 46383 567 567">
 <circle class="fil1 str1" cx="50000" cy="46667" r="267"/>
 <circle class="fil3 str1" cx="50000" cy="46667" r="100"/>
</symbol>
<symbol id="符号25" viewBox="49898 46564 204 204">
 <path class="fil0 str4" d="M50080 46667c0,-44 -36,-80 -80,-80 -44,0 -80,36 -80,80 0,44 36,80 80,80 44,0 80,-36 80,-80z"/>
</symbol>
<symbol id="符号17" viewBox="49627 46507 729 320">
 <polygon class="fil5" points="49898,46622 49900,46622 49906,46623 49916,46623 49929,46623 49944,46623 49962,46622 49981,46622 50001,46620 50022,46618 50044,46616 50065,46613 50086,46609 50106,46604 50124,46598 50140,46590 50154,46582 50167,46573 50179,46565 50192,46557 50204,46550 50216,46545 50228,46539 50241,46535 50253,46532 50265,46530 50278,46530 50290,46530 50303,46532 50315,46535 50328,46540 50355,46561 50356,46562 50351,46562 50345,46561 50335,46560 50325,46559 50312,46558 50299,46557 50285,46558 50270,46560 50254,46563 50239,46568 50223,46574 50208,46583 50193,46595 50179,46608 50158,46623 50136,46636 50114,46648 50093,46659 50071,46668 50050,46676 50030,46683 50011,46689 49994,46694 49977,46698 49951,46705 49941,46707 49929,46709 49922,46710 "/>
 <path class="fil5 str5" d="M49931 46667c0,-79 -64,-142 -143,-142 -79,0 -143,64 -143,142 0,79 64,142 143,142 79,0 143,-64 143,-142z"/>
</symbol>
<symbol id="符号40" viewBox="49711 46378 578 578">
 <path class="fil1 str0" d="M50267 46667c0,-147 -119,-267 -267,-267 -147,0 -267,119 -267,267 0,147 119,267 267,267 147,0 267,-119 267,-267z"/>
</symbol>
<symbol id="符号22" viewBox="49650 46316 701 701">
 <circle class="fil1 str1" cx="50000" cy="46667" r="333"/>
 <circle class="fil3 str1" cx="50000" cy="46667" r="125"/>
</symbol>
<symbol id="符号6" viewBox="49716 46383 567 567">
 <circle class="fil1 str1" cx="50000" cy="46667" r="267"/>
 <circle class="fil3 str1" cx="50000" cy="46667" r="100"/>
</symbol>
<symbol id="符号4" viewBox="49627 46507 729 320">
 <polygon class="fil5" points="49898,46622 49900,46622 49906,46623 49916,46623 49929,46623 49944,46623 49962,46622 49981,46622 50001,46620 50022,46618 50044,46616 50065,46613 50086,46609 50106,46604 50124,46598 50140,46590 50154,46582 50167,46573 50179,46565 50192,46557 50204,46550 50216,46545 50228,46539 50241,46535 50253,46532 50265,46530 50278,46530 50290,46530 50303,46532 50315,46535 50328,46540 50355,46561 50356,46562 50351,46562 50345,46561 50335,46560 50325,46559 50312,46558 50299,46557 50285,46558 50270,46560 50254,46563 50239,46568 50223,46574 50208,46583 50193,46595 50179,46608 50158,46623 50136,46636 50114,46648 50093,46659 50071,46668 50050,46676 50030,46683 50011,46689 49994,46694 49977,46698 49951,46705 49941,46707 49929,46709 49922,46710 "/>
 <path class="fil5 str5" d="M49931 46667c0,-79 -64,-142 -143,-142 -79,0 -143,64 -143,142 0,79 64,142 143,142 79,0 143,-64 143,-142z"/>
</symbol>
<symbol id="符号19" viewBox="49898 46564 204 204">
 <path class="fil4 str3" d="M50080 46667c0,-44 -36,-80 -80,-80 -44,0 -80,36 -80,80 0,44 36,80 80,80 44,0 80,-36 80,-80z"/>
</symbol>
<symbol id="符号10" viewBox="49494 46161 1012 1012">
 <circle class="fil1 str1" cx="50000" cy="46667" r="489"/>
 <circle class="fil2 str1" cx="50000" cy="46667" r="289"/>
</symbol>
<symbol id="符号11" viewBox="49494 46161 1012 1012">
 <circle class="fil1 str1" cx="50000" cy="46667" r="489"/>
 <circle class="fil2 str1" cx="50000" cy="46667" r="289"/>
</symbol>
<symbol id="符号43" viewBox="49718 46384 565 565">
 <line class="fil3 str2" x1="49733" y1="46400" x2="50267" y2= "46933" />
 <line class="fil3 str2" x1="49733" y1="46933" x2="50267" y2= "46400" />
</symbol>
<symbol id="符号26" viewBox="49791 46351 418 631">
 <polygon class="fil0" points="49796,46982 49997,46351 50209,46982 49791,46982 "/>
</symbol>
<symbol id="符号20" viewBox="49791 46351 418 631">
 <polygon class="fil4" points="49796,46982 49997,46351 50209,46982 49791,46982 "/>
</symbol>
<symbol id="符号38" viewBox="49911 46578 178 178">
 <path class="fil0 str4" d="M50067 46667c0,-37 -30,-67 -67,-67 -37,0 -67,30 -67,67 0,37 30,67 67,67 37,0 67,-30 67,-67z"/>
</symbol>
<symbol id="符号23" viewBox="49494 46161 1012 1012">
 <circle class="fil1 str1" cx="50000" cy="46667" r="489"/>
 <circle class="fil2 str1" cx="50000" cy="46667" r="289"/>
</symbol>
<symbol id="符号41" viewBox="49716 46383 567 567">
 <circle class="fil1 str1" cx="50000" cy="46667" r="267"/>
 <circle class="fil3 str1" cx="50000" cy="46667" r="100"/>
</symbol>
<symbol id="符号31" viewBox="49718 46384 565 565">
 <line class="fil3 str2" x1="49733" y1="46400" x2="50267" y2= "46933" />
 <line class="fil3 str2" x1="49733" y1="46933" x2="50267" y2= "46400" />
</symbol>
<symbol id="符号30" viewBox="49494 46161 1012 1012">
 <circle class="fil1 str1" cx="50000" cy="46667" r="489"/>
 <circle class="fil2 str1" cx="50000" cy="46667" r="289"/>
</symbol>
<symbol id="符号27" viewBox="49822 46400 356 533">
 <polygon class="fil0" points="49827,46933 49998,46400 50178,46933 49822,46933 "/>
</symbol>
<symbol id="符号1" viewBox="49822 46400 356 533">
 <polygon class="fil4" points="49827,46933 49998,46400 50178,46933 49822,46933 "/>
</symbol>
<symbol id="符号12" viewBox="49711 46378 578 578">
 <path class="fil1 str0" d="M50267 46667c0,-147 -119,-267 -267,-267 -147,0 -267,119 -267,267 0,147 119,267 267,267 147,0 267,-119 267,-267z"/>
</symbol>
<symbol id="符号13" viewBox="49716 46383 567 567">
 <circle class="fil1 str1" cx="50000" cy="46667" r="267"/>
 <circle class="fil3 str1" cx="50000" cy="46667" r="100"/>
</symbol>
 <g id="图名">
  <metadata id="CorelCorpID_0Corel-Layer"/>
  <g id="_883655408">
   <rect class="fil6" x="66721" y="54632" width="4332" height="11309" rx="650" ry="650"/>
   <rect class="fil6" x="14400" y="49250" width="14058" height="6697" rx="1005" ry="1005"/>
   <rect class="fil7 str6" x="13884" y="48784" width="14058" height="6697" rx="1005" ry="1005"/>
   <path class="fil6" d="M46628 54620l3043 0c359,0 652,300 652,666l0 9973c0,367 -293,666 -652,666l-3043 0c-359,0 -652,-300 -652,-666l0 -9973c0,-367 293,-666 652,-666z"/>
   <path class="fil7 str6" d="M46144 54144l3043 0c359,0 652,300 652,666l0 9973c0,367 -293,666 -652,666l-3043 0c-359,0 -652,-300 -652,-666l0 -9973c0,-367 293,-666 652,-666z"/>
   <rect class="fil6" x="51168" y="54632" width="8068" height="11309" rx="1210" ry="1210"/>
   <rect class="fil7 str6" x="50679" y="54143" width="8068" height="11309" rx="1210" ry="1210"/>
   <path class="fil6" d="M60855 54588l4051 0c477,0 868,388 868,862l0 9604c0,474 -391,862 -868,862l-4051 0c-477,0 -868,-388 -868,-862l0 -9604c0,-474 391,-862 868,-862z"/>
   <path class="fil7 str6" d="M60411 54144l4051 0c477,0 868,388 868,862l0 9604c0,474 -391,862 -868,862l-4051 0c-477,0 -868,-388 -868,-862l0 -9604c0,-474 391,-862 868,-862z"/>
   <rect class="fil7 str6" x="66222" y="54129" width="4332" height="11309" rx="650" ry="650"/>
   <rect class="fil6" x="72499" y="54302" width="7990" height="6217" rx="1243" ry="1243"/>
   <rect class="fil7 str6" x="72006" y="53795" width="7990" height="6217" rx="1243" ry="1243"/>
   <rect class="fil6" x="81920" y="54264" width="9947" height="6233" rx="1247" ry="1247"/>
   <rect class="fil7 str6" x="81439" y="53746" width="9947" height="6233" rx="1247" ry="1247"/>
   <path class="fil6" d="M73689 63750l5510 0c682,0 1240,594 1240,1321l0 3963c0,727 -558,1321 -1240,1321l-5510 0c-682,0 -1240,-594 -1240,-1321l0 -3963c0,-727 558,-1321 1240,-1321z"/>
   <path class="fil7 str6" d="M73200 63243l5510 0c682,0 1240,597 1240,1327l0 3981c0,730 -558,1327 -1240,1327l-5510 0c-682,0 -1240,-597 -1240,-1327l0 -3981c0,-730 558,-1327 1240,-1327z"/>
   <path class="fil6" d="M83203 63735l7380 0c697,0 1267,597 1267,1327l0 3981c0,730 -570,1327 -1267,1327l-7380 0c-697,0 -1267,-597 -1267,-1327l0 -3981c0,-730 570,-1327 1267,-1327z"/>
   <path class="fil7 str6" d="M82714 63235l7380 0c697,0 1267,600 1267,1333l0 3999c0,733 -570,1333 -1267,1333l-7380 0c-697,0 -1267,-600 -1267,-1333l0 -3999c0,-733 570,-1333 1267,-1333z"/>
   <rect class="fil6" transform="matrix(5.51283E-014 -1 1 1.24957E-014 94574.8 71357.1)" width="12000" height="4444"/>
   <rect class="fil6" transform="matrix(8.19957E-014 -1 1 8.49893E-015 94574.8 46930.1)" width="8073" height="4444"/>
   <rect class="fil6" x="79032" y="43805" width="6043" height="4444"/>
   <rect class="fil6" x="63213" y="43805" width="6043" height="4444"/>
   <rect class="fil6" x="54656" y="43805" width="6043" height="4444"/>
   <rect class="fil6" x="66020" y="33018" width="14582" height="4444"/>
   <rect class="fil6" transform="matrix(5.15756E-014 -1 1 1.33839E-014 49244.7 45892.8)" width="12822" height="4444"/>
   <rect class="fil6" transform="matrix(5.15756E-014 -1 1 1.33839E-014 44150.8 45892.8)" width="12822" height="4444"/>
   <rect class="fil6" transform="matrix(5.15756E-014 -1 1 1.33839E-014 39056.8 45892.8)" width="12822" height="4444"/>
   <rect class="fil6" x="59714" y="22368" width="10009" height="4444"/>
   <rect class="fil6" x="47645" y="22368" width="10009" height="4444"/>
   <rect class="fil6" x="85984" y="22368" width="11225" height="4444"/>
   <rect class="fil6" x="72602" y="22368" width="10830" height="4444"/>
   <rect class="fil6" x="66745" y="11750" width="13333" height="4444"/>
   <rect class="fil6" x="39034" y="88020" width="17142" height="4444"/>
   <ellipse class="fil6" cx="72834" cy="79167" rx="8764" ry="2629"/>
   <ellipse class="fil6" cx="21370" cy="79289" rx="8066" ry="2420"/>
   <rect class="fil6" x="28009" y="22368" width="10009" height="4444"/>
   <rect class="fil6" x="15257" y="22368" width="10009" height="4444"/>
   <rect class="fil6" x="1748" y="22368" width="10009" height="4444"/>
   <rect class="fil6" x="14511" y="33099" width="5333" height="9778"/>
   <rect class="fil6" x="21125" y="33099" width="4444" height="9778"/>
   <rect class="fil6" x="28061" y="33099" width="10000" height="9778"/>
   <rect class="fil6" x="1470" y="33099" width="10000" height="9778"/>
   <rect class="fil6" x="13964" y="11750" width="13333" height="4444"/>
   <rect class="fil7 str6" transform="matrix(5.51283E-014 -1 1 1.24957E-014 94085.9 70868.2)" width="12000" height="4444"/>
   <rect class="fil7 str6" transform="matrix(8.19957E-014 -1 1 8.49893E-015 94085.9 46441.2)" width="8073" height="4444"/>
   <rect class="fil7 str6" x="78543" y="43317" width="6043" height="4444"/>
   <rect class="fil7 str6" x="62724" y="43317" width="6043" height="4444"/>
   <rect class="fil7 str6" x="54167" y="43317" width="6043" height="4444"/>
   <rect class="fil7 str6" x="65531" y="32529" width="14612" height="4444"/>
   <rect class="fil7 str6" transform="matrix(5.15756E-014 -1 1 1.33839E-014 48755.8 45403.9)" width="12822" height="4444"/>
   <rect class="fil7 str6" transform="matrix(5.15756E-014 -1 1 1.33839E-014 43661.9 45403.9)" width="12822" height="4444"/>
   <rect class="fil7 str6" transform="matrix(5.15756E-014 -1 1 1.33839E-014 38567.9 45403.9)" width="12822" height="4444"/>
   <rect class="fil7 str6" x="85495" y="21880" width="11225" height="4444"/>
   <rect class="fil7 str6" x="72113" y="21880" width="10830" height="4444"/>
   <rect class="fil7 str6" x="59225" y="21880" width="10009" height="4444"/>
   <rect class="fil7 str6" x="47156" y="21880" width="10009" height="4444"/>
   <rect class="fil7 str6" x="66256" y="11261" width="13333" height="4444"/>
   <rect class="fil7 str6" x="38545" y="87531" width="17139" height="4444"/>
   <ellipse class="fil7 str6" cx="72345" cy="78678" rx="8764" ry="2629"/>
   <ellipse class="fil7 str6" cx="20881" cy="78800" rx="8066" ry="2420"/>
   <rect class="fil7 str6" x="14022" y="32611" width="5333" height="9778"/>
   <rect class="fil7 str6" x="20636" y="32611" width="4444" height="9778"/>
   <rect class="fil7 str6" x="27572" y="32611" width="10000" height="9778"/>
   <rect class="fil7 str6" x="981" y="32611" width="10000" height="9778"/>
   <rect class="fil7 str6" x="27520" y="21879" width="10009" height="4444"/>
   <rect class="fil7 str6" x="14768" y="21879" width="10009" height="4444"/>
   <rect class="fil7 str6" x="1259" y="21879" width="10009" height="4444"/>
   <rect class="fil7 str6" x="13475" y="11261" width="13333" height="4444"/>
   <path class="fil8" d="M37312 1402l24727 0c213,0 388,232 388,515l0 3090c0,283 -174,515 -388,515l-24727 0c-213,0 -388,-232 -388,-515l0 -3090c0,-283 174,-515 388,-515z"/>
   <path class="fil9" d="M36863 869l24727 0c213,0 388,232 388,515l0 3090c0,283 -174,515 -388,515l-24727 0c-213,0 -388,-232 -388,-515l0 -3090c0,-283 174,-515 388,-515z"/>
   <g transform="matrix(1.25 0 0 1 -23126.7 -43651.5)">
    <text x="50000" y="46667"  class="fil1 fnt0">自然</text>
    <text x="53666" y="46667"  class="fil1 fnt0">经济-社会复合系统</text>
    <text x="52822" y="46667"  class="fil1 fnt0">-</text>
   </g>
   <text x="16871" y="13418"  class="fil2 fnt1">自然生态系统</text>
   <text x="4105" y="24033"  class="fil2 fnt1">物质基础</text>
   <text x="17614" y="24031"  class="fil2 fnt1">动力基础</text>
   <text x="30366" y="24033"  class="fil2 fnt1">生物基础</text>
   <g transform="matrix(2.64845E-014 1 -1 2.64845E-014 52333.4 -16320.5)">
    <text x="50000" y="46667"  class="fil2 fnt2">松散沉积物丰富</text>
   </g>
   <g transform="matrix(2.64845E-014 1 -1 2.64845E-014 52333.4 -16320.5)">
    <text x="50000" y="47910"  class="fil2 fnt2">  土壤质地疏松</text>
   </g>
   <g transform="matrix(2.64845E-014 1 -1 2.64845E-014 52333.4 -16320.5)">
    <text x="50000" y="49153"  class="fil2 fnt2">    冻土面积大</text>
   </g>
   <g transform="matrix(2.64845E-014 1 -1 2.64845E-014 63234.3 -15216.5)">
    <text x="50000" y="46667"  class="fil2 fnt2">高寒、干旱</text>
   </g>
   <g transform="matrix(2.64845E-014 1 -1 2.64845E-014 63234.3 -15216.5)">
    <text x="50000" y="47910"  class="fil2 fnt2">多风、强风</text>
   </g>
   <g transform="matrix(2.64845E-014 1 -1 2.64845E-014 68782.5 -14669.9)">
    <text x="50000" y="46667"  class="fil2 fnt2">冻融作用</text>
   </g>
   <g transform="matrix(2.64845E-014 1 -1 2.64845E-014 79034.9 -15771.7)">
    <text x="50000" y="46667"  class="fil2 fnt2">    植被稀疏</text>
   </g>
   <g transform="matrix(2.64845E-014 1 -1 2.64845E-014 79034.9 -15771.7)">
    <text x="50000" y="47910"  class="fil2 fnt2">生物生产力低</text>
   </g>
   <g transform="matrix(2.64845E-014 1 -1 2.64845E-014 79034.9 -15771.7)">
    <text x="50000" y="49153"  class="fil2 fnt2">受损后难恢复</text>
   </g>
   <text x="15987" y="50759"  class="fil2 fnt1">植被退化、地表粗化</text>
   <text x="15987" y="52002"  class="fil2 fnt1">土地生物生产力下降</text>
   <text x="17062" y="78662"  class="fil2 fnt1">沙漠化自然过程</text>
   <text x="67428" y="78317"  class="fil2 fnt1">沙漠化人为加速过程</text>
   <g transform="matrix(2.64845E-014 1 -1 2.64845E-014 93813.8 7625.73)">
    <text x="50000" y="46667"  class="fil2 fnt2">耕地沙化</text>
   </g>
   <g transform="matrix(2.64845E-014 1 -1 2.64845E-014 100688 5430.71)">
    <text x="50000" y="46667"  class="fil2 fnt2">    天然植被减少</text>
   </g>
   <g transform="matrix(2.64845E-014 1 -1 2.64845E-014 100688 5430.71)">
    <text x="50000" y="47910"  class="fil2 fnt2">    开垦植被减少</text>
   </g>
   <g transform="matrix(2.64845E-014 1 -1 2.64845E-014 100688 5430.71)">
    <text x="50000" y="49153"  class="fil2 fnt2">开垦造成天然裸露</text>
   </g>
   <g transform="matrix(2.64845E-014 1 -1 2.64845E-014 108628 6004.8)">
    <text x="50000" y="46667"  class="fil2 fnt2">植被覆盖度减少</text>
   </g>
   <g transform="matrix(2.64845E-014 1 -1 2.64845E-014 108628 6004.8)">
    <text x="50000" y="47910"  class="fil2 fnt2">       鼠害加重</text>
   </g>
   <g transform="matrix(2.64845E-014 1 -1 2.64845E-014 114191 7612.44)">
    <text x="50000" y="46667"  class="fil2 fnt2">草场退化</text>
   </g>
   <text x="72492" y="55904"  class="fil2 fnt1">地表植被破坏、</text>
   <text x="72492" y="57147"  class="fil2 fnt1">裸地面积增加</text>
   <text x="73775" y="64597"  class="fil2 fnt1">风速加快</text>
   <text x="73775" y="65840"  class="fil2 fnt1">地表疏松</text>
   <text x="73775" y="67084"  class="fil2 fnt1">地表粗化</text>
   <text x="83691" y="65440"  class="fil2 fnt1">生产力降低</text>
   <text x="83691" y="66683"  class="fil2 fnt1">  土壤恶化</text>
   <text x="82044" y="55987"  class="fil2 fnt1">土壤营养循环破坏</text>
   <text x="82044" y="57231"  class="fil2 fnt1">    土壤肥力降低</text>
   <g transform="matrix(2.64845E-014 1 -1 2.64845E-014 142117 10510.3)">
    <text x="50000" y="46667"  class="fil2 fnt2">生物能源消耗增多</text>
   </g>
   <g transform="matrix(2.64845E-014 1 -1 2.64845E-014 142153 -9766.58)">
    <text x="50000" y="46667"  class="fil2 fnt2">畜粪燃烧</text>
   </g>
   <text x="80518" y="45025"  class="fil2 fnt3">滥樵</text>
   <text x="64693" y="45471"  class="fil2 fnt3">滥牧</text>
   <text x="56151" y="45472"  class="fil2 fnt3">滥垦</text>
   <g transform="matrix(2.64845E-014 1 -1 2.64845E-014 96841.9 -15349.8)">
    <text x="50000" y="46667"  class="fil2 fnt2">农田基础设施缺乏</text>
   </g>
   <g transform="matrix(2.64845E-014 1 -1 2.64845E-014 91269.8 -16473.1)">
    <text x="50000" y="46667"  class="fil2 fnt2">生产保护技术措施不足</text>
   </g>
   <g transform="matrix(2.64845E-014 1 -1 2.64845E-014 86760 -14263.1)">
    <text x="50000" y="46667"  class="fil2 fnt2">生产方式落后</text>
   </g>
   <text x="66283" y="34684"  class="fil2 fnt1">不合理及过度利用土地资源</text>
   <text x="48892" y="24034"  class="fil2 fnt1">人口快速增长</text>
   <text x="60961" y="24035"  class="fil2 fnt1">牲畜数量增长</text>
   <text x="69651" y="13418"  class="fil2 fnt1">社会生态系统</text>
   <text x="73160" y="24037"  class="fil2 fnt1">采矿、道路、建筑</text>
   <text x="86179" y="24034"  class="fil2 fnt1">生活能源利用不合理</text>
   <g>
    <path class="fil10" d="M65700 42675l0 -2338 178 0 0 2338 -178 0zm89 625l-533 -1244 33 16 33 15 33 14 33 13 33 12 33 11 33 10 33 9 33 8 33 7 33 6 33 5 33 4 33 3 33 2 33 1 33 -1 33 -2 33 -3 33 -4 33 -5 33 -6 33 -7 33 -8 33 -9 33 -10 33 -11 33 -12 33 -13 33 -14 33 -15 33 -16 0 0 -533 1244z"/>
   </g>
   <g>
    <path class="fil10" d="M77388 29008l0 -2250 178 0 0 2250 -178 0zm89 625l-533 -1244 33 16 33 15 33 14 33 13 33 12 33 11 33 10 33 9 33 8 33 7 33 6 33 5 33 4 33 3 33 2 33 1 33 -1 33 -2 33 -3 33 -4 33 -5 33 -6 33 -7 33 -8 33 -9 33 -10 33 -11 33 -12 33 -13 33 -14 33 -15 33 -16 0 0 -533 1244z"/>
   </g>
   <g>
    <path class="fil10" d="M72740 18436l0 -2241 178 0 0 2241 -178 0zm89 625l-533 -1244 33 16 33 15 33 14 33 13 33 12 33 11 33 10 33 9 33 8 33 7 33 6 33 5 33 4 33 3 33 2 33 1 33 -1 33 -2 33 -3 33 -4 33 -5 33 -6 33 -7 33 -8 33 -9 33 -10 33 -11 33 -12 33 -13 33 -14 33 -15 33 -16 0 0 -533 1244z"/>
   </g>
   <line class="fil3 str7" x1="49388" y1="5521" x2="49388" y2= "8441" />
   <g>
    <path class="fil10" d="M19739 11225l-533 -1244 0 0 33 16 33 15 33 14 33 13 33 12 33 11 33 10 33 9 33 8 33 7 33 6 33 5 33 4 33 3 33 2 33 1 33 -1 33 -2 33 -3 33 -4 33 -5 33 -6 33 -7 33 -8 33 -9 33 -10 33 -11 33 -12 33 -13 33 -14 33 -15 33 -16 -533 1244zm89 -2790l0 2164 -178 0 0 -2164 89 -89 89 89zm-178 0l0 -89 89 0 -89 89zm53188 83l-53099 6 0 -178 53099 -6 89 89 -89 89zm0 -178l89 0 0 89 -89 -89zm-89 2288l0 -2200 178 0 0 2200 -178 0zm89 625l-533 -1244 33 16 33 15 33 14 33 13 33 12 33 11 33 10 33 9 33 8 33 7 33 6 33 5 33 4 33 3 33 2 33 1 33 -1 33 -2 33 -3 33 -4 33 -5 33 -6 33 -7 33 -8 33 -9 33 -10 33 -11 33 -12 33 -13 33 -14 33 -15 33 -16 0 0 -533 1244z"/>
   </g>
   <g>
    <path class="fil10" d="M19664 21196l0 -5049 178 0 0 5049 -178 0zm89 625l-533 -1244 33 16 33 15 33 14 33 13 33 12 33 11 33 10 33 9 33 8 33 7 33 6 33 5 33 4 33 3 33 2 33 1 33 -1 33 -2 33 -3 33 -4 33 -5 33 -6 33 -7 33 -8 33 -9 33 -10 33 -11 33 -12 33 -13 33 -14 33 -15 33 -16 0 0 -533 1244z"/>
   </g>
   <g>
    <path class="fil10" d="M6310 21879l-533 -1244 0 0 33 16 33 15 33 14 33 13 33 12 33 11 33 10 33 9 33 8 33 7 33 6 33 5 33 4 33 3 33 2 33 1 33 -1 33 -2 33 -3 33 -4 33 -5 33 -6 33 -7 33 -8 33 -9 33 -10 33 -11 33 -12 33 -13 33 -14 33 -15 33 -16 -533 1244zm89 -2867l0 2241 -178 0 0 -2241 89 -89 89 89zm-178 0l0 -89 89 0 -89 89zm26233 89l-26145 0 0 -178 26145 0 89 89 -89 89zm0 -178l89 0 0 89 -89 -89zm-89 2330l0 -2241 178 0 0 2241 -178 0zm89 625l-533 -1244 33 16 33 15 33 14 33 13 33 12 33 11 33 10 33 9 33 8 33 7 33 6 33 5 33 4 33 3 33 2 33 1 33 -1 33 -2 33 -3 33 -4 33 -5 33 -6 33 -7 33 -8 33 -9 33 -10 33 -11 33 -12 33 -13 33 -14 33 -15 33 -16 0 0 -533 1244z"/>
   </g>
   <g>
    <path class="fil10" d="M16584 32600l-533 -1244 0 0 33 16 33 15 33 14 33 13 33 12 33 11 33 10 33 9 33 8 33 7 33 6 33 5 33 4 33 3 33 2 33 1 33 -1 33 -2 33 -3 33 -4 33 -5 33 -6 33 -7 33 -8 33 -9 33 -10 33 -11 33 -12 33 -13 33 -14 33 -15 33 -16 -533 1244zm89 -2856l0 2231 -178 0 0 -2231 89 -89 89 89zm-178 0l0 -89 89 0 -89 89zm6486 89l-6397 0 0 -178 6397 0 89 89 -89 89zm0 -178l89 0 0 89 -89 -89zm-89 2319l0 -2231 178 0 0 2231 -178 0zm89 625l-533 -1244 33 16 33 15 33 14 33 13 33 12 33 11 33 10 33 9 33 8 33 7 33 6 33 5 33 4 33 3 33 2 33 1 33 -1 33 -2 33 -3 33 -4 33 -5 33 -6 33 -7 33 -8 33 -9 33 -10 33 -11 33 -12 33 -13 33 -14 33 -15 33 -16 0 0 -533 1244z"/>
   </g>
   <line class="fil3 str7" x1="19753" y1="26789" x2="19753" y2= "29744" />
   <g>
    <path class="fil10" d="M32365 32067l0 -5255 178 0 0 5255 -178 0zm89 625l-533 -1244 33 16 33 15 33 14 33 13 33 12 33 11 33 10 33 9 33 8 33 7 33 6 33 5 33 4 33 3 33 2 33 1 33 -1 33 -2 33 -3 33 -4 33 -5 33 -6 33 -7 33 -8 33 -9 33 -10 33 -11 33 -12 33 -13 33 -14 33 -15 33 -16 0 0 -533 1244z"/>
   </g>
   <g>
    <path class="fil10" d="M6314 32067l0 -5255 178 0 0 5255 -178 0zm89 625l-533 -1244 33 16 33 15 33 14 33 13 33 12 33 11 33 10 33 9 33 8 33 7 33 6 33 5 33 4 33 3 33 2 33 1 33 -1 33 -2 33 -3 33 -4 33 -5 33 -6 33 -7 33 -8 33 -9 33 -10 33 -11 33 -12 33 -13 33 -14 33 -15 33 -16 0 0 -533 1244z"/>
   </g>
   <polyline class="fil3 str7" points="6357,42837 6357,45766 32455,45756 32455,42787 "/>
   <line class="fil3 str7" x1="22994" y1="42869" x2="22994" y2= "45761" />
   <line class="fil3 str7" x1="16633" y1="42869" x2="16633" y2= "45761" />
   <g>
    <path class="fil10" d="M20866 48177l0 -2387 178 0 0 2387 -178 0zm89 625l-533 -1244 33 16 33 15 33 14 33 13 33 12 33 11 33 10 33 9 33 8 33 7 33 6 33 5 33 4 33 3 33 2 33 1 33 -1 33 -2 33 -3 33 -4 33 -5 33 -6 33 -7 33 -8 33 -9 33 -10 33 -11 33 -12 33 -13 33 -14 33 -15 33 -16 0 0 -533 1244z"/>
   </g>
   <g>
    <path class="fil10" d="M20866 75648l0 -19716 178 0 0 19716 -178 0zm89 625l-533 -1244 33 16 33 15 33 14 33 13 33 12 33 11 33 10 33 9 33 8 33 7 33 6 33 5 33 4 33 3 33 2 33 1 33 -1 33 -2 33 -3 33 -4 33 -5 33 -6 33 -7 33 -8 33 -9 33 -10 33 -11 33 -12 33 -13 33 -14 33 -15 33 -16 0 0 -533 1244z"/>
   </g>
   <polyline class="fil3 str7" points="21035,81710 21035,84558 72541,84558 72540,81789 "/>
   <g>
    <path class="fil10" d="M47144 87531l-533 -1244 0 0 33 16 33 15 33 14 33 13 33 12 33 11 33 10 33 9 33 8 33 7 33 6 33 5 33 4 33 3 33 2 33 1 33 -1 33 -2 33 -3 33 -4 33 -5 33 -6 33 -7 33 -8 33 -9 33 -10 33 -11 33 -12 33 -13 33 -14 33 -15 33 -16 -533 1244zm89 -3018l0 2393 -178 0 0 -2393 178 0z"/>
   </g>
   <g>
    <path class="fil10" d="M44468 52349l0 -3569 178 0 0 3569 -89 89 -89 -89zm178 0l0 89 -89 0 89 -89zm-15574 -89l15485 0 0 178 -15485 0 0 -178zm-625 89l1244 -533 -16 33 -15 33 -14 33 -13 33 -12 33 -11 33 -10 33 -9 33 -8 33 -7 33 -6 33 -5 33 -4 33 -3 33 -2 33 -1 33 1 33 2 33 3 33 4 33 5 33 6 33 7 33 8 33 9 33 10 33 11 33 12 33 13 33 14 33 15 33 16 33 0 0 -1244 -533z"/>
   </g>
   <polyline class="fil3 str7" points="48027,65939 48027,72990 86784,72980 86783,70374 "/>
   <line class="fil3 str7" x1="55409" y1="65940" x2="55409" y2= "72986" />
   <line class="fil3 str7" x1="62769" y1="65940" x2="62769" y2= "72986" />
   <line class="fil3 str7" x1="68905" y1="65940" x2="68905" y2= "72986" />
   <line class="fil3 str7" x1="75827" y1="70352" x2="75827" y2= "72984" />
   <polyline class="fil3 str7" points="41653,45860 41653,48810 47778,48800 47778,45886 "/>
   <g>
    <path class="fil10" d="M72455 75372l0 -2354 178 0 0 2354 -178 0zm89 625l-533 -1244 33 16 33 15 33 14 33 13 33 12 33 11 33 10 33 9 33 8 33 7 33 6 33 5 33 4 33 3 33 2 33 1 33 -1 33 -2 33 -3 33 -4 33 -5 33 -6 33 -7 33 -8 33 -9 33 -10 33 -11 33 -12 33 -13 33 -14 33 -15 33 -16 0 0 -533 1244z"/>
   </g>
   <g>
    <path class="fil10" d="M86353 62526l0 -2001 178 0 0 2001 -178 0zm89 625l-533 -1244 33 16 33 15 33 14 33 13 33 12 33 11 33 10 33 9 33 8 33 7 33 6 33 5 33 4 33 3 33 2 33 1 33 -1 33 -2 33 -3 33 -4 33 -5 33 -6 33 -7 33 -8 33 -9 33 -10 33 -11 33 -12 33 -13 33 -14 33 -15 33 -16 0 0 -533 1244z"/>
   </g>
   <g>
    <path class="fil10" d="M75703 62531l0 -1979 178 0 0 1979 -178 0zm89 625l-533 -1244 33 16 33 15 33 14 33 13 33 12 33 11 33 10 33 9 33 8 33 7 33 6 33 5 33 4 33 3 33 2 33 1 33 -1 33 -2 33 -3 33 -4 33 -5 33 -6 33 -7 33 -8 33 -9 33 -10 33 -11 33 -12 33 -13 33 -14 33 -15 33 -16 0 0 -533 1244z"/>
   </g>
   <g>
    <path class="fil10" d="M47836 54101l-533 -1244 0 0 33 16 33 15 33 14 33 13 33 12 33 11 33 10 33 9 33 8 33 7 33 6 33 5 33 4 33 3 33 2 33 1 33 -1 33 -2 33 -3 33 -4 33 -5 33 -6 33 -7 33 -8 33 -9 33 -10 33 -11 33 -12 33 -13 33 -14 33 -15 33 -16 -533 1244zm89 -3004l0 2379 -178 0 0 -2379 89 -89 89 89zm-178 0l0 -89 89 0 -89 89zm14070 89l-13981 0 0 -178 13981 0 89 89 -89 89zm0 -178l89 0 0 89 -89 -89zm-89 2468l0 -2379 178 0 0 2379 -178 0zm89 625l-533 -1244 33 16 33 15 33 14 33 13 33 12 33 11 33 10 33 9 33 8 33 7 33 6 33 5 33 4 33 3 33 2 33 1 33 -1 33 -2 33 -3 33 -4 33 -5 33 -6 33 -7 33 -8 33 -9 33 -10 33 -11 33 -12 33 -13 33 -14 33 -15 33 -16 0 0 -533 1244z"/>
   </g>
   <g>
    <path class="fil10" d="M62996 54101l-533 -1244 0 0 33 16 33 15 33 14 33 13 33 12 33 11 33 10 33 9 33 8 33 7 33 6 33 5 33 4 33 3 33 2 33 1 33 -1 33 -2 33 -3 33 -4 33 -5 33 -6 33 -7 33 -8 33 -9 33 -10 33 -11 33 -12 33 -13 33 -14 33 -15 33 -16 -533 1244zm89 -3004l0 2379 -178 0 0 -2379 89 -89 89 89zm-178 0l0 -89 89 0 -89 89zm5549 89l-5461 0 0 -178 5461 0 89 89 -89 89zm0 -178l89 0 0 89 -89 -89zm-89 2468l0 -2379 178 0 0 2379 -178 0zm89 625l-533 -1244 33 16 33 15 33 14 33 13 33 12 33 11 33 10 33 9 33 8 33 7 33 6 33 5 33 4 33 3 33 2 33 1 33 -1 33 -2 33 -3 33 -4 33 -5 33 -6 33 -7 33 -8 33 -9 33 -10 33 -11 33 -12 33 -13 33 -14 33 -15 33 -16 0 0 -533 1244z"/>
   </g>
   <g>
    <path class="fil10" d="M57087 43317l-533 -1244 0 0 33 16 33 15 33 14 33 13 33 12 33 11 33 10 33 9 33 8 33 7 33 6 33 5 33 4 33 3 33 2 33 1 33 -1 33 -2 33 -3 33 -4 33 -5 33 -6 33 -7 33 -8 33 -9 33 -10 33 -11 33 -12 33 -13 33 -14 33 -15 33 -16 -533 1244zm89 -2980l0 2354 -178 0 0 -2354 89 -89 89 89zm-178 0l0 -89 89 0 -89 89zm24699 89l-24610 0 0 -178 24610 0 89 89 -89 89zm0 -178l89 0 0 89 -89 -89zm-89 2443l0 -2354 178 0 0 2354 -178 0zm89 625l-533 -1244 33 16 33 15 33 14 33 13 33 12 33 11 33 10 33 9 33 8 33 7 33 6 33 5 33 4 33 3 33 2 33 1 33 -1 33 -2 33 -3 33 -4 33 -5 33 -6 33 -7 33 -8 33 -9 33 -10 33 -11 33 -12 33 -13 33 -14 33 -15 33 -16 0 0 -533 1244z"/>
   </g>
   <g>
    <path class="fil10" d="M75865 53723l-533 -1244 0 0 33 16 33 15 33 14 33 13 33 12 33 11 33 10 33 9 33 8 33 7 33 6 33 5 33 4 33 3 33 2 33 1 33 -1 33 -2 33 -3 33 -4 33 -5 33 -6 33 -7 33 -8 33 -9 33 -10 33 -11 33 -12 33 -13 33 -14 33 -15 33 -16 -533 1244zm89 -2727l0 2101 -178 0 0 -2101 89 -89 89 89zm-178 0l0 -89 89 0 -89 89zm10705 89l-10616 0 0 -178 10616 0 89 88 -89 89zm0 -178l88 0 1 88 -89 -88zm-76 2186l-13 -2097 178 -1 13 2097 -178 1zm93 625l-541 -1241 33 16 33 15 33 14 33 13 33 12 33 11 33 10 33 9 33 8 33 7 33 6 33 4 33 3 33 2 33 1 33 0 33 -1 33 -2 33 -3 33 -4 33 -5 33 -6 33 -7 33 -8 33 -9 33 -10 33 -11 33 -12 33 -13 33 -14 33 -15 33 -16 0 0 -526 1248z"/>
   </g>
   <line class="fil3 str7" x1="81477" y1="48221" x2="81477" y2= "50997" />
   <g>
    <path class="fil10" d="M41456 32514l-533 -1244 0 0 33 16 33 15 33 14 33 13 33 12 33 11 33 10 33 9 33 8 33 7 33 6 33 5 33 4 33 3 33 2 33 1 33 -1 33 -2 33 -3 33 -4 33 -5 33 -6 33 -7 33 -8 33 -9 33 -10 33 -11 33 -12 33 -13 33 -14 33 -15 33 -16 -533 1244zm89 -2897l0 2272 -178 0 0 -2272 89 -89 89 89zm-178 0l0 -89 89 0 -89 89zm6687 89l-6598 0 0 -178 6598 0 89 89 -89 89zm0 -178l89 0 0 89 -89 -89zm-89 2361l0 -2272 178 0 0 2272 -178 0zm89 625l-533 -1244 33 16 33 15 33 14 33 13 33 12 33 11 33 10 33 9 33 8 33 7 33 6 33 5 33 4 33 3 33 2 33 1 33 -1 33 -2 33 -3 33 -4 33 -5 33 -6 33 -7 33 -8 33 -9 33 -10 33 -11 33 -12 33 -13 33 -14 33 -15 33 -16 0 0 -533 1244z"/>
   </g>
   <g>
    <path class="fil10" d="M55003 53518l0 -5286 178 0 0 5286 -178 0zm89 625l-533 -1244 33 16 33 15 33 14 33 13 33 12 33 11 33 10 33 9 33 8 33 7 33 6 33 5 33 4 33 3 33 2 33 1 33 -1 33 -2 33 -3 33 -4 33 -5 33 -6 33 -7 33 -8 33 -9 33 -10 33 -11 33 -12 33 -13 33 -14 33 -15 33 -16 0 0 -533 1244z"/>
   </g>
   <line class="fil3 str7" x1="65735" y1="48221" x2="65735" y2= "51097" />
   <line class="fil3 str7" x1="72548" y1="37463" x2="72548" y2= "40337" />
   <g>
    <path class="fil10" d="M63875 29010l0 -2252 178 0 0 2252 -178 0zm89 625l-533 -1244 33 16 33 15 33 14 33 13 33 12 33 11 33 10 33 9 33 8 33 7 33 6 33 5 33 4 33 3 33 2 33 1 33 -1 33 -2 33 -3 33 -4 33 -5 33 -6 33 -7 33 -8 33 -9 33 -10 33 -11 33 -12 33 -13 33 -14 33 -15 33 -16 0 0 -533 1244z"/>
   </g>
   <g>
    <path class="fil10" d="M44710 13708l21563 0 0 178 -21563 0 -89 -89 89 -89zm-89 89l0 -89 89 0 -89 89zm0 15214l0 -15214 178 0 0 15214 -178 0zm89 625l-533 -1244 33 16 33 15 33 14 33 13 33 12 33 11 33 10 33 9 33 8 33 7 33 6 33 5 33 4 33 3 33 2 33 1 33 -1 33 -2 33 -3 33 -4 33 -5 33 -6 33 -7 33 -8 33 -9 33 -10 33 -11 33 -12 33 -13 33 -14 33 -15 33 -16 0 0 -533 1244z"/>
   </g>
   <g>
    <path class="fil10" d="M52053 21754l-533 -1244 0 0 33 16 33 15 33 14 33 13 33 12 33 11 33 10 33 9 33 8 33 7 33 6 33 5 33 4 33 3 33 2 33 1 33 -1 33 -2 33 -3 33 -4 33 -5 33 -6 33 -7 33 -8 33 -9 33 -10 33 -11 33 -12 33 -13 33 -14 33 -15 33 -16 -533 1244zm89 -2693l0 2067 -178 0 0 -2067 89 -89 89 89zm-178 0l0 -89 89 0 -89 89zm39272 89l-39183 0 0 -178 39183 0 89 89 -89 89zm0 -178l89 0 0 89 -89 -89zm-89 2156l0 -2067 178 0 0 2067 -178 0zm89 625l-533 -1244 33 16 33 15 33 14 33 13 33 12 33 11 33 10 33 9 33 8 33 7 33 6 33 5 33 4 33 3 33 2 33 1 33 -1 33 -2 33 -3 33 -4 33 -5 33 -6 33 -7 33 -8 33 -9 33 -10 33 -11 33 -12 33 -13 33 -14 33 -15 33 -16 0 0 -533 1244z"/>
   </g>
   <g>
    <path class="fil10" d="M72440 31796l0 -2163 178 0 0 2163 -178 0zm89 625l-533 -1244 33 16 33 15 33 14 33 13 33 12 33 11 33 10 33 9 33 8 33 7 33 6 33 5 33 4 33 3 33 2 33 1 33 -1 33 -2 33 -3 33 -4 33 -5 33 -6 33 -7 33 -8 33 -9 33 -10 33 -11 33 -12 33 -13 33 -14 33 -15 33 -16 0 0 -533 1244z"/>
   </g>
   <g>
    <path class="fil10" d="M77270 21182l0 -2122 178 0 0 2122 -178 0zm89 625l-533 -1244 33 16 33 15 33 14 33 13 33 12 33 11 33 10 33 9 33 8 33 7 33 6 33 5 33 4 33 3 33 2 33 1 33 -1 33 -2 33 -3 33 -4 33 -5 33 -6 33 -7 33 -8 33 -9 33 -10 33 -11 33 -12 33 -13 33 -14 33 -15 33 -16 0 0 -533 1244z"/>
   </g>
   <g>
    <path class="fil10" d="M63866 21182l0 -2122 178 0 0 2122 -178 0zm89 625l-533 -1244 33 16 33 15 33 14 33 13 33 12 33 11 33 10 33 9 33 8 33 7 33 6 33 5 33 4 33 3 33 2 33 1 33 -1 33 -2 33 -3 33 -4 33 -5 33 -6 33 -7 33 -8 33 -9 33 -10 33 -11 33 -12 33 -13 33 -14 33 -15 33 -16 0 0 -533 1244z"/>
   </g>
   <g>
    <path class="fil10" d="M64941 34246l-11253 -51 1 -178 11253 51 -1 178zm626 -86l-1247 528 16 -33 15 -33 14 -33 13 -33 12 -33 11 -33 10 -33 9 -33 8 -33 7 -33 6 -33 5 -33 4 -33 3 -33 2 -33 1 -33 0 -33 -1 -33 -2 -33 -4 -33 -5 -33 -6 -33 -7 -33 -8 -33 -9 -33 -10 -33 -11 -33 -12 -33 -13 -33 -14 -33 -15 -33 -16 -33 0 0 1242 539z"/>
   </g>
   <polyline class="fil3 str7" points="51920,26873 51920,29638 91219,29629 91219,26826 "/>
   <g>
    <path class="fil10" d="M96037 37743l0 -10930 178 0 0 10930 -178 0zm89 625l-533 -1244 33 16 33 15 33 14 33 13 33 12 33 11 33 10 33 9 33 8 33 7 33 6 33 5 33 4 33 3 33 2 33 1 33 -1 33 -2 33 -3 33 -4 33 -5 33 -6 33 -7 33 -8 33 -9 33 -10 33 -11 33 -12 33 -13 33 -14 33 -15 33 -16 0 0 -533 1244z"/>
   </g>
   <g>
    <path class="fil10" d="M96260 58243l0 -11313 178 0 0 11313 -178 0zm89 625l-533 -1244 33 16 33 15 33 14 33 13 33 12 33 11 33 10 33 9 33 8 33 7 33 6 33 5 33 4 33 3 33 2 33 1 33 -1 33 -2 33 -3 33 -4 33 -5 33 -6 33 -7 33 -8 33 -9 33 -10 33 -11 33 -12 33 -13 33 -14 33 -15 33 -16 0 0 -533 1244z"/>
   </g>
   <g>
    <path class="fil10" d="M92464 56891l3885 0 0 178 -3885 0 0 -178zm-625 89l1244 -533 -16 33 -15 33 -14 33 -13 33 -12 33 -11 33 -10 33 -9 33 -8 33 -7 33 -6 33 -5 33 -4 33 -3 33 -2 33 -1 33 1 33 2 33 3 33 4 33 5 33 6 33 7 33 8 33 9 33 10 33 11 33 12 33 13 33 14 33 15 33 16 33 0 0 -1244 -533z"/>
   </g>
   <g>
    <path class="fil10" d="M93131 66631l0 -9651 178 0 0 9651 -89 89 -89 -89zm178 0l0 89 -89 0 89 -89zm-862 -89l773 0 0 178 -773 0 0 -178zm-625 89l1244 -533 -16 33 -15 33 -14 33 -13 33 -12 33 -11 33 -10 33 -9 33 -8 33 -7 33 -6 33 -5 33 -4 33 -3 33 -2 33 -1 33 1 33 2 33 3 33 4 33 5 33 6 33 7 33 8 33 9 33 10 33 11 33 12 33 13 33 14 33 15 33 16 33 0 0 -1244 -533z"/>
   </g>
   <path class="fil9" style="mask:url(#id0)" d="M53556 9730l4283 0 0 -370 1869 740 -1869 740 0 -370 -4283 0 0 -740zm-2009 0l1339 0 0 740 -1339 0 0 -740zm-1339 0l670 0 0 740 -670 0 0 -740z"/>
   <path class="fil9" style="mask:url(#id2)" d="M44991 9730l-4283 0 0 -370 -1869 740 1869 740 0 -370 4283 0 0 -740zm2009 0l-1339 0 0 740 1339 0 0 -740zm1339 0l-670 0 0 740 670 0 0 -740z"/>
   <path class="fil9" style="mask:url(#id4)" d="M53176 78367l6707 0 0 -370 2927 740 -2927 740 0 -370 -6707 0 0 -740zm-3146 0l2097 0 0 740 -2097 0 0 -740zm-2097 0l1049 0 0 740 -1049 0 0 -740z"/>
   <path class="fil9" style="mask:url(#id6)" d="M39685 78367l-6707 0 0 -370 -2927 740 2927 740 0 -370 6707 0 0 -740zm3146 0l-2097 0 0 740 2097 0 0 -740zm2097 0l-1049 0 0 740 1049 0 0 -740z"/>
   <text x="38831" y="4112"  class="fil1 fnt4">Nature-economy-society integrated system</text>
   <text x="17243" y="14266"  class="fil2 fnt5">Natural ecosystem</text>
   <text x="4153" y="24899"  class="fil2 fnt5">Material base</text>
   <text x="17988" y="24883"  class="fil2 fnt5">Power base</text>
   <text x="30108" y="24909"  class="fil2 fnt5">Biological base</text>
   <g transform="matrix(2.64845E-014 -1 1 2.64845E-014 -39521.6 91247.2)">
    <text x="50000" y="46667"  class="fil2 fnt5">   Rich loose sediments, </text>
   </g>
   <g transform="matrix(2.64845E-014 -1 1 2.64845E-014 -39521.6 91247.2)">
    <text x="50000" y="47491"  class="fil2 fnt5">      loose soil texture, </text>
   </g>
   <g transform="matrix(2.64845E-014 -1 1 2.64845E-014 -39521.6 91247.2)">
    <text x="50000" y="48316"  class="fil2 fnt5">large area of permafrost</text>
   </g>
   <g transform="matrix(2.64845E-014 -1 1 2.64845E-014 -28722.6 90545.4)">
    <text x="50000" y="46667"  class="fil2 fnt5">Alpine, arid, windy </text>
   </g>
   <g transform="matrix(2.64845E-014 -1 1 2.64845E-014 -23043.5 88863.7)">
    <text x="50000" y="46667"  class="fil2 fnt5">Freezing</text>
   </g>
   <g>
    <g transform="matrix(2.64845E-014 -1 1 2.64845E-014 -12721.2 92543.3)">
     <text x="50000" y="46667"  class="fil2 fnt5">             Sparse vegetation, </text>
    </g>
    <g transform="matrix(2.64845E-014 -1 1 2.64845E-014 -11926.2 92543.3)">
     <text x="50000" y="46667"  class="fil2 fnt5">     low biological productivity, </text>
    </g>
    <g transform="matrix(2.50906E-014 -1 1.05263 2.92724E-014 -13587.3 92299.8)">
     <text x="50000" y="46667"  class="fil2 fnt6">difficult to recover after damage</text>
    </g>
   </g>
   <text x="14689" y="52814"  class="fil2 fnt5">        Degradation of vegetation, </text>
   <text x="14689" y="53638"  class="fil2 fnt5">            coarsening of surface, </text>
   <text x="14689" y="54463"  class="fil2 fnt5">decrease of land biological productivity</text>
   <text x="15675" y="79541"  class="fil2 fnt5">Natural process of desertification</text>
   <g>
    <text x="41651" y="89664"  class="fil2 fnt1">沙漠化土地扩展、蔓延</text>
    <text x="39388" y="90500"  class="fil2 fnt5">Expansion and spread of land desertification area</text>
   </g>
   <text x="63999" y="79159"  class="fil2 fnt5">Artificially accelerating the process of desertification</text>
   <g transform="matrix(2.64845E-014 -1 1 2.64845E-014 -5095.42 93618)">
    <text x="50000" y="46667"  class="fil2 fnt7">Backword mode of production</text>
   </g>
   <g transform="matrix(2.64845E-014 -1 1 2.64845E-014 -501.733 93256.3)">
    <text x="50000" y="46667"  class="fil2 fnt5">Lack of technical measures </text>
   </g>
   <g transform="matrix(2.64845E-014 -1 1 2.64845E-014 -501.733 93256.3)">
    <text x="50000" y="47491"  class="fil2 fnt5">     to protect production</text>
   </g>
   <g transform="matrix(2.64845E-014 -1 1 2.64845E-014 5494.13 93912)">
    <text x="50000" y="46667"  class="fil2 fnt5">Lack of farmland infrastructure</text>
   </g>
   <text x="70213" y="14300"  class="fil2 fnt5">Social ecosystem</text>
   <text x="48243" y="24919"  class="fil2 fnt5">Rapid population growth</text>
   <text x="60095" y="24902"  class="fil2 fnt5">Livestock quantity growth</text>
   <text x="73349" y="24865"  class="fil2 fnt5">Mining, road, construction</text>
   <text x="86828" y="24884"  class="fil2 fnt5">Irrational use of life energy </text>
   <text x="65733" y="35526"  class="fil2 fnt5">Irrational and excessive use of land resources</text>
   <text x="55229" y="46312"  class="fil2 fnt5">Estrepement</text>
   <text x="63800" y="46312"  class="fil2 fnt5">Overgrazing</text>
   <text x="79311" y="45863"  class="fil2 fnt5">Indiscriminate </text>
   <text x="79311" y="46688"  class="fil2 fnt5">       cutting</text>
   <g transform="matrix(2.64845E-014 -1 1 2.64845E-014 50202.4 94564.7)">
    <text x="50000" y="46667"  class="fil2 fnt5">Burning dung</text>
   </g>
   <g transform="matrix(2.64845E-014 -1 1 2.64845E-014 1904.04 113638)">
    <text x="50000" y="46667"  class="fil2 fnt5">Farmland desertification</text>
   </g>
   <g transform="matrix(0.95 0 0 1 24084 11311.6)">
    <text x="50000" y="46667"  class="fil2 fnt5">   Destruction of vegetation, </text>
   </g>
   <text x="73678" y="58815"  class="fil2 fnt7">and increase of </text>
   <text x="73678" y="59652"  class="fil2 fnt7">bare-land area</text>
   <g transform="matrix(0.95 0 0 1 34306 11395.6)">
    <text x="50000" y="46667"  class="fil2 fnt7">Destrucing soil nutrient cycling, </text>
   </g>
   <text x="81265" y="58899"  class="fil2 fnt5">      and reducing soil fertility</text>
   <text x="72948" y="67887"  class="fil2 fnt5">   Wind speed up, </text>
   <text x="72948" y="68669"  class="fil2 fnt5">    loose surface, </text>
   <text x="72948" y="69450"  class="fil2 fnt5">surface roughening</text>
   <text x="82945" y="67478"  class="fil2 fnt5">Lowered productivity, </text>
   <text x="82945" y="68347"  class="fil2 fnt5"> and soil degradation</text>
   <g transform="matrix(2.64845E-014 -1 1 2.64845E-014 50199.2 120280)">
    <text x="50000" y="46667"  class="fil2 fnt5">Increased bio-energy consumption</text>
   </g>
   <g transform="matrix(2.64845E-014 -1 1 2.64845E-014 22318.7 113878)">
    <text x="50000" y="46667"  class="fil2 fnt5">Deterioration of grassland</text>
   </g>
   <g transform="matrix(2.64845E-014 -1 1 2.64845E-014 16866.4 115829)">
    <text x="50000" y="46667"  class="fil2 fnt5">            Exacerbation of rodent, </text>
   </g>
   <g transform="matrix(2.50906E-014 -1 1.05263 2.92724E-014 15205.3 115118)">
    <text x="50000" y="46667"  class="fil2 fnt8">and reduction of vegetation coverage</text>
   </g>
   <g transform="matrix(2.64845E-014 -1 1 2.64845E-014 8831.33 115009)">
    <text x="50000" y="46667"  class="fil2 fnt5">    Increase of natural bare land, </text>
   </g>
   <g transform="matrix(2.64845E-014 -1 1 2.64845E-014 8831.33 115009)">
    <text x="50000" y="47491"  class="fil2 fnt5">     and reduction of cultivated </text>
   </g>
   <g transform="matrix(2.64845E-014 -1 1 2.64845E-014 8831.33 115009)">
    <text x="50000" y="48316"  class="fil2 fnt5">vegetation and natural vegetation </text>
   </g>
   <g transform="matrix(2.64845E-014 -1 1 2.64845E-014 8831.33 115009)">
    <text x="50000" y="49141"  class="fil2 fnt5">          caused by reclaiming</text>
   </g>
  </g>
 </g>
 </g>
</svg>
