<?xml version="1.0" encoding="UTF-8"?>
<!DOCTYPE svg PUBLIC "-//W3C//DTD SVG 1.1//EN" "http://www.w3.org/Graphics/SVG/1.1/DTD/svg11.dtd">
<!-- Creator: CorelDRAW X6 -->
<svg xmlns="http://www.w3.org/2000/svg" xml:space="preserve" width="800px" height="418px" version="1.1" style="shape-rendering:geometricPrecision; text-rendering:geometricPrecision; image-rendering:optimizeQuality; fill-rule:evenodd; clip-rule:evenodd"
viewBox="0 0 80000 41739"
 xmlns:xlink="http://www.w3.org/1999/xlink">
 <defs>
  <style type="text/css">
   <![CDATA[
    .str1 {stroke:#332C2B;stroke-width:53.0087}
    .str3 {stroke:#00A2E9;stroke-width:55.6522;stroke-linejoin:round}
    .str2 {stroke:#332C2B;stroke-width:69.5652}
    .str0 {stroke:#332C2B;stroke-width:69.5652;stroke-linejoin:round}
    .str4 {stroke:#6D583D;stroke-width:69.5652;stroke-linejoin:round}
    .str5 {stroke:#823520;stroke-width:69.5652;stroke-linejoin:round}
    .str7 {stroke:#EBEADC;stroke-width:417.391}
    .str9 {stroke:#91AA59;stroke-width:556.522}
    .str6 {stroke:#FEFEFE;stroke-width:695.652}
    .str8 {stroke:#F29C79;stroke-width:695.652}
    .fil3 {fill:none}
    .fil2 {fill:#332C2B}
    .fil1 {fill:#FEFEFE}
    .fil5 {fill:#00A2E9}
    .fil0 {fill:#6D583D}
    .fil4 {fill:#823520}
    .fil6 {fill:#A2B37C}
    .fil8 {fill:#D3DE80}
    .fil10 {fill:#D7CF7D}
    .fil9 {fill:#D9BA7D;fill-rule:nonzero}
    .fil7 {fill:url(#id0)}
    .fnt5 {font-weight:normal;font-size:1472.49px;font-family:'Times New Roman'}
    .fnt4 {font-weight:normal;font-size:1963.27px;font-family:'Arial'}
    .fnt1 {font-weight:normal;font-size:1963.27px;font-family:'方正书宋简体'}
    .fnt0 {font-weight:normal;font-size:2331.41px;font-family:'@黑体'}
    .fnt2 {font-weight:normal;font-size:2331.41px;font-family:'黑体'}
    .fnt3 {font-weight:normal;font-size:2454.12px;font-family:'方正准圆简体'}
   ]]>
  </style>
  <radialGradient id="id0" gradientUnits="objectBoundingBox" cx="50.0003%" cy="50%" r="50%" fx="50.0003%" fy="50%">
   <stop offset="0" style="stop-color:#FEFEFE"/>
   <stop offset="1" style="stop-color:#FBD9B6"/>
  </radialGradient>
 </defs>
<symbol id="符号39" viewBox="39722 20452 557 835">
 <polygon class="fil0" points="39729,21287 39996,20452 40278,21287 39722,21287 "/>
</symbol>
<symbol id="符号12" viewBox="39548 20417 904 904">
 <path class="fil1 str0" d="M40417 20870c0,-231 -187,-417 -417,-417 -231,0 -417,187 -417,417 0,231 187,417 417,417 231,0 417,-187 417,-417z"/>
</symbol>
<symbol id="符号36" viewBox="39208 20078 1583 1583">
 <circle class="fil1 str1" cx="40000" cy="20870" r="765"/>
 <circle class="fil2 str1" cx="40000" cy="20870" r="452"/>
</symbol>
<symbol id="符号31" viewBox="39558 20428 884 884">
 <line class="fil3 str2" x1="39583" y1="20452" x2="40417" y2= "21287" />
 <line class="fil3 str2" x1="39583" y1="21287" x2="40417" y2= "20452" />
</symbol>
<symbol id="符号29" viewBox="39556 20426 888 888">
 <circle class="fil1 str1" cx="40000" cy="20870" r="417"/>
 <circle class="fil3 str1" cx="40000" cy="20870" r="157"/>
</symbol>
<symbol id="符号9" viewBox="39556 20426 888 888">
 <circle class="fil1 str1" cx="40000" cy="20870" r="417"/>
 <circle class="fil3 str1" cx="40000" cy="20870" r="157"/>
</symbol>
<symbol id="符号43" viewBox="39558 20428 884 884">
 <line class="fil3 str2" x1="39583" y1="20452" x2="40417" y2= "21287" />
 <line class="fil3 str2" x1="39583" y1="21287" x2="40417" y2= "20452" />
</symbol>
<symbol id="符号42" viewBox="39208 20078 1583 1583">
 <circle class="fil1 str1" cx="40000" cy="20870" r="765"/>
 <circle class="fil2 str1" cx="40000" cy="20870" r="452"/>
</symbol>
<symbol id="符号7" viewBox="39208 20078 1583 1583">
 <circle class="fil1 str1" cx="40000" cy="20870" r="765"/>
 <circle class="fil2 str1" cx="40000" cy="20870" r="452"/>
</symbol>
<symbol id="符号45" viewBox="39722 20452 557 835">
 <polygon class="fil0" points="39729,21287 39996,20452 40278,21287 39722,21287 "/>
</symbol>
<symbol id="符号18" viewBox="39558 20428 884 884">
 <rect class="fil1" x="39583" y="20452" width="835" height="835"/>
 <line class="fil3 str2" x1="39583" y1="20452" x2="40417" y2= "21287" />
 <line class="fil3 str2" x1="39583" y1="21287" x2="40417" y2= "20452" />
</symbol>
<symbol id="符号1" viewBox="39722 20452 557 835">
 <polygon class="fil4" points="39729,21287 39996,20452 40278,21287 39722,21287 "/>
</symbol>
<symbol id="符号40" viewBox="39548 20417 904 904">
 <path class="fil1 str0" d="M40417 20870c0,-231 -187,-417 -417,-417 -231,0 -417,187 -417,417 0,231 187,417 417,417 231,0 417,-187 417,-417z"/>
</symbol>
<symbol id="符号28" viewBox="39548 20417 904 904">
 <path class="fil1 str0" d="M40417 20870c0,-231 -187,-417 -417,-417 -231,0 -417,187 -417,417 0,231 187,417 417,417 231,0 417,-187 417,-417z"/>
</symbol>
<symbol id="符号4" viewBox="39416 20619 1141 501">
 <polygon class="fil5" points="39840,20800 39844,20800 39853,20801 39869,20801 39888,20801 39912,20801 39940,20800 39970,20799 40002,20797 40035,20794 40069,20790 40102,20785 40135,20779 40166,20771 40194,20761 40220,20750 40242,20737 40261,20723 40281,20710 40300,20698 40319,20688 40338,20678 40357,20670 40377,20664 40396,20659 40415,20656 40435,20655 40454,20656 40474,20659 40494,20664 40514,20672 40556,20705 40557,20706 40550,20706 40539,20705 40525,20702 40508,20700 40489,20699 40468,20699 40446,20699 40422,20702 40398,20707 40374,20715 40349,20725 40325,20739 40302,20757 40281,20778 40247,20801 40213,20822 40179,20841 40145,20857 40111,20872 40079,20884 40047,20895 40017,20904 39990,20912 39965,20918 39923,20930 39907,20933 39889,20936 39877,20937 "/>
 <path class="fil5 str3" d="M39892 20870c0,-123 -100,-223 -224,-223 -124,0 -224,100 -224,223 0,123 100,223 224,223 124,0 224,-100 224,-223z"/>
</symbol>
<symbol id="符号14" viewBox="39548 20417 904 904">
 <path class="fil1 str0" d="M40417 20870c0,-231 -187,-417 -417,-417 -231,0 -417,187 -417,417 0,231 187,417 417,417 231,0 417,-187 417,-417z"/>
</symbol>
<symbol id="符号38" viewBox="39861 20730 278 278">
 <path class="fil0 str4" d="M40104 20870c0,-58 -47,-104 -104,-104 -58,0 -104,47 -104,104 0,58 47,104 104,104 58,0 104,-47 104,-104z"/>
</symbol>
<symbol id="符号23" viewBox="39208 20078 1583 1583">
 <circle class="fil1 str1" cx="40000" cy="20870" r="765"/>
 <circle class="fil2 str1" cx="40000" cy="20870" r="452"/>
</symbol>
<symbol id="符号37" viewBox="39558 20428 884 884">
 <line class="fil3 str2" x1="39583" y1="20452" x2="40417" y2= "21287" />
 <line class="fil3 str2" x1="39583" y1="21287" x2="40417" y2= "20452" />
</symbol>
<symbol id="符号17" viewBox="39416 20619 1141 501">
 <polygon class="fil5" points="39840,20800 39844,20800 39853,20801 39869,20801 39888,20801 39912,20801 39940,20800 39970,20799 40002,20797 40035,20794 40069,20790 40102,20785 40135,20779 40166,20771 40194,20761 40220,20750 40242,20737 40261,20723 40281,20710 40300,20698 40319,20688 40338,20678 40357,20670 40377,20664 40396,20659 40415,20656 40435,20655 40454,20656 40474,20659 40494,20664 40514,20672 40556,20705 40557,20706 40550,20706 40539,20705 40525,20702 40508,20700 40489,20699 40468,20699 40446,20699 40422,20702 40398,20707 40374,20715 40349,20725 40325,20739 40302,20757 40281,20778 40247,20801 40213,20822 40179,20841 40145,20857 40111,20872 40079,20884 40047,20895 40017,20904 39990,20912 39965,20918 39923,20930 39907,20933 39889,20936 39877,20937 "/>
 <path class="fil5 str3" d="M39892 20870c0,-123 -100,-223 -224,-223 -124,0 -224,100 -224,223 0,123 100,223 224,223 124,0 224,-100 224,-223z"/>
</symbol>
<symbol id="符号6" viewBox="39556 20426 888 888">
 <circle class="fil1 str1" cx="40000" cy="20870" r="417"/>
 <circle class="fil3 str1" cx="40000" cy="20870" r="157"/>
</symbol>
<symbol id="符号3" viewBox="39558 20428 884 884">
 <rect class="fil1" x="39583" y="20452" width="835" height="835"/>
 <line class="fil3 str2" x1="39583" y1="20452" x2="40417" y2= "21287" />
 <line class="fil3 str2" x1="39583" y1="21287" x2="40417" y2= "20452" />
</symbol>
<symbol id="符号16" viewBox="39208 20078 1583 1583">
 <circle class="fil1 str1" cx="40000" cy="20870" r="765"/>
 <circle class="fil2 str1" cx="40000" cy="20870" r="452"/>
</symbol>
<symbol id="符号8" viewBox="39548 20417 904 904">
 <path class="fil1 str0" d="M40417 20870c0,-231 -187,-417 -417,-417 -231,0 -417,187 -417,417 0,231 187,417 417,417 231,0 417,-187 417,-417z"/>
</symbol>
<symbol id="符号2" viewBox="39861 20730 278 278">
 <path class="fil4 str5" d="M40104 20870c0,-58 -47,-104 -104,-104 -58,0 -104,47 -104,104 0,58 47,104 104,104 58,0 104,-47 104,-104z"/>
</symbol>
<symbol id="符号25" viewBox="39840 20710 320 320">
 <path class="fil0 str4" d="M40125 20870c0,-69 -56,-125 -125,-125 -69,0 -125,56 -125,125 0,69 56,125 125,125 69,0 125,-56 125,-125z"/>
</symbol>
<symbol id="符号20" viewBox="39673 20376 654 988">
 <polygon class="fil4" points="39681,21363 39996,20376 40327,21363 39673,21363 "/>
</symbol>
<symbol id="符号34" viewBox="39687 20557 626 626">
 <path class="fil1 str0" d="M40278 20870c0,-154 -125,-278 -278,-278 -154,0 -278,125 -278,278 0,154 125,278 278,278 154,0 278,-124 278,-278z"/>
 <circle class="fil2" cx="40000" cy="20870" r="104"/>
</symbol>
<symbol id="符号44" viewBox="39861 20730 278 278">
 <path class="fil0 str4" d="M40104 20870c0,-58 -47,-104 -104,-104 -58,0 -104,47 -104,104 0,58 47,104 104,104 58,0 104,-47 104,-104z"/>
</symbol>
<symbol id="符号26" viewBox="39673 20376 654 988">
 <polygon class="fil0" points="39681,21363 39996,20376 40327,21363 39673,21363 "/>
</symbol>
<symbol id="符号10" viewBox="39208 20078 1583 1583">
 <circle class="fil1 str1" cx="40000" cy="20870" r="765"/>
 <circle class="fil2 str1" cx="40000" cy="20870" r="452"/>
</symbol>
<symbol id="符号35" viewBox="39556 20426 888 888">
 <circle class="fil1 str1" cx="40000" cy="20870" r="417"/>
 <circle class="fil3 str1" cx="40000" cy="20870" r="157"/>
</symbol>
<symbol id="符号19" viewBox="39840 20710 320 320">
 <path class="fil4 str5" d="M40125 20870c0,-69 -56,-125 -125,-125 -69,0 -125,56 -125,125 0,69 56,125 125,125 69,0 125,-56 125,-125z"/>
</symbol>
<symbol id="符号32" viewBox="39861 20730 278 278">
 <path class="fil0 str4" d="M40104 20870c0,-58 -47,-104 -104,-104 -58,0 -104,47 -104,104 0,58 47,104 104,104 58,0 104,-47 104,-104z"/>
</symbol>
<symbol id="符号33" viewBox="39722 20452 557 835">
 <polygon class="fil0" points="39729,21287 39996,20452 40278,21287 39722,21287 "/>
</symbol>
<symbol id="符号22" viewBox="39452 20321 1096 1096">
 <circle class="fil1 str1" cx="40000" cy="20870" r="522"/>
 <circle class="fil3 str1" cx="40000" cy="20870" r="196"/>
</symbol>
<symbol id="符号30" viewBox="39208 20078 1583 1583">
 <circle class="fil1 str1" cx="40000" cy="20870" r="765"/>
 <circle class="fil2 str1" cx="40000" cy="20870" r="452"/>
</symbol>
<symbol id="符号24" viewBox="39558 20428 884 884">
 <line class="fil3 str2" x1="39583" y1="20452" x2="40417" y2= "21287" />
 <line class="fil3 str2" x1="39583" y1="21287" x2="40417" y2= "20452" />
</symbol>
<symbol id="符号15" viewBox="39452 20321 1096 1096">
 <circle class="fil1 str1" cx="40000" cy="20870" r="522"/>
 <circle class="fil3 str1" cx="40000" cy="20870" r="196"/>
</symbol>
<symbol id="符号11" viewBox="39208 20078 1583 1583">
 <circle class="fil1 str1" cx="40000" cy="20870" r="765"/>
 <circle class="fil2 str1" cx="40000" cy="20870" r="452"/>
</symbol>
<symbol id="符号41" viewBox="39556 20426 888 888">
 <circle class="fil1 str1" cx="40000" cy="20870" r="417"/>
 <circle class="fil3 str1" cx="40000" cy="20870" r="157"/>
</symbol>
<symbol id="符号21" viewBox="39548 20417 904 904">
 <path class="fil1 str0" d="M40417 20870c0,-231 -187,-417 -417,-417 -231,0 -417,187 -417,417 0,231 187,417 417,417 231,0 417,-187 417,-417z"/>
</symbol>
<symbol id="符号5" viewBox="39548 20417 904 904">
 <path class="fil1 str0" d="M40417 20870c0,-231 -187,-417 -417,-417 -231,0 -417,187 -417,417 0,231 187,417 417,417 231,0 417,-187 417,-417z"/>
</symbol>
<symbol id="符号27" viewBox="39722 20452 557 835">
 <polygon class="fil0" points="39729,21287 39996,20452 40278,21287 39722,21287 "/>
</symbol>
<symbol id="符号13" viewBox="39556 20426 888 888">
 <circle class="fil1 str1" cx="40000" cy="20870" r="417"/>
 <circle class="fil3 str1" cx="40000" cy="20870" r="157"/>
</symbol>
 <g id="图层_x0020_2">
  <metadata id="CorelCorpID_0Corel-Layer"/>
  <g id="_870048672">
   <polyline class="fil3 str6" points="55734,25966 55782,26181 55758,26467 55758,26849 56021,27231 56301,27461 56474,27733 56522,28020 56905,28400 57048,28616 57194,28571 57531,28487 57694,28437 58029,28580 58314,28450 58578,28127 58582,27780 59056,27171 59454,27511 60125,27914 60321,28222 60369,28532 60527,28920 60729,29256 60863,29658 61131,29792 61466,29926 61802,30195 62137,30262 62543,30180 62901,30133 63211,30180 63426,30371 63593,30658 63617,30945 63976,31064 64071,31351 64047,31757 64015,31939 64015,32274 64149,32677 64351,33079 64753,33750 65088,33951 65558,34555 65692,34756 65558,35025 65625,35427 65826,35762 66229,36098 66497,36366 66832,36500 67176,36796 67654,36915 68155,37035 68442,37035 "/>
   <polyline class="fil3 str6" points="42300,22346 42415,22722 42492,23074 42492,23395 42445,24021 42369,24388 42445,24755 42568,24895 42773,24895 43026,24895 44027,24895 44363,24828 44631,24694 44966,24493 45436,24493 45436,24291 45168,23956 44832,23822 44832,23419 44966,23084 45033,22749 45033,22480 45329,22520 45866,22729 46255,22102 45837,21594 45090,20788 45101,20535 45436,20468 45838,20468 46241,20333 46442,20400 46845,20602 47247,20602 47515,20535 47783,20803 48119,20870 48521,21139 48924,21206 48991,21541 49259,21809 49930,22346 49997,22681 50533,23218 50668,23486 50869,23755 51204,24023 51539,23956 51942,23956 52277,23889 52613,23755 52948,23486 53015,23151 53283,23017 53552,23017 53888,22849 54138,23009 54424,23539 54687,23816 55022,23931 55189,23977 55284,24070 55404,24622 55523,25038 55833,25315 56048,25268 56168,25153 56311,25384 56407,25614 "/>
   <path class="fil6 str7" d="M30696 21405l0 -11392c0,-783 486,-1424 1080,-1424l15069 0c594,0 1080,641 1080,1424l0 11392c0,783 -486,1424 -1080,1424l-15069 0c-594,0 -1080,-641 -1080,-1424z"/>
   <path class="fil7 str8" d="M2435 24621c0,-7435 2234,-13462 4989,-13462 2756,0 4989,6027 4989,13462 0,7435 -2234,13462 -4989,13462 -2756,0 -4989,-6027 -4989,-13462z"/>
   <g transform="matrix(-7.94536E-014 1 -1 -7.94536E-014 26248.8 -20098.5)">
    <text x="40000" y="20870"  class="fil2 fnt0">气候变化</text>
   </g>
   <g transform="matrix(0.992546 0.121869 -0.121869 0.992546 -20978.2 4233.27)">
    <text x="40000" y="20870"  class="fil2 fnt1">气候湿润化</text>
   </g>
   <g transform="matrix(0.99492 -0.100668 0.100668 0.99492 -25967.7 2569.03)">
    <text x="40000" y="20870"  class="fil2 fnt1">气候干旱化</text>
   </g>
   <path class="fil6 str7" d="M30696 37602l0 -11392c0,-783 486,-1424 1080,-1424l15069 0c594,0 1080,641 1080,1424l0 11392c0,783 -486,1424 -1080,1424l-15069 0c-594,0 -1080,-641 -1080,-1424z"/>
   <text x="34323" y="28251"  class="fil1 fnt2">植物生产</text>
   <text x="34323" y="31048"  class="fil1 fnt2">量增加，</text>
   <text x="34323" y="33846"  class="fil1 fnt2">盖度增大</text>
   <text x="34244" y="12346"  class="fil1 fnt2">植物生产</text>
   <text x="34244" y="15144"  class="fil1 fnt2">量减小，</text>
   <text x="34244" y="17941"  class="fil1 fnt2">盖度降低</text>
   <g transform="matrix(0.995637 -0.093316 0.093316 0.995637 9326.55 -5197.58)">
    <text x="40000" y="20870"  class="fil2 fnt1">  诱发或</text>
   </g>
   <g transform="matrix(0.995637 -0.093316 0.093316 0.995637 9326.55 -5197.58)">
    <text x="40000" y="23094"  class="fil2 fnt1">加剧风蚀</text>
   </g>
   <g transform="matrix(0.992546 0.121869 -0.121869 0.992546 14094.7 8475.5)">
    <text x="40000" y="20870"  class="fil2 fnt1">  降低或</text>
   </g>
   <g transform="matrix(0.992546 0.121869 -0.121869 0.992546 14094.7 8475.5)">
    <text x="40000" y="23094"  class="fil2 fnt1">抑制风蚀</text>
   </g>
   <circle class="fil8 str9" transform="matrix(3.68532E-014 -1.3915 1.3915 3.68532E-014 70690 32933.4)" r="4941"/>
   <g>
    <g>
     <path class="fil9" d="M28976 28856l-14766 -1665 39 -346 14766 1665 -39 346zm-21 -1092l1540 1088 -1744 718 204 -1807z"/>
    </g>
    <g>
     <path class="fil9" d="M61369 32508l-12492 -1409 39 -346 12492 1409 -39 346zm-21 -1092l1540 1088 -1744 718 204 -1807z"/>
    </g>
   </g>
   <g>
    <g>
     <path class="fil9" d="M29015 20341l-14766 1665 -39 -346 14766 -1665 39 346zm-264 -1060l1744 718 -1540 1088 -204 -1807z"/>
    </g>
    <g>
     <path class="fil9" d="M61408 16689l-12492 1409 -39 -346 12492 -1409 39 346zm-264 -1060l1744 718 -1540 1088 -204 -1807z"/>
    </g>
   </g>
   <circle class="fil10 str9" transform="matrix(3.68532E-014 -1.3915 1.3915 3.68532E-014 70690 14977.8)" r="4941"/>
   <text x="67261" y="13091"  class="fil1 fnt2">沙漠化</text>
   <text x="67261" y="15888"  class="fil1 fnt2">正过程</text>
   <text x="67261" y="30757"  class="fil1 fnt2">沙漠化</text>
   <text x="67261" y="33555"  class="fil1 fnt2">逆过程</text>
   <g transform="matrix(1.2 0 0 1 -32067.9 -17507.1)">
    <text x="40000" y="20870"  class="fil2 fnt3">气候变化对沙漠化过程的影响图解</text>
   </g>
   <text x="8001" y="6110"  class="fil2 fnt4">Climate change impact on the desertification process in Tibet Plateau</text>
   <g transform="matrix(-7.94536E-014 -1 1 -7.94536E-014 -12099.2 69070.3)">
    <text x="40000" y="20870"  class="fil2 fnt5">Climate change</text>
   </g>
   <g transform="matrix(0.993491 -0.113914 0.113914 0.993491 -25196.2 4740.69)">
    <text x="40000" y="20870"  class="fil2 fnt5">Climate drying</text>
   </g>
   <g transform="matrix(0.990633 0.136551 -0.136551 0.990633 -20859 5129.12)">
    <text x="40000" y="20870"  class="fil2 fnt5">Climate wetting</text>
   </g>
   <text x="31272" y="19813"  class="fil1 fnt5">Plant production decreases, </text>
   <text x="31272" y="21281"  class="fil1 fnt5"> and the coverage reduces.</text>
   <text x="31210" y="35675"  class="fil1 fnt5">Plant production increases , </text>
   <text x="31210" y="37143"  class="fil1 fnt5">     and the coverage rise.</text>
   <g transform="matrix(0.994336 -0.106278 0.106278 0.994336 6445.51 -670.616)">
    <text x="40000" y="20870"  class="fil2 fnt5">Induced or exacerbated </text>
   </g>
   <g transform="matrix(0.994336 -0.106278 0.106278 0.994336 6445.51 -670.616)">
    <text x="40000" y="22337"  class="fil2 fnt5">         wind erosion</text>
   </g>
   <g transform="matrix(0.988604 0.150541 -0.150541 0.988604 13374.3 11026.6)">
    <text x="40000" y="20870"  class="fil2 fnt5">Reduce or inhibit </text>
   </g>
   <g transform="matrix(0.988604 0.150541 -0.150541 0.988604 13374.3 11026.6)">
    <text x="40000" y="22337"  class="fil2 fnt5">   wind erosion</text>
   </g>
   <text x="66174" y="17673"  class="fil1 fnt5">Desetrtification </text>
   <text x="66174" y="19141"  class="fil1 fnt5">      process</text>
   <text x="66194" y="35349"  class="fil1 fnt5"> Desertification </text>
   <text x="66194" y="36817"  class="fil1 fnt5">inverse process</text>
  </g>
 </g>
</svg>
