<?xml version="1.0" encoding="UTF-8"?>
<!DOCTYPE svg PUBLIC "-//W3C//DTD SVG 1.1//EN" "http://www.w3.org/Graphics/SVG/1.1/DTD/svg11.dtd">
<!-- Creator: CorelDRAW X6 -->
<svg xmlns="http://www.w3.org/2000/svg" xml:space="preserve" width="1748px" height="1098px" version="1.1" shape-rendering="geometricPrecision" text-rendering="geometricPrecision" image-rendering="optimizeQuality" fill-rule="evenodd" clip-rule="evenodd"
viewBox="0 0 174800 109841"
 xmlns:xlink="http://www.w3.org/1999/xlink">
<symbol id="符号51" viewBox="86685 54206 1429 1429">
 <circle fill="#FEFEFE" stroke="#332C2B" stroke-width="89.9984" cx="87400" cy="54920" r="670"/>
 <circle fill="none" stroke="#332C2B" stroke-width="89.9984" cx="87400" cy="54920" r="239"/>
</symbol>
<symbol id="符号34" viewBox="86845 54082 1110 1677">
 <polygon fill="#6D583D" points="86859,55759 87393,54082 87955,55759 86845,55759 "/>
</symbol>
<symbol id="符号4" viewBox="86517 54539 1718 762">
 <polygon fill="#00A2E9" points="87160,54816 87166,54817 87180,54817 87203,54817 87233,54817 87269,54817 87310,54816 87355,54814 87403,54811 87452,54807 87503,54801 87553,54794 87602,54784 87649,54772 87692,54758 87730,54741 87763,54721 87792,54701 87821,54681 87850,54664 87879,54648 87908,54634 87937,54622 87966,54612 87995,54605 88023,54600 88053,54599 88082,54600 88111,54604 88141,54612 88171,54624 88235,54673 88236,54675 88226,54674 88210,54673 88188,54670 88163,54667 88134,54664 88103,54664 88069,54665 88034,54670 87998,54677 87961,54688 87924,54704 87889,54725 87854,54751 87821,54784 87771,54818 87720,54849 87669,54877 87618,54902 87567,54923 87518,54942 87471,54958 87426,54972 87385,54984 87347,54993 87284,55010 87260,55015 87234,55020 87216,55021 "/>
 <path fill="#00A2E9" stroke="#00A2E9" stroke-width="94.4865" stroke-linejoin="round" d="M87238 54920c0,-184 -151,-334 -337,-334 -186,0 -337,149 -337,334 0,184 151,334 337,334 186,0 337,-149 337,-334z"/>
</symbol>
<symbol id="符号39" viewBox="87164 54684 472 472">
 <path fill="#6D583D" stroke="#6D583D" stroke-width="118.108" stroke-linejoin="round" d="M87577 54920c0,-98 -79,-177 -177,-177 -98,0 -177,79 -177,177 0,98 79,177 177,177 98,0 177,-79 177,-177z"/>
</symbol>
<symbol id="符号46" viewBox="86845 54082 1110 1677">
 <polygon fill="#6D583D" points="86859,55759 87393,54082 87955,55759 86845,55759 "/>
</symbol>
<symbol id="符号44" viewBox="86650 54170 1501 1501">
 <line fill="none" stroke="#332C2B" stroke-width="118.108" x1="86691" y1="54212" x2="88109" y2= "55629" />
 <line fill="none" stroke="#332C2B" stroke-width="118.108" x1="86691" y1="55629" x2="88109" y2= "54212" />
</symbol>
<symbol id="符号41" viewBox="86632 54153 1535 1535">
 <path fill="#FEFEFE" stroke="#332C2B" stroke-width="118.108" stroke-linejoin="round" d="M88109 54921c0,-391 -317,-709 -709,-709 -391,0 -709,317 -709,709 0,391 317,708 709,708 391,0 709,-317 709,-708z"/>
</symbol>
<symbol id="符号22" viewBox="86845 54082 1110 1677">
 <polygon fill="#823520" points="86859,55759 87393,54082 87955,55759 86845,55759 "/>
</symbol>
<symbol id="符号20" viewBox="87128 54649 543 543">
 <path fill="#823520" stroke="#823520" stroke-width="118.108" stroke-linejoin="round" d="M87613 54920c0,-118 -95,-213 -212,-213 -118,0 -213,95 -213,213 0,117 95,213 213,213 117,0 212,-95 212,-213z"/>
</symbol>
<symbol id="符号7" viewBox="86056 53576 2688 2688">
 <circle fill="#FEFEFE" stroke="#332C2B" stroke-width="89.9984" cx="87400" cy="54920" r="1299"/>
 <circle fill="#332C2B" stroke="#332C2B" stroke-width="89.9984" cx="87400" cy="54920" r="768"/>
</symbol>
<symbol id="符号5" viewBox="86632 54153 1535 1535">
 <path fill="#FEFEFE" stroke="#332C2B" stroke-width="118.108" stroke-linejoin="round" d="M88109 54921c0,-391 -317,-709 -709,-709 -391,0 -709,317 -709,709 0,391 317,708 709,708 391,0 709,-317 709,-708z"/>
</symbol>
<symbol id="符号1" viewBox="86981 54288 839 1264">
 <polygon fill="#823520" points="86991,55552 87395,54288 87819,55552 86981,55552 "/>
</symbol>
<symbol id="符号3" viewBox="86914 54434 972 972">
 <rect fill="#FEFEFE" x="86956" y="54476" width="888" height="888"/>
 <line fill="none" stroke="#332C2B" stroke-width="118.108" x1="86956" y1="54476" x2="87844" y2= "55364" />
 <line fill="none" stroke="#332C2B" stroke-width="118.108" x1="86956" y1="55364" x2="87844" y2= "54476" />
</symbol>
<symbol id="符号42" viewBox="86455 53975 1890 1890">
 <circle fill="#FEFEFE" stroke="#332C2B" stroke-width="118.108" cx="87400" cy="54920" r="886"/>
 <circle fill="none" stroke="#332C2B" stroke-width="118.108" cx="87400" cy="54920" r="332"/>
</symbol>
<symbol id="符号32" viewBox="86295 53815 2210 2210">
 <line fill="none" stroke="#332C2B" stroke-width="118.108" x1="86337" y1="53857" x2="88463" y2= "55983" />
 <line fill="none" stroke="#332C2B" stroke-width="118.108" x1="86337" y1="55983" x2="88463" y2= "53857" />
</symbol>
<symbol id="符号27" viewBox="87164 54684 472 472">
 <path fill="#6D583D" stroke="#6D583D" stroke-width="118.108" stroke-linejoin="round" d="M87577 54920c0,-98 -79,-177 -177,-177 -98,0 -177,79 -177,177 0,98 79,177 177,177 98,0 177,-79 177,-177z"/>
</symbol>
<symbol id="符号6" viewBox="86646 54167 1507 1507">
 <circle fill="#FEFEFE" stroke="#332C2B" stroke-width="89.9984" cx="87400" cy="54920" r="709"/>
 <circle fill="none" stroke="#332C2B" stroke-width="89.9984" cx="87400" cy="54920" r="266"/>
</symbol>
<symbol id="符号29" viewBox="86632 54153 1535 1535">
 <path fill="#FEFEFE" stroke="#332C2B" stroke-width="118.108" stroke-linejoin="round" d="M88109 54921c0,-391 -317,-709 -709,-709 -391,0 -709,317 -709,709 0,391 317,708 709,708 391,0 709,-317 709,-708z"/>
</symbol>
<symbol id="符号43" viewBox="86042 53562 2716 2716">
 <circle fill="#FEFEFE" stroke="#332C2B" stroke-width="118.108" cx="87400" cy="54920" r="1299"/>
 <circle fill="#332C2B" stroke="#332C2B" stroke-width="118.108" cx="87400" cy="54920" r="768"/>
</symbol>
<symbol id="符号30" viewBox="85820 53340 3161 3161">
 <circle fill="#FEFEFE" stroke="#332C2B" stroke-width="89.9984" cx="87400" cy="54920" r="1535"/>
 <circle fill="none" stroke="#332C2B" stroke-width="89.9984" cx="87400" cy="54920" r="576"/>
</symbol>
<symbol id="符号15" viewBox="86632 54153 1535 1535">
 <path fill="#FEFEFE" stroke="#332C2B" stroke-width="118.108" stroke-linejoin="round" d="M88109 54921c0,-391 -317,-709 -709,-709 -391,0 -709,317 -709,709 0,391 317,708 709,708 391,0 709,-317 709,-708z"/>
</symbol>
<symbol id="符号10" viewBox="87164 54684 472 472">
 <path fill="#823520" stroke="#823520" stroke-width="118.108" stroke-linejoin="round" d="M87577 54920c0,-98 -79,-177 -177,-177 -98,0 -177,79 -177,177 0,98 79,177 177,177 98,0 177,-79 177,-177z"/>
</symbol>
<symbol id="符号16" viewBox="85820 53340 3161 3161">
 <circle fill="#FEFEFE" stroke="#332C2B" stroke-width="89.9984" cx="87400" cy="54920" r="1535"/>
 <circle fill="none" stroke="#332C2B" stroke-width="89.9984" cx="87400" cy="54920" r="576"/>
</symbol>
<symbol id="符号48" viewBox="86632 54153 1535 1535">
 <path fill="#FEFEFE" stroke="#332C2B" stroke-width="118.108" stroke-linejoin="round" d="M88109 54921c0,-391 -317,-709 -709,-709 -391,0 -709,317 -709,709 0,391 317,708 709,708 391,0 709,-317 709,-708z"/>
</symbol>
<symbol id="符号40" viewBox="86928 54212 945 1417">
 <polygon fill="#6D583D" points="86939,55629 87394,54212 87872,55629 86928,55629 "/>
</symbol>
<symbol id="符号49" viewBox="86685 54206 1429 1429">
 <circle fill="#FEFEFE" stroke="#332C2B" stroke-width="89.9984" cx="87400" cy="54920" r="670"/>
 <circle fill="none" stroke="#332C2B" stroke-width="89.9984" cx="87400" cy="54920" r="239"/>
</symbol>
<symbol id="符号21" viewBox="86573 53385 1654 3071">
 <polygon fill="#823520" points="86594,56456 87389,53385 88227,56456 86573,56456 "/>
</symbol>
<symbol id="符号11" viewBox="86056 53576 2688 2688">
 <circle fill="#FEFEFE" stroke="#332C2B" stroke-width="89.9984" cx="87400" cy="54920" r="1299"/>
 <circle fill="#332C2B" stroke="#332C2B" stroke-width="89.9984" cx="87400" cy="54920" r="768"/>
</symbol>
<symbol id="符号25" viewBox="86056 53576 2688 2688">
 <circle fill="#FEFEFE" stroke="#332C2B" stroke-width="89.9984" cx="87400" cy="54920" r="1299"/>
 <circle fill="#332C2B" stroke="#332C2B" stroke-width="89.9984" cx="87400" cy="54920" r="768"/>
</symbol>
<symbol id="符号19" viewBox="86295 53815 2210 2210">
 <rect fill="#FEFEFE" x="86337" y="53857" width="2126" height="2126"/>
 <line fill="none" stroke="#332C2B" stroke-width="118.108" x1="86337" y1="53857" x2="88463" y2= "55983" />
 <line fill="none" stroke="#332C2B" stroke-width="118.108" x1="86337" y1="55983" x2="88463" y2= "53857" />
</symbol>
<symbol id="符号8" viewBox="86169 54401 2415 1039">
 <polygon fill="#00A2E9" points="87048,54805 87056,54806 87076,54806 87109,54806 87151,54806 87203,54806 87261,54805 87326,54803 87394,54801 87465,54796 87538,54791 87610,54783 87680,54774 87746,54762 87807,54748 87862,54731 87909,54711 87951,54691 87992,54672 88034,54654 88075,54638 88116,54624 88157,54612 88198,54603 88240,54596 88281,54591 88322,54590 88364,54591 88407,54595 88449,54603 88492,54615 88582,54663 88584,54665 88570,54665 88547,54663 88516,54660 88480,54657 88439,54655 88394,54655 88346,54656 88296,54660 88244,54667 88192,54678 88139,54694 88088,54714 88039,54741 87992,54773 87921,54807 87848,54838 87774,54866 87702,54890 87629,54912 87559,54930 87492,54946 87428,54960 87369,54971 87315,54981 87225,54998 87191,55002 87154,55007 87128,55009 "/>
 <path fill="#00A2E9" stroke="#00A2E9" stroke-width="94.4865" stroke-linejoin="round" d="M87161 54920c0,-261 -211,-472 -472,-472 -261,0 -472,212 -472,472 0,261 212,472 472,472 261,0 472,-212 472,-472z"/>
</symbol>
<symbol id="符号14" viewBox="86632 54153 1535 1535">
 <path fill="#FEFEFE" stroke="#332C2B" stroke-width="118.108" stroke-linejoin="round" d="M88109 54921c0,-391 -317,-709 -709,-709 -391,0 -709,317 -709,709 0,391 317,708 709,708 391,0 709,-317 709,-708z"/>
</symbol>
<symbol id="符号50" viewBox="86632 54153 1535 1535">
 <path fill="#FEFEFE" stroke="#332C2B" stroke-width="118.108" stroke-linejoin="round" d="M88109 54921c0,-391 -317,-709 -709,-709 -391,0 -709,317 -709,709 0,391 317,708 709,708 391,0 709,-317 709,-708z"/>
</symbol>
<symbol id="符号35" viewBox="86632 54153 1535 1535">
 <path fill="#FEFEFE" stroke="#332C2B" stroke-width="118.108" stroke-linejoin="round" d="M88109 54921c0,-391 -317,-709 -709,-709 -391,0 -709,317 -709,709 0,391 317,708 709,708 391,0 709,-317 709,-708z"/>
</symbol>
<symbol id="符号33" viewBox="87128 54649 543 543">
 <path fill="#6D583D" stroke="#6D583D" stroke-width="118.108" stroke-linejoin="round" d="M87613 54920c0,-118 -95,-213 -212,-213 -118,0 -213,95 -213,213 0,117 95,213 213,213 117,0 212,-95 212,-213z"/>
</symbol>
<symbol id="符号28" viewBox="86928 54212 945 1417">
 <polygon fill="#6D583D" points="86939,55629 87394,54212 87872,55629 86928,55629 "/>
</symbol>
<symbol id="符号17" viewBox="86056 53576 2688 2688">
 <circle fill="#FEFEFE" stroke="#332C2B" stroke-width="89.9984" cx="87400" cy="54920" r="1299"/>
 <circle fill="#332C2B" stroke="#332C2B" stroke-width="89.9984" cx="87400" cy="54920" r="768"/>
</symbol>
<symbol id="符号13" viewBox="86685 54206 1429 1429">
 <circle fill="#FEFEFE" stroke="#332C2B" stroke-width="89.9984" cx="87400" cy="54920" r="670"/>
 <circle fill="none" stroke="#332C2B" stroke-width="89.9984" cx="87400" cy="54920" r="239"/>
</symbol>
<symbol id="符号38" viewBox="86650 54170 1501 1501">
 <line fill="none" stroke="#332C2B" stroke-width="118.108" x1="86691" y1="54212" x2="88109" y2= "55629" />
 <line fill="none" stroke="#332C2B" stroke-width="118.108" x1="86691" y1="55629" x2="88109" y2= "54212" />
</symbol>
<symbol id="符号36" viewBox="86632 54153 1535 1535">
 <circle fill="#FEFEFE" stroke="#332C2B" stroke-width="118.108" cx="87400" cy="54920" r="709"/>
 <circle fill="none" stroke="#332C2B" stroke-width="118.108" cx="87400" cy="54920" r="266"/>
</symbol>
<symbol id="符号12" viewBox="86928 54212 945 1417">
 <polygon fill="#823520" points="86939,55629 87394,54212 87872,55629 86928,55629 "/>
</symbol>
<symbol id="符号47" viewBox="86928 54212 945 1417">
 <polygon fill="#6D583D" points="86939,55629 87394,54212 87872,55629 86928,55629 "/>
</symbol>
<symbol id="符号45" viewBox="87128 54649 543 543">
 <path fill="#6D583D" stroke="#6D583D" stroke-width="118.108" stroke-linejoin="round" d="M87613 54920c0,-118 -95,-213 -212,-213 -118,0 -213,95 -213,213 0,117 95,213 213,213 117,0 212,-95 212,-213z"/>
</symbol>
<symbol id="符号26" viewBox="86650 54170 1501 1501">
 <line fill="none" stroke="#332C2B" stroke-width="118.108" x1="86691" y1="54212" x2="88109" y2= "55629" />
 <line fill="none" stroke="#332C2B" stroke-width="118.108" x1="86691" y1="55629" x2="88109" y2= "54212" />
</symbol>
<symbol id="符号23" viewBox="86632 54153 1535 1535">
 <path fill="#FEFEFE" stroke="#332C2B" stroke-width="118.108" stroke-linejoin="round" d="M88109 54921c0,-391 -317,-709 -709,-709 -391,0 -709,317 -709,709 0,391 317,708 709,708 391,0 709,-317 709,-708z"/>
 <circle fill="#332C2B" cx="87400" cy="54920" r="177"/>
</symbol>
<symbol id="符号2" viewBox="87193 54714 413 413">
 <path fill="#823520" stroke="#823520" stroke-width="118.108" stroke-linejoin="round" d="M87548 54920c0,-82 -66,-148 -148,-148 -82,0 -148,66 -148,148 0,81 66,148 148,148 81,0 148,-66 148,-148z"/>
</symbol>
<symbol id="符号37" viewBox="86042 53562 2716 2716">
 <circle fill="#FEFEFE" stroke="#332C2B" stroke-width="118.108" cx="87400" cy="54920" r="1299"/>
 <circle fill="#332C2B" stroke="#332C2B" stroke-width="118.108" cx="87400" cy="54920" r="768"/>
</symbol>
<symbol id="符号31" viewBox="86056 53576 2688 2688">
 <circle fill="#FEFEFE" stroke="#332C2B" stroke-width="89.9984" cx="87400" cy="54920" r="1299"/>
 <circle fill="#332C2B" stroke="#332C2B" stroke-width="89.9984" cx="87400" cy="54920" r="768"/>
</symbol>
<symbol id="符号18" viewBox="86408 54495 1937 850">
 <polygon fill="#00A2E9" points="87129,54802 87135,54803 87151,54803 87177,54804 87211,54804 87251,54803 87298,54802 87349,54800 87403,54797 87459,54792 87517,54786 87573,54777 87629,54766 87681,54753 87730,54736 87773,54717 87810,54695 87843,54672 87877,54650 87909,54629 87942,54612 87974,54596 88007,54582 88040,54571 88072,54563 88105,54558 88138,54556 88171,54557 88204,54563 88238,54572 88272,54584 88344,54640 88345,54642 88334,54642 88316,54640 88291,54636 88263,54633 88230,54631 88195,54630 88157,54631 88117,54636 88076,54645 88034,54657 87993,54675 87953,54699 87913,54729 87877,54766 87820,54805 87762,54840 87704,54871 87646,54899 87589,54924 87534,54945 87480,54963 87430,54979 87383,54992 87340,55003 87269,55022 87242,55028 87212,55033 87192,55035 "/>
 <path fill="#00A2E9" stroke="#00A2E9" stroke-width="94.4865" stroke-linejoin="round" d="M87216 54920c0,-209 -170,-378 -381,-378 -210,0 -381,169 -381,378 0,209 171,378 381,378 210,0 381,-169 381,-378z"/>
</symbol>
<symbol id="符号9" viewBox="86650 54170 1501 1501">
 <rect fill="#FEFEFE" x="86691" y="54212" width="1417" height="1417"/>
 <line fill="none" stroke="#332C2B" stroke-width="118.108" x1="86691" y1="54212" x2="88109" y2= "55629" />
 <line fill="none" stroke="#332C2B" stroke-width="118.108" x1="86691" y1="55629" x2="88109" y2= "54212" />
</symbol>
<symbol id="符号24" viewBox="86646 54167 1507 1507">
 <circle fill="#FEFEFE" stroke="#332C2B" stroke-width="89.9984" cx="87400" cy="54920" r="709"/>
 <circle fill="none" stroke="#332C2B" stroke-width="89.9984" cx="87400" cy="54920" r="266"/>
</symbol>
 <g id="照片">
  <metadata id="CorelCorpID_0Corel-Layer"/>
  <g id="_670020016">
   <rect fill="#D1E2EC" x="908" y="13799" width="173028" height="10519"/>
   <rect fill="#D1E2EC" x="1041" y="43958" width="173028" height="26196"/>
   <rect fill="#D1E2EC" x="881" y="80454" width="173028" height="10443"/>
   <rect fill="#F4FAFD" x="1036" y="70179" width="173028" height="10475"/>
   <rect fill="#F4FAFD" x="958" y="90847" width="173028" height="13166"/>
   <rect fill="#F4FAFD" x="920" y="24353" width="173028" height="19460"/>
   <path fill="none" stroke="#FEFEFE" stroke-width="236.216" d="M958 24395c173028,0 173028,0 173028,0"/>
   <path fill="none" stroke="#FEFEFE" stroke-width="236.216" d="M731 44001c173028,0 173028,0 173028,0"/>
   <path fill="none" stroke="#FEFEFE" stroke-width="236.216" d="M997 70102c173028,0 173028,0 173028,0"/>
   <path fill="none" stroke="#FEFEFE" stroke-width="236.216" d="M803 80496c173028,0 173028,0 173028,0"/>
   <path fill="none" stroke="#FEFEFE" stroke-width="236.216" d="M958 90771c173028,0 173028,0 173028,0"/>
   <path fill="none" stroke="#FEFEFE" stroke-width="236.216" d="M36431 13765c0,90279 0,90279 0,90279"/>
   <path fill="none" stroke="#FEFEFE" stroke-width="236.216" d="M109682 13765c0,90268 0,90268 0,90268"/>
   <text x="37941" y="32351"  fill="#332C2B" font-weight="normal" font-size="2916.56px" font-family="方正书宋简体">温度、水分条件组合有共同特征，具有地带性</text>
   <text x="37941" y="35655"  fill="#332C2B" font-weight="normal" font-size="2916.56px" font-family="方正书宋简体">植被和土壤的范围较大的自然地域</text>
   <g transform="matrix(1.2 0 0 1 -17408.2 -50125.7)">
    <text x="56150" y="54920"  fill="#332C2B" font-weight="normal" font-size="4166.62px" font-family="方正准圆简体">西藏高原土地沙漠化防治区划指标</text>
   </g>
   <text x="15372" y="19377"  fill="#332C2B" font-weight="normal" font-size="3333.25px" font-family="黑体">指标</text>
   <text x="53987" y="19377"  fill="#332C2B" font-weight="normal" font-size="3333.25px" font-family="黑体">沙漠化分布区</text>
   <text x="73986" y="19377"  fill="#332C2B" font-weight="normal" font-size="2916.56px" font-family="宋体">（一级区）</text>
   <text x="120868" y="18285"  fill="#332C2B" font-weight="normal" font-size="3333.25px" font-family="黑体">沙漠化发展程度亚区</text>
   <text x="150867" y="18285"  fill="#332C2B" font-weight="normal" font-size="2916.56px" font-family="宋体">（二级区）</text>
   <text x="2545" y="34771"  fill="#332C2B" font-weight="normal" font-size="2916.56px" font-family="黑体">自然地域系统</text>
   <text x="113440" y="30568"  fill="#332C2B" font-weight="normal" font-size="2916.56px" font-family="方正书宋简体">具有大体一致的植被、土壤类型组合，垂直自</text>
   <text x="113440" y="33872"  fill="#332C2B" font-weight="normal" font-size="2916.56px" font-family="方正书宋简体">然带结构相近，与区域地形相符的自然区</text>
   <text x="2545" y="56202"  fill="#332C2B" font-weight="normal" font-size="2916.56px" font-family="黑体">沙漠化土地分布</text>
   <text x="2545" y="59119"  fill="#332C2B" font-weight="normal" font-size="2916.56px" font-family="黑体">形式与分布指数</text>
   <text x="37941" y="56310"  fill="#332C2B" font-weight="normal" font-size="2916.56px" font-family="方正书宋简体">分布形式相对一致，其中零星分布（</text>
   <text x="86712" y="56310"  fill="#332C2B" font-weight="normal" font-size="2916.56px" font-family="方正书宋简体">≤</text>
   <text x="91087" y="56310"  fill="#332C2B" font-weight="normal" font-size="2916.56px" font-family="方正书宋简体">.</text>
   <text x="95692" y="56310"  fill="#332C2B" font-weight="normal" font-size="2916.56px" font-family="方正书宋简体">）、</text>
   <text x="84606" y="56310"  fill="#332C2B" font-style="italic" font-weight="normal" font-size="2916.56px" font-family="Times New Roman">D</text>
   <text x="89628" y="56310"  fill="#332C2B" font-weight="normal" font-size="2916.56px" font-family="Times New Roman">5</text>
   <text x="91805" y="56310"  fill="#332C2B" font-weight="normal" font-size="2916.56px" font-family="Times New Roman">5%</text>
   <text x="37941" y="59729"  fill="#332C2B" font-weight="normal" font-size="2916.56px" font-family="方正书宋简体">分散分布（</text>
   <text x="72800" y="59729"  fill="#332C2B" font-weight="normal" font-size="2916.56px" font-family="方正书宋简体">）、集中分布（</text>
   <text x="95322" y="59729"  fill="#332C2B" font-weight="normal" font-size="2916.56px" font-family="方正书宋简体">≥</text>
   <text x="105772" y="59729"  fill="#332C2B" font-weight="normal" font-size="2916.56px" font-family="方正书宋简体">）</text>
   <text x="52523" y="59729"  fill="#332C2B" font-style="italic" font-weight="normal" font-size="2916.56px" font-family="Times New Roman">D</text>
   <text x="93216" y="59729"  fill="#332C2B" font-style="italic" font-weight="normal" font-size="2916.56px" font-family="Times New Roman">D</text>
   <text x="54630" y="59729"  fill="#332C2B" font-weight="normal" font-size="2916.56px" font-family="Times New Roman">=5.5%</text>
   <text x="65266" y="59729"  fill="#332C2B" font-weight="normal" font-size="2916.56px" font-family="Times New Roman">22.0%</text>
   <text x="98239" y="59729"  fill="#332C2B" font-weight="normal" font-size="2916.56px" font-family="Times New Roman">22.0%</text>
   <text x="62350" y="59729"  fill="#332C2B" font-weight="normal" font-size="2916.56px" font-family="方正书宋简体">～</text>
   <text x="114580" y="56958"  fill="#332C2B" font-weight="normal" font-size="2916.56px" font-family="方正书宋简体">分布形式基本一致，分布指数同前</text>
   <text x="2545" y="75303"  fill="#332C2B" font-weight="normal" font-size="2916.56px" font-family="黑体">土地利用类型</text>
   <text x="37941" y="75297"  fill="#332C2B" font-weight="normal" font-size="2916.56px" font-family="方正书宋简体">土地利用类型复合组合</text>
   <text x="114580" y="75297"  fill="#332C2B" font-weight="normal" font-size="2916.56px" font-family="方正书宋简体">土地利用类型简单组合</text>
   <text x="2545" y="85539"  fill="#332C2B" font-weight="normal" font-size="2916.56px" font-family="黑体">人为活动频率</text>
   <text x="37941" y="85539"  fill="#332C2B" font-weight="normal" font-size="2834.59px" font-family="方正书宋简体">人为活动的频率不一</text>
   <text x="114580" y="85539"  fill="#332C2B" font-weight="normal" font-size="2834.59px" font-family="方正书宋简体">人为活动的频率相对一致</text>
   <text x="2545" y="96277"  fill="#332C2B" font-weight="normal" font-size="2916.56px" font-family="黑体">沙漠化发展程度</text>
   <text x="37941" y="96867"  fill="#332C2B" font-weight="normal" font-size="2916.56px" font-family="方正书宋简体">不同类型、等级沙漠化土地组合</text>
   <text x="114580" y="94921"  fill="#332C2B" font-weight="normal" font-size="2916.56px" font-family="方正书宋简体">以</text>
   <text x="123307" y="94921"  fill="#332C2B" font-weight="normal" font-size="2916.56px" font-family="方正书宋简体">个类型、等级沙漠化土地为主体，达</text>
   <text x="117496" y="94921"  fill="#332C2B" font-weight="normal" font-size="2916.56px" font-family="方正书宋简体">1～2</text>
   <text x="114580" y="98225"  fill="#332C2B" font-weight="normal" font-size="2916.56px" font-family="方正书宋简体">到相对一致的发展速率</text>
   <text x="7555" y="108260"  fill="#332C2B" font-weight="normal" font-size="2499.99px" font-family="方正细等线简体">* </text>
   <text x="32379" y="108260"  fill="#332C2B" font-weight="normal" font-size="2499.99px" font-family="方正细等线简体">=</text>
   <text x="51491" y="108260"  fill="#332C2B" font-weight="normal" font-size="2499.99px" font-family="方正细等线简体">/</text>
   <text x="9879" y="108260"  fill="#332C2B" font-weight="normal" font-size="2499.99px" font-family="方正细等线简体">沙漠化土地分布指数</text>
   <text x="33991" y="108260"  fill="#332C2B" font-weight="normal" font-size="2499.99px" font-family="方正细等线简体">沙漠化土地面积</text>
   <text x="52203" y="108260"  fill="#332C2B" font-weight="normal" font-size="2499.99px" font-family="方正细等线简体">土地总面积</text>
   <rect fill="none" stroke="#FEFEFE" stroke-width="472.432" x="886" y="13856" width="173028" height="90387"/>
   <text x="35638" y="9486"  fill="#332C2B" font-weight="normal" font-size="3333.25px" font-family="Arial">Indicators of aeolian desertification control division in the Tibet Plateau</text>
   <text x="14101" y="22939"  fill="#332C2B" font-weight="normal" font-size="2499.99px" font-family="Times New Roman">Indicator</text>
   <text x="2575" y="36998"  fill="#332C2B" font-weight="normal" font-size="2291.65px" font-family="Times New Roman">Natural  system</text>
   <text x="2545" y="61704"  fill="#332C2B" font-weight="normal" font-size="2291.65px" font-family="Times New Roman">Distribution form and distribution </text>
   <text x="2545" y="63988"  fill="#332C2B" font-weight="normal" font-size="2291.65px" font-family="Times New Roman">index of aeolian desertification land</text>
   <text x="2545" y="77462"  fill="#332C2B" font-weight="normal" font-size="2291.65px" font-family="Times New Roman">Land use type</text>
   <text x="2545" y="87796"  fill="#332C2B" font-weight="normal" font-size="2291.65px" font-family="Times New Roman">Frequency of human activities</text>
   <text x="2545" y="98573"  fill="#332C2B" font-weight="normal" font-size="2291.65px" font-family="Times New Roman">Degree of aeolian desertification </text>
   <text x="2545" y="100857"  fill="#332C2B" font-weight="normal" font-size="2291.65px" font-family="Times New Roman">development</text>
   <text x="42141" y="22709"  fill="#332C2B" font-weight="normal" font-size="2499.99px" font-family="Times New Roman">Distrbution of aeolian desertificaiotn</text>
   <text x="79004" y="22709"  fill="#332C2B" font-weight="normal" font-size="2291.65px" font-family="Times New Roman"> (the first level range)</text>
   <g transform="matrix(0.97892 0 0 1 56809 -34278.2)">
    <text x="58696" y="54920"  fill="#332C2B" font-weight="normal" font-size="2499.99px" font-family="Times New Roman">Sub-region of aeolian desertification development degree</text>
   </g>
   <g transform="matrix(0.97892 0 0 1 56809 -34278.2)">
    <text x="76425" y="57245"  fill="#332C2B" font-weight="normal" font-size="2291.65px" font-family="Times New Roman">(the second level range)</text>
   </g>
   <text x="37941" y="37839"  fill="#332C2B" font-weight="normal" font-size="2083.31px" font-family="Times New Roman">The larger natural area with zonal vegetation and soil, </text>
   <text x="37941" y="39915"  fill="#332C2B" font-weight="normal" font-size="2083.31px" font-family="Times New Roman">where tempreture and moisture condition have common features</text>
   <text x="37941" y="61926"  fill="#332C2B" font-weight="normal" font-size="2083.31px" font-family="Times New Roman">Distribution form is relatively consistent, in which scattered (D</text>
   <text x="92733" y="61926"  fill="#332C2B" font-weight="normal" font-size="2083.31px" font-family="Times New Roman">5.5%) , </text>
   <text x="90650" y="61926"  fill="#332C2B" font-weight="normal" font-size="2083.31px" font-family="方正书宋简体">≤</text>
   <text x="37941" y="64124"  fill="#332C2B" font-weight="normal" font-size="2083.31px" font-family="Times New Roman">scattered distribution (D</text>
   <text x="60274" y="64124"  fill="#332C2B" font-weight="normal" font-size="2083.31px" font-family="Times New Roman">5.5-22.0%), concentrated (D</text>
   <text x="86133" y="64124"  fill="#332C2B" font-weight="normal" font-size="2083.31px" font-family="Times New Roman">22.0%)</text>
   <text x="58191" y="64124"  fill="#332C2B" font-weight="normal" font-size="2083.31px" font-family="方正书宋简体">＝</text>
   <text x="84050" y="64124"  fill="#332C2B" font-weight="normal" font-size="2083.31px" font-family="方正书宋简体">≥</text>
   <text x="37941" y="77512"  fill="#332C2B" font-weight="normal" font-size="2083.31px" font-family="Times New Roman">Compound combination of land use type</text>
   <text x="37941" y="87820"  fill="#332C2B" font-weight="normal" font-size="2083.31px" font-family="Times New Roman">The difference of human activity frequency</text>
   <text x="37941" y="99144"  fill="#332C2B" font-weight="normal" font-size="2083.31px" font-family="Times New Roman">The combination of different type and level aeolian desertification land</text>
   <text x="114580" y="36078"  fill="#332C2B" font-weight="normal" font-size="2083.31px" font-family="Times New Roman">The natural region with the generally consistent type combination of </text>
   <text x="114580" y="38155"  fill="#332C2B" font-weight="normal" font-size="2083.31px" font-family="Times New Roman">vegetation and soil, the similar construction of vertical natural zone, </text>
   <text x="114580" y="40232"  fill="#332C2B" font-weight="normal" font-size="2083.31px" font-family="Times New Roman">and in line with the regional topography.</text>
   <text x="114580" y="59161"  fill="#332C2B" font-weight="normal" font-size="2083.31px" font-family="Times New Roman">With the basiclly consistent distribution form, </text>
   <text x="114580" y="61238"  fill="#332C2B" font-weight="normal" font-size="2083.31px" font-family="Times New Roman">and the above distribution index</text>
   <text x="114580" y="77491"  fill="#332C2B" font-weight="normal" font-size="2083.31px" font-family="Times New Roman">Simple combination of land use type</text>
   <text x="114580" y="87789"  fill="#332C2B" font-weight="normal" font-size="2083.31px" font-family="Times New Roman">Relatively consistent of human activity frequency</text>
   <text x="114580" y="100467"  fill="#332C2B" font-weight="normal" font-size="2083.31px" font-family="Times New Roman">With 1 to 2 type and level aeolian desertification as the main body, </text>
   <text x="114580" y="102544"  fill="#332C2B" font-weight="normal" font-size="2083.31px" font-family="Times New Roman">achieve a relatively consistent development rate</text>
  </g>
 </g>
</svg>
