<?xml version="1.0" encoding="UTF-8"?>
<!DOCTYPE svg PUBLIC "-//W3C//DTD SVG 1.1//EN" "http://www.w3.org/Graphics/SVG/1.1/DTD/svg11.dtd">
<!-- Creator: CorelDRAW X6 -->
<svg onload="Init(evt)"  xmlns="http://www.w3.org/2000/svg" xml:space="preserve" width="1000px" x="0px" y="0px" height="715px" version="1.1" style="shape-rendering:geometricPrecision; text-rendering:geometricPrecision; image-rendering:optimizeQuality; fill-rule:evenodd; clip-rule:evenodd"
viewBox="0 0 100000 71483"
 xmlns:xlink="http://www.w3.org/1999/xlink">
 <script  xlink:href="../js/Map.js"></script>
 <script language="Javascript">
      <![CDATA[
	
       function Showimg(n) {
         document.getElementById('rect'+n).setAttribute("style", "visibility: visible");
   }
  function closeinfotip(n)
	{
	document.getElementById('infotip'+n).setAttribute("style", "visibility: hidden"); 
	}

	     
	   ]]>
	  
    </script>
 <defs>
  <style type="text/css">
   <![CDATA[
    .str2 {stroke:#332C2B;stroke-width:14.4867}
    .str3 {stroke:#00A2E9;stroke-width:15.2091;stroke-linejoin:round}
    .str0 {stroke:#332C2B;stroke-width:19.0114}
    .str1 {stroke:#332C2B;stroke-width:19.0114;stroke-linejoin:round}
    .str5 {stroke:#6D583D;stroke-width:19.0114;stroke-linejoin:round}
    .str4 {stroke:#823520;stroke-width:19.0114;stroke-linejoin:round}
    .str7 {stroke:#332C2B;stroke-width:22.8137}
    .str9 {stroke:#00A2E9;stroke-width:38.0228;stroke-opacity:0.000000}
    .str8 {stroke:#00A2E9;stroke-width:38.0228}
    .str6 {stroke:#AE6F15;stroke-width:190.114;stroke-dasharray:190.114068 190.114068}
    .fil0 {fill:none}
    .fil3 {fill:#332C2B}
    .fil1 {fill:#FEFEFE}
    .fil8 {fill:#2F318B}
    .fil6 {fill:#FEFEFE}
	 .fil600 {fill:#FEFEFE;fill-opacity:0}
    .fil5 {fill:#00A2E9}
    .fil4 {fill:#6D583D}
    .fil2 {fill:#823520}
    .fil7 {fill:#C7D2E1}
    .fil9 {fill:#FEFEFE;fill-opacity:0}
	.fil50 {fill:#FEFEFE}
    .fnt6 {font-weight:normal;font-size:312.319px;font-family:'黑体'}
    .fnt2 {font-weight:normal;font-size:469.468px;font-family:'Times New Roman'}
    .fnt5 {font-weight:normal;font-size:469.468px;font-family:'黑体'}
    .fnt1 {font-weight:normal;font-size:704.221px;font-family:'Arial'}
    .fnt4 {font-weight:normal;font-size:804.81px;font-family:'Arial'}
    .fnt0 {font-weight:normal;font-size:871.882px;font-family:'黑体'}
    .fnt3 {font-weight:normal;font-size:1006.03px;font-family:'汉仪中黑简'}
   ]]>
  </style>
   <clipPath id="id0">
    <rect x="12344" y="15690" width="76007" height="41448"/>
   </clipPath>
   <clipPath id="id1">
    <rect x="3496" y="14389" width="15871" height="17304"/>
   </clipPath>
   <clipPath id="id2">
    <rect x="24341" y="20689" width="20346" height="12104"/>
   </clipPath>
   <clipPath id="id3">
    <rect x="59031" y="19142" width="16772" height="13247"/>
   </clipPath>
   <clipPath id="id4">
    <rect x="54588" y="12645" width="16772" height="22084"/>
   </clipPath>
   <clipPath id="id5">
    <rect x="61656" y="25113" width="20475" height="11718"/>
   </clipPath>
   <clipPath id="id6">
    <rect x="60448" y="37035" width="19638" height="6632"/>
   </clipPath>
   <clipPath id="id7">
    <rect x="80875" y="21060" width="14809" height="19219"/>
   </clipPath>
   <clipPath id="id8">
    <rect x="6677" y="46038" width="36168" height="7614"/>
   </clipPath>
   <clipPath id="id9">
    <rect x="11257" y="50626" width="29424" height="11943"/>
   </clipPath>
   <clipPath id="id10">
    <rect x="30160" y="30252" width="28362" height="14245"/>
   </clipPath>
   <clipPath id="id11">
    <rect x="33309" y="47488" width="26591" height="16756"/>
   </clipPath>
   <clipPath id="id12">
    <rect x="52533" y="47049" width="24338" height="18076"/>
   </clipPath>
   <clipPath id="id13">
    <rect x="70381" y="46945" width="25207" height="15646"/>
   </clipPath>
 </defs>
  <g id="map">
<symbol id="符号21" viewBox="49922 35663 156 156">
 <line class="fil0 str0" x1="49929" y1="35670" x2="50071" y2= "35813" />
 <line class="fil0 str0" x1="49929" y1="35813" x2="50071" y2= "35670" />
</symbol>
<symbol id="符号6" viewBox="49876 35618 247 247">
 <circle class="fil1 str0" cx="50000" cy="35741" r="114"/>
 <circle class="fil0 str0" cx="50000" cy="35741" r="43"/>
</symbol>
<symbol id="符号1" viewBox="49933 35640 135 203">
 <polygon class="fil2" points="49934,35843 49999,35640 50067,35843 49933,35843 "/>
</symbol>
<symbol id="符号3" viewBox="49922 35663 156 156">
 <rect class="fil1" x="49929" y="35670" width="143" height="143"/>
 <line class="fil0 str0" x1="49929" y1="35670" x2="50071" y2= "35813" />
 <line class="fil0 str0" x1="49929" y1="35813" x2="50071" y2= "35670" />
</symbol>
<symbol id="符号50" viewBox="49876 35618 247 247">
 <path class="fil1 str1" d="M50114 35741c0,-63 -51,-114 -114,-114 -63,0 -114,51 -114,114 0,63 51,114 114,114 63,0 114,-51 114,-114z"/>
 <circle class="fil3" cx="50000" cy="35741" r="29"/>
</symbol>
<symbol id="符号12" viewBox="49933 35640 135 203">
 <polygon class="fil2" points="49934,35843 49999,35640 50067,35843 49933,35843 "/>
</symbol>
<symbol id="符号14" viewBox="49876 35618 247 247">
 <path class="fil1 str1" d="M50114 35741c0,-63 -51,-114 -114,-114 -63,0 -114,51 -114,114 0,63 51,114 114,114 63,0 114,-51 114,-114z"/>
</symbol>
<symbol id="符号16" viewBox="49689 35430 623 623">
 <circle class="fil1 str2" cx="50000" cy="35741" r="304"/>
 <circle class="fil0 str2" cx="50000" cy="35741" r="114"/>
</symbol>
<symbol id="符号18" viewBox="49689 35430 623 623">
 <circle class="fil1 str2" cx="50000" cy="35741" r="304"/>
 <circle class="fil0 str2" cx="50000" cy="35741" r="114"/>
</symbol>
<symbol id="符号20" viewBox="49784 35525 433 433">
 <circle class="fil1 str2" cx="50000" cy="35741" r="209"/>
 <circle class="fil3 str2" cx="50000" cy="35741" r="124"/>
</symbol>
<symbol id="符号19" viewBox="49885 35626 230 230">
 <circle class="fil1 str2" cx="50000" cy="35741" r="108"/>
 <circle class="fil0 str2" cx="50000" cy="35741" r="38"/>
</symbol>
<symbol id="符号25" viewBox="49781 35523 437 437">
 <circle class="fil1 str0" cx="50000" cy="35741" r="209"/>
 <circle class="fil3 str0" cx="50000" cy="35741" r="124"/>
</symbol>
<symbol id="符号23" viewBox="49933 35640 135 203">
 <polygon class="fil4" points="49934,35843 49999,35640 50067,35843 49933,35843 "/>
</symbol>
<symbol id="符号8" viewBox="49858 35680 277 123">
 <polygon class="fil5" points="49961,35725 49962,35725 49965,35725 49968,35725 49973,35725 49979,35725 49985,35725 49993,35724 50000,35724 50008,35723 50017,35722 50025,35721 50033,35720 50040,35718 50047,35715 50053,35713 50058,35709 50063,35706 50068,35703 50072,35700 50077,35698 50082,35695 50086,35693 50091,35692 50096,35691 50100,35690 50105,35690 50110,35690 50115,35691 50119,35692 50124,35694 50134,35702 50135,35702 50133,35702 50130,35702 50127,35701 50123,35701 50118,35700 50113,35700 50108,35700 50102,35701 50096,35702 50090,35704 50084,35707 50079,35710 50073,35714 50068,35719 50060,35725 50052,35730 50043,35735 50035,35738 50027,35742 50019,35745 50011,35748 50004,35750 49998,35752 49991,35753 49981,35756 49978,35757 49973,35757 49970,35758 "/>
 <path class="fil5 str3" d="M49974 35741c0,-30 -24,-54 -54,-54 -30,0 -54,24 -54,54 0,30 24,54 54,54 30,0 54,-24 54,-54z"/>
</symbol>
<symbol id="符号2" viewBox="49967 35708 67 67">
 <path class="fil2 str4" d="M50024 35741c0,-13 -11,-24 -24,-24 -13,0 -24,11 -24,24 0,13 11,24 24,24 13,0 24,-11 24,-24z"/>
</symbol>
<symbol id="符号15" viewBox="49876 35618 247 247">
 <path class="fil1 str1" d="M50114 35741c0,-63 -51,-114 -114,-114 -63,0 -114,51 -114,114 0,63 51,114 114,114 63,0 114,-51 114,-114z"/>
</symbol>
<symbol id="符号13" viewBox="49885 35626 230 230">
 <circle class="fil1 str2" cx="50000" cy="35741" r="108"/>
 <circle class="fil0 str2" cx="50000" cy="35741" r="38"/>
</symbol>
<symbol id="符号7" viewBox="49819 35561 361 361">
 <circle class="fil1 str0" cx="50000" cy="35741" r="171"/>
 <circle class="fil3 str0" cx="50000" cy="35741" r="101"/>
</symbol>
<symbol id="符号24" viewBox="49876 35618 247 247">
 <circle class="fil1 str0" cx="50000" cy="35741" r="114"/>
 <circle class="fil0 str0" cx="50000" cy="35741" r="43"/>
</symbol>
<symbol id="符号10" viewBox="49967 35708 67 67">
 <path class="fil2 str4" d="M50024 35741c0,-13 -11,-24 -24,-24 -13,0 -24,11 -24,24 0,13 11,24 24,24 13,0 24,-11 24,-24z"/>
</symbol>
<symbol id="符号4" viewBox="49858 35680 277 123">
 <polygon class="fil5" points="49961,35725 49962,35725 49965,35725 49968,35725 49973,35725 49979,35725 49985,35725 49993,35724 50000,35724 50008,35723 50017,35722 50025,35721 50033,35720 50040,35718 50047,35715 50053,35713 50058,35709 50063,35706 50068,35703 50072,35700 50077,35698 50082,35695 50086,35693 50091,35692 50096,35691 50100,35690 50105,35690 50110,35690 50115,35691 50119,35692 50124,35694 50134,35702 50135,35702 50133,35702 50130,35702 50127,35701 50123,35701 50118,35700 50113,35700 50108,35700 50102,35701 50096,35702 50090,35704 50084,35707 50079,35710 50073,35714 50068,35719 50060,35725 50052,35730 50043,35735 50035,35738 50027,35742 50019,35745 50011,35748 50004,35750 49998,35752 49991,35753 49981,35756 49978,35757 49973,35757 49970,35758 "/>
 <path class="fil5 str3" d="M49974 35741c0,-30 -24,-54 -54,-54 -30,0 -54,24 -54,54 0,30 24,54 54,54 30,0 54,-24 54,-54z"/>
</symbol>
<symbol id="符号9" viewBox="49922 35663 156 156">
 <rect class="fil1" x="49929" y="35670" width="143" height="143"/>
 <line class="fil0 str0" x1="49929" y1="35670" x2="50071" y2= "35813" />
 <line class="fil0 str0" x1="49929" y1="35813" x2="50071" y2= "35670" />
</symbol>
<symbol id="符号22" viewBox="49967 35708 67 67">
 <path class="fil4 str5" d="M50024 35741c0,-13 -11,-24 -24,-24 -13,0 -24,11 -24,24 0,13 11,24 24,24 13,0 24,-11 24,-24z"/>
</symbol>
<symbol id="符号17" viewBox="49876 35618 247 247">
 <path class="fil1 str1" d="M50114 35741c0,-63 -51,-114 -114,-114 -63,0 -114,51 -114,114 0,63 51,114 114,114 63,0 114,-51 114,-114z"/>
</symbol>
<symbol id="符号11" viewBox="49784 35525 433 433">
 <circle class="fil1 str2" cx="50000" cy="35741" r="209"/>
 <circle class="fil3 str2" cx="50000" cy="35741" r="124"/>
</symbol>
<symbol id="符号5" viewBox="49876 35618 247 247">
 <use transform="scale(1 1.00008)" x="49876" y="35615" width="247" height="247" xlink:href="#符号50"/>
</symbol>
 <g id="底图图片">
  <metadata id="CorelCorpID_0Corel-Layer"/>
  <g style="clip-path:url(#id0)">
   <image id="底图.png" x="12344" y="15690" width="76007" height="41448" xlink:href="126-127土地沙漠化防治重大工程_ImgID1.png"/>
  </g>
 </g>
 <g id="cirs">
  <metadata id="CorelCorpID_1Corel-Layer"/>
  <circle id="cir2"  onclick="Showimg(2)" class="fil600 str6" transform="matrix(1.53873 -0.501365 0.673338 2.74819 20674 33414.3)" r="3087"/>
  <circle id="cir1"  onclick="Showimg(1)" class="fil600 str6" cx="18880" cy="31749" r="1065"/>
  <circle id="cir8" onclick="Showimg(8)" class="fil600 str6" cx="44107" cy="46502" r="2053"/>
  <ellipse id="cir9" onclick="Showimg(9)" class="fil600 str6" cx="44204" cy="51218" rx="5659" ry="2439"/>
  <circle id="cir11" onclick="Showimg(11)" class="fil600 str6" transform="matrix(0.72107 -0.0756193 0.0640893 0.431827 59801.7 46789.4)" r="3087"/>
  <circle id="cir10" onclick="Showimg(10)" class="fil600 str6" transform="matrix(0.765824 -0.327517 0.0708427 0.422849 58612.5 44949.3)" r="3087"/>
  <circle id="cir4" onclick="Showimg(4)" class="fil600 str6" cx="59277" cy="35165" r="1099"/>
  <circle id="cir5" onclick="Showimg(5)" class="fil600 str6" cx="61937" cy="36633" r="1099"/>
  <circle id="cir6" onclick="Showimg(6)" class="fil600 str6" cx="60987" cy="38186" r="710"/>
  <circle id="cir13" onclick="Showimg(13)" class="fil600 str6" cx="69853" cy="46341" r="782"/>
  <ellipse id="cir7" onclick="Showimg(7)" class="fil600 str6" cx="84489" cy="41473" rx="3120" ry="5834"/>
  <circle id="cir3" onclick="Showimg(3)" class="fil600 str6" cx="59423" cy="32244" r="1099"/>
  <circle id="cir12" onclick="Showimg(12)" class="fil600 str6" cx="67717" cy="47593" r="782"/>
 </g>
 <g id="图名">
  <metadata id="CorelCorpID_2Corel-Layer"/>
  <g transform="matrix(1.2 0 0 1 -30937.5 -24731.1)">
   <text x="50000" y="35741"  class="fil3 fnt0">土地沙漠化防治重大工程项目规划</text>
  </g>
  <text x="28171" y="11895"  class="fil3 fnt1">Major planning of aeolian desertification control projects</text>
  <text x="34197" y="13170"  class="fil3 fnt2">0</text>
  <g transform="matrix(1.05226 0 0 1 -16718.4 -22598.8)">
   <text x="50000" y="35741"  class="fil3 fnt2">50</text>
  </g>
  <text x="37666" y="13170"  class="fil3 fnt2">100</text>
  <rect class="fil7 str7" x="34181" y="13296" width="1901" height="152"/>
  <rect class="fil1 str7" x="36082" y="13296" width="1901" height="152"/>
  <text x="38447" y="13134"  class="fil3 fnt2">km</text>
  <g transform="matrix(1.2 0 0 1 -56030.8 -28823)">
   <text x="50000" y="35741"  class="fil3 fnt3">土地沙漠化防治重大工程</text>
  </g>
  <text x="3942" y="8068"  class="fil3 fnt4">Major Projects of Aeolian Desertification </text>
  <text x="3942" y="8967"  class="fil3 fnt4">Controlling Planning</text>
 </g>
 <g id="rect1"  style="visibility:hidden" >
  <metadata id="CorelCorpID_3Corel-Layer"/>
  <g style="clip-path:url(#id1)">
   <image id="rect1_0" x="3496" y="14389" width="15871" height="17304" xlink:href="126-127土地沙漠化防治重大工程_ImgID2.png"/>
  </g>
 </g>
 <g id="rect2"  style="visibility:hidden" >
  <metadata id="CorelCorpID_4Corel-Layer"/>
  <g style="clip-path:url(#id2)">
   <image id="rect2_1" x="24341" y="20689" width="20346" height="12104" xlink:href="126-127土地沙漠化防治重大工程_ImgID3.png"/>
  </g>
 </g>
 <g id="rect3"  style="visibility:hidden">
  <metadata id="CorelCorpID_5Corel-Layer"/>
  <g style="clip-path:url(#id3)">
   <image id="rect3_2"  x="59031" y="19142" width="16772" height="13247" xlink:href="126-127土地沙漠化防治重大工程_ImgID4.png"/>
  </g>
 </g>
 <g id="rect4"   style="visibility:hidden">
  <metadata id="CorelCorpID_6Corel-Layer"/>
  <g style="clip-path:url(#id4)">
   <image id="rect4_3"  x="54588" y="12645" width="16772" height="22084" xlink:href="126-127土地沙漠化防治重大工程_ImgID5.png"/>
  </g>
 </g>
 <g id="rect5"  style="visibility:hidden">
  <metadata id="CorelCorpID_7Corel-Layer"/>
  <g style="clip-path:url(#id5)">
   <image id="rect5_4"  x="61656" y="25113" width="20475" height="11718" xlink:href="126-127土地沙漠化防治重大工程_ImgID6.png"/>
  </g>
 </g>
 <g id="rect6"   style="visibility:hidden" >
  <metadata id="CorelCorpID_8Corel-Layer"/>
  <g style="clip-path:url(#id6)">
   <image id="rect6_5" x="60448" y="37035" width="19638" height="6632" xlink:href="126-127土地沙漠化防治重大工程_ImgID7.png"/>
  </g>
 </g>
 <g id="rect7" style="visibility:hidden">
  <metadata id="CorelCorpID_9Corel-Layer"/>
  <g style="clip-path:url(#id7)">
   <image id="rect7_6"   x="80875" y="21060" width="14809" height="19219" xlink:href="126-127土地沙漠化防治重大工程_ImgID8.png"/>
  </g>
 </g>
 <g id="rect8"  style="visibility:hidden">
  <metadata id="CorelCorpID_10Corel-Layer"/>
  <g style="clip-path:url(#id8)">
   <image id="rect8_7"  x="6677" y="46038" width="36168" height="7614" xlink:href="126-127土地沙漠化防治重大工程_ImgID9.png"/>
  </g>
 </g>
 <g id="rect9"  style="visibility:hidden">
  <metadata id="CorelCorpID_11Corel-Layer"/>
  <g style="clip-path:url(#id9)">
   <image id="rect9_8"  x="11257" y="50626" width="29424" height="11943" xlink:href="126-127土地沙漠化防治重大工程_ImgID10.png"/>
  </g>
 </g>
 <g id="rect10"  style="visibility:hidden">
  <metadata id="CorelCorpID_12Corel-Layer"/>
  <g style="clip-path:url(#id10)">
   <image id="rect10_9"  x="30160" y="30252" width="28362" height="14245" xlink:href="126-127土地沙漠化防治重大工程_ImgID11.png"/>
  </g>
 </g>
 <g id="rect11"  style="visibility:hidden">
  <metadata id="CorelCorpID_13Corel-Layer"/>
  <g style="clip-path:url(#id11)">
   <image id="rect11_10"  x="33309" y="47488" width="26591" height="16756" xlink:href="126-127土地沙漠化防治重大工程_ImgID12.png"/>
  </g>
 </g>
 <g id="rect12"  style="visibility:hidden">
  <metadata id="CorelCorpID_14Corel-Layer"/>
  <g style="clip-path:url(#id12)">
   <image id="rect12_11"  x="52533" y="47049" width="24338" height="18076" xlink:href="126-127土地沙漠化防治重大工程_ImgID13.png"/>
  </g>
 </g>
 <g id="rect13"  style="visibility:hidden">
  <metadata id="CorelCorpID_15Corel-Layer"/>
  <g style="clip-path:url(#id13)">
   <image id="rect13_12"  x="70381" y="46945" width="25207" height="15646" xlink:href="126-127土地沙漠化防治重大工程_ImgID14.png"/>
  </g>
 </g>
 <g id="infotip1">
  <metadata id="CorelCorpID_16Corel-Layer"/>
  <path class="fil6 str8" d="M17341 33299c0,0 -2,175 102,173 103,-2 3808,-4 3808,-4 0,0 80,6 81,-190 2,-196 1,-833 1,-833 0,0 7,-120 -144,-120 -151,0 -1775,4 -1775,4l-242 -378 -2 375 -773 2 -956 2c0,0 -100,14 -99,141 1,127 -2,829 -2,829z"/>
  <g transform="matrix(0.800903 0 0 1 -22549 -2679.19)">
   <text x="50000" y="35741"  class="fil8 fnt5">点</text>
   <text x="50516" y="35741"  class="fil8 fnt5">击</text>
   <text x="51033" y="35741"  class="fil8 fnt5">查</text>
   <text x="51549" y="35741"  class="fil8 fnt5">看</text>
   <text x="52066" y="35741"  class="fil8 fnt5">详</text>
   <text x="52582" y="35741"  class="fil8 fnt5">细</text>
   <text x="53098" y="35741"  class="fil8 fnt5">情</text>
   <text x="53615" y="35741"  class="fil8 fnt5">况</text>
  </g>
  <g transform="matrix(0.800903 0 0 1 -22549 -2679.19)">
  </g>
  <line class="fil0 str8" x1="21153" y1="32730" x2="20903" y2= "33092" />
  <line class="fil0 str8" x1="20903" y1="32730" x2="21153" y2= "33092" />
  <path id="close1"  onclick="closeinfotip(1)" class="fil9 str9" d="M20865 32567l326 0c41,0 74,33 74,74l0 539c0,41 -33,74 -74,74l-326 0c-41,0 -74,-33 -74,-74l0 -539c0,-41 33,-74 74,-74z"/>
 </g>
 <g id="infotip2">
  <metadata id="CorelCorpID_17Corel-Layer"/>
  <path class="fil6 str8" d="M20725 37372c0,0 -2,175 102,173 103,-2 3808,-4 3808,-4 0,0 80,6 81,-190 2,-196 1,-833 1,-833 0,0 7,-120 -144,-120 -151,0 -1775,4 -1775,4l-242 -378 -2 375 -773 2 -956 2c0,0 -100,14 -99,141 1,127 -2,829 -2,829z"/>
  <g transform="matrix(0.800903 0 0 1 -19234.5 1405.58)">
   <text x="50000" y="35741"  class="fil8 fnt5">点</text>
   <text x="50516" y="35741"  class="fil8 fnt5">击</text>
   <text x="51033" y="35741"  class="fil8 fnt5">查</text>
   <text x="51549" y="35741"  class="fil8 fnt5">看</text>
   <text x="52066" y="35741"  class="fil8 fnt5">详</text>
   <text x="52582" y="35741"  class="fil8 fnt5">细</text>
   <text x="53098" y="35741"  class="fil8 fnt5">情</text>
   <text x="53615" y="35741"  class="fil8 fnt5">况</text>
  </g>
  <g transform="matrix(0.800903 0 0 1 -19234.5 1405.58)">
  </g>
  <line class="fil0 str8" x1="24517" y1="36813" x2="24267" y2= "37175" />
  <line class="fil0 str8" x1="24267" y1="36813" x2="24517" y2= "37175" />
  <path id="close2"  onclick="closeinfotip(2)" class="fil9 str9" d="M24229 36650l326 0c41,0 74,33 74,74l0 539c0,41 -33,74 -74,74l-326 0c-41,0 -74,-33 -74,-74l0 -539c0,-41 33,-74 74,-74z"/>
 </g>
 <g id="infotip3">
  <metadata id="CorelCorpID_18Corel-Layer"/>
  <path class="fil6 str8" d="M57667 33601c0,0 -2,175 102,173 103,-2 3808,-4 3808,-4 0,0 80,6 81,-190 2,-196 1,-833 1,-833 0,0 7,-120 -144,-120 -151,0 -1775,4 -1775,4l-242 -378 -2 375 -773 2 -956 2c0,0 -100,14 -99,141 1,127 -2,829 -2,829z"/>
  <g transform="matrix(0.800903 0 0 1 17762.8 -2388.18)">
   <text x="50000" y="35741"  class="fil8 fnt5">点</text>
   <text x="50516" y="35741"  class="fil8 fnt5">击</text>
   <text x="51033" y="35741"  class="fil8 fnt5">查</text>
   <text x="51549" y="35741"  class="fil8 fnt5">看</text>
   <text x="52066" y="35741"  class="fil8 fnt5">详</text>
   <text x="52582" y="35741"  class="fil8 fnt5">细</text>
   <text x="53098" y="35741"  class="fil8 fnt5">情</text>
   <text x="53615" y="35741"  class="fil8 fnt5">况</text>
  </g>
  <g transform="matrix(0.800903 0 0 1 17762.8 -2388.18)">
  </g>
  <line class="fil0 str8" x1="61488" y1="33035" x2="61237" y2= "33397" />
  <line class="fil0 str8" x1="61237" y1="33035" x2="61488" y2= "33397" />
  <path id="close3"  onclick="closeinfotip(3)" class="fil9 str9" d="M61199 32872l326 0c41,0 74,33 74,74l0 539c0,41 -33,74 -74,74l-326 0c-41,0 -74,-33 -74,-74l0 -539c0,-41 33,-74 74,-74z"/>
 </g>
 <g id="infotip4">
  <metadata id="CorelCorpID_19Corel-Layer"/>
  <path class="fil6 str8" d="M57065 36902c0,0 -2,175 102,173 103,-2 3808,-4 3808,-4 0,0 80,6 81,-190 2,-196 1,-833 1,-833 0,0 7,-120 -144,-120 -151,0 -1775,4 -1775,4l-242 -378 -2 375 -773 2 -956 2c0,0 -100,14 -99,141 1,127 -2,829 -2,829z"/>
  <g transform="matrix(0.800903 0 0 1 17127.7 928.659)">
   <text x="50000" y="35741"  class="fil8 fnt5">点</text>
   <text x="50516" y="35741"  class="fil8 fnt5">击</text>
   <text x="51033" y="35741"  class="fil8 fnt5">查</text>
   <text x="51549" y="35741"  class="fil8 fnt5">看</text>
   <text x="52066" y="35741"  class="fil8 fnt5">详</text>
   <text x="52582" y="35741"  class="fil8 fnt5">细</text>
   <text x="53098" y="35741"  class="fil8 fnt5">情</text>
   <text x="53615" y="35741"  class="fil8 fnt5">况</text>
  </g>
  <g transform="matrix(0.800903 0 0 1 17127.7 928.659)">
  </g>
  <line class="fil0 str8" x1="60870" y1="36345" x2="60620" y2= "36707" />
  <line class="fil0 str8" x1="60620" y1="36345" x2="60870" y2= "36707" />
  <path id="close4"  onclick="closeinfotip(4)" class="fil9 str9" d="M60582 36182l326 0c41,0 74,33 74,74l0 539c0,41 -33,74 -74,74l-326 0c-41,0 -74,-33 -74,-74l0 -539c0,-41 33,-74 74,-74z"/>
 </g>
 <g id="infotip5">
  <metadata id="CorelCorpID_20Corel-Layer"/>
  <path class="fil6 str8" d="M59351 39917c0,0 -1,175 88,173 90,-2 3318,-4 3318,-4 0,0 70,6 71,-190 1,-196 1,-833 1,-833 0,0 6,-120 -126,-120 -132,0 -1546,4 -1546,4l-211 -378 -1 375 -673 2 -833 2c0,0 -87,14 -86,141 1,127 -2,829 -2,829z"/>
  <g transform="matrix(0.697835 0 0 1 24614 3921.55)">
   <text x="50000" y="35741"  class="fil8 fnt5">点</text>
   <text x="50516" y="35741"  class="fil8 fnt5">击</text>
   <text x="51033" y="35741"  class="fil8 fnt5">查</text>
   <text x="51549" y="35741"  class="fil8 fnt5">看</text>
   <text x="52066" y="35741"  class="fil8 fnt5">详</text>
   <text x="52582" y="35741"  class="fil8 fnt5">细</text>
   <text x="53098" y="35741"  class="fil8 fnt5">情</text>
   <text x="53615" y="35741"  class="fil8 fnt5">况</text>
  </g>
  <g transform="matrix(0.697835 0 0 1 24614 3921.55)">
  </g>
  <line class="fil0 str8" x1="62671" y1="39333" x2="62453" y2= "39696" />
  <line class="fil0 str8" x1="62453" y1="39333" x2="62671" y2= "39696" />
  <path id="close5"  onclick="closeinfotip(5)" class="fil9 str9" d="M62420 39171l284 0c36,0 65,29 65,65l0 558c0,36 -29,65 -65,65l-284 0c-36,0 -65,-29 -65,-65l0 -558c0,-36 29,-65 65,-65z"/>
 </g>
 <g id="infotip6">
  <metadata id="CorelCorpID_21Corel-Layer"/>
  <path class="fil6 str8" d="M42501 53978c0,0 -2,175 102,173 103,-2 3808,-4 3808,-4 0,0 80,6 81,-190 2,-196 1,-833 1,-833 0,0 7,-120 -144,-120 -151,0 -1775,4 -1775,4l-242 -378 -2 375 -773 2 -956 2c0,0 -100,14 -99,141 1,127 -2,829 -2,829z"/>
  <g transform="matrix(0.800903 0 0 1 2624.03 17999.8)">
   <text x="50000" y="35741"  class="fil8 fnt5">点</text>
   <text x="50516" y="35741"  class="fil8 fnt5">击</text>
   <text x="51033" y="35741"  class="fil8 fnt5">查</text>
   <text x="51549" y="35741"  class="fil8 fnt5">看</text>
   <text x="52066" y="35741"  class="fil8 fnt5">详</text>
   <text x="52582" y="35741"  class="fil8 fnt5">细</text>
   <text x="53098" y="35741"  class="fil8 fnt5">情</text>
   <text x="53615" y="35741"  class="fil8 fnt5">况</text>
  </g>
  <g transform="matrix(0.800903 0 0 1 2624.03 17999.8)">
  </g>
  <line class="fil0 str8" x1="46325" y1="53418" x2="46075" y2= "53781" />
  <line class="fil0 str8" x1="46075" y1="53418" x2="46325" y2= "53781" />
  <path id="close6"  onclick="closeinfotip(6)" class="fil9 str9" d="M46037 53256l326 0c41,0 74,33 74,74l0 539c0,41 -33,74 -74,74l-326 0c-41,0 -74,-33 -74,-74l0 -539c0,-41 33,-74 74,-74z"/>
 </g>
 <g id="infotip7">
  <metadata id="CorelCorpID_22Corel-Layer"/>
  <path class="fil6 str8" d="M42148 47809c0,0 -2,175 102,173 103,-2 3808,-4 3808,-4 0,0 80,6 81,-190 2,-196 1,-833 1,-833 0,0 7,-120 -144,-120 -151,0 -1775,4 -1775,4l-242 -378 -2 375 -773 2 -956 2c0,0 -100,14 -99,141 1,127 -2,829 -2,829z"/>
  <g transform="matrix(0.800903 0 0 1 2169.46 11837.7)">
   <text x="50000" y="35741"  class="fil8 fnt5">点</text>
   <text x="50516" y="35741"  class="fil8 fnt5">击</text>
   <text x="51033" y="35741"  class="fil8 fnt5">查</text>
   <text x="51549" y="35741"  class="fil8 fnt5">看</text>
   <text x="52066" y="35741"  class="fil8 fnt5">详</text>
   <text x="52582" y="35741"  class="fil8 fnt5">细</text>
   <text x="53098" y="35741"  class="fil8 fnt5">情</text>
   <text x="53615" y="35741"  class="fil8 fnt5">况</text>
  </g>
  <g transform="matrix(0.800903 0 0 1 2169.46 11837.7)">
  </g>
  <line class="fil0 str8" x1="45947" y1="47246" x2="45697" y2= "47609" />
  <line class="fil0 str8" x1="45697" y1="47246" x2="45947" y2= "47609" />
  <path id="close7"  onclick="closeinfotip(7)" class="fil9 str9" d="M45659 47084l326 0c41,0 74,33 74,74l0 539c0,41 -33,74 -74,74l-326 0c-41,0 -74,-33 -74,-74l0 -539c0,-41 33,-74 74,-74z"/>
 </g>
 <g id="infotip8">
  <metadata id="CorelCorpID_23Corel-Layer"/>
  <path class="fil6 str8" d="M82991 47125c0,0 -1,133 81,132 82,-2 3028,-3 3028,-3 0,0 63,5 65,-144 1,-149 1,-634 1,-634 0,0 6,-91 -115,-91 -120,0 -1411,3 -1411,3l-193 -288 -1 285 -614 1 -760 1c0,0 -79,11 -79,107 1,96 -2,630 -2,630z"/>
  <g transform="matrix(0.837363 0 0 1 41360.9 11203.4)">
   <text x="50000" y="35741"  class="fil8 fnt6">点</text>
   <text x="50344" y="35741"  class="fil8 fnt6">击</text>
   <text x="50687" y="35741"  class="fil8 fnt6">查</text>
   <text x="51031" y="35741"  class="fil8 fnt6">看</text>
   <text x="51374" y="35741"  class="fil8 fnt6">详</text>
   <text x="51718" y="35741"  class="fil8 fnt6">细</text>
   <text x="52061" y="35741"  class="fil8 fnt6">情</text>
   <text x="52405" y="35741"  class="fil8 fnt6">况</text>
  </g>
  <g transform="matrix(0.837363 0 0 1 41360.9 11203.4)">
  </g>
  <line class="fil0 str8" x1="85941" y1="46699" x2="85742" y2= "46975" />
  <line class="fil0 str8" x1="85742" y1="46699" x2="85941" y2= "46975" />
  <path id="close8"  onclick="closeinfotip(8)" class="fil9 str9" d="M85712 46576l259 0c32,0 59,27 59,59l0 405c0,32 -27,59 -59,59l-259 0c-32,0 -59,-27 -59,-59l0 -405c0,-32 27,-59 59,-59z"/>
 </g>
 <g id="infotip9">
  <metadata id="CorelCorpID_24Corel-Layer"/>
  <path class="fil6 str8" d="M65522 49183c0,0 -2,175 102,173 103,-2 3808,-4 3808,-4 0,0 80,6 81,-190 2,-196 1,-833 1,-833 0,0 7,-120 -144,-120 -151,0 -1775,4 -1775,4l-242 -378 -2 375 -773 2 -956 2c0,0 -100,14 -99,141 1,127 -2,829 -2,829z"/>
  <g transform="matrix(0.800903 0 0 1 25591 13183.2)">
   <text x="50000" y="35741"  class="fil8 fnt5">点</text>
   <text x="50516" y="35741"  class="fil8 fnt5">击</text>
   <text x="51033" y="35741"  class="fil8 fnt5">查</text>
   <text x="51549" y="35741"  class="fil8 fnt5">看</text>
   <text x="52066" y="35741"  class="fil8 fnt5">详</text>
   <text x="52582" y="35741"  class="fil8 fnt5">细</text>
   <text x="53098" y="35741"  class="fil8 fnt5">情</text>
   <text x="53615" y="35741"  class="fil8 fnt5">况</text>
  </g>
  <g transform="matrix(0.800903 0 0 1 25591 13183.2)">
  </g>
  <line class="fil0 str8" x1="69325" y1="48624" x2="69074" y2= "48987" />
  <line class="fil0 str8" x1="69074" y1="48624" x2="69325" y2= "48987" />
  <path id="close9"  onclick="closeinfotip(9)" class="fil9 str9" d="M69036 48462l326 0c41,0 74,33 74,74l0 539c0,41 -33,74 -74,74l-326 0c-41,0 -74,-33 -74,-74l0 -539c0,-41 33,-74 74,-74z"/>
 </g>
 <g id="infotip10">
  <metadata id="CorelCorpID_25Corel-Layer"/>
  <path class="fil6 str8" d="M58740 49174c0,0 -2,175 102,173 103,-2 3808,-4 3808,-4 0,0 80,6 81,-190 2,-196 1,-833 1,-833 0,0 7,-120 -144,-120 -151,0 -1775,4 -1775,4l-242 -378 -2 375 -773 2 -956 2c0,0 -100,14 -99,141 1,127 -2,829 -2,829z"/>
  <g transform="matrix(0.800903 0 0 1 18844.3 13205.2)">
   <text x="50000" y="35741"  class="fil8 fnt5">点</text>
   <text x="50516" y="35741"  class="fil8 fnt5">击</text>
   <text x="51033" y="35741"  class="fil8 fnt5">查</text>
   <text x="51549" y="35741"  class="fil8 fnt5">看</text>
   <text x="52066" y="35741"  class="fil8 fnt5">详</text>
   <text x="52582" y="35741"  class="fil8 fnt5">细</text>
   <text x="53098" y="35741"  class="fil8 fnt5">情</text>
   <text x="53615" y="35741"  class="fil8 fnt5">况</text>
  </g>
  <g transform="matrix(0.800903 0 0 1 18844.3 13205.2)">
  </g>
  <line class="fil0 str8" x1="62558" y1="48611" x2="62307" y2= "48974" />
  <line class="fil0 str8" x1="62307" y1="48611" x2="62558" y2= "48974" />
  <path id="close10"  onclick="closeinfotip(10)" class="fil9 str9" d="M62269 48449l326 0c41,0 74,33 74,74l0 539c0,41 -33,74 -74,74l-326 0c-41,0 -74,-33 -74,-74l0 -539c0,-41 33,-74 74,-74z"/>
 </g>
 <g id="infotip11">
  <metadata id="CorelCorpID_26Corel-Layer"/>
  <path class="fil6 str8" d="M61004 37775c0,0 -2,175 102,173 103,-2 3808,-4 3808,-4 0,0 80,6 81,-190 2,-196 1,-833 1,-833 0,0 7,-120 -144,-120 -151,0 -1775,4 -1775,4l-242 -378 -2 375 -773 2 -956 2c0,0 -100,14 -99,141 1,127 -2,829 -2,829z"/>
  <g transform="matrix(0.800903 0 0 1 21076 1790.73)">
   <text x="50000" y="35741"  class="fil8 fnt5">点</text>
   <text x="50516" y="35741"  class="fil8 fnt5">击</text>
   <text x="51033" y="35741"  class="fil8 fnt5">查</text>
   <text x="51549" y="35741"  class="fil8 fnt5">看</text>
   <text x="52066" y="35741"  class="fil8 fnt5">详</text>
   <text x="52582" y="35741"  class="fil8 fnt5">细</text>
   <text x="53098" y="35741"  class="fil8 fnt5">情</text>
   <text x="53615" y="35741"  class="fil8 fnt5">况</text>
  </g>
  <g transform="matrix(0.800903 0 0 1 21076 1790.73)">
  </g>
  <line class="fil0 str8" x1="64815" y1="37209" x2="64565" y2= "37572" />
  <line class="fil0 str8" x1="64565" y1="37209" x2="64815" y2= "37572" />
  <path id="close11"  onclick="closeinfotip(11)" class="fil9 str9" d="M64527 37047l326 0c41,0 74,33 74,74l0 539c0,41 -33,74 -74,74l-326 0c-41,0 -74,-33 -74,-74l0 -539c0,-41 33,-74 74,-74z"/>
 </g>
 <g id="infotip12">
  <metadata id="CorelCorpID_27Corel-Layer"/>
  <path class="fil6 str8" d="M68675 47999c0,0 -2,175 102,173 103,-2 3808,-4 3808,-4 0,0 80,6 81,-190 2,-196 1,-833 1,-833 0,0 7,-120 -144,-120 -151,0 -1775,4 -1775,4l-242 -378 -2 375 -773 2 -956 2c0,0 -100,14 -99,141 1,127 -2,829 -2,829z"/>
  <g transform="matrix(0.800903 0 0 1 28806.9 12045.1)">
   <text x="50000" y="35741"  class="fil8 fnt5">点</text>
   <text x="50516" y="35741"  class="fil8 fnt5">击</text>
   <text x="51033" y="35741"  class="fil8 fnt5">查</text>
   <text x="51549" y="35741"  class="fil8 fnt5">看</text>
   <text x="52066" y="35741"  class="fil8 fnt5">详</text>
   <text x="52582" y="35741"  class="fil8 fnt5">细</text>
   <text x="53098" y="35741"  class="fil8 fnt5">情</text>
   <text x="53615" y="35741"  class="fil8 fnt5">况</text>
  </g>
  <g transform="matrix(0.800903 0 0 1 28806.9 12045.1)">
  </g>
  <line class="fil0 str8" x1="72485" y1="47430" x2="72235" y2= "47793" />
  <line class="fil0 str8" x1="72235" y1="47430" x2="72485" y2= "47793" />
  <path id="close12"  onclick="closeinfotip(12)" class="fil9 str9" d="M72197 47268l326 0c41,0 74,33 74,74l0 539c0,41 -33,74 -74,74l-326 0c-41,0 -74,-33 -74,-74l0 -539c0,-41 33,-74 74,-74z"/>
 </g>
 <g id="infotip13">
  <metadata id="CorelCorpID_28Corel-Layer"/>
  <path class="fil6 str8" d="M61202 42598c0,0 2,-175 -102,-173 -103,2 -3808,4 -3808,4 0,0 -80,-6 -81,190 -2,196 -1,833 -1,833 0,0 -7,120 144,120 151,0 1775,-4 1775,-4l242 378 2 -375 773 -2 956 -2c0,0 100,-14 99,-141 -1,-127 2,-829 2,-829z"/>
  <g transform="matrix(0.800903 0 0 1 17775.5 7408.56)">
   <text x="50000" y="35741"  class="fil8 fnt5">点</text>
   <text x="50516" y="35741"  class="fil8 fnt5">击</text>
   <text x="51033" y="35741"  class="fil8 fnt5">查</text>
   <text x="51549" y="35741"  class="fil8 fnt5">看</text>
   <text x="52066" y="35741"  class="fil8 fnt5">详</text>
   <text x="52582" y="35741"  class="fil8 fnt5">细</text>
   <text x="53098" y="35741"  class="fil8 fnt5">情</text>
   <text x="53615" y="35741"  class="fil8 fnt5">况</text>
  </g>
  <g transform="matrix(0.800903 0 0 1 17775.5 7408.56)">
  </g>
  <line class="fil0 str8" x1="57416" y1="43157" x2="57667" y2= "42794" />
  <line class="fil0 str8" x1="57667" y1="43157" x2="57416" y2= "42794" />
  <path id="close13"  onclick="closeinfotip(13)" class="fil9 str9" d="M57705 43319l-326 0c-41,0 -74,-33 -74,-74l0 -539c0,-41 33,-74 74,-74l326 0c41,0 74,33 74,74l0 539c0,41 -33,74 -74,74z"/>
 </g>
 </g>
</svg>
