<?xml version="1.0" encoding="UTF-8"?>
<!DOCTYPE svg PUBLIC "-//W3C//DTD SVG 1.1//EN" "http://www.w3.org/Graphics/SVG/1.1/DTD/svg11.dtd">
<!-- Creator: CorelDRAW X6 -->
<svg  onload="Init(evt)" x="0px" y="0px" xmlns="http://www.w3.org/2000/svg" xml:space="preserve" width="1000px" height="500px" version="1.1" style="shape-rendering:geometricPrecision; text-rendering:geometricPrecision; image-rendering:optimizeQuality; fill-rule:evenodd; clip-rule:evenodd"
viewBox="0 0 100000 50000"

 xmlns:xlink="http://www.w3.org/1999/xlink">
 <script  xlink:href="../js/Map.js"></script>
 <defs>
  <style type="text/css">
   <![CDATA[
    .str10 {stroke:#00A2E9;stroke-width:25.4}
    .str0 {stroke:#332C2B;stroke-width:25.4}
    .str9 {stroke:#00A2E9;stroke-width:33.3333}
    .str11 {stroke:#00A2E9;stroke-width:33.3333;stroke-linecap:round;stroke-linejoin:round}
    .str2 {stroke:#FEFEFE;stroke-width:33.3333}
    .str19 {stroke:#332C2B;stroke-width:33.3333}
    .str1 {stroke:#332C2B;stroke-width:33.3333;stroke-linejoin:round}
    .str8 {stroke:#00A2E9;stroke-width:41.6667}
    .str7 {stroke:#00A2E9;stroke-width:50}
    .str18 {stroke:#332C2B;stroke-width:50;stroke-linecap:round;stroke-linejoin:round}
    .str6 {stroke:#00A2E9;stroke-width:58.3333}
    .str5 {stroke:#00A2E9;stroke-width:66.6667}
    .str20 {stroke:#FEFEFE;stroke-width:66.6667}
    .str12 {stroke:#C38A0D;stroke-width:66.6667;stroke-linecap:round;stroke-linejoin:round}
    .str13 {stroke:#E62129;stroke-width:66.6667;stroke-linecap:round;stroke-linejoin:round}
    .str3 {stroke:#00A2E9;stroke-width:75}
    .str4 {stroke:#00A2E9;stroke-width:83.3333}
    .str15 {stroke:#FFF582;stroke-width:100}
    .str16 {stroke:#332C2B;stroke-width:116.667}
    .str14 {stroke:#E62129;stroke-width:166.667}
    .str17 {stroke:#FEFEFE;stroke-width:66.6667;stroke-dasharray:666.666667 666.666667}
    .fil2 {fill:none}
    .fil1 {fill:#332C2B}
    .fil0 {fill:#FEFEFE}
    .fil3 {fill:#00A2E9}
    .fil4 {fill:#93AC33}
    .fil5 {fill:#BC6947}
    .fnt1 {font-weight:normal;font-size:587.967px;font-family:'Times New Roman'}
    .fnt7 {font-weight:normal;font-size:800px;font-family:'方正书宋简体'}
    .fnt0 {font-weight:normal;font-size:823.133px;font-family:'方正书宋简体'}
    .fnt4 {font-weight:normal;font-size:940.733px;font-family:'方正细等线简体'}
    .fnt3 {font-weight:normal;font-size:970.1px;font-family:'宋体'}
    .fnt6 {font-weight:normal;font-size:1058.3px;font-family:'方正细等线简体'}
    .fnt10 {font-weight:normal;font-size:1234.73px;font-family:'Arial'}
    .fnt2 {font-weight:normal;font-size:1322.9px;font-family:'宋体'}
    .fnt5 {font-weight:normal;font-size:1500px;font-family:'黑体'}
    .fnt9 {font-weight:normal;font-size:1528.7px;font-family:'黑体'}
    .fnt8 {font-weight:normal;font-size:294px;font-family:'方正书宋简体';baseline-shift:super}
   ]]>
  </style>
   <clipPath id="id0">
    <rect x="11450" y="15232" width="80105" height="29164"/>
   </clipPath>
 </defs>
  <g id="map">
<symbol id="符号11" viewBox="49621 24621 759 759">
 <circle class="fil0 str0" cx="50000" cy="25000" r="367"/>
 <circle class="fil1 str0" cx="50000" cy="25000" r="217"/>
</symbol>
<symbol id="符号2" viewBox="49621 24621 759 759">
 <circle class="fil0 str0" cx="50000" cy="25000" r="367"/>
 <circle class="fil1 str0" cx="50000" cy="25000" r="217"/>
</symbol>
<symbol id="符号4" viewBox="49787 24787 425 425">
 <circle class="fil0 str0" cx="50000" cy="25000" r="200"/>
 <circle class="fil2 str0" cx="50000" cy="25000" r="75"/>
</symbol>
<symbol id="符号14" viewBox="49783 24783 433 433">
 <path class="fil0 str1" d="M50200 25000c0,-110 -90,-200 -200,-200 -110,0 -200,90 -200,200 0,110 90,200 200,200 110,0 200,-89 200,-200z"/>
</symbol>
<symbol id="符号13" viewBox="49737 24737 525 525">
 <circle class="fil0 str0" cx="50000" cy="25000" r="250"/>
 <circle class="fil2 str0" cx="50000" cy="25000" r="94"/>
</symbol>
<symbol id="符号3" viewBox="49787 24787 425 425">
 <circle class="fil0 str0" cx="50000" cy="25000" r="200"/>
 <circle class="fil2 str0" cx="50000" cy="25000" r="75"/>
</symbol>
<symbol id="符号1" viewBox="49787 24787 425 425">
 <circle class="fil0 str0" cx="50000" cy="25000" r="200"/>
 <circle class="fil2 str0" cx="50000" cy="25000" r="75"/>
</symbol>
 <g id="防治规划">
  <metadata id="CorelCorpID_0Corel-Layer"/>
  <rect class="fil2 str2" x="12978" y="15126" width="77051" height="26109"/>
  <g style="clip-path:url(#id0)">
   <image x="11450" y="15232" width="80105" height="29164" xlink:href="132-133沙漠化土地整治面积_ImgID1.png"/>
  </g>
 </g>
 <g id="图例">
  <metadata id="CorelCorpID_1Corel-Layer"/>
  <text x="76320" y="35395"  class="fil1 fnt0">规划整治面积(平方千米)</text>
  <text x="83538" y="39036"  class="fil1 fnt1">“Eighth five-year planning”project </text>
  <text x="83538" y="40888"  class="fil1 fnt1">“Ninth five-year planning” project</text>
 </g>
 <g id="沙漠化整治利用规划">
  <metadata id="CorelCorpID_2Corel-Layer"/>
  <path class="fil2 str3" d="M13940 28896c132,240 733,637 1286,589 553,-48 421,-228 721,-48 300,180 240,276 288,445 48,168 457,384 853,276 396,-108 673,-529 925,-348 252,180 901,493 1249,505 348,12 1093,48 1394,-36 300,-84 421,-252 673,-180 252,72 721,-60 1009,-120 288,-60 372,-36 553,84 180,120 649,-360 865,-96 216,264 348,276 745,240 396,-36 553,-180 817,-72 264,108 1249,192 1550,288 300,96 553,-48 925,-24 372,24 613,24 913,276 300,252 805,348 1249,348 445,0 1273,-12 1598,36 0,0 264,-36 396,96 132,132 937,-216 973,-493 36,-276 -144,-481 156,-709 300,-228 324,-721 829,-841 505,-120 745,-72 1081,-240 336,-168 156,-360 457,-264 300,96 1069,108 1177,312 108,204 96,204 300,192 204,-12 96,24 288,-156 192,-180 372,-288 769,-48 396,240 601,457 913,336 312,-120 469,-529 817,-360 348,168 469,300 613,96 144,-204 529,-60 721,60 0,0 0,144 324,60 324,-84 601,-336 757,-180 156,156 396,396 853,240 0,0 96,96 324,-144 228,-240 372,-372 481,-204 108,168 -48,360 889,408 0,0 505,-84 565,-276 0,0 -12,-324 300,-312 312,12 1394,60 1610,192 216,132 348,312 613,168 264,-144 72,-192 577,-192 505,0 637,-108 985,180 348,288 24,457 697,348 673,-108 1165,-156 1550,-360 384,-204 637,-180 973,-144 336,36 1141,-24 1550,192 408,216 997,913 1298,817 300,-96 1165,-12 1406,-288 240,-276 601,-804 817,-685 13,7 397,26 313,142 -113,156 -111,405 21,483 74,43 255,-95 348,-80 99,15 260,-376 375,-360 113,16 234,-40 361,-18 116,20 227,274 353,290 165,21 349,-26 528,-12 120,9 200,-143 326,-135 124,8 251,-176 380,-167 288,21 576,66 883,134 190,43 381,257 580,271 155,11 289,-96 446,-85 212,14 437,-35 651,-21 148,10 318,170 466,178 142,9 304,-175 445,-167 122,7 638,68 757,76 124,7 268,79 388,86 382,22 755,-134 1047,-126 81,2 160,21 237,32 127,18 205,-145 320,-124 125,22 158,67 268,92 215,49 326,-46 475,17 272,115 518,226 540,204"/>
  <path class="fil2 str4" d="M68101 29609c0,0 250,-451 500,-471 250,-20 340,-20 490,10 150,30 210,281 460,331 250,50 1209,321 1389,200 180,-120 140,-331 360,-351 220,-20 400,-70 600,220 200,291 360,631 310,772 -50,140 460,581 669,431 210,-150 390,-421 679,-261 290,160 180,431 440,491 260,60 560,60 809,-30 250,-90 340,-60 500,80 160,140 1079,240 1239,100 160,-140 210,-411 350,-581 140,-170 180,-451 330,-120 150,331 160,551 130,711 0,0 -110,301 270,361 380,60 769,170 939,-30 170,-200 470,-551 789,-942 320,-391 370,-651 619,-671 250,-20 640,-20 929,-30 290,-10 270,90 360,200 90,110 450,230 709,130 260,-100 130,-261 480,-220 350,40 959,231 959,-20 0,-251 -90,-240 370,-381 460,-140 1129,-251 1389,-190 260,60 310,120 610,-150 300,-271 540,-731 819,-772 280,-40 430,-10 669,-381 240,-371 719,-1102 929,-1112 210,-10 330,90 440,-70 0,0 -90,-251 340,-251 430,0 799,0 929,180"/>
  <path class="fil2 str5" d="M60468 26025c0,0 -417,-18 -544,218 -127,236 145,852 -308,889 -453,36 -272,363 -308,562 -36,200 -218,816 -580,907 -363,91 -816,54 -834,345"/>
  <path class="fil2 str6" d="M65837 23812c-472,308 -1197,816 -1469,599 -272,-218 -671,-109 -1106,308 0,0 -109,91 -109,345 0,254 163,562 -472,599 0,0 -1161,109 -1324,272 -163,163 -562,181 -889,91"/>
  <path class="fil2 str7" d="M70480 15686c-308,-54 -272,-181 -526,-326 -254,-145 -508,-290 -562,54 -54,345 -91,816 236,1088 326,272 472,327 580,689 109,363 -73,562 73,834 0,0 163,236 -308,218 -472,-18 -580,-36 -961,163 -381,200 -671,163 -1215,145 -544,-18 -1016,109 -1306,36 -290,-73 -381,-91 -689,36 -308,127 -417,200 -472,381 -54,181 -326,707 -689,744 -363,36 -345,-127 -707,-54 -363,73 -1143,363 -1252,707 -109,345 -435,617 -73,871 363,254 925,726 1197,707 272,-18 272,-163 961,54 689,218 871,-254 1270,0 0,0 798,435 780,816 -18,381 -508,653 -979,961"/>
  <path class="fil2 str6" d="M87236 25607c239,131 549,257 482,424 -67,167 -383,370 -243,636 140,266 230,402 608,307"/>
  <path class="fil2 str7" d="M70881 23292c275,-5 630,18 882,167 252,149 184,126 482,167 297,41 743,59 1049,-117 306,-176 927,-654 1098,-686 171,-32 266,-154 293,-384 27,-230 94,-460 378,-411 284,50 401,95 540,162 140,68 279,36 392,18 113,-18 266,-27 450,86 184,113 -5,-104 342,316 347,420 549,686 792,686 243,0 477,27 590,-32 113,-59 90,-172 311,-135 221,36 486,-36 576,108 90,144 32,95 248,36 216,-59 675,-63 936,-126 261,-63 311,-153 491,59 180,212 464,366 729,411 266,45 252,-77 531,135 279,212 423,316 824,298 401,-18 684,-158 869,-36 185,122 666,519 900,487 234,-32 342,-14 473,-117 131,-104 266,-230 684,-171 419,59 351,-81 603,171 252,253 473,474 491,618 18,144 167,474 405,605"/>
  <path class="fil2 str6" d="M44495 30395c-452,106 -798,293 -1144,40 -346,-253 -545,-532 -545,-745 0,-213 -13,-505 199,-505"/>
  <path class="fil2 str7" d="M50625 35660c120,-160 532,-957 293,-1050 -239,-93 -465,-173 -465,-386 0,-213 279,-638 13,-665 -266,-27 -359,80 -878,27 -519,-53 -386,133 -891,-279 -505,-412 -1064,-1556 -1689,-1769 -625,-213 -1090,-160 -1277,-426 -186,-266 -53,-293 -439,-492 -386,-199 -346,-332 -798,-226"/>
  <path class="fil2 str8" d="M51141 38211c24,-237 -169,-771 -251,-969 -93,-226 -386,-1423 -266,-1582"/>
  <path class="fil2 str9" d="M52048 38665c-266,27 -731,173 -864,40 0,0 -173,-253 -67,-412 13,-20 21,-48 25,-82"/>
  <path class="fil2 str6" d="M44362 27868c-133,239 -266,1277 293,1356"/>
  <path class="fil2 str7" d="M42117 22509c359,-13 955,-266 1208,53 253,319 359,997 558,997 199,0 1489,705 1582,997 93,293 293,1183 -226,1210 -519,27 -678,-40 -864,133 -186,173 -439,399 -319,691 120,293 439,1037 306,1277"/>
  <path class="fil2 str8" d="M40891 22270c372,120 866,253 1225,239"/>
  <path class="fil2 str9" d="M39788 22802c386,-13 479,-40 572,-279 93,-239 160,-372 532,-253"/>
  <path class="fil2 str6" d="M32925 26254c-109,372 -292,668 -8,1314 284,646 207,690 633,712"/>
  <path class="fil2 str7" d="M36530 20299c-66,120 98,416 -175,536 -273,120 -459,274 -546,109 -87,-164 -131,-274 -426,-230 -295,44 -611,197 -928,99 -317,-99 -251,-153 -633,-11 -382,142 -448,142 -360,383 87,241 262,668 44,679 -218,11 -775,-186 -928,-241 -153,-55 -579,120 -568,285 11,164 382,285 546,679 164,394 262,263 142,799 -120,536 -437,799 -218,1084 218,285 491,460 491,898 0,438 63,514 -46,887"/>
  <path class="fil2 str3" d="M32000 28529c340,-171 189,-379 888,-322 699,57 586,133 945,0 359,-133 302,-171 813,38 510,209 964,398 964,398"/>
  <path class="fil2 str5" d="M30129 28453c662,190 1531,246 1871,76"/>
  <path class="fil2 str7" d="M15345 25454c113,265 250,422 836,611 586,190 1077,190 1323,777 246,588 227,607 813,607 586,0 2211,-57 2400,-209 189,-152 794,-360 1021,-209 227,152 -38,152 435,246 473,95 680,-190 907,-76 227,114 1077,-57 1418,227 340,284 945,379 1285,246 340,-133 284,-436 718,-246 435,190 302,190 359,436 57,246 95,133 359,19 265,-114 1172,-19 1342,265 170,284 435,512 945,474 510,-38 -38,-360 624,-171"/>
  <path class="fil2 str8" d="M14971 24871c340,171 260,318 374,583"/>
  <path class="fil2 str9" d="M14833 24419c-30,185 -16,375 138,452"/>
  <path class="fil2 str10" d="M14971 23980c0,0 -102,215 -138,438"/>
  <g id="_357474368">
   <polygon class="fil2 str11" points="58383,29317 58415,29266 58456,29209 58485,29168 58523,29136 58523,29162 58485,29222 58447,29279 58425,29330 58393,29368 58352,29380 58323,29406 58292,29412 58269,29409 58263,29384 58288,29364 58326,29349 58358,29336 58377,29320 "/>
  </g>
  <path class="fil2 str6" d="M68188 30468c-17,-311 -69,-898 -69,-898"/>
  <path class="fil2 str7" d="M68931 31470c-259,-190 -725,-691 -742,-1001"/>
  <path class="fil2 str8" d="M70484 34496c-259,-86 -414,-350 -293,-627 121,-276 190,-311 -52,-414 -242,-104 -380,-104 -501,-35 -121,69 -656,17 -708,-104 -52,-121 0,-535 -121,-621 -121,-86 -104,-190 69,-363 173,-173 311,-673 52,-863"/>
  <polyline class="fil2 str12" points="65593,24313 65628,24202 65712,24129 65854,24010 66020,23887 66684,23330 66841,23204 66895,23100 66941,22977 66968,22866 67010,22770 67060,22747 67148,22720 67271,22708 67348,22689 67425,22697 67501,22735 67624,22770 67686,22724 67759,22674 67897,22628 67943,22597 67985,22513 68023,22390 68077,22294 68143,22240 68196,22221 68277,22228 68377,22175 68461,22121 68519,22086 68603,22040 68699,21994 68761,21948 68811,21833 68868,21718 68903,21668 68991,21633 69083,21583 69141,21537 69221,21530 69439,21530 69611,21616 "/>
  <polyline class="fil2 str12" points="66152,29807 66205,29931 66209,30059 66200,30183 66247,30307 66314,30422 66414,30555 66492,30713 66579,30787 66679,30850 66754,30899 66816,30999 66878,31149 66928,31286 66941,31472 66941,31597 66965,31697 67015,31796 67102,31884 67177,32033 67252,32170 67289,32295 67327,32432 67364,32544 67444,32671 67544,32748 67630,32848 67716,32962 67797,33077 67906,33181 68064,33277 68221,33358 68373,33405 68450,33425 68521,33472 68564,33563 68593,33644 68631,33715 68664,33749 68731,33796 68793,33830 68874,33830 68960,33839 69055,33868 69141,33939 69246,34059 69308,34154 69370,34259 69484,34392 69546,34459 69594,34530 69627,34597 69656,34669 69665,34740 69751,34907 69856,35155 69894,35303 69884,35417 69913,35608 69961,35765 70013,35903 70085,35999 70175,36127 70251,36223 70318,36351 70390,36470 70423,36556 70452,36652 70461,36785 70409,36966 70341,37103 70254,37128 70155,37128 70055,37153 69943,37166 69843,37191 69756,37233 69608,37285 69393,37409 69203,37443 69098,37438 68936,37510 68836,37548 68772,37664 68759,37789 68734,37888 68697,37950 68585,37976 68485,37976 68423,37976 68361,38013 68298,38100 68249,38175 68186,38212 68099,38287 68037,38387 68024,38499 68012,38586 67962,38661 67887,38748 67800,38785 67713,38848 67682,38911 67730,39001 67773,39078 67792,39135 67816,39254 67820,39349 67844,39430 67873,39483 67916,39550 67940,39654 67911,39702 67825,39745 67778,39826 67754,39898 67739,40026 67673,40112 67677,40169 67730,40255 67787,40384 67878,40479 67916,40570 67940,40665 67949,40741 67949,40813 67963,40908 67959,41018 67963,41094 "/>
  <polyline class="fil2 str12" points="55748,21968 55605,22011 55483,22125 55367,22207 55278,22261 55216,22324 55150,22418 55113,22503 55111,22594 55079,22685 55031,22762 54977,22858 54985,22932 54948,22981 54863,23006 54769,22981 54656,22989 54556,23015 54434,23043 54314,23100 54129,23262 53970,23373 53854,23427 53737,23456 53598,23439 53470,23407 53356,23439 53185,23501 52995,23581 52889,23609 52798,23672 52762,23760 52699,23862 52634,23973 52617,24044 52619,24118 52617,24144 52537,24192 52463,24215 52398,24269 52329,24323 52150,24440 52079,24502 52025,24573 52002,24670 51974,24741 51908,24798 51826,24815 51732,24883 51667,24969 51541,25190 51513,25301 51473,25415 51459,25583 51433,25614 51328,25572 51277,25486 51226,25421 51121,25435 51004,25455 50953,25449 50848,25415 50794,25370 50657,25259 50592,25193 50549,25168 50509,25219 50438,25193 50339,25190 50307,25245 50310,25335 50293,25390 50171,25475 50063,25560 49949,25628 49860,25694 49788,25723 49684,25776 49622,25796 49530,25809 49443,25881 49386,25953 49357,26082 49286,26226 49167,26311 49002,26462 48898,26541 48797,26599 48697,26656 48654,26728 48668,26814 48697,26929 48697,27029 48697,27144 48683,27274 48711,27388 48754,27532 48783,27661 48797,27848 48797,27948 48783,28049 48797,28207 48797,28307 48797,28379 48726,28451 48683,28494 48668,28566 48697,28666 48697,28824 48683,29039 "/>
  <polyline class="fil2 str12" points="62628,25801 62582,25429 62737,25412 62938,25352 62998,25312 63058,25186 63059,25080 63059,24975 63094,24835 63152,24707 63179,24479 63135,24319 63033,24174 62887,24101 62596,23934 62361,23869 62186,23810 62070,23764 61942,23741 61767,23682 61592,23682 61534,23659 61534,23613 61592,23554 61640,23446 61691,23326 61811,23114 61912,22602 61867,22405 61887,22290 61892,22144 61887,21958 61882,21878 61927,21807 61912,21762 61781,21717 61716,21686 61696,21616 61630,21490 61620,21355 61645,21239 61701,21179 61872,21138 61988,21133 62151,21098 62277,20993 62284,20886 62337,20807 62326,20713 62268,20620 62221,20492 62163,20434 62058,20364 61953,20306 61848,20259 61732,20248 61627,20236 61534,20224 61429,20236 61289,20213 61126,20201 60975,20190 60777,20096 60637,19991 60521,19910 60416,19828 60311,19700 60218,19607 60079,19596 59985,19561 59869,19537 59753,19503 59648,19468 59531,19433 59415,19409 59345,19328 59287,19258 59240,19130 59220,19007 "/>
  <polyline class="fil2 str13" points="66041,24420 66012,24813 66012,24914 66041,25014 66084,25143 66127,25243 66098,25372 66141,25501 66242,25530 66313,25588 66342,25716 66356,25831 66371,25932 66385,26018 66399,26204 66342,26319 66328,26433 66285,26562 66256,26720 66226,26797 66158,26826 66132,26898 66199,26949 66285,27007 66328,27093 66356,27193 66371,27380 66587,27414 66754,27539 66862,27589 66912,27689 66870,27831 66787,27989 66720,28147 66637,28272 66537,28389 66504,28514 66537,28639 66545,28756 66512,28872 66446,29039 66421,29122 66404,29314 66446,29597 "/>
  <polyline class="fil2 str12" points="47567,38399 47762,38265 47829,38146 47897,37984 47937,37822 48005,37673 48086,37578 48194,37497 48262,37389 48343,37294 48410,37200 48491,37159 48613,37132 48708,37132 48843,37186 48938,37146 48992,36997 49059,36835 49073,36713 49100,36551 49113,36402 49127,36226 49160,36003 49114,35645 49093,35610 49036,35553 48990,35504 48951,35433 48944,35372 49011,35245 49057,35160 49050,35086 49001,35008 48884,35001 48771,35008 48710,34962 48707,34912 48746,34841 48806,34686 48806,34587 48778,34420 48746,34296 48735,34190 48746,34084 48771,33932 48771,33822 48705,33773 48683,33692 48641,33614 48574,33526 48496,33409 48404,33267 48229,33018 48080,32888 48006,32778 47795,32644 47703,32531 47582,32397 47313,32152 47221,32081 47101,31996 46921,31859 46652,31759 46506,31689 46367,31641 46252,31598 46108,31569 45993,31555 45864,31526 45764,31498 45663,31426 45591,31368 45548,31297 45491,31182 45448,31067 45362,30981 45276,30895 45134,30793 44901,30676 44589,30631 44279,30696 44077,30703 43914,30725 43818,30764 43730,30802 43670,30831 43482,30795 43397,30742 43270,30661 43093,30544 42944,30470 42884,30399 42802,30310 42735,30208 42700,30105 42664,30002 42597,29864 42512,29666 42438,29468 42381,29341 42286,29238 42254,29149 42335,29079 42385,29015 42452,28937 42523,28866 42625,28817 42955,28756 43163,28725 43422,28686 43588,28643 43748,28555 43840,28487 43942,28406 44013,28286 44132,28121 44161,28006 44089,27302 44060,27159 44074,27044 44060,26915 44046,26800 43974,26685 43931,26628 43888,26541 43888,26455 43931,26355 44003,26297 44074,26226 44132,26168 44161,26096 44161,26025 44175,25953 44232,25895 44304,25852 44362,25795 44462,25766 44634,25795 44792,25766 44907,25738 45051,25723 45165,25709 45309,25623 45395,25551 45438,25436 45481,25292 45496,25106 45481,24876 45438,24747 45395,24618 45309,24517 45237,24474 45057,24371 44962,24279 44877,24229 44742,24193 44631,24082 44588,23967 44588,23866 44631,23780 44631,23637 44588,23479 44559,23349 44591,23211 44548,23082 44505,22981 44416,22847 44416,22746 44444,22632 44502,22502 44531,22416 44602,22301 44645,22215 44721,22149 44821,22106 44893,22019 45022,21948 45266,21905 45438,21876 45568,21833 45654,21761 45654,21675 45631,21595 45658,21360 45597,21299 45458,21283 45380,21329 45257,21329 45087,21376 44979,21391 44964,21314 44809,21221 44655,21221 44531,21268 44330,21360 44222,21329 44068,21252 43944,21160 43852,21036 43790,20913 43759,20774 43651,20665 43497,20573 43435,20496 43234,20326 43188,20171 43003,19940 42848,19832 42833,19724 "/>
  <path class="fil2 str12" d="M48439 33217l262 -206 655 305 157 61 198 52 125 21 100 34 88 8 65 -61 86 -29 126 -6 157 0 134 49 222 87 115 -31 114 -73 104 -63 156 -10 114 21 94 114 110 168 98 50 250 -21 146 21 114 10 73 31 62 -104 29 -343 60 -92 70 -76 65 -27 146 -16 162 0 114 0 92 5 130 -22 141 -27 103 -16 108 -22 87 -16 87 0 141 0 81 5 54 -5 148 36 72 29 86 29 115 -29 101 -57 115 -72 86 -86 72 -86 101 -57 57 -43 72 -43 43 -115 -29 -115 -115 -57 -72 -43 -43 -86 -14 -101 14 -86 43 -101 43 -115 29 -72 0 -72 -43 -86 -72 -86 -43 -86 -57 -43 -42 -51 -73 -50 -72 -72 14 -101 43 -57 101 14 101 43 115 14 72 -29 86 -86 57 -72 100 -57 129 -57 115 -86 115 -72 143 -43 72 -58 43 -72 129 -72 101 -43 86 -57 101 0 100 -14 101 0 129 58 72 29 61 -40 27 -5 16 -76 11 -119 5 -119 -27 -152 -5 -92 76 -119 146 -81 114 -76 108 -87 76 -98 92 -114 76 -38 65 0 70 27 60 54 54 124 27 98 38 65 22 81 92 65 87 16 135 -22 217 -49 168 -16 168 -11 87 -16 146 -43 70 -27 157 -22 238 -27 162 5 255 0 119 49 189 11 157 0 138 -41 50 -199 50 -75 112 12 37 62 57 257 379 67 199 12 249 0 137 -12 112 -25 150 -12 162 12 199 -12 199 0 149 -25 162 -12 149 -12 150 -25 125 25 149 37 125 37 199 25 187 -12 125 37 131 -18 125 -76 92 5 98 49 97 27 130 11 282 16 325 27 146 5 368 27 179 16 98 -5 135 -32 108 -38 125 -43 70 16 81 27 103 6 114 -43 97 -38 97 -32 135 -11 130 6 108 11 92 33 141 38 106 43 100 50 75 50 75 50 100 100 103 147 65 135 27 87 16 92 16 81 54 65 70 60 92 76 81 11 125 5 114 5 103 11 81 32 152 76 60 65 33 87 22 103 38 70 87 54 152 49 103 92 81 43 114 22 76 -27 70 11 103 16 98 27 81 11 195 11 135 22 76 11 103 -43 173 -70 124 -16 141 -60 162 -27 125 -11 103 -11 76 -33 184 -98 81 -70 76 -114 16 -114 6 -97 10 -83 18 -75 98 -22 97 43 114 6 93 -44 62 -31 78 16 15 236 8 102 16 94 78 94 78 31 78 0 109 -78 93 -129 70 -11 179 11 60 49 81 70 127 -6 78 62 131 187 76 32 49 -16 65 -38 92 -65 72 71 78 47 125 63 141 0 141 -16 156 -47 141 0 63 0 109 16 78 62 78 31 125 -16 47 -38 109 101 125 31 109 -31 94 16 94 16 125 16 125 -16 125 31 94 0 149 -150 28 -55 87 -54 64 3 46 -104 47 -94 78 -109 -17 -73 62 -62 57 -150 1 46 49 125 60 157 38 157 16 103 -76 119 5 70 16 70 60 43 81 38 70 -6 198 87 87 -6 70 -43 97 32 22 38 43 60 60 49 114 43 124 5 163 -11 130 -43 70 11 27 -22 76 -49 268 -157 114 -135 141 -141 103 -43 54 -22 54 -54 27 -70 5 -81 32 -81 43 -70 98 -81 88 -31 94 -16 94 0 47 -62c3,-329 -108,-153 66,-407 182,-222 22,52 389,-141l70 -16 130 16 125 16 87 5 146 5 111 10 47 94 78 63 78 47 65 -40 103 11 130 -32 103 -49 54 11 65 70 108 81 135 43 87 0 92 -60 49 -81 27 -27 27 27 92 103 60 65 81 27 141 11 175 -20 78 -62 31 -62 94 -31 125 47 94 16 156 -47 41 -23 69 -55 47 -78 113 -131 -47 -125 31 -78c293,-59 -5,-173 454,-224l156 0 125 -62 109 -16 125 31 125 0 109 0 141 16 156 16 141 16 187 -16 94 -31 125 -78 94 -94 94 -62 78 -63 78 -62 47 -78 225 -94 62 -16 94 0 109 -31 94 -63 78 -62 31 -94 47 -94 78 -47 78 -16 13 -93 -205 -147 -123 -173 0 -78 62 -78 109 -31 172 -78 109 -187 63 -109 62 -94 62 -109 47 -94 78 -78c208,-177 -174,-238 -154,-491l-62 -141 0 -172 31 -125 115 -244 -11 -92 -43 -103 -65 -65 -81 -54 -87 -49 -103 -38 -162 -32 -65 -70 -60 -114 -22 -146 -76 -173 -27 -184 15 -72 47 -78 141 -109"/>
  <polyline class="fil2 str14" points="59694,26046 59508,25953 59357,25871 59135,25790 58996,25720 58914,25639 58856,25569 58775,25475 58658,25417 58530,25371 58332,25278 58181,25208 58088,25103 58006,24986 57936,24823 57855,24637 57808,24497 57727,24393 57633,24265 57587,24055 57529,23857 57505,23706 57494,23496 57482,23333 57401,23182 57284,23042 57145,22926 56970,22774 56807,22658 56667,22553 56481,22402 56330,22262 56167,22134 55992,22017 55898,21815 55905,21713 55891,21603 55921,21494 56190,21259 56316,21156 56428,21040 56498,20964 56528,20834 56561,20742 56651,20606 56876,20390 56969,20334 57078,20344 57207,20374 57327,20350 57433,20311 57492,20241 57771,20075 57983,19968 58201,19837 58443,19727 58609,19502 58769,19356 58900,19254 59002,19167 59205,19051 59351,18920 59467,18832 59584,18760 59642,18730 59715,18672 60035,18690 60118,18610 60191,18587 60501,18381 60661,18279 60952,18192 61403,18061 63038,17490 63098,17460 "/>
  <path class="fil2 str14" d="M18837 41123l-9 -124 -29 -75 -46 -70 16 -123 34 -118 68 -169 34 -135 0 -169 -34 -101 -49 -103 -36 -134 0 -135 0 -135 51 -169 51 -152 51 -135 85 -169 68 -203 51 -118 51 -135 85 -152 169 -135 101 -84 68 -101 101 -101 135 -85 101 -67 84 -85 84 -68 118 -68 85 -68 85 -84 68 -101 51 -135 -25 -239 6 -647 -24 -125 -21 -76 -11 -66 -46 -110 -59 -103 -38 -45 -16 -84 -44 -79 -62 -74 -44 -40 -80 -57 -20 -6 0 -43 110 -51 170 -101 68 -135 68 -135 34 -169 34 -152 68 -152 152 -68 135 -17 169 -101 118 -84 101 -101 152 -101 152 -34 169 0 135 51c112,141 114,105 191,223l91 61 35 65 38 106 21 97 3 141 36 51 61 90 26 124 16 61 21 70 129 138 116 55 236 315 79 111 69 67 59 46 105 59 121 43 75 -1 66 0 110 0 46 11 84 1 106 -4 77 -4 90 -2 89 11 236 -61 71 10 119 44 66 -13 116 -54 26 -10 75 -36 79 -16 53 1 79 18 44 25 83 -1 160 70 72 -5 232 -45 69 11 89 16 166 18 287 111 194 -16 85 0 247 35 121 11 155 23 66 -3 109 -17 127 46 67 8 153 40 130 0 77 -11 55 -49 92 -85 46 -19 110 -32 124 -40 55 -18 73 -48 72 -32 101 -20 66 -37 77 -81 126 -191 36 -76 56 -131 34 -90 29 -106 30 -89 50 -69 92 -96 75 -139 136 -229 24 -142 41 -83 71 -100 40 -124 39 -69 101 -32 76 3 75 11 79 14 92 -22 120 -105 43 -69 -3 -121 46 -107 99 -59 55 -56 69 -34 107 -19 69 -19 81 -78 125 -95 99 -114 61 -89 45 -101 21 -120 -19 -106 -14 -101 90 -75 112 -33 40 -45 51 -120 60 -105 38 -29 89 -75 147 -123 44 -25 97 -58 58 -69 65 -89 51 -54 116 -160 142 -247 -171 -161 -117 -75 -36 -74 -19 -127 -33 -61 -46 -105 -50 -106 -43 -46 -157 -143 -79 -67 -148 -52 -87 0 -108 -22 -65 -43 -76 -43 -108 -22 -108 -11 -97 11 -124 36 -62 46 -105 29 -111 -46 -85 -12 -41 3 -149 34 -52 16 -107 25 -95 -30 -127 -25 -144 -70 -101 -39 -86 -67 -24 -45 -44 -79 -91 -56 -59 -20 -50 -64 -92 -140 -15 -34 -26 -67 -28 -57 -85 -63 -54 -49 -36 -55 -60 -74 -101 -31 -71 0 -55 5 -187 45 -74 1 -60 0 -207 -11 -45 -10 -156 -44 -121 -21 -96 -23 -91 -6 -100 -35 -69 -21 -63 -10 -74 20 -100 45 -51 7 -122 -7 -66 -30 -29 -69 -2 -73 29 -110 1 -64 -15 -103 -36 -76 -85 -56 -48 -11 -130 2 -74 6 -51 -6 -171 -51 -152 -6 -114 -1 -61 -12 -80 -21 -136 -58 -97 -16 -54 -24 -70 -70 -66 -129 -11 -42 -33 -68 -76 -43 -65 0 -97 11 -132 39 -85 -2 -159 4 -110 2 -75 4 -90 -40 -39 -60 -30 -51 -67 -30 -106 -39 -47 -7 -114 -24 -75 6 -100 -51 -50 -59 -70 -53 -107 -34 -112 -7 -112 -34 -80 -46 -76 -9 -69 21 -88 75 -80 31 -51 8 -107 9 -150 -10 -159 -49 -41 -20 -121 -17 -94 2 -66 1 -144 -20 -74 -81 -51 -6 -123 -24 -184 -32 -151 -33 -130 0 -151 22 -119 22 -54 54 -65 54 -108 43 -108 11 -298 18 -200 87 -260 43 -227 22 -116 45 -135 51 -237 17 -186 -17 -135 0 -118 101 -118 68 -145 86 -119 45 -85 17 -41 -10 -172 -67 -292 -61 -287 -57 -41 -12 -85 -13 -195 -30 -101 -46 -127 -22 -102 -21 -187 -24 -70 0 -74 -1 -61 0 -115 26 -111 11 -110 46 -31 56 -61 74 -64 34 -90 38 -89 23 -91 16 -90 17 -67 21 -61 39 -74 101 -100 157 -142 140 -69 87 -70 20 -190 -1 -171 -24 -164 -1 -105 -1 -89 10 -130 -3 -70 -14 -90 -31c-196,-57 -1249,-136 -588,-431"/>
  <polyline class="fil2 str14" points="32036,31178 32141,31207 32204,31254 32273,31309 32368,31336 32441,31366 32556,31369 32629,31369 32721,31415 32773,31464 32843,31504 32938,31543 33063,31586 33218,31596 33363,31593 33501,31589 33643,31583 33749,31541 33911,31530 34084,31563 34214,31595 34301,31649 34417,31711 34516,31682 34674,31669 34756,31675 34934,31642 35059,31665 35125,31603 35184,31560 35254,31537 35319,31570 35431,31563 35514,31461 35577,31368 35631,31325 35771,31282 35879,31217 35901,31141 35912,31055 35901,30957 35869,30892 35923,30784 35998,30806 36074,30827 36150,30838 36236,30871 36312,30914 36388,30914 36463,30936 36539,30936 36636,30925 36723,30882 36809,30849 36885,30773 36950,30568 37015,30352 37058,30276 37137,30226 37279,30256 37440,30279 37556,30335 37668,30387 37786,30394 37885,30358 38004,30361 38096,30341 38191,30289 38333,30246 38468,30256 38563,30318 38666,30433 38758,30493 38876,30516 39001,30522 39127,30545 39235,30588 39295,30631 39377,30677 39482,30690 39637,30694 39812,30690 39887,30697 40088,30720 40302,30760 40470,30792 40655,30792 40777,30773 41027,30727 41225,30657 41396,30578 41544,30509 41646,30463 42209,29910 42295,29851 42499,29771 42621,29747 42730,29625 42869,29491 42970,29418 43043,29401 43138,29358 43336,29322 43494,29369 43632,29418 43784,29451 43879,29424 44070,29431 44192,29398 44284,29427 44400,29490 44492,29557 44531,29557 44640,29527 44765,29477 44878,29440 45042,29362 45111,29316 45190,29309 45539,29068 46198,29001 46277,29001 46432,29037 46623,29109 46761,29182 46873,29215 47038,29221 47331,29268 47627,29306 47980,29213 48227,29217 48457,29220 48760,29190 48879,29167 49070,29196 49113,29196 49171,29239 49243,29311 49357,29376 49429,29419 49487,29477 49573,29534 49630,29591 49673,29634 49774,29663 49845,29663 49946,29634 50132,29563 50308,29520 50407,29480 50571,29470 50692,29433 50836,29419 50965,29405 51109,29405 51217,29395 51362,29185 51438,28940 51507,28762 51583,28703 51683,28703 51783,28703 51941,28674 52042,28660 52171,28631 52272,28617 52372,28588 52498,28614 52548,28623 52620,28617 52712,28610 52999,28637 53090,28674 53162,28688 53248,28645 53319,28631 53420,28674 53492,28731 53592,28803 53678,28789 53793,28789 53922,28760 54052,28789 54181,28817 54281,28832 54382,28889 54482,28961 54568,29033 54683,29105 54755,29191 54827,29291 54927,29349 55014,29420 55085,29478 55171,29628 55243,29671 55329,29671 55401,29628 55487,29571 55616,29571 55746,29585 55846,29600 55932,29571 56035,29428 56128,29365 56217,29312 56348,29340 56477,29287 56599,29235 56674,29146 56740,29083 56839,29037 57037,28948 57165,28859 57284,28831 57386,28802 57532,28802 57677,28787 57808,28700 57866,28627 57939,28569 58028,28540 58216,28536 58341,28494 58496,28484 58700,28418 58838,28273 58897,28144 58963,28039 59052,27779 59075,27594 59089,27450 59112,27318 59154,27153 59247,27025 59365,26909 59480,26830 59566,26768 59566,26676 59550,26544 59586,26303 59662,26172 59731,26056 59885,25961 60067,25885 60198,25892 60297,25944 60376,25967 60459,25971 60577,25958 60669,25971 60831,26004 60943,26172 61048,26228 61147,26221 61242,26208 61345,26159 61476,26128 61662,26069 61799,26050 61967,25987 62082,25934 62204,25892 62323,25865 62504,25836 62688,25813 62879,25783 62972,25750 63094,25708 63164,25627 63246,25510 63257,25382 63257,25278 63245,25075 63314,24963 63462,24887 63805,24699 64022,24555 64134,24525 64230,24545 64328,24601 64500,24657 64704,24654 65020,24522 65244,24406 65399,24317 65532,24248 65641,24233 65782,24280 65938,24342 66079,24451 66203,24623 66250,24733 66384,24792 66565,24779 66673,24779 66789,24808 66930,24838 67052,24887 67167,24966 67375,25101 67543,25220 67704,25289 67836,25328 67991,25352 68156,25414 68277,25411 68458,25381 68620,25394 68775,25408 69022,25398 69288,25391 69424,25417 69486,25427 69786,25398 69954,25388 70036,25319 70102,25177 70141,25022 70240,24782 70359,24528 70392,24331 70346,24176 70306,24037 70280,23827 70263,23685 70319,23570 70418,23464 70523,23441 70656,23436 70781,23420 70906,23405 71015,23405 71140,23436 71234,23452 71327,23530 71421,23576 71515,23592 71609,23545 71749,23592 71890,23670 72015,23733 72124,23764 72218,23764 72327,23811 72467,23810 72612,23781 72733,23748 72954,23728 73099,23738 73260,23692 73422,23603 73563,23491 73827,23295 73999,23217 74155,23124 74295,23030 74467,22967 74592,22889 74717,22795 74780,22702 74811,22514 74827,22358 74873,22249 74983,22186 75077,22171 75217,22171 75389,22280 75561,22358 75733,22374 75920,22374 76045,22358 76201,22421 76326,22452 76451,22499 76529,22608 76623,22686 76732,22795 76826,22936 76936,23045 77045,23170 77123,23233 77264,23342 77357,23389 77479,23405 77595,23320 77935,23202 78451,23077 78623,23108 78795,23139 79037,23184 79248,23155 79419,23139 79591,23108 79826,23092 79997,23108 80154,23077 80310,23030 80435,23014 80575,22999 80732,23061 80825,23139 80919,23217 81029,23373 81185,23467 81362,23494 81544,23545 81731,23545 81888,23576 82013,23655 82153,23764 82309,23842 82450,23920 82575,23920 82669,23889 82825,23920 82981,23951 83137,23905 83325,23936 83466,23889 83653,23873 83778,23920 83926,23967 84075,24108 84184,24217 84340,24311 84481,24404 84637,24389 84762,24358 84918,24326 85043,24264 85168,24186 85293,24155 85465,24123 85637,24123 85778,24108 85965,24139 86121,24123 86262,24170 86402,24233 86527,24333 86637,24389 86746,24514 86834,24610 86860,24715 86919,24794 86946,24893 86982,24982 87110,25113 87364,25360 87555,25522 87743,25575 87897,25608 88154,25733 88339,25746 "/>
  <polyline class="fil2 str15" points="59694,26046 59508,25953 59357,25871 59135,25790 58996,25720 58914,25639 58856,25569 58775,25475 58658,25417 58530,25371 58332,25278 58181,25208 58088,25103 58006,24986 57936,24823 57855,24637 57808,24497 57727,24393 57633,24265 57587,24055 57529,23857 57505,23706 57494,23496 57482,23333 57401,23182 57284,23042 57145,22926 56970,22774 56807,22658 56667,22553 56481,22402 56330,22262 56167,22134 55992,22017 55898,21815 55905,21713 55891,21603 55921,21494 56190,21259 56316,21156 56428,21040 56498,20964 56528,20834 56561,20742 56651,20606 56876,20390 56969,20334 57078,20344 57207,20374 57327,20350 57433,20311 57492,20241 57771,20075 57983,19968 58201,19837 58443,19727 58609,19502 58769,19356 58900,19254 59002,19167 59205,19051 59351,18920 59467,18832 59584,18760 59642,18730 59715,18672 60035,18690 60118,18610 60191,18587 60501,18381 60661,18279 60952,18192 61403,18061 63038,17490 63098,17460 "/>
  <path class="fil2 str15" d="M18837 41123l-9 -124 -29 -75 -46 -70 16 -123 34 -118 68 -169 34 -135 0 -169 -34 -101 -49 -103 -36 -134 0 -135 0 -135 51 -169 51 -152 51 -135 85 -169 68 -203 51 -118 51 -135 85 -152 169 -135 101 -84 68 -101 101 -101 135 -85 101 -67 84 -85 84 -68 118 -68 85 -68 85 -84 68 -101 51 -135 -25 -239 6 -647 -24 -125 -21 -76 -11 -66 -46 -110 -59 -103 -38 -45 -16 -84 -44 -79 -62 -74 -44 -40 -30 -7 -70 -56 0 -43 110 -51 170 -101 68 -135 68 -135 34 -169 34 -152 68 -152 152 -68 135 -17 169 -101 118 -84 101 -101 152 -101 152 -34 169 0 135 51c96,121 147,193 282,284l35 65 38 106 21 97 3 141 36 51 61 90 26 124 16 61 21 70 129 138 116 55 236 315 79 111 69 67 59 46 105 59 121 43 75 -1 66 0 110 0 46 11 84 1 106 -4 77 -4 90 -2 89 11 236 -61 71 10 119 44 66 -13 116 -54 26 -10 75 -36 79 -16 53 1 79 18 44 25 83 -1 160 70 72 -5 232 -45 69 11 89 16 166 18 287 111 194 -16 85 0 247 35 121 11 155 23 66 -3 109 -17 127 46 67 8 153 40 130 0 77 -11 55 -49 92 -85 46 -19 110 -32 124 -40 55 -18 73 -48 72 -32 101 -20 66 -37 77 -95 126 -177 36 -76 56 -131 34 -90 29 -106 30 -89 50 -69 92 -96 75 -139 136 -229 24 -142 41 -83 71 -100 40 -124 39 -69 101 -32 76 3 75 11 79 14 92 -22 120 -105 43 -69 -3 -121 46 -107 99 -59 55 -56 69 -34 107 -19 69 -19 81 -78 125 -95 99 -114 61 -89 45 -101 21 -120 -19 -106 -14 -101 90 -75 112 -33 40 -45 51 -120 60 -105 38 -29 89 -75 147 -123 44 -25 97 -58 58 -69 65 -89 51 -54 116 -160 142 -247 -171 -161 -117 -75 -36 -74 -19 -127 -33 -61 -46 -105 -50 -106 -43 -46 -157 -143 -79 -67 -148 -52 -87 0 -108 -22 -65 -43 -76 -43 -108 -22 -108 -11 -97 11 -124 36 -62 46 -105 29 -111 -46 -85 -12 -41 3 -149 34 -52 16 -107 25 -95 -30 -127 -25 -144 -70 -101 -39 -86 -67 -24 -45 -44 -79 -91 -56 -59 -20 -50 -64 -92 -140 -15 -34 -26 -67 -28 -57 -85 -63 -54 -49 -36 -55 -60 -74 -101 -31 -71 0 -55 5 -187 45 -74 1 -60 0 -207 -11 -45 -10 -156 -44 -121 -21 -96 -23 -91 -6 -100 -35 -69 -21 -63 -10 -74 20 -100 45 -51 7 -122 -7 -66 -30 -29 -69 -2 -73 29 -110 1 -64 -15 -103 -36 -76 -85 -56 -48 -11 -130 2 -74 6 -51 -6 -171 -51 -152 -6 -114 -1 -61 -12 -80 -21 -136 -58 -97 -16 -54 -24 -70 -70 -66 -129 -11 -42 -33 -68 -76 -43 -65 0 -97 11 -132 39 -85 -2 -159 4 -110 2 -75 4 -90 -40 -39 -60 -30 -51 -67 -30 -106 -39 -47 -7 -114 -24 -75 6 -100 -51 -50 -59 -70 -53 -107 -34 -112 -7 -112 -34 -80 -46 -76 -9 -69 21 -88 75 -80 31 -51 8 -107 9 -150 -10 -159 -49 -41 -20 -121 -17 -94 2 -66 1 -144 -20 -74 -81 -51 -6 -123 -24 -184 -32 -151 -33 -130 0 -151 22 -119 22 -54 54 -65 54 -108 43 -108 11 -298 24 -200 82 -260 43 -227 22 -116 45 -135 51 -237 17 -186 -17 -135 0 -118 101 -118 68 -145 86 -119 45 -85 17 -41 -10 -172 -67 -292 -61 -287 -57 -41 -12 -85 -13 -195 -30 -101 -46 -127 -22 -102 -21 -187 -24 -70 0 -74 -1 -61 0 -115 26 -111 11 -110 46 -31 56 -61 74 -64 34 -90 38 -89 23 -91 16 -90 17 -67 21 -61 39 -74 101 -100 157 -142 140 -69 87 -70 20 -190 -1 -171 -24 -164 -1 -105 -1 -89 10 -130 -3 -70 -14 -90 -31c-208,-60 -1241,-140 -588,-431"/>
  <polyline class="fil2 str15" points="32055,31191 32141,31207 32204,31254 32273,31309 32368,31336 32441,31366 32556,31369 32629,31369 32721,31415 32773,31464 32843,31504 32938,31543 33063,31586 33218,31596 33363,31593 33501,31589 33643,31583 33749,31541 33911,31530 34084,31563 34214,31595 34301,31649 34417,31711 34516,31682 34674,31669 34756,31675 34934,31642 35059,31665 35125,31603 35184,31560 35254,31537 35319,31570 35431,31563 35514,31461 35577,31368 35631,31325 35771,31282 35879,31217 35901,31141 35912,31055 35901,30957 35869,30892 35923,30784 35998,30806 36074,30827 36150,30838 36236,30871 36312,30914 36388,30914 36463,30936 36539,30936 36636,30925 36723,30882 36809,30849 36885,30773 36950,30568 37015,30352 37058,30276 37137,30226 37279,30256 37440,30279 37556,30335 37668,30387 37786,30394 37885,30358 38004,30361 38096,30341 38191,30289 38333,30246 38468,30256 38563,30318 38666,30433 38758,30493 38876,30516 39001,30522 39127,30545 39235,30588 39295,30631 39377,30677 39482,30690 39637,30694 39812,30690 39887,30697 40088,30720 40302,30760 40470,30792 40655,30792 40777,30773 41027,30727 41225,30657 41396,30578 41544,30509 41646,30463 42209,29910 42295,29851 42499,29771 42621,29697 42730,29675 42869,29491 42970,29418 43043,29401 43138,29358 43336,29322 43494,29369 43632,29418 43784,29451 43879,29424 44070,29431 44192,29398 44284,29427 44400,29490 44492,29557 44531,29557 44640,29527 44765,29477 44878,29440 45042,29362 45111,29316 45190,29309 45539,29068 46198,29001 46277,29001 46432,29037 46623,29109 46761,29182 46873,29215 47038,29221 47331,29268 47627,29306 47980,29213 48227,29217 48457,29220 48760,29190 48879,29167 49070,29196 49113,29196 49171,29239 49243,29311 49357,29376 49429,29419 49487,29477 49573,29534 49630,29591 49673,29634 49774,29663 49845,29663 49946,29634 50132,29563 50308,29520 50407,29480 50571,29470 50692,29433 50836,29419 50965,29405 51109,29405 51217,29395 51362,29200 51438,28940 51507,28762 51583,28703 51683,28703 51783,28703 51941,28674 52042,28660 52171,28631 52272,28617 52372,28588 52498,28614 52548,28623 52620,28617 52712,28610 52999,28637 53090,28674 53162,28688 53248,28645 53319,28631 53420,28674 53492,28731 53592,28803 53678,28789 53793,28789 53922,28760 54052,28789 54181,28817 54281,28832 54382,28889 54482,28961 54568,29033 54683,29105 54755,29191 54827,29291 54927,29349 55014,29420 55085,29478 55171,29628 55243,29671 55329,29671 55401,29628 55487,29571 55616,29571 55746,29585 55846,29600 55932,29571 56035,29428 56128,29365 56217,29312 56348,29340 56477,29287 56599,29235 56674,29146 56740,29083 56839,29037 57037,28948 57165,28859 57284,28831 57386,28802 57532,28802 57677,28787 57808,28700 57866,28627 57939,28569 58028,28540 58216,28536 58341,28494 58496,28484 58700,28418 58838,28273 58897,28144 58963,28039 59052,27779 59075,27594 59089,27450 59112,27318 59154,27153 59247,27025 59365,26909 59480,26830 59566,26768 59566,26676 59550,26544 59586,26303 59662,26172 59731,26056 59885,25961 60067,25885 60198,25892 60297,25944 60376,25967 60459,25971 60577,25958 60669,25971 60831,26004 60943,26172 61048,26228 61147,26221 61242,26208 61345,26159 61476,26128 61662,26069 61799,26050 61967,25987 62082,25934 62204,25892 62323,25865 62504,25836 62688,25813 62879,25783 62972,25750 63094,25708 63164,25627 63246,25510 63257,25382 63257,25278 63245,25075 63314,24963 63462,24887 63805,24699 64022,24555 64134,24525 64230,24545 64328,24601 64500,24657 64704,24654 65020,24522 65244,24406 65399,24317 65532,24248 65641,24233 65782,24280 65938,24342 66079,24451 66203,24623 66250,24733 66384,24792 66565,24779 66673,24779 66789,24808 66930,24838 67052,24887 67167,24966 67375,25101 67543,25220 67704,25289 67836,25328 67991,25352 68156,25414 68277,25411 68458,25381 68620,25394 68775,25408 69022,25398 69288,25391 69424,25417 69486,25427 69786,25398 69954,25388 70036,25319 70102,25177 70141,25022 70240,24782 70359,24528 70392,24331 70346,24176 70306,24037 70280,23827 70263,23685 70319,23570 70418,23464 70523,23441 70656,23436 70781,23420 70906,23405 71015,23405 71140,23436 71234,23452 71327,23530 71421,23576 71515,23592 71609,23545 71749,23592 71890,23670 72015,23733 72124,23764 72218,23764 72327,23811 72467,23810 72612,23781 72733,23748 72954,23728 73099,23738 73260,23692 73422,23603 73563,23491 73827,23295 73999,23217 74155,23124 74295,23030 74467,22967 74592,22889 74717,22795 74780,22702 74811,22514 74827,22358 74873,22249 74983,22186 75077,22171 75217,22171 75389,22280 75561,22358 75733,22374 75920,22374 76045,22358 76201,22421 76326,22452 76451,22499 76529,22608 76623,22686 76732,22795 76826,22936 76936,23045 77045,23170 77123,23233 77264,23342 77357,23389 77479,23405 77595,23320 77935,23202 78451,23077 78623,23108 78795,23139 79037,23184 79248,23155 79419,23139 79591,23108 79826,23092 79997,23108 80154,23077 80310,23030 80435,23014 80575,22999 80732,23061 80825,23139 80919,23217 81029,23373 81185,23467 81362,23494 81544,23545 81731,23545 81888,23576 82013,23655 82153,23764 82309,23842 82450,23920 82575,23920 82669,23889 82825,23920 82981,23951 83137,23905 83325,23936 83466,23889 83653,23873 83778,23920 83926,23967 84075,24108 84184,24217 84340,24311 84481,24404 84637,24389 84762,24358 84918,24326 85043,24264 85168,24186 85293,24155 85465,24123 85637,24123 85778,24108 85965,24139 86121,24123 86262,24170 86402,24233 86527,24333 86637,24389 86746,24514 86834,24610 86860,24715 86919,24794 86946,24893 86982,24982 87110,25113 87364,25360 87555,25522 87743,25575 87897,25608 88154,25733 88339,25746 "/>
  <polyline class="fil2 str16" points="60544,26313 60326,26430 60210,26473 59962,26560 59744,26531 59627,26430 59453,26298 59293,26138 59170,26034 59031,25965 58926,25895 58856,25825 58775,25767 58693,25673 58588,25615 58449,25557 58332,25499 58204,25417 58111,25382 57971,25301 57901,25196 57832,25103 57797,24963 57715,24754 57633,24637 57564,24532 57494,24369 57412,24218 57366,24020 57331,23845 57308,23659 57296,23484 57273,23380 57238,23310 57133,23205 56982,23042 56795,22867 56644,22786 56458,22646 56271,22472 56132,22332 56004,22239 55887,22157 55756,21913 55733,21714 55751,21504 55827,21287 56031,21135 56207,20957 56440,20681 56688,20273 56789,20171 56964,20157 57211,20230 57473,20259 57692,20259 57837,20215 58143,20069 58478,19938 58681,19837 58740,19778 58769,19633 58885,18963 58958,18832 59191,18643 59395,18527 59657,18352 59875,18236 60151,18119 60384,18061 60646,17988 60850,17959 61054,17959 61374,17945 61811,18046 62174,17974 62378,17901 62698,17785 62946,17697 63120,17624 63295,17537 "/>
  <polyline class="fil2 str17" points="60544,26313 60326,26430 60210,26473 59962,26560 59744,26531 59627,26430 59453,26298 59293,26138 59170,26034 59031,25965 58926,25895 58856,25825 58775,25767 58693,25673 58588,25615 58449,25557 58332,25499 58204,25417 58111,25382 57971,25301 57901,25196 57832,25103 57797,24963 57715,24754 57633,24637 57564,24532 57494,24369 57412,24218 57366,24020 57331,23845 57308,23659 57296,23484 57273,23380 57238,23310 57133,23205 56982,23042 56795,22867 56644,22786 56458,22646 56271,22472 56132,22332 56004,22239 55887,22157 55756,21913 55733,21714 55751,21504 55827,21287 56031,21135 56207,20957 56440,20681 56688,20273 56789,20171 56964,20157 57211,20230 57473,20259 57692,20259 57837,20215 58143,20069 58478,19938 58681,19837 58740,19778 58769,19633 58885,18963 58958,18832 59191,18643 59395,18527 59657,18352 59875,18236 60151,18119 60384,18061 60646,17988 60850,17959 61054,17959 61374,17945 61811,18046 62174,17974 62378,17901 62698,17785 62946,17697 63120,17624 63295,17537 "/>
  <g transform="matrix(1 0 0.258814 0.965927 -40581.8 5060.52)">
   <text x="50000" y="25000"  class="fil3 fnt2">雅</text>
  </g>
  <g transform="matrix(1 0 0.258814 0.965927 -38311.1 5626.42)">
   <text x="50000" y="25000"  class="fil3 fnt2">鲁</text>
  </g>
  <g transform="matrix(1 0 0.258814 0.965927 -36299 5661.82)">
   <text x="50000" y="25000"  class="fil3 fnt2">藏</text>
  </g>
  <g transform="matrix(1 0 0.258814 0.965927 -33934 5450.52)">
   <text x="50000" y="25000"  class="fil3 fnt2">布</text>
  </g>
  <g transform="matrix(1 0 0.258814 0.965927 -32008.5 5822.86)">
   <text x="50000" y="25000"  class="fil3 fnt2">江</text>
  </g>
  <g transform="matrix(1 0 0.258814 0.965927 15993.4 5689.16)">
   <text x="50000" y="25000"  class="fil3 fnt2">雅</text>
  </g>
  <g transform="matrix(1 0 0.258814 0.965927 18904.1 6540.39)">
   <text x="50000" y="25000"  class="fil3 fnt2">鲁</text>
  </g>
  <g transform="matrix(1 0 0.258814 0.965927 21994.3 5459.82)">
   <text x="50000" y="25000"  class="fil3 fnt2">藏</text>
  </g>
  <g transform="matrix(1 0 0.258814 0.965927 25078.1 5447.26)">
   <text x="50000" y="25000"  class="fil3 fnt2">布</text>
  </g>
  <g transform="matrix(1 0 0.258814 0.965927 27431.3 4936.56)">
   <text x="50000" y="25000"  class="fil3 fnt2">江</text>
  </g>
  <g transform="matrix(1.00003 0 0.258807 0.965929 -11304.5 6361.98)">
   <text x="50000" y="25000"  class="fil3 fnt3">年</text>
  </g>
  <g transform="matrix(1.00003 0 0.258807 0.965929 -8450.88 8195.38)">
   <text x="50000" y="25000"  class="fil3 fnt3">楚</text>
  </g>
  <g transform="matrix(1.00003 0 0.258807 0.965929 -5174.71 11235.1)">
   <text x="50000" y="25000"  class="fil3 fnt3">河</text>
  </g>
  <g transform="matrix(1 0 0.258813 0.965927 2941.21 4151.72)">
   <text x="50000" y="25000"  class="fil3 fnt3">拉</text>
  </g>
  <g transform="matrix(1 0 0.258813 0.965927 5888.31 2794.02)">
   <text x="50000" y="25000"  class="fil3 fnt3">萨</text>
  </g>
  <g transform="matrix(1 0 0.258813 0.965927 8603.84 1199.02)">
   <text x="50000" y="25000"  class="fil3 fnt3">河</text>
  </g>
  <use transform="scale(1.5 1.5)" x="45173" y="19201" width="425" height="425" xlink:href="#符号1"/>
  <use transform="scale(1.5 1.5)" x="41454" y="19650" width="425" height="425" xlink:href="#符号1"/>
  <use transform="scale(1.5 1.5)" x="39633" y="19367" width="425" height="425" xlink:href="#符号1"/>
  <use transform="scale(1.5 1.5)" x="38204" y="18987" width="425" height="425" xlink:href="#符号1"/>
  <use transform="scale(1.5 1.5)" x="30168" y="20590" width="425" height="425" xlink:href="#符号1"/>
  <use transform="scale(1.5 1.5)" x="21473" y="20710" width="425" height="425" xlink:href="#符号1"/>
  <use transform="scale(1.5 1.5)" x="24864" y="18619" width="425" height="425" xlink:href="#符号1"/>
  <use transform="scale(1.5 1.5)" x="29304" y="16979" width="425" height="425" xlink:href="#符号1"/>
  <text x="31702" y="32675"  class="fil1 fnt4">拉孜</text>
  <text x="36256" y="27750"  class="fil1 fnt4">谢通门</text>
  <text x="44595" y="26851"  class="fil1 fnt4">南木林</text>
  <text x="55864" y="28298"  class="fil1 fnt4">曲水</text>
  <text x="58786" y="30666"  class="fil1 fnt4">贡嘎</text>
  <text x="61787" y="31142"  class="fil1 fnt4">扎囊</text>
  <text x="68688" y="29387"  class="fil1 fnt4">桑日</text>
  <text x="45966" y="31442"  class="fil1 fnt4">白朗</text>
  <use transform="scale(1.22727 1.22727)" x="49333" y="20835" width="759" height="759" xlink:href="#符号2"/>
  <text x="59443" y="25390"  class="fil1 fnt5">拉萨</text>
  <use transform="scale(1.5 1.5)" x="28180" y="19639" width="425" height="425" xlink:href="#符号3"/>
  <text x="40409" y="31234"  class="fil1 fnt6">日喀则市</text>
  <g id="_357457904">
   <line class="fil2 str18" x1="40629" y1="31404" x2="44773" y2= "31404" />
  </g>
  <use transform="scale(1.5 1.5)" x="43901" y="19695" width="425" height="425" xlink:href="#符号4"/>
  <text x="65279" y="31084"  class="fil1 fnt4">乃东</text>
  <rect class="fil2 str19" x="76626" y="39751" width="1067" height="1067"/>
  <rect class="fil2 str19" x="76827" y="36758" width="500" height="500"/>
  <rect class="fil2 str19" x="76617" y="38255" width="1067" height="500"/>
  <text x="78139" y="37288"  class="fil1 fnt0">0.01</text>
  <text x="78142" y="38787"  class="fil1 fnt0">0.5</text>
  <text x="78142" y="40567"  class="fil1 fnt0">5</text>
  <rect class="fil4 str20" x="81933" y="37935" width="1067" height="1067"/>
  <rect class="fil5 str20" x="81933" y="39795" width="1067" height="1067"/>
  <text x="83538" y="38421"  class="fil1 fnt0">“八五”</text>
  <text x="83538" y="40278"  class="fil1 fnt0">“九五”</text>
  <text x="64023" y="41310"  class="fil1 fnt7">扎囊</text>
  <text x="57304" y="41819"  class="fil1 fnt7">贡嘎</text>
  <text x="41111" y="39046"  class="fil1 fnt7">日喀则</text>
 </g>
 <g id="文字">
  <metadata id="CorelCorpID_3Corel-Layer"/>
  <text x="76320" y="36219"  class="fil1 fnt1">Area of planned reclamation(km</text>
  <text x="84122" y="36219"  class="fil1 fnt1">)</text>
  <text x="83976" y="35925"  class="fil1 fnt8">2</text>
  <g transform="matrix(1.2 0 0 1 -22810 -14200.9)">
   <text x="50000" y="25000"  class="fil1 fnt9">沙漠化土地整治面积</text>
  </g>
  <text x="32409" y="12350"  class="fil1 fnt10">The reclamation area of aeolian desertified land </text>
 </g>
 <g id="layer_1">
  <metadata id="CorelCorpID_4Corel-Layer"/>
  <g id="_285410720">
   <rect class="fil5 str20" x="31728" y="29805" width="1067" height="1067"/>
   <rect class="fil5 str20" x="31728" y="28653" width="1067" height="500"/>
   <g>
    <rect class="fil5 str20" x="31728" y="28100" width="500" height="500"/>
    <rect class="fil5 str20" x="31728" y="27533" width="500" height="500"/>
    <rect class="fil5 str20" x="31728" y="26967" width="500" height="500"/>
    <rect class="fil5 str20" x="31728" y="26400" width="500" height="500"/>
    <rect class="fil5 str20" x="31728" y="25833" width="500" height="500"/>
    <rect class="fil5 str20" x="31728" y="25200" width="500" height="500"/>
    <rect class="fil5 str20" x="31728" y="24633" width="500" height="500"/>
    <rect class="fil5 str20" x="31728" y="24067" width="500" height="500"/>
    <rect class="fil5 str20" x="31728" y="23500" width="500" height="500"/>
    <rect class="fil5 str20" x="31728" y="22933" width="500" height="500"/>
    <rect class="fil5 str20" x="32294" y="28100" width="500" height="500"/>
    <rect class="fil5 str20" x="32294" y="27533" width="500" height="500"/>
    <rect class="fil5 str20" x="32294" y="26967" width="500" height="500"/>
    <rect class="fil5 str20" x="32294" y="26400" width="500" height="500"/>
    <rect class="fil5 str20" x="32294" y="25833" width="500" height="500"/>
    <rect class="fil5 str20" x="32294" y="25200" width="500" height="500"/>
    <rect class="fil5 str20" x="32294" y="24633" width="500" height="500"/>
    <rect class="fil5 str20" x="32294" y="24067" width="500" height="500"/>
    <rect class="fil5 str20" x="32294" y="23500" width="500" height="500"/>
    <rect class="fil5 str20" x="32294" y="22933" width="500" height="500"/>
   </g>
   <g>
    <rect class="fil5 str20" x="32928" y="28100" width="500" height="500"/>
    <rect class="fil5 str20" x="32928" y="27533" width="500" height="500"/>
    <rect class="fil5 str20" x="32928" y="26967" width="500" height="500"/>
    <rect class="fil5 str20" x="32928" y="26400" width="500" height="500"/>
    <rect class="fil5 str20" x="32928" y="25833" width="500" height="500"/>
    <rect class="fil5 str20" x="32928" y="25200" width="500" height="500"/>
    <rect class="fil5 str20" x="32928" y="24633" width="500" height="500"/>
    <rect class="fil5 str20" x="33494" y="28100" width="500" height="500"/>
    <rect class="fil5 str20" x="33494" y="27533" width="500" height="500"/>
    <rect class="fil5 str20" x="33494" y="26967" width="500" height="500"/>
    <rect class="fil5 str20" x="33494" y="26400" width="500" height="500"/>
    <rect class="fil5 str20" x="33494" y="25833" width="500" height="500"/>
    <rect class="fil5 str20" x="33494" y="25200" width="500" height="500"/>
   </g>
   <rect class="fil5 str20" x="32928" y="30371" width="1067" height="500"/>
   <rect class="fil5 str20" x="32928" y="29805" width="1067" height="500"/>
   <rect class="fil5 str20" x="31728" y="29209" width="1067" height="500"/>
   <rect class="fil5 str20" x="32928" y="29209" width="1067" height="500"/>
   <rect class="fil5 str20" x="32928" y="28653" width="1067" height="500"/>
  </g>
  <g id="_357199656">
   <rect class="fil5 str20" x="44506" y="24275" width="1067" height="1067"/>
   <rect class="fil5 str20" x="45706" y="24275" width="1067" height="500"/>
   <rect class="fil5 str20" x="45706" y="24841" width="1067" height="500"/>
   <g>
    <rect class="fil5 str20" x="44506" y="23569" width="500" height="500"/>
    <rect class="fil5 str20" x="44506" y="23002" width="500" height="500"/>
    <rect class="fil5 str20" x="44506" y="22435" width="500" height="500"/>
    <rect class="fil5 str20" x="44506" y="21869" width="500" height="500"/>
    <rect class="fil5 str20" x="44506" y="21302" width="500" height="500"/>
    <rect class="fil5 str20" x="44506" y="20669" width="500" height="500"/>
    <rect class="fil5 str20" x="44506" y="20102" width="500" height="500"/>
    <rect class="fil5 str20" x="44506" y="19535" width="500" height="500"/>
    <rect class="fil5 str20" x="44506" y="18969" width="500" height="500"/>
    <rect class="fil5 str20" x="44506" y="18402" width="500" height="500"/>
    <rect class="fil5 str20" x="45072" y="23569" width="500" height="500"/>
    <rect class="fil5 str20" x="45072" y="23002" width="500" height="500"/>
    <rect class="fil5 str20" x="45072" y="22435" width="500" height="500"/>
    <rect class="fil5 str20" x="45072" y="21869" width="500" height="500"/>
    <rect class="fil5 str20" x="45072" y="21302" width="500" height="500"/>
    <rect class="fil5 str20" x="45072" y="20669" width="500" height="500"/>
    <rect class="fil5 str20" x="45072" y="20102" width="500" height="500"/>
    <rect class="fil5 str20" x="45072" y="19535" width="500" height="500"/>
    <rect class="fil5 str20" x="45072" y="18969" width="500" height="500"/>
    <rect class="fil5 str20" x="45072" y="18402" width="500" height="500"/>
    <rect class="fil5 str20" x="45706" y="23569" width="500" height="500"/>
    <rect class="fil5 str20" x="45706" y="23002" width="500" height="500"/>
    <rect class="fil5 str20" x="45706" y="22435" width="500" height="500"/>
    <rect class="fil5 str20" x="45706" y="21869" width="500" height="500"/>
    <rect class="fil5 str20" x="45706" y="21302" width="500" height="500"/>
    <rect class="fil5 str20" x="45706" y="20669" width="500" height="500"/>
    <rect class="fil5 str20" x="45706" y="20102" width="500" height="500"/>
    <rect class="fil5 str20" x="46272" y="23569" width="500" height="500"/>
    <rect class="fil5 str20" x="46272" y="23002" width="500" height="500"/>
    <rect class="fil5 str20" x="46272" y="22435" width="500" height="500"/>
    <rect class="fil5 str20" x="46272" y="21869" width="500" height="500"/>
    <rect class="fil5 str20" x="46272" y="21302" width="500" height="500"/>
    <rect class="fil5 str20" x="46272" y="20669" width="500" height="500"/>
   </g>
  </g>
  <g id="_357189168">
   <rect class="fil5 str20" x="48311" y="30846" width="1067" height="500"/>
   <rect class="fil5 str20" x="48311" y="30280" width="1067" height="500"/>
   <rect class="fil5 str20" x="48311" y="29713" width="1067" height="500"/>
   <rect class="fil5 str20" x="49511" y="30280" width="1067" height="500"/>
   <rect class="fil5 str20" x="49511" y="29713" width="1067" height="500"/>
   <rect class="fil5 str20" x="49511" y="30846" width="1067" height="500"/>
   <g>
    <rect class="fil5 str20" x="48311" y="29048" width="500" height="500"/>
    <rect class="fil5 str20" x="48311" y="28481" width="500" height="500"/>
    <rect class="fil5 str20" x="48311" y="27915" width="500" height="500"/>
    <rect class="fil5 str20" x="48311" y="27348" width="500" height="500"/>
    <rect class="fil5 str20" x="48311" y="26781" width="500" height="500"/>
    <rect class="fil5 str20" x="48311" y="26148" width="500" height="500"/>
    <rect class="fil5 str20" x="48311" y="25581" width="500" height="500"/>
    <rect class="fil5 str20" x="48311" y="25015" width="500" height="500"/>
    <rect class="fil5 str20" x="48311" y="24448" width="500" height="500"/>
    <rect class="fil5 str20" x="48311" y="23881" width="500" height="500"/>
    <rect class="fil5 str20" x="48878" y="29048" width="500" height="500"/>
    <rect class="fil5 str20" x="48878" y="28481" width="500" height="500"/>
    <rect class="fil5 str20" x="48878" y="27915" width="500" height="500"/>
    <rect class="fil5 str20" x="48878" y="27348" width="500" height="500"/>
    <rect class="fil5 str20" x="48878" y="26781" width="500" height="500"/>
    <rect class="fil5 str20" x="48878" y="26148" width="500" height="500"/>
    <rect class="fil5 str20" x="48878" y="25581" width="500" height="500"/>
    <rect class="fil5 str20" x="48878" y="25015" width="500" height="500"/>
    <rect class="fil5 str20" x="48878" y="24448" width="500" height="500"/>
    <rect class="fil5 str20" x="48878" y="23881" width="500" height="500"/>
    <rect class="fil5 str20" x="49511" y="29048" width="500" height="500"/>
    <rect class="fil5 str20" x="49511" y="28481" width="500" height="500"/>
    <rect class="fil5 str20" x="49511" y="27915" width="500" height="500"/>
    <rect class="fil5 str20" x="49511" y="27348" width="500" height="500"/>
    <rect class="fil5 str20" x="49511" y="26781" width="500" height="500"/>
    <rect class="fil5 str20" x="49511" y="26148" width="500" height="500"/>
    <rect class="fil5 str20" x="49511" y="25581" width="500" height="500"/>
    <rect class="fil5 str20" x="50078" y="29048" width="500" height="500"/>
    <rect class="fil5 str20" x="50078" y="28481" width="500" height="500"/>
    <rect class="fil5 str20" x="50078" y="27915" width="500" height="500"/>
    <rect class="fil5 str20" x="50078" y="27348" width="500" height="500"/>
    <rect class="fil5 str20" x="50078" y="26781" width="500" height="500"/>
    <rect class="fil5 str20" x="50078" y="26148" width="500" height="500"/>
   </g>
  </g>
  <g id="_357188544">
   <rect class="fil5 str20" x="57431" y="26527" width="1067" height="500"/>
   <rect class="fil5 str20" x="57431" y="25960" width="1067" height="500"/>
  </g>
  <g id="_360768160">
   <rect class="fil4 str20" x="54742" y="26527" width="1067" height="500"/>
   <rect class="fil4 str20" x="54742" y="25960" width="1067" height="500"/>
   <rect class="fil4 str20" x="54742" y="25393" width="1067" height="500"/>
   <rect class="fil4 str20" x="55942" y="26527" width="1067" height="500"/>
   <rect class="fil4 str20" x="55942" y="25960" width="1067" height="500"/>
   <rect class="fil4 str20" x="55942" y="25393" width="1067" height="500"/>
   <rect class="fil4 str20" x="54742" y="24728" width="500" height="500"/>
   <rect class="fil4 str20" x="54742" y="24161" width="500" height="500"/>
   <rect class="fil4 str20" x="54742" y="23594" width="500" height="500"/>
   <rect class="fil4 str20" x="54742" y="23028" width="500" height="500"/>
   <rect class="fil4 str20" x="54742" y="22461" width="500" height="500"/>
   <rect class="fil4 str20" x="55309" y="24728" width="500" height="500"/>
   <rect class="fil4 str20" x="55309" y="24161" width="500" height="500"/>
   <rect class="fil4 str20" x="55309" y="23594" width="500" height="500"/>
   <rect class="fil4 str20" x="55309" y="23028" width="500" height="500"/>
   <rect class="fil4 str20" x="55309" y="22461" width="500" height="500"/>
   <rect class="fil4 str20" x="55942" y="24728" width="500" height="500"/>
   <rect class="fil4 str20" x="55942" y="24161" width="500" height="500"/>
   <rect class="fil4 str20" x="55942" y="23594" width="500" height="500"/>
   <rect class="fil4 str20" x="55942" y="23028" width="500" height="500"/>
   <rect class="fil4 str20" x="55942" y="22461" width="500" height="500"/>
   <rect class="fil4 str20" x="56509" y="24728" width="500" height="500"/>
   <rect class="fil4 str20" x="56509" y="24161" width="500" height="500"/>
   <rect class="fil4 str20" x="56509" y="23594" width="500" height="500"/>
   <rect class="fil4 str20" x="56509" y="23028" width="500" height="500"/>
   <rect class="fil4 str20" x="56509" y="22461" width="500" height="500"/>
   <g>
    <rect class="fil4 str20" x="54742" y="21808" width="500" height="500"/>
    <rect class="fil4 str20" x="54742" y="21242" width="500" height="500"/>
    <rect class="fil4 str20" x="54742" y="20675" width="500" height="500"/>
    <rect class="fil4 str20" x="54742" y="20108" width="500" height="500"/>
    <rect class="fil4 str20" x="54742" y="19542" width="500" height="500"/>
    <rect class="fil4 str20" x="55309" y="21808" width="500" height="500"/>
    <rect class="fil4 str20" x="55309" y="21242" width="500" height="500"/>
    <rect class="fil4 str20" x="55309" y="20675" width="500" height="500"/>
    <rect class="fil4 str20" x="55309" y="20108" width="500" height="500"/>
    <rect class="fil4 str20" x="55309" y="19542" width="500" height="500"/>
    <rect class="fil4 str20" x="55942" y="21808" width="500" height="500"/>
    <rect class="fil4 str20" x="55942" y="21242" width="500" height="500"/>
    <rect class="fil4 str20" x="56509" y="21808" width="500" height="500"/>
   </g>
  </g>
  <g id="_360767488">
   <rect class="fil5 str20" x="58283" y="35758" width="1067" height="500"/>
   <rect class="fil5 str20" x="59483" y="35758" width="1067" height="500"/>
  </g>
  <g id="_358948720">
   <rect class="fil5 str20" x="58283" y="35155" width="500" height="500"/>
   <rect class="fil5 str20" x="58283" y="34588" width="500" height="500"/>
   <rect class="fil5 str20" x="58283" y="34021" width="500" height="500"/>
   <rect class="fil5 str20" x="58283" y="33455" width="500" height="500"/>
   <rect class="fil5 str20" x="58283" y="32888" width="500" height="500"/>
   <rect class="fil5 str20" x="58283" y="32255" width="500" height="500"/>
   <rect class="fil5 str20" x="58283" y="31688" width="500" height="500"/>
   <rect class="fil5 str20" x="58850" y="35155" width="500" height="500"/>
   <rect class="fil5 str20" x="58850" y="34588" width="500" height="500"/>
   <rect class="fil5 str20" x="58850" y="34021" width="500" height="500"/>
   <rect class="fil5 str20" x="58850" y="33455" width="500" height="500"/>
   <rect class="fil5 str20" x="58850" y="32888" width="500" height="500"/>
   <rect class="fil5 str20" x="58850" y="32255" width="500" height="500"/>
   <rect class="fil5 str20" x="58850" y="31688" width="500" height="500"/>
   <rect class="fil5 str20" x="59483" y="35155" width="500" height="500"/>
   <rect class="fil5 str20" x="59483" y="34588" width="500" height="500"/>
   <rect class="fil5 str20" x="59483" y="34021" width="500" height="500"/>
   <rect class="fil5 str20" x="59483" y="33455" width="500" height="500"/>
   <rect class="fil5 str20" x="59483" y="32888" width="500" height="500"/>
   <rect class="fil5 str20" x="59483" y="32255" width="500" height="500"/>
   <rect class="fil5 str20" x="59483" y="31688" width="500" height="500"/>
   <rect class="fil5 str20" x="60050" y="35155" width="500" height="500"/>
   <rect class="fil5 str20" x="60050" y="34588" width="500" height="500"/>
   <rect class="fil5 str20" x="60050" y="34021" width="500" height="500"/>
   <rect class="fil5 str20" x="60050" y="33455" width="500" height="500"/>
   <rect class="fil5 str20" x="60050" y="32888" width="500" height="500"/>
   <rect class="fil5 str20" x="60050" y="32255" width="500" height="500"/>
  </g>
  <g id="_358938712">
   <rect class="fil4 str20" x="63590" y="39084" width="1067" height="1067"/>
   <rect class="fil4 str20" x="62390" y="39084" width="1067" height="1067"/>
   <rect class="fil4 str20" x="62390" y="37950" width="1067" height="1067"/>
   <rect class="fil4 str20" x="63590" y="37950" width="1067" height="1067"/>
   <g>
    <rect class="fil4 str20" x="62390" y="37311" width="1067" height="500"/>
    <rect class="fil4 str20" x="62390" y="36744" width="1067" height="500"/>
    <rect class="fil4 str20" x="62390" y="36178" width="1067" height="500"/>
    <rect class="fil4 str20" x="63590" y="37311" width="1067" height="500"/>
    <rect class="fil4 str20" x="63590" y="36744" width="1067" height="500"/>
    <rect class="fil4 str20" x="63590" y="36178" width="1067" height="500"/>
   </g>
   <rect class="fil4 str20" x="62390" y="35594" width="500" height="500"/>
   <rect class="fil4 str20" x="62390" y="35027" width="500" height="500"/>
   <rect class="fil4 str20" x="62390" y="34460" width="500" height="500"/>
   <rect class="fil4 str20" x="62390" y="33894" width="500" height="500"/>
   <rect class="fil4 str20" x="62390" y="33327" width="500" height="500"/>
   <rect class="fil4 str20" x="62390" y="32694" width="500" height="500"/>
   <rect class="fil4 str20" x="62390" y="32127" width="500" height="500"/>
   <rect class="fil4 str20" x="62957" y="35594" width="500" height="500"/>
   <rect class="fil4 str20" x="62957" y="35027" width="500" height="500"/>
   <rect class="fil4 str20" x="62957" y="34460" width="500" height="500"/>
   <rect class="fil4 str20" x="62957" y="33894" width="500" height="500"/>
   <rect class="fil4 str20" x="62957" y="33327" width="500" height="500"/>
   <rect class="fil4 str20" x="62957" y="32694" width="500" height="500"/>
   <rect class="fil4 str20" x="62957" y="32127" width="500" height="500"/>
   <rect class="fil4 str20" x="63590" y="35594" width="500" height="500"/>
   <rect class="fil4 str20" x="63590" y="35027" width="500" height="500"/>
   <rect class="fil4 str20" x="63590" y="34460" width="500" height="500"/>
   <rect class="fil4 str20" x="63590" y="33894" width="500" height="500"/>
   <rect class="fil4 str20" x="63590" y="33327" width="500" height="500"/>
   <rect class="fil4 str20" x="63590" y="32694" width="500" height="500"/>
   <rect class="fil4 str20" x="63590" y="32127" width="500" height="500"/>
   <rect class="fil4 str20" x="64157" y="35594" width="500" height="500"/>
   <rect class="fil4 str20" x="64157" y="35027" width="500" height="500"/>
   <rect class="fil4 str20" x="64157" y="34460" width="500" height="500"/>
   <rect class="fil4 str20" x="64157" y="33894" width="500" height="500"/>
   <rect class="fil4 str20" x="64157" y="33327" width="500" height="500"/>
   <rect class="fil4 str20" x="64157" y="32694" width="500" height="500"/>
  </g>
  <g id="_358935568">
   <rect class="fil5 str20" x="66277" y="39084" width="1067" height="1067"/>
   <rect class="fil5 str20" x="65077" y="39084" width="1067" height="1067"/>
   <rect class="fil5 str20" x="65077" y="37950" width="1067" height="1067"/>
   <rect class="fil5 str20" x="65077" y="36817" width="1067" height="1067"/>
   <rect class="fil5 str20" x="66277" y="37950" width="1067" height="1067"/>
   <rect class="fil5 str20" x="66277" y="37384" width="1067" height="500"/>
   <rect class="fil5 str20" x="66277" y="36817" width="1067" height="500"/>
   <rect class="fil5 str20" x="66277" y="36250" width="1067" height="500"/>
   <g>
    <rect class="fil5 str20" x="65077" y="36250" width="500" height="500"/>
    <rect class="fil5 str20" x="65077" y="35684" width="500" height="500"/>
    <rect class="fil5 str20" x="65644" y="36250" width="500" height="500"/>
   </g>
  </g>
  <g id="_356865128">
   <rect class="fil4 str20" x="66014" y="28813" width="1067" height="500"/>
   <g>
    <rect class="fil4 str20" x="66014" y="28183" width="500" height="500"/>
    <rect class="fil4 str20" x="66014" y="27616" width="500" height="500"/>
    <rect class="fil4 str20" x="66014" y="27050" width="500" height="500"/>
    <rect class="fil4 str20" x="66014" y="26483" width="500" height="500"/>
    <rect class="fil4 str20" x="66014" y="25916" width="500" height="500"/>
    <rect class="fil4 str20" x="66014" y="25283" width="500" height="500"/>
    <rect class="fil4 str20" x="66014" y="24716" width="500" height="500"/>
    <rect class="fil4 str20" x="66014" y="24150" width="500" height="500"/>
    <rect class="fil4 str20" x="66014" y="23583" width="500" height="500"/>
    <rect class="fil4 str20" x="66580" y="28183" width="500" height="500"/>
    <rect class="fil4 str20" x="66580" y="27616" width="500" height="500"/>
    <rect class="fil4 str20" x="66580" y="27050" width="500" height="500"/>
    <rect class="fil4 str20" x="66580" y="26483" width="500" height="500"/>
    <rect class="fil4 str20" x="66580" y="25916" width="500" height="500"/>
    <rect class="fil4 str20" x="66580" y="25283" width="500" height="500"/>
    <rect class="fil4 str20" x="66580" y="24716" width="500" height="500"/>
    <rect class="fil4 str20" x="66580" y="24150" width="500" height="500"/>
   </g>
  </g>
  <g id="_356863400">
   <rect class="fil4 str20" x="68895" y="27270" width="1067" height="500"/>
   <rect class="fil4 str20" x="68895" y="26703" width="1067" height="500"/>
   <rect class="fil4 str20" x="68895" y="26137" width="1067" height="500"/>
   <rect class="fil4 str20" x="68895" y="25570" width="1067" height="500"/>
   <rect class="fil4 str20" x="68895" y="24937" width="1067" height="500"/>
   <rect class="fil4 str20" x="68895" y="27837" width="1067" height="500"/>
  </g>
  <g id="_356857520">
   <rect class="fil4 str20" x="39803" y="36990" width="1067" height="1067"/>
   <rect class="fil4 str20" x="39803" y="36296" width="500" height="500"/>
   <rect class="fil4 str20" x="39803" y="35729" width="500" height="500"/>
   <rect class="fil4 str20" x="39803" y="35162" width="500" height="500"/>
   <rect class="fil4 str20" x="39803" y="34596" width="500" height="500"/>
   <rect class="fil4 str20" x="39803" y="34029" width="500" height="500"/>
   <rect class="fil4 str20" x="40370" y="36296" width="500" height="500"/>
   <rect class="fil4 str20" x="40370" y="35729" width="500" height="500"/>
   <rect class="fil4 str20" x="40370" y="35162" width="500" height="500"/>
   <rect class="fil4 str20" x="40370" y="34596" width="500" height="500"/>
   <rect class="fil4 str20" x="40370" y="34029" width="500" height="500"/>
   <g>
    <rect class="fil4 str20" x="41003" y="35729" width="500" height="500"/>
    <rect class="fil4 str20" x="41003" y="35162" width="500" height="500"/>
    <rect class="fil4 str20" x="41003" y="34596" width="500" height="500"/>
    <rect class="fil4 str20" x="41003" y="34029" width="500" height="500"/>
    <rect class="fil4 str20" x="41570" y="35729" width="500" height="500"/>
    <rect class="fil4 str20" x="41570" y="35162" width="500" height="500"/>
    <rect class="fil4 str20" x="41570" y="34596" width="500" height="500"/>
   </g>
   <g>
    <rect class="fil4 str20" x="41003" y="37556" width="1067" height="500"/>
    <rect class="fil4 str20" x="41003" y="36992" width="1067" height="500"/>
    <rect class="fil4 str20" x="41003" y="36425" width="1067" height="500"/>
   </g>
  </g>
  <g id="_363580184">
   <rect class="fil5 str20" x="42482" y="37565" width="1067" height="500"/>
   <rect class="fil5 str20" x="43682" y="37565" width="1067" height="500"/>
   <g>
    <rect class="fil5 str20" x="42482" y="36918" width="500" height="500"/>
    <rect class="fil5 str20" x="42482" y="36352" width="500" height="500"/>
    <rect class="fil5 str20" x="42482" y="35785" width="500" height="500"/>
    <rect class="fil5 str20" x="42482" y="35218" width="500" height="500"/>
    <rect class="fil5 str20" x="42482" y="34652" width="500" height="500"/>
    <rect class="fil5 str20" x="42482" y="34018" width="500" height="500"/>
    <rect class="fil5 str20" x="42482" y="33452" width="500" height="500"/>
    <rect class="fil5 str20" x="42482" y="32885" width="500" height="500"/>
    <rect class="fil5 str20" x="42482" y="32318" width="500" height="500"/>
    <rect class="fil5 str20" x="42482" y="31752" width="500" height="500"/>
    <rect class="fil5 str20" x="43048" y="36918" width="500" height="500"/>
    <rect class="fil5 str20" x="43048" y="36352" width="500" height="500"/>
    <rect class="fil5 str20" x="43048" y="35785" width="500" height="500"/>
    <rect class="fil5 str20" x="43048" y="35218" width="500" height="500"/>
    <rect class="fil5 str20" x="43048" y="34652" width="500" height="500"/>
    <rect class="fil5 str20" x="43048" y="34018" width="500" height="500"/>
    <rect class="fil5 str20" x="43048" y="33452" width="500" height="500"/>
    <rect class="fil5 str20" x="43048" y="32885" width="500" height="500"/>
    <rect class="fil5 str20" x="43048" y="32318" width="500" height="500"/>
    <rect class="fil5 str20" x="43048" y="31752" width="500" height="500"/>
    <rect class="fil5 str20" x="43682" y="36918" width="500" height="500"/>
    <rect class="fil5 str20" x="43682" y="36352" width="500" height="500"/>
    <rect class="fil5 str20" x="43682" y="35785" width="500" height="500"/>
    <rect class="fil5 str20" x="43682" y="35218" width="500" height="500"/>
    <rect class="fil5 str20" x="43682" y="34652" width="500" height="500"/>
    <rect class="fil5 str20" x="43682" y="34018" width="500" height="500"/>
    <rect class="fil5 str20" x="43682" y="33452" width="500" height="500"/>
    <rect class="fil5 str20" x="44248" y="36918" width="500" height="500"/>
    <rect class="fil5 str20" x="44248" y="36352" width="500" height="500"/>
    <rect class="fil5 str20" x="44248" y="35785" width="500" height="500"/>
    <rect class="fil5 str20" x="44248" y="35218" width="500" height="500"/>
    <rect class="fil5 str20" x="44248" y="34652" width="500" height="500"/>
    <rect class="fil5 str20" x="44248" y="34018" width="500" height="500"/>
   </g>
  </g>
  <g id="_285310016">
   <rect class="fil4 str20" x="35987" y="26001" width="1067" height="500"/>
   <rect class="fil4 str20" x="37187" y="26001" width="1067" height="500"/>
   <g>
    <rect class="fil4 str20" x="35987" y="25354" width="500" height="500"/>
    <rect class="fil4 str20" x="35987" y="24787" width="500" height="500"/>
    <rect class="fil4 str20" x="35987" y="24220" width="500" height="500"/>
    <rect class="fil4 str20" x="35987" y="23654" width="500" height="500"/>
    <rect class="fil4 str20" x="35987" y="23087" width="500" height="500"/>
    <rect class="fil4 str20" x="35987" y="22454" width="500" height="500"/>
    <rect class="fil4 str20" x="35987" y="21887" width="500" height="500"/>
    <rect class="fil4 str20" x="35987" y="21320" width="500" height="500"/>
    <rect class="fil4 str20" x="35987" y="20754" width="500" height="500"/>
    <rect class="fil4 str20" x="35987" y="20187" width="500" height="500"/>
    <rect class="fil4 str20" x="36553" y="25354" width="500" height="500"/>
    <rect class="fil4 str20" x="36553" y="24787" width="500" height="500"/>
    <rect class="fil4 str20" x="36553" y="24220" width="500" height="500"/>
    <rect class="fil4 str20" x="36553" y="23654" width="500" height="500"/>
    <rect class="fil4 str20" x="36553" y="23087" width="500" height="500"/>
    <rect class="fil4 str20" x="36553" y="22454" width="500" height="500"/>
    <rect class="fil4 str20" x="36553" y="21887" width="500" height="500"/>
    <rect class="fil4 str20" x="36553" y="21320" width="500" height="500"/>
    <rect class="fil4 str20" x="36553" y="20754" width="500" height="500"/>
    <rect class="fil4 str20" x="36553" y="20187" width="500" height="500"/>
    <rect class="fil4 str20" x="37187" y="25354" width="500" height="500"/>
    <rect class="fil4 str20" x="37187" y="24787" width="500" height="500"/>
    <rect class="fil4 str20" x="37187" y="24220" width="500" height="500"/>
    <rect class="fil4 str20" x="37187" y="23654" width="500" height="500"/>
    <rect class="fil4 str20" x="37187" y="23087" width="500" height="500"/>
    <rect class="fil4 str20" x="37187" y="22454" width="500" height="500"/>
    <rect class="fil4 str20" x="37187" y="21887" width="500" height="500"/>
    <rect class="fil4 str20" x="37753" y="25354" width="500" height="500"/>
    <rect class="fil4 str20" x="37753" y="24787" width="500" height="500"/>
    <rect class="fil4 str20" x="37753" y="24220" width="500" height="500"/>
    <rect class="fil4 str20" x="37753" y="23654" width="500" height="500"/>
    <rect class="fil4 str20" x="37753" y="23087" width="500" height="500"/>
    <rect class="fil4 str20" x="37753" y="22454" width="500" height="500"/>
   </g>
  </g>
  <g id="_285287312">
   <rect class="fil5 str20" x="38617" y="25434" width="1067" height="500"/>
   <rect class="fil5 str20" x="38617" y="24867" width="1067" height="500"/>
   <rect class="fil5 str20" x="38617" y="24301" width="1067" height="500"/>
   <rect class="fil5 str20" x="38617" y="23734" width="1067" height="500"/>
   <rect class="fil5 str20" x="38617" y="23101" width="1067" height="500"/>
   <rect class="fil5 str20" x="38617" y="22534" width="1067" height="500"/>
   <rect class="fil5 str20" x="38617" y="21967" width="1067" height="500"/>
   <rect class="fil5 str20" x="38617" y="26001" width="1067" height="500"/>
  </g>
  <g id="_285304208">
   <rect class="fil4 str20" x="43029" y="24275" width="1067" height="500"/>
   <rect class="fil4 str20" x="43029" y="23708" width="1067" height="500"/>
   <rect class="fil4 str20" x="43029" y="23141" width="1067" height="500"/>
   <rect class="fil4 str20" x="43029" y="22575" width="1067" height="500"/>
   <rect class="fil4 str20" x="43029" y="21941" width="1067" height="500"/>
   <rect class="fil4 str20" x="43029" y="24841" width="1067" height="500"/>
  </g>
  <g id="_363131680">
   <rect class="fil4 str20" x="56801" y="39764" width="1067" height="1067"/>
   <rect class="fil4 str20" x="55601" y="39764" width="1067" height="1067"/>
   <rect class="fil4 str20" x="55601" y="38630" width="1067" height="1067"/>
   <rect class="fil4 str20" x="56801" y="38630" width="1067" height="1067"/>
   <g>
    <rect class="fil4 str20" x="55601" y="38034" width="1067" height="500"/>
    <rect class="fil4 str20" x="55601" y="37467" width="1067" height="500"/>
    <rect class="fil4 str20" x="55601" y="36900" width="1067" height="500"/>
    <rect class="fil4 str20" x="56801" y="38034" width="1067" height="500"/>
    <rect class="fil4 str20" x="56801" y="37467" width="1067" height="500"/>
   </g>
   <g>
    <rect class="fil4 str20" x="56801" y="36896" width="500" height="500"/>
    <rect class="fil4 str20" x="56801" y="36329" width="500" height="500"/>
    <rect class="fil4 str20" x="57368" y="36896" width="500" height="500"/>
   </g>
  </g>
  <g id="_363126568">
   <rect class="fil5 str20" x="59483" y="39764" width="1067" height="1067"/>
   <rect class="fil5 str20" x="58283" y="39764" width="1067" height="1067"/>
   <rect class="fil5 str20" x="58283" y="38630" width="1067" height="1067"/>
   <rect class="fil5 str20" x="58283" y="37497" width="1067" height="1067"/>
   <rect class="fil5 str20" x="58283" y="36364" width="1067" height="1067"/>
   <rect class="fil5 str20" x="59483" y="38630" width="1067" height="1067"/>
   <rect class="fil5 str20" x="59483" y="37497" width="1067" height="1067"/>
   <rect class="fil5 str20" x="59483" y="36364" width="1067" height="1067"/>
  </g>
 </g>
 </g>
</svg>
