<?xml version="1.0" encoding="UTF-8"?>
<!DOCTYPE svg PUBLIC "-//W3C//DTD SVG 1.1//EN" "http://www.w3.org/Graphics/SVG/1.1/DTD/svg11.dtd">
<!-- Creator: CorelDRAW X6 -->
<svg onload="Init(evt)" xmlns:attrib="http://www.carto.net/attrib"
xmlns="http://www.w3.org/2000/svg" xml:space="preserve" x="0px" y="0px"  width="1000px" height="500px" version="1.1" style="shape-rendering:geometricPrecision; text-rendering:geometricPrecision; image-rendering:optimizeQuality; fill-rule:evenodd; clip-rule:evenodd"
viewBox="0 0 100000 50000"
 xmlns:xlink="http://www.w3.org/1999/xlink">
 <script  xlink:href="../js/Map.js"></script>
<script  type="text/javascript" xlink:href="../js/mapApp.js"></script>
<script  type="text/javascript" xlink:href="../js/helper_functions.js"></script>
<script  type="text/javascript" xlink:href="../js/timer.js"></script>
<script  type="text/javascript">
	var myMapApp = new mapApp(false,undefined);//与tooltip相关
	var obc;//
	
	window.onSVGLoad=initLater();
	function initLater() {
     	//this timeout is because of the bbox bug in Firefox which prevents to have access to bbox in onload scripts
     	window.setTimeout("init()",100);
    }
	function init() {
		
	    /* 添加tooltip*/
        //tooltip styles
        var tooltipTextStyles = {"font-family":"Arial,Helvetica","fill":"dimgray","font-size":1300};
        var tooltipRectStyles = {"fill":"white","stroke":"dimgray"};
        myMapApp.initTooltips("toolTip",tooltipTextStyles,tooltipRectStyles,10,20,3);
        //add tooltip to element
		myMapApp.addTooltip("zt",undefined,true,false,"target","name");
		
	}
	
	
	function Newlegend1(){
	 document.getElementById('legend1').setAttribute("style", "visibility: visible");
	 document.getElementById('legend11').setAttribute("style", "visibility: visible");
	 document.getElementById('legend2').setAttribute("style", "visibility: hidden");
	 document.getElementById('legend22').setAttribute("style", "visibility: hidden");
	}
	function Newlegend2(){
	document.getElementById('legend2').setAttribute("style", "visibility: visible");
	 document.getElementById('legend22').setAttribute("style", "visibility: visible");
	 document.getElementById('legend1').setAttribute("style", "visibility: hidden");
	 document.getElementById('legend11').setAttribute("style", "visibility: hidden");
	}
	function Changecolor(evt)
	{
	document.getElementById('Legend2').setAttribute("class", "str0");
	document.getElementById('Legend1').setAttribute("class", "str0");
	var obj = evt.target;           
    obj.setAttribute("class", "str1"); 
	}
	function Recovercolor(evt){
	var obj = evt.target;           
    obj.setAttribute("class", "str0");
	}
</script>

 <defs>
  <style type="text/css">
   <![CDATA[
    .str6 {stroke:#332C2B;stroke-width:34.6364}
    .str4 {stroke:#332C2B;stroke-width:45.4545}
    .str2 {stroke:#AC6249;stroke-width:45.4545}
    .str3 {stroke:#332C2B;stroke-width:54.5455}
    .str0 {stroke:#985618;stroke-width:104.545}
    .str5 {stroke:#332C2B;stroke-width:68.1818;stroke-dasharray:681.818182 272.727273}
    .str1 {stroke:#AC6249;stroke-width:68.1818;stroke-dasharray:681.818182 272.727273}
    .fil1 {fill:none}
    .fil3 {fill:#332C2B}
    .fil2 {fill:#346F87}
    .fil4 {fill:#931E20}
    .fil6 {fill:#00A2E9;fill-opacity:0.000000}
    .fil0 {fill:url(#id0)}
    .fil5 {fill:url(#id1)}
    .fnt2 {font-weight:normal;font-size:641.409px;font-family:'宋体'}
    .fnt0 {font-weight:normal;font-size:801.773px;font-family:'Arial Unicode MS'}
    .fnt1 {font-weight:normal;font-size:962.136px;font-family:'Arial Unicode MS'}
    .fnt4 {font-weight:normal;font-size:962.136px;font-family:'Sakkal Majalla'}
    .fnt6 {font-weight:normal;font-size:962.136px;font-family:'Times New Roman'}
    .fnt3 {font-weight:normal;font-size:962.136px;font-family:'宋体'}
    .fnt5 {font-weight:normal;font-size:1122.45px;font-family:'宋体'}
    .fnt7 {font-weight:normal;font-size:1282.82px;font-family:'Arial'}
    .fnt8 {font-weight:normal;font-size:1603.55px;font-family:'宋体'}
   ]]>
  </style>
  <linearGradient id="id0" gradientUnits="userSpaceOnUse" x1="51194.4" y1="13907.5" x2="51194.4" y2="20624.4">
   <stop offset="0" style="stop-color:#C8B989"/>
   <stop offset="0.521569" style="stop-color:#E7E5CA"/>
   <stop offset="1" style="stop-color:#F9F8F4"/>
  </linearGradient>
  <linearGradient id="id1" gradientUnits="userSpaceOnUse" x1="26198.5" y1="29307.2" x2="26198.5" y2="38283.2">
   <stop offset="0" style="stop-color:#C7B287"/>
   <stop offset="0.521569" style="stop-color:#E7E5CA"/>
   <stop offset="1" style="stop-color:#F9F8F4"/>
  </linearGradient>
 </defs>
  <g id="map">
 <g id="图层_x0020_1">
  <metadata id="CorelCorpID_0Corel-Layer"/>
  <path class="fil0" d="M8018 20624l36 -6247c0,-68 155,244 157,263 25,220 43,399 85,494 43,95 68,256 85,464 17,208 0,292 34,381 34,89 68,131 77,256 9,125 -34,173 43,328 77,155 136,191 162,304 26,113 34,250 34,369 0,119 17,208 51,328 14,48 18,97 24,142 9,66 23,125 78,168 93,71 162,-71 281,-226 119,-155 502,-369 578,-441 77,-71 247,-339 289,-405 43,-66 221,-89 298,-167 77,-77 68,-232 187,-250 119,-18 255,-77 272,-161 17,-83 60,-214 170,-179 111,36 204,71 272,101 68,30 102,119 196,167 94,48 179,83 247,89 68,6 204,143 238,197 34,54 221,95 298,101 77,6 298,18 459,137 162,119 383,310 757,459 374,149 612,226 935,95 323,-131 357,-137 434,-202 77,-66 136,-137 289,-143 153,-6 213,-48 230,-149 17,-101 68,-179 170,-137 102,42 17,71 187,66 170,-6 306,6 468,113 162,107 442,351 570,316 128,-36 366,-214 468,-316 102,-101 204,-66 264,-71 60,-6 77,-42 119,-107 43,-66 77,-113 162,-77 85,36 281,179 434,137 153,-42 374,-18 502,-214 128,-197 306,-453 374,-750 68,-298 60,-554 145,-506 85,48 162,173 238,60 77,-113 94,-113 145,-345 51,-232 51,-268 128,-119 77,149 119,274 179,77 60,-197 153,-488 179,-709 26,-220 85,-375 162,-71 77,304 43,488 196,536 153,48 298,71 315,191 17,119 60,256 170,244 111,-12 145,-12 213,-66 68,-54 349,-131 485,-12 136,119 298,244 349,286 51,42 128,-12 179,-107 51,-95 187,-125 281,-83 94,42 247,161 366,143 119,-18 128,6 196,-60 68,-66 213,-12 247,71 34,83 128,113 366,149 238,36 476,24 663,-77 187,-101 468,-220 561,-304 94,-83 162,-155 323,-167 162,-12 357,-89 417,-202 60,-113 153,-179 196,-304 43,-125 85,-191 179,-54 94,137 196,322 323,328 128,6 238,-30 349,18 111,48 162,66 281,-83 119,-149 128,-167 221,-155 94,12 196,125 281,71 85,-54 204,-131 281,-95 77,36 434,464 612,470 179,6 204,24 255,89 51,66 60,143 213,143 153,0 264,77 366,149 102,71 238,89 306,-77 68,-167 136,-405 264,-447 128,-42 179,-71 289,-256 111,-185 145,-351 213,-298 68,54 136,274 306,381 170,107 196,143 247,232 51,89 196,89 255,131 60,42 43,202 145,191 102,-12 162,-48 238,-179 77,-131 153,-286 213,-238 60,48 238,119 315,143 77,24 221,131 306,214 85,83 238,66 323,30 85,-36 153,-155 298,-131 145,24 247,54 442,-30 196,-83 306,-262 442,-220 136,42 179,149 306,54 128,-95 255,-155 264,-220 9,-66 34,-6 111,54 77,60 306,304 425,399 119,95 162,149 264,119 102,-30 136,-89 281,-60 145,30 315,54 408,-6 94,-60 196,-60 306,0 111,60 213,119 289,113 77,-6 136,42 238,214 102,173 119,280 238,232 119,-48 230,-18 289,101 60,119 136,107 230,119 94,12 272,95 340,149 68,54 94,173 230,167 136,-6 697,-77 816,-18 119,60 230,179 391,185 162,6 306,66 451,143 145,77 179,89 281,-60 102,-149 281,-375 468,-381 187,-6 230,36 357,-18 128,-54 272,-36 391,-24 119,12 323,-48 408,-149 85,-101 247,-280 349,-351 102,-71 170,-125 204,-185 34,-60 102,-42 153,54 51,95 264,494 366,578 102,83 238,244 408,274 170,30 238,95 434,42 196,-54 400,-137 476,-393 77,-256 102,-328 170,-375 68,-48 77,-202 128,-339 51,-137 68,-262 170,-304 102,-42 136,-60 179,107 43,167 68,441 170,649 102,208 153,322 391,464 238,143 298,238 374,292 77,54 238,89 332,95 94,6 323,-54 459,-149 136,-95 663,-304 850,-286 187,18 417,42 561,83 145,42 383,125 621,0 238,-125 468,-316 587,-530 119,-214 238,-339 306,-423 68,-83 136,-155 187,-89 51,66 221,578 383,679 162,101 374,256 519,286 145,30 332,101 425,125 94,24 391,42 578,36 187,-6 366,42 468,149 102,107 179,66 383,-95 204,-161 502,-226 689,-208 187,18 417,-42 519,-119 102,-77 349,-30 417,-18 68,12 281,66 383,-12 102,-77 238,-214 400,-286 162,-71 349,-220 366,-262 17,-42 26,173 170,351 145,179 255,328 493,304 238,-24 561,-95 876,-54 315,42 366,107 519,125 153,18 264,-48 408,12 145,60 425,244 561,238 136,-6 374,-42 493,24 119,66 264,214 604,226 340,12 842,60 1233,-71 391,-131 629,-250 706,-298 77,-48 289,-95 366,-107 77,-12 323,-214 417,-304 94,-89 306,-197 366,-298 60,-101 136,-310 238,-441 102,-131 238,-250 264,-333 26,-83 34,-375 68,-506 34,-131 34,-369 102,-95 68,274 170,840 187,1000 17,161 34,268 77,333 43,66 111,286 145,435 34,149 111,482 255,453 145,-30 196,-101 323,-286 128,-185 221,-298 383,-405 162,-107 204,-173 323,-113 119,60 187,202 238,339 51,137 289,351 434,333 145,-18 204,-66 383,48 179,113 255,191 442,185 187,-6 306,-36 434,-226 128,-191 332,-459 374,-560 43,-101 187,-322 272,-274 85,48 119,42 170,155 51,113 111,363 196,470 85,107 136,268 340,244 204,-24 264,-113 366,-54 102,60 162,179 281,161 119,-18 204,-24 349,30 145,54 298,60 383,-30 85,-89 162,-286 264,-268 102,18 663,369 799,316 136,-54 281,-119 391,-48 111,71 179,238 366,60 187,-179 281,-268 425,-256 145,12 136,24 255,113 119,89 272,131 400,71 128,-60 145,-95 255,-65 111,30 425,179 612,48 187,-131 553,-530 689,-709 136,-179 221,-226 298,-197 77,30 179,71 238,262 60,191 68,280 111,310 43,30 77,137 102,244 26,107 136,173 272,143 136,-30 247,-137 349,-113 102,24 179,77 332,12 153,-66 247,-89 357,-6 111,83 340,327 502,351 162,24 281,12 366,95 85,83 247,363 315,351 68,-12 111,-71 196,-262 85,-191 187,-262 306,-262 119,0 170,-12 247,18 77,30 162,83 272,77 111,-6 162,48 204,95 43,48 102,95 187,113 85,18 247,101 255,244 9,143 77,411 247,339 170,-71 323,-173 383,-304 60,-131 162,-256 230,-322 68,-66 136,-42 196,6 60,48 179,268 272,310 94,42 179,149 204,268 26,119 26,447 119,369 94,-77 204,-220 238,-292 34,-71 77,-256 145,-328 68,-71 153,-107 238,-54 85,54 111,173 179,256 68,83 102,143 162,197 60,54 145,244 162,423 17,179 34,792 179,339 145,-453 213,-673 238,-762 26,-89 34,-155 119,-197 85,-42 128,-89 196,-42 68,48 102,77 145,238 43,161 17,435 102,208 85,-226 94,-381 272,-470 179,-89 357,-143 459,-357 102,-214 272,-703 391,-768 119,-66 170,-66 221,-18 51,48 102,137 187,333 85,197 136,375 247,405 111,30 179,42 289,-30 111,-71 230,-107 332,-77 102,30 77,54 170,95 94,42 153,60 332,101 179,42 400,71 442,197 43,125 26,613 136,512 111,-101 153,-143 315,-363 162,-220 221,-310 289,-381 68,-71 128,-149 230,-66 102,83 77,48 136,149 60,101 77,113 136,149 60,36 77,143 94,238 17,95 17,405 60,548 43,143 68,113 153,-18 85,-131 162,-357 170,-530 9,-173 43,-429 153,-530 111,-101 213,-143 213,-143 0,0 85,54 119,292 34,238 77,351 145,232 68,-119 94,-179 94,-250 0,-71 60,-208 196,-268 136,-60 187,-30 221,-89 34,-60 136,-71 204,-60 68,12 128,6 179,101 51,95 43,131 153,131 111,0 213,-42 332,60 119,101 162,244 196,375 34,131 60,268 179,244 119,-24 119,-42 272,-155 153,-113 238,-155 366,-256 128,-101 264,-208 323,-179 60,30 85,119 145,125 60,6 170,-12 255,60 85,71 204,125 238,173 34,48 77,143 145,149 68,6 187,42 306,-42 119,-83 187,-238 340,-232 153,6 281,36 357,107 77,71 94,143 196,143 102,0 264,-54 357,42 94,95 213,310 213,435 0,125 -26,185 17,381 43,197 94,423 136,381 43,-42 60,-155 77,-292 17,-137 94,-250 111,-333 17,-83 26,-238 43,-351 17,-113 26,-226 128,-316 102,-89 145,-155 264,-220 119,-66 218,-190 289,-202l135 -24 18 3674 -86353 1z"/>
  <path class="fil1 str0" d="M8057 14330c0,0 128,89 153,310 26,220 43,399 85,494 43,95 68,256 85,464 17,208 0,292 34,381 34,89 68,131 77,256 9,125 -34,173 43,328 77,155 136,191 162,304 26,113 34,250 34,369 0,119 17,208 51,328 14,48 18,97 24,142 9,66 23,125 78,168 93,71 162,-71 281,-226 119,-155 502,-369 578,-441 77,-71 247,-339 289,-405 43,-66 221,-89 298,-167 77,-77 68,-232 187,-250 119,-18 255,-77 272,-161 17,-83 60,-214 170,-179 111,36 204,71 272,101 68,30 102,119 196,167 94,48 179,83 247,89 68,6 204,143 238,197 34,54 221,95 298,101 77,6 298,18 459,137 162,119 383,310 757,459 374,149 612,226 935,95 323,-131 357,-137 434,-202 77,-66 136,-137 289,-143 153,-6 213,-48 230,-149 17,-101 68,-179 170,-137 102,42 17,71 187,66 170,-6 306,6 468,113 162,107 442,351 570,316 128,-36 366,-214 468,-316 102,-101 204,-66 264,-71 60,-6 77,-42 119,-107 43,-66 77,-113 162,-77 85,36 281,179 434,137 153,-42 374,-18 502,-214 128,-197 306,-453 374,-750 68,-298 60,-554 145,-506 85,48 162,173 238,60 77,-113 94,-113 145,-345 51,-232 51,-268 128,-119 77,149 119,274 179,77 60,-197 153,-488 179,-709 26,-220 85,-375 162,-71 77,304 43,488 196,536 153,48 298,71 315,191 17,119 60,256 170,244 111,-12 145,-12 213,-66 68,-54 349,-131 485,-12 136,119 298,244 349,286 51,42 128,-12 179,-107 51,-95 187,-125 281,-83 94,42 247,161 366,143 119,-18 128,6 196,-60 68,-66 213,-12 247,71 34,83 128,113 366,149 238,36 476,24 663,-77 187,-101 468,-220 561,-304 94,-83 162,-155 323,-167 162,-12 357,-89 417,-202 60,-113 153,-179 196,-304 43,-125 85,-191 179,-54 94,137 196,322 323,328 128,6 238,-30 349,18 111,48 162,66 281,-83 119,-149 128,-167 221,-155 94,12 196,125 281,71 85,-54 204,-131 281,-95 77,36 434,464 612,470 179,6 204,24 255,89 51,66 60,143 213,143 153,0 264,77 366,149 102,71 238,89 306,-77 68,-167 136,-405 264,-447 128,-42 179,-71 289,-256 111,-185 145,-351 213,-298 68,54 136,274 306,381 170,107 196,143 247,232 51,89 196,89 255,131 60,42 43,202 145,191 102,-12 162,-48 238,-179 77,-131 153,-286 213,-238 60,48 238,119 315,143 77,24 221,131 306,214 85,83 238,66 323,30 85,-36 153,-155 298,-131 145,24 247,54 442,-30 196,-83 306,-262 442,-220 136,42 179,149 306,54 128,-95 255,-155 264,-220 9,-66 34,-6 111,54 77,60 306,304 425,399 119,95 162,149 264,119 102,-30 136,-89 281,-60 145,30 315,54 408,-6 94,-60 196,-60 306,0 111,60 213,119 289,113 77,-6 136,42 238,214 102,173 119,280 238,232 119,-48 230,-18 289,101 60,119 136,107 230,119 94,12 272,95 340,149 68,54 94,173 230,167 136,-6 697,-77 816,-18 119,60 230,179 391,185 162,6 306,66 451,143 145,77 179,89 281,-60 102,-149 281,-375 468,-381 187,-6 230,36 357,-18 128,-54 272,-36 391,-24 119,12 323,-48 408,-149 85,-101 247,-280 349,-351 102,-71 170,-125 204,-185 34,-60 102,-42 153,54 51,95 264,494 366,578 102,83 238,244 408,274 170,30 238,95 434,42 196,-54 400,-137 476,-393 77,-256 102,-328 170,-375 68,-48 77,-202 128,-339 51,-137 68,-262 170,-304 102,-42 136,-60 179,107 43,167 68,441 170,649 102,208 153,322 391,464 238,143 298,238 374,292 77,54 238,89 332,95 94,6 323,-54 459,-149 136,-95 663,-304 850,-286 187,18 417,42 561,83 145,42 383,125 621,0 238,-125 468,-316 587,-530 119,-214 238,-339 306,-423 68,-83 136,-155 187,-89 51,66 221,578 383,679 162,101 374,256 519,286 145,30 332,101 425,125 94,24 391,42 578,36 187,-6 366,42 468,149 102,107 179,66 383,-95 204,-161 502,-226 689,-208 187,18 417,-42 519,-119 102,-77 349,-30 417,-18 68,12 281,66 383,-12 102,-77 238,-214 400,-286 162,-71 349,-220 366,-262 17,-42 26,173 170,351 145,179 255,328 493,304 238,-24 561,-95 876,-54 315,42 366,107 519,125 153,18 264,-48 408,12 145,60 425,244 561,238 136,-6 374,-42 493,24 119,66 264,214 604,226 340,12 842,60 1233,-71 391,-131 629,-250 706,-298 77,-48 289,-95 366,-107 77,-12 323,-214 417,-304 94,-89 306,-197 366,-298 60,-101 136,-310 238,-441 102,-131 238,-250 264,-333 26,-83 34,-375 68,-506 34,-131 34,-369 102,-95 68,274 170,840 187,1000 17,161 34,268 77,333 43,66 111,286 145,435 34,149 111,482 255,453 145,-30 196,-101 323,-286 128,-185 221,-298 383,-405 162,-107 204,-173 323,-113 119,60 187,202 238,339 51,137 289,351 434,333 145,-18 204,-66 383,48 179,113 255,191 442,185 187,-6 306,-36 434,-226 128,-191 332,-459 374,-560 43,-101 187,-322 272,-274 85,48 119,42 170,155 51,113 111,363 196,470 85,107 136,268 340,244 204,-24 264,-113 366,-54 102,60 162,179 281,161 119,-18 204,-24 349,30 145,54 298,60 383,-30 85,-89 162,-286 264,-268 102,18 663,369 799,316 136,-54 281,-119 391,-48 111,71 179,238 366,60 187,-179 281,-268 425,-256 145,12 136,24 255,113 119,89 272,131 400,71 128,-60 145,-95 255,-65 111,30 425,179 612,48 187,-131 553,-530 689,-709 136,-179 221,-226 298,-197 77,30 179,71 238,262 60,191 68,280 111,310 43,30 77,137 102,244 26,107 136,173 272,143 136,-30 247,-137 349,-113 102,24 179,77 332,12 153,-66 247,-89 357,-6 111,83 340,327 502,351 162,24 281,12 366,95 85,83 247,363 315,351 68,-12 111,-71 196,-262 85,-191 187,-262 306,-262 119,0 170,-12 247,18 77,30 162,83 272,77 111,-6 162,48 204,95 43,48 102,95 187,113 85,18 247,101 255,244 9,143 77,411 247,339 170,-71 323,-173 383,-304 60,-131 162,-256 230,-322 68,-66 136,-42 196,6 60,48 179,268 272,310 94,42 179,149 204,268 26,119 26,447 119,369 94,-77 204,-220 238,-292 34,-71 77,-256 145,-328 68,-71 153,-107 238,-54 85,54 111,173 179,256 68,83 102,143 162,197 60,54 145,244 162,423 17,179 34,792 179,339 145,-453 213,-673 238,-762 26,-89 34,-155 119,-197 85,-42 128,-89 196,-42 68,48 102,77 145,238 43,161 17,435 102,208 85,-226 94,-381 272,-470 179,-89 357,-143 459,-357 102,-214 272,-703 391,-768 119,-66 170,-66 221,-18 51,48 102,137 187,333 85,197 136,375 247,405 111,30 179,42 289,-30 111,-71 230,-107 332,-77 102,30 77,54 170,95 94,42 153,60 332,101 179,42 400,71 442,197 43,125 26,613 136,512 111,-101 153,-143 315,-363 162,-220 221,-310 289,-381 68,-71 128,-149 230,-66 102,83 77,48 136,149 60,101 77,113 136,149 60,36 77,143 94,238 17,95 17,405 60,548 43,143 68,113 153,-18 85,-131 162,-357 170,-530 9,-173 43,-429 153,-530 111,-101 213,-143 213,-143 0,0 85,54 119,292 34,238 77,351 145,232 68,-119 94,-179 94,-250 0,-71 60,-208 196,-268 136,-60 187,-30 221,-89 34,-60 136,-71 204,-60 68,12 128,6 179,101 51,95 43,131 153,131 111,0 213,-42 332,60 119,101 162,244 196,375 34,131 60,268 179,244 119,-24 119,-42 272,-155 153,-113 238,-155 366,-256 128,-101 264,-208 323,-179 60,30 85,119 145,125 60,6 170,-12 255,60 85,71 204,125 238,173 34,48 77,143 145,149 68,6 187,42 306,-42 119,-83 187,-238 340,-232 153,6 281,36 357,107 77,71 94,143 196,143 102,0 264,-54 357,42 94,95 213,310 213,435 0,125 -26,185 17,381 43,197 94,423 136,381 43,-42 60,-155 77,-292 17,-137 94,-250 111,-333 17,-83 26,-238 43,-351 17,-113 26,-226 128,-316 102,-89 145,-155 264,-220 119,-66 230,-173 289,-202 60,-30 153,-24 153,-24"/>
  <path class="fil1 str1" d="M8732 17734c0,0 0,862 24,1065 24,203 193,626 193,761 0,135 72,-85 169,-304 97,-220 121,-744 193,-947 72,-203 97,-389 121,-541 24,-152 24,-304 24,-304"/>
  <path class="fil1 str1" d="M13803 17514c0,0 145,998 193,1184 48,186 145,541 145,710 0,169 72,304 145,-51 72,-355 97,-490 97,-643 0,-152 169,-710 169,-845 0,-135 0,-389 0,-389l24 -118"/>
  <path class="fil1 str1" d="M16362 17159c0,0 72,693 97,947 24,254 145,727 169,964 24,237 145,845 217,118 72,-727 386,-1353 338,-1505 -48,-152 24,-676 24,-676"/>
  <path class="fil1 str1" d="M39180 16432c0,0 217,1336 266,1505 48,169 72,406 121,558 48,152 97,389 97,524 0,135 48,220 48,220 0,0 121,-1742 121,-1860 0,-118 48,-575 48,-575l-24 -355 -314 -85 -241 17 -121 51z"/>
  <path class="fil1 str1" d="M42802 16415c0,0 202,1222 202,1286 0,64 110,617 129,720 18,103 147,798 147,798 0,0 73,-309 92,-476 18,-167 92,-669 92,-759 0,-90 110,-720 129,-798 18,-77 110,-823 110,-823 0,0 55,-142 -147,-167 -202,-26 -643,-39 -643,-39l-110 26"/>
  <path class="fil1 str1" d="M58655 16595l827 2959 1065 -3062c0,0 -404,64 -533,51 -129,-13 -367,0 -625,-13 -257,-13 -441,-13 -533,0 -92,13 -202,64 -202,64z"/>
  <line class="fil1 str2" x1="94331" y1="18131" x2="93509" y2= "18073" />
  <line class="fil1 str2" x1="86963" y1="18131" x2="87018" y2= "18687" />
  <line class="fil1 str2" x1="87319" y1="17421" x2="88058" y2= "17383" />
  <line class="fil1 str2" x1="89181" y1="17344" x2="89401" y2= "17344" />
  <line class="fil1 str2" x1="90058" y1="17364" x2="91181" y2= "17344" />
  <line class="fil1 str2" x1="93661" y1="17394" x2="94346" y2= "17509" />
  <line class="fil1 str2" x1="85812" y1="16961" x2="86388" y2= "17210" />
  <line class="fil1 str2" x1="85045" y1="16903" x2="84635" y2= "17153" />
  <line class="fil1 str2" x1="83046" y1="16826" x2="83840" y2= "16769" />
  <line class="fil1 str2" x1="82964" y1="16443" x2="83402" y2= "16520" />
  <line class="fil1 str2" x1="82635" y1="17306" x2="85456" y2= "17325" />
  <line class="fil1 str2" x1="86031" y1="17421" x2="86881" y2= "17498" />
  <line class="fil1 str2" x1="82005" y1="17651" x2="81676" y2= "17651" />
  <line class="fil1 str2" x1="80964" y1="17594" x2="80307" y2= "17613" />
  <line class="fil1 str2" x1="80800" y1="17364" x2="80444" y2= "17383" />
  <line class="fil1 str2" x1="79868" y1="17344" x2="79019" y2= "17306" />
  <path class="fil1 str2" d="M78855 17459c0,0 301,38 466,19 164,-19 657,58 657,58"/>
  <line class="fil1 str2" x1="78499" y1="17325" x2="78143" y2= "17364" />
  <line class="fil1 str2" x1="77978" y1="16846" x2="77020" y2= "16807" />
  <line class="fil1 str2" x1="76445" y1="16826" x2="75322" y2= "16769" />
  <line class="fil1 str2" x1="74089" y1="15944" x2="73295" y2= "15982" />
  <line class="fil1 str2" x1="67269" y1="15752" x2="66775" y2= "15752" />
  <line class="fil1 str2" x1="64584" y1="15848" x2="63927" y2= "15887" />
  <line class="fil1 str2" x1="63050" y1="15215" x2="62722" y2= "15407" />
  <line class="fil1 str2" x1="62639" y1="14736" x2="62859" y2= "14889" />
  <line class="fil1 str2" x1="62064" y1="15656" x2="63050" y2= "15733" />
  <line class="fil1 str2" x1="60996" y1="16309" x2="61736" y2= "16366" />
  <line class="fil1 str2" x1="63078" y1="15752" x2="62667" y2= "16098" />
  <path class="fil1 str2" d="M48834 15733c0,0 82,77 247,38 164,-38 466,19 466,19l137 -19"/>
  <line class="fil1 str2" x1="44589" y1="15618" x2="44068" y2= "15599" />
  <line class="fil1 str2" x1="37850" y1="16232" x2="37029" y2= "16251" />
  <polyline class="fil1 str2" points="34974,15273 34806,15474 34591,15733 "/>
  <path class="fil1 str2" d="M34755 15503c0,0 -301,-96 -575,-77 -274,19 -575,115 -986,115 -411,0 -1150,0 -1534,19 -383,19 -2356,96 -2903,77 -548,-19 -1589,-38 -2054,-38 -466,0 -2164,-19 -2356,-38 -192,-19 -329,-38 -329,-38"/>
  <path class="fil1 str2" d="M23224 15503c0,0 -904,173 -1068,192 -164,19 -466,0 -466,0"/>
  <path class="fil1 str2" d="M20457 15637c0,0 -740,38 -986,173 -247,134 -520,269 -520,269"/>
  <path class="fil1 str2" d="M19553 15273c0,0 274,-134 520,-134 247,0 630,58 630,58"/>
  <line class="fil1 str2" x1="20265" y1="15714" x2="19827" y2= "16270" />
  <line class="fil1 str2" x1="19142" y1="16654" x2="18622" y2= "16750" />
  <line class="fil1 str2" x1="10131" y1="16807" x2="10514" y2= "16769" />
  <line class="fil1 str2" x1="11884" y1="16692" x2="11637" y2= "16769" />
  <path class="fil1 str2" d="M8624 16807c0,0 -137,-96 -301,-19 -164,77 -247,96 -247,96"/>
  <line class="fil1 str2" x1="8679" y1="15848" x2="8213" y2= "16002" />
  <line class="fil1 str2" x1="82277" y1="17627" x2="83344" y2= "17635" />
  <line class="fil1 str2" x1="84432" y1="17713" x2="85554" y2= "17705" />
  <path class="fil1 str2" d="M85776 17720c0,0 300,62 478,70 178,8 611,16 611,16"/>
  <path class="fil1 str2" d="M93118 17947c0,0 -444,70 -700,70 -255,0 -1111,-23 -1111,-23"/>
  <path class="fil1 str2" d="M90119 17900c0,0 -866,0 -1200,-39 -333,-39 -544,-47 -878,-23 -333,23 -833,16 -833,16"/>
  <line class="fil1 str3" x1="94330" y1="12965" x2="94374" y2= "20624" />
  <line class="fil1 str4" x1="94330" y1="13992" x2="94658" y2= "13992" />
  <g id="_747067680">
   <path class="fil1 str4" d="M94330 15107c109,0 219,0 328,0"/>
   <path class="fil1 str4" d="M94330 16222c109,0 219,0 328,0"/>
   <path class="fil1 str4" d="M94330 17337c109,0 219,0 328,0"/>
   <path class="fil1 str4" d="M94330 18452c109,0 219,0 328,0"/>
  </g>
  <line class="fil1 str4" x1="94330" y1="19567" x2="94658" y2= "19567" />
  <line class="fil1 str3" x1="8062" y1="12965" x2="8018" y2= "20624" />
  <line class="fil1 str4" x1="8062" y1="13992" x2="7734" y2= "13992" />
  <g id="_747065952">
   <path class="fil1 str4" d="M8062 15107c-109,0 -219,0 -328,0"/>
   <path class="fil1 str4" d="M8062 16222c-109,0 -219,0 -328,0"/>
   <path class="fil1 str4" d="M8062 17337c-109,0 -219,0 -328,0"/>
   <path class="fil1 str4" d="M8062 18452c-109,0 -219,0 -328,0"/>
  </g>
  <line class="fil1 str4" x1="8062" y1="19567" x2="7734" y2= "19567" />
  <line class="fil1 str3" x1="7800" y1="20623" x2="94963" y2= "20623" />
  <path class="fil1 str2" d="M15355 17982c0,0 -140,190 -40,320 100,130 170,260 70,440 -100,180 -130,240 -90,370 40,130 20,300 -10,420 -30,120 10,160 40,260 30,100 -10,140 -50,290 -40,150 -70,230 10,310 80,80 100,130 100,130"/>
  <text x="8627" y="16112"  class="fil2 fnt0">FR</text>
  <text x="10593" y="17154"  class="fil2 fnt0">FR</text>
  <text x="11898" y="17716"  class="fil2 fnt0">S</text>
  <text x="13607" y="18434"  class="fil2 fnt0">CD</text>
  <text x="8167" y="17706"  class="fil2 fnt0">S</text>
  <text x="8682" y="18858"  class="fil2 fnt0">Ac</text>
  <text x="15187" y="17863"  class="fil2 fnt0">BA</text>
  <text x="17549" y="17688"  class="fil2 fnt0">BA</text>
  <text x="16308" y="18342"  class="fil2 fnt0">Ac</text>
  <text x="19129" y="16619"  class="fil2 fnt0">S</text>
  <text x="20618" y="16002"  class="fil2 fnt0">FR</text>
  <text x="22979" y="16453"  class="fil2 fnt0">SI</text>
  <text x="26866" y="15477"  class="fil2 fnt0">FR</text>
  <text x="35277" y="16096"  class="fil2 fnt0">SI</text>
  <text x="38095" y="17116"  class="fil2 fnt0">S</text>
  <text x="40944" y="16972"  class="fil2 fnt0">S</text>
  <text x="44109" y="16608"  class="fil2 fnt0">S</text>
  <text x="46717" y="17049"  class="fil2 fnt0">S</text>
  <text x="50343" y="17097"  class="fil2 fnt0">S</text>
  <text x="52932" y="16963"  class="fil2 fnt0">SI</text>
  <text x="56078" y="16896"  class="fil2 fnt0">SI</text>
  <text x="61852" y="16464"  class="fil2 fnt0">SI</text>
  <text x="60586" y="17423"  class="fil2 fnt0">M</text>
  <text x="63137" y="15486"  class="fil2 fnt0">FR</text>
  <text x="65074" y="17193"  class="fil2 fnt0">F</text>
  <text x="69755" y="17346"  class="fil2 fnt0">F</text>
  <text x="73553" y="16800"  class="fil2 fnt0">F</text>
  <text x="76209" y="17922"  class="fil2 fnt0">BF</text>
  <text x="80794" y="19099"  class="fil2 fnt0">DC</text>
  <text x="86587" y="19262"  class="fil2 fnt0">DC</text>
  <text x="84899" y="16848"  class="fil2 fnt0">BF</text>
  <text x="82415" y="16713"  class="fil2 fnt0">F</text>
  <text x="83489" y="18094"  class="fil2 fnt0">Bu</text>
  <text x="88141" y="17624"  class="fil2 fnt0">BF</text>
  <text x="92786" y="19374"  class="fil2 fnt0">DC</text>
  <text x="90222" y="18114"  class="fil2 fnt0">Bu</text>
  <text x="4959" y="15423"  class="fil3 fnt1">6</text>
  <text x="5815" y="15423"  class="fil3 fnt1">000</text>
  <text x="5494" y="15423"  class="fil3 fnt2"> </text>
  <text x="4959" y="16540"  class="fil3 fnt1">5</text>
  <text x="5815" y="16540"  class="fil3 fnt1">000</text>
  <text x="5494" y="16540"  class="fil3 fnt2"> </text>
  <text x="4959" y="17632"  class="fil3 fnt1">4</text>
  <text x="5815" y="17632"  class="fil3 fnt1">000</text>
  <text x="5494" y="17632"  class="fil3 fnt2"> </text>
  <text x="4959" y="18799"  class="fil3 fnt1">3</text>
  <text x="5815" y="18799"  class="fil3 fnt1">000</text>
  <text x="5494" y="18799"  class="fil3 fnt2"> </text>
  <text x="4959" y="19891"  class="fil3 fnt1">2</text>
  <text x="5815" y="19891"  class="fil3 fnt1">000</text>
  <text x="5494" y="19891"  class="fil3 fnt2"> </text>
  <text x="4959" y="20958"  class="fil3 fnt1">1</text>
  <text x="5815" y="20958"  class="fil3 fnt1">000</text>
  <text x="5494" y="20958"  class="fil3 fnt2"> </text>
  <line class="fil1 str4" x1="11016" y1="20608" x2="11016" y2= "20931" />
  <g id="_748037920">
   <path class="fil1 str4" d="M15180 20608c0,108 0,215 0,323"/>
   <path class="fil1 str4" d="M19344 20608c0,108 0,215 0,323"/>
   <path class="fil1 str4" d="M23508 20608c0,108 0,215 0,323"/>
   <path class="fil1 str4" d="M27672 20608c0,108 0,215 0,323"/>
   <path class="fil1 str4" d="M31836 20608c0,108 0,215 0,323"/>
   <path class="fil1 str4" d="M36000 20608c0,108 0,215 0,323"/>
   <path class="fil1 str4" d="M40164 20608c0,108 0,215 0,323"/>
   <path class="fil1 str4" d="M44328 20608c0,108 0,215 0,323"/>
   <path class="fil1 str4" d="M48492 20608c0,108 0,215 0,323"/>
   <path class="fil1 str4" d="M52656 20608c0,108 0,215 0,323"/>
   <path class="fil1 str4" d="M56820 20608c0,108 0,215 0,323"/>
   <path class="fil1 str4" d="M60984 20608c0,108 0,215 0,323"/>
   <path class="fil1 str4" d="M65148 20608c0,108 0,215 0,323"/>
   <path class="fil1 str4" d="M69312 20608c0,108 0,215 0,323"/>
   <path class="fil1 str4" d="M73476 20608c0,108 0,215 0,323"/>
   <path class="fil1 str4" d="M77640 20608c0,108 0,215 0,323"/>
   <path class="fil1 str4" d="M81804 20608c0,108 0,215 0,323"/>
   <path class="fil1 str4" d="M85968 20608c0,108 0,215 0,323"/>
  </g>
  <line class="fil1 str4" x1="90132" y1="20608" x2="90132" y2= "20931" />
  <line class="fil1 str4" x1="8027" y1="22294" x2="8027" y2= "24136" />
  <line class="fil1 str4" x1="15300" y1="22294" x2="15300" y2= "24136" />
  <text x="10469" y="22050"  class="fil3 fnt1">79</text>
  <text x="11540" y="22050"  class="fil3 fnt3">°</text>
  <text x="14673" y="22050"  class="fil3 fnt1">80</text>
  <text x="15743" y="22050"  class="fil3 fnt1">°</text>
  <text x="18846" y="22050"  class="fil3 fnt1">81</text>
  <text x="19916" y="22050"  class="fil3 fnt1">°</text>
  <text x="22988" y="22050"  class="fil3 fnt1">82</text>
  <text x="24058" y="22050"  class="fil3 fnt1">°</text>
  <text x="27068" y="22050"  class="fil3 fnt1">83</text>
  <text x="28138" y="22050"  class="fil3 fnt1">°</text>
  <text x="31209" y="22050"  class="fil3 fnt1">84</text>
  <text x="32280" y="22050"  class="fil3 fnt1">°</text>
  <text x="35351" y="22050"  class="fil3 fnt1">85</text>
  <text x="36421" y="22050"  class="fil3 fnt1">°</text>
  <text x="39648" y="22050"  class="fil3 fnt1">86</text>
  <text x="40718" y="22050"  class="fil3 fnt1">°</text>
  <text x="43789" y="22050"  class="fil3 fnt1">87</text>
  <text x="44860" y="22050"  class="fil3 fnt1">°</text>
  <text x="47962" y="22050"  class="fil3 fnt1">88</text>
  <text x="49032" y="22050"  class="fil3 fnt1">°</text>
  <text x="52135" y="22050"  class="fil3 fnt1">89</text>
  <text x="53205" y="22050"  class="fil3 fnt1">°</text>
  <text x="56431" y="22050"  class="fil3 fnt1">90</text>
  <text x="57501" y="22050"  class="fil3 fnt1">°</text>
  <text x="60388" y="22050"  class="fil3 fnt1">91</text>
  <text x="61458" y="22050"  class="fil3 fnt1">°</text>
  <text x="64684" y="22050"  class="fil3 fnt1">92</text>
  <text x="65754" y="22050"  class="fil3 fnt1">°</text>
  <text x="68857" y="22050"  class="fil3 fnt1">93</text>
  <text x="69927" y="22050"  class="fil3 fnt1">°</text>
  <text x="72937" y="22050"  class="fil3 fnt1">94</text>
  <text x="74007" y="22050"  class="fil3 fnt1">°</text>
  <text x="77109" y="22050"  class="fil3 fnt1">95</text>
  <text x="78180" y="22050"  class="fil3 fnt1">°</text>
  <text x="81344" y="22050"  class="fil3 fnt1">96</text>
  <text x="82414" y="22050"  class="fil3 fnt1">°</text>
  <text x="85455" y="22050"  class="fil3 fnt1">97</text>
  <text x="86525" y="22050"  class="fil3 fnt1">°</text>
  <text x="89597" y="22050"  class="fil3 fnt1">98</text>
  <text x="90667" y="22050"  class="fil3 fnt1">°</text>
  <text x="11438" y="23379"  class="fil3 fnt1">32</text>
  <text x="12893" y="23379"  class="fil3 fnt1">24</text>
  <text x="12509" y="23379"  class="fil3 fnt1">°</text>
  <text x="13964" y="23379"  class="fil3 fnt1">′</text>
  <text x="9352" y="23456"  class="fil3 fnt1">北纬</text>
  <text x="7486" y="22004"  class="fil4 fnt1">东经</text>
  <text x="11783" y="20427"  class="fil3 fnt1">狮泉河</text>
  <text x="15615" y="20396"  class="fil3 fnt1">象泉河</text>
  <text x="38488" y="20396"  class="fil3 fnt1">塔若错</text>
  <text x="41795" y="20396"  class="fil3 fnt1">唐古拉攸穆错</text>
  <text x="57961" y="20396"  class="fil3 fnt1">纳木错</text>
  <text x="80370" y="20396"  class="fil3 fnt1">怒江</text>
  <text x="85965" y="20396"  class="fil3 fnt1">澜沧江</text>
  <text x="91265" y="20396"  class="fil3 fnt1">金沙江</text>
  <text x="18157" y="11482"  class="fil3 fnt1">冈底斯山脉</text>
  <text x="18157" y="12848"  class="fil3 fnt1">冈仁波齐峰</text>
  <text x="18157" y="13953"  class="fil3 fnt1">  </text>
  <text x="20832" y="13953"  class="fil3 fnt1">米</text>
  <text x="18692" y="13953"  class="fil3 fnt1">6638</text>
  <text x="59914" y="12397"  class="fil3 fnt1">念青唐古拉山脉</text>
  <text x="84319" y="12393"  class="fil3 fnt1">横断山脉</text>
  <text x="7684" y="11670"  class="fil4 fnt4">W</text>
  <text x="94031" y="11670"  class="fil4 fnt4">E</text>
  <text x="7866" y="26870"  class="fil4 fnt4">N</text>
  <line class="fil1 str4" x1="7260" y1="32575" x2="7588" y2= "32575" />
  <g id="_668920336">
   <path class="fil1 str4" d="M7260 33685c109,0 219,0 328,0"/>
   <path class="fil1 str4" d="M7260 34796c109,0 219,0 328,0"/>
   <path class="fil1 str4" d="M7260 35906c109,0 219,0 328,0"/>
   <path class="fil1 str4" d="M7261 37017c109,0 219,0 328,0"/>
  </g>
  <line class="fil1 str4" x1="7261" y1="38128" x2="7589" y2= "38128" />
  <line class="fil1 str4" x1="7260" y1="30404" x2="7588" y2= "30404" />
  <line class="fil1 str4" x1="7260" y1="31504" x2="7588" y2= "31504" />
  <g id="_668917552">
   <text x="95026" y="14353"  class="fil3 fnt1">6</text>
   <text x="95882" y="14353"  class="fil3 fnt1">000</text>
   <text x="95561" y="14353"  class="fil3 fnt2"> </text>
   <text x="95026" y="15470"  class="fil3 fnt1">5</text>
   <text x="95882" y="15470"  class="fil3 fnt1">000</text>
   <text x="95561" y="15470"  class="fil3 fnt2"> </text>
   <text x="95026" y="16562"  class="fil3 fnt1">4</text>
   <text x="95882" y="16562"  class="fil3 fnt1">000</text>
   <text x="95561" y="16562"  class="fil3 fnt2"> </text>
   <text x="95026" y="17728"  class="fil3 fnt1">3</text>
   <text x="95882" y="17728"  class="fil3 fnt1">000</text>
   <text x="95561" y="17728"  class="fil3 fnt2"> </text>
   <text x="95026" y="18820"  class="fil3 fnt1">2</text>
   <text x="95882" y="18820"  class="fil3 fnt1">000</text>
   <text x="95561" y="18820"  class="fil3 fnt2"> </text>
   <text x="95026" y="19887"  class="fil3 fnt1">1</text>
   <text x="95882" y="19887"  class="fil3 fnt1">000</text>
   <text x="95561" y="19887"  class="fil3 fnt2"> </text>
  </g>
  <text x="4751" y="32765"  class="fil3 fnt1">6</text>
  <text x="5607" y="32765"  class="fil3 fnt1">000</text>
  <text x="5287" y="32765"  class="fil3 fnt2"> </text>
  <text x="4751" y="33882"  class="fil3 fnt1">5</text>
  <text x="5607" y="33882"  class="fil3 fnt1">000</text>
  <text x="5287" y="33882"  class="fil3 fnt2"> </text>
  <text x="4751" y="34974"  class="fil3 fnt1">4</text>
  <text x="5607" y="34974"  class="fil3 fnt1">000</text>
  <text x="5287" y="34974"  class="fil3 fnt2"> </text>
  <text x="4751" y="36140"  class="fil3 fnt1">3</text>
  <text x="5607" y="36140"  class="fil3 fnt1">000</text>
  <text x="5287" y="36140"  class="fil3 fnt2"> </text>
  <text x="4751" y="37232"  class="fil3 fnt1">2</text>
  <text x="5607" y="37232"  class="fil3 fnt1">000</text>
  <text x="5287" y="37232"  class="fil3 fnt2"> </text>
  <text x="4751" y="38300"  class="fil3 fnt1">1</text>
  <text x="5607" y="38300"  class="fil3 fnt1">000</text>
  <text x="5287" y="38300"  class="fil3 fnt2"> </text>
  <text x="4751" y="31783"  class="fil3 fnt1">7</text>
  <text x="5607" y="31783"  class="fil3 fnt1">000</text>
  <text x="5287" y="31783"  class="fil3 fnt2"> </text>
  <text x="4751" y="30756"  class="fil3 fnt1">8</text>
  <text x="5607" y="30756"  class="fil3 fnt1">000</text>
  <text x="5287" y="30756"  class="fil3 fnt2"> </text>
  <line class="fil1 str4" x1="7558" y1="29386" x2="7602" y2= "38139" />
  <path class="fil1 str0" d="M7545 31770c0,0 96,-231 232,-251 40,-6 48,28 75,51 64,56 73,203 93,227 20,24 74,13 88,62 14,48 32,271 179,299 146,28 99,82 142,326 43,244 28,397 113,440 85,43 142,57 199,241 57,184 0,298 113,326 113,28 213,-14 312,85 99,99 99,128 213,14 113,-113 156,-326 241,-227 85,99 113,255 199,199 85,-57 57,-184 170,-142 113,43 156,99 284,57 128,-43 581,-496 709,-383 128,113 128,369 284,397 156,28 298,-71 369,-298 71,-227 113,-284 213,-170 99,113 128,156 156,227 28,71 0,71 99,28 99,-43 312,-99 383,14 71,113 184,227 227,340 43,113 57,241 156,241 99,0 113,-57 241,14 128,71 199,71 340,28 142,-43 255,-71 355,-14 99,57 170,71 284,-28 113,-99 128,-184 241,-85 113,99 128,156 241,57 113,-99 184,-57 255,14 71,71 269,71 355,71 85,0 85,43 184,57 99,14 425,-241 525,-298 99,-57 99,-57 199,14 99,71 113,-43 142,-128 28,-85 28,-128 184,-156 156,-28 241,-71 340,-184 99,-113 199,-199 340,-113 142,85 255,85 355,-113 99,-199 184,-525 269,-581 85,-57 156,-227 199,-128 43,99 142,113 156,213 14,99 -28,99 71,156 99,57 128,71 142,142 14,71 0,199 99,71 99,-128 71,-269 184,-184 113,85 99,184 213,199 113,14 170,28 213,142 43,113 28,199 85,326 57,128 57,425 113,284 57,-142 199,-369 227,-468 28,-99 14,-227 113,-298 99,-71 128,-170 184,-284 57,-113 113,-269 199,-43 85,227 241,539 326,511 85,-28 128,-284 170,-411 43,-128 156,-184 199,-57 43,128 -14,227 71,355 85,128 113,199 156,369 43,170 28,312 128,312 99,0 184,-156 241,-340 57,-184 170,-539 255,-440 85,99 113,340 156,440 43,99 156,269 255,156 99,-113 255,-383 326,-539 71,-156 142,-340 199,-468 57,-128 85,-170 184,-128 99,43 142,241 156,355 14,113 43,71 113,57 71,-14 99,-43 170,57 71,99 213,496 312,525 99,28 184,71 312,0 128,-71 213,-28 340,28 128,57 213,156 340,170 128,14 170,14 298,99 128,85 241,28 383,-43 142,-71 269,-14 355,-28 85,-14 142,-113 241,-71 99,43 199,128 355,128 156,0 326,-57 468,-14 142,43 227,99 397,85 170,-14 454,-85 539,-43 85,43 255,156 525,113 269,-43 667,-142 808,-85 142,57 298,113 425,213 128,99 156,213 298,128 142,-85 326,-213 482,-255 156,-43 184,-170 269,-85 85,85 113,113 227,-14 113,-128 142,-269 284,-269 142,0 284,85 468,14 184,-71 340,-184 425,-284 85,-99 128,-156 213,-113 85,43 326,-128 411,-156 85,-28 142,-99 227,-57 85,43 113,142 269,14 156,-128 213,-184 326,-184 113,0 213,142 298,128 85,-14 156,0 213,99 57,99 -14,241 71,227 85,-14 142,-156 213,-213 71,-57 170,-57 241,43 71,99 99,142 213,85 113,-57 113,0 199,199 85,199 184,596 241,667 57,71 71,255 170,128 99,-128 99,-397 213,-369 113,28 298,794 340,979 43,184 170,667 269,525 99,-142 227,-355 269,-482 43,-128 156,-255 213,-156 57,99 128,284 128,355 0,71 57,99 128,14 71,-85 85,-57 170,-142 85,-85 142,-213 170,-383 28,-170 71,-326 170,-468 99,-142 227,-269 227,-369 0,-99 28,-128 99,-113 71,14 113,128 156,43 43,-85 156,-326 199,-241 43,85 156,411 156,411 0,0 14,43 85,-71 71,-113 128,-14 142,71 14,85 71,170 156,199 85,28 85,71 142,170 57,99 57,113 142,85 85,-28 85,-113 113,-199 28,-85 43,-156 142,-28 99,128 99,227 241,269 142,43 170,71 255,170 85,99 255,227 340,85 85,-142 170,-355 241,-454 71,-99 113,-156 99,-269 -14,-113 14,-652 85,-667 71,-14 128,269 184,142 57,-128 142,-496 199,-638 57,-142 43,-425 57,-539 14,-113 43,-213 128,-184 85,28 156,184 170,255 14,71 28,213 99,184 71,-28 269,-255 312,-823 43,-567 156,-1106 227,-1234 71,-128 184,-284 184,-411 0,-128 128,-326 128,-326 0,0 57,-43 113,128 57,170 85,766 113,908 28,142 57,355 128,397 71,43 128,57 128,142 0,85 28,43 113,85 85,43 128,128 113,255 -14,128 -43,170 14,269 57,99 170,610 199,993 28,383 0,610 43,723 43,113 57,199 113,43 57,-156 71,-113 99,0 28,113 57,184 113,340 57,156 28,397 99,482 71,85 85,85 128,-71 43,-156 85,-227 99,-113 14,113 113,312 142,440 28,128 0,610 14,709 14,99 43,369 85,511 43,142 43,227 57,355 14,128 -28,156 99,28 128,-128 142,-269 213,-99 71,170 43,539 142,496 99,-43 99,-128 156,43 57,170 241,709 312,879 71,170 172,259 237,388 66,129 151,261 167,420 16,159 -87,183 -195,-6 -108,-189 -139,-125 -233,2 -94,127 -189,40 -260,-42 -71,-83 -215,-298 -317,-195 -103,103 -216,201 -326,92 -110,-109 -195,-98 -262,5 -67,102 -159,74 -244,3 -85,-71 -148,-93 -202,-1 -54,93 -124,101 -204,7 -80,-93 -95,-151 -150,-89 -56,62 -63,71 -84,95 -22,26 -50,57 -104,143"/>
  <path class="fil5" d="M7589 38128l-30 -6271c-1,-177 47,-266 142,-298 42,-14 28,-103 168,19 67,58 59,242 86,226 28,-16 99,42 99,156 0,113 58,155 157,198 99,43 128,71 142,326 14,255 28,397 113,440 85,43 142,57 199,241 57,184 0,298 113,326 113,28 213,-14 312,85 99,99 99,128 213,14 113,-113 156,-326 241,-227 85,99 113,255 199,199 85,-57 57,-184 170,-142 113,43 156,99 284,57 128,-43 581,-496 709,-383 128,113 128,369 284,397 156,28 298,-71 369,-298 71,-227 113,-284 213,-170 99,113 128,156 156,227 28,71 0,71 99,28 99,-43 312,-99 383,14 71,113 184,227 227,340 43,113 57,241 156,241 99,0 113,-57 241,14 128,71 199,71 340,28 142,-43 255,-71 355,-14 99,57 170,71 284,-28 113,-99 128,-184 241,-85 113,99 128,156 241,57 113,-99 184,-57 255,14 71,71 269,71 355,71 85,0 85,43 184,57 99,14 425,-241 525,-298 99,-57 99,-57 199,14 99,71 113,-43 142,-128 28,-85 28,-128 184,-156 156,-28 241,-71 340,-184 99,-113 199,-199 340,-113 142,85 255,85 355,-113 99,-199 184,-525 269,-581 85,-57 156,-227 199,-128 43,99 142,113 156,213 14,99 -28,99 71,156 99,57 128,71 142,142 14,71 0,199 99,71 99,-128 71,-269 184,-184 113,85 99,184 213,199 113,14 170,28 213,142 43,113 28,199 85,326 57,128 57,425 113,284 57,-142 199,-369 227,-468 28,-99 14,-227 113,-298 99,-71 128,-170 184,-284 57,-113 113,-269 199,-43 85,227 241,539 326,511 85,-28 128,-284 170,-411 43,-128 156,-184 199,-57 43,128 -14,227 71,355 85,128 113,199 156,369 43,170 28,312 128,312 99,0 184,-156 241,-340 57,-184 170,-539 255,-440 85,99 113,340 156,440 43,99 156,269 255,156 99,-113 255,-383 326,-539 71,-156 142,-340 199,-468 57,-128 85,-170 184,-128 99,43 142,241 156,355 14,113 43,71 113,57 71,-14 99,-43 170,57 71,99 213,496 312,525 99,28 184,71 312,0 128,-71 213,-28 340,28 128,57 213,156 340,170 128,14 170,14 298,99 128,85 241,28 383,-43 142,-71 269,-14 355,-28 85,-14 142,-113 241,-71 99,43 199,128 355,128 156,0 326,-57 468,-14 142,43 227,99 397,85 170,-14 454,-85 539,-43 85,43 255,156 525,113 269,-43 667,-142 808,-85 142,57 298,113 425,213 128,99 156,213 298,128 142,-85 326,-213 482,-255 156,-43 184,-170 269,-85 85,85 113,113 227,-14 113,-128 142,-269 284,-269 142,0 284,85 468,14 184,-71 340,-184 425,-284 85,-99 128,-156 213,-113 85,43 326,-128 411,-156 85,-28 142,-99 227,-57 85,43 113,142 269,14 156,-128 213,-184 326,-184 113,0 213,142 298,128 85,-14 156,0 213,99 57,99 -14,241 71,227 85,-14 142,-156 213,-213 71,-57 170,-57 241,43 71,99 99,142 213,85 113,-57 113,0 199,199 85,199 184,596 241,667 57,71 71,255 170,128 99,-128 99,-397 213,-369 113,28 298,794 340,979 43,184 170,667 269,525 99,-142 227,-355 269,-482 43,-128 156,-255 213,-156 57,99 128,284 128,355 0,71 57,99 128,14 71,-85 85,-57 170,-142 85,-85 142,-213 170,-383 28,-170 71,-326 170,-468 99,-142 227,-269 227,-369 0,-99 28,-128 99,-113 71,14 113,128 156,43 43,-85 156,-326 199,-241 43,85 156,411 156,411 0,0 14,43 85,-71 71,-113 128,-14 142,71 14,85 71,170 156,199 85,28 85,71 142,170 57,99 57,113 142,85 85,-28 85,-113 113,-199 28,-85 43,-156 142,-28 99,128 99,227 241,269 142,43 170,71 255,170 85,99 255,227 340,85 85,-142 170,-355 241,-454 71,-99 113,-156 99,-269 -14,-113 14,-652 85,-667 71,-14 128,269 184,142 57,-128 142,-496 199,-638 57,-142 43,-425 57,-539 14,-113 43,-213 128,-184 85,28 156,184 170,255 14,71 28,213 99,184 71,-28 269,-255 312,-823 43,-567 156,-1106 227,-1234 71,-128 184,-284 184,-411 0,-128 128,-326 128,-326 0,0 57,-43 113,128 57,170 85,766 113,908 28,142 57,355 128,397 71,43 128,57 128,142 0,85 28,43 113,85 85,43 128,128 113,255 -14,128 -43,170 14,269 57,99 170,610 199,993 28,383 0,610 43,723 43,113 57,199 113,43 57,-156 71,-113 99,0 28,113 57,184 113,340 57,156 28,397 99,482 71,85 85,85 128,-71 43,-156 85,-227 99,-113 14,113 113,312 142,440 28,128 0,610 14,709 14,99 43,369 85,511 43,142 43,227 57,355 14,128 -28,156 99,28 128,-128 142,-269 213,-99 71,170 43,539 142,496 99,-43 99,-128 156,43 57,170 241,709 312,879 71,170 172,259 237,388 66,129 151,261 167,420 16,159 -87,183 -195,-6 -108,-189 -139,-125 -233,2 -94,127 -189,40 -260,-42 -71,-83 -215,-298 -317,-195 -103,103 -216,201 -326,92 -110,-109 -195,-98 -262,5 -67,102 -159,74 -244,3 -85,-71 -148,-93 -202,-1 -54,93 -124,101 -204,7 -80,-93 -95,-151 -150,-89 -56,62 -168,214 -188,238 -22,26 -34597,-73 -34652,13z"/>
  <polyline class="fil1 str5" points="29001,33825 29177,36956 29295,34025 "/>
  <line class="fil1 str5" x1="35593" y1="35287" x2="35593" y2= "37182" />
  <path class="fil1 str2" d="M7571 32601c0,0 94,-227 107,-307 13,-80 67,94 107,187 40,94 94,120 147,53 53,-67 40,-107 160,67 120,174 187,321 281,334 94,13 120,13 120,13"/>
  <line class="fil1 str2" x1="7585" y1="33336" x2="7691" y2= "33349" />
  <line class="fil1 str2" x1="8426" y1="33416" x2="8761" y2= "33483" />
  <path class="fil1 str2" d="M10070 33670c0,0 267,-307 441,-294 174,13 481,40 601,107 120,67 374,0 494,-27 120,-27 575,53 735,147 160,94 374,254 374,254"/>
  <line class="fil1 str2" x1="16525" y1="33389" x2="17420" y2= "33403" />
  <line class="fil1 str2" x1="18316" y1="33376" x2="18957" y2= "33403" />
  <path class="fil1 str2" d="M19264 33376c0,0 174,-80 321,-53 147,27 508,40 722,53 214,13 468,107 468,107"/>
  <line class="fil1 str2" x1="21135" y1="33336" x2="21643" y2= "33429" />
  <line class="fil1 str2" x1="21950" y1="33296" x2="22164" y2= "33336" />
  <line class="fil1 str2" x1="23020" y1="33336" x2="23300" y2= "33323" />
  <path class="fil1 str2" d="M29127 33897c0,0 160,-67 241,-67 80,0 120,13 120,13"/>
  <line class="fil1 str2" x1="30236" y1="33737" x2="32521" y2= "33790" />
  <line class="fil1 str2" x1="33176" y1="33790" x2="34592" y2= "33844" />
  <line class="fil1 str2" x1="31358" y1="33229" x2="32601" y2= "33256" />
  <line class="fil1 str2" x1="33470" y1="33256" x2="34419" y2= "33282" />
  <path class="fil1 str2" d="M34245 33844c0,0 361,214 481,241 120,27 267,80 347,187 80,107 254,267 254,267"/>
  <line class="fil1 str2" x1="35221" y1="33897" x2="34993" y2= "34044" />
  <line class="fil1 str2" x1="36904" y1="33870" x2="37132" y2= "33884" />
  <line class="fil1 str2" x1="37613" y1="33897" x2="38267" y2= "33937" />
  <line class="fil1 str2" x1="36731" y1="34338" x2="37225" y2= "34365" />
  <path class="fil1 str2" d="M38027 34392c0,0 481,-13 601,-27 120,-13 548,0 615,27 67,27 80,27 80,27"/>
  <path class="fil1 str2" d="M39524 34285c0,0 441,-200 802,-227 361,-27 989,-13 1082,-40 94,-27 241,-40 241,-40"/>
  <path class="fil1 str2" d="M39804 33657c0,0 254,-27 374,-53 120,-27 481,-53 481,-53"/>
  <path class="fil1 str2" d="M41354 33550c0,0 321,67 428,53 107,-13 187,13 187,13"/>
  <path class="fil1 str2" d="M40178 32788c0,0 281,-80 521,13 241,94 815,347 922,334 107,-13 414,94 548,134 134,40 414,80 414,80"/>
  <path class="fil1 str2" d="M42517 33095c0,0 -227,-53 -321,-94 -94,-40 -147,-94 -147,-94"/>
  <line class="fil1 str2" x1="41207" y1="32507" x2="40312" y2= "32347" />
  <path class="fil1 str2" d="M36557 34707c0,0 356,-30 504,15 148,44 341,59 593,89 252,30 519,-15 919,30 400,44 533,133 711,104 178,-30 474,-44 474,-44"/>
  <path class="fil1 str2" d="M40335 34737c0,0 326,-44 474,-89 148,-44 267,-74 489,-30 222,44 311,44 504,30 193,-15 311,15 311,15"/>
  <path class="fil1 str2" d="M42395 34796c0,0 252,0 415,74 163,74 282,89 400,178 119,89 133,104 133,104"/>
  <path class="fil1 str2" d="M43343 34589c0,0 -148,15 -296,-30 -148,-44 -267,-119 -267,-119"/>
  <path class="fil1 str2" d="M41506 33166c0,0 -15,370 44,548 59,178 59,267 104,400 44,133 74,311 193,400 119,89 252,163 252,163"/>
  <path class="fil1 str2" d="M41580 34678c0,0 148,74 193,252 44,178 133,385 193,578 59,193 104,385 178,504 74,119 207,415 311,652 104,237 326,667 356,771 30,104 119,370 119,370l15 104"/>
  <path class="fil1 str2" d="M44158 36545c0,0 -548,-15 -859,-89 -311,-74 -578,-311 -726,-415 -148,-104 -474,-459 -474,-459l-119 -104"/>
  <line class="fil1 str2" x1="42365" y1="34781" x2="42558" y2= "35107" />
  <line class="fil1 str2" x1="43121" y1="35596" x2="43447" y2= "35804" />
  <path class="fil1 str2" d="M43210 36989c0,0 -504,-370 -593,-459 -89,-89 -178,-222 -267,-282 -89,-59 -163,-133 -163,-133"/>
  <path class="fil1 str2" d="M44336 37019c0,0 -193,74 -296,89 -104,15 -193,74 -296,44 -104,-30 -207,-30 -207,-30"/>
  <text x="8657" y="34503"  class="fil2 fnt0">MC</text>
  <text x="7575" y="33624"  class="fil2 fnt0">FR</text>
  <text x="14186" y="34731"  class="fil2 fnt0">S</text>
  <text x="17400" y="33540"  class="fil2 fnt0">FR</text>
  <text x="22035" y="33524"  class="fil2 fnt0">FR</text>
  <text x="32560" y="34095"  class="fil2 fnt0">SI</text>
  <text x="32609" y="33263"  class="fil2 fnt0">FB</text>
  <text x="29695" y="34480"  class="fil2 fnt0">S</text>
  <text x="34340" y="35182"  class="fil2 fnt0">BF</text>
  <text x="35268" y="34166"  class="fil2 fnt0">F</text>
  <text x="35770" y="35596"  class="fil2 fnt0">BF</text>
  <text x="35293" y="36261"  class="fil2 fnt0">A</text>
  <text x="37138" y="34091"  class="fil2 fnt0">F</text>
  <text x="37338" y="34643"  class="fil2 fnt0">SI</text>
  <text x="39538" y="35074"  class="fil2 fnt0">BA</text>
  <text x="40709" y="33959"  class="fil2 fnt0">SI</text>
  <text x="40053" y="33533"  class="fil2 fnt0">FP</text>
  <g transform="matrix(0.957004 0.290073 -0.290073 0.957004 498.077 -5697.96)">
   <text x="50000" y="25000"  class="fil2 fnt0">FR</text>
  </g>
  <g transform="matrix(0.915187 0.403029 -0.403029 0.915187 6115.12 -9137.6)">
   <text x="50000" y="25000"  class="fil2 fnt0">BF</text>
  </g>
  <text x="42612" y="33540"  class="fil2 fnt0">F</text>
  <text x="41959" y="34807"  class="fil2 fnt0">Bb</text>
  <text x="42495" y="35596"  class="fil2 fnt0">BL</text>
  <g transform="matrix(0.895833 0.444391 -0.444391 0.895833 8723.03 -8531.3)">
   <text x="50000" y="25000"  class="fil2 fnt0">AB</text>
  </g>
  <text x="42975" y="37328"  class="fil2 fnt0">YB</text>
  <text x="42814" y="38013"  class="fil2 fnt0">Y</text>
  <text x="6336" y="28515"  class="fil3 fnt1">昆仑山脉</text>
  <text x="7940" y="30875"  class="fil3 fnt1">木孜塔格峰</text>
  <text x="8332" y="31862"  class="fil3 fnt1">6973</text>
  <text x="10473" y="31862"  class="fil3 fnt1">米</text>
  <text x="17451" y="30106"  class="fil3 fnt1">可可西里山脉</text>
  <text x="26294" y="30106"  class="fil3 fnt1">大湖区</text>
  <text x="32211" y="28969"  class="fil3 fnt1">冈底斯山脉</text>
  <text x="39524" y="28512"  class="fil3 fnt1">喜马拉雅山脉</text>
  <text x="42156" y="29633"  class="fil3 fnt1">珠穆朗玛峰</text>
  <text x="42156" y="30601"  class="fil3 fnt1">8844.43</text>
  <text x="45634" y="30601"  class="fil3 fnt1">米</text>
  <text x="43596" y="26870"  class="fil4 fnt4">S</text>
  <text x="6129" y="39271"  class="fil2 fnt1">北纬</text>
  <line class="fil1 str4" x1="7582" y1="38134" x2="42301" y2= "38115" />
  <line class="fil1 str4" x1="8515" y1="38443" x2="8515" y2= "38115" />
  <g id="_755134736">
   <path class="fil1 str4" d="M12659 38443c0,-109 0,-219 0,-328"/>
   <path class="fil1 str4" d="M16802 38443c0,-109 0,-219 0,-328"/>
   <path class="fil1 str4" d="M20945 38443c0,-109 0,-219 0,-328"/>
   <path class="fil1 str4" d="M25089 38443c0,-109 0,-219 0,-328"/>
   <path class="fil1 str4" d="M29232 38443c0,-109 0,-219 0,-328"/>
   <path class="fil1 str4" d="M33375 38443c0,-109 0,-219 0,-328"/>
   <path class="fil1 str4" d="M37518 38443c0,-109 0,-219 0,-328"/>
  </g>
  <line class="fil1 str4" x1="41662" y1="38443" x2="41662" y2= "38115" />
  <text x="8151" y="39301"  class="fil3 fnt1">36</text>
  <text x="9221" y="39301"  class="fil3 fnt3">°</text>
  <text x="12138" y="39301"  class="fil3 fnt1">35</text>
  <text x="13208" y="39301"  class="fil3 fnt3">°</text>
  <text x="16277" y="39301"  class="fil3 fnt1">34</text>
  <text x="17348" y="39301"  class="fil3 fnt1">°</text>
  <text x="20416" y="39301"  class="fil3 fnt1">33</text>
  <text x="21487" y="39301"  class="fil3 fnt1">°</text>
  <text x="24591" y="39301"  class="fil3 fnt1">32</text>
  <text x="25661" y="39301"  class="fil3 fnt1">°</text>
  <text x="28695" y="39301"  class="fil3 fnt1">31</text>
  <text x="29765" y="39301"  class="fil3 fnt1">°</text>
  <text x="32798" y="39301"  class="fil3 fnt1">30</text>
  <text x="33868" y="39301"  class="fil3 fnt1">°</text>
  <text x="37008" y="39301"  class="fil3 fnt1">29</text>
  <text x="38079" y="39301"  class="fil3 fnt1">°</text>
  <text x="41183" y="39301"  class="fil3 fnt1">28</text>
  <text x="42253" y="39301"  class="fil3 fnt1">°</text>
  <text x="34453" y="37762"  class="fil3 fnt1">雅鲁藏布江</text>
  <text x="27996" y="37762"  class="fil3 fnt1">昂孜错</text>
  <line class="fil1 str6" x1="8046" y1="23202" x2="9257" y2= "23202" />
  <text x="3171" y="43222"  class="fil2 fnt1">FR</text>
  <text x="4592" y="42836"  class="fil3 fnt5">寒冻土</text>
  <text x="32518" y="45750"  class="fil2 fnt1">BL</text>
  <text x="33970" y="45362"  class="fil3 fnt5">漂灰土</text>
  <text x="12310" y="43230"  class="fil2 fnt1">S</text>
  <text x="13482" y="42836"  class="fil3 fnt5">莎嘎土</text>
  <text x="43931" y="45754"  class="fil2 fnt1">AB</text>
  <text x="45667" y="45360"  class="fil3 fnt5">酸性棕壤</text>
  <text x="20098" y="43230"  class="fil2 fnt1">SI</text>
  <text x="21921" y="42836"  class="fil3 fnt5">淋溶莎嘎土</text>
  <text x="54190" y="33191"  class="fil2 fnt1">YB</text>
  <text x="55899" y="32791"  class="fil3 fnt5">黄棕壤</text>
  <text x="54190" y="28057"  class="fil2 fnt1">Y</text>
  <text x="55899" y="27667"  class="fil3 fnt5">黄壤</text>
  <text x="32518" y="43226"  class="fil2 fnt1">F</text>
  <text x="33970" y="42836"  class="fil3 fnt5">草毡土</text>
  <text x="43931" y="43226"  class="fil2 fnt1">BF</text>
  <text x="45667" y="42832"  class="fil3 fnt5">淡黑毡土</text>
  <text x="54201" y="38247"  class="fil2 fnt1">AC</text>
  <text x="55899" y="37855"  class="fil3 fnt5">表聚碳酸盐阿嘎土</text>
  <text x="3171" y="45745"  class="fil2 fnt1">BA</text>
  <text x="4592" y="45342"  class="fil3 fnt5">巴嘎土</text>
  <text x="54190" y="35714"  class="fil2 fnt1">CD</text>
  <text x="55899" y="35322"  class="fil3 fnt5">冷漠土</text>
  <text x="54219" y="43308"  class="fil2 fnt1">FP</text>
  <text x="55899" y="42918"  class="fil3 fnt5">原始草毡土</text>
  <text x="54190" y="30568"  class="fil2 fnt1">M</text>
  <text x="55899" y="30178"  class="fil3 fnt5">毡状草甸土</text>
  <text x="54219" y="45830"  class="fil2 fnt1">Bb</text>
  <text x="55899" y="45430"  class="fil3 fnt5">泥灰漂灰棕毡土</text>
  <g transform="matrix(1 0 0 1 4201.05 15757.9)">
   <text x="50000" y="25000"  class="fil2 fnt1">DG</text>
  </g>
  <text x="55899" y="40370"  class="fil3 fnt5">碳酸盐褐土</text>
  <text x="12310" y="45748"  class="fil2 fnt1">Bu</text>
  <text x="13482" y="45360"  class="fil3 fnt5">棕壤</text>
  <text x="20098" y="45754"  class="fil2 fnt1">MC</text>
  <text x="21921" y="45362"  class="fil3 fnt5">漠嘎土</text>
  <text x="4592" y="43717"  class="fil3 fnt6">Frigid permafrost</text>
  <text x="33970" y="43794"  class="fil3 fnt6">Mat soil </text>
  <text x="13482" y="43716"  class="fil3 fnt6">Sally polish soil</text>
  <text x="21921" y="46271"  class="fil3 fnt6">Polish desert soil</text>
  <text x="4592" y="46194"  class="fil3 fnt6">Ba polish soil</text>
  <text x="33970" y="46271"  class="fil3 fnt6">Bleached podzonic soil</text>
  <text x="45667" y="46271"  class="fil3 fnt6">Acid brown soil</text>
  <text x="13482" y="46271"  class="fil3 fnt6">Brown soil</text>
  <text x="55899" y="33672"  class="fil3 fnt6">Yellow brown soil</text>
  <text x="55899" y="28530"  class="fil3 fnt6">Yellow soil</text>
  <text x="55899" y="31023"  class="fil3 fnt6">Felty meadows soil</text>
  <text x="21921" y="43716"  class="fil3 fnt6">Leaching sally polish soil</text>
  <text x="55899" y="38866"  class="fil3 fnt6">Carbonate accumulation A polish soil</text>
  <text x="55899" y="41287"  class="fil3 fnt6">Carbonate cinnamon soil</text>
  <text x="55899" y="43780"  class="fil3 fnt6">Primitive mat soil</text>
  <text x="55899" y="46274"  class="fil3 fnt6">Mud gray ash bleaching brown felt soil</text>
  <text x="45667" y="43716"  class="fil3 fnt6">Light black felt soil</text>
  <text x="55899" y="36244"  class="fil3 fnt6">Cold desert soil</text>
  <g id="_753385104">
   <text x="38402" y="9780"  class="fil3 fnt7">            Soil vertical distribution </text>
   <g transform="matrix(1.2 0 0 1 -11264.5 -16972.4)">
    <text x="44388" y="25000"  class="fil3 fnt8">  土壤垂直分布</text>
   </g>
  </g>
 </g>
 <g id="zt" attrib:tooltipAttrib="name" attrib:tooltipParent="true" attrib:tooltip="Tooltip"> 
  <metadata id="CorelCorpID_1Corel-Layer"/>
  <path id="fp"  attrib:name="原始草毡土" class="fil6" d="M40580 32687c401,0 726,250 726,558 0,308 -325,558 -726,558 -401,0 -726,-250 -726,-558 0,-308 325,-558 726,-558z"/>
  <path id="bb"   attrib:name="泥灰漂灰棕毡土" class="fil6" d="M42463 33967c401,0 726,250 726,558 0,308 -325,558 -726,558 -401,0 -726,-250 -726,-558 0,-308 325,-558 726,-558z"/>
  <path id="bl"   attrib:name="漂灰土" class="fil6" d="M43001 34751c401,0 726,250 726,558 0,308 -325,558 -726,558 -401,0 -726,-250 -726,-558 0,-308 325,-558 726,-558z"/>
  <path id="fr" attrib:name="寒冻土" class="fil6" d="M8137 32779c401,0 726,250 726,558 0,308 -325,558 -726,558 -401,0 -726,-250 -726,-558 0,-308 325,-558 726,-558z"/>
  <path id="fr_0" attrib:name="寒冻土" class="fil6" d="M41677 32061c401,0 726,250 726,558 0,308 -325,558 -726,558 -401,0 -726,-250 -726,-558 0,-308 325,-558 726,-558z"/>
  <path id="fr_1" attrib:name="寒冻土" class="fil6" d="M22597 32679c401,0 726,250 726,558 0,308 -325,558 -726,558 -401,0 -726,-250 -726,-558 0,-308 325,-558 726,-558z"/>
  <path id="fr_2"  attrib:name="寒冻土" class="fil6" d="M17962 32695c401,0 726,250 726,558 0,308 -325,558 -726,558 -401,0 -726,-250 -726,-558 0,-308 325,-558 726,-558z"/>
  <path id="fr_3"  attrib:name="寒冻土" class="fil6" d="M11155 16308c401,0 726,250 726,558 0,308 -325,558 -726,558 -401,0 -726,-250 -726,-558 0,-308 325,-558 726,-558z"/>
  <path id="fr_4"  attrib:name="寒冻土" class="fil6" d="M9189 15267c401,0 726,250 726,558 0,308 -325,558 -726,558 -401,0 -726,-250 -726,-558 0,-308 325,-558 726,-558z"/>
  <path id="fr_5"  attrib:name="寒冻土" class="fil6" d="M20997 15158c401,0 726,250 726,558 0,308 -325,558 -726,558 -401,0 -726,-250 -726,-558 0,-308 325,-558 726,-558z"/>
  <path id="fr_6"  attrib:name="寒冻土" class="fil6" d="M27428 14632c401,0 726,250 726,558 0,308 -325,558 -726,558 -401,0 -726,-250 -726,-558 0,-308 325,-558 726,-558z"/>
  <path id="fr_7"  attrib:name="寒冻土" class="fil6" d="M63699 14640c401,0 726,250 726,558 0,308 -325,558 -726,558 -401,0 -726,-250 -726,-558 0,-308 325,-558 726,-558z"/>
  <path id="mc"  attrib:name="漠嘎土" class="fil6" d="M9295 33658c401,0 726,250 726,558 0,308 -325,558 -726,558 -401,0 -726,-250 -726,-558 0,-308 325,-558 726,-558z"/>
  <path id="yb"  attrib:name="黄棕壤" class="fil6" d="M43491 36483c401,0 726,250 726,558 0,308 -325,558 -726,558 -401,0 -726,-250 -726,-558 0,-308 325,-558 726,-558z"/>
  <path id="y"  attrib:name="黄壤" class="fil6" d="M43081 37168c401,0 726,250 726,558 0,308 -325,558 -726,558 -401,0 -726,-250 -726,-558 0,-308 325,-558 726,-558z"/>
  <path id="cd"  attrib:name="冷漠土" class="fil6" d="M14186 17589c401,0 726,250 726,558 0,308 -325,558 -726,558 -401,0 -726,-250 -726,-558 0,-308 325,-558 726,-558z"/>
  <path id="ab"  attrib:name="酸性棕壤" class="fil6" d="M42957 35518c401,0 726,250 726,558 0,308 -325,558 -726,558 -401,0 -726,-250 -726,-558 0,-308 325,-558 726,-558z"/>
  <path id="ac"  attrib:name="表聚碳酸盐阿嘎土" class="fil6" d="M9239 18114c401,0 726,250 726,558 0,308 -325,558 -726,558 -401,0 -726,-250 -726,-558 0,-308 325,-558 726,-558z"/>
  <path id="ac_8"  attrib:name="表聚碳酸盐阿嘎土" class="fil6" d="M16785 17712c401,0 726,250 726,558 0,308 -325,558 -726,558 -401,0 -726,-250 -726,-558 0,-308 325,-558 726,-558z"/>
  <path id="fb"   class="fil6" d="M33120 32241c401,0 726,250 726,558 0,308 -325,558 -726,558 -401,0 -726,-250 -726,-558 0,-308 325,-558 726,-558z"/>
  <path id="a"  class="fil6" d="M35593 35676c401,0 726,250 726,558 0,308 -325,558 -726,558 -401,0 -726,-250 -726,-558 0,-308 325,-558 726,-558z"/>
  <path id="ba"  attrib:name="巴嘎土" class="fil6" d="M40103 34229c401,0 726,250 726,558 0,308 -325,558 -726,558 -401,0 -726,-250 -726,-558 0,-308 325,-558 726,-558z"/>
  <path id="ba_9"  attrib:name="巴嘎土土" class="fil6" d="M15752 17018c401,0 726,250 726,558 0,308 -325,558 -726,558 -401,0 -726,-250 -726,-558 0,-308 325,-558 726,-558z"/>
  <path id="ba_10"  attrib:name="巴嘎土" class="fil6" d="M18114 16843c401,0 726,250 726,558 0,308 -325,558 -726,558 -401,0 -726,-250 -726,-558 0,-308 325,-558 726,-558z"/>
  <path id="m"  attrib:name="毡状草甸土" class="fil6" d="M60920 16578c401,0 726,250 726,558 0,308 -325,558 -726,558 -401,0 -726,-250 -726,-558 0,-308 325,-558 726,-558z"/>
  <path id="s"  attrib:name="莎嘎土" class="fil6" d="M19394 15774c401,0 726,250 726,558 0,308 -325,558 -726,558 -401,0 -726,-250 -726,-558 0,-308 325,-558 726,-558z"/>
  <path id="s_11"  attrib:name="莎嘎土" class="fil6" d="M38360 16271c401,0 726,250 726,558 0,308 -325,558 -726,558 -401,0 -726,-250 -726,-558 0,-308 325,-558 726,-558z"/>
  <path id="s_12"  attrib:name="莎嘎土" class="fil6" d="M41208 16127c401,0 726,250 726,558 0,308 -325,558 -726,558 -401,0 -726,-250 -726,-558 0,-308 325,-558 726,-558z"/>
  <path id="s_13"  attrib:name="莎嘎土" class="fil6" d="M44373 15763c401,0 726,250 726,558 0,308 -325,558 -726,558 -401,0 -726,-250 -726,-558 0,-308 325,-558 726,-558z"/>
  <path id="s_14"  attrib:name="莎嘎土" class="fil6" d="M46982 16204c401,0 726,250 726,558 0,308 -325,558 -726,558 -401,0 -726,-250 -726,-558 0,-308 325,-558 726,-558z"/>
  <path id="s_15"  attrib:name="莎嘎土" class="fil6" d="M8432 16861c401,0 726,250 726,558 0,308 -325,558 -726,558 -401,0 -726,-250 -726,-558 0,-308 325,-558 726,-558z"/>
  <path id="s_16"  attrib:name="莎嘎土" class="fil6" d="M12163 16870c401,0 726,250 726,558 0,308 -325,558 -726,558 -401,0 -726,-250 -726,-558 0,-308 325,-558 726,-558z"/>
  <path id="s_17"  attrib:name="莎嘎土" class="fil6" d="M50607 16252c401,0 726,250 726,558 0,308 -325,558 -726,558 -401,0 -726,-250 -726,-558 0,-308 325,-558 726,-558z"/>
  <path id="s_18" attrib:name="莎嘎土"  class="fil6" d="M29960 33635c401,0 726,250 726,558 0,308 -325,558 -726,558 -401,0 -726,-250 -726,-558 0,-308 325,-558 726,-558z"/>
  <path id="s_19"  attrib:name="莎嘎土" class="fil6" d="M14450 33886c401,0 726,250 726,558 0,308 -325,558 -726,558 -401,0 -726,-250 -726,-558 0,-308 325,-558 726,-558z"/>
  <path id="sl"  attrib:name="淋溶莎嘎土" class="fil6" d="M32920 33250c401,0 726,250 726,558 0,308 -325,558 -726,558 -401,0 -726,-250 -726,-558 0,-308 325,-558 726,-558z"/>
  <path id="sl_20"  attrib:name="淋溶莎嘎土" class="fil6" d="M41070 33114c401,0 726,250 726,558 0,308 -325,558 -726,558 -401,0 -726,-250 -726,-558 0,-308 325,-558 726,-558z"/>
  <path id="sl_21"  attrib:name="淋溶莎嘎土" class="fil6" d="M37699 33798c401,0 726,250 726,558 0,308 -325,558 -726,558 -401,0 -726,-250 -726,-558 0,-308 325,-558 726,-558z"/>
  <path id="sl_22"  attrib:name="淋溶莎嘎土" class="fil6" d="M23339 15608c401,0 726,250 726,558 0,308 -325,558 -726,558 -401,0 -726,-250 -726,-558 0,-308 325,-558 726,-558z"/>
  <path id="sl_23"  attrib:name="淋溶莎嘎土" class="fil6" d="M35637 15251c401,0 726,250 726,558 0,308 -325,558 -726,558 -401,0 -726,-250 -726,-558 0,-308 325,-558 726,-558z"/>
  <path id="sl_24"  attrib:name="淋溶莎嘎土" class="fil6" d="M53293 16117c401,0 726,250 726,558 0,308 -325,558 -726,558 -401,0 -726,-250 -726,-558 0,-308 325,-558 726,-558z"/>
  <path id="sl_25" attrib:name="淋溶莎嘎土"  class="fil6" d="M56438 16050c401,0 726,250 726,558 0,308 -325,558 -726,558 -401,0 -726,-250 -726,-558 0,-308 325,-558 726,-558z"/>
  <path id="sl_26"  attrib:name="淋溶莎嘎土" class="fil6" d="M62212 15619c401,0 726,250 726,558 0,308 -325,558 -726,558 -401,0 -726,-250 -726,-558 0,-308 325,-558 726,-558z"/>
  <path id="f"  attrib:name="草毡土" class="fil6" d="M37395 33245c401,0 726,250 726,558 0,308 -325,558 -726,558 -401,0 -726,-250 -726,-558 0,-308 325,-558 726,-558z"/>
  <path id="f_27"  attrib:name="草毡土土" class="fil6" d="M35526 33321c401,0 726,250 726,558 0,308 -325,558 -726,558 -401,0 -726,-250 -726,-558 0,-308 325,-558 726,-558z"/>
  <path id="f_28"  attrib:name="草毡土土" class="fil6" d="M42870 32695c401,0 726,250 726,558 0,308 -325,558 -726,558 -401,0 -726,-250 -726,-558 0,-308 325,-558 726,-558z"/>
  <path id="f_29"  attrib:name="草毡土" class="fil6" d="M65332 16348c401,0 726,250 726,558 0,308 -325,558 -726,558 -401,0 -726,-250 -726,-558 0,-308 325,-558 726,-558z"/>
  <path id="f_30" attrib:name="草毡土"  class="fil6" d="M70013 16501c401,0 726,250 726,558 0,308 -325,558 -726,558 -401,0 -726,-250 -726,-558 0,-308 325,-558 726,-558z"/>
  <path id="f_31" attrib:name="草毡土"  class="fil6" d="M73811 15954c401,0 726,250 726,558 0,308 -325,558 -726,558 -401,0 -726,-250 -726,-558 0,-308 325,-558 726,-558z"/>
  <path id="f_32" attrib:name="草毡土"  class="fil6" d="M82673 15868c401,0 726,250 726,558 0,308 -325,558 -726,558 -401,0 -726,-250 -726,-558 0,-308 325,-558 726,-558z"/>
  <path id="bf"  attrib:name="淡黑毡土" class="fil6" d="M76732 17077c401,0 726,250 726,558 0,308 -325,558 -726,558 -401,0 -726,-250 -726,-558 0,-308 325,-558 726,-558z"/>
  <path id="bf_33"  attrib:name="淡黑毡土土" class="fil6" d="M85422 16002c401,0 726,250 726,558 0,308 -325,558 -726,558 -401,0 -726,-250 -726,-558 0,-308 325,-558 726,-558z"/>
  <path id="bf_34" attrib:name="淡黑毡土"  class="fil6" d="M88663 16779c401,0 726,250 726,558 0,308 -325,558 -726,558 -401,0 -726,-250 -726,-558 0,-308 325,-558 726,-558z"/>
  <path id="bf_35"  attrib:name="淡黑毡土" class="fil6" d="M34863 34337c401,0 726,250 726,558 0,308 -325,558 -726,558 -401,0 -726,-250 -726,-558 0,-308 325,-558 726,-558z"/>
  <path id="bf_36"  attrib:name="淡黑毡土" class="fil6" d="M36293 34751c401,0 726,250 726,558 0,308 -325,558 -726,558 -401,0 -726,-250 -726,-558 0,-308 325,-558 726,-558z"/>
  <path id="bf_37"  attrib:name="淡黑毡土" class="fil6" d="M42393 33221c401,0 726,250 726,558 0,308 -325,558 -726,558 -401,0 -726,-250 -726,-558 0,-308 325,-558 726,-558z"/>
  <path id="bu"  attrib:name="棕壤" class="fil6" d="M83981 17254c401,0 726,250 726,558 0,308 -325,558 -726,558 -401,0 -726,-250 -726,-558 0,-308 325,-558 726,-558z"/>
  <path id="bu_38"  attrib:name="棕壤" class="fil6" d="M90714 17273c401,0 726,250 726,558 0,308 -325,558 -726,558 -401,0 -726,-250 -726,-558 0,-308 325,-558 726,-558z"/>
  <path id="dc" attrib:name="碳酸盐褐土"  class="fil6" d="M81390 18254c401,0 726,250 726,558 0,308 -325,558 -726,558 -401,0 -726,-250 -726,-558 0,-308 325,-558 726,-558z"/>
  <path id="dc_39"  attrib:name="碳酸盐褐土" class="fil6" d="M87183 18417c401,0 726,250 726,558 0,308 -325,558 -726,558 -401,0 -726,-250 -726,-558 0,-308 325,-558 726,-558z"/>
  <path id="dc_40"  attrib:name="碳酸盐褐土" class="fil6" d="M93382 18529c401,0 726,250 726,558 0,308 -325,558 -726,558 -401,0 -726,-250 -726,-558 0,-308 325,-558 726,-558z"/>
 </g>
 <g id="toolTip">
		
	</g>
</g>
</svg>
