<?xml version="1.0" encoding="UTF-8"?>
<!DOCTYPE svg PUBLIC "-//W3C//DTD SVG 1.1//EN" "http://www.w3.org/Graphics/SVG/1.1/DTD/svg11.dtd">
<!-- Creator: CorelDRAW X6 -->
<svg xmlns="http://www.w3.org/2000/svg" xml:space="preserve" width="1000px" height="317px" version="1.1" style="shape-rendering:geometricPrecision; text-rendering:geometricPrecision; image-rendering:optimizeQuality; fill-rule:evenodd; clip-rule:evenodd"
viewBox="0 0 100000 31667"
 xmlns:xlink="http://www.w3.org/1999/xlink">
 <defs>
  <style type="text/css">
   <![CDATA[
    .str1 {stroke:#332C2B;stroke-width:31.75}
    .str3 {stroke:#00A2E9;stroke-width:33.3333;stroke-linejoin:round}
    .str0 {stroke:#332C2B;stroke-width:41.6667}
    .str4 {stroke:#332C2B;stroke-width:41.6667;stroke-linejoin:round}
    .str2 {stroke:#6D583D;stroke-width:41.6667;stroke-linejoin:round}
    .str5 {stroke:#823520;stroke-width:41.6667;stroke-linejoin:round}
    .str8 {stroke:#332C2B;stroke-width:50}
    .str6 {stroke:gray;stroke-width:50}
    .str7 {stroke:#332C2B;stroke-width:83.3333}
    .fil0 {fill:none}
    .fil2 {fill:#332C2B}
    .fil1 {fill:#FEFEFE}
    .fil4 {fill:#00A2E9}
    .fil3 {fill:#6D583D}
    .fil5 {fill:#823520}
    .fil6 {fill:#E3E7E5}
    .fil7 {fill:#F5F2E8}
    .fil8 {fill:#FFFDEA}
    .fnt6 {font-weight:normal;font-size:734.958px;font-family:'Times New Roman'}
    .fnt7 {font-weight:normal;font-size:881.917px;font-family:'Times New Roman'}
    .fnt5 {font-weight:normal;font-size:881.917px;font-family:'宋体'}
    .fnt9 {font-weight:normal;font-size:1028.92px;font-family:'Arial'}
    .fnt4 {font-weight:normal;font-size:1028.92px;font-family:'宋体'}
    .fnt2 {font-weight:normal;font-size:1028.92px;font-family:'方正书宋简体'}
    .fnt10 {font-weight:normal;font-size:1028.92px;font-family:'方正准圆简体'}
    .fnt0 {font-weight:normal;font-size:1175.92px;font-family:'Arial'}
    .fnt1 {font-weight:normal;font-size:1175.92px;font-family:'方正中等线简体'}
    .fnt11 {font-weight:normal;font-size:1469.92px;font-family:'方正准圆简体'}
    .fnt3 {font-weight:normal;font-size:4217.75px;font-family:'宋体'}
    .fnt8 {font-weight:normal;font-size:440.958px;font-family:'Times New Roman';baseline-shift:super}
   ]]>
  </style>
 </defs>
<symbol id="符号77" viewBox="49735 15569 530 530">
 <line class="fil0 str0" x1="49750" y1="15583" x2="50250" y2= "16083" />
 <line class="fil0 str0" x1="49750" y1="16083" x2="50250" y2= "15583" />
</symbol>
<symbol id="符号70" viewBox="49526 15359 948 948">
 <circle class="fil1 str1" cx="50000" cy="15833" r="458"/>
 <circle class="fil2 str1" cx="50000" cy="15833" r="271"/>
</symbol>
<symbol id="符号60" viewBox="49917 15750 167 167">
 <path class="fil3 str2" d="M50063 15833c0,-35 -28,-63 -62,-63 -35,0 -63,28 -63,63 0,35 28,63 63,63 35,0 62,-28 62,-63z"/>
</symbol>
<symbol id="符号50" viewBox="49672 15505 657 657">
 <circle class="fil1 str1" cx="50000" cy="15833" r="312"/>
 <circle class="fil0 str1" cx="50000" cy="15833" r="117"/>
</symbol>
<symbol id="符号19" viewBox="49610 15444 780 780">
 <rect class="fil1" x="49625" y="15458" width="750" height="750"/>
 <line class="fil0 str0" x1="49625" y1="15458" x2="50375" y2= "16208" />
 <line class="fil0 str0" x1="49625" y1="16208" x2="50375" y2= "15458" />
</symbol>
<symbol id="符号45" viewBox="49650 15683 683 300">
 <polygon class="fil4" points="49904,15792 49907,15792 49912,15792 49921,15792 49933,15792 49948,15792 49964,15792 49982,15791 50001,15790 50021,15788 50041,15786 50061,15783 50081,15779 50099,15774 50116,15769 50132,15762 50145,15754 50156,15746 50168,15738 50180,15731 50191,15724 50203,15719 50214,15714 50226,15710 50237,15707 50249,15706 50260,15705 50272,15705 50284,15707 50296,15710 50308,15715 50333,15735 50333,15735 50329,15735 50323,15735 50314,15733 50304,15732 50293,15731 50280,15731 50267,15731 50253,15733 50238,15736 50224,15741 50209,15747 50195,15755 50181,15766 50168,15779 50148,15793 50128,15805 50107,15816 50087,15826 50067,15835 50047,15842 50028,15849 50010,15854 49994,15859 49979,15862 49954,15869 49944,15871 49934,15873 49927,15874 "/>
 <path class="fil4 str3" d="M49935 15833c0,-74 -60,-133 -134,-133 -74,0 -134,60 -134,133 0,74 60,133 134,133 74,0 134,-60 134,-133z"/>
</symbol>
<symbol id="符号42" viewBox="49729 15563 542 542">
 <path class="fil1 str4" d="M50250 15833c0,-138 -112,-250 -250,-250 -138,0 -250,112 -250,250 0,138 112,250 250,250 138,0 250,-112 250,-250z"/>
</symbol>
<symbol id="符号25" viewBox="49526 15359 948 948">
 <circle class="fil1 str1" cx="50000" cy="15833" r="458"/>
 <circle class="fil2 str1" cx="50000" cy="15833" r="271"/>
</symbol>
<symbol id="符号5" viewBox="49729 15563 542 542">
 <path class="fil1 str4" d="M50250 15833c0,-138 -112,-250 -250,-250 -138,0 -250,112 -250,250 0,138 112,250 250,250 138,0 250,-112 250,-250z"/>
</symbol>
<symbol id="符号13" viewBox="49748 15581 504 504">
 <circle class="fil1 str1" cx="50000" cy="15833" r="236"/>
 <circle class="fil0 str1" cx="50000" cy="15833" r="84"/>
</symbol>
<symbol id="符号76" viewBox="49526 15359 948 948">
 <circle class="fil1 str1" cx="50000" cy="15833" r="458"/>
 <circle class="fil2 str1" cx="50000" cy="15833" r="271"/>
</symbol>
<symbol id="符号62" viewBox="49729 15563 542 542">
 <path class="fil1 str4" d="M50250 15833c0,-138 -112,-250 -250,-250 -138,0 -250,112 -250,250 0,138 112,250 250,250 138,0 250,-112 250,-250z"/>
</symbol>
<symbol id="符号68" viewBox="49813 15646 375 375">
 <path class="fil1 str4" d="M50167 15833c0,-92 -75,-167 -167,-167 -92,0 -167,75 -167,167 0,92 75,167 167,167 92,0 167,-75 167,-167z"/>
 <ellipse class="fil2" cx="50000" cy="15833" rx="63" ry="62"/>
</symbol>
<symbol id="符号41" viewBox="49526 15359 948 948">
 <circle class="fil1 str1" cx="50000" cy="15833" r="458"/>
 <circle class="fil2 str1" cx="50000" cy="15833" r="271"/>
</symbol>
<symbol id="符号31" viewBox="49526 15359 948 948">
 <circle class="fil1 str1" cx="50000" cy="15833" r="458"/>
 <circle class="fil2 str1" cx="50000" cy="15833" r="271"/>
</symbol>
<symbol id="符号29" viewBox="49729 15563 542 542">
 <path class="fil1 str4" d="M50250 15833c0,-138 -112,-250 -250,-250 -138,0 -250,112 -250,250 0,138 112,250 250,250 138,0 250,-112 250,-250z"/>
</symbol>
<symbol id="符号24" viewBox="49734 15567 532 532">
 <circle class="fil1 str1" cx="50000" cy="15833" r="250"/>
 <circle class="fil0 str1" cx="50000" cy="15833" r="94"/>
</symbol>
<symbol id="符号2" viewBox="49927 15760 146 146">
 <path class="fil5 str5" d="M50052 15833c0,-29 -23,-52 -52,-52 -29,0 -52,23 -52,52 0,29 23,52 52,52 29,0 52,-23 52,-52z"/>
</symbol>
<symbol id="符号4" viewBox="49689 15699 606 269">
 <polygon class="fil4" points="49916,15797 49917,15797 49922,15797 49930,15797 49941,15797 49954,15797 49968,15797 49984,15796 50001,15795 50019,15793 50036,15791 50054,15789 50071,15785 50088,15781 50103,15776 50116,15770 50128,15763 50138,15756 50149,15749 50159,15743 50169,15737 50179,15732 50189,15728 50200,15725 50210,15722 50220,15720 50230,15720 50241,15720 50251,15722 50262,15725 50272,15729 50295,15746 50295,15747 50291,15747 50286,15746 50278,15745 50269,15744 50259,15743 50248,15743 50236,15743 50224,15745 50211,15748 50198,15751 50185,15757 50172,15764 50160,15774 50149,15785 50131,15797 50113,15808 50095,15818 50077,15827 50059,15834 50042,15841 50025,15847 50009,15852 49995,15856 49981,15859 49959,15865 49951,15867 49941,15868 49935,15869 "/>
 <path class="fil4 str3" d="M49943 15833c0,-65 -53,-118 -119,-118 -66,0 -119,53 -119,118 0,65 53,118 119,118 66,0 119,-53 119,-118z"/>
</symbol>
<symbol id="符号78" viewBox="49904 15738 192 192">
 <path class="fil3 str2" d="M50075 15833c0,-41 -34,-75 -75,-75 -42,0 -75,34 -75,75 0,41 34,75 75,75 41,0 75,-34 75,-75z"/>
</symbol>
<symbol id="符号67" viewBox="49833 15583 333 500">
 <polygon class="fil3" points="49837,16083 49998,15583 50167,16083 49833,16083 "/>
</symbol>
<symbol id="符号21" viewBox="49708 15292 583 1083">
 <polygon class="fil5" points="49716,16375 49996,15292 50292,16375 49708,16375 "/>
</symbol>
<symbol id="符号74" viewBox="49729 15563 542 542">
 <path class="fil1 str4" d="M50250 15833c0,-138 -112,-250 -250,-250 -138,0 -250,112 -250,250 0,138 112,250 250,250 138,0 250,-112 250,-250z"/>
</symbol>
<symbol id="符号48" viewBox="49804 15538 392 592">
 <polygon class="fil5" points="49809,16129 49998,15538 50196,16129 49804,16129 "/>
</symbol>
<symbol id="符号8" viewBox="49566 15650 852 367">
 <polygon class="fil4" points="49876,15793 49879,15793 49886,15793 49897,15793 49912,15793 49930,15793 49951,15793 49974,15792 49998,15791 50023,15790 50049,15788 50074,15785 50099,15782 50122,15777 50144,15772 50163,15767 50179,15760 50194,15752 50209,15746 50224,15739 50238,15734 50253,15729 50267,15725 50282,15721 50296,15719 50311,15717 50325,15717 50340,15717 50355,15719 50370,15722 50385,15726 50417,15743 50418,15743 50413,15743 50405,15743 50394,15742 50381,15740 50367,15740 50351,15740 50334,15740 50316,15741 50298,15744 50279,15748 50261,15753 50243,15761 50225,15770 50209,15781 50184,15793 50158,15804 50132,15814 50106,15823 50081,15830 50056,15837 50032,15843 50010,15847 49989,15851 49970,15855 49938,15861 49926,15862 49913,15864 49904,15865 "/>
 <path class="fil4 str3" d="M49916 15833c0,-92 -75,-167 -167,-167 -92,0 -167,75 -167,167 0,92 75,167 167,167 92,0 167,-75 167,-167z"/>
</symbol>
<symbol id="符号7" viewBox="49526 15359 948 948">
 <circle class="fil1 str1" cx="50000" cy="15833" r="458"/>
 <circle class="fil2 str1" cx="50000" cy="15833" r="271"/>
</symbol>
<symbol id="符号80" viewBox="49833 15583 333 500">
 <polygon class="fil3" points="49837,16083 49998,15583 50167,16083 49833,16083 "/>
</symbol>
<symbol id="符号37" viewBox="49734 15567 532 532">
 <circle class="fil1 str1" cx="50000" cy="15833" r="250"/>
 <circle class="fil0 str1" cx="50000" cy="15833" r="94"/>
</symbol>
<symbol id="符号1" viewBox="49852 15610 296 446">
 <polygon class="fil5" points="49856,16056 49998,15610 50148,16056 49852,16056 "/>
</symbol>
<symbol id="符号75" viewBox="49672 15505 657 657">
 <circle class="fil1 str1" cx="50000" cy="15833" r="312"/>
 <circle class="fil0 str1" cx="50000" cy="15833" r="117"/>
</symbol>
<symbol id="符号56" viewBox="49729 15563 542 542">
 <path class="fil1 str4" d="M50250 15833c0,-138 -112,-250 -250,-250 -138,0 -250,112 -250,250 0,138 112,250 250,250 138,0 250,-112 250,-250z"/>
</symbol>
<symbol id="符号33" viewBox="49735 15569 530 530">
 <rect class="fil1" x="49750" y="15583" width="500" height="500"/>
 <line class="fil0 str0" x1="49750" y1="15583" x2="50250" y2= "16083" />
 <line class="fil0 str0" x1="49750" y1="16083" x2="50250" y2= "15583" />
</symbol>
<symbol id="符号28" viewBox="49833 15583 333 500">
 <polygon class="fil3" points="49837,16083 49998,15583 50167,16083 49833,16083 "/>
</symbol>
<symbol id="符号27" viewBox="49917 15750 167 167">
 <path class="fil3 str2" d="M50063 15833c0,-35 -28,-63 -62,-63 -35,0 -63,28 -63,63 0,35 28,63 63,63 35,0 62,-28 62,-63z"/>
</symbol>
<symbol id="符号3" viewBox="49829 15662 343 343">
 <rect class="fil1" x="49843" y="15677" width="313" height="313"/>
 <line class="fil0 str0" x1="49843" y1="15677" x2="50157" y2= "15990" />
 <line class="fil0 str0" x1="49843" y1="15990" x2="50157" y2= "15677" />
</symbol>
<symbol id="符号73" viewBox="49833 15583 333 500">
 <polygon class="fil3" points="49837,16083 49998,15583 50167,16083 49833,16083 "/>
</symbol>
<symbol id="符号61" viewBox="49833 15583 333 500">
 <polygon class="fil3" points="49837,16083 49998,15583 50167,16083 49833,16083 "/>
</symbol>
<symbol id="符号18" viewBox="49650 15683 683 300">
 <polygon class="fil4" points="49904,15792 49907,15792 49912,15792 49921,15792 49933,15792 49948,15792 49964,15792 49982,15791 50001,15790 50021,15788 50041,15786 50061,15783 50081,15779 50099,15774 50116,15769 50132,15762 50145,15754 50156,15746 50168,15738 50180,15731 50191,15724 50203,15719 50214,15714 50226,15710 50237,15707 50249,15706 50260,15705 50272,15705 50284,15707 50296,15710 50308,15715 50333,15735 50333,15735 50329,15735 50323,15735 50314,15733 50304,15732 50293,15731 50280,15731 50267,15731 50253,15733 50238,15736 50224,15741 50209,15747 50195,15755 50181,15766 50168,15779 50148,15793 50128,15805 50107,15816 50087,15826 50067,15835 50047,15842 50028,15849 50010,15854 49994,15859 49979,15862 49954,15869 49944,15871 49934,15873 49927,15874 "/>
 <path class="fil4 str3" d="M49935 15833c0,-74 -60,-133 -134,-133 -74,0 -134,60 -134,133 0,74 60,133 134,133 74,0 134,-60 134,-133z"/>
</symbol>
<symbol id="符号12" viewBox="49833 15583 333 500">
 <polygon class="fil5" points="49837,16083 49998,15583 50167,16083 49833,16083 "/>
</symbol>
<symbol id="符号71" viewBox="49735 15569 530 530">
 <line class="fil0 str0" x1="49750" y1="15583" x2="50250" y2= "16083" />
 <line class="fil0 str0" x1="49750" y1="16083" x2="50250" y2= "15583" />
</symbol>
<symbol id="符号59" viewBox="49735 15569 530 530">
 <line class="fil0 str0" x1="49750" y1="15583" x2="50250" y2= "16083" />
 <line class="fil0 str0" x1="49750" y1="16083" x2="50250" y2= "15583" />
</symbol>
<symbol id="符号55" viewBox="49833 15583 333 500">
 <polygon class="fil3" points="49837,16083 49998,15583 50167,16083 49833,16083 "/>
</symbol>
<symbol id="符号52" viewBox="49735 15569 530 530">
 <line class="fil0 str0" x1="49750" y1="15583" x2="50250" y2= "16083" />
 <line class="fil0 str0" x1="49750" y1="16083" x2="50250" y2= "15583" />
</symbol>
<symbol id="符号51" viewBox="49526 15359 948 948">
 <circle class="fil1 str1" cx="50000" cy="15833" r="458"/>
 <circle class="fil2 str1" cx="50000" cy="15833" r="271"/>
</symbol>
<symbol id="符号44" viewBox="49526 15359 948 948">
 <circle class="fil1 str1" cx="50000" cy="15833" r="458"/>
 <circle class="fil2 str1" cx="50000" cy="15833" r="271"/>
</symbol>
<symbol id="符号38" viewBox="49526 15359 948 948">
 <circle class="fil1 str1" cx="50000" cy="15833" r="458"/>
 <circle class="fil2 str1" cx="50000" cy="15833" r="271"/>
</symbol>
<symbol id="符号35" viewBox="49833 15583 333 500">
 <polygon class="fil5" points="49837,16083 49998,15583 50167,16083 49833,16083 "/>
</symbol>
<symbol id="符号30" viewBox="49734 15567 532 532">
 <circle class="fil1 str1" cx="50000" cy="15833" r="250"/>
 <circle class="fil0 str1" cx="50000" cy="15833" r="94"/>
</symbol>
<symbol id="符号20" viewBox="49904 15738 192 192">
 <path class="fil5 str5" d="M50075 15833c0,-41 -34,-75 -75,-75 -42,0 -75,34 -75,75 0,41 34,75 75,75 41,0 75,-34 75,-75z"/>
</symbol>
<symbol id="符号14" viewBox="49729 15563 542 542">
 <path class="fil1 str4" d="M50250 15833c0,-138 -112,-250 -250,-250 -138,0 -250,112 -250,250 0,138 112,250 250,250 138,0 250,-112 250,-250z"/>
</symbol>
<symbol id="符号53" viewBox="49904 15738 192 192">
 <path class="fil3 str2" d="M50075 15833c0,-41 -34,-75 -75,-75 -42,0 -75,34 -75,75 0,41 34,75 75,75 41,0 75,-34 75,-75z"/>
</symbol>
<symbol id="符号43" viewBox="49672 15505 657 657">
 <circle class="fil1 str1" cx="50000" cy="15833" r="312"/>
 <circle class="fil0 str1" cx="50000" cy="15833" r="117"/>
</symbol>
<symbol id="符号23" viewBox="49729 15563 542 542">
 <path class="fil1 str4" d="M50250 15833c0,-138 -112,-250 -250,-250 -138,0 -250,112 -250,250 0,138 112,250 250,250 138,0 250,-112 250,-250z"/>
</symbol>
<symbol id="符号15" viewBox="49729 15563 542 542">
 <path class="fil1 str4" d="M50250 15833c0,-138 -112,-250 -250,-250 -138,0 -250,112 -250,250 0,138 112,250 250,250 138,0 250,-112 250,-250z"/>
</symbol>
<symbol id="符号9" viewBox="49735 15569 530 530">
 <line class="fil0 str0" x1="49750" y1="15583" x2="50250" y2= "16083" />
 <line class="fil0 str0" x1="49750" y1="16083" x2="50250" y2= "15583" />
</symbol>
<symbol id="符号6" viewBox="49734 15567 532 532">
 <circle class="fil1 str1" cx="50000" cy="15833" r="250"/>
 <circle class="fil0 str1" cx="50000" cy="15833" r="94"/>
</symbol>
<symbol id="符号63" viewBox="49734 15567 532 532">
 <circle class="fil1 str1" cx="50000" cy="15833" r="250"/>
 <circle class="fil0 str1" cx="50000" cy="15833" r="94"/>
</symbol>
<symbol id="符号57" viewBox="49734 15567 532 532">
 <circle class="fil1 str1" cx="50000" cy="15833" r="250"/>
 <circle class="fil0 str1" cx="50000" cy="15833" r="94"/>
</symbol>
<symbol id="符号46" viewBox="49735 15569 530 530">
 <rect class="fil1" x="49750" y="15583" width="500" height="500"/>
 <line class="fil0 str0" x1="49750" y1="15583" x2="50250" y2= "16083" />
 <line class="fil0 str0" x1="49750" y1="16083" x2="50250" y2= "15583" />
</symbol>
<symbol id="符号22" viewBox="49804 15538 392 592">
 <polygon class="fil5" points="49809,16129 49998,15538 50196,16129 49804,16129 "/>
</symbol>
<symbol id="符号11" viewBox="49526 15359 948 948">
 <circle class="fil1 str1" cx="50000" cy="15833" r="458"/>
 <circle class="fil2 str1" cx="50000" cy="15833" r="271"/>
</symbol>
<symbol id="符号79" viewBox="49804 15538 392 592">
 <polygon class="fil3" points="49809,16129 49998,15538 50196,16129 49804,16129 "/>
</symbol>
<symbol id="符号72" viewBox="49917 15750 167 167">
 <path class="fil3 str2" d="M50063 15833c0,-35 -28,-63 -62,-63 -35,0 -63,28 -63,63 0,35 28,63 63,63 35,0 62,-28 62,-63z"/>
</symbol>
<symbol id="符号69" viewBox="49734 15567 532 532">
 <circle class="fil1 str1" cx="50000" cy="15833" r="250"/>
 <circle class="fil0 str1" cx="50000" cy="15833" r="94"/>
</symbol>
<symbol id="符号66" viewBox="49917 15750 167 167">
 <path class="fil3 str2" d="M50063 15833c0,-35 -28,-63 -62,-63 -35,0 -63,28 -63,63 0,35 28,63 63,63 35,0 62,-28 62,-63z"/>
</symbol>
<symbol id="符号58" viewBox="49526 15359 948 948">
 <circle class="fil1 str1" cx="50000" cy="15833" r="458"/>
 <circle class="fil2 str1" cx="50000" cy="15833" r="271"/>
</symbol>
<symbol id="符号54" viewBox="49804 15538 392 592">
 <polygon class="fil3" points="49809,16129 49998,15538 50196,16129 49804,16129 "/>
</symbol>
<symbol id="符号17" viewBox="49526 15359 948 948">
 <circle class="fil1 str1" cx="50000" cy="15833" r="458"/>
 <circle class="fil2 str1" cx="50000" cy="15833" r="271"/>
</symbol>
<symbol id="符号16" viewBox="49442 15276 1115 1115">
 <circle class="fil1 str1" cx="50000" cy="15833" r="542"/>
 <circle class="fil0 str1" cx="50000" cy="15833" r="203"/>
</symbol>
<symbol id="符号10" viewBox="49917 15750 167 167">
 <path class="fil5 str5" d="M50063 15833c0,-35 -28,-63 -62,-63 -35,0 -63,28 -63,63 0,35 28,63 63,63 35,0 62,-28 62,-63z"/>
</symbol>
<symbol id="符号65" viewBox="49735 15569 530 530">
 <line class="fil0 str0" x1="49750" y1="15583" x2="50250" y2= "16083" />
 <line class="fil0 str0" x1="49750" y1="16083" x2="50250" y2= "15583" />
</symbol>
<symbol id="符号36" viewBox="49729 15563 542 542">
 <path class="fil1 str4" d="M50250 15833c0,-138 -112,-250 -250,-250 -138,0 -250,112 -250,250 0,138 112,250 250,250 138,0 250,-112 250,-250z"/>
</symbol>
<symbol id="符号34" viewBox="49917 15750 167 167">
 <path class="fil5 str5" d="M50063 15833c0,-35 -28,-63 -62,-63 -35,0 -63,28 -63,63 0,35 28,63 63,63 35,0 62,-28 62,-63z"/>
</symbol>
<symbol id="符号26" viewBox="49735 15569 530 530">
 <line class="fil0 str0" x1="49750" y1="15583" x2="50250" y2= "16083" />
 <line class="fil0 str0" x1="49750" y1="16083" x2="50250" y2= "15583" />
</symbol>
<symbol id="符号64" viewBox="49526 15359 948 948">
 <circle class="fil1 str1" cx="50000" cy="15833" r="458"/>
 <circle class="fil2 str1" cx="50000" cy="15833" r="271"/>
</symbol>
<symbol id="符号49" viewBox="49729 15563 542 542">
 <path class="fil1 str4" d="M50250 15833c0,-138 -112,-250 -250,-250 -138,0 -250,112 -250,250 0,138 112,250 250,250 138,0 250,-112 250,-250z"/>
</symbol>
<symbol id="符号47" viewBox="49904 15738 192 192">
 <path class="fil5 str5" d="M50075 15833c0,-41 -34,-75 -75,-75 -42,0 -75,34 -75,75 0,41 34,75 75,75 41,0 75,-34 75,-75z"/>
</symbol>
<symbol id="符号40" viewBox="49734 15567 532 532">
 <circle class="fil1 str1" cx="50000" cy="15833" r="250"/>
 <circle class="fil0 str1" cx="50000" cy="15833" r="94"/>
</symbol>
<symbol id="符号39" viewBox="49729 15563 542 542">
 <path class="fil1 str4" d="M50250 15833c0,-138 -112,-250 -250,-250 -138,0 -250,112 -250,250 0,138 112,250 250,250 138,0 250,-112 250,-250z"/>
</symbol>
<symbol id="符号32" viewBox="49650 15683 683 300">
 <polygon class="fil4" points="49904,15792 49907,15792 49912,15792 49921,15792 49933,15792 49948,15792 49964,15792 49982,15791 50001,15790 50021,15788 50041,15786 50061,15783 50081,15779 50099,15774 50116,15769 50132,15762 50145,15754 50156,15746 50168,15738 50180,15731 50191,15724 50203,15719 50214,15714 50226,15710 50237,15707 50249,15706 50260,15705 50272,15705 50284,15707 50296,15710 50308,15715 50333,15735 50333,15735 50329,15735 50323,15735 50314,15733 50304,15732 50293,15731 50280,15731 50267,15731 50253,15733 50238,15736 50224,15741 50209,15747 50195,15755 50181,15766 50168,15779 50148,15793 50128,15805 50107,15816 50087,15826 50067,15835 50047,15842 50028,15849 50010,15854 49994,15859 49979,15862 49954,15869 49944,15871 49934,15873 49927,15874 "/>
 <path class="fil4 str3" d="M49935 15833c0,-74 -60,-133 -134,-133 -74,0 -134,60 -134,133 0,74 60,133 134,133 74,0 134,-60 134,-133z"/>
</symbol>
 <g id="文字">
  <metadata id="CorelCorpID_0Corel-Layer"/>
  <g id="_771326592">
   <text x="59004" y="7068"  class="fil2 fnt0">            Aeolian desertified land in various counties </text>
   <polygon class="fil6" points="1158,30707 98873,30708 98873,5712 1127,5710 "/>
   <rect class="fil7" x="7089" y="10997" width="91784" height="19711"/>
   <rect class="fil8" x="7089" y="13390" width="91784" height="2465"/>
   <rect class="fil8" x="7089" y="18338" width="91784" height="2465"/>
   <rect class="fil8" x="7089" y="23267" width="91784" height="2465"/>
   <rect class="fil8" x="7089" y="28210" width="91784" height="2465"/>
   <polyline class="fil0 str6" points="7089,5710 7089,12184 7088,30707 "/>
   <line class="fil0 str6" x1="1127" y1="10992" x2="98873" y2= "10998" />
   <polyline class="fil0 str6" points="23054,5712 23061,15261 23061,30709 "/>
   <polyline class="fil0 str6" points="31648,5713 31655,15248 31655,30675 "/>
   <polyline class="fil0 str6" points="55079,5725 55087,15259 55087,30675 "/>
   <polyline class="fil0 str6" points="85571,5713 85578,15257 85577,30709 "/>
   <text x="2995" y="8060"  class="fil2 fnt1">地区</text>
   <text x="10168" y="19955"  class="fil2 fnt2">29.89</text>
   <text x="-7145" y="22414"  class="fil2 fnt3">        </text>
   <text x="9726" y="22414"  class="fil2 fnt2">200.21</text>
   <text x="5550" y="17462"  class="fil2 fnt4">        </text>
   <text x="9665" y="17462"  class="fil2 fnt2">613.47</text>
   <text x="10188" y="12558"  class="fil2 fnt2">98.35</text>
   <text x="9661" y="14967"  class="fil2 fnt2">300.78</text>
   <text x="1752" y="24864"  class="fil2 fnt3">    </text>
   <text x="10188" y="24864"  class="fil2 fnt2">34.45</text>
   <text x="47871" y="7419"  class="fil2 fnt1">半裸露沙地</text>
   <g transform="matrix(0.993028 0 0 1 -33764.9 -8414.79)">
    <text x="50000" y="15833"  class="fil2 fnt1">半流动沙地</text>
   </g>
   <text x="24440" y="7419"  class="fil2 fnt1">半固定沙地</text>
   <text x="33034" y="7414"  class="fil2 fnt1">裸露沙地</text>
   <text x="40453" y="7419"  class="fil2 fnt1">固定沙地</text>
   <line class="fil0 str7" x1="98873" y1="5712" x2="1127" y2= "5710" />
   <line class="fil0 str7" x1="1158" y1="30708" x2="98873" y2= "30710" />
   <text x="2974" y="12123"  class="fil2 fnt1">阿里</text>
   <text x="8468" y="7414"  class="fil2 fnt1">流动沙地</text>
   <polyline class="fil0 str6" points="14500,5712 14508,15261 14508,30709 "/>
   <polyline class="fil0 str6" points="78152,5713 78160,15257 78159,30709 "/>
   <text x="3030" y="14495"  class="fil2 fnt1">那曲</text>
   <text x="2401" y="16975"  class="fil2 fnt1">日喀则</text>
   <text x="2391" y="19451"  class="fil2 fnt1">拉萨市</text>
   <text x="2991" y="21986"  class="fil2 fnt1">山南</text>
   <text x="2977" y="24439"  class="fil2 fnt1">林芝</text>
   <text x="2951" y="26838"  class="fil2 fnt1">昌都</text>
   <text x="2970" y="29400"  class="fil2 fnt1">合计</text>
   <line class="fil0 str6" x1="1127" y1="13390" x2="98873" y2= "13396" />
   <line class="fil0 str6" x1="1127" y1="15852" x2="98873" y2= "15858" />
   <line class="fil0 str6" x1="1127" y1="18337" x2="98873" y2= "18344" />
   <line class="fil0 str6" x1="1127" y1="20827" x2="98873" y2= "20834" />
   <line class="fil0 str6" x1="1127" y1="23266" x2="98873" y2= "23273" />
   <line class="fil0 str6" x1="1127" y1="25724" x2="98873" y2= "25731" />
   <line class="fil0 str6" x1="1127" y1="28209" x2="98873" y2= "28216" />
   <text x="9167" y="30069"  class="fil2 fnt2">1 268.15</text>
   <text x="18218" y="19955"  class="fil2 fnt2">67.81</text>
   <text x="796" y="22414"  class="fil2 fnt3">        </text>
   <text x="17667" y="22414"  class="fil2 fnt2">176.03</text>
   <text x="13001" y="17462"  class="fil2 fnt4">        </text>
   <text x="16859" y="17462"  class="fil2 fnt2">1 </text>
   <text x="17496" y="17462"  class="fil2 fnt2">188.36</text>
   <text x="18134" y="12558"  class="fil2 fnt2">501.4</text>
   <text x="17643" y="14967"  class="fil2 fnt2">904.98</text>
   <text x="9698" y="24864"  class="fil2 fnt3">    </text>
   <text x="18134" y="24864"  class="fil2 fnt2">32.82</text>
   <text x="17157" y="30069"  class="fil2 fnt2">2  </text>
   <text x="18047" y="30069"  class="fil2 fnt2">787.83</text>
   <text x="10209" y="27322"  class="fil2 fnt3">    </text>
   <text x="18644" y="27322"  class="fil2 fnt2">3.44</text>
   <polyline class="fil0 str6" points="39066,5725 39074,15259 39074,30675 "/>
   <polyline class="fil0 str6" points="46485,5725 46492,15259 46492,30675 "/>
   <text x="56466" y="7419"  class="fil2 fnt1">沙漠化土地合计</text>
   <text x="67417" y="7414"  class="fil2 fnt1">退化草地沙质耕地</text>
   <text x="79538" y="7386"  class="fil2 fnt1">干涸湖盆</text>
   <text x="86957" y="7423"  class="fil2 fnt1">潜在沙漠化土地合计</text>
   <polyline class="fil0 str6" points="66030,5713 66038,15257 66037,30709 "/>
   <text x="26468" y="19955"  class="fil2 fnt2">321.79</text>
   <text x="9585" y="22414"  class="fil2 fnt3">        </text>
   <text x="26456" y="22414"  class="fil2 fnt2">289.86</text>
   <text x="21870" y="17462"  class="fil2 fnt4">        </text>
   <text x="25986" y="17462"  class="fil2 fnt2">3 084.03</text>
   <text x="26472" y="12558"  class="fil2 fnt2">845.48</text>
   <text x="25958" y="14967"  class="fil2 fnt2">5  </text>
   <text x="26848" y="14967"  class="fil2 fnt2">386.09</text>
   <text x="18061" y="24864"  class="fil2 fnt3">    </text>
   <text x="26496" y="24864"  class="fil2 fnt2">118.13</text>
   <text x="25475" y="30069"  class="fil2 fnt2">10  </text>
   <text x="26876" y="30069"  class="fil2 fnt2">072.43</text>
   <text x="18527" y="27322"  class="fil2 fnt3">    </text>
   <text x="26963" y="27322"  class="fil2 fnt2">27.02</text>
   <text x="34471" y="19955"  class="fil2 fnt2">177.94</text>
   <text x="17600" y="22414"  class="fil2 fnt3">        </text>
   <text x="34471" y="22414"  class="fil2 fnt2">360.64</text>
   <text x="29861" y="17462"  class="fil2 fnt4">        </text>
   <text x="33719" y="17462"  class="fil2 fnt2">14  </text>
   <text x="35120" y="17462"  class="fil2 fnt2">940.9</text>
   <text x="33474" y="12558"  class="fil2 fnt2">26  </text>
   <text x="34875" y="12558"  class="fil2 fnt2">722.57</text>
   <text x="33450" y="14967"  class="fil2 fnt2">61 </text>
   <text x="34597" y="14967"  class="fil2 fnt2">359.84</text>
   <text x="26582" y="24864"  class="fil2 fnt3">    </text>
   <text x="35017" y="24864"  class="fil2 fnt2">10.05</text>
   <text x="33470" y="30069"  class="fil2 fnt2">103  </text>
   <text x="35381" y="30069"  class="fil2 fnt2">585.8</text>
   <text x="26550" y="27322"  class="fil2 fnt3">    </text>
   <text x="34985" y="27322"  class="fil2 fnt2">13.86</text>
   <text x="42112" y="19955"  class="fil2 fnt2">427.4</text>
   <text x="24751" y="22414"  class="fil2 fnt3">        </text>
   <text x="41622" y="22414"  class="fil2 fnt2">252.18</text>
   <text x="37060" y="17462"  class="fil2 fnt4">        </text>
   <text x="40918" y="17462"  class="fil2 fnt2">1 </text>
   <text x="41555" y="17462"  class="fil2 fnt2">340.51</text>
   <text x="41626" y="12558"  class="fil2 fnt2">436.07</text>
   <text x="41602" y="14949"  class="fil2 fnt2">901.84</text>
   <text x="33761" y="24864"  class="fil2 fnt3">    </text>
   <text x="42197" y="24864"  class="fil2 fnt2">125.1</text>
   <text x="41176" y="30069"  class="fil2 fnt2">3  </text>
   <text x="42066" y="30069"  class="fil2 fnt2">522.51</text>
   <text x="33761" y="27322"  class="fil2 fnt3">    </text>
   <text x="42197" y="27322"  class="fil2 fnt2">39.41</text>
   <text x="49938" y="19955"  class="fil2 fnt2">627.43</text>
   <text x="33043" y="22414"  class="fil2 fnt3">        </text>
   <text x="49914" y="22414"  class="fil2 fnt2">568.08</text>
   <text x="44841" y="17462"  class="fil2 fnt4">        </text>
   <text x="48700" y="17462"  class="fil2 fnt2">12 </text>
   <text x="49847" y="17462"  class="fil2 fnt2">655.31</text>
   <text x="48876" y="12558"  class="fil2 fnt2">31  </text>
   <text x="50277" y="12558"  class="fil2 fnt2">962.36</text>
   <text x="48897" y="14967"  class="fil2 fnt2">33  </text>
   <text x="50298" y="14967"  class="fil2 fnt2">018.17</text>
   <text x="42053" y="24864"  class="fil2 fnt3">    </text>
   <text x="50488" y="24864"  class="fil2 fnt2">571.1</text>
   <text x="48897" y="30069"  class="fil2 fnt2">80  </text>
   <text x="50298" y="30069"  class="fil2 fnt2">571.77</text>
   <text x="41502" y="27322"  class="fil2 fnt3">    </text>
   <text x="49938" y="27322"  class="fil2 fnt2">1439.3</text>
   <text x="59174" y="19955"  class="fil2 fnt2">1  </text>
   <text x="60064" y="19955"  class="fil2 fnt2">6 </text>
   <text x="60701" y="19955"  class="fil2 fnt2">52.27</text>
   <text x="43456" y="22414"  class="fil2 fnt3">        </text>
   <text x="59272" y="22414"  class="fil2 fnt2">1  </text>
   <text x="60163" y="22414"  class="fil2 fnt2">847.00</text>
   <text x="55177" y="17462"  class="fil2 fnt4">        </text>
   <text x="59035" y="17462"  class="fil2 fnt2">33 </text>
   <text x="60183" y="17462"  class="fil2 fnt2">822.59</text>
   <text x="58766" y="12558"  class="fil2 fnt2">60  </text>
   <text x="60167" y="12558"  class="fil2 fnt2">287.22</text>
   <text x="59043" y="14967"  class="fil2 fnt2">101 </text>
   <text x="60701" y="14967"  class="fil2 fnt2">871.7</text>
   <text x="51755" y="24864"  class="fil2 fnt3">    </text>
   <text x="60191" y="24864"  class="fil2 fnt2">891.67</text>
   <text x="59055" y="30069"  class="fil2 fnt2">201 </text>
   <text x="60713" y="30069"  class="fil2 fnt2">895.5</text>
   <text x="52148" y="27336"  class="fil2 fnt3">    </text>
   <text x="59530" y="27336"  class="fil2 fnt2">1 </text>
   <text x="60167" y="27336"  class="fil2 fnt2">523.04</text>
   <text x="67175" y="17462"  class="fil2 fnt4">        </text>
   <text x="71291" y="17462"  class="fil2 fnt2">548.91</text>
   <text x="70186" y="12558"  class="fil2 fnt2">11 </text>
   <text x="71333" y="12558"  class="fil2 fnt2">687.22</text>
   <text x="70696" y="14967"  class="fil2 fnt2">8 </text>
   <text x="71333" y="14967"  class="fil2 fnt2">197.22</text>
   <text x="69948" y="30069"  class="fil2 fnt2">10  </text>
   <text x="71349" y="30069"  class="fil2 fnt2">690.79</text>
   <text x="76630" y="17462"  class="fil2 fnt4">        </text>
   <text x="80746" y="17462"  class="fil2 fnt2">182.87</text>
   <text x="80721" y="12558"  class="fil2 fnt2">716.54</text>
   <text x="80227" y="14967"  class="fil2 fnt2">1 </text>
   <text x="80864" y="14967"  class="fil2 fnt2">377.09</text>
   <text x="79847" y="30059"  class="fil2 fnt2">2  </text>
   <text x="80738" y="30059"  class="fil2 fnt2">276.49</text>
   <text x="91419" y="19955"  class="fil2 fnt2">116.01</text>
   <text x="74468" y="22414"  class="fil2 fnt3">        </text>
   <text x="91339" y="22414"  class="fil2 fnt2">216.26</text>
   <text x="87240" y="17462"  class="fil2 fnt4">        </text>
   <text x="91355" y="17462"  class="fil2 fnt2">731.78</text>
   <text x="90909" y="12558"  class="fil2 fnt2">1  </text>
   <text x="91799" y="12558"  class="fil2 fnt2">884.61</text>
   <text x="90909" y="14967"  class="fil2 fnt2">9 574.31</text>
   <text x="83414" y="24864"  class="fil2 fnt3">    </text>
   <text x="91850" y="24864"  class="fil2 fnt2">17.16</text>
   <text x="89954" y="30069"  class="fil2 fnt2">12  </text>
   <text x="91355" y="30069"  class="fil2 fnt2">967.28</text>
   <text x="82900" y="27322"  class="fil2 fnt3">    </text>
   <text x="91335" y="27322"  class="fil2 fnt2">427.14</text>
   <text x="87930" y="5271"  class="fil2 fnt5">(单位：平方千米 </text>
   <text x="96292" y="5271"  class="fil2 fnt5">：</text>
   <text x="98521" y="5271"  class="fil2 fnt5">)</text>
   <text x="94985" y="5271"  class="fil2 fnt6">Unit</text>
   <text x="97174" y="5271"  class="fil2 fnt7">km</text>
   <text x="98301" y="4830"  class="fil2 fnt8">2</text>
   <g transform="matrix(1 0 0 1 -48229.2 -6623.79)">
    <text x="50000" y="15833"  class="fil2 fnt9">Prefecture</text>
   </g>
   <g transform="matrix(1 0 0 1 -39168 -6825.83)">
    <text x="47226" y="15833"  class="fil2 fnt9">Motive sand</text>
   </g>
   <g transform="matrix(1 0 0 1 -39168 -6825.83)">
    <text x="47397" y="16868"  class="fil2 fnt9">(dune) land</text>
   </g>
   <g transform="matrix(1 0 0 1 -31182.1 -6825.83)">
    <text x="45883" y="15833"  class="fil2 fnt9">Semi-motive sand</text>
   </g>
   <g transform="matrix(1 0 0 1 -31182.1 -6825.83)">
    <text x="47397" y="16868"  class="fil2 fnt9">(dune) land</text>
   </g>
   <g transform="matrix(1 0 0 1 -45841.5 -2738.29)">
    <text x="48771" y="15833"  class="fil2 fnt9">Ngari</text>
   </g>
   <g transform="matrix(1 0 0 1 -45836.7 -338.167)">
    <text x="48484" y="15833"  class="fil2 fnt9">Nagqu</text>
   </g>
   <g transform="matrix(1 0 0 1 -45813 2148.21)">
    <text x="48427" y="15833"  class="fil2 fnt9">Xigaze</text>
   </g>
   <g transform="matrix(1 0 0 1 -45872.6 4638.79)">
    <text x="47569" y="15833"  class="fil2 fnt9">Lhasa City</text>
   </g>
   <g transform="matrix(1 0 0 1 -45841.7 7214.08)">
    <text x="47940" y="15833"  class="fil2 fnt9">Shannan</text>
   </g>
   <g transform="matrix(1 0 0 1 -45866.1 9675.96)">
    <text x="48027" y="15833"  class="fil2 fnt9">Nyingchi</text>
   </g>
   <g transform="matrix(1 0 0 1 -45840.2 12020.9)">
    <text x="48326" y="15833"  class="fil2 fnt9">Q</text>
    <text x="49126" y="15833"  class="fil2 fnt10">amdo</text>
   </g>
   <g transform="matrix(1 0 0 1 -46927.7 14652.2)">
    <text x="50000" y="15833"  class="fil2 fnt9">Total</text>
   </g>
   <g transform="matrix(1 0 0 1 -22660.3 -6779)">
    <text x="46311" y="15833"  class="fil2 fnt9">Semi-fixed sand</text>
   </g>
   <g transform="matrix(1 0 0 1 -22660.3 -6779)">
    <text x="47397" y="16868"  class="fil2 fnt9">(dune) land</text>
   </g>
   <g transform="matrix(1 0 0 1 -14601.9 -6791.5)">
    <text x="46396" y="15833"  class="fil2 fnt9">Bare sandy and</text>
   </g>
   <g transform="matrix(1 0 0 1 -14601.9 -6791.5)">
    <text x="47483" y="16868"  class="fil2 fnt9">gravel land</text>
   </g>
   <g transform="matrix(1 0 0 1 -7183.38 -6791.5)">
    <text x="47483" y="15833"  class="fil2 fnt9">Fixed sand</text>
   </g>
   <g transform="matrix(1 0 0 1 -7183.38 -6791.5)">
    <text x="47397" y="16868"  class="fil2 fnt9">(dune) land</text>
   </g>
   <g transform="matrix(1 0 0 1 790.375 -6779)">
    <text x="46111" y="15833"  class="fil2 fnt9">Semi-bare sandy </text>
   </g>
   <g transform="matrix(1 0 0 1 790.375 -6779)">
    <text x="48213" y="16868"  class="fil2 fnt10"> </text>
    <text x="46496" y="16868"  class="fil2 fnt9">and</text>
    <text x="48470" y="16868"  class="fil2 fnt9">gravel land</text>
   </g>
   <g transform="matrix(1 0 0 1 10593.9 -6779)">
    <text x="44537" y="15833"  class="fil2 fnt9">Total acreage of aeolian</text>
   </g>
   <g transform="matrix(1 0 0 1 10593.9 -6779)">
    <text x="46511" y="16868"  class="fil2 fnt9">desertified land</text>
   </g>
   <g transform="matrix(1 0 0 1 22132.1 -6791.5)">
    <text x="45224" y="15833"  class="fil2 fnt9">Degraded grassland,</text>
   </g>
   <g transform="matrix(1 0 0 1 22132.1 -6791.5)">
    <text x="47955" y="16868"  class="fil2 fnt10"> </text>
    <text x="45210" y="16868"  class="fil2 fnt9">sandy</text>
    <text x="48212" y="16868"  class="fil2 fnt9">cultivated land</text>
   </g>
   <g transform="matrix(1 0 0 1 31886.4 -6791.5)">
    <text x="46969" y="15833"  class="fil2 fnt9">Dried up lake </text>
   </g>
   <g transform="matrix(1 0 0 1 31886.4 -6791.5)">
    <text x="48770" y="16868"  class="fil2 fnt9">basin</text>
   </g>
   <g transform="matrix(1 0 0 1 42261.6 -6779)">
    <text x="44251" y="15833"  class="fil2 fnt9">Total acreage of potential</text>
   </g>
   <g transform="matrix(1 0 0 1 42261.6 -6779)">
    <text x="45710" y="16868"  class="fil2 fnt9">desertification land</text>
   </g>
   <polyline class="fil0 str8" points="5284,17375 5488,17127 5683,17403 "/>
   <text x="25470" y="3813"  class="fil2 fnt0">            Acreage of differend types of aeolian desertified land in each prefecture of Tibet</text>
   <g transform="matrix(1.2 0 0 1 -10410 -13626.3)">
    <text x="38608" y="15833"  class="fil2 fnt11">  </text>
    <text x="39343" y="15833"  class="fil2 fnt11">西藏高原各地各类沙漠化土地面积</text>
   </g>
  </g>
 </g>
</svg>
