<?xml version="1.0" encoding="UTF-8"?>
<!DOCTYPE svg PUBLIC "-//W3C//DTD SVG 1.1//EN" "http://www.w3.org/Graphics/SVG/1.1/DTD/svg11.dtd">
<!-- Creator: CorelDRAW X6 -->
<svg xmlns="http://www.w3.org/2000/svg" xml:space="preserve" width="1001px" height="346px" version="1.1" style="shape-rendering:geometricPrecision; text-rendering:geometricPrecision; image-rendering:optimizeQuality; fill-rule:evenodd; clip-rule:evenodd"
viewBox="0 0 100100 34580"
 xmlns:xlink="http://www.w3.org/1999/xlink">
 <defs>
  <style type="text/css">
   <![CDATA[
    .str3 {stroke:#332C2B;stroke-width:34.671}
    .str2 {stroke:#00A2E9;stroke-width:36.4;stroke-linejoin:round}
    .str4 {stroke:#332C2B;stroke-width:45.5}
    .str0 {stroke:#332C2B;stroke-width:45.5;stroke-linejoin:round}
    .str1 {stroke:#6D583D;stroke-width:45.5;stroke-linejoin:round}
    .str5 {stroke:#823520;stroke-width:45.5;stroke-linejoin:round}
    .str10 {stroke:#332C2B;stroke-width:54.6}
    .str8 {stroke:gray;stroke-width:54.6}
    .str9 {stroke:#332C2B;stroke-width:91}
    .str6 {stroke:#FEFEFE;stroke-width:91}
    .str7 {stroke:#FEFEFE;stroke-width:91;stroke-linejoin:round}
    .fil3 {fill:none}
    .fil0 {fill:#FEFEFE}
    .fil2 {fill:#00A2E9}
    .fil4 {fill:#332C2B}
    .fil1 {fill:#6D583D}
    .fil5 {fill:#823520}
    .fil6 {fill:#E3E7E5}
    .fil7 {fill:#F5F2E8}
    .fil8 {fill:#FFFDEA}
    .fnt5 {font-weight:normal;font-size:802.575px;font-family:'Times New Roman'}
    .fnt6 {font-weight:normal;font-size:963.053px;font-family:'Times New Roman'}
    .fnt4 {font-weight:normal;font-size:963.053px;font-family:'宋体'}
    .fnt8 {font-weight:normal;font-size:1123.58px;font-family:'Arial'}
    .fnt3 {font-weight:normal;font-size:1123.58px;font-family:'宋体'}
    .fnt1 {font-weight:normal;font-size:1123.58px;font-family:'方正书宋简体'}
    .fnt9 {font-weight:normal;font-size:1123.58px;font-family:'方正准圆简体'}
    .fnt10 {font-weight:normal;font-size:1284.1px;font-family:'Arial'}
    .fnt0 {font-weight:normal;font-size:1284.1px;font-family:'方正中等线简体'}
    .fnt11 {font-weight:normal;font-size:1605.15px;font-family:'方正准圆简体'}
    .fnt2 {font-weight:normal;font-size:4605.78px;font-family:'宋体'}
    .fnt7 {font-weight:normal;font-size:481.527px;font-family:'Times New Roman';baseline-shift:super}
   ]]>
  </style>
 </defs>
<symbol id="符号80" viewBox="49754 16994 592 591">
 <path class="fil0 str0" d="M50323 17290c0,-151 -122,-273 -273,-273 -151,0 -273,122 -273,273 0,151 122,273 273,273 151,0 273,-122 273,-273z"/>
</symbol>
<symbol id="符号78" viewBox="49959 17199 182 182">
 <path class="fil1 str1" d="M50118 17290c0,-38 -31,-68 -68,-68 -38,0 -68,31 -68,68 0,38 31,68 68,68 38,0 68,-31 68,-68z"/>
</symbol>
<symbol id="符号8" viewBox="49576 17090 930 400">
 <polygon class="fil2" points="49915,17246 49917,17246 49925,17246 49938,17246 49954,17246 49974,17246 49997,17246 50021,17245 50048,17244 50075,17242 50103,17240 50131,17237 50158,17233 50183,17229 50207,17224 50228,17217 50246,17209 50262,17202 50278,17194 50294,17187 50310,17181 50326,17176 50342,17171 50358,17168 50373,17165 50389,17163 50405,17163 50422,17163 50438,17165 50454,17168 50471,17172 50506,17191 50506,17192 50501,17192 50492,17191 50480,17190 50466,17189 50450,17188 50433,17188 50415,17188 50395,17190 50375,17193 50355,17197 50335,17203 50315,17211 50296,17221 50278,17233 50251,17246 50222,17258 50194,17269 50166,17278 50138,17287 50111,17294 50085,17300 50061,17305 50038,17310 50017,17313 49983,17320 49970,17322 49955,17324 49945,17324 "/>
 <path class="fil2 str2" d="M49958 17290c0,-100 -81,-182 -182,-182 -100,0 -182,82 -182,182 0,101 82,182 182,182 101,0 182,-81 182,-182z"/>
</symbol>
<symbol id="符号81" viewBox="49691 16931 717 717">
 <circle class="fil0 str3" cx="50050" cy="17290" r="341"/>
 <circle class="fil3 str3" cx="50050" cy="17290" r="128"/>
</symbol>
<symbol id="符号73" viewBox="49868 17017 364 546">
 <polygon class="fil1" points="49873,17563 50048,17017 50232,17563 49868,17563 "/>
</symbol>
<symbol id="符号70" viewBox="49532 16772 1036 1036">
 <circle class="fil0 str3" cx="50050" cy="17290" r="500"/>
 <circle class="fil4 str3" cx="50050" cy="17290" r="296"/>
</symbol>
<symbol id="符号65" viewBox="49761 17001 578 578">
 <line class="fil3 str4" x1="49777" y1="17017" x2="50323" y2= "17563" />
 <line class="fil3 str4" x1="49777" y1="17563" x2="50323" y2= "17017" />
</symbol>
<symbol id="符号41" viewBox="49868 17017 364 546">
 <polygon class="fil5" points="49873,17563 50048,17017 50232,17563 49868,17563 "/>
</symbol>
<symbol id="符号40" viewBox="49959 17199 182 182">
 <path class="fil5 str5" d="M50118 17290c0,-38 -31,-68 -68,-68 -38,0 -68,31 -68,68 0,38 31,68 68,68 38,0 68,-31 68,-68z"/>
</symbol>
<symbol id="符号35" viewBox="49775 17015 551 551">
 <circle class="fil0 str3" cx="50050" cy="17290" r="258"/>
 <circle class="fil3 str3" cx="50050" cy="17290" r="92"/>
</symbol>
<symbol id="符号16" viewBox="49441 16681 1218 1218">
 <circle class="fil0 str3" cx="50050" cy="17290" r="592"/>
 <circle class="fil3 str3" cx="50050" cy="17290" r="222"/>
</symbol>
<symbol id="符号58" viewBox="49761 17001 578 578">
 <line class="fil3 str4" x1="49777" y1="17017" x2="50323" y2= "17563" />
 <line class="fil3 str4" x1="49777" y1="17563" x2="50323" y2= "17017" />
</symbol>
<symbol id="符号52" viewBox="49761 17001 578 578">
 <rect class="fil0" x="49777" y="17017" width="546" height="546"/>
 <line class="fil3 str4" x1="49777" y1="17017" x2="50323" y2= "17563" />
 <line class="fil3 str4" x1="49777" y1="17563" x2="50323" y2= "17017" />
</symbol>
<symbol id="符号43" viewBox="49760 17000 581 581">
 <circle class="fil0 str3" cx="50050" cy="17290" r="273"/>
 <circle class="fil3 str3" cx="50050" cy="17290" r="102"/>
</symbol>
<symbol id="符号42" viewBox="49754 16994 592 591">
 <path class="fil0 str0" d="M50323 17290c0,-151 -122,-273 -273,-273 -151,0 -273,122 -273,273 0,151 122,273 273,273 151,0 273,-122 273,-273z"/>
</symbol>
<symbol id="符号39" viewBox="49849 16900 426 678">
 <polygon class="fil3 str6" points="49892,17533 50048,17047 50212,17533 49888,17533 "/>
 <polygon id="1" class="fil1" points="49892,17533 50048,17047 50212,17533 49888,17533 "/>
</symbol>
<symbol id="符号37" viewBox="49863 17103 374 374">
 <line class="fil3 str4" x1="49879" y1="17119" x2="50221" y2= "17461" />
 <line class="fil3 str4" x1="49879" y1="17461" x2="50221" y2= "17119" />
</symbol>
<symbol id="符号26" viewBox="49761 17001 578 578">
 <line class="fil3 str4" x1="49777" y1="17017" x2="50323" y2= "17563" />
 <line class="fil3 str4" x1="49777" y1="17563" x2="50323" y2= "17017" />
</symbol>
<symbol id="符号20" viewBox="49945 17185 209 209">
 <path class="fil5 str5" d="M50132 17290c0,-45 -37,-82 -82,-82 -45,0 -82,37 -82,82 0,45 37,82 82,82 45,0 82,-37 82,-82z"/>
</symbol>
<symbol id="符号5" viewBox="49754 16994 592 591">
 <path class="fil0 str0" d="M50323 17290c0,-151 -122,-273 -273,-273 -151,0 -273,122 -273,273 0,151 122,273 273,273 151,0 273,-122 273,-273z"/>
</symbol>
<symbol id="符号86" viewBox="49868 17017 364 546">
 <polygon class="fil1" points="49873,17563 50048,17017 50232,17563 49868,17563 "/>
</symbol>
<symbol id="符号84" viewBox="49945 17185 209 209">
 <path class="fil1 str1" d="M50132 17290c0,-45 -37,-82 -82,-82 -45,0 -82,37 -82,82 0,45 37,82 82,82 45,0 82,-37 82,-82z"/>
</symbol>
<symbol id="符号62" viewBox="49754 16994 592 591">
 <path class="fil0 str0" d="M50323 17290c0,-151 -122,-273 -273,-273 -151,0 -273,122 -273,273 0,151 122,273 273,273 151,0 273,-122 273,-273z"/>
</symbol>
<symbol id="符号50" viewBox="49532 16772 1036 1036">
 <circle class="fil0 str3" cx="50050" cy="17290" r="500"/>
 <circle class="fil4 str3" cx="50050" cy="17290" r="296"/>
</symbol>
<symbol id="符号4" viewBox="49710 17143 662 293">
 <polygon class="fil2" points="49958,17250 49960,17250 49965,17250 49974,17250 49985,17250 49999,17250 50015,17250 50033,17249 50051,17248 50070,17246 50090,17244 50109,17241 50128,17238 50146,17233 50162,17228 50177,17221 50190,17213 50201,17205 50212,17198 50223,17191 50235,17185 50246,17180 50257,17175 50268,17171 50279,17168 50290,17167 50301,17166 50313,17167 50324,17168 50336,17171 50347,17176 50372,17195 50372,17195 50368,17195 50362,17195 50354,17193 50344,17192 50333,17191 50321,17191 50308,17192 50294,17193 50280,17196 50266,17201 50252,17207 50238,17215 50225,17225 50212,17237 50193,17251 50173,17263 50154,17273 50134,17283 50114,17291 50096,17298 50077,17305 50060,17310 50044,17314 50030,17318 50005,17325 49996,17326 49986,17328 49979,17329 "/>
 <path class="fil2 str2" d="M49987 17290c0,-71 -58,-129 -130,-129 -72,0 -130,58 -130,129 0,71 58,129 130,129 72,0 130,-58 130,-129z"/>
</symbol>
<symbol id="符号11" viewBox="49532 16772 1036 1036">
 <circle class="fil0 str3" cx="50050" cy="17290" r="500"/>
 <circle class="fil4 str3" cx="50050" cy="17290" r="296"/>
</symbol>
<symbol id="符号71" viewBox="49761 17001 578 578">
 <line class="fil3 str4" x1="49777" y1="17017" x2="50323" y2= "17563" />
 <line class="fil3 str4" x1="49777" y1="17563" x2="50323" y2= "17017" />
</symbol>
<symbol id="符号63" viewBox="49760 17000 581 581">
 <circle class="fil0 str3" cx="50050" cy="17290" r="273"/>
 <circle class="fil3 str3" cx="50050" cy="17290" r="102"/>
</symbol>
<symbol id="符号10" viewBox="49959 17199 182 182">
 <path class="fil5 str5" d="M50118 17290c0,-38 -31,-68 -68,-68 -38,0 -68,31 -68,68 0,38 31,68 68,68 38,0 68,-31 68,-68z"/>
</symbol>
<symbol id="符号79" viewBox="49868 17017 364 546">
 <polygon class="fil1" points="49873,17563 50048,17017 50232,17563 49868,17563 "/>
</symbol>
<symbol id="符号76" viewBox="49532 16772 1036 1036">
 <circle class="fil0 str3" cx="50050" cy="17290" r="500"/>
 <circle class="fil4 str3" cx="50050" cy="17290" r="296"/>
</symbol>
<symbol id="符号55" viewBox="49754 16994 592 591">
 <path class="fil0 str0" d="M50323 17290c0,-151 -122,-273 -273,-273 -151,0 -273,122 -273,273 0,151 122,273 273,273 151,0 273,-122 273,-273z"/>
</symbol>
<symbol id="符号53" viewBox="49945 17185 209 209">
 <path class="fil5 str5" d="M50132 17290c0,-45 -37,-82 -82,-82 -45,0 -82,37 -82,82 0,45 37,82 82,82 45,0 82,-37 82,-82z"/>
</symbol>
<symbol id="符号36" viewBox="49532 16772 1036 1036">
 <circle class="fil0 str3" cx="50050" cy="17290" r="500"/>
 <circle class="fil4 str3" cx="50050" cy="17290" r="296"/>
</symbol>
<symbol id="符号34" viewBox="49754 16994 592 591">
 <path class="fil0 str0" d="M50323 17290c0,-151 -122,-273 -273,-273 -151,0 -273,122 -273,273 0,151 122,273 273,273 151,0 273,-122 273,-273z"/>
</symbol>
<symbol id="符号7" viewBox="49532 16772 1036 1036">
 <circle class="fil0 str3" cx="50050" cy="17290" r="500"/>
 <circle class="fil4 str3" cx="50050" cy="17290" r="296"/>
</symbol>
<symbol id="符号56" viewBox="49691 16931 717 717">
 <circle class="fil0 str3" cx="50050" cy="17290" r="341"/>
 <circle class="fil3 str3" cx="50050" cy="17290" r="128"/>
</symbol>
<symbol id="符号47" viewBox="49532 16772 1036 1036">
 <circle class="fil0 str3" cx="50050" cy="17290" r="500"/>
 <circle class="fil4 str3" cx="50050" cy="17290" r="296"/>
</symbol>
<symbol id="符号25" viewBox="49532 16772 1036 1036">
 <circle class="fil0 str3" cx="50050" cy="17290" r="500"/>
 <circle class="fil4 str3" cx="50050" cy="17290" r="296"/>
</symbol>
<symbol id="符号15" viewBox="49754 16994 592 591">
 <path class="fil0 str0" d="M50323 17290c0,-151 -122,-273 -273,-273 -151,0 -273,122 -273,273 0,151 122,273 273,273 151,0 273,-122 273,-273z"/>
</symbol>
<symbol id="符号9" viewBox="49761 17001 578 578">
 <line class="fil3 str4" x1="49777" y1="17017" x2="50323" y2= "17563" />
 <line class="fil3 str4" x1="49777" y1="17563" x2="50323" y2= "17017" />
</symbol>
<symbol id="符号6" viewBox="49760 17000 581 581">
 <circle class="fil0 str3" cx="50050" cy="17290" r="273"/>
 <circle class="fil3 str3" cx="50050" cy="17290" r="102"/>
</symbol>
<symbol id="符号68" viewBox="49754 16994 592 591">
 <path class="fil0 str0" d="M50323 17290c0,-151 -122,-273 -273,-273 -151,0 -273,122 -273,273 0,151 122,273 273,273 151,0 273,-122 273,-273z"/>
</symbol>
<symbol id="符号66" viewBox="49959 17199 182 182">
 <path class="fil1 str1" d="M50118 17290c0,-38 -31,-68 -68,-68 -38,0 -68,31 -68,68 0,38 31,68 68,68 38,0 68,-31 68,-68z"/>
</symbol>
<symbol id="符号51" viewBox="49668 17126 746 328">
 <polygon class="fil2" points="49946,17245 49948,17245 49954,17245 49964,17245 49977,17245 49993,17245 50011,17245 50030,17244 50051,17242 50073,17241 50095,17238 50117,17235 50138,17231 50158,17225 50177,17219 50194,17212 50208,17203 50221,17194 50234,17186 50246,17178 50259,17171 50271,17165 50284,17160 50296,17155 50309,17152 50322,17150 50334,17150 50347,17150 50360,17152 50373,17156 50386,17161 50414,17182 50414,17183 50410,17183 50403,17182 50393,17181 50382,17179 50370,17178 50356,17178 50342,17179 50326,17181 50310,17184 50294,17189 50278,17195 50263,17205 50248,17216 50234,17230 50212,17245 50189,17259 50167,17271 50145,17282 50123,17291 50101,17300 50081,17307 50061,17313 50043,17318 50027,17322 50000,17329 49989,17331 49978,17333 49970,17334 "/>
 <path class="fil2 str2" d="M49979 17290c0,-80 -66,-146 -147,-146 -81,0 -147,65 -147,146 0,80 66,146 147,146 81,0 147,-65 147,-146z"/>
</symbol>
<symbol id="符号29" viewBox="49754 16994 592 591">
 <path class="fil0 str0" d="M50323 17290c0,-151 -122,-273 -273,-273 -151,0 -273,122 -273,273 0,151 122,273 273,273 151,0 273,-122 273,-273z"/>
</symbol>
<symbol id="符号17" viewBox="49532 16772 1036 1036">
 <circle class="fil0 str3" cx="50050" cy="17290" r="500"/>
 <circle class="fil4 str3" cx="50050" cy="17290" r="296"/>
</symbol>
<symbol id="符号12" viewBox="49868 17017 364 546">
 <polygon class="fil5" points="49873,17563 50048,17017 50232,17563 49868,17563 "/>
</symbol>
<symbol id="符号69" viewBox="49760 17000 581 581">
 <circle class="fil0 str3" cx="50050" cy="17290" r="273"/>
 <circle class="fil3 str3" cx="50050" cy="17290" r="102"/>
</symbol>
<symbol id="符号23" viewBox="49754 16994 592 591">
 <path class="fil0 str0" d="M50323 17290c0,-151 -122,-273 -273,-273 -151,0 -273,122 -273,273 0,151 122,273 273,273 151,0 273,-122 273,-273z"/>
</symbol>
<symbol id="符号85" viewBox="49836 16967 428 646">
 <polygon class="fil1" points="49841,17613 50047,16967 50264,17613 49836,17613 "/>
</symbol>
<symbol id="符号82" viewBox="49532 16772 1036 1036">
 <circle class="fil0 str3" cx="50050" cy="17290" r="500"/>
 <circle class="fil4 str3" cx="50050" cy="17290" r="296"/>
</symbol>
<symbol id="符号77" viewBox="49761 17001 578 578">
 <line class="fil3 str4" x1="49777" y1="17017" x2="50323" y2= "17563" />
 <line class="fil3 str4" x1="49777" y1="17563" x2="50323" y2= "17017" />
</symbol>
<symbol id="符号61" viewBox="49868 17017 364 546">
 <polygon class="fil1" points="49873,17563 50048,17017 50232,17563 49868,17563 "/>
</symbol>
<symbol id="符号59" viewBox="49945 17185 209 209">
 <path class="fil1 str1" d="M50132 17290c0,-45 -37,-82 -82,-82 -45,0 -82,37 -82,82 0,45 37,82 82,82 45,0 82,-37 82,-82z"/>
</symbol>
<symbol id="符号32" viewBox="49668 17126 746 328">
 <polygon class="fil2" points="49946,17245 49948,17245 49954,17245 49964,17245 49977,17245 49993,17245 50011,17245 50030,17244 50051,17242 50073,17241 50095,17238 50117,17235 50138,17231 50158,17225 50177,17219 50194,17212 50208,17203 50221,17194 50234,17186 50246,17178 50259,17171 50271,17165 50284,17160 50296,17155 50309,17152 50322,17150 50334,17150 50347,17150 50360,17152 50373,17156 50386,17161 50414,17182 50414,17183 50410,17183 50403,17182 50393,17181 50382,17179 50370,17178 50356,17178 50342,17179 50326,17181 50310,17184 50294,17189 50278,17195 50263,17205 50248,17216 50234,17230 50212,17245 50189,17259 50167,17271 50145,17282 50123,17291 50101,17300 50081,17307 50061,17313 50043,17318 50027,17322 50000,17329 49989,17331 49978,17333 49970,17334 "/>
 <path class="fil2 str2" d="M49979 17290c0,-80 -66,-146 -147,-146 -81,0 -147,65 -147,146 0,80 66,146 147,146 81,0 147,-65 147,-146z"/>
</symbol>
<symbol id="符号1" viewBox="49888 17047 323 487">
 <polygon class="fil5" points="49892,17533 50048,17047 50212,17533 49888,17533 "/>
</symbol>
<symbol id="符号48" viewBox="49754 16994 592 591">
 <path class="fil0 str0" d="M50323 17290c0,-151 -122,-273 -273,-273 -151,0 -273,122 -273,273 0,151 122,273 273,273 151,0 273,-122 273,-273z"/>
</symbol>
<symbol id="符号44" viewBox="49532 16772 1036 1036">
 <circle class="fil0 str3" cx="50050" cy="17290" r="500"/>
 <circle class="fil4 str3" cx="50050" cy="17290" r="296"/>
</symbol>
<symbol id="符号33" viewBox="49761 17001 578 578">
 <rect class="fil0" x="49777" y="17017" width="546" height="546"/>
 <line class="fil3 str4" x1="49777" y1="17017" x2="50323" y2= "17563" />
 <line class="fil3 str4" x1="49777" y1="17563" x2="50323" y2= "17017" />
</symbol>
<symbol id="符号30" viewBox="49760 17000 581 581">
 <circle class="fil0 str3" cx="50050" cy="17290" r="273"/>
 <circle class="fil3 str3" cx="50050" cy="17290" r="102"/>
</symbol>
<symbol id="符号74" viewBox="49845 17085 410 410">
 <path class="fil0 str0" d="M50232 17290c0,-101 -81,-182 -182,-182 -101,0 -182,82 -182,182 0,101 81,182 182,182 101,0 182,-81 182,-182z"/>
 <circle class="fil4" cx="50050" cy="17290" r="68"/>
</symbol>
<symbol id="符号72" viewBox="49959 17199 182 182">
 <path class="fil1 str1" d="M50118 17290c0,-38 -31,-68 -68,-68 -38,0 -68,31 -68,68 0,38 31,68 68,68 38,0 68,-31 68,-68z"/>
</symbol>
<symbol id="符号54" viewBox="49836 16967 428 646">
 <polygon class="fil5" points="49841,17613 50047,16967 50264,17613 49836,17613 "/>
</symbol>
<symbol id="符号49" viewBox="49691 16931 717 717">
 <circle class="fil0 str3" cx="50050" cy="17290" r="341"/>
 <circle class="fil3 str3" cx="50050" cy="17290" r="128"/>
</symbol>
<symbol id="符号45" viewBox="49754 16994 592 591">
 <path class="fil0 str0" d="M50323 17290c0,-151 -122,-273 -273,-273 -151,0 -273,122 -273,273 0,151 122,273 273,273 151,0 273,-122 273,-273z"/>
</symbol>
<symbol id="符号22" viewBox="49836 16967 428 646">
 <polygon class="fil5" points="49841,17613 50047,16967 50264,17613 49836,17613 "/>
</symbol>
<symbol id="符号18" viewBox="49668 17126 746 328">
 <polygon class="fil2" points="49946,17245 49948,17245 49954,17245 49964,17245 49977,17245 49993,17245 50011,17245 50030,17244 50051,17242 50073,17241 50095,17238 50117,17235 50138,17231 50158,17225 50177,17219 50194,17212 50208,17203 50221,17194 50234,17186 50246,17178 50259,17171 50271,17165 50284,17160 50296,17155 50309,17152 50322,17150 50334,17150 50347,17150 50360,17152 50373,17156 50386,17161 50414,17182 50414,17183 50410,17183 50403,17182 50393,17181 50382,17179 50370,17178 50356,17178 50342,17179 50326,17181 50310,17184 50294,17189 50278,17195 50263,17205 50248,17216 50234,17230 50212,17245 50189,17259 50167,17271 50145,17282 50123,17291 50101,17300 50081,17307 50061,17313 50043,17318 50027,17322 50000,17329 49989,17331 49978,17333 49970,17334 "/>
 <path class="fil2 str2" d="M49979 17290c0,-80 -66,-146 -147,-146 -81,0 -147,65 -147,146 0,80 66,146 147,146 81,0 147,-65 147,-146z"/>
</symbol>
<symbol id="符号2" viewBox="49970 17210 159 159">
 <path class="fil5 str5" d="M50107 17290c0,-31 -25,-57 -57,-57 -31,0 -57,25 -57,57 0,31 25,57 57,57 31,0 57,-25 57,-57z"/>
</symbol>
<symbol id="符号31" viewBox="49532 16772 1036 1036">
 <circle class="fil0 str3" cx="50050" cy="17290" r="500"/>
 <circle class="fil4 str3" cx="50050" cy="17290" r="296"/>
</symbol>
<symbol id="符号21" viewBox="49732 16699 637 1183">
 <polygon class="fil5" points="49739,17882 50046,16699 50369,17882 49732,17882 "/>
</symbol>
<symbol id="符号3" viewBox="49863 17103 374 374">
 <rect class="fil0" x="49879" y="17119" width="342" height="342"/>
 <line class="fil3 str4" x1="49879" y1="17119" x2="50221" y2= "17461" />
 <line class="fil3 str4" x1="49879" y1="17461" x2="50221" y2= "17119" />
</symbol>
<symbol id="符号83" viewBox="49761 17001 578 578">
 <line class="fil3 str4" x1="49777" y1="17017" x2="50323" y2= "17563" />
 <line class="fil3 str4" x1="49777" y1="17563" x2="50323" y2= "17017" />
</symbol>
<symbol id="符号75" viewBox="49760 17000 581 581">
 <circle class="fil0 str3" cx="50050" cy="17290" r="273"/>
 <circle class="fil3 str3" cx="50050" cy="17290" r="102"/>
</symbol>
<symbol id="符号67" viewBox="49868 17017 364 546">
 <polygon class="fil1" points="49873,17563 50048,17017 50232,17563 49868,17563 "/>
</symbol>
<symbol id="符号64" viewBox="49532 16772 1036 1036">
 <circle class="fil0 str3" cx="50050" cy="17290" r="500"/>
 <circle class="fil4 str3" cx="50050" cy="17290" r="296"/>
</symbol>
<symbol id="符号14" viewBox="49754 16994 592 591">
 <path class="fil0 str0" d="M50323 17290c0,-151 -122,-273 -273,-273 -151,0 -273,122 -273,273 0,151 122,273 273,273 151,0 273,-122 273,-273z"/>
</symbol>
<symbol id="符号46" viewBox="49760 17000 581 581">
 <circle class="fil0 str3" cx="50050" cy="17290" r="273"/>
 <circle class="fil3 str3" cx="50050" cy="17290" r="102"/>
</symbol>
<symbol id="符号38" viewBox="49948 17188 205 205">
 <path class="fil3 str7" d="M50107 17290c0,-31 -25,-57 -57,-57 -31,0 -57,25 -57,57 0,31 25,57 57,57 31,0 57,-25 57,-57z"/>
 <path id="1" class="fil1" d="M50107 17290c0,-31 -25,-57 -57,-57 -31,0 -57,25 -57,57 0,31 25,57 57,57 31,0 57,-25 57,-57z"/>
</symbol>
<symbol id="符号19" viewBox="49624 16864 851 851">
 <rect class="fil0" x="49640" y="16880" width="819" height="819"/>
 <line class="fil3 str4" x1="49641" y1="16881" x2="50460" y2= "17700" />
 <line class="fil3 str4" x1="49641" y1="17700" x2="50460" y2= "16881" />
</symbol>
<symbol id="符号13" viewBox="49775 17015 551 551">
 <circle class="fil0 str3" cx="50050" cy="17290" r="258"/>
 <circle class="fil3 str3" cx="50050" cy="17290" r="92"/>
</symbol>
<symbol id="符号60" viewBox="49836 16967 428 646">
 <polygon class="fil1" points="49841,17613 50047,16967 50264,17613 49836,17613 "/>
</symbol>
<symbol id="符号57" viewBox="49532 16772 1036 1036">
 <circle class="fil0 str3" cx="50050" cy="17290" r="500"/>
 <circle class="fil4 str3" cx="50050" cy="17290" r="296"/>
</symbol>
<symbol id="符号28" viewBox="49868 17017 364 546">
 <polygon class="fil1" points="49873,17563 50048,17017 50232,17563 49868,17563 "/>
</symbol>
<symbol id="符号27" viewBox="49959 17199 182 182">
 <path class="fil1 str1" d="M50118 17290c0,-38 -31,-68 -68,-68 -38,0 -68,31 -68,68 0,38 31,68 68,68 38,0 68,-31 68,-68z"/>
</symbol>
<symbol id="符号24" viewBox="49760 17000 581 581">
 <circle class="fil0 str3" cx="50050" cy="17290" r="273"/>
 <circle class="fil3 str3" cx="50050" cy="17290" r="102"/>
</symbol>
 <g id="表格">
  <metadata id="CorelCorpID_0Corel-Layer"/>
  <g id="_1061085904">
   <polygon class="fil6" points="495,33450 99636,33451 99636,6331 464,6328 "/>
   <rect class="fil7" x="6975" y="15121" width="92662" height="18331"/>
   <rect class="fil8" x="6975" y="12517" width="92662" height="2648"/>
   <rect class="fil8" x="6975" y="17792" width="92662" height="2635"/>
   <rect class="fil8" x="6975" y="23062" width="92662" height="2621"/>
   <rect class="fil8" x="6975" y="28359" width="92662" height="2596"/>
   <polyline class="fil3 str8" points="6975,6329 6975,13353 6973,33452 "/>
   <line class="fil3 str8" x1="474" y1="12513" x2="99636" y2= "12520" />
   <line class="fil3 str8" x1="474" y1="15162" x2="99636" y2= "15169" />
   <polyline class="fil3 str8" points="22014,6330 22022,16691 22022,33449 "/>
   <line class="fil3 str8" x1="51120" y1="13824" x2="51120" y2= "15174" />
   <line class="fil3 str8" x1="51257" y1="16458" x2="51257" y2= "17807" />
   <line class="fil3 str8" x1="51257" y1="19092" x2="51257" y2= "20441" />
   <line class="fil3 str8" x1="51257" y1="21802" x2="51257" y2= "23075" />
   <line class="fil3 str8" x1="51257" y1="24359" x2="51257" y2= "25708" />
   <line class="fil3 str8" x1="51257" y1="26992" x2="51257" y2= "28342" />
   <line class="fil3 str8" x1="51257" y1="29626" x2="51257" y2= "30975" />
   <line class="fil3 str8" x1="51257" y1="32206" x2="51257" y2= "33452" />
   <line class="fil3 str8" x1="51117" y1="9344" x2="51119" y2= "12519" />
   <text x="2504" y="8895"  class="fil4 fnt0">地区</text>
   <text x="25060" y="7741"  class="fil4 fnt0">重度沙漠化土地</text>
   <text x="46652" y="7741"  class="fil4 fnt0">中度沙漠化土地</text>
   <text x="74819" y="7741"  class="fil4 fnt0">轻度沙漠化土地</text>
   <line class="fil3 str9" x1="99636" y1="6331" x2="464" y2= "6328" />
   <line class="fil3 str9" x1="99636" y1="33484" x2="99636" y2= "6330" />
   <line class="fil3 str9" x1="464" y1="6328" x2="498" y2= "33450" />
   <text x="2492" y="13667"  class="fil4 fnt0">阿里</text>
   <text x="8480" y="7741"  class="fil4 fnt0">极重度沙漠化土地</text>
   <text x="2541" y="16327"  class="fil4 fnt0">那曲</text>
   <text x="1855" y="19027"  class="fil4 fnt0">日喀则</text>
   <text x="1844" y="21728"  class="fil4 fnt0">拉萨市</text>
   <text x="2499" y="24427"  class="fil4 fnt0">山南</text>
   <text x="2484" y="26878"  class="fil4 fnt0">林芝</text>
   <text x="2455" y="29573"  class="fil4 fnt0">昌都</text>
   <line class="fil3 str8" x1="474" y1="17788" x2="99636" y2= "17795" />
   <line class="fil3 str8" x1="464" y1="20423" x2="99636" y2= "20430" />
   <line class="fil3 str8" x1="464" y1="23059" x2="99636" y2= "23066" />
   <line class="fil3 str8" x1="464" y1="25685" x2="99636" y2= "25692" />
   <line class="fil3 str8" x1="464" y1="28325" x2="99636" y2= "28332" />
   <line class="fil3 str8" x1="464" y1="30951" x2="99636" y2= "30958" />
   <line class="fil3 str9" x1="464" y1="33448" x2="99636" y2= "33455" />
   <text x="13263" y="22118"  class="fil4 fnt1">29.89</text>
   <text x="-5401" y="24753"  class="fil4 fnt2">        </text>
   <text x="13022" y="24753"  class="fil4 fnt1">200.21</text>
   <text x="14494" y="18990"  class="fil4 fnt3">        </text>
   <text x="13274" y="14221"  class="fil4 fnt1">89.35</text>
   <text x="15781" y="14221"  class="fil4 fnt3"> </text>
   <text x="12987" y="16856"  class="fil4 fnt1">300.78</text>
   <text x="4063" y="27392"  class="fil4 fnt2">    </text>
   <text x="13274" y="27392"  class="fil4 fnt1">34.45</text>
   <text x="4319" y="30019"  class="fil4 fnt2">    </text>
   <text x="13531" y="30019"  class="fil4 fnt1">0.00</text>
   <polyline class="fil3 str8" points="37031,6345 37039,16703 37040,33452 "/>
   <polyline class="fil3 str8" points="65198,6332 65206,16687 65206,33452 "/>
   <text x="28333" y="22126"  class="fil4 fnt1">67.81</text>
   <text x="9609" y="24757"  class="fil4 fnt2">        </text>
   <text x="28032" y="24757"  class="fil4 fnt1">176.03</text>
   <text x="29527" y="18990"  class="fil4 fnt3">        </text>
   <text x="28006" y="14225"  class="fil4 fnt1">501.40</text>
   <text x="31070" y="14225"  class="fil4 fnt3"> </text>
   <text x="28019" y="16852"  class="fil4 fnt1">904.98</text>
   <text x="19075" y="27386"  class="fil4 fnt2">    </text>
   <text x="28287" y="27386"  class="fil4 fnt1">32.82</text>
   <text x="19354" y="30019"  class="fil4 fnt2">    </text>
   <text x="28566" y="30019"  class="fil4 fnt1">3.44</text>
   <text x="29527" y="18990"  class="fil4 fnt3">        </text>
   <text x="49043" y="13556"  class="fil4 fnt1">27 568.04</text>
   <text x="42571" y="14865"  class="fil4 fnt1">845.48</text>
   <text x="55949" y="14865"  class="fil4 fnt1">26 722.56</text>
   <text x="94569" y="30023"  class="fil4 fnt1">1 523.04</text>
   <text x="75599" y="32585"  class="fil4 fnt2">        </text>
   <text x="94022" y="32585"  class="fil4 fnt1">201 895.48</text>
   <text x="90505" y="27386"  class="fil4 fnt3">        </text>
   <text x="94999" y="27386"  class="fil4 fnt1">891.67</text>
   <text x="94290" y="14208"  class="fil4 fnt1">60 287.22</text>
   <text x="94009" y="16860"  class="fil4 fnt1">101 871.70</text>
   <text x="94301" y="19489"  class="fil4 fnt1">33 822.58</text>
   <text x="94582" y="22183"  class="fil4 fnt1">1 652.27</text>
   <text x="94567" y="24755"  class="fil4 fnt1">1 847.00</text>
   <text x="87587" y="5849"  class="fil4 fnt4">(单位：平方千米 </text>
   <text x="96718" y="5849"  class="fil4 fnt4">：</text>
   <text x="99153" y="5849"  class="fil4 fnt4">)</text>
   <text x="95292" y="5849"  class="fil4 fnt5">Unit</text>
   <text x="97682" y="5849"  class="fil4 fnt6">km</text>
   <text x="98912" y="5368"  class="fil4 fnt7">2</text>
   <g transform="matrix(1 0 0 1 -48883.2 -7139.72)">
    <text x="50050" y="17290"  class="fil4 fnt8">Prefecture</text>
   </g>
   <g transform="matrix(1 0 0 1 -35515 -8329.05)">
    <text x="42712" y="17290"  class="fil4 fnt8">Very severely desertified land</text>
   </g>
   <g transform="matrix(1 0 0 1 -46265.1 -2555.74)">
    <text x="48708" y="17290"  class="fil4 fnt8">Ngari</text>
   </g>
   <g transform="matrix(1 0 0 1 -46270.6 124.534)">
    <text x="48394" y="17290"  class="fil4 fnt8">Nagqu</text>
   </g>
   <g transform="matrix(1 0 0 1 -46244.8 2830.01)">
    <text x="48332" y="17290"  class="fil4 fnt8">Xigaze</text>
   </g>
   <g transform="matrix(1 0 0 1 -46309.8 5554.09)">
    <text x="47396" y="17290"  class="fil4 fnt8">Lhasa City</text>
   </g>
   <g transform="matrix(1 0 0 1 -46276.1 8222.9)">
    <text x="47801" y="17290"  class="fil4 fnt8">Shannan</text>
   </g>
   <g transform="matrix(1 0 0 1 -46302.8 10675.3)">
    <text x="47896" y="17290"  class="fil4 fnt8">Nyingchi</text>
   </g>
   <g transform="matrix(1 0 0 1 -46274.5 13445.5)">
    <text x="48222" y="17290"  class="fil4 fnt8">Q</text>
    <text x="49096" y="17290"  class="fil4 fnt9">amdo</text>
   </g>
   <g transform="matrix(1 0 0 1 -20482.5 -8329.05)">
    <text x="43898" y="17290"  class="fil4 fnt8">Severely desertified land</text>
   </g>
   <g transform="matrix(1 0 0 1 269.451 -8329.05)">
    <text x="43305" y="17290"  class="fil4 fnt8">Moderately desertified land</text>
   </g>
   <g transform="matrix(1 0 0 1 29276 -8329.05)">
    <text x="44273" y="17290"  class="fil4 fnt8">Slightly desertified land</text>
   </g>
   <polyline class="fil3 str10" points="4998,19495 5220,19224 5433,19525 "/>
   <text x="25276" y="10775"  class="fil4 fnt0">半流动沙(丘)地</text>
   <text x="39827" y="10775"  class="fil4 fnt0">半固定沙(丘)地</text>
   <text x="54979" y="10770"  class="fil4 fnt0">裸露沙砾地</text>
   <text x="22229" y="11990"  class="fil4 fnt8">Semi-motive sand(dune) land</text>
   <text x="37249" y="11990"  class="fil4 fnt8">Semi-fixed sand(dune) land</text>
   <text x="51363" y="11938"  class="fil4 fnt8">Bare sandy and gravel land</text>
   <text x="94603" y="7915"  class="fil4 fnt0">沙漠化</text>
   <text x="93961" y="9360"  class="fil4 fnt0">土地合计</text>
   <g transform="matrix(1 0 0 1 46495.1 -6440.57)">
    <text x="47365" y="17290"  class="fil4 fnt8">Desertified </text>
   </g>
   <g transform="matrix(1 0 0 1 46495.1 -6440.57)">
    <text x="47655" y="18420"  class="fil4 fnt8">land Total</text>
   </g>
   <line class="fil3 str8" x1="6975" y1="9342" x2="93367" y2= "9349" />
   <text x="10028" y="10770"  class="fil4 fnt0">流动沙（丘）地</text>
   <g transform="matrix(1 0 0 1 -35515 -5299.61)">
    <text x="44179" y="17290"  class="fil4 fnt8">Motive sand(dune) land</text>
   </g>
   <text x="12989" y="19491"  class="fil4 fnt1">613.47</text>
   <text x="2573" y="32174"  class="fil4 fnt0">合计</text>
   <text x="12578" y="32524"  class="fil4 fnt1">1 268.15</text>
   <text x="27615" y="32518"  class="fil4 fnt1">2 874.83</text>
   <text x="31513" y="32518"  class="fil4 fnt2"> </text>
   <g transform="matrix(1 0 0 1 -47364.9 15992)">
    <text x="50050" y="17290"  class="fil4 fnt8">Total</text>
   </g>
   <text x="27593" y="19491"  class="fil4 fnt1">1 188.36</text>
   <polyline class="fil3 str8" points="93365,6319 93373,16678 93372,33451 "/>
   <text x="67994" y="10762"  class="fil4 fnt0">半固定沙(丘)地</text>
   <text x="83146" y="10757"  class="fil4 fnt0">裸露沙砾地</text>
   <text x="65415" y="11977"  class="fil4 fnt8">Semi-fixed sand(dune) land</text>
   <text x="79529" y="11925"  class="fil4 fnt8">Bare sandy and gravel land</text>
   <line class="fil3 str8" x1="37040" y1="13823" x2="93371" y2= "13830" />
   <line class="fil3 str8" x1="37040" y1="16475" x2="93371" y2= "16482" />
   <line class="fil3 str8" x1="37040" y1="19106" x2="93371" y2= "19113" />
   <line class="fil3 str8" x1="37040" y1="21800" x2="93371" y2= "21807" />
   <line class="fil3 str8" x1="37040" y1="24372" x2="93371" y2= "24379" />
   <line class="fil3 str8" x1="37040" y1="27005" x2="93371" y2= "27012" />
   <line class="fil3 str8" x1="37040" y1="29638" x2="93371" y2= "29645" />
   <text x="49043" y="16206"  class="fil4 fnt1">66 745.94</text>
   <text x="49054" y="18840"  class="fil4 fnt1">18 </text>
   <text x="50333" y="18840"  class="fil4 fnt1"> </text>
   <text x="50471" y="18840"  class="fil4 fnt1">024.93</text>
   <text x="49738" y="21473"  class="fil4 fnt1">499.74</text>
   <text x="49736" y="24107"  class="fil4 fnt1">650.50</text>
   <text x="49736" y="26740"  class="fil4 fnt1">128.20</text>
   <text x="49883" y="29374"  class="fil4 fnt1">40</text>
   <text x="51560" y="29374"  class="fil4 fnt1">89</text>
   <text x="50998" y="29374"  class="fil4 fnt3">.</text>
   <text x="48788" y="31954"  class="fil4 fnt1">113 658.23</text>
   <text x="42140" y="17519"  class="fil4 fnt1">5 386.10</text>
   <text x="42167" y="20153"  class="fil4 fnt1">3 084.03</text>
   <text x="42568" y="22786"  class="fil4 fnt1">321.79</text>
   <text x="42562" y="25420"  class="fil4 fnt1">289.86</text>
   <text x="42560" y="28053"  class="fil4 fnt1">118.14</text>
   <text x="42863" y="30687"  class="fil4 fnt1">27.03</text>
   <text x="41888" y="33207"  class="fil4 fnt1">10 072.43</text>
   <text x="55947" y="17519"  class="fil4 fnt1">61 359.84</text>
   <text x="55945" y="20153"  class="fil4 fnt1">14 940.90</text>
   <text x="56663" y="22786"  class="fil4 fnt1">177.95</text>
   <text x="56643" y="25420"  class="fil4 fnt1">360.64</text>
   <text x="56924" y="28053"  class="fil4 fnt1">10.06</text>
   <text x="56924" y="30687"  class="fil4 fnt1">13.86</text>
   <text x="55666" y="33216"  class="fil4 fnt1">103 585.80</text>
   <line class="fil3 str8" x1="37040" y1="32204" x2="93371" y2= "32211" />
   <line class="fil3 str8" x1="79286" y1="13825" x2="79286" y2= "15175" />
   <line class="fil3 str8" x1="79526" y1="16459" x2="79526" y2= "17808" />
   <line class="fil3 str8" x1="79526" y1="19092" x2="79526" y2= "20442" />
   <line class="fil3 str8" x1="79526" y1="21803" x2="79526" y2= "23075" />
   <line class="fil3 str8" x1="79526" y1="24359" x2="79526" y2= "25709" />
   <line class="fil3 str8" x1="79526" y1="26993" x2="79526" y2= "28342" />
   <line class="fil3 str8" x1="79526" y1="29626" x2="79526" y2= "30976" />
   <line class="fil3 str8" x1="79526" y1="32206" x2="79526" y2= "33452" />
   <text x="77336" y="13556"  class="fil4 fnt1">31 728.43</text>
   <text x="70737" y="14866"  class="fil4 fnt1">436.07</text>
   <text x="84111" y="14866"  class="fil4 fnt1">31 692.35</text>
   <text x="77309" y="16207"  class="fil4 fnt1">33 920.00</text>
   <text x="77312" y="18840"  class="fil4 fnt1">13 995.82</text>
   <text x="77615" y="21474"  class="fil4 fnt1">1 054.83</text>
   <text x="78010" y="24107"  class="fil4 fnt1">820.26</text>
   <text x="78005" y="26741"  class="fil4 fnt1">696.20</text>
   <text x="77636" y="29374"  class="fil4 fnt1">1 478.71</text>
   <text x="77314" y="31955"  class="fil4 fnt1">84 094.26</text>
   <text x="70724" y="17520"  class="fil4 fnt1">901.84</text>
   <text x="70353" y="20153"  class="fil4 fnt1">1 340.51</text>
   <text x="70722" y="22787"  class="fil4 fnt1">427.40</text>
   <text x="70735" y="25420"  class="fil4 fnt1">252.18</text>
   <text x="70722" y="28054"  class="fil4 fnt1">125.10</text>
   <text x="71049" y="30688"  class="fil4 fnt1">39.41</text>
   <text x="70307" y="33208"  class="fil4 fnt1">3 522.52</text>
   <text x="84093" y="17520"  class="fil4 fnt1">33 018.16</text>
   <text x="84137" y="20153"  class="fil4 fnt1">12 655.31</text>
   <text x="84811" y="22787"  class="fil4 fnt1">627.43</text>
   <text x="84798" y="25420"  class="fil4 fnt1">568.08</text>
   <text x="84785" y="28054"  class="fil4 fnt1">571.10</text>
   <text x="84368" y="30688"  class="fil4 fnt1">1 439.30</text>
   <text x="84091" y="33216"  class="fil4 fnt1">80 571.74</text>
   <line class="fil3 str8" x1="79285" y1="9344" x2="79287" y2= "12519" />
   <text x="28225" y="4215"  class="fil4 fnt10">            Acreage of aeolian desertified land in different regions of Tibet</text>
   <g transform="matrix(1.2 0 0 1 -10457.8 -14829.2)">
    <text x="37610" y="17290"  class="fil4 fnt11">  </text>
    <text x="38413" y="17290"  class="fil4 fnt11">西藏各地各级各类沙漠化土地面积</text>
   </g>
  </g>
 </g>
</svg>
