<?xml version="1.0" encoding="UTF-8"?>
<!DOCTYPE svg PUBLIC "-//W3C//DTD SVG 1.1//EN" "http://www.w3.org/Graphics/SVG/1.1/DTD/svg11.dtd">
<!-- Creator: CorelDRAW X6 -->
<svg xmlns="http://www.w3.org/2000/svg" xml:space="preserve" width="800px" height="622px" version="1.1" style="shape-rendering:geometricPrecision; text-rendering:geometricPrecision; image-rendering:optimizeQuality; fill-rule:evenodd; clip-rule:evenodd"
viewBox="0 0 80000 62222"
 xmlns:xlink="http://www.w3.org/1999/xlink">
 <defs>
  <style type="text/css">
   <![CDATA[
    .str4 {stroke:#332C2B;stroke-width:135.467}
    .str5 {stroke:#00A2E9;stroke-width:142.222;stroke-linejoin:round}
    .str1 {stroke:#332C2B;stroke-width:177.778}
    .str0 {stroke:#332C2B;stroke-width:177.778;stroke-linejoin:round}
    .str3 {stroke:#6D583D;stroke-width:177.778;stroke-linejoin:round}
    .str2 {stroke:#823520;stroke-width:177.778;stroke-linejoin:round}
    .str6 {stroke:#B6B6B7;stroke-width:213.333}
    .str7 {stroke:#332C2B;stroke-width:266.667}
    .fil2 {fill:none}
    .fil4 {fill:#332C2B}
    .fil0 {fill:#FEFEFE}
    .fil8 {fill:black}
    .fil5 {fill:#00A2E9}
    .fil3 {fill:#6D583D}
    .fil1 {fill:#823520}
    .fil7 {fill:#FEF5E9}
    .fil6 {fill:#FFFDF1}
    .fnt5 {font-weight:normal;font-size:1137.42px;font-family:'Times New Roman'}
    .fnt4 {font-weight:normal;font-size:1240.71px;font-family:'Arial'}
    .fnt2 {font-weight:normal;font-size:1240.71px;font-family:'Times New Roman'}
    .fnt3 {font-weight:normal;font-size:1240.71px;font-family:'方正细圆简体'}
    .fnt1 {font-weight:normal;font-size:1447.64px;font-family:'方正书宋简体'}
    .fnt0 {font-weight:normal;font-size:1550.93px;font-family:'黑体'}
    .fnt6 {font-weight:normal;font-size:1654.4px;font-family:'Arial'}
    .fnt7 {font-weight:normal;font-size:2068.27px;font-family:'方正准圆简体'}
   ]]>
  </style>
 </defs>
<symbol id="符号42" viewBox="38844 29956 2311 2311">
 <path class="fil0 str0" d="M41067 31111c0,-589 -478,-1067 -1067,-1067 -589,0 -1067,478 -1067,1067 0,589 478,1066 1067,1066 589,0 1067,-477 1067,-1066z"/>
</symbol>
<symbol id="符号35" viewBox="39289 30044 1422 2133">
 <polygon class="fil1" points="39306,32178 39991,30044 40711,32178 39289,32178 "/>
</symbol>
<symbol id="符号26" viewBox="38870 29982 2259 2259">
 <line class="fil2 str1" x1="38933" y1="30044" x2="41067" y2= "32178" />
 <line class="fil2 str1" x1="38933" y1="32178" x2="41067" y2= "30044" />
</symbol>
<symbol id="符号5" viewBox="38844 29956 2311 2311">
 <path class="fil0 str0" d="M41067 31111c0,-589 -478,-1067 -1067,-1067 -589,0 -1067,478 -1067,1067 0,589 478,1066 1067,1066 589,0 1067,-477 1067,-1066z"/>
</symbol>
<symbol id="符号2" viewBox="39689 30800 622 622">
 <path class="fil1 str2" d="M40222 31111c0,-123 -99,-222 -222,-222 -123,0 -222,99 -222,222 0,123 99,222 222,222 123,0 222,-100 222,-222z"/>
</symbol>
<symbol id="符号74" viewBox="38844 29956 2311 2311">
 <path class="fil0 str0" d="M41067 31111c0,-589 -478,-1067 -1067,-1067 -589,0 -1067,478 -1067,1067 0,589 478,1066 1067,1066 589,0 1067,-477 1067,-1066z"/>
</symbol>
<symbol id="符号72" viewBox="39644 30756 711 711">
 <path class="fil3 str3" d="M40267 31111c0,-147 -119,-267 -266,-267 -148,0 -267,119 -267,267 0,147 119,267 267,267 147,0 266,-119 266,-267z"/>
</symbol>
<symbol id="符号69" viewBox="38866 29977 2269 2269">
 <circle class="fil0 str4" cx="40000" cy="31111" r="1067"/>
 <circle class="fil2 str4" cx="40000" cy="31111" r="400"/>
</symbol>
<symbol id="符号61" viewBox="39289 30044 1422 2133">
 <polygon class="fil3" points="39306,32178 39991,30044 40711,32178 39289,32178 "/>
</symbol>
<symbol id="符号58" viewBox="37977 29088 4047 4047">
 <circle class="fil0 str4" cx="40000" cy="31111" r="1956"/>
 <circle class="fil4 str4" cx="40000" cy="31111" r="1156"/>
</symbol>
<symbol id="符号43" viewBox="38599 29710 2802 2802">
 <circle class="fil0 str4" cx="40000" cy="31111" r="1333"/>
 <circle class="fil2 str4" cx="40000" cy="31111" r="500"/>
</symbol>
<symbol id="符号9" viewBox="38870 29982 2259 2259">
 <line class="fil2 str1" x1="38933" y1="30044" x2="41067" y2= "32178" />
 <line class="fil2 str1" x1="38933" y1="32178" x2="41067" y2= "30044" />
</symbol>
<symbol id="符号6" viewBox="38866 29977 2269 2269">
 <circle class="fil0 str4" cx="40000" cy="31111" r="1067"/>
 <circle class="fil2 str4" cx="40000" cy="31111" r="400"/>
</symbol>
<symbol id="符号3" viewBox="39269 30380 1463 1463">
 <rect class="fil0" x="39332" y="30443" width="1337" height="1337"/>
 <line class="fil2 str1" x1="39332" y1="30443" x2="40668" y2= "31780" />
 <line class="fil2 str1" x1="39332" y1="31780" x2="40668" y2= "30443" />
</symbol>
<symbol id="符号13" viewBox="38924 30036 2151 2151">
 <circle class="fil0 str4" cx="40000" cy="31111" r="1008"/>
 <circle class="fil2 str4" cx="40000" cy="31111" r="360"/>
</symbol>
<symbol id="符号79" viewBox="39164 29849 1671 2524">
 <polygon class="fil3" points="39185,32373 39989,29849 40836,32373 39164,32373 "/>
</symbol>
<symbol id="符号75" viewBox="38599 29710 2802 2802">
 <circle class="fil0 str4" cx="40000" cy="31111" r="1333"/>
 <circle class="fil2 str4" cx="40000" cy="31111" r="500"/>
</symbol>
<symbol id="符号49" viewBox="38844 29956 2311 2311">
 <path class="fil0 str0" d="M41067 31111c0,-589 -478,-1067 -1067,-1067 -589,0 -1067,478 -1067,1067 0,589 478,1066 1067,1066 589,0 1067,-477 1067,-1066z"/>
</symbol>
<symbol id="符号47" viewBox="39591 30702 818 818">
 <path class="fil1 str2" d="M40320 31111c0,-177 -143,-320 -320,-320 -177,0 -320,143 -320,320 0,177 143,320 320,320 177,0 320,-143 320,-320z"/>
</symbol>
<symbol id="符号41" viewBox="37977 29088 4047 4047">
 <circle class="fil0 str4" cx="40000" cy="31111" r="1956"/>
 <circle class="fil4 str4" cx="40000" cy="31111" r="1156"/>
</symbol>
<symbol id="符号21" viewBox="38756 28800 2489 4622">
 <polygon class="fil1" points="38786,33422 39984,28800 41244,33422 38756,33422 "/>
</symbol>
<symbol id="符号4" viewBox="38671 30538 2587 1147">
 <polygon class="fil5" points="39639,30954 39647,30955 39669,30956 39703,30956 39748,30956 39802,30956 39864,30954 39932,30952 40004,30947 40079,30941 40155,30932 40231,30921 40305,30906 40375,30888 40439,30867 40497,30842 40546,30812 40590,30781 40634,30752 40678,30725 40721,30701 40765,30680 40808,30662 40852,30647 40895,30636 40938,30630 40982,30627 41027,30629 41071,30636 41116,30648 41161,30665 41257,30739 41258,30742 41243,30741 41219,30739 41186,30734 41148,30729 41105,30726 41058,30726 41007,30727 40954,30734 40900,30745 40845,30762 40789,30785 40735,30817 40683,30856 40634,30906 40559,30958 40482,31004 40405,31046 40328,31083 40252,31116 40178,31144 40107,31168 40039,31189 39977,31206 39920,31221 39826,31247 39790,31254 39750,31261 39723,31263 "/>
 <path class="fil5 str5" d="M39756 31111c0,-277 -227,-502 -507,-502 -280,0 -507,225 -507,502 0,277 227,502 507,502 280,0 507,-225 507,-502z"/>
</symbol>
<symbol id="符号54" viewBox="39164 29849 1671 2524">
 <polygon class="fil3" points="39185,32373 39989,29849 40836,32373 39164,32373 "/>
</symbol>
<symbol id="符号50" viewBox="38599 29710 2802 2802">
 <circle class="fil0 str4" cx="40000" cy="31111" r="1333"/>
 <circle class="fil2 str4" cx="40000" cy="31111" r="500"/>
</symbol>
<symbol id="符号32" viewBox="38507 30471 2916 1280">
 <polygon class="fil5" points="39592,30934 39601,30934 39625,30935 39664,30936 39715,30936 39776,30935 39846,30934 39923,30930 40004,30925 40089,30918 40176,30908 40261,30895 40345,30879 40423,30859 40497,30834 40562,30806 40617,30772 40668,30737 40717,30704 40766,30673 40816,30646 40865,30623 40914,30602 40963,30585 41012,30573 41061,30566 41111,30563 41161,30565 41211,30573 41262,30586 41313,30606 41421,30690 41422,30693 41405,30692 41378,30689 41342,30684 41299,30679 41250,30675 41196,30674 41139,30676 41079,30684 41017,30696 40955,30715 40893,30742 40832,30777 40773,30823 40717,30878 40632,30937 40545,30990 40458,31038 40371,31079 40285,31116 40201,31148 40121,31176 40045,31200 39974,31219 39910,31235 39803,31265 39762,31273 39718,31281 39687,31284 "/>
 <path class="fil5 str5" d="M39724 31111c0,-314 -256,-569 -573,-569 -316,0 -573,255 -573,569 0,314 257,569 573,569 316,0 573,-255 573,-569z"/>
</symbol>
<symbol id="符号23" viewBox="38844 29956 2311 2311">
 <path class="fil0 str0" d="M41067 31111c0,-589 -478,-1067 -1067,-1067 -589,0 -1067,478 -1067,1067 0,589 478,1066 1067,1066 589,0 1067,-477 1067,-1066z"/>
</symbol>
<symbol id="符号45" viewBox="38507 30471 2916 1280">
 <polygon class="fil5" points="39592,30934 39601,30934 39625,30935 39664,30936 39715,30936 39776,30935 39846,30934 39923,30930 40004,30925 40089,30918 40176,30908 40261,30895 40345,30879 40423,30859 40497,30834 40562,30806 40617,30772 40668,30737 40717,30704 40766,30673 40816,30646 40865,30623 40914,30602 40963,30585 41012,30573 41061,30566 41111,30563 41161,30565 41211,30573 41262,30586 41313,30606 41421,30690 41422,30693 41405,30692 41378,30689 41342,30684 41299,30679 41250,30675 41196,30674 41139,30676 41079,30684 41017,30696 40955,30715 40893,30742 40832,30777 40773,30823 40717,30878 40632,30937 40545,30990 40458,31038 40371,31079 40285,31116 40201,31148 40121,31176 40045,31200 39974,31219 39910,31235 39803,31265 39762,31273 39718,31281 39687,31284 "/>
 <path class="fil5 str5" d="M39724 31111c0,-314 -256,-569 -573,-569 -316,0 -573,255 -573,569 0,314 257,569 573,569 316,0 573,-255 573,-569z"/>
</symbol>
<symbol id="符号28" viewBox="39289 30044 1422 2133">
 <polygon class="fil3" points="39306,32178 39991,30044 40711,32178 39289,32178 "/>
</symbol>
<symbol id="符号24" viewBox="38866 29977 2269 2269">
 <circle class="fil0 str4" cx="40000" cy="31111" r="1067"/>
 <circle class="fil2 str4" cx="40000" cy="31111" r="400"/>
</symbol>
<symbol id="符号67" viewBox="39289 30044 1422 2133">
 <polygon class="fil3" points="39306,32178 39991,30044 40711,32178 39289,32178 "/>
</symbol>
<symbol id="符号64" viewBox="37977 29088 4047 4047">
 <circle class="fil0 str4" cx="40000" cy="31111" r="1956"/>
 <circle class="fil4 str4" cx="40000" cy="31111" r="1156"/>
</symbol>
<symbol id="符号59" viewBox="38870 29982 2259 2259">
 <line class="fil2 str1" x1="38933" y1="30044" x2="41067" y2= "32178" />
 <line class="fil2 str1" x1="38933" y1="32178" x2="41067" y2= "30044" />
</symbol>
<symbol id="符号38" viewBox="37977 29088 4047 4047">
 <circle class="fil0 str4" cx="40000" cy="31111" r="1956"/>
 <circle class="fil4 str4" cx="40000" cy="31111" r="1156"/>
</symbol>
<symbol id="符号77" viewBox="38870 29982 2259 2259">
 <line class="fil2 str1" x1="38933" y1="30044" x2="41067" y2= "32178" />
 <line class="fil2 str1" x1="38933" y1="32178" x2="41067" y2= "30044" />
</symbol>
<symbol id="符号1" viewBox="39369 30160 1262 1902">
 <polygon class="fil1" points="39385,32062 39992,30160 40631,32062 39369,32062 "/>
</symbol>
<symbol id="符号73" viewBox="39289 30044 1422 2133">
 <polygon class="fil3" points="39306,32178 39991,30044 40711,32178 39289,32178 "/>
</symbol>
<symbol id="符号70" viewBox="37977 29088 4047 4047">
 <circle class="fil0 str4" cx="40000" cy="31111" r="1956"/>
 <circle class="fil4 str4" cx="40000" cy="31111" r="1156"/>
</symbol>
<symbol id="符号52" viewBox="38870 29982 2259 2259">
 <line class="fil2 str1" x1="38933" y1="30044" x2="41067" y2= "32178" />
 <line class="fil2 str1" x1="38933" y1="32178" x2="41067" y2= "30044" />
</symbol>
<symbol id="符号56" viewBox="38844 29956 2311 2311">
 <path class="fil0 str0" d="M41067 31111c0,-589 -478,-1067 -1067,-1067 -589,0 -1067,478 -1067,1067 0,589 478,1066 1067,1066 589,0 1067,-477 1067,-1066z"/>
</symbol>
<symbol id="符号48" viewBox="39164 29849 1671 2524">
 <polygon class="fil1" points="39185,32373 39989,29849 40836,32373 39164,32373 "/>
</symbol>
<symbol id="符号17" viewBox="37977 29088 4047 4047">
 <circle class="fil0 str4" cx="40000" cy="31111" r="1956"/>
 <circle class="fil4 str4" cx="40000" cy="31111" r="1156"/>
</symbol>
<symbol id="符号10" viewBox="39644 30756 711 711">
 <path class="fil1 str2" d="M40267 31111c0,-147 -119,-267 -266,-267 -148,0 -267,119 -267,267 0,147 119,267 267,267 147,0 266,-119 266,-267z"/>
</symbol>
<symbol id="符号65" viewBox="38870 29982 2259 2259">
 <line class="fil2 str1" x1="38933" y1="30044" x2="41067" y2= "32178" />
 <line class="fil2 str1" x1="38933" y1="32178" x2="41067" y2= "30044" />
</symbol>
<symbol id="符号57" viewBox="38866 29977 2269 2269">
 <circle class="fil0 str4" cx="40000" cy="31111" r="1067"/>
 <circle class="fil2 str4" cx="40000" cy="31111" r="400"/>
</symbol>
<symbol id="符号39" viewBox="38844 29956 2311 2311">
 <path class="fil0 str0" d="M41067 31111c0,-589 -478,-1067 -1067,-1067 -589,0 -1067,478 -1067,1067 0,589 478,1066 1067,1066 589,0 1067,-477 1067,-1066z"/>
</symbol>
<symbol id="符号44" viewBox="37977 29088 4047 4047">
 <circle class="fil0 str4" cx="40000" cy="31111" r="1956"/>
 <circle class="fil4 str4" cx="40000" cy="31111" r="1156"/>
</symbol>
<symbol id="符号40" viewBox="38866 29977 2269 2269">
 <circle class="fil0 str4" cx="40000" cy="31111" r="1067"/>
 <circle class="fil2 str4" cx="40000" cy="31111" r="400"/>
</symbol>
<symbol id="符号19" viewBox="38337 29448 3326 3326">
 <rect class="fil0" x="38400" y="29511" width="3200" height="3200"/>
 <line class="fil2 str1" x1="38400" y1="29511" x2="41600" y2= "32711" />
 <line class="fil2 str1" x1="38400" y1="32711" x2="41600" y2= "29511" />
</symbol>
<symbol id="符号7" viewBox="37977 29088 4047 4047">
 <circle class="fil0 str4" cx="40000" cy="31111" r="1956"/>
 <circle class="fil4 str4" cx="40000" cy="31111" r="1156"/>
</symbol>
<symbol id="符号11" viewBox="37977 29088 4047 4047">
 <circle class="fil0 str4" cx="40000" cy="31111" r="1956"/>
 <circle class="fil4 str4" cx="40000" cy="31111" r="1156"/>
</symbol>
<symbol id="符号76" viewBox="37977 29088 4047 4047">
 <circle class="fil0 str4" cx="40000" cy="31111" r="1956"/>
 <circle class="fil4 str4" cx="40000" cy="31111" r="1156"/>
</symbol>
<symbol id="符号71" viewBox="38870 29982 2259 2259">
 <line class="fil2 str1" x1="38933" y1="30044" x2="41067" y2= "32178" />
 <line class="fil2 str1" x1="38933" y1="32178" x2="41067" y2= "30044" />
</symbol>
<symbol id="符号36" viewBox="38844 29956 2311 2311">
 <path class="fil0 str0" d="M41067 31111c0,-589 -478,-1067 -1067,-1067 -589,0 -1067,478 -1067,1067 0,589 478,1066 1067,1066 589,0 1067,-477 1067,-1066z"/>
</symbol>
<symbol id="符号34" viewBox="39644 30756 711 711">
 <path class="fil1 str2" d="M40267 31111c0,-147 -119,-267 -266,-267 -148,0 -267,119 -267,267 0,147 119,267 267,267 147,0 266,-119 266,-267z"/>
</symbol>
<symbol id="符号14" viewBox="38844 29956 2311 2311">
 <path class="fil0 str0" d="M41067 31111c0,-589 -478,-1067 -1067,-1067 -589,0 -1067,478 -1067,1067 0,589 478,1066 1067,1066 589,0 1067,-477 1067,-1066z"/>
</symbol>
<symbol id="符号62" viewBox="38844 29956 2311 2311">
 <path class="fil0 str0" d="M41067 31111c0,-589 -478,-1067 -1067,-1067 -589,0 -1067,478 -1067,1067 0,589 478,1066 1067,1066 589,0 1067,-477 1067,-1066z"/>
</symbol>
<symbol id="符号60" viewBox="39644 30756 711 711">
 <path class="fil3 str3" d="M40267 31111c0,-147 -119,-267 -266,-267 -148,0 -267,119 -267,267 0,147 119,267 267,267 147,0 266,-119 266,-267z"/>
</symbol>
<symbol id="符号51" viewBox="37977 29088 4047 4047">
 <circle class="fil0 str4" cx="40000" cy="31111" r="1956"/>
 <circle class="fil4 str4" cx="40000" cy="31111" r="1156"/>
</symbol>
<symbol id="符号37" viewBox="38866 29977 2269 2269">
 <circle class="fil0 str4" cx="40000" cy="31111" r="1067"/>
 <circle class="fil2 str4" cx="40000" cy="31111" r="400"/>
</symbol>
<symbol id="符号18" viewBox="38507 30471 2916 1280">
 <polygon class="fil5" points="39592,30934 39601,30934 39625,30935 39664,30936 39715,30936 39776,30935 39846,30934 39923,30930 40004,30925 40089,30918 40176,30908 40261,30895 40345,30879 40423,30859 40497,30834 40562,30806 40617,30772 40668,30737 40717,30704 40766,30673 40816,30646 40865,30623 40914,30602 40963,30585 41012,30573 41061,30566 41111,30563 41161,30565 41211,30573 41262,30586 41313,30606 41421,30690 41422,30693 41405,30692 41378,30689 41342,30684 41299,30679 41250,30675 41196,30674 41139,30676 41079,30684 41017,30696 40955,30715 40893,30742 40832,30777 40773,30823 40717,30878 40632,30937 40545,30990 40458,31038 40371,31079 40285,31116 40201,31148 40121,31176 40045,31200 39974,31219 39910,31235 39803,31265 39762,31273 39718,31281 39687,31284 "/>
 <path class="fil5 str5" d="M39724 31111c0,-314 -256,-569 -573,-569 -316,0 -573,255 -573,569 0,314 257,569 573,569 316,0 573,-255 573,-569z"/>
</symbol>
<symbol id="符号80" viewBox="39289 30044 1422 2133">
 <polygon class="fil3" points="39306,32178 39991,30044 40711,32178 39289,32178 "/>
</symbol>
<symbol id="符号78" viewBox="39591 30702 818 818">
 <path class="fil3 str3" d="M40320 31111c0,-177 -143,-320 -320,-320 -177,0 -320,143 -320,320 0,177 143,320 320,320 177,0 320,-143 320,-320z"/>
</symbol>
<symbol id="符号63" viewBox="38866 29977 2269 2269">
 <circle class="fil0 str4" cx="40000" cy="31111" r="1067"/>
 <circle class="fil2 str4" cx="40000" cy="31111" r="400"/>
</symbol>
<symbol id="符号25" viewBox="37977 29088 4047 4047">
 <circle class="fil0 str4" cx="40000" cy="31111" r="1956"/>
 <circle class="fil4 str4" cx="40000" cy="31111" r="1156"/>
</symbol>
<symbol id="符号22" viewBox="39164 29849 1671 2524">
 <polygon class="fil1" points="39185,32373 39989,29849 40836,32373 39164,32373 "/>
</symbol>
<symbol id="符号20" viewBox="39591 30702 818 818">
 <path class="fil1 str2" d="M40320 31111c0,-177 -143,-320 -320,-320 -177,0 -320,143 -320,320 0,177 143,320 320,320 177,0 320,-143 320,-320z"/>
</symbol>
<symbol id="符号8" viewBox="38147 30329 3635 1564">
 <polygon class="fil5" points="39471,30938 39482,30939 39513,30939 39561,30940 39626,30940 39703,30940 39791,30938 39889,30935 39991,30931 40098,30924 40207,30916 40315,30905 40421,30890 40521,30873 40613,30851 40695,30826 40766,30796 40829,30766 40892,30737 40954,30710 41016,30687 41078,30666 41140,30648 41202,30633 41264,30623 41326,30616 41388,30613 41452,30615 41515,30622 41579,30634 41644,30651 41780,30724 41782,30727 41760,30727 41726,30724 41680,30719 41626,30715 41564,30712 41497,30711 41424,30713 41348,30719 41271,30730 41192,30747 41113,30770 41036,30801 40961,30841 40892,30890 40784,30941 40674,30988 40564,31029 40454,31066 40345,31098 40240,31126 40138,31150 40042,31171 39953,31188 39872,31202 39737,31228 39686,31235 39629,31242 39590,31244 "/>
 <path class="fil5 str5" d="M39641 31111c0,-393 -318,-711 -711,-711 -393,0 -711,319 -711,711 0,393 319,711 711,711 393,0 711,-318 711,-711z"/>
</symbol>
<symbol id="符号55" viewBox="39289 30044 1422 2133">
 <polygon class="fil3" points="39306,32178 39991,30044 40711,32178 39289,32178 "/>
</symbol>
<symbol id="符号53" viewBox="39591 30702 818 818">
 <path class="fil3 str3" d="M40320 31111c0,-177 -143,-320 -320,-320 -177,0 -320,143 -320,320 0,177 143,320 320,320 177,0 320,-143 320,-320z"/>
</symbol>
<symbol id="符号12" viewBox="39289 30044 1422 2133">
 <polygon class="fil1" points="39306,32178 39991,30044 40711,32178 39289,32178 "/>
</symbol>
<symbol id="符号33" viewBox="38870 29982 2259 2259">
 <rect class="fil0" x="38933" y="30044" width="2133" height="2133"/>
 <line class="fil2 str1" x1="38933" y1="30044" x2="41067" y2= "32178" />
 <line class="fil2 str1" x1="38933" y1="32178" x2="41067" y2= "30044" />
</symbol>
<symbol id="符号29" viewBox="38844 29956 2311 2311">
 <path class="fil0 str0" d="M41067 31111c0,-589 -478,-1067 -1067,-1067 -589,0 -1067,478 -1067,1067 0,589 478,1066 1067,1066 589,0 1067,-477 1067,-1066z"/>
</symbol>
<symbol id="符号27" viewBox="39644 30756 711 711">
 <path class="fil3 str3" d="M40267 31111c0,-147 -119,-267 -266,-267 -148,0 -267,119 -267,267 0,147 119,267 267,267 147,0 266,-119 266,-267z"/>
</symbol>
<symbol id="符号15" viewBox="38844 29956 2311 2311">
 <path class="fil0 str0" d="M41067 31111c0,-589 -478,-1067 -1067,-1067 -589,0 -1067,478 -1067,1067 0,589 478,1066 1067,1066 589,0 1067,-477 1067,-1066z"/>
</symbol>
<symbol id="符号68" viewBox="39200 30311 1600 1600">
 <path class="fil0 str0" d="M40711 31111c0,-393 -318,-711 -711,-711 -393,0 -711,319 -711,711 0,393 318,711 711,711 393,0 711,-318 711,-711z"/>
 <circle class="fil4" cx="40000" cy="31111" r="267"/>
</symbol>
<symbol id="符号66" viewBox="39644 30756 711 711">
 <path class="fil3 str3" d="M40267 31111c0,-147 -119,-267 -266,-267 -148,0 -267,119 -267,267 0,147 119,267 267,267 147,0 266,-119 266,-267z"/>
</symbol>
<symbol id="符号46" viewBox="38870 29982 2259 2259">
 <rect class="fil0" x="38933" y="30044" width="2133" height="2133"/>
 <line class="fil2 str1" x1="38933" y1="30044" x2="41067" y2= "32178" />
 <line class="fil2 str1" x1="38933" y1="32178" x2="41067" y2= "30044" />
</symbol>
<symbol id="符号31" viewBox="37977 29088 4047 4047">
 <circle class="fil0 str4" cx="40000" cy="31111" r="1956"/>
 <circle class="fil4 str4" cx="40000" cy="31111" r="1156"/>
</symbol>
<symbol id="符号30" viewBox="38866 29977 2269 2269">
 <circle class="fil0 str4" cx="40000" cy="31111" r="1067"/>
 <circle class="fil2 str4" cx="40000" cy="31111" r="400"/>
</symbol>
<symbol id="符号16" viewBox="37621 28732 4758 4758">
 <circle class="fil0 str4" cx="40000" cy="31111" r="2311"/>
 <circle class="fil2 str4" cx="40000" cy="31111" r="867"/>
</symbol>
 <g id="文字">
  <metadata id="CorelCorpID_0Corel-Layer"/>
  <g id="_672110432">
   <rect class="fil6" x="41242" y="17517" width="21066" height="40249"/>
   <rect class="fil6" x="2012" y="17448" width="16091" height="40250"/>
   <rect class="fil7" x="62308" y="17539" width="15778" height="40262"/>
   <rect class="fil7" x="18104" y="17456" width="23138" height="40275"/>
   <line class="fil2 str6" x1="1885" y1="17413" x2="78116" y2= "17539" />
   <text x="13768" y="13481"  class="fil4 fnt0">级</text>
   <text x="15319" y="13481"  class="fil4 fnt0"> </text>
   <text x="48718" y="13729"  class="fil4 fnt0">Ⅲ级地类</text>
   <text x="5021" y="53402"  class="fil4 fnt1">潜在沙漠化土地</text>
   <text x="47790" y="18900"  class="fil8 fnt1">流动沙(丘)地</text>
   <text x="4562" y="15365"  class="fil4 fnt0">地类</text>
   <line class="fil2 str6" x1="41242" y1="57731" x2="41242" y2= "11138" />
   <line class="fil2 str6" x1="18104" y1="57731" x2="18104" y2= "11162" />
   <line class="fil2 str6" x1="18104" y1="17446" x2="2012" y2= "11082" />
   <text x="23914" y="19972"  class="fil8 fnt1">极重度沙漠化土地</text>
   <text x="47066" y="25142"  class="fil8 fnt1">半流动沙(丘)地</text>
   <text x="48899" y="28411"  class="fil8 fnt1">风蚀残丘</text>
   <text x="68631" y="42785"  class="fil8 fnt2">16</text>
   <text x="70543" y="42785"  class="fil8 fnt2">34</text>
   <text x="69872" y="42785"  class="fil4 fnt2">~</text>
   <text x="68650" y="27324"  class="fil4 fnt2">61~85</text>
   <text x="68631" y="33560"  class="fil4 fnt2">35~60</text>
   <text x="68986" y="21082"  class="fil8 fnt3">＞</text>
   <text x="70226" y="21082"  class="fil8 fnt2">85</text>
   <line class="fil2 str7" x1="1885" y1="11082" x2="78116" y2= "11209" />
   <line class="fil2 str7" x1="1885" y1="57684" x2="78116" y2= "57811" />
   <text x="4775" y="16512"  class="fil4 fnt4">Land cover type</text>
   <text x="13003" y="14818"  class="fil4 fnt4">Grade</text>
   <text x="26616" y="13729"  class="fil4 fnt0">Ⅱ级地类</text>
   <text x="20626" y="16002"  class="fil4 fnt4">Sencond lever type of land cover</text>
   <text x="43764" y="16002"  class="fil4 fnt4">Third lever type of land cover</text>
   <text x="6469" y="32922"  class="fil4 fnt1">沙漠化土地</text>
   <text x="4591" y="34070"  class="fil4 fnt5">Aeolian desertified land</text>
   <text x="2585" y="54561"  class="fil4 fnt5">Potential aeolian desertified land</text>
   <line class="fil2 str6" x1="62308" y1="57766" x2="62308" y2= "11285" />
   <text x="67119" y="13675"  class="fil4 fnt0">累计评分</text>
   <text x="64832" y="16249"  class="fil4 fnt4">Accumulative score</text>
   <text x="48910" y="22170"  class="fil8 fnt1">风蚀劣地</text>
   <text x="47066" y="31370"  class="fil8 fnt1">半固定沙(丘)地</text>
   <text x="48186" y="34571"  class="fil8 fnt1">裸露沙砾地</text>
   <text x="47790" y="37614"  class="fil8 fnt1">固定沙(丘)地</text>
   <text x="47462" y="40819"  class="fil8 fnt1">半裸露沙砾地</text>
   <text x="48910" y="43965"  class="fil8 fnt1">风蚀耕地</text>
   <text x="48910" y="49984"  class="fil8 fnt1">退化草地</text>
   <text x="48910" y="53042"  class="fil8 fnt1">沙质耕地</text>
   <text x="48186" y="56113"  class="fil8 fnt1">干涸湖盆地</text>
   <line class="fil2 str6" x1="1885" y1="48497" x2="78116" y2= "48624" />
   <line class="fil2 str6" x1="18104" y1="36121" x2="78086" y2= "36247" />
   <line class="fil2 str6" x1="18104" y1="29879" x2="78086" y2= "30006" />
   <line class="fil2 str6" x1="18104" y1="23643" x2="78086" y2= "23770" />
   <line class="fil2 str6" x1="41238" y1="51533" x2="62304" y2= "51660" />
   <line class="fil2 str6" x1="41238" y1="54603" x2="62304" y2= "54730" />
   <line class="fil2 str6" x1="41242" y1="45449" x2="62304" y2= "45576" />
   <line class="fil2 str6" x1="41242" y1="42380" x2="62304" y2= "42506" />
   <line class="fil2 str6" x1="41242" y1="39321" x2="62304" y2= "39448" />
   <line class="fil2 str6" x1="41253" y1="33085" x2="62304" y2= "33212" />
   <line class="fil2 str6" x1="41238" y1="26849" x2="62304" y2= "26975" />
   <line class="fil2 str6" x1="41253" y1="20607" x2="62304" y2= "20734" />
   <text x="68966" y="53544"  class="fil8 fnt3">＜</text>
   <text x="70207" y="53544"  class="fil8 fnt2">34</text>
   <text x="24636" y="41900"  class="fil8 fnt1">轻度沙漠化土地</text>
   <text x="24636" y="26204"  class="fil8 fnt1">重度沙漠化土地</text>
   <text x="24636" y="32442"  class="fil8 fnt1">中度沙漠化土地</text>
   <text x="22895" y="22164"  class="fil4 fnt5">Very severely desertified land</text>
   <text x="24017" y="28399"  class="fil4 fnt5">Severely desertified land</text>
   <text x="23385" y="34638"  class="fil4 fnt5">Moderately desertified land</text>
   <text x="24205" y="43798"  class="fil4 fnt5">Slightly desertified land</text>
   <text x="46339" y="20185"  class="fil4 fnt5">Motive sand(dune) land</text>
   <text x="47674" y="23372"  class="fil4 fnt5">Wind-eroded land</text>
   <text x="45044" y="26427"  class="fil4 fnt5">Semi-motive sand(dune) land</text>
   <text x="47298" y="29608"  class="fil4 fnt5">Wind-eroded unaka</text>
   <text x="45455" y="32671"  class="fil4 fnt5">Semi-fixed sand(dune) land</text>
   <text x="45582" y="35697"  class="fil4 fnt5">Bare sandy and gravel land</text>
   <text x="46687" y="38899"  class="fil4 fnt5">Fixed sand(dune) land</text>
   <text x="44365" y="41956"  class="fil4 fnt5">Semi bare sandy and gravel land</text>
   <text x="45289" y="45178"  class="fil4 fnt5">Wind-eroded cultivated land</text>
   <text x="48186" y="46942"  class="fil8 fnt1">工程治沙地</text>
   <text x="43954" y="48074"  class="fil4 fnt5">Engineering controlled sandy land</text>
   <text x="47272" y="51110"  class="fil4 fnt5">Degraded grassland</text>
   <text x="46845" y="54180"  class="fil4 fnt5">Sandy cultivated land</text>
   <text x="47339" y="57263"  class="fil4 fnt5">Dried up lake basin</text>
   <text x="7303" y="8419"  class="fil4 fnt6">            Classification and grading indexes of aeolian desertfied land cover in Tibet</text>
   <g transform="matrix(1.2 0 0 1 -8596.34 -24952.2)">
    <text x="20869" y="31111"  class="fil4 fnt7">  </text>
    <text x="21903" y="31111"  class="fil4 fnt7">西藏沙漠化土地分类分级及其覆盖度指征</text>
   </g>
  </g>
 </g>
</svg>
