<?xml version="1.0" encoding="UTF-8"?>
<!DOCTYPE svg PUBLIC "-//W3C//DTD SVG 1.1//EN" "http://www.w3.org/Graphics/SVG/1.1/DTD/svg11.dtd">
<!-- Creator: CorelDRAW X6 -->
<svg xmlns="http://www.w3.org/2000/svg" xml:space="preserve" width="1000px" height="719px" version="1.1" style="shape-rendering:geometricPrecision; text-rendering:geometricPrecision; image-rendering:optimizeQuality; fill-rule:evenodd; clip-rule:evenodd"
viewBox="0 0 100000 71852"
 xmlns:xlink="http://www.w3.org/1999/xlink">
 <defs>
  <style type="text/css">
   <![CDATA[
    .str0 {stroke:#332C2B;stroke-width:56.4444}
    .str9 {stroke:#AE6F15;stroke-width:56.4444}
    .str1 {stroke:#00A2E9;stroke-width:59.2593;stroke-linejoin:round}
    .str8 {stroke:#00A2E9;stroke-width:74.0741}
    .str3 {stroke:#332C2B;stroke-width:74.0741}
    .str4 {stroke:#332C2B;stroke-width:74.0741;stroke-linejoin:round}
    .str6 {stroke:#6D583D;stroke-width:74.0741;stroke-linejoin:round}
    .str5 {stroke:#823520;stroke-width:74.0741;stroke-linejoin:round}
    .str11 {stroke:#332C2B;stroke-width:88.8889}
    .str10 {stroke:#332C2B;stroke-width:111.111}
    .str12 {stroke:#AE6F15;stroke-width:148.148}
    .str2 {stroke:#FEFEFE;stroke-width:370.37}
    .str7 {stroke:#00A2E9;stroke-width:74.0741;stroke-dasharray:370.370370 222.222222 370.370370 222.222222}
    .fil2 {fill:none}
    .fil5 {fill:#00A2E9}
    .fil3 {fill:#332C2B}
    .fil6 {fill:#B6B49E}
    .fil1 {fill:#FEFEFE}
    .fil4 {fill:#6D583D}
    .fil0 {fill:#823520}
    .fil7 {fill:#EDCBAC}
    .fil8 {fill:#332C2B;fill-rule:nonzero}
    .fil11 {fill:url(#id0)}
    .fil12 {fill:url(#id1)}
    .fil10 {fill:url(#id2)}
    .fil13 {fill:url(#id3)}
    .fil9 {fill:url(#id4)}
    .fil15 {fill:url(#id5)}
    .fil14 {fill:url(#id6)}
    .fil16 {fill:url(#id7)}
    .fnt8 {font-weight:normal;font-size:1481.48px;font-family:'方正细圆简体'}
    .fnt4 {font-weight:normal;font-size:1567.93px;font-family:'Arial'}
    .fnt2 {font-weight:normal;font-size:1567.93px;font-family:'Times New Roman'}
    .fnt3 {font-weight:normal;font-size:1567.93px;font-family:'方正细圆简体'}
    .fnt9 {font-weight:normal;font-size:1829.19px;font-family:'@宋体'}
    .fnt6 {font-weight:normal;font-size:1829.19px;font-family:'宋体'}
    .fnt7 {font-weight:normal;font-size:1829.19px;font-family:'方正书宋简体'}
    .fnt15 {font-weight:normal;font-size:1937.56px;font-family:'Times New Roman'}
    .fnt11 {font-weight:normal;font-size:1937.56px;font-family:'宋体'}
    .fnt1 {font-weight:normal;font-size:2090.52px;font-family:'Arial'}
    .fnt12 {font-weight:normal;font-size:2260.44px;font-family:'Times New Roman'}
    .fnt10 {font-weight:normal;font-size:2260.44px;font-family:'宋体'}
    .fnt14 {font-weight:normal;font-size:2583.41px;font-family:'Arial'}
    .fnt0 {font-weight:normal;font-size:2613.19px;font-family:'方正准圆简体'}
    .fnt13 {font-weight:normal;font-size:3229.26px;font-family:'方正准圆简体'}
    .fnt5 {font-style:italic;font-weight:normal;font-size:1567.93px;font-family:'Times New Roman'}
   ]]>
  </style>
  <linearGradient id="id0" gradientUnits="userSpaceOnUse" x1="41910.1" y1="56339.1" x2="41910.1" y2="60985.9">
   <stop offset="0" style="stop-color:#DAB96B"/>
   <stop offset="1" style="stop-color:#FEFEFE"/>
  </linearGradient>
  <linearGradient id="id1" gradientUnits="userSpaceOnUse" xlink:href="#id0" x1="51669.8" y1="56997" x2="51669.8" y2="60985.9">
  </linearGradient>
  <linearGradient id="id2" gradientUnits="userSpaceOnUse" xlink:href="#id0" x1="27419.3" y1="56576.7" x2="27419.3" y2="60999.5">
  </linearGradient>
  <linearGradient id="id3" gradientUnits="userSpaceOnUse" xlink:href="#id0" x1="66766.5" y1="56465" x2="66766.5" y2="60996.4">
  </linearGradient>
  <linearGradient id="id4" gradientUnits="userSpaceOnUse" xlink:href="#id0" x1="15300.7" y1="56946.7" x2="15300.7" y2="61023.2">
  </linearGradient>
  <linearGradient id="id5" gradientUnits="userSpaceOnUse" xlink:href="#id0" x1="83652.4" y1="56692.4" x2="83652.4" y2="61001.9">
  </linearGradient>
  <linearGradient id="id6" gradientUnits="userSpaceOnUse" xlink:href="#id0" x1="76525.9" y1="56015.8" x2="76525.9" y2="61009">
  </linearGradient>
  <linearGradient id="id7" gradientUnits="userSpaceOnUse" x1="47728.7" y1="59138.4" x2="47328.3" y2="62875.6">
   <stop offset="0" style="stop-color:#EEDCBA"/>
   <stop offset="1" style="stop-color:#FEFEFE"/>
  </linearGradient>
 </defs>
<symbol id="符号21" viewBox="49652 35400 696 1052">
 <polygon class="fil0" points="49660,36452 49996,35400 50348,36452 49652,36452 "/>
</symbol>
<symbol id="符号15" viewBox="49009 34935 1982 1982">
 <circle class="fil1 str0" cx="50000" cy="35926" r="963"/>
 <circle class="fil2 str0" cx="50000" cy="35926" r="361"/>
</symbol>
<symbol id="符号1" viewBox="49704 35481 593 889">
 <polygon class="fil0" points="49711,36370 49996,35481 50296,36370 49704,36370 "/>
</symbol>
<symbol id="符号11" viewBox="49157 35083 1686 1686">
 <circle class="fil1 str0" cx="50000" cy="35926" r="815"/>
 <circle class="fil3 str0" cx="50000" cy="35926" r="481"/>
</symbol>
<symbol id="符号28" viewBox="49704 35481 593 889">
 <polygon class="fil4" points="49711,36370 49996,35481 50296,36370 49704,36370 "/>
</symbol>
<symbol id="符号17" viewBox="49378 35659 1215 533">
 <polygon class="fil5" points="49830,35852 49834,35852 49844,35853 49860,35853 49881,35853 49907,35853 49936,35852 49968,35851 50002,35849 50037,35845 50073,35841 50109,35836 50144,35829 50176,35821 50207,35811 50234,35799 50257,35785 50278,35770 50299,35756 50319,35744 50340,35732 50360,35722 50381,35714 50401,35707 50422,35702 50442,35699 50463,35697 50484,35698 50505,35702 50526,35707 50547,35715 50592,35750 50593,35752 50585,35751 50574,35750 50559,35748 50541,35746 50521,35744 50499,35744 50475,35745 50450,35748 50424,35753 50398,35761 50372,35772 50347,35787 50322,35806 50299,35829 50263,35853 50227,35876 50191,35895 50154,35913 50119,35928 50084,35941 50050,35953 50019,35963 49989,35971 49962,35978 49918,35990 49901,35993 49882,35997 49870,35998 "/>
 <path class="fil5 str1" d="M49885 35926c0,-131 -107,-237 -239,-237 -132,0 -239,106 -239,237 0,131 107,237 239,237 132,0 239,-106 239,-237z"/>
</symbol>
<symbol id="符号16" viewBox="49157 35083 1686 1686">
 <circle class="fil1 str0" cx="50000" cy="35926" r="815"/>
 <circle class="fil3 str0" cx="50000" cy="35926" r="481"/>
</symbol>
<symbol id="符号22" viewBox="42616 30488 14577 10872">
 <polygon class="fil2 str2" points="51914,30935 51914,33444 43069,33444 45578,35952 43069,38408 51914,38408 51914,40916 56931,35952 "/>
 <polygon id="1" class="fil6" points="51914,30935 51914,33444 43069,33444 45578,35952 43069,38408 51914,38408 51914,40916 56931,35952 "/>
</symbol>
<symbol id="符号18" viewBox="49307 35233 1386 1386">
 <rect class="fil1" x="49333" y="35259" width="1333" height="1333"/>
 <line class="fil2 str3" x1="49333" y1="35259" x2="50667" y2= "36593" />
 <line class="fil2 str3" x1="49333" y1="36593" x2="50667" y2= "35259" />
</symbol>
<symbol id="符号8" viewBox="49519 35445 963 963">
 <path class="fil1 str4" d="M50444 35926c0,-245 -199,-445 -444,-445 -245,0 -444,199 -444,445 0,245 199,444 444,444 245,0 444,-199 444,-444z"/>
</symbol>
<symbol id="符号26" viewBox="49527 35453 945 945">
 <circle class="fil1 str0" cx="50000" cy="35926" r="444"/>
 <circle class="fil2 str0" cx="50000" cy="35926" r="167"/>
</symbol>
<symbol id="符号23" viewBox="39781 30488 20514 10872">
 <polygon class="fil2 str2" points="55017,30935 55017,33444 43102,33444 43102,38408 55017,38408 55017,40916 60033,35952 "/>
 <polygon id="1" class="fil6" points="55017,30935 55017,33444 43102,33444 43102,38408 55017,38408 55017,40916 60033,35952 "/>
 <polygon class="fil2 str2" points="41221,33444 41221,38408 42475,38408 42475,33444 "/>
 <polygon id="1" class="fil6" points="41221,33444 41221,38408 42475,38408 42475,33444 "/>
 <polygon class="fil2 str2" points="39967,33444 39967,38408 40594,38408 40594,33444 "/>
 <polygon id="1" class="fil6" points="39967,33444 39967,38408 40594,38408 40594,33444 "/>
</symbol>
<symbol id="符号12" viewBox="49519 35445 963 963">
 <path class="fil1 str4" d="M50444 35926c0,-245 -199,-445 -444,-445 -245,0 -444,199 -444,445 0,245 199,444 444,444 245,0 444,-199 444,-444z"/>
</symbol>
<symbol id="符号7" viewBox="49157 35083 1686 1686">
 <circle class="fil1 str0" cx="50000" cy="35926" r="815"/>
 <circle class="fil3 str0" cx="50000" cy="35926" r="481"/>
</symbol>
<symbol id="符号24" viewBox="49157 35083 1686 1686">
 <circle class="fil1 str0" cx="50000" cy="35926" r="815"/>
 <circle class="fil3 str0" cx="50000" cy="35926" r="481"/>
</symbol>
<symbol id="符号4" viewBox="49378 35659 1215 533">
 <polygon class="fil5" points="49830,35852 49834,35852 49844,35853 49860,35853 49881,35853 49907,35853 49936,35852 49968,35851 50002,35849 50037,35845 50073,35841 50109,35836 50144,35829 50176,35821 50207,35811 50234,35799 50257,35785 50278,35770 50299,35756 50319,35744 50340,35732 50360,35722 50381,35714 50401,35707 50422,35702 50442,35699 50463,35697 50484,35698 50505,35702 50526,35707 50547,35715 50592,35750 50593,35752 50585,35751 50574,35750 50559,35748 50541,35746 50521,35744 50499,35744 50475,35745 50450,35748 50424,35753 50398,35761 50372,35772 50347,35787 50322,35806 50299,35829 50263,35853 50227,35876 50191,35895 50154,35913 50119,35928 50084,35941 50050,35953 50019,35963 49989,35971 49962,35978 49918,35990 49901,35993 49882,35997 49870,35998 "/>
 <path class="fil5 str1" d="M49885 35926c0,-131 -107,-237 -239,-237 -132,0 -239,106 -239,237 0,131 107,237 239,237 132,0 239,-106 239,-237z"/>
</symbol>
<symbol id="符号10" viewBox="49157 35083 1686 1686">
 <circle class="fil1 str0" cx="50000" cy="35926" r="815"/>
 <circle class="fil3 str0" cx="50000" cy="35926" r="481"/>
</symbol>
<symbol id="符号2" viewBox="49852 35778 296 296">
 <path class="fil0 str5" d="M50111 35926c0,-61 -50,-111 -111,-111 -61,0 -111,50 -111,111 0,61 50,111 111,111 61,0 111,-50 111,-111z"/>
</symbol>
<symbol id="符号9" viewBox="49527 35453 945 945">
 <circle class="fil1 str0" cx="50000" cy="35926" r="444"/>
 <circle class="fil2 str0" cx="50000" cy="35926" r="167"/>
</symbol>
<symbol id="符号6" viewBox="49527 35453 945 945">
 <circle class="fil1 str0" cx="50000" cy="35926" r="444"/>
 <circle class="fil2 str0" cx="50000" cy="35926" r="167"/>
</symbol>
<symbol id="符号3" viewBox="49529 35455 941 941">
 <rect class="fil1" x="49556" y="35481" width="889" height="889"/>
 <line class="fil2 str3" x1="49556" y1="35481" x2="50444" y2= "36370" />
 <line class="fil2 str3" x1="49556" y1="36370" x2="50444" y2= "35481" />
</symbol>
<symbol id="符号14" viewBox="49519 35445 963 963">
 <path class="fil1 str4" d="M50444 35926c0,-245 -199,-445 -444,-445 -245,0 -444,199 -444,445 0,245 199,444 444,444 245,0 444,-199 444,-444z"/>
</symbol>
<symbol id="符号19" viewBox="49830 35756 341 341">
 <path class="fil0 str5" d="M50133 35926c0,-74 -60,-133 -133,-133 -74,0 -133,60 -133,133 0,74 60,133 133,133 74,0 133,-60 133,-133z"/>
</symbol>
<symbol id="符号5" viewBox="49519 35445 963 963">
 <path class="fil1 str4" d="M50444 35926c0,-245 -199,-445 -444,-445 -245,0 -444,199 -444,445 0,245 199,444 444,444 245,0 444,-199 444,-444z"/>
</symbol>
<symbol id="符号13" viewBox="49527 35453 945 945">
 <circle class="fil1 str0" cx="50000" cy="35926" r="444"/>
 <circle class="fil2 str0" cx="50000" cy="35926" r="167"/>
</symbol>
<symbol id="符号25" viewBox="49529 35455 941 941">
 <line class="fil2 str3" x1="49556" y1="35481" x2="50444" y2= "36370" />
 <line class="fil2 str3" x1="49556" y1="36370" x2="50444" y2= "35481" />
</symbol>
<symbol id="符号20" viewBox="49481 34963 1037 1926">
 <polygon class="fil0" points="49494,36889 49993,34963 50519,36889 49481,36889 "/>
</symbol>
<symbol id="符号27" viewBox="49852 35778 296 296">
 <path class="fil4 str6" d="M50111 35926c0,-61 -50,-111 -111,-111 -61,0 -111,50 -111,111 0,61 50,111 111,111 61,0 111,-50 111,-111z"/>
</symbol>
 <g id="表2">
  <metadata id="CorelCorpID_0Corel-Layer"/>
  <path class="fil2 str7" d="M36389 20129c445,-445 1101,-1028 1813,-906 544,93 878,493 692,1145 -126,440 -778,1061 -1145,1336"/>
  <path class="fil2 str8" d="M44713 9589c507,-471 1012,-874 1446,-1098"/>
  <path class="fil2 str8" d="M34497 10313c-688,1978 -1354,3584 -1002,5694 193,1161 553,2350 1959,2232 1002,-83 3098,-1151 3895,-1731 1574,-1145 1229,-2798 4167,-5706"/>
  <path class="fil2 str8" d="M36865 15383c-476,414 -647,1633 375,1476 486,-75 1088,-96 1356,-587 192,-353 287,-883 -158,-1084"/>
  <path class="fil2 str8" d="M36584 14181c-591,263 -1434,903 -1513,1616 -71,637 86,1740 994,1627 607,-76 1513,-316 2056,-587 595,-297 1172,-773 1130,-1514 -33,-584 -431,-1053 -978,-1257"/>
  <path class="fil2 str8" d="M36787 11106c-1059,520 -1715,1849 -2108,2897 -315,839 -741,4531 1139,3827 1207,-453 3237,-869 3918,-2004 819,-1366 34,-3822 -1184,-4692"/>
  <path class="fil2 str8" d="M23809 26328c2315,103 4562,-85 6716,-1162"/>
  <path class="fil2 str8" d="M19788 26844c712,-1055 1878,-664 2953,-582"/>
  <path class="fil2 str8" d="M19255 25343c945,-29 1843,7 2591,69 1614,134 3396,398 5011,268 1479,-118 3218,-602 4474,-1387"/>
  <path class="fil2 str8" d="M13435 26889c1211,-931 3042,-1346 4833,-1491"/>
  <path class="fil2 str8" d="M17093 24003c1303,-142 2633,-158 3992,-22 4225,422 7874,1745 11633,-1208"/>
  <path class="fil2 str8" d="M8245 26799c2519,-1259 5122,-2226 7841,-2661"/>
  <path class="fil2 str8" d="M86851 14352c3330,526 6774,892 10558,107"/>
  <path class="fil2 str8" d="M16026 22144c2073,-19 4048,252 6171,606 3115,519 6761,1611 9703,-228 1448,-905 2477,-2383 3895,-3325 1049,-697 2145,-1280 3303,-1776 826,-354 1602,-718 2483,-934 915,-225 1719,-138 2574,250 1963,892 3813,1220 5968,1093 3990,-235 7637,-1801 11480,-2688 5132,-1184 10193,-1666 15443,-1868 2762,-106 5447,353 8186,812"/>
  <path class="fil2 str8" d="M6981 24117c2268,-992 4638,-1621 7107,-1868 62,-6 124,-12 185,-18"/>
  <path class="fil2 str8" d="M15886 19111c2276,54 4484,295 6311,997 5810,2234 5615,-2944 5421,-7016"/>
  <path class="fil2 str8" d="M7710 19242c1937,16 4188,-120 6449,-141"/>
  <path class="fil2 str8" d="M48406 14158c1439,-391 2538,-1158 3766,-1977"/>
  <path class="fil2 str8" d="M32447 10177c0,0 -456,729 -547,957 -436,1089 -368,2547 -456,3690 -94,1227 -50,3780 1458,4191 1098,299 1871,94 2847,-434 549,-297 1822,-887 2483,-1228 821,-424 2367,-941 2915,-1709 499,-698 681,-1398 1594,-1640 1365,-362 2838,289 4211,300"/>
  <path class="fil2 str8" d="M86391 12389c37,1 72,3 106,4 3253,135 7819,958 10961,-89"/>
  <path class="fil2 str8" d="M30034 9753c-973,1769 -805,3628 -805,5593 0,1275 -164,3099 626,4206 1243,1740 2969,823 4519,134 1237,-550 2443,-1356 3669,-1969 1024,-487 2045,-985 3087,-1432 1172,-502 2005,-437 3221,-89 1250,357 2553,631 3848,761 3266,327 6967,-969 10022,-1924 3346,-1046 6856,-1774 10290,-2461 2729,-546 5684,-716 8456,-716 2672,0 5291,356 7954,473"/>
  <path class="fil2 str8" d="M27260 26844c1025,-178 1942,-668 2819,-1208"/>
  <path class="fil2 str8" d="M85510 17097c3903,774 7773,1863 11701,2425"/>
  <path class="fil2 str8" d="M35959 19605c1626,-1262 5305,-2771 6951,-1997 7954,3742 7732,1951 26529,-1225 2964,-501 7023,-315 10320,-95 1449,97 2888,291 4321,542"/>
  <path class="fil2 str8" d="M87199 16008c309,68 562,124 722,160 3108,691 6352,545 9505,545"/>
  <path class="fil2 str8" d="M35844 19439l877 -593c969,-655 2059,-976 3129,-1422 857,-357 1780,-703 2726,-545 284,47 1351,308 1612,450 1214,662 2792,1057 4148,1304 2795,508 6060,-126 8723,-924 4811,-1443 10172,-2607 15194,-2821 3802,-162 7953,-208 11686,450 503,89 1166,223 1815,359"/>
  <path class="fil2 str8" d="M85197 19814c669,187 1333,396 1990,633 3374,1215 6748,1756 10010,3360"/>
  <path class="fil2 str8" d="M36169 19851c0,0 981,-690 1177,-793 1111,-583 3302,-1125 4527,-735 1292,411 2444,1283 3732,1751 1341,487 2860,763 4294,769 7426,29 12232,-2166 18397,-2509 3868,-215 7776,-180 11703,409 1269,190 2534,417 3783,709"/>
  <path class="fil2 str8" d="M87483 18792c3281,902 6500,2218 9794,2877"/>
  <path class="fil2 str8" d="M36058 19740c1198,-1024 4268,-2350 6077,-1658 2948,1127 4563,2672 8580,2270 5336,-533 11635,-1925 16894,-2909 5467,-1023 12608,-252 17934,872 162,34 325,70 487,107"/>
  <path class="fil2 str8" d="M86997 21784c164,54 294,97 363,122 2334,834 8623,2727 9656,4964"/>
  <path class="fil2 str8" d="M36292 20001c333,-661 4132,-2347 5807,-1179 6780,4724 15255,1801 22752,657 2628,-401 14720,-637 20333,1701 73,30 241,89 453,160"/>
  <path class="fil2 str7" d="M84101 21897c474,144 944,302 1407,478 1258,477 7375,2671 7375,4474"/>
  <path class="fil2 str7" d="M38709 22780c-59,-1528 635,-4693 2844,-3689 1758,799 2918,2066 4867,2622 2117,605 5062,416 7222,200 3523,-352 7109,-887 10600,-1467 4907,-815 10727,-266 15507,489 938,148 1876,324 2803,545"/>
  <path class="fil2 str7" d="M76269 22995c561,333 1072,750 980,1486 -97,780 -724,964 -1158,1486 -293,352 -354,430 -284,918"/>
  <path class="fil2 str7" d="M58434 26863c-1307,-1481 -4307,-1212 -6075,-2010 -791,-357 -648,-1211 110,-1486 2066,-751 4241,-898 6403,-1180 4571,-596 9321,-457 13898,0 612,61 1350,123 2044,271"/>
  <path class="fil2 str7" d="M52860 26887c-856,-1198 -4501,-1868 -5885,-1983 -907,-76 -2928,-89 -3664,-733 -1011,-884 -229,-1784 862,-1940 2041,-292 3756,325 5821,391 4413,142 9526,-869 13880,-1491 5202,-743 11505,106 16490,1466 1975,539 6822,1537 6402,4268"/>
  <polygon class="fil7" points="28941,26843 35805,19561 42208,26885 "/>
  <polyline class="fil2 str9" points="28936,26847 35805,19462 42206,26871 "/>
  <path class="fil2 str10" d="M6951 7883c0,18932 0,18932 0,18932"/>
  <path class="fil2 str10" d="M6951 26861c91767,0 91767,0 91767,0"/>
  <path class="fil2 str11" d="M6942 22886c695,0 741,0 741,0"/>
  <path class="fil2 str11" d="M6942 18812c695,0 741,0 741,0"/>
  <path class="fil2 str11" d="M6942 14738c695,0 741,0 741,0"/>
  <path class="fil2 str11" d="M6942 10663c695,0 741,0 741,0"/>
  <path class="fil2 str11" d="M21676 26820c0,-741 0,-741 0,-741"/>
  <path class="fil2 str11" d="M50935 26820c0,-741 0,-741 0,-741"/>
  <path class="fil2 str11" d="M65602 26820c0,-741 0,-741 0,-741"/>
  <path class="fil2 str11" d="M80269 26820c0,-741 0,-741 0,-741"/>
  <path class="fil2 str11" d="M94639 26820c0,-741 0,-741 0,-741"/>
  <g transform="matrix(1.2 0 0 1 -39198.5 -32829)">
   <text x="50000" y="35926"  class="fil3 fnt0">二元横向近似等腰三角形山体流场纵剖面图</text>
  </g>
  <text x="21213" y="5953"  class="fil3 fnt1">Longitudinal section of binary traverse isosceles triangle massif</text>
  <text x="4588" y="11295"  class="fil3 fnt2">40</text>
  <text x="4588" y="15263"  class="fil3 fnt2">30</text>
  <text x="4588" y="19359"  class="fil3 fnt2">20</text>
  <text x="4588" y="23455"  class="fil3 fnt2">10</text>
  <text x="5118" y="27203"  class="fil3 fnt2">0</text>
  <g transform="matrix(1 0 0 1 -43963.8 -7212.07)">
   <text x="50000" y="35926"  class="fil3 fnt3">-</text>
   <text x="51029" y="35926"  class="fil3 fnt4">4</text>
  </g>
  <g transform="matrix(1 0 0 1 -29567.5 -7188.89)">
   <text x="50000" y="35926"  class="fil3 fnt3">-</text>
   <text x="51029" y="35926"  class="fil3 fnt4">2</text>
  </g>
  <text x="35444" y="28737"  class="fil3 fnt4">0</text>
  <text x="50607" y="28737"  class="fil3 fnt4">2</text>
  <text x="65173" y="28714"  class="fil3 fnt4">4</text>
  <text x="79910" y="28737"  class="fil3 fnt4">6</text>
  <text x="94221" y="28737"  class="fil3 fnt4">8</text>
  <g transform="matrix(0.999935 0.011398 -0.011398 0.999935 -35542.3 -5228.93)">
   <text x="50000" y="35926"  class="fil3 fnt5">X/H</text>
   <text x="52526" y="35926"  class="fil3 fnt6">(</text>
   <text x="76305" y="35926"  class="fil3 fnt6">)</text>
   <text x="53440" y="35926"  class="fil3 fnt6">距模型的距离/模型高度倍数</text>
  </g>
  <g>
   <path class="fil8" d="M35824 26919l-341 -683 683 0 -341 683zm0 -6828l44 0 0 1 0 4 0 7 0 11 0 17 0 24 0 32 0 41 0 51 0 62 0 75 0 88 0 103 0 118 0 135 0 153 0 173 0 193 0 214 0 237 0 261 0 285 0 311 0 338 0 366 0 396 0 426 0 458 0 490 0 524 0 559 -89 0 0 -559 0 -524 0 -490 0 -458 0 -426 0 -396 0 -366 0 -338 0 -311 0 -285 0 -261 0 -237 0 -214 0 -193 0 -173 0 -153 0 -135 0 -118 0 -103 0 -88 0 -75 0 -62 0 -51 0 -41 0 -32 0 -24 0 -17 0 -11 0 -7 0 -4 0 -1 44 0zm0 -674l341 683 -683 0 341 -683z"/>
  </g>
  <rect class="fil7" x="35132" y="22928" width="1291" height="1332"/>
  <text x="35174" y="24198"  class="fil3 fnt7">H</text>
  <text x="14114" y="19631"  class="fil3 fnt2">10</text>
  <text x="14290" y="22683"  class="fil3 fnt2">10</text>
  <text x="16157" y="24591"  class="fil3 fnt2">8</text>
  <text x="18390" y="26053"  class="fil3 fnt2">6</text>
  <text x="22895" y="26783"  class="fil3 fnt2">4</text>
  <text x="36635" y="14508"  class="fil3 fnt2">20</text>
  <g transform="matrix(1 0 0 1 -13123.6 -20044.3)">
   <text x="50000" y="35926"  class="fil3 fnt2">24</text>
  </g>
  <g transform="matrix(0.727388 -0.686226 0.686226 0.727388 -23299.2 29277.7)">
   <text x="50000" y="35926"  class="fil3 fnt8">-</text>
   <text x="50972" y="35926"  class="fil3 fnt8">1</text>
  </g>
  <g transform="matrix(1 0 0 1 -3170.45 -21212.9)">
   <text x="50000" y="35926"  class="fil3 fnt2">14</text>
  </g>
  <text x="65254" y="24732"  class="fil3 fnt8">-</text>
  <g transform="matrix(0.987584 0.157089 -0.157089 0.987584 40901 -30610.2)">
   <text x="50000" y="35926"  class="fil3 fnt2">12</text>
  </g>
  <g transform="matrix(0.975669 0.219248 -0.219248 0.975669 44109.4 -31578.4)">
   <text x="50000" y="35926"  class="fil3 fnt2">10</text>
  </g>
  <g transform="matrix(0.973311 0.229492 -0.229492 0.973311 45637.8 -30125.2)">
   <text x="50000" y="35926"  class="fil3 fnt2">8</text>
  </g>
  <g transform="matrix(0.958575 0.284839 -0.284839 0.958575 46656.9 -31331.2)">
   <text x="50000" y="35926"  class="fil3 fnt2">6</text>
  </g>
  <g transform="matrix(0.92314 0.384463 -0.384463 0.92314 53875.5 -33411.5)">
   <text x="50000" y="35926"  class="fil3 fnt2">4</text>
  </g>
  <g transform="matrix(0.929581 0.368619 -0.368619 0.929581 50855.4 -31788.3)">
   <text x="50000" y="35926"  class="fil3 fnt2">2</text>
  </g>
  <g transform="matrix(0.913285 0.407321 -0.407321 0.913285 54783.4 -31248.2)">
   <text x="50000" y="35926"  class="fil3 fnt2">0</text>
  </g>
  <g transform="matrix(0.929581 0.368619 -0.368619 0.929581 49648.7 -29857.7)">
   <text x="50000" y="35926"  class="fil3 fnt2">2</text>
  </g>
  <rect class="fil1" transform="matrix(0.92314 0.384463 -0.384463 0.92314 83364.2 22701.9)" width="1451" height="1249"/>
  <g transform="matrix(0.92314 0.384463 -0.384463 0.92314 50899 -28424)">
   <text x="50000" y="35926"  class="fil3 fnt2">4</text>
  </g>
  <g transform="matrix(0.958575 0.284839 -0.284839 0.958575 37365.6 -25579.4)">
   <text x="50000" y="35926"  class="fil3 fnt2">6</text>
  </g>
  <path class="fil2 str11" d="M39742 26902c-52,-804 207,-1452 778,-1945"/>
  <path class="fil2 str11" d="M30603 25035c700,220 1037,830 1011,1828"/>
  <text x="31914" y="26286"  class="fil3 fnt2">45</text>
  <text x="33482" y="26286"  class="fil3 fnt3">°</text>
  <text x="37570" y="26286"  class="fil3 fnt2">50</text>
  <text x="39138" y="26286"  class="fil3 fnt3">°</text>
  <text x="36732" y="11437"  class="fil3 fnt2">18</text>
  <g transform="matrix(0.736605 -0.676323 0.676323 0.736605 -17386 18536.1)">
   <text x="50000" y="35926"  class="fil3 fnt2">16</text>
  </g>
  <g transform="matrix(2.64845E-014 1 -1 2.64845E-014 36714.8 -39932)">
   <text x="50000" y="35926"  class="fil3 fnt5">Y</text>
   <text x="50872" y="35926"  class="fil3 fnt9">(</text>
   <text x="59103" y="35926"  class="fil3 fnt9">)/</text>
   <text x="51787" y="35926"  class="fil3 fnt9">模型高度</text>
   <text x="60933" y="35926"  class="fil3 fnt9">厘米</text>
  </g>
  <line class="fil2 str8" x1="51511" y1="31639" x2="56258" y2= "31614" />
  <text x="57515" y="31369"  class="fil3 fnt6">正向气流线</text>
  <line class="fil2 str7" x1="70815" y1="31639" x2="75562" y2= "31614" />
  <text x="76819" y="31369"  class="fil3 fnt6">负向气流线</text>
  <text x="76835" y="33159"  class="fil3 fnt2">Negative airflow line</text>
  <g transform="matrix(-7.94536E-014 -1 1 -7.94536E-014 -32273.6 74747.8)">
   <text x="50000" y="35926"  class="fil3 fnt5">Y</text>
   <text x="50872" y="35926"  class="fil3 fnt2">(Height of model)/cm</text>
  </g>
  <text x="11856" y="33168"  class="fil3 fnt5">X/H</text>
  <text x="14381" y="33168"  class="fil3 fnt2">(Multiple of distance from model to the height of model) </text>
  <text x="57515" y="33159"  class="fil3 fnt2">Positive airflow line</text>
  <path class="fil9" d="M22357 60986c55,24 -4115,-1707 -4547,-1975 -432,-268 -1813,-730 -2279,-947 -467,-217 -2673,-821 -3316,-969 -643,-148 -797,63 -1087,468 -290,405 -1013,1494 -1439,2075 -427,581 -1500,1386 -1372,1348l14041 0z"/>
  <path class="fil10" d="M33801 60986l-11498 -24 -1313 -547c0,0 235,32 964,-1167 729,-1198 1481,-2671 2062,-2580 581,91 3194,1064 4561,1800 822,443 2563,1377 3820,1965 832,389 1452,566 1404,552z"/>
  <path class="fil11" d="M36068 60986l2253 -2891c0,0 1341,-1756 1951,-1470 610,285 2239,1330 2239,1330l5242 3031 -11685 0z"/>
  <path class="fil12" d="M47753 60985l9430 1c0,-8 -199,-101 -454,-190 -255,-89 -1440,-576 -1440,-576l-1274 -491 -3169 -1620c0,0 -1468,-865 -1872,-988 -403,-124 -807,270 -1020,528 -213,258 -728,1168 -953,1673 -224,505 -847,742 -847,742l1598 922z"/>
  <path class="fil13" d="M60013 60975c0,0 1653,-2214 2224,-2809 571,-594 1648,-1702 2213,-1624 565,77 3212,1385 3212,1385l5858 3059 -13445 11"/>
  <path class="fil14" d="M69762 58995c0,0 1800,-2064 2301,-2467 501,-403 697,-512 1013,-468 316,44 1879,916 3283,1564 1404,648 5293,2506 5293,2506l1638 856 0 0 -9768 23 -3759 -2014"/>
  <path class="fil15" d="M88933 60986l-5663 16 -4899 -2433c0,0 1709,-1812 2248,-1844 539,-32 1124,203 2102,817 978,614 4601,2586 4601,2586l1609 859z"/>
  <path class="fil16 str12" d="M5887 61046l2371 -2m0 0l164 0m0 0l25404 -23 1 0 2173 -2m0 0l92 0 0 0 21070 -20 0 0 0 0 0 0 0 0 0 0 0 0m-21070 20l0 0 -92 0m0 0l-2173 2 -1 0 -25404 23m48740 -45l0 0 2830 -3 -2830 3 0 0zm2830 -3l13395 -12 9842 -9m0 0l5939 -5 -5939 5zm0 0l-9842 9 -13395 12m-2830 3l-21070 20 21070 -20z"/>
  <line class="fil2 str12" x1="6054" y1="61045" x2="8714" y2= "59405" />
  <path class="fil2 str12" d="M13261 57195c0,0 1977,-603 2227,-449 250,154 511,720 511,720"/>
  <line class="fil2 str12" x1="16468" y1="58250" x2="16775" y2= "58871" />
  <path class="fil2 str12" d="M8168 61043c0,0 1073,-804 1500,-1386 427,-581 1149,-1670 1439,-2075 290,-405 444,-616 1087,-468 643,148 2849,752 3316,969 467,217 1847,679 2279,947 432,268 4602,1999 4602,1999"/>
  <path class="fil2 str12" d="M20969 60434c0,0 235,32 964,-1167 729,-1198 1481,-2671 2062,-2580 581,91 3194,1064 4561,1800 822,443 2563,1377 3820,1965 832,389 1452,566 1452,566"/>
  <line class="fil2 str12" x1="19383" y1="59758" x2="22173" y2= "58438" />
  <path class="fil2 str12" d="M22994 58061c0,0 1472,-629 2077,-823 605,-194 890,-240 890,-240"/>
  <path class="fil2 str12" d="M26884 56948c0,0 930,63 1467,372 536,309 736,520 885,732 148,212 234,412 234,412"/>
  <path class="fil2 str12" d="M36001 61018l2299 -2903c0,0 1341,-1756 1951,-1470 610,285 2239,1330 2239,1330l5241 3032"/>
  <path class="fil2 str12" d="M46135 60084c0,0 623,-236 847,-742 224,-505 740,-1415 953,-1673 213,-258 616,-651 1020,-528 404,124 1872,988 1872,988l3169 1620 1274 491c0,0 1185,487 1440,576 255,89 454,182 454,182"/>
  <path class="fil2 str12" d="M39104 57609c0,0 1301,-621 1413,-666 112,-45 581,-302 726,-325 145,-22 352,-129 436,17 84,146 129,297 129,297"/>
  <path class="fil2 str12" d="M47422 58484c0,0 1051,-625 1286,-771 235,-146 838,-527 1106,-582 268,-56 239,-120 320,-95 81,25 103,140 103,140"/>
  <line class="fil2 str12" x1="50923" y1="57651" x2="51310" y2= "58376" />
  <path class="fil2 str12" d="M59992 60995c0,0 1653,-2214 2224,-2809 571,-594 1648,-1702 2213,-1624 565,77 3212,1385 3212,1385l5969 3036"/>
  <path class="fil2 str12" d="M69741 59015c0,0 1800,-2064 2301,-2467 501,-403 697,-512 1013,-468 316,44 1879,916 3283,1564 1404,648 5293,2506 5293,2506l1599 824"/>
  <path class="fil2 str12" d="M78351 58589c0,0 1709,-1812 2248,-1844 539,-32 1124,203 2102,817 978,614 4601,2586 4601,2586l1605 821"/>
  <text x="18116" y="54302"  class="fil3 fnt10">夏季风</text>
  <text x="24898" y="54302"  class="fil3 fnt11">（</text>
  <text x="27804" y="54302"  class="fil3 fnt11">）</text>
  <text x="26835" y="54302"  class="fil3 fnt11">E</text>
  <text x="66220" y="54302"  class="fil3 fnt10">冬季风</text>
  <text x="73001" y="54302"  class="fil3 fnt11">（</text>
  <text x="75908" y="54302"  class="fil3 fnt11">）</text>
  <text x="74939" y="54302"  class="fil3 fnt11">W</text>
  <text x="10976" y="64157"  class="fil3 fnt12">A. </text>
  <text x="13738" y="64157"  class="fil3 fnt10">往复前进式</text>
  <text x="36650" y="64157"  class="fil3 fnt12">B. </text>
  <text x="39288" y="64157"  class="fil3 fnt10">丘顶往复—丘体前进式</text>
  <text x="71160" y="64157"  class="fil3 fnt12">C. </text>
  <text x="73797" y="64157"  class="fil3 fnt10">前进式</text>
  <g transform="matrix(1.2 0 0 1 -40206.9 9209.09)">
   <text x="50000" y="35926"  class="fil3 fnt13">雅鲁藏布江不同河谷段沙丘运动方式</text>
  </g>
  <text x="7883" y="48683"  class="fil3 fnt14">Dune movement patterns in the different sects of the Yarlung Zangbo River</text>
  <line class="fil2 str12" x1="9623" y1="58995" x2="12329" y2= "57537" />
  <text x="39325" y="65958"  class="fil3 fnt15">Knap reciprocate-soma forward type</text>
  <text x="73945" y="65930"  class="fil3 fnt15">Forward type</text>
  <text x="13746" y="65958"  class="fil3 fnt15">Reciprocate-forward type</text>
  <g>
   <path class="fil8" d="M16029 53577l-9647 0 0 -74 9647 0 0 74zm674 -37l-683 341 0 -683 683 341z"/>
  </g>
  <g>
   <path class="fil8" d="M78856 53543l9647 0 0 74 -9647 0 0 -74zm-674 37l683 -341 0 683 -683 -341z"/>
  </g>
 </g>
</svg>
