<?xml version="1.0" encoding="UTF-8"?>
<!DOCTYPE svg PUBLIC "-//W3C//DTD SVG 1.1//EN" "http://www.w3.org/Graphics/SVG/1.1/DTD/svg11.dtd">
<!-- Creator: CorelDRAW X6 -->
<svg  onload="Init(evt)" xmlns="http://www.w3.org/2000/svg" xml:space="preserve" width="1000px" height="485px" version="1.1" style="shape-rendering:geometricPrecision; text-rendering:geometricPrecision; image-rendering:optimizeQuality; fill-rule:evenodd; clip-rule:evenodd"
viewBox="0 0 100000 28517"
 xmlns:xlink="http://www.w3.org/1999/xlink">
  <script xlink:href="../js/Map.js"></script>
   
 <defs>
  <style type="text/css">
   <![CDATA[
    .str1 {stroke:#332C2B;stroke-width:14.4867}
    .str6 {stroke:#00A2E9;stroke-width:15.2091;stroke-linejoin:round}
    .str3 {stroke:#332C2B;stroke-width:19.0114}
    .str7 {stroke:#332C2B;stroke-width:19.0114;stroke-linecap:round;stroke-linejoin:round}
    .str4 {stroke:#332C2B;stroke-width:19.0114;stroke-linejoin:round}
    .str2 {stroke:#6D583D;stroke-width:19.0114;stroke-linejoin:round}
    .str5 {stroke:#823520;stroke-width:19.0114;stroke-linejoin:round}
    .str0 {stroke:#FEFEFE;stroke-width:95.057}
    .fil0 {fill:none}
    .fil8 {fill:none;fill-rule:nonzero}
    .fil6 {fill:#00A2E9}
    .fil3 {fill:#332C2B}
    .fil1 {fill:#B6B49E}
    .fil2 {fill:#FEFEFE}
    .fil4 {fill:#6D583D}
    .fil5 {fill:#823520}
    .fil7 {fill:#97492C}
    .fnt9 {font-weight:normal;font-size:332.719px;font-family:'方正准圆简体'}
    .fnt15 {font-weight:normal;font-size:335.342px;font-family:'Times New Roman'}
    .fnt7 {font-weight:normal;font-size:335.342px;font-family:'宋体'}
    .fnt8 {font-weight:normal;font-size:377.452px;font-family:'宋体'}
    .fnt14 {font-weight:normal;font-size:402.414px;font-family:'Times New Roman'}
    .fnt4 {font-weight:normal;font-size:402.414px;font-family:'宋体'}
    .fnt10 {font-weight:normal;font-size:469.468px;font-family:'Times New Roman'}
    .fnt13 {font-weight:normal;font-size:469.468px;font-family:'宋体'}
    .fnt2 {font-weight:normal;font-size:469.468px;font-family:'黑体'}
    .fnt6 {font-weight:normal;font-size:512.072px;font-family:'宋体'}
    .fnt0 {font-weight:normal;font-size:536.54px;font-family:'Arial'}
    .fnt1 {font-weight:normal;font-size:536.54px;font-family:'Times New Roman'}
    .fnt3 {font-weight:normal;font-size:536.54px;font-family:'黑体'}
    .fnt5 {font-weight:normal;font-size:592.89px;font-family:'宋体'}
    .fnt12 {font-weight:normal;font-size:603.612px;font-family:'宋体'}
    .fnt11 {font-weight:normal;font-size:670.684px;font-family:'Times New Roman'}
    .fnt16 {font-weight:normal;font-size:670.684px;font-family:'方正准圆简体'}
   ]]>
  </style>
   <clipPath id="id0">
    <rect x="2492" y="4885" width="95524" height="20187"/>
   </clipPath>
 </defs>
    <g id="map">
<symbol id="符号22" viewBox="48105 12863 3741 2790">
 <polygon class="fil0 str0" points="50491,12978 50491,13621 48221,13621 48865,14265 48221,14896 50491,14896 50491,15539 51779,14265 "/>
 <polygon id="1" class="fil1" points="50491,12978 50491,13621 48221,13621 48865,14265 48221,14896 50491,14896 50491,15539 51779,14265 "/>
</symbol>
<symbol id="符号7" viewBox="49784 14042 433 433">
 <circle class="fil2 str1" cx="50000" cy="14259" r="209"/>
 <circle class="fil3 str1" cx="50000" cy="14259" r="124"/>
</symbol>
<symbol id="符号27" viewBox="49962 14221 76 76">
 <path class="fil4 str2" d="M50029 14259c0,-16 -13,-29 -28,-29 -16,0 -29,13 -29,29 0,16 13,29 29,29 16,0 28,-13 28,-29z"/>
</symbol>
<symbol id="符号16" viewBox="49784 14042 433 433">
 <circle class="fil2 str1" cx="50000" cy="14259" r="209"/>
 <circle class="fil3 str1" cx="50000" cy="14259" r="124"/>
</symbol>
<symbol id="符号10" viewBox="49784 14042 433 433">
 <circle class="fil2 str1" cx="50000" cy="14259" r="209"/>
 <circle class="fil3 str1" cx="50000" cy="14259" r="124"/>
</symbol>
<symbol id="符号25" viewBox="49879 14138 242 242">
 <line class="fil0 str3" x1="49886" y1="14144" x2="50114" y2= "14373" />
 <line class="fil0 str3" x1="49886" y1="14373" x2="50114" y2= "14144" />
</symbol>
<symbol id="符号18" viewBox="49822 14081 356 356">
 <rect class="fil2" x="49829" y="14087" width="342" height="342"/>
 <line class="fil0 str3" x1="49829" y1="14087" x2="50171" y2= "14430" />
 <line class="fil0 str3" x1="49829" y1="14430" x2="50171" y2= "14087" />
</symbol>
<symbol id="符号8" viewBox="49876 14135 247 247">
 <path class="fil2 str4" d="M50114 14259c0,-63 -51,-114 -114,-114 -63,0 -114,51 -114,114 0,63 51,114 114,114 63,0 114,-51 114,-114z"/>
</symbol>
<symbol id="符号3" viewBox="49879 14138 242 242">
 <rect class="fil2" x="49886" y="14144" width="228" height="228"/>
 <line class="fil0 str3" x1="49886" y1="14144" x2="50114" y2= "14373" />
 <line class="fil0 str3" x1="49886" y1="14373" x2="50114" y2= "14144" />
</symbol>
<symbol id="符号9" viewBox="49879 14137 243 243">
 <circle class="fil2 str1" cx="50000" cy="14259" r="114"/>
 <circle class="fil0 str1" cx="50000" cy="14259" r="43"/>
</symbol>
<symbol id="符号23" viewBox="47377 12863 5265 2790">
 <polygon class="fil0 str0" points="51288,12978 51288,13621 48230,13621 48230,14896 51288,14896 51288,15539 52575,14265 "/>
 <polygon id="1" class="fil1" points="51288,12978 51288,13621 48230,13621 48230,14896 51288,14896 51288,15539 52575,14265 "/>
 <polygon class="fil0 str0" points="47747,13621 47747,14896 48069,14896 48069,13621 "/>
 <polygon id="1" class="fil1" points="47747,13621 47747,14896 48069,14896 48069,13621 "/>
 <polygon class="fil0 str0" points="47425,13621 47425,14896 47586,14896 47586,13621 "/>
 <polygon id="1" class="fil1" points="47425,13621 47425,14896 47586,14896 47586,13621 "/>
</symbol>
<symbol id="符号21" viewBox="49911 14124 179 270">
 <polygon class="fil5" points="49913,14394 49999,14124 50089,14394 49911,14394 "/>
</symbol>
<symbol id="符号19" viewBox="49956 14215 87 87">
 <path class="fil5 str5" d="M50034 14259c0,-19 -15,-34 -34,-34 -19,0 -34,15 -34,34 0,19 15,34 34,34 19,0 34,-15 34,-34z"/>
</symbol>
<symbol id="符号15" viewBox="49746 14004 509 509">
 <circle class="fil2 str1" cx="50000" cy="14259" r="247"/>
 <circle class="fil0 str1" cx="50000" cy="14259" r="93"/>
</symbol>
<symbol id="符号5" viewBox="49876 14135 247 247">
 <path class="fil2 str4" d="M50114 14259c0,-63 -51,-114 -114,-114 -63,0 -114,51 -114,114 0,63 51,114 114,114 63,0 114,-51 114,-114z"/>
</symbol>
<symbol id="符号2" viewBox="49962 14221 76 76">
 <path class="fil5 str5" d="M50029 14259c0,-16 -13,-29 -28,-29 -16,0 -29,13 -29,29 0,16 13,29 29,29 16,0 28,-13 28,-29z"/>
</symbol>
<symbol id="符号11" viewBox="49784 14042 433 433">
 <circle class="fil2 str1" cx="50000" cy="14259" r="209"/>
 <circle class="fil3 str1" cx="50000" cy="14259" r="124"/>
</symbol>
<symbol id="符号28" viewBox="49924 14144 152 228">
 <polygon class="fil4" points="49926,14373 49999,14144 50076,14373 49924,14373 "/>
</symbol>
<symbol id="符号17" viewBox="49840 14190 312 137">
 <polygon class="fil6" points="49956,14240 49957,14240 49960,14240 49964,14240 49970,14240 49976,14240 49984,14240 49992,14239 50000,14239 50010,14238 50019,14237 50028,14235 50037,14234 50045,14232 50053,14229 50060,14226 50066,14222 50071,14219 50077,14215 50082,14212 50087,14209 50092,14206 50098,14204 50103,14202 50108,14201 50113,14200 50119,14200 50124,14200 50129,14201 50135,14202 50140,14205 50152,14213 50152,14214 50150,14214 50147,14213 50143,14213 50139,14212 50134,14212 50128,14212 50122,14212 50115,14213 50109,14214 50102,14216 50095,14219 50089,14223 50083,14228 50077,14234 50068,14240 50058,14246 50049,14251 50040,14255 50030,14259 50022,14263 50013,14265 50005,14268 49997,14270 49990,14272 49979,14275 49975,14276 49970,14277 49967,14277 "/>
 <path class="fil6 str6" d="M49970 14259c0,-34 -27,-61 -61,-61 -34,0 -61,27 -61,61 0,34 27,61 61,61 34,0 61,-27 61,-61z"/>
</symbol>
<symbol id="符号6" viewBox="49879 14137 243 243">
 <circle class="fil2 str1" cx="50000" cy="14259" r="114"/>
 <circle class="fil0 str1" cx="50000" cy="14259" r="43"/>
</symbol>
<symbol id="符号4" viewBox="49840 14190 312 137">
 <polygon class="fil6" points="49956,14240 49957,14240 49960,14240 49964,14240 49970,14240 49976,14240 49984,14240 49992,14239 50000,14239 50010,14238 50019,14237 50028,14235 50037,14234 50045,14232 50053,14229 50060,14226 50066,14222 50071,14219 50077,14215 50082,14212 50087,14209 50092,14206 50098,14204 50103,14202 50108,14201 50113,14200 50119,14200 50124,14200 50129,14201 50135,14202 50140,14205 50152,14213 50152,14214 50150,14214 50147,14213 50143,14213 50139,14212 50134,14212 50128,14212 50122,14212 50115,14213 50109,14214 50102,14216 50095,14219 50089,14223 50083,14228 50077,14234 50068,14240 50058,14246 50049,14251 50040,14255 50030,14259 50022,14263 50013,14265 50005,14268 49997,14270 49990,14272 49979,14275 49975,14276 49970,14277 49967,14277 "/>
 <path class="fil6 str6" d="M49970 14259c0,-34 -27,-61 -61,-61 -34,0 -61,27 -61,61 0,34 27,61 61,61 34,0 61,-27 61,-61z"/>
</symbol>
<symbol id="符号13" viewBox="49879 14137 243 243">
 <circle class="fil2 str1" cx="50000" cy="14259" r="114"/>
 <circle class="fil0 str1" cx="50000" cy="14259" r="43"/>
</symbol>
<symbol id="符号14" viewBox="49876 14135 247 247">
 <path class="fil2 str4" d="M50114 14259c0,-63 -51,-114 -114,-114 -63,0 -114,51 -114,114 0,63 51,114 114,114 63,0 114,-51 114,-114z"/>
</symbol>
<symbol id="符号26" viewBox="49879 14137 243 243">
 <circle class="fil2 str1" cx="50000" cy="14259" r="114"/>
 <circle class="fil0 str1" cx="50000" cy="14259" r="43"/>
</symbol>
<symbol id="符号24" viewBox="49784 14042 433 433">
 <circle class="fil2 str1" cx="50000" cy="14259" r="209"/>
 <circle class="fil3 str1" cx="50000" cy="14259" r="124"/>
</symbol>
<symbol id="符号12" viewBox="49876 14135 247 247">
 <path class="fil2 str4" d="M50114 14259c0,-63 -51,-114 -114,-114 -63,0 -114,51 -114,114 0,63 51,114 114,114 63,0 114,-51 114,-114z"/>
</symbol>
<symbol id="符号20" viewBox="49867 14011 266 494">
 <polygon class="fil5" points="49870,14506 49998,14011 50133,14506 49867,14506 "/>
</symbol>
<symbol id="符号1" viewBox="49924 14144 152 228">
 <polygon class="fil5" points="49926,14373 49999,14144 50076,14373 49924,14373 "/>
</symbol>
<g id="map">
 <g id="底图">
  <metadata id="CorelCorpID_0Corel-Layer"/>
  <g style="clip-path:url(#id0)">
   <image id="_84-85雅鲁藏布江风沙地貌219流场图.png" x="2492" y="4885" width="95524" height="20187" xlink:href="84-85雅鲁藏布江风沙地貌219流场图_ImgID1.png"/>
  </g>
 </g>
 <g id="文字">
  <metadata id="CorelCorpID_1Corel-Layer"/>
  <text x="15393" y="4014"  class="fil3 fnt0">Near-surface flow field diagram of the midstream reach in Yarlung Zangbo River on </text>
  <text x="35771" y="4014"  class="fil3 fnt0"> February </text>
  <text x="35234" y="4014"  class="fil3 fnt1">19</text>
  <text x="38216" y="4014"  class="fil3 fnt1">1979</text>
  <text x="59495" y="15919"  class="fil3 fnt2">乃东</text>
  <text x="7289" y="21937"  class="fil3 fnt2">定日</text>
  <text x="28841" y="9273"  class="fil3 fnt2">南木林</text>
  <text x="9487" y="14429"  class="fil3 fnt2">昂仁</text>
  <text x="12341" y="17180"  class="fil3 fnt2">拉孜</text>
  <text x="42391" y="19020"  class="fil3 fnt2">浪卡子</text>
  <text x="17941" y="19755"  class="fil3 fnt2">萨迦</text>
  <text x="19815" y="12585"  class="fil3 fnt2">谢通门</text>
  <text x="30016" y="17213"  class="fil3 fnt2">白朗</text>
  <text x="52679" y="7190"  class="fil3 fnt2">林周</text>
  <text x="36434" y="15858"  class="fil3 fnt2">仁布</text>
  <text x="34192" y="19701"  class="fil3 fnt2">江孜</text>
  <text x="41517" y="13124"  class="fil3 fnt2">尼木</text>
  <text x="51420" y="9924"  class="fil3 fnt3">拉萨</text>
  <text x="48079" y="10447"  class="fil3 fnt2">堆龙德庆</text>
  <text x="50575" y="15302"  class="fil3 fnt2">贡嘎</text>
  <text x="46854" y="13769"  class="fil3 fnt2">曲水</text>
  <text x="73844" y="6792"  class="fil3 fnt2">工布江达</text>
  <text x="57436" y="8867"  class="fil3 fnt2">墨竹工卡</text>
  <text x="53215" y="10541"  class="fil3 fnt2">达孜</text>
  <text x="25069" y="15201"  class="fil3 fnt2">日喀则市</text>
  <text x="54366" y="15746"  class="fil3 fnt2">扎囊</text>
  <text x="58439" y="18465"  class="fil3 fnt2">琼结</text>
  <text x="87401" y="9414"  class="fil3 fnt2">林芝</text>
  <text x="64037" y="17936"  class="fil3 fnt2">曲松</text>
  <text x="67432" y="16496"  class="fil3 fnt2">加查</text>
  <text x="73017" y="18663"  class="fil3 fnt2">朗县</text>
  <text x="86357" y="15691"  class="fil3 fnt2">米林</text>
  <text x="92877" y="11851"  class="fil3 fnt4">派镇</text>
  <text x="87991" y="10520"  class="fil3 fnt4">林芝</text>
  <text x="88796" y="10520"  class="fil3 fnt4">镇</text>
  <g transform="matrix(0.965926 0 0.258819 0.965926 -6089.66 2402.2)">
   <text x="50000" y="14259"  class="fil6 fnt5">雅</text>
  </g>
  <g transform="matrix(0.965926 0 0.258819 0.965926 -43400.2 3072.79)">
   <text x="50000" y="14259"  class="fil6 fnt5">雅</text>
  </g>
  <g transform="matrix(0.965926 0 0.258819 0.965926 -37458.6 1834.4)">
   <text x="50000" y="14259"  class="fil6 fnt5">鲁</text>
  </g>
  <g transform="matrix(0.965926 0 0.258819 0.965926 -31396 802.484)">
   <text x="50000" y="14259"  class="fil6 fnt5">藏</text>
  </g>
  <g transform="matrix(0.965926 0 0.258819 0.965926 -23141.3 1029.94)">
   <text x="50000" y="14259"  class="fil6 fnt5">布</text>
  </g>
  <g transform="matrix(0.965926 0 0.258819 0.965926 -15763 1333.36)">
   <text x="50000" y="14259"  class="fil6 fnt5">江</text>
  </g>
  <g transform="matrix(0.965926 0 0.258819 0.965926 439.255 2090.16)">
   <text x="50000" y="14259"  class="fil6 fnt5">鲁</text>
  </g>
  <g transform="matrix(0.965926 0 0.258819 0.965926 5657.56 2433.49)">
   <text x="50000" y="14259"  class="fil6 fnt5">藏</text>
  </g>
  <g transform="matrix(0.965926 0 0.258819 0.965926 10376.6 2121.36)">
   <text x="50000" y="14259"  class="fil6 fnt5">布</text>
  </g>
  <g transform="matrix(0.965926 0 0.258819 0.965926 14533.8 2932.69)">
   <text x="50000" y="14259"  class="fil6 fnt5">江</text>
  </g>
  <g transform="matrix(0.965926 0 0.258819 0.965926 44499.2 1574.61)">
   <text x="50000" y="14259"  class="fil6 fnt5">雅</text>
  </g>
  <g transform="matrix(0.965926 0 0.258819 0.965926 24773.3 2846.91)">
   <text x="50000" y="14259"  class="fil6 fnt5">雅</text>
  </g>
  <g transform="matrix(0.965926 0 0.258819 0.965926 28088.1 2347.6)">
   <text x="50000" y="14259"  class="fil6 fnt5">鲁</text>
  </g>
  <g transform="matrix(0.965926 0 0.258819 0.965926 30997.1 1723.47)">
   <text x="50000" y="14259"  class="fil6 fnt5">藏</text>
  </g>
  <g transform="matrix(0.965926 0 0.258819 0.965926 34187 631.286)">
   <text x="50000" y="14259"  class="fil6 fnt5">布</text>
  </g>
  <g transform="matrix(0.965926 0 0.258819 0.965926 36908.7 -1553.18)">
   <text x="50000" y="14259"  class="fil6 fnt5">江</text>
  </g>
  <g transform="matrix(0.965926 0 0.258819 0.965926 43351.5 2354.78)">
   <text x="50000" y="14259"  class="fil6 fnt5">鲁</text>
  </g>
  <g transform="matrix(0.965926 0 0.258819 0.965926 42047.6 3634.23)">
   <text x="50000" y="14259"  class="fil6 fnt5">藏</text>
  </g>
  <g transform="matrix(0.965926 0 0.258819 0.965926 41243.1 5506.57)">
   <text x="50000" y="14259"  class="fil6 fnt5">布</text>
  </g>
  <g transform="matrix(0.965926 0 0.258819 0.965926 42217.3 7129.33)">
   <text x="50000" y="14259"  class="fil6 fnt5">江</text>
  </g>
  <g transform="matrix(0.965926 0 0.258819 0.965926 -20719.9 2847.43)">
   <text x="50000" y="14259"  class="fil6 fnt6">年</text>
  </g>
  <g transform="matrix(0.965926 0 0.258819 0.965926 -17770.7 4657.39)">
   <text x="50000" y="14259"  class="fil6 fnt6">楚</text>
  </g>
  <g transform="matrix(0.965926 0 0.258819 0.965926 -14603 6529.71)">
   <text x="50000" y="14259"  class="fil6 fnt6">河</text>
  </g>
  <g transform="matrix(0.965926 0 0.258819 0.965926 -2245.82 -148.392)">
   <text x="50000" y="14259"  class="fil6 fnt6">拉</text>
  </g>
  <g transform="matrix(0.965926 0 0.258819 0.965926 481.688 -2812.21)">
   <text x="50000" y="14259"  class="fil6 fnt6">萨</text>
  </g>
  <g transform="matrix(0.965926 0 0.258819 0.965926 3283.27 -4518.89)">
   <text x="50000" y="14259"  class="fil6 fnt6">河</text>
  </g>
  <g transform="matrix(0.965926 0 0.258819 0.965926 -48056.7 -2301.6)">
   <text x="50000" y="14259"  class="fil6 fnt6">多</text>
  </g>
  <g transform="matrix(0.965926 0 0.258819 0.965926 -44420.8 -1521.47)">
   <text x="50000" y="14259"  class="fil6 fnt6">雄</text>
  </g>
  <g transform="matrix(0.965926 0 0.258819 0.965926 -41034.7 -1053.41)">
   <text x="50000" y="14259"  class="fil6 fnt6">藏</text>
  </g>
  <g transform="matrix(0.965926 0 0.258819 0.965926 -37399 -1240.64)">
   <text x="50000" y="14259"  class="fil6 fnt6">布</text>
  </g>
  <g transform="matrix(0.965926 0 0.258819 0.965926 27837 -5110.22)">
   <text x="50000" y="14259"  class="fil6 fnt6">易</text>
  </g>
  <g transform="matrix(0.965926 0 0.258819 0.965926 30567.7 -4486.07)">
   <text x="50000" y="14259"  class="fil6 fnt6">贡</text>
  </g>
  <g transform="matrix(0.965926 0 0.258819 0.965926 33766.7 -4080.41)">
   <text x="50000" y="14259"  class="fil6 fnt6">藏</text>
  </g>
  <g transform="matrix(0.965926 0 0.258819 0.965926 35280.4 -1802.35)">
   <text x="50000" y="14259"  class="fil6 fnt6">布</text>
  </g>
  <text x="98120" y="22146"  class="fil6 fnt7">28°</text>
  <text x="97999" y="17909"  class="fil6 fnt7">29°</text>
  <text x="98023" y="18255"  class="fil6 fnt7">00′</text>
  <text x="98129" y="22472"  class="fil6 fnt7">40′</text>
  <text x="97479" y="4916"  class="fil6 fnt7">30°</text>
  <text x="97491" y="5334"  class="fil6 fnt7">00′</text>
  <g transform="matrix(0.998193 -0.0600921 0.0600921 0.998193 43964.3 11803)">
   <text x="50000" y="14259"  class="fil6 fnt8">95°00′</text>
  </g>
  <g transform="matrix(0.998139 0.0609717 -0.0609717 0.998139 -43603.4 5515.85)">
   <text x="50000" y="14259"  class="fil6 fnt8">87°00′</text>
  </g>
  <g transform="matrix(0.998139 0.0609717 -0.0609717 0.998139 -32620.6 6043.93)">
   <text x="50000" y="14259"  class="fil6 fnt8">88°00′</text>
  </g>
  <g transform="matrix(0.999488 0.0319917 -0.0319917 0.999488 -21877.1 7778.25)">
   <text x="50000" y="14259"  class="fil6 fnt8">89°00′</text>
  </g>
  <g transform="matrix(0.999488 0.0319917 -0.0319917 0.999488 -10908.1 7953.59)">
   <text x="50000" y="14259"  class="fil6 fnt8">90°00′</text>
  </g>
  <g transform="matrix(0.999488 0.0319917 -0.0319917 0.999488 463.479 8033.53)">
   <text x="50000" y="14259"  class="fil6 fnt8">91°00′</text>
  </g>
  <g transform="matrix(0.999982 -0.00607319 0.00607319 0.999982 11058.5 9983.73)">
   <text x="50000" y="14259"  class="fil6 fnt8">92°00′</text>
  </g>
  <g transform="matrix(0.999758 -0.0219793 0.0219793 0.999758 21876.8 10515.9)">
   <text x="50000" y="14259"  class="fil6 fnt8">93°00′</text>
  </g>
  <g transform="matrix(0.999747 -0.0224733 0.0224733 0.999747 33192.2 10210.4)">
   <text x="50000" y="14259"  class="fil6 fnt8">94°00′</text>
  </g>
  <text x="1893" y="22084"  class="fil6 fnt7">28°</text>
  <text x="2024" y="17812"  class="fil6 fnt7">29°</text>
  <text x="2037" y="18177"  class="fil6 fnt7">00′</text>
  <text x="1893" y="22402"  class="fil6 fnt7">40′</text>
  <text x="2229" y="4904"  class="fil6 fnt7">30°</text>
  <text x="2241" y="5226"  class="fil6 fnt7">00′</text>
  <text x="93553" y="4997"  class="fil6 fnt8">95°00′</text>
  <g transform="matrix(0.998139 0.0609717 -0.0609717 0.998139 -43147.2 -12395.1)">
   <text x="50000" y="14259"  class="fil6 fnt8">87°00′</text>
  </g>
  <g transform="matrix(0.998139 0.0609717 -0.0609717 0.998139 -32042.7 -11915.8)">
   <text x="50000" y="14259"  class="fil6 fnt8">88°00′</text>
  </g>
  <g transform="matrix(0.999488 0.0319917 -0.0319917 0.999488 -21567 -10181.5)">
   <text x="50000" y="14259"  class="fil6 fnt8">89°00′</text>
  </g>
  <g transform="matrix(0.999488 0.0319917 -0.0319917 0.999488 -10622.3 -9981.77)">
   <text x="50000" y="14259"  class="fil6 fnt8">90°00′</text>
  </g>
  <g transform="matrix(0.999488 0.0319917 -0.0319917 0.999488 376.559 -9873.69)">
   <text x="50000" y="14259"  class="fil6 fnt8">91°00′</text>
  </g>
  <g transform="matrix(0.999723 -0.0235305 0.0235305 0.999723 10388.2 -7182.25)">
   <text x="50000" y="14259"  class="fil6 fnt8">92°00′</text>
  </g>
  <g transform="matrix(0.999758 -0.0219793 0.0219793 0.999758 21432.3 -7541.2)">
   <text x="50000" y="14259"  class="fil6 fnt8">93°00′</text>
  </g>
  <g transform="matrix(0.999747 -0.0224733 0.0224733 0.999747 32330.8 -7735.64)">
   <text x="50000" y="14259"  class="fil6 fnt8">94°00′</text>
  </g>
  <g transform="matrix(0.962834 0.270094 -0.270094 0.962834 -34314.1 -5127.12)">
   <text x="50000" y="14259"  class="fil7 fnt9">5000</text>
  </g>
  <g transform="matrix(0.489141 -0.872204 0.872204 0.489141 -15996 46234.1)">
   <text x="50000" y="14259"  class="fil7 fnt9">5000</text>
  </g>
  <g transform="matrix(0.929031 -0.370001 0.370001 0.929031 -21951.4 20956.2)">
   <text x="50000" y="14259"  class="fil7 fnt9">4000</text>
  </g>
  <g transform="matrix(0.985024 0.172418 -0.172418 0.985024 24166 -5447.96)">
   <text x="50000" y="14259"  class="fil7 fnt9">4000</text>
  </g>
  <g transform="matrix(0.180297 -0.983612 0.983612 0.180297 18956.7 58307.4)">
   <text x="50000" y="14259"  class="fil7 fnt9">5000</text>
  </g>
  <g transform="matrix(0.626369 -0.779526 0.779526 0.626369 19536.2 51972.3)">
   <text x="50000" y="14259"  class="fil7 fnt9">5000</text>
  </g>
  <g transform="matrix(0.981583 -0.191038 0.191038 0.981583 32587 4299.19)">
   <text x="50000" y="14259"  class="fil7 fnt9">4000</text>
  </g>
  <g transform="matrix(0.749438 -0.662074 0.662074 0.749438 41583.7 42703.4)">
   <text x="50000" y="14259"  class="fil7 fnt9">3000</text>
  </g>
  <text x="17233" y="25578"  class="fil7 fnt10">5 000</text>
  <text x="17585" y="25578"  class="fil7 fnt11"> </text>
  <text x="15370" y="25578"  class="fil7 fnt10">4 000</text>
  <text x="15722" y="25578"  class="fil7 fnt11"> </text>
  <text x="13575" y="25578"  class="fil7 fnt10">3</text>
  <text x="13977" y="25578"  class="fil7 fnt10">000</text>
  <text x="13810" y="25578"  class="fil7 fnt11">  </text>
  <text x="11775" y="25578"  class="fil7 fnt10">2</text>
  <text x="12177" y="25578"  class="fil7 fnt10">500</text>
  <text x="12010" y="25578"  class="fil7 fnt11">  </text>
  <text x="8158" y="25578"  class="fil7 fnt10">1</text>
  <text x="8561" y="25578"  class="fil7 fnt10">500</text>
  <text x="8393" y="25578"  class="fil7 fnt11">  </text>
  <text x="6375" y="25578"  class="fil7 fnt10">1</text>
  <text x="6778" y="25578"  class="fil7 fnt10">000</text>
  <text x="6610" y="25578"  class="fil7 fnt11">  </text>
  <text x="9993" y="25578"  class="fil7 fnt10">2 000</text>
  <text x="10345" y="25578"  class="fil7 fnt11"> </text>
  <text x="61511" y="14893"  class="fil3 fnt2">桑日</text>
  <text x="4863" y="25577"  class="fil7 fnt10">700</text>
  <text x="3534" y="24796"  class="fil3 fnt12">地</text>
  <text x="4198" y="24796"  class="fil3 fnt12">势</text>
  <text x="18554" y="25561"  class="fil3 fnt13">海</text>
  <text x="19070" y="25561"  class="fil3 fnt13">拔</text>
  <text x="19540" y="25561"  class="fil3 fnt4">(米)</text>
  <text x="18592" y="25931"  class="fil3 fnt14">E</text>
  <text x="18858" y="25931"  class="fil3 fnt14">l</text>
  <text x="18990" y="25931"  class="fil3 fnt14">e</text>
  <text x="19189" y="25931"  class="fil3 fnt14">v</text>
  <text x="19410" y="25931"  class="fil3 fnt14">a</text>
  <text x="19609" y="25931"  class="fil3 fnt14">t</text>
  <text x="19741" y="25931"  class="fil3 fnt14">i</text>
  <text x="19872" y="25931"  class="fil3 fnt14">o</text>
  <text x="20094" y="25931"  class="fil3 fnt14">n</text>
  <text x="20315" y="25931"  class="fil3 fnt15">(</text>
  <text x="20444" y="25931"  class="fil3 fnt15">m</text>
  <text x="20721" y="25931"  class="fil3 fnt15">)</text>
  <g transform="matrix(1.2 0 0 1 -40424.6 -10976.4)">
   <text x="50000" y="14259"  class="fil3 fnt16">1979</text>
   <text x="51960" y="14259"  class="fil3 fnt16">2</text>
   <text x="52989" y="14259"  class="fil3 fnt16">19</text>
   <text x="51289" y="14259"  class="fil3 fnt16">年</text>
   <text x="52319" y="14259"  class="fil3 fnt16">月</text>
   <text x="53584" y="14259"  class="fil3 fnt16">日雅鲁藏布江中游近地表流场图</text>
  </g>
  <polyline class="fil8 str7" points="25160,15330 25160,15330 26927,15330 "/>
  <polyline class="fil8 str7" points="59501,16023 59501,16023 60439,16023 "/>
  <polyline class="fil8 str7" points="87250,9579 87250,9579 88441,9579 "/>
 </g>
 </g>
  </g>
</svg>
