<?xml version="1.0" encoding="UTF-8"?>
<!DOCTYPE svg PUBLIC "-//W3C//DTD SVG 1.1//EN" "http://www.w3.org/Graphics/SVG/1.1/DTD/svg11.dtd">
<!-- Creator: CorelDRAW X6 -->
<svg xmlns="http://www.w3.org/2000/svg" xml:space="preserve" width="999px" height="406px" version="1.1" style="shape-rendering:geometricPrecision; text-rendering:geometricPrecision; image-rendering:optimizeQuality; fill-rule:evenodd; clip-rule:evenodd"
viewBox="0 0 99900 40584"
 xmlns:xlink="http://www.w3.org/1999/xlink">
 <defs>
  <style type="text/css">
   <![CDATA[
    .str2 {stroke:#332C2B;stroke-width:62.4375}
    .str3 {stroke:#332C2B;stroke-width:74.925}
    .str1 {stroke:#FEFEFE;stroke-width:74.925}
    .str0 {stroke:#332C2B;stroke-width:124.875}
    .str5 {stroke:#FEFEFE;stroke-width:124.875}
    .str4 {stroke:#EF8641;stroke-width:156.094}
    .fil2 {fill:none}
    .fil6 {fill:#009B4C}
    .fil1 {fill:#332C2B}
    .fil8 {fill:#B39B77}
    .fil5 {fill:#D0753B}
    .fil7 {fill:#FDD100}
    .fil3 {fill:#A9BAA1}
    .fil0 {fill:#EBECD6}
    .fil4 {fill:#FEF3DF}
    .fnt8 {font-weight:normal;font-size:961.787px;font-family:'宋体'}
    .fnt6 {font-weight:normal;font-size:1101.34px;font-family:'Times New Roman'}
    .fnt3 {font-weight:normal;font-size:1321.61px;font-family:'Times New Roman'}
    .fnt1 {font-weight:normal;font-size:1321.61px;font-family:'宋体'}
    .fnt4 {font-weight:normal;font-size:1373.63px;font-family:'Times New Roman'}
    .fnt0 {font-weight:normal;font-size:1541.83px;font-family:'宋体'}
    .fnt5 {font-weight:normal;font-size:1762.11px;font-family:'Arial'}
    .fnt2 {font-weight:normal;font-size:2202.67px;font-family:'方正准圆简体'}
    .fnt7 {font-weight:normal;font-size:550.699px;font-family:'Times New Roman';baseline-shift:super}
   ]]>
  </style>
 </defs>
 <g id="图层_x0020_1">
  <metadata id="CorelCorpID_0Corel-Layer"/>
  <g id="_750139616">
   <polygon class="fil0 str0" points="6364,10365 33005,10365 35034,10365 59012,10365 61701,10365 92063,10365 92063,36061 61701,36061 59012,36061 35034,36061 33005,36061 6364,36061 "/>
   <text x="2748" y="7708"  class="fil1 fnt0">   沙漠化面积</text>
   <text x="12770" y="7708"  class="fil1 fnt1">(</text>
   <text x="20038" y="7708"  class="fil1 fnt1">)</text>
   <text x="13430" y="7708"  class="fil1 fnt1">万平方千米</text>
   <g transform="matrix(1.2 0 0 1 -27869.5 -18017.2)">
    <text x="49950" y="20292"  class="fil1 fnt2">沙漠化土地退化度与面积变化</text>
   </g>
   <text x="90336" y="7941"  class="fil1 fnt0">退化度</text>
   <text x="94961" y="7941"  class="fil1 fnt1">(</text>
   <text x="96283" y="7941"  class="fil1 fnt1">)</text>
   <text x="95622" y="7941"  class="fil1 fnt1">%</text>
   <line class="fil2 str1" x1="18493" y1="36023" x2="18493" y2= "10340" />
   <line class="fil2 str1" x1="30676" y1="36023" x2="30676" y2= "10340" />
   <line class="fil2 str2" x1="92075" y1="36083" x2="92699" y2= "36083" />
   <path class="fil2 str2" d="M92098 33274c208,0 416,0 624,0"/>
   <path class="fil2 str2" d="M92098 30441c208,0 416,0 624,0"/>
   <path class="fil2 str2" d="M92098 27562c208,0 416,0 624,0"/>
   <path class="fil2 str2" d="M92098 24806c208,0 416,0 624,0"/>
   <path class="fil2 str2" d="M92098 22040c208,0 416,0 624,0"/>
   <path class="fil2 str2" d="M92098 13545c208,0 416,0 624,0"/>
   <line class="fil2 str2" x1="92098" y1="10363" x2="92723" y2= "10363" />
   <line class="fil2 str2" x1="5706" y1="36076" x2="6330" y2= "36076" />
   <path class="fil2 str2" d="M5706 33679c208,0 416,0 624,0"/>
   <path class="fil2 str2" d="M5706 31319c208,0 416,0 624,0"/>
   <path class="fil2 str2" d="M5706 24440c208,0 416,0 624,0"/>
   <path class="fil2 str2" d="M5706 22004c208,0 416,0 624,0"/>
   <path class="fil2 str2" d="M5706 17521c208,0 416,0 624,0"/>
   <path class="fil2 str2" d="M5706 12804c208,0 416,0 624,0"/>
   <line class="fil2 str2" x1="5706" y1="10376" x2="6330" y2= "10376" />
   <path class="fil2 str2" d="M92098 19214c208,0 416,0 624,0"/>
   <text x="4451" y="15593"  class="fil1 fnt3">9</text>
   <path class="fil2 str2" d="M92098 16345c208,0 416,0 624,0"/>
   <path class="fil2 str2" d="M5706 29036c208,0 416,0 624,0"/>
   <path class="fil2 str2" d="M5706 26784c208,0 416,0 624,0"/>
   <path class="fil2 str2" d="M5706 19737c208,0 416,0 624,0"/>
   <path class="fil2 str2" d="M5706 15156c208,0 416,0 624,0"/>
   <text x="4451" y="17957"  class="fil1 fnt3">8</text>
   <text x="4475" y="20168"  class="fil1 fnt3">7</text>
   <text x="4451" y="22441"  class="fil1 fnt3">6</text>
   <text x="4456" y="24867"  class="fil1 fnt3">5</text>
   <text x="4436" y="27216"  class="fil1 fnt3">4</text>
   <text x="4470" y="29473"  class="fil1 fnt3">3</text>
   <text x="4485" y="31761"  class="fil1 fnt3">2</text>
   <text x="4670" y="34110"  class="fil1 fnt3">1</text>
   <rect class="fil3 str3" x="9196" y="35591" width="1180" height="432"/>
   <rect class="fil3 str3" x="21311" y="35618" width="1180" height="405"/>
   <rect class="fil3 str3" x="33521" y="28361" width="1180" height="7662"/>
   <rect class="fil3 str3" x="45595" y="35775" width="1180" height="248"/>
   <rect class="fil3 str3" x="57832" y="12912" width="1180" height="23111"/>
   <rect class="fil3 str3" x="70016" y="22127" width="1180" height="13895"/>
   <rect class="fil3 str3" x="82135" y="35894" width="1180" height="129"/>
   <text x="11783" y="20480"  class="fil1 fnt4">1990</text>
   <text x="14530" y="20480"  class="fil1 fnt0">年代初期</text>
   <text x="11783" y="23346"  class="fil1 fnt4">1990</text>
   <text x="14530" y="23346"  class="fil1 fnt0">年代后期</text>
   <text x="11783" y="26255"  class="fil1 fnt4">2000</text>
   <text x="14530" y="26255"  class="fil1 fnt0">年代中期</text>
   <line class="fil2 str1" x1="42813" y1="36023" x2="42813" y2= "10340" />
   <line class="fil2 str1" x1="55029" y1="36023" x2="55029" y2= "10340" />
   <rect class="fil4 str3" x="11839" y="35647" width="1180" height="376"/>
   <rect class="fil4 str3" x="23968" y="35594" width="1180" height="429"/>
   <rect class="fil4 str3" x="36158" y="28276" width="1180" height="7747"/>
   <rect class="fil4 str3" x="48235" y="35774" width="1180" height="249"/>
   <rect class="fil4 str3" x="60489" y="12723" width="1180" height="23299"/>
   <rect class="fil4 str3" x="72618" y="22197" width="1180" height="13825"/>
   <rect class="fil4 str3" x="84945" y="35891" width="1180" height="132"/>
   <line class="fil2 str1" x1="63284" y1="36023" x2="63284" y2= "10340" />
   <line class="fil2 str1" x1="67189" y1="36023" x2="67189" y2= "10340" />
   <line class="fil2 str1" x1="79301" y1="36023" x2="79301" y2= "10340" />
   <rect class="fil5 str3" x="14480" y="35807" width="1180" height="216"/>
   <rect class="fil5 str3" x="26606" y="35602" width="1180" height="421"/>
   <rect class="fil5 str3" x="38794" y="28133" width="1180" height="7889"/>
   <rect class="fil5 str3" x="63180" y="12033" width="1180" height="23990"/>
   <rect class="fil5 str3" x="75300" y="21979" width="1180" height="14043"/>
   <rect class="fil5 str3" x="85502" y="35963" width="1180.01" height="59.6903"/>
   <text x="10388" y="38244"  class="fil1 fnt0">拉萨市</text>
   <text x="22503" y="38233"  class="fil1 fnt0">山南地区</text>
   <text x="33371" y="38233"  class="fil1 fnt0">日喀则地区</text>
   <text x="46135" y="38244"  class="fil1 fnt0">昌都地区</text>
   <text x="58388" y="38233"  class="fil1 fnt0">那曲地区</text>
   <text x="70518" y="38190"  class="fil1 fnt0">阿里地区</text>
   <text x="82845" y="38222"  class="fil1 fnt0">林芝地区</text>
   <text x="11717" y="14840"  class="fil1 fnt0">沙漠化面积</text>
   <text x="11783" y="17722"  class="fil1 fnt0">退化度</text>
   <line class="fil2 str4" x1="11306" y1="17863" x2="9031" y2= "17863" />
   <polyline class="fil2 str4" points="9883,33459 12463,33428 15187,34490 "/>
   <polyline class="fil2 str4" points="21949,34736 24438,34736 27219,34521 "/>
   <rect class="fil6 str5" transform="matrix(0.604916 -0.604916 0.604916 0.604916 9220.63 33458.6)" width="1095" height="1095"/>
   <rect class="fil7 str5" transform="matrix(0.604916 -0.604916 0.604916 0.604916 11800.6 33428.1)" width="1095" height="1095"/>
   <rect class="fil8 str5" transform="matrix(0.604916 -0.604916 0.604916 0.604916 14524.5 34490.3)" width="1095" height="1095"/>
   <rect class="fil6 str5" transform="matrix(0.604916 -0.604916 0.604916 0.604916 21287.2 34736.2)" width="1095" height="1095"/>
   <rect class="fil8 str5" transform="matrix(0.604916 -0.604916 0.604916 0.604916 26556.5 34521.2)" width="1095" height="1095"/>
   <rect class="fil7 str5" transform="matrix(0.604916 -0.604916 0.604916 0.604916 23775.9 34736.2)" width="1095" height="1095"/>
   <polyline class="fil2 str4" points="34165,27082 36677,26536 39343,26168 "/>
   <rect class="fil6 str5" transform="matrix(0.604916 -0.604916 0.604916 0.604916 33502.8 27082.3)" width="1095" height="1095"/>
   <rect class="fil7 str5" transform="matrix(0.604916 -0.604916 0.604916 0.604916 36014.9 26535.6)" width="1095" height="1095"/>
   <rect class="fil8 str5" transform="matrix(0.604916 -0.604916 0.604916 0.604916 38680.8 26168.5)" width="1095" height="1095"/>
   <polyline class="fil2 str4" points="46155,35471 48965,35374 51528,35959 "/>
   <rect class="fil6 str5" transform="matrix(0.604916 -0.604916 0.604916 0.604916 45492.6 35470.8)" width="1095" height="1095"/>
   <rect class="fil7 str5" transform="matrix(0.604916 -0.604916 0.604916 0.604916 48302.6 35374.4)" width="1095" height="1095"/>
   <rect class="fil8 str5" transform="matrix(0.604916 -0.604916 0.604916 0.604916 50866.1 35959.4)" width="1095" height="1095"/>
   <polyline class="fil2 str4" points="58421,22751 61006,22307 63751,22957 "/>
   <rect class="fil6 str5" transform="matrix(0.604916 -0.604916 0.604916 0.604916 57759 22751.4)" width="1095" height="1095"/>
   <rect class="fil7 str5" transform="matrix(0.604916 -0.604916 0.604916 0.604916 60343.6 22307.1)" width="1095" height="1095"/>
   <rect class="fil8 str5" transform="matrix(0.604916 -0.604916 0.604916 0.604916 63088.9 22956.8)" width="1095" height="1095"/>
   <polyline class="fil2 str4" points="70601,26756 73168,26772 75939,26383 "/>
   <rect class="fil6 str5" transform="matrix(0.604916 -0.604916 0.604916 0.604916 69938.9 26755.6)" width="1095" height="1095"/>
   <rect class="fil7 str5" transform="matrix(0.604916 -0.604916 0.604916 0.604916 72506.2 26772.5)" width="1095" height="1095"/>
   <rect class="fil8 str5" transform="matrix(0.604916 -0.604916 0.604916 0.604916 75276.4 26382.8)" width="1095" height="1095"/>
   <polyline class="fil2 str4" points="82817,35862 85675,35752 88536,35854 "/>
   <rect class="fil6 str5" transform="matrix(0.604916 -0.604916 0.604916 0.604916 82155.3 35861.9)" width="1095" height="1095"/>
   <rect class="fil7 str5" transform="matrix(0.604916 -0.604916 0.604916 0.604916 85012.5 35751.7)" width="1095" height="1095"/>
   <rect class="fil8 str5" transform="matrix(0.604916 -0.604916 0.604916 0.604916 87873.4 35853.9)" width="1095" height="1095"/>
   <rect class="fil3 str3" x="9597" y="19597" width="1180" height="2033"/>
   <rect class="fil4 str3" x="9597" y="22451" width="1180" height="2056"/>
   <rect class="fil5 str3" x="9597" y="25341" width="1180" height="2094"/>
   <rect class="fil6 str5" transform="matrix(0.604916 -0.604916 0.604916 0.604916 9524.83 20475.9)" width="1095" height="1095"/>
   <rect class="fil7 str5" transform="matrix(0.604916 -0.604916 0.604916 0.604916 9524.89 23356)" width="1095" height="1095"/>
   <rect class="fil8 str5" transform="matrix(0.604916 -0.604916 0.604916 0.604916 9524.89 26288.4)" width="1095" height="1095"/>
   <rect class="fil2 str5" transform="matrix(0.604916 -0.604916 0.604916 0.604916 9506.41 17863.2)" width="1095" height="1095"/>
   <rect class="fil2 str3" x="9597" y="13960" width="1180" height="2033"/>
   <text x="4670" y="36387"  class="fil1 fnt3">0</text>
   <text x="3721" y="13282"  class="fil1 fnt3">10</text>
   <text x="3999" y="10935"  class="fil1 fnt3">11</text>
   <text x="93980" y="16512"  class="fil1 fnt3">0.21</text>
   <text x="93980" y="19369"  class="fil1 fnt3">0.18</text>
   <text x="93980" y="22225"  class="fil1 fnt3">0.15</text>
   <text x="93980" y="25081"  class="fil1 fnt3">0.12</text>
   <text x="93980" y="27938"  class="fil1 fnt3">0.09</text>
   <text x="93980" y="30794"  class="fil1 fnt3">0.06</text>
   <text x="93980" y="33651"  class="fil1 fnt3">0.03</text>
   <text x="93980" y="36507"  class="fil1 fnt3">0</text>
   <text x="93980" y="13656"  class="fil1 fnt3">0.24</text>
   <text x="93980" y="10799"  class="fil1 fnt3">0.27</text>
   <text x="22974" y="4670"  class="fil1 fnt5">Degraded degree and acreage variations of aeolian desertified land</text>
   <text x="1404" y="9161"  class="fil1 fnt3">Acreage of aeolian desertified land </text>
   <text x="20227" y="9161"  class="fil1 fnt6">(10</text>
   <text x="21971" y="9161"  class="fil1 fnt6"> km</text>
   <text x="23929" y="9161"  class="fil1 fnt6">)</text>
   <text x="21696" y="8610"  class="fil1 fnt7">4</text>
   <text x="23654" y="8610"  class="fil1 fnt7">2</text>
   <text x="89535" y="9137"  class="fil1 fnt3">Degraded degree</text>
   <text x="11717" y="21688"  class="fil1 fnt3">In the early 1990s</text>
   <text x="11717" y="24541"  class="fil1 fnt3">In the late 1990s</text>
   <text x="11717" y="27353"  class="fil1 fnt3">In the mid 2000s</text>
   <text x="11717" y="15987"  class="fil1 fnt3">Acreage of aeolian desertified land</text>
   <text x="11717" y="18928"  class="fil1 fnt3">Desertification degree</text>
   <text x="10100" y="39883"  class="fil1 fnt3">Lhasa City</text>
   <text x="56797" y="39883"  class="fil1 fnt3">Nagqu Prefecture</text>
   <text x="44352" y="39883"  class="fil1 fnt3">Qamdo Prefecture</text>
   <text x="80703" y="39883"  class="fil1 fnt3">Nyingchi Prefecture</text>
   <text x="20389" y="39883"  class="fil1 fnt3">Shannan Prefecture</text>
   <text x="32469" y="39883"  class="fil1 fnt3">Xigaze Prefecture</text>
   <text x="69184" y="39883"  class="fil1 fnt3">Ngari Prefecture</text>
   <g transform="matrix(-1.05732 -0 -0 -1 89279.2 58750.1)">
    <text x="49950" y="20292"  class="fil1 fnt8">ˇ</text>
   </g>
  </g>
 </g>
</svg>
