<?xml version="1.0" encoding="UTF-8"?>
<!DOCTYPE svg PUBLIC "-//W3C//DTD SVG 1.1//EN" "http://www.w3.org/Graphics/SVG/1.1/DTD/svg11.dtd">
<!-- Creator: CorelDRAW X6 -->
<svg xmlns="http://www.w3.org/2000/svg" xml:space="preserve" width="1000px" height="400px" version="1.1" style="shape-rendering:geometricPrecision; text-rendering:geometricPrecision; image-rendering:optimizeQuality; fill-rule:evenodd; clip-rule:evenodd"
viewBox="0 0 100000 40000"
 xmlns:xlink="http://www.w3.org/1999/xlink">
 <defs>
  <style type="text/css">
   <![CDATA[
    .str5 {stroke:#332C2B;stroke-width:38.1}
    .str1 {stroke:#332C2B;stroke-width:50}
    .str0 {stroke:#332C2B;stroke-width:60}
    .str2 {stroke:#009B4C;stroke-width:90}
    .str6 {stroke:#332C2B;stroke-width:100}
    .str3 {stroke:#E62129;stroke-width:100}
    .str4 {stroke:#2F318B;stroke-width:90;stroke-dasharray:1530.000000 270.000000}
    .fil4 {fill:none}
    .fil0 {fill:#332C2B}
    .fil1 {fill:#D0753B}
    .fil3 {fill:#A9BAA1}
    .fil6 {fill:#EAEEEB}
    .fil2 {fill:#FEF3DF}
    .fil5 {fill:#FEFAF4}
    .fnt0 {font-weight:normal;font-size:673.7px;font-family:'宋体'}
    .fnt8 {font-weight:normal;font-size:771.45px;font-family:'Times New Roman'}
    .fnt1 {font-weight:normal;font-size:1080.05px;font-family:'Times New Roman'}
    .fnt2 {font-weight:normal;font-size:1080.05px;font-family:'宋体'}
    .fnt4 {font-weight:normal;font-size:1234.35px;font-family:'Times New Roman'}
    .fnt9 {font-weight:normal;font-size:1234.35px;font-family:'宋体'}
    .fnt11 {font-weight:normal;font-size:1234.7px;font-family:'Times New Roman'}
    .fnt12 {font-weight:normal;font-size:1234.7px;font-family:'方正书宋简体'}
    .fnt5 {font-weight:normal;font-size:1388.65px;font-family:'Times New Roman'}
    .fnt3 {font-weight:normal;font-size:1388.65px;font-family:'宋体'}
    .fnt13 {font-weight:normal;font-size:1411.1px;font-family:'Arial'}
    .fnt10 {font-weight:normal;font-size:1411.1px;font-family:'黑体'}
    .fnt7 {font-weight:normal;font-size:617.2px;font-family:'Times New Roman';baseline-shift:super}
    .fnt6 {font-weight:normal;font-size:694.35px;font-family:'Times New Roman';baseline-shift:super}
   ]]>
  </style>
 </defs>
 <g id="图层_x0020_1">
  <metadata id="CorelCorpID_0Corel-Layer"/>
  <g id="_891487456">
   <g>
    <g transform="matrix(-1.05732 -0 -0 -1 73517.7 57932.5)">
     <text x="50000" y="20000"  class="fil0 fnt0">ˇ</text>
    </g>
    <polygon class="fil1" points="11865,36479 10298,36479 10298,36261 11865,36263 "/>
    <polygon class="fil1" points="17845,36479 16278,36479 16278,35966 17845,35972 "/>
    <polygon class="fil1" points="23617,36498 22050,36498 22050,25606 23599,25611 "/>
    <polygon class="fil1" points="35347,36475 33780,36475 33780,3326 35347,3319 "/>
    <polygon class="fil1" points="41263,36453 39695,36453 39695,16975 41265,16970 "/>
    <polygon class="fil1" points="47092,36475 45524,36475 45524,36389 47091,36390 "/>
    <polygon class="fil2 str0" points="10280,36479 8713,36479 8713,36067 10280,36071 "/>
    <polygon class="fil2 str0" points="16260,36479 14692,36479 14692,35974 16260,35979 "/>
    <polygon class="fil2 str0" points="22032,36498 20465,36498 20465,25833 22039,25837 "/>
    <polygon class="fil2 str0" points="33762,36475 32195,36475 32195,4263 33780,4263 "/>
    <polygon class="fil2 str0" points="39677,36453 38110,36453 38110,17285 39677,17294 "/>
    <polygon class="fil2 str0" points="45506,36475 43939,36475 43939,36227 45506,36230 "/>
    <polygon class="fil3" points="8706,36481 7138,36481 7138,36043 8706,36048 "/>
    <polygon class="fil3" points="14685,36480 13118,36480 13118,36030 14685,36035 "/>
    <polygon class="fil3" points="20458,36499 18891,36499 18891,25960 20480,25965 "/>
    <polygon class="fil3" points="32188,36476 30621,36476 30621,4532 32195,4539 "/>
    <polygon class="fil3" points="38103,36455 36536,36455 36536,17214 38103,17226 "/>
    <polygon class="fil3" points="26305,36492 24738,36492 24738,36179 26305,36182 "/>
    <polygon class="fil3" points="43932,36476 42365,36476 42365,36240 43932,36243 "/>
    <line class="fil4 str1" x1="6159" y1="4546" x2="6497" y2= "4545" />
    <line class="fil4 str1" x1="24249" y1="36141" x2="24250" y2= "36479" />
    <line class="fil4 str1" x1="6125" y1="26917" x2="6463" y2= "26916" />
    <line class="fil4 str1" x1="12523" y1="36141" x2="12523" y2= "36479" />
    <line class="fil4 str1" x1="6144" y1="30098" x2="6483" y2= "30097" />
    <line class="fil4 str1" x1="6114" y1="33348" x2="6452" y2= "33347" />
    <line class="fil4 str1" x1="30038" y1="36132" x2="30039" y2= "36470" />
    <line class="fil4 str1" x1="6176" y1="20582" x2="6514" y2= "20581" />
    <line class="fil4 str1" x1="35863" y1="36129" x2="35864" y2= "36467" />
    <line class="fil4 str1" x1="6214" y1="11018" x2="6552" y2= "11017" />
    <line class="fil4 str1" x1="18413" y1="36132" x2="18414" y2= "36470" />
    <line class="fil4 str1" x1="6153" y1="17258" x2="6491" y2= "17257" />
    <line class="fil4 str1" x1="6166" y1="23825" x2="6504" y2= "23824" />
    <line class="fil4 str1" x1="6163" y1="14104" x2="6501" y2= "14103" />
    <line class="fil4 str1" x1="6154" y1="7775" x2="6492" y2= "7774" />
    <line class="fil4 str1" x1="6187" y1="1226" x2="6525" y2= "1225" />
    <line class="fil4 str1" x1="47881" y1="1511" x2="47543" y2= "1512" />
    <line class="fil4 str1" x1="47830" y1="20880" x2="47491" y2= "20881" />
    <line class="fil4 str1" x1="41839" y1="36136" x2="41840" y2= "36474" />
    <line class="fil4 str1" x1="47864" y1="5344" x2="47526" y2= "5345" />
    <line class="fil4 str1" x1="47850" y1="13143" x2="47512" y2= "13144" />
    <line class="fil4 str1" x1="47857" y1="9165" x2="47519" y2= "9166" />
    <line class="fil4 str1" x1="47837" y1="17053" x2="47498" y2= "17054" />
    <line class="fil4 str1" x1="47812" y1="24699" x2="47474" y2= "24700" />
    <line class="fil4 str1" x1="47821" y1="32585" x2="47483" y2= "32586" />
    <line class="fil4 str1" x1="47828" y1="28661" x2="47490" y2= "28662" />
    <text x="5047" y="36780"  class="fil0 fnt1">0</text>
    <text x="48394" y="36829"  class="fil0 fnt1">0</text>
    <text x="48394" y="32908"  class="fil0 fnt1">0.03</text>
    <text x="48394" y="29010"  class="fil0 fnt1">0.06</text>
    <text x="48394" y="25140"  class="fil0 fnt1">0.09</text>
    <text x="48394" y="21217"  class="fil0 fnt1">0.12</text>
    <text x="48394" y="17369"  class="fil0 fnt1">0.15</text>
    <text x="48394" y="13471"  class="fil0 fnt1">0.18</text>
    <text x="48394" y="9583"  class="fil0 fnt1">0.21</text>
    <text x="48394" y="5769"  class="fil0 fnt1">0.24</text>
    <text x="48394" y="1743"  class="fil0 fnt1">0.27</text>
    <text x="7526" y="37984"  class="fil0 fnt2">拉萨市</text>
    <text x="13031" y="37997"  class="fil0 fnt2">山南地区</text>
    <text x="18494" y="37993"  class="fil0 fnt2">日喀则地区</text>
    <text x="25059" y="37984"  class="fil0 fnt2">昌都地区</text>
    <text x="30779" y="37988"  class="fil0 fnt2">那曲地区</text>
    <text x="36566" y="38001"  class="fil0 fnt2">阿里地区</text>
    <text x="42383" y="37980"  class="fil0 fnt2">林芝地区</text>
    <g transform="matrix(2.40359E-013 -1 1 2.40359E-013 33865.8 71418.4)">
     <text x="50000" y="20000"  class="fil0 fnt3">退</text>
     <text x="51528" y="20000"  class="fil0 fnt3">化</text>
     <text x="53055" y="20000"  class="fil0 fnt3">度</text>
    </g>
    <polyline id="_1992年" class="fil4 str2" points="9793,33010 15393,34822 21269,24114 27281,35640 33129,18074 38832,23622 44567,35887 "/>
    <polyline id="_1999年" class="fil4 str3" points="9793,33010 15393,34822 21299,23567 27281,35640 33075,17534 38832,23622 44567,35887 "/>
    <polyline id="_2004年" class="fil4 str4" points="9610,34474 15320,34530 21296,22925 27266,36245 33156,18502 38778,23137 44723,36351 "/>
    <polyline class="fil4 str0" points="7138,36481 7138,36043 8706,36048 8706,36481 "/>
    <polyline class="fil4 str0" points="10298,36479 10298,36261 11865,36263 11865,36479 "/>
    <polyline class="fil4 str0" points="8713,36479 8713,36067 10280,36071 10280,36479 "/>
    <polyline class="fil4 str0" points="13118,36480 13118,36030 14685,36035 14685,36480 "/>
    <polyline class="fil4 str0" points="16278,36479 16278,35966 17845,35972 17845,36479 "/>
    <polyline class="fil4 str0" points="14692,36479 14692,35974 16260,35979 16260,36479 "/>
    <polyline class="fil4 str0" points="18891,36499 18891,25960 20480,25965 20458,36499 "/>
    <polyline class="fil4 str0" points="22050,36498 22050,25606 23599,25611 23617,36498 "/>
    <polyline class="fil4 str0" points="20465,36498 20465,25833 22039,25837 22032,36498 "/>
    <polyline class="fil4 str0" points="30621,36476 30621,4532 32195,4539 32188,36476 "/>
    <polyline class="fil4 str0" points="33780,36475 33780,3326 35347,3319 35347,36475 "/>
    <polyline class="fil4 str0" points="32195,36475 32195,4263 33780,4263 33762,36475 "/>
    <polyline class="fil4 str0" points="36536,36455 36536,17214 38103,17226 38103,36455 "/>
    <polyline class="fil4 str0" points="39695,36453 39695,16975 41265,16970 41263,36453 "/>
    <polyline class="fil4 str0" points="38110,36453 38110,17285 39677,17294 39677,36453 "/>
    <polyline class="fil4 str0" points="24738,36492 24738,36179 26305,36182 26305,36492 "/>
    <polyline class="fil4 str5" points="27897,36491 27897,36451 29465,36451 29465,36491 "/>
    <polyline class="fil4 str0" points="26312,36491 26312,36169 27879,36173 27879,36491 "/>
    <polyline class="fil4 str0" points="42365,36476 42365,36240 43932,36243 43932,36476 "/>
    <polyline class="fil4 str0" points="45524,36475 45524,36389 47091,36390 47092,36475 "/>
    <polyline class="fil4 str0" points="43939,36475 43939,36227 45506,36230 45506,36475 "/>
    <text x="5047" y="36780"  class="fil0 fnt1">0</text>
    <text x="5212" y="33848"  class="fil0 fnt1">1</text>
    <text x="5053" y="30494"  class="fil0 fnt1">2</text>
    <text x="5044" y="27413"  class="fil0 fnt1">3</text>
    <text x="5047" y="24231"  class="fil0 fnt1">4</text>
    <text x="5037" y="20980"  class="fil0 fnt1">5</text>
    <text x="5044" y="17715"  class="fil0 fnt1">6</text>
    <text x="5044" y="14495"  class="fil0 fnt1">7</text>
    <text x="5042" y="11418"  class="fil0 fnt1">8</text>
    <text x="5042" y="8236"  class="fil0 fnt1">9</text>
    <text x="4302" y="5061"  class="fil0 fnt1">10</text>
    <text x="4558" y="1788"  class="fil0 fnt1">11</text>
    <g transform="matrix(2.64845E-014 -1 1 2.64845E-014 -16554.5 78977.2)">
     <text x="50000" y="20000"  class="fil0 fnt4">Acreage of desertified land (</text>
     <text x="65855" y="20000"  class="fil0 fnt4"> km</text>
     <text x="68049" y="20000"  class="fil0 fnt4">)</text>
     <text x="64119" y="20000"  class="fil0 fnt5">10</text>
     <text x="65508" y="19306"  class="fil0 fnt6">4</text>
     <text x="67741" y="19383"  class="fil0 fnt7">2</text>
    </g>
    <g transform="matrix(2.64845E-014 -1 1 2.64845E-014 35295.1 77979.5)">
     <text x="50000" y="20000"  class="fil0 fnt4">Degraded degree of desertified land</text>
    </g>
    <text x="7437" y="38821"  class="fil0 fnt8">Lhasa City</text>
    <text x="12151" y="38807"  class="fil0 fnt8">Shannan Prefecture</text>
    <text x="18297" y="38819"  class="fil0 fnt8">Xigaze Prefecture</text>
    <text x="24371" y="38836"  class="fil0 fnt8">Qamdo Prefecture</text>
    <text x="30413" y="38774"  class="fil0 fnt8">Nagqu Prefecture</text>
    <g>
     <text x="36187" y="38774"  class="fil0 fnt8">Ngari </text>
     <text x="38043" y="38774"  class="fil0 fnt8">Prefecture</text>
    </g>
    <g>
     <text x="41685" y="38774"  class="fil0 fnt8">Nyingchi </text>
     <text x="44652" y="38774"  class="fil0 fnt8">Prefecture </text>
    </g>
    <polyline class="fil4 str6" points="6546,1182 6478,36478 47472,36478 47531,1162 "/>
    <g>
     <g transform="matrix(2.40217E-013 -0.999408 1 2.40359E-013 -17952.5 76845.2)">
      <text x="50000" y="20000"  class="fil0 fnt3">沙</text>
      <text x="51528" y="20000"  class="fil0 fnt3">漠</text>
      <text x="53055" y="20000"  class="fil0 fnt3">化</text>
      <text x="54583" y="20000"  class="fil0 fnt3">面</text>
      <text x="56110" y="20000"  class="fil0 fnt3">积</text>
     </g>
     <g transform="matrix(2.40217E-013 -0.999408 1 2.40359E-013 -17952.5 69350.8)">
      <text x="50000" y="20000"  class="fil0 fnt3">/</text>
     </g>
     <g transform="matrix(2.64845E-014 -1 1 2.64845E-014 -17935.3 68788.3)">
      <text x="50000" y="20000"  class="fil0 fnt9">万平方千米</text>
     </g>
    </g>
   </g>
   <rect class="fil5" x="69495" y="27997" width="29553" height="9802"/>
   <rect class="fil6" x="58967" y="26986" width="13028" height="10813"/>
   <rect class="fil6" x="58967" y="22967" width="40081" height="5030"/>
   <text x="75795" y="25482"  class="fil0 fnt10"> 沙漠化面积</text>
   <polyline class="fil4 str6" points="58967,37813 58967,35101 58967,31079 58967,27057 58967,23036 58967,22967 "/>
   <polyline class="fil4 str1" points="71990,37770 71990,35101 71995,31079 71995,27057 71995,23036 71995,22967 "/>
   <polyline class="fil4 str1" points="88110,37760 88110,35101 88110,31079 88110,27057 88110,23036 88110,22967 "/>
   <polyline class="fil4 str6" points="99059,37805 99059,35101 99059,31079 99059,27057 99059,23036 99059,22967 "/>
   <polyline class="fil4 str6" points="58954,37760 58991,37760 67395,37760 75836,37760 84278,37760 92719,37760 99061,37760 "/>
   <polyline class="fil4 str1" points="58899,34444 58954,34444 67395,34444 75836,34444 84278,34444 92719,34444 99071,34444 "/>
   <polyline class="fil4 str1" points="58911,31202 58966,31202 67407,31202 75848,31202 84290,31202 92731,31202 99061,31202 "/>
   <polyline class="fil4 str1" points="58912,27997 58967,27997 67406,27997 75846,27997 84285,27997 92725,27997 99051,27997 "/>
   <polyline class="fil4 str6" points="58899,23035 58954,23035 67395,23035 75836,23035 84278,23035 92719,23035 99081,23035 "/>
   <text x="64039" y="25490"  class="fil0 fnt10">时期</text>
   <text x="63817" y="26821"  class="fil0 fnt11">Peri</text>
   <text x="66964" y="26821"  class="fil0 fnt11"> </text>
   <text x="65806" y="26821"  class="fil0 fnt12">od</text>
   <g>
    <text x="61091" y="29420"  class="fil0 fnt13">1990</text>
    <text x="64230" y="29420"  class="fil0 fnt10">年代初期</text>
    <g>
     <text x="61434" y="30661"  class="fil0 fnt11">The </text>
     <text x="63662" y="30661"  class="fil0 fnt11">early </text>
     <text x="66438" y="30661"  class="fil0 fnt11">1990s</text>
    </g>
   </g>
   <g>
    <text x="61141" y="32752"  class="fil0 fnt13">1990</text>
    <text x="64280" y="32752"  class="fil0 fnt10">年代后期</text>
    <g>
     <text x="61827" y="33956"  class="fil0 fnt11">The </text>
     <text x="64055" y="33956"  class="fil0 fnt11">late </text>
     <text x="66146" y="33956"  class="fil0 fnt11">1990s</text>
    </g>
   </g>
   <g>
    <text x="61091" y="36096"  class="fil0 fnt13">2000</text>
    <text x="64230" y="36096"  class="fil0 fnt10">年代中期</text>
    <g>
     <text x="61656" y="37323"  class="fil0 fnt11">The </text>
     <text x="63884" y="37323"  class="fil0 fnt11">mid-2000s </text>
    </g>
   </g>
   <text x="73294" y="26696"  class="fil0 fnt11">Acreage of desertified land </text>
   <text x="91487" y="24639"  class="fil0 fnt10">退化度</text>
   <text x="88616" y="25998"  class="fil0 fnt11">Degraded degree of </text>
   <text x="89660" y="27366"  class="fil0 fnt11">desertified land</text>
   <rect class="fil2 str0" x="78304" y="32269" width="3386" height="1034"/>
   <rect class="fil3 str0" x="78304" y="29081" width="3386" height="1034"/>
   <rect class="fil1 str0" x="78304" y="35625" width="3386" height="1034"/>
   <line class="fil4 str2" x1="91158" y1="29598" x2="95933" y2= "29598" />
   <line class="fil4 str4" x1="91006" y1="36142" x2="96086" y2= "36142" />
   <line class="fil4 str3" x1="91006" y1="32787" x2="96086" y2= "32787" />
  </g>
 </g>
</svg>
