<?xml version="1.0" encoding="UTF-8"?>
<!DOCTYPE svg PUBLIC "-//W3C//DTD SVG 1.1//EN" "http://www.w3.org/Graphics/SVG/1.1/DTD/svg11.dtd">
<!-- Creator: CorelDRAW X6 -->
<svg   onload="Init(evt)" x="0px" y="0px" xmlns="http://www.w3.org/2000/svg" xml:space="preserve" width="1000px" height="750px" version="1.1" style="shape-rendering:geometricPrecision; text-rendering:geometricPrecision; image-rendering:optimizeQuality; fill-rule:evenodd; clip-rule:evenodd"
viewBox="0 0 100000 75000"
 xmlns:xlink="http://www.w3.org/1999/xlink">
  <script  xlink:href="../js/Map.js"></script>
 <defs>
  <style type="text/css">
   <![CDATA[
    .str0 {stroke:#332C2B;stroke-width:38.1}
    .str4 {stroke:#00A2E9;stroke-width:40;stroke-linejoin:round}
    .str1 {stroke:#332C2B;stroke-width:50}
    .str2 {stroke:#332C2B;stroke-width:50;stroke-linejoin:round}
    .str3 {stroke:#823520;stroke-width:50;stroke-linejoin:round}
    .fil1 {fill:none}
    .fil2 {fill:#332C2B}
    .fil0 {fill:#FEFEFE}
    .fil4 {fill:#00A2E9}
    .fil3 {fill:#823520}
   ]]>
  </style>
   <clipPath id="id0">
    <rect x="7616" y="7927" width="85683" height="59140"/>
   </clipPath>
 </defs>
  <g id="map">
<symbol id="符号12" viewBox="49698 37198 605 605">
 <circle class="fil0 str0" cx="50000" cy="37500" r="283"/>
 <circle class="fil1 str0" cx="50000" cy="37500" r="101"/>
</symbol>
<symbol id="符号11" viewBox="49431 36931 1138 1138">
 <circle class="fil0 str0" cx="50000" cy="37500" r="550"/>
 <circle class="fil2 str0" cx="50000" cy="37500" r="325"/>
</symbol>
<symbol id="符号10" viewBox="49431 36931 1138 1138">
 <circle class="fil0 str0" cx="50000" cy="37500" r="550"/>
 <circle class="fil2 str0" cx="50000" cy="37500" r="325"/>
</symbol>
<symbol id="符号7" viewBox="49431 36931 1138 1138">
 <circle class="fil0 str0" cx="50000" cy="37500" r="550"/>
 <circle class="fil2 str0" cx="50000" cy="37500" r="325"/>
</symbol>
<symbol id="符号3" viewBox="49682 37182 635 635">
 <rect class="fil0" x="49700" y="37200" width="600" height="600"/>
 <line class="fil1 str1" x1="49700" y1="37200" x2="50300" y2= "37800" />
 <line class="fil1 str1" x1="49700" y1="37800" x2="50300" y2= "37200" />
</symbol>
<symbol id="符号14" viewBox="49675 37175 650 650">
 <path class="fil0 str2" d="M50300 37500c0,-166 -134,-300 -300,-300 -166,0 -300,134 -300,300 0,166 134,300 300,300 166,0 300,-134 300,-300z"/>
</symbol>
<symbol id="符号8" viewBox="49675 37175 650 650">
 <path class="fil0 str2" d="M50300 37500c0,-166 -134,-300 -300,-300 -166,0 -300,134 -300,300 0,166 134,300 300,300 166,0 300,-134 300,-300z"/>
</symbol>
<symbol id="符号5" viewBox="49675 37175 650 650">
 <path class="fil0 str2" d="M50300 37500c0,-166 -134,-300 -300,-300 -166,0 -300,134 -300,300 0,166 134,300 300,300 166,0 300,-134 300,-300z"/>
</symbol>
<symbol id="符号2" viewBox="49900 37400 200 200">
 <path class="fil3 str3" d="M50075 37500c0,-41 -34,-75 -75,-75 -42,0 -75,34 -75,75 0,41 34,75 75,75 41,0 75,-34 75,-75z"/>
</symbol>
<symbol id="符号9" viewBox="49681 37181 638 638">
 <circle class="fil0 str0" cx="50000" cy="37500" r="300"/>
 <circle class="fil1 str0" cx="50000" cy="37500" r="112"/>
</symbol>
<symbol id="符号6" viewBox="49681 37181 638 638">
 <circle class="fil0 str0" cx="50000" cy="37500" r="300"/>
 <circle class="fil1 str0" cx="50000" cy="37500" r="113"/>
</symbol>
<symbol id="符号4" viewBox="49580 37320 820 360">
 <polygon class="fil4" points="49885,37450 49888,37450 49895,37450 49906,37451 49920,37451 49937,37451 49957,37450 49978,37449 50001,37448 50025,37446 50049,37443 50073,37439 50097,37435 50119,37429 50140,37422 50158,37414 50174,37405 50188,37395 50202,37386 50216,37377 50229,37369 50243,37363 50257,37357 50271,37352 50285,37349 50298,37347 50312,37346 50327,37346 50341,37349 50355,37352 50369,37358 50400,37381 50400,37382 50395,37382 50388,37381 50377,37380 50365,37378 50352,37377 50337,37377 50320,37378 50303,37380 50286,37383 50269,37389 50251,37396 50234,37406 50217,37419 50202,37435 50178,37451 50153,37466 50129,37479 50104,37491 50080,37502 50057,37511 50034,37518 50013,37525 49993,37530 49975,37535 49945,37543 49933,37545 49921,37548 49912,37549 "/>
 <path class="fil4 str4" d="M49922 37500c0,-88 -72,-160 -161,-160 -89,0 -161,72 -161,160 0,88 72,160 161,160 89,0 161,-72 161,-160z"/>
</symbol>
<symbol id="符号13" viewBox="49681 37181 638 638">
 <circle class="fil0 str0" cx="50000" cy="37500" r="300"/>
 <circle class="fil1 str0" cx="50000" cy="37500" r="113"/>
</symbol>
<symbol id="符号1" viewBox="49800 37200 400 600">
 <polygon class="fil3" points="49805,37800 49997,37200 50200,37800 49800,37800 "/>
</symbol>
 <g id="图层_x0020_1">
  <metadata id="CorelCorpID_0Corel-Layer"/>
  <g style="clip-path:url(#id0)">
   <image id="_134-135日喀则江当沙漠化土地综合治理示范区.png" x="7616" y="7927" width="85683" height="59140" xlink:href="134-135日喀则江当沙漠化土地综合治理示范区_ImgID1.png"/>
  </g>
  </g>
 </g>
</svg>
