<?xml version="1.0" encoding="UTF-8"?>
<!DOCTYPE svg PUBLIC "-//W3C//DTD SVG 1.1//EN" "http://www.w3.org/Graphics/SVG/1.1/DTD/svg11.dtd">
<!-- Creator: CorelDRAW X6 -->
<svg   onload="Init(evt)" x="0px" y="0px" xmlns="http://www.w3.org/2000/svg" xml:space="preserve" width="1000px" height="1389px" version="1.1" style="shape-rendering:geometricPrecision; text-rendering:geometricPrecision; image-rendering:optimizeQuality; fill-rule:evenodd; clip-rule:evenodd"
viewBox="0 0 100000 138889"
 xmlns:xlink="http://www.w3.org/1999/xlink">
  <script  xlink:href="../js/Map.js"></script>
 <defs>
  <style type="text/css">
   <![CDATA[
    .str0 {stroke:#332C2B;stroke-width:42.3333}
    .str4 {stroke:#00A2E9;stroke-width:44.4444;stroke-linejoin:round}
    .str2 {stroke:#332C2B;stroke-width:55.5556}
    .str3 {stroke:#332C2B;stroke-width:55.5556;stroke-linejoin:round}
    .str1 {stroke:#823520;stroke-width:55.5556;stroke-linejoin:round}
    .fil3 {fill:none}
    .fil1 {fill:#332C2B}
    .fil0 {fill:#FEFEFE}
    .fil4 {fill:#00A2E9}
    .fil2 {fill:#823520}
   ]]>
  </style>
   <clipPath id="id0">
    <rect x="24869" y="10293" width="55504" height="113359"/>
   </clipPath>
 </defs>
  <g id="map">
<symbol id="符号10" viewBox="49368 68812 1265 1265">
 <circle class="fil0 str0" cx="50000" cy="69444" r="611"/>
 <circle class="fil1 str0" cx="50000" cy="69444" r="361"/>
</symbol>
<symbol id="符号2" viewBox="49889 69333 222 222">
 <path class="fil2 str1" d="M50083 69444c0,-46 -37,-83 -83,-83 -46,0 -83,37 -83,83 0,46 37,83 83,83 46,0 83,-37 83,-83z"/>
</symbol>
<symbol id="符号3" viewBox="49647 69091 706 706">
 <rect class="fil0" x="49667" y="69111" width="667" height="667"/>
 <line class="fil3 str2" x1="49667" y1="69111" x2="50333" y2= "69778" />
 <line class="fil3 str2" x1="49667" y1="69778" x2="50333" y2= "69111" />
</symbol>
<symbol id="符号8" viewBox="49639 69083 722 722">
 <path class="fil0 str3" d="M50333 69445c0,-184 -149,-333 -333,-333 -184,0 -333,149 -333,333 0,184 149,333 333,333 184,0 333,-149 333,-333z"/>
</symbol>
<symbol id="符号23" viewBox="49646 69090 709 709">
 <circle class="fil0 str0" cx="50000" cy="69444" r="333"/>
 <circle class="fil3 str0" cx="50000" cy="69444" r="125"/>
</symbol>
<symbol id="符号6" viewBox="49646 69090 709 709">
 <circle class="fil0 str0" cx="50000" cy="69444" r="333"/>
 <circle class="fil3 str0" cx="50000" cy="69444" r="125"/>
</symbol>
<symbol id="符号28" viewBox="49584 69029 831 831">
 <circle class="fil0 str0" cx="50000" cy="69444" r="394"/>
 <circle class="fil3 str0" cx="50000" cy="69444" r="148"/>
</symbol>
<symbol id="符号21" viewBox="49739 69050 522 789">
 <polygon class="fil2" points="49745,69839 49997,69050 50261,69839 49739,69839 "/>
</symbol>
<symbol id="符号20" viewBox="49551 68611 897 1667">
 <polygon class="fil2" points="49563,70278 49994,68611 50449,70278 49551,70278 "/>
</symbol>
<symbol id="符号7" viewBox="49368 68812 1265 1265">
 <circle class="fil0 str0" cx="50000" cy="69444" r="611"/>
 <circle class="fil1 str0" cx="50000" cy="69444" r="361"/>
</symbol>
<symbol id="符号17" viewBox="49533 69244 911 400">
 <polygon class="fil4" points="49873,69389 49875,69389 49883,69389 49895,69390 49911,69390 49930,69390 49952,69389 49976,69388 50001,69386 50028,69384 50055,69381 50082,69377 50108,69372 50132,69366 50155,69358 50176,69349 50193,69338 50209,69327 50224,69317 50240,69308 50255,69299 50270,69292 50286,69285 50301,69280 50316,69276 50332,69274 50347,69273 50363,69274 50378,69276 50394,69280 50410,69287 50444,69313 50444,69314 50439,69314 50431,69313 50419,69311 50406,69309 50391,69308 50374,69308 50356,69309 50337,69311 50318,69315 50298,69321 50279,69329 50260,69340 50241,69354 50224,69372 50198,69390 50170,69407 50143,69422 50116,69435 50089,69446 50063,69456 50038,69465 50014,69472 49992,69478 49972,69483 49938,69492 49926,69495 49912,69498 49902,69498 "/>
 <path class="fil4 str4" d="M49914 69444c0,-98 -80,-178 -179,-178 -99,0 -179,80 -179,178 0,98 80,178 179,178 99,0 179,-80 179,-178z"/>
</symbol>
<symbol id="符号16" viewBox="49368 68812 1265 1265">
 <circle class="fil0 str0" cx="50000" cy="69444" r="611"/>
 <circle class="fil1 str0" cx="50000" cy="69444" r="361"/>
</symbol>
<symbol id="符号11" viewBox="49368 68812 1265 1265">
 <circle class="fil0 str0" cx="50000" cy="69444" r="611"/>
 <circle class="fil1 str0" cx="50000" cy="69444" r="361"/>
</symbol>
<symbol id="符号27" viewBox="49639 69083 722 722">
 <path class="fil0 str3" d="M50333 69445c0,-184 -149,-333 -333,-333 -184,0 -333,149 -333,333 0,184 149,333 333,333 184,0 333,-149 333,-333z"/>
</symbol>
<symbol id="符号12" viewBox="49639 69083 722 722">
 <path class="fil0 str3" d="M50333 69445c0,-184 -149,-333 -333,-333 -184,0 -333,149 -333,333 0,184 149,333 333,333 184,0 333,-149 333,-333z"/>
</symbol>
<symbol id="符号9" viewBox="49646 69090 709 709">
 <circle class="fil0 str0" cx="50000" cy="69444" r="333"/>
 <circle class="fil3 str0" cx="50000" cy="69444" r="125"/>
</symbol>
<symbol id="符号1" viewBox="49778 69111 444 667">
 <polygon class="fil2" points="49783,69778 49997,69111 50222,69778 49778,69778 "/>
</symbol>
<symbol id="符号13" viewBox="49646 69090 709 709">
 <circle class="fil0 str0" cx="50000" cy="69444" r="333"/>
 <circle class="fil3 str0" cx="50000" cy="69444" r="125"/>
</symbol>
<symbol id="符号18" viewBox="49480 68925 1039 1039">
 <rect class="fil0" x="49500" y="68944" width="1000" height="1000"/>
 <line class="fil3 str2" x1="49500" y1="68944" x2="50500" y2= "69944" />
 <line class="fil3 str2" x1="49500" y1="69944" x2="50500" y2= "68944" />
</symbol>
<symbol id="符号14" viewBox="49639 69083 722 722">
 <path class="fil0 str3" d="M50333 69445c0,-184 -149,-333 -333,-333 -184,0 -333,149 -333,333 0,184 149,333 333,333 184,0 333,-149 333,-333z"/>
</symbol>
<symbol id="符号19" viewBox="49764 69208 472 472">
 <path class="fil2 str1" d="M50208 69445c0,-115 -93,-208 -208,-208 -115,0 -208,93 -208,208 0,115 93,208 208,208 115,0 208,-93 208,-208z"/>
</symbol>
<symbol id="符号5" viewBox="49639 69083 722 722">
 <path class="fil0 str3" d="M50333 69445c0,-184 -149,-333 -333,-333 -184,0 -333,149 -333,333 0,184 149,333 333,333 184,0 333,-149 333,-333z"/>
</symbol>
<symbol id="符号24" viewBox="49646 69090 709 709">
 <circle class="fil0 str0" cx="50000" cy="69444" r="333"/>
 <circle class="fil3 str0" cx="50000" cy="69444" r="125"/>
</symbol>
<symbol id="符号15" viewBox="49090 68534 1820 1820">
 <circle class="fil0 str0" cx="50000" cy="69444" r="889"/>
 <circle class="fil3 str0" cx="50000" cy="69444" r="333"/>
</symbol>
<symbol id="符号22" viewBox="49639 69083 722 722">
 <path class="fil0 str3" d="M50333 69445c0,-184 -149,-333 -333,-333 -184,0 -333,149 -333,333 0,184 149,333 333,333 184,0 333,-149 333,-333z"/>
</symbol>
<symbol id="符号4" viewBox="49533 69244 911 400">
 <polygon class="fil4" points="49873,69389 49875,69389 49883,69389 49895,69390 49911,69390 49930,69390 49952,69389 49976,69388 50001,69386 50028,69384 50055,69381 50082,69377 50108,69372 50132,69366 50155,69358 50176,69349 50193,69338 50209,69327 50224,69317 50240,69308 50255,69299 50270,69292 50286,69285 50301,69280 50316,69276 50332,69274 50347,69273 50363,69274 50378,69276 50394,69280 50410,69287 50444,69313 50444,69314 50439,69314 50431,69313 50419,69311 50406,69309 50391,69308 50374,69308 50356,69309 50337,69311 50318,69315 50298,69321 50279,69329 50260,69340 50241,69354 50224,69372 50198,69390 50170,69407 50143,69422 50116,69435 50089,69446 50063,69456 50038,69465 50014,69472 49992,69478 49972,69483 49938,69492 49926,69495 49912,69498 49902,69498 "/>
 <path class="fil4 str4" d="M49914 69444c0,-98 -80,-178 -179,-178 -99,0 -179,80 -179,178 0,98 80,178 179,178 99,0 179,-80 179,-178z"/>
</symbol>
 <g id="图层_x0020_1">
  <metadata id="CorelCorpID_0Corel-Layer"/>
  <g style="clip-path:url(#id0)">
   <image id="_138-139那曲才曲塘草地畜牧业科技示范区规划.png" x="24869" y="10293" width="55504" height="113359" xlink:href="138-139那曲才曲塘草地畜牧业科技示范区规划_ImgID1.png"/>
  </g>
 </g>
 </g>
</svg>
