<?xml version="1.0" encoding="UTF-8"?>
<!DOCTYPE svg PUBLIC "-//W3C//DTD SVG 1.1//EN" "http://www.w3.org/Graphics/SVG/1.1/DTD/svg11.dtd">
<!-- Creator: CorelDRAW X6 -->
<svg onload="Init(evt)" xmlns:attrib="http://www.carto.net/attrib"
xmlns="http://www.w3.org/2000/svg" xml:space="preserve" x="0px" y="0px"  width="1000px" height="709px" version="1.1" style="shape-rendering:geometricPrecision; text-rendering:geometricPrecision; image-rendering:optimizeQuality; fill-rule:evenodd; clip-rule:evenodd"
viewBox="50000 45000 100000 70909"
 xmlns:xlink="http://www.w3.org/1999/xlink">
 <script  xlink:href="../js/Map.js"></script>
<script  type="text/javascript" xlink:href="../js/mapApp.js"></script>
<script  type="text/javascript" xlink:href="../js/helper_functions.js"></script>
<script  type="text/javascript" xlink:href="../js/timer.js"></script>
<script  type="text/javascript">
	var myMapApp = new mapApp(false,undefined);//与tooltip相关
	var obc;//
	
	window.onSVGLoad=initLater();
	function initLater() {
     	//this timeout is because of the bbox bug in Firefox which prevents to have access to bbox in onload scripts
     	window.setTimeout("init()",100);
    }
	function init() {
		
	    /* 添加tooltip*/
        //tooltip styles
        var tooltipTextStyles = {"font-family":"Arial,Helvetica","fill":"dimgray","font-size":800};
        var tooltipRectStyles = {"fill":"white","stroke":"dimgray"};
        myMapApp.initTooltips("toolTip",tooltipTextStyles,tooltipRectStyles,10,20,3);
        //add tooltip to element
		myMapApp.addTooltip("zt",undefined,true,false,"target","name");
	
	}
	
	
	function Newlegend1(){
	 document.getElementById('legend1').setAttribute("style", "visibility: visible");
	 document.getElementById('legend11').setAttribute("style", "visibility: visible");
	 document.getElementById('legend2').setAttribute("style", "visibility: hidden");
	 document.getElementById('legend22').setAttribute("style", "visibility: hidden");
	}
	function Newlegend2(){
	document.getElementById('legend2').setAttribute("style", "visibility: visible");
	 document.getElementById('legend22').setAttribute("style", "visibility: visible");
	 document.getElementById('legend1').setAttribute("style", "visibility: hidden");
	 document.getElementById('legend11').setAttribute("style", "visibility: hidden");
	}
	function Changecolor(evt)
	{
	document.getElementById('Legend2').setAttribute("class", "str0");
	document.getElementById('Legend1').setAttribute("class", "str0");
	var obj = evt.target;           
    obj.setAttribute("class", "str1"); 
	}
	function Recovercolor(evt){
	var obj = evt.target;           
    obj.setAttribute("class", "str0");
	}
</script>
 <defs>
  <style type="text/css">
   <![CDATA[
    .str0 {stroke:#332C2B;stroke-width:13.8545}
    .str3 {stroke:#332C2B;stroke-width:18.1818}
    .str1 {stroke:#332C2B;stroke-width:18.1818;stroke-linejoin:round}
    .str2 {stroke:#6D583D;stroke-width:18.1818;stroke-linejoin:round}
    .str4 {stroke:#332C2B;stroke-width:21.8182}
    .str5 {stroke:#332C2B;stroke-width:27.2727}
    .str7 {stroke:#FEFEFE;stroke-width:72.7273;stroke-linecap:round;stroke-linejoin:round}
    .str6 {stroke:#332C2B;stroke-width:21.8182;stroke-dasharray:218.181818 109.090909}
    .fil2 {fill:none}
    .fil25 {fill:none;fill-rule:nonzero}
    .fil1 {fill:#332C2B}
    .fil10 {fill:#5BA997}
    .fil21 {fill:#897870}
    .fil14 {fill:#A0D9F6}
    .fil12 {fill:#A6D4AE}
    .fil9 {fill:#B39B77}
    .fil7 {fill:#D59961}
    .fil11 {fill:#D9E483}
    .fil23 {fill:#E40082}
    .fil20 {fill:#EEEEEF}
    .fil8 {fill:#F08519}
    .fil5 {fill:#F4B3B3}
    .fil24 {fill:#FDD100}
    .fil0 {fill:#FEFEFE}
    .fil6 {fill:#FFF9B1}
    .fil3 {fill:#6D583D}
    .fil15 {fill:#709DD3}
    .fil4 {fill:#94C6EB}
    .fil22 {fill:#95B5C5}
    .fil17 {fill:#B9CCBC}
    .fil13 {fill:#BBC99A}
    .fil16 {fill:#CA5599}
    .fil18 {fill:#D5E6F0}
    .fil19 {fill:#EDE59A}
    .fnt9 {font-weight:normal;font-size:309.091px;font-family:'Times New Roman'}
    .fnt2 {font-weight:normal;font-size:363.636px;font-family:'方正书宋简体'}
    .fnt0 {font-weight:normal;font-size:384.836px;font-family:'Times New Roman'}
    .fnt3 {font-weight:normal;font-size:384.836px;font-family:'方正书宋简体'}
    .fnt8 {font-weight:normal;font-size:384.855px;font-family:'Times New Roman'}
    .fnt4 {font-weight:normal;font-size:448.982px;font-family:'Times New Roman'}
    .fnt7 {font-weight:normal;font-size:448.982px;font-family:'宋体'}
    .fnt1 {font-weight:normal;font-size:448.982px;font-family:'方正书宋简体'}
    .fnt5 {font-weight:normal;font-size:513.127px;font-family:'Arial'}
    .fnt6 {font-weight:normal;font-size:641.418px;font-family:'方正准圆简体'}
   ]]>
  </style>
 </defs>
  <g id="map">
<symbol id="符号39" viewBox="49793 35248 414 414">
 <circle class="fil0 str0" cx="50000" cy="35455" r="200"/>
 <circle class="fil1 str0" cx="50000" cy="35455" r="118"/>
</symbol>
<symbol id="符号31" viewBox="49882 35336 236 236">
 <path class="fil0 str1" d="M50109 35455c0,-60 -49,-109 -109,-109 -60,0 -109,49 -109,109 0,60 49,109 109,109 60,0 109,-49 109,-109z"/>
</symbol>
<symbol id="符号32" viewBox="49757 35211 487 487">
 <circle class="fil0 str0" cx="50000" cy="35455" r="236"/>
 <circle class="fil2 str0" cx="50000" cy="35455" r="89"/>
</symbol>
<symbol id="符号36" viewBox="49915 35325 171 258">
 <polygon class="fil3" points="49917,35584 49999,35325 50085,35584 49915,35584 "/>
</symbol>
<symbol id="符号35" viewBox="49958 35413 84 84">
 <path class="fil3 str2" d="M50033 35455c0,-18 -15,-33 -33,-33 -18,0 -33,15 -33,33 0,18 15,33 33,33 18,0 33,-15 33,-33z"/>
</symbol>
<symbol id="符号2" viewBox="49890 35345 220 220">
 <circle class="fil0 str0" cx="50000" cy="35455" r="103"/>
 <circle class="fil2 str0" cx="50000" cy="35455" r="37"/>
</symbol>
<symbol id="符号40" viewBox="49884 35339 231 231">
 <line class="fil2 str3" x1="49891" y1="35345" x2="50109" y2= "35564" />
 <line class="fil2 str3" x1="49891" y1="35564" x2="50109" y2= "35345" />
</symbol>
<symbol id="符号1" viewBox="49882 35336 236 236">
 <path class="fil0 str1" d="M50109 35455c0,-60 -49,-109 -109,-109 -60,0 -109,49 -109,109 0,60 49,109 109,109 60,0 109,-49 109,-109z"/>
</symbol>
<symbol id="符号42" viewBox="49927 35345 145 218">
 <polygon class="fil3" points="49929,35564 49999,35345 50073,35564 49927,35564 "/>
</symbol>
<symbol id="符号37" viewBox="49882 35336 236 236">
 <path class="fil0 str1" d="M50109 35455c0,-60 -49,-109 -109,-109 -60,0 -109,49 -109,109 0,60 49,109 109,109 60,0 109,-49 109,-109z"/>
</symbol>
<symbol id="符号33" viewBox="49793 35248 414 414">
 <circle class="fil0 str0" cx="50000" cy="35455" r="200"/>
 <circle class="fil1 str0" cx="50000" cy="35455" r="118"/>
</symbol>
<symbol id="符号41" viewBox="49964 35418 73 73">
 <path class="fil3 str2" d="M50027 35455c0,-15 -12,-27 -27,-27 -15,0 -27,12 -27,27 0,15 12,27 27,27 15,0 27,-12 27,-27z"/>
</symbol>
<symbol id="符号38" viewBox="49884 35339 232 232">
 <circle class="fil0 str0" cx="50000" cy="35455" r="109"/>
 <circle class="fil2 str0" cx="50000" cy="35455" r="41"/>
</symbol>
<symbol id="符号34" viewBox="49830 35284 340 340">
 <line class="fil2 str3" x1="49836" y1="35291" x2="50164" y2= "35618" />
 <line class="fil2 str3" x1="49836" y1="35618" x2="50164" y2= "35291" />
</symbol>
 <g id="zt"   attrib:tooltipAttrib="name" attrib:tooltipParent="true" attrib:tooltip="Tooltip">
  <metadata id="CorelCorpID_0Corel-Layer"/>
  <polygon class="fil0 str4" points="62473,52241 63368,54172 63004,55251 61220,55263 "/>
  <polygon class="fil2 str5" points="55611,50891 53285,56638 58803,56638 "/>
  <path class="fil0 str4" d="M54822 52842c0,0 68,-30 100,-38 33,-8 122,-86 122,-86l61 -45 41 29 37 49 12 53c37,37 49,24 49,24l49 -33 94 -147 45 -41c0,0 37,-24 53,16 16,41 16,94 37,102 20,8 33,29 69,-4 37,-33 130,-118 130,-118 0,0 81,-65 106,-53 24,12 126,-49 126,-49 0,0 33,-65 61,4 29,69 33,90 57,110 24,20 29,41 65,4 37,-37 81,-106 102,-122 20,-16 45,-24 94,-16 49,8 122,-8 122,-8l28 -16 -870 -1567 -790 1950z"/>
  <path id="_36" attrib:name="风毛菊、红景天流石坡稀疏植被"  class="fil4 str4" d="M54822 52842l123 -49 160 -120c0,0 22,4 41,29 18,24 20,34 43,75 23,41 31,67 55,51 24,-16 33,-8 49,-33 16,-24 94,-147 94,-147l45 -41c0,0 44,-13 53,16 9,29 37,102 37,102l36 14c0,0 37,-21 68,-49 31,-28 146,-122 146,-122l56 -18 42 -7 84 -42 33 -28 29 32 38 88 51 47c0,0 18,3 51,-39 34,-42 64,-91 84,-103 20,-12 53,-18 94,-16 40,2 1,10 61,1 61,-9 89,-25 89,-25l482 868 -2344 14 202 -499z"/>
  <polygon id="_34" attrib:name="垫状驼绒藜荒漠"  class="fil5 str4" points="54620,53341 56964,53326 57322,53971 54370,53957 "/>
  <polygon id="_27" attrib:name="沙生针茅草原" class="fil6 str4" points="53883,55161 54370,53957 57322,53971 57969,55136 "/>
  <polygon id="_33" attrib:name="驼绒藜荒漠" class="fil7 str4" points="53285,56638 53883,55161 57969,55136 58803,56638 "/>
  <text x="55564" y="53147"  class="fil1 fnt0">36</text>
  <text x="55564" y="53791"  class="fil1 fnt0">34</text>
  <text x="55566" y="54644"  class="fil1 fnt0">27</text>
  <text x="55573" y="56022"  class="fil1 fnt0">33</text>
  <text x="55378" y="57141"  class="fil1 fnt1">班公错</text>
  <polygon class="fil2 str5" points="58826,51504 57551,54383 57641,54546 59254,54533 59855,53283 "/>
  <path class="fil0 str4" d="M58312 52664c0,0 13,-3 47,21 34,24 38,14 64,37 27,23 31,37 73,33 42,-4 78,-15 99,-23 21,-7 36,-21 67,-7 31,13 44,21 79,30 35,9 71,35 106,12 36,-23 85,-60 115,-62 30,-2 84,-13 116,-6 32,7 50,17 50,17 0,0 26,18 64,-5 39,-24 268,-112 268,-112l-634 -1096 -514 1160z"/>
  <path id="_36_0" attrib:name="风毛菊、红景天流石坡稀疏植被"  class="fil4 str4" d="M57769 53890l1796 -5 289 -602 -395 -683c0,0 -289,121 -307,124 -18,3 -38,-13 -68,-23 -30,-10 -65,-2 -94,1 -29,3 -61,14 -61,14 0,0 -52,31 -71,44 -19,13 -32,15 -52,16 -20,0 -48,-15 -66,-21 -17,-6 -33,-10 -53,-19 -21,-8 -34,-14 -47,-17 -14,-3 -12,1 -45,13 -33,12 -56,16 -74,19 -18,3 -45,4 -66,-2 -21,-6 -32,-27 -44,-36 -12,-9 -29,-14 -46,-23 -17,-10 -54,-25 -54,-25l-543 1226z"/>
  <text x="58596" y="53147"  class="fil1 fnt0">36</text>
  <polygon id="_29" attrib:name="青藏苔草草原" class="fil8 str4" points="57769,53890 59566,53885 59453,54119 57669,54116 "/>
  <text x="58597" y="54113"  class="fil1 fnt0">29</text>
  <polygon id="_30" attrib:name="青藏苔草、垫状驼绒藜草原" class="fil9 str4" points="57669,54116 57551,54383 57645,54553 59246,54558 59453,54119 "/>
  <text x="58596" y="54480"  class="fil1 fnt0">30</text>
  <polygon class="fil2 str5" points="60420,52116 59069,54923 61875,54921 "/>
  <path class="fil0 str4" d="M59754 53493c0,0 43,-25 88,-17 45,8 39,2 84,16 45,14 47,2 82,16 35,14 49,12 72,10 23,-2 14,-21 61,-23 47,-2 47,-10 94,0 47,10 59,-6 98,12 39,18 25,2 68,-2 43,-4 31,-51 94,-21 63,31 55,51 100,43 45,-8 27,-43 102,-39 76,4 151,-8 184,-18 33,-10 123,-10 156,-37 33,-27 52,-29 52,-29l-666 -1283 -669 1370z"/>
  <path id="_36_1" attrib:name="风毛菊、红景天流石坡稀疏植被"  class="fil4 str4" d="M59754 53493c0,0 43,-25 88,-17 45,8 39,2 84,16 45,14 47,2 82,16 35,14 49,12 72,10 23,-2 14,-21 61,-23 47,-2 47,-10 94,0 47,10 59,-6 98,12 39,18 25,2 68,-2 43,-4 31,-51 94,-21 63,31 55,51 100,43 45,-8 27,-43 102,-39 76,4 151,-8 184,-18 33,-10 123,-10 156,-37 33,-27 52,-29 52,-29l34 66 -452 411 -1101 -1 184 -389z"/>
  <polygon id="_19" attrib:name="嵩草草甸" class="fil10 str4" points="60671,53883 61336,53883 61123,53472 "/>
  <text x="60150" y="53826"  class="fil1 fnt0">36</text>
  <text x="60856" y="53859"  class="fil1 fnt0">19</text>
  <polygon id="_29_2" attrib:name="青藏苔草草原" class="fil8 str4" points="59566,53885 59415,54203 61502,54202 61336,53883 "/>
  <text x="60151" y="54171"  class="fil1 fnt0">29</text>
  <polygon id="_19_3" attrib:name="嵩草草甸"  class="fil10 str4" points="61884,53663 63128,53654 63368,54172 63004,55251 61220,55263 "/>
  <polygon id="_29_4" attrib:name="青藏苔草草原" class="fil8 str4" points="61502,54202 60622,54922 61875,54921 "/>
  <text x="61196" y="54815"  class="fil1 fnt0">29</text>
  <polygon id="_23" attrib:name="紫花针茅草原"  class="fil11 str4" points="59415,54203 61502,54202 60622,54922 59069,54923 "/>
  <text x="60159" y="54615"  class="fil1 fnt0">23</text>
  <text x="58160" y="51094"  class="fil1 fnt2">木孜塔格</text>
  <text x="59398" y="55395"  class="fil1 fnt1">巴毛穷宗</text>
  <path id="_36_5" attrib:name="风毛菊、红景天流石坡稀疏植被"  class="fil4 str4" d="M62193 52916l43 20c0,0 25,8 37,6 12,-2 14,-2 14,-2 0,0 -21,12 41,-17 62,-29 74,-48 101,-27 27,21 54,31 76,37 23,6 37,12 66,-6 29,-19 41,-43 85,-41 43,2 71,-13 97,2 26,15 27,17 27,17l346 748 -1244 9 310 -747z"/>
  <text x="62312" y="53489"  class="fil1 fnt0">36</text>
  <text x="62310" y="54448"  class="fil1 fnt0">19</text>
  <text x="61869" y="55694"  class="fil1 fnt1">那曲</text>
  <polygon class="fil0 str4" points="64223,51612 62512,56702 64723,56697 65296,54335 "/>
  <path id="_36_6" attrib:name="风毛菊、红景天流石坡稀疏植被"  class="fil4 str4" d="M63850 52724c0,0 13,-10 35,26 23,35 37,64 49,105 12,41 21,81 37,101 16,21 47,54 70,0 23,-54 37,-95 76,-126 39,-31 93,-103 115,-107 23,-4 37,-31 47,19 10,50 -2,64 19,83 21,19 39,43 66,14 27,-29 41,-91 64,-91 23,0 27,-19 47,39 21,58 12,41 45,101 33,60 49,95 80,64 31,-31 19,-45 41,-99 23,-54 42,-68 42,-68l334 847 -1478 10 309 -919z"/>
  <text x="64159" y="53489"  class="fil1 fnt0">36</text>
  <polygon id="_19_7" attrib:name="嵩草草甸" class="fil10 str4" points="63541,53642 63203,54661 65255,54665 65321,54401 65019,53632 "/>
  <text x="64157" y="54324"  class="fil1 fnt0">19</text>
  <polygon id="_10" attrib:name="杜鹃灌丛" class="fil12 str4" points="63203,54661 65255,54665 64886,56152 63956,56460 63000,55251 "/>
  <text x="64157" y="55709"  class="fil1 fnt0">10</text>
  <polygon id="_4" attrib:name="落叶阔叶林" class="fil13 str4" points="63974,56454 64886,56152 64813,56448 "/>
  <polygon id="_9" attrib:name="圆柏林" class="fil14 str4" points="63000,55251 64172,56698 62512,56702 "/>
  <text x="63007" y="56295"  class="fil1 fnt0"> 9</text>
  <polygon id="_7" attrib:name="云杉林" class="fil15 str4" points="63974,56454 64813,56448 64751,56698 64172,56698 "/>
  <text x="64241" y="56696"  class="fil1 fnt0"> 7</text>
  <text x="64392" y="56470"  class="fil1 fnt0"> 4</text>
  <polygon class="fil0 str4" points="66790,48483 62910,64116 70756,64120 "/>
  <path id="_36_8" attrib:name="风毛菊、红景天流石坡稀疏植被"  class="fil4 str4" d="M65168 55018c0,0 143,-154 160,-181 17,-27 141,-190 164,-235 23,-46 131,-183 168,-215 37,-31 79,-98 112,-44 33,54 58,50 94,131 35,81 50,79 71,152 21,73 4,96 33,117 29,21 37,46 64,13 27,-33 66,-160 93,-167 27,-6 33,-77 69,-4 35,73 108,208 131,254 23,46 316,587 359,635 44,48 87,258 141,63 54,-196 104,-475 137,-569 33,-94 143,-392 168,-440 25,-48 85,-146 114,-71 29,75 64,196 85,260 21,65 50,175 69,194 19,19 19,131 85,31 66,-100 121,-115 150,-81 29,33 67,62 79,92 12,29 71,73 100,4 29,-69 436,-713 436,-713l374 1473 -3632 7 175 -706z"/>
  <text x="65545" y="55336"  class="fil1 fnt0">36</text>
  <text x="67513" y="55336"  class="fil1 fnt0">36</text>
  <polygon id="_11" attrib:name="杜鹃灌丛与嵩草草甸相结合" class="fil16 str4" points="64993,55724 64886,56152 68735,56151 68625,55717 "/>
  <text x="65545" y="56068"  class="fil1 fnt0">11</text>
  <text x="67513" y="56068"  class="fil1 fnt0">11</text>
  <polygon id="_10_9" attrib:name="杜鹃灌丛" class="fil12 str4" points="64886,56152 64782,56573 68845,56585 68735,56151 "/>
  <text x="65545" y="56489"  class="fil1 fnt0">10</text>
  <text x="67513" y="56489"  class="fil1 fnt0">10</text>
  <polygon id="_4_10" attrib:name="落叶阔叶林" class="fil13 str4" points="64782,56573 64692,56934 66422,56578 "/>
  <text x="64841" y="56847"  class="fil1 fnt2"> 4</text>
  <polygon id="_37" attrib:name="落叶松" class="fil0 str4" points="66934,56579 68845,56585 69143,57760 "/>
  <path class="fil2 str4" d="M68412 56807c-1,6 -53,91 -53,91l39 -28 -53 128 44 -33 -50 119 79 -44 -3 119 11 -1 -2 -117 78 44 -53 -117 39 22 -61 -118 41 28 -55 -92z"/>
  <path id="_8" attrib:name="冷杉林" class="fil17 str4" d="M64692 56934l-411 1654c0,0 5097,65 5080,36 -17,-30 -219,-864 -219,-864l-2209 -1181 -512 -1 -1730 356z"/>
  <text x="65545" y="57875"  class="fil1 fnt0">8</text>
  <text x="67513" y="57875"  class="fil1 fnt0">8</text>
  <polygon id="_6" attrib:name="铁杉林" class="fil18 str4" points="64282,58588 69362,58624 69679,59874 63977,59814 "/>
  <text x="65545" y="59260"  class="fil1 fnt0">6</text>
  <text x="67513" y="59260"  class="fil1 fnt0">6</text>
  <line class="fil2 str4" x1="63487" y1="61791" x2="65984" y2= "60650" />
  <polygon id="_1" attrib:name="雨林"  class="fil19 str4" points="63380,62223 70284,62258 70756,64120 62910,64116 "/>
  <line class="fil2 str6" x1="63164" y1="63092" x2="70513" y2= "63163" />
  <text x="65545" y="62955"  class="fil1 fnt0">1</text>
  <text x="67513" y="62955"  class="fil1 fnt0">1</text>
  <text x="65545" y="63878"  class="fil1 fnt0">1</text>
  <text x="67513" y="63878"  class="fil1 fnt0">1</text>
  <line class="fil2 str4" x1="66721" y1="50038" x2="66870" y2= "50038" />
  <line class="fil2 str4" x1="66721" y1="52048" x2="66870" y2= "52048" />
  <line class="fil2 str4" x1="66721" y1="54108" x2="66870" y2= "54108" />
  <text x="63508" y="57175"  class="fil1 fnt1">嘉黎</text>
  <text x="65947" y="64610"  class="fil1 fnt1">南迦巴瓦</text>
  <polygon class="fil0 str4" points="70790,51392 68915,56862 69799,60347 73881,60330 "/>
  <path id="_36_11" attrib:name="风毛菊、红景天流石坡稀疏植被"   class="fil4 str4" d="M69784 54327c0,0 38,5 68,31 30,26 96,26 161,105 64,79 121,60 175,127 54,66 84,69 105,97 20,28 58,66 115,12 56,-54 98,-111 123,-95 24,16 18,-26 78,38 60,64 96,60 111,127 14,66 38,153 48,199 10,46 54,147 143,30 88,-117 225,-324 259,-336 34,-12 92,-89 151,-6 58,83 111,111 165,171 54,60 127,147 205,0 78,-147 206,-241 206,-241l426 1232 -3058 27 520 -1519z"/>
  <text x="70650" y="55602"  class="fil1 fnt0">36</text>
  <polygon id="_11_12" attrib:name="杜鹃灌丛与嵩草草甸相结合" class="fil16 str4" points="69263,55846 69130,56234 72463,56231 72321,55819 "/>
  <text x="70672" y="56150"  class="fil1 fnt0">11</text>
  <polygon id="_8_13" attrib:name="冷杉林" class="fil17 str4" points="69130,56234 68915,56862 69171,57872 73035,57883 72463,56231 "/>
  <text x="70791" y="57132"  class="fil1 fnt0">8</text>
  <polygon id="_7_14" attrib:name="云杉林" class="fil15 str4" points="69171,57872 73035,57883 73513,59266 71094,59307 69237,58131 "/>
  <text x="71715" y="58517"  class="fil1 fnt0">7</text>
  <polygon id="_5" attrib:name="松林" class="fil20 str4" points="69272,58287 70214,59307 71094,59307 69237,58131 "/>
  <text x="70102" y="59109"  class="fil1 fnt0">5</text>
  <polygon id="_3" attrib:name="硬叶常绿阔叶林" class="fil21 str4" points="69283,58312 70214,59307 69538,59320 "/>
  <text x="69534" y="59103"  class="fil1 fnt0">3</text>
  <polygon id="_2" attrib:name="常绿阔叶林" class="fil22 str4" points="69538,59320 69799,60347 73881,60330 73513,59266 "/>
  <text x="70746" y="59932"  class="fil1 fnt0">2</text>
  <text x="70595" y="60830"  class="fil1 fnt1">念青唐古拉</text>
  <text x="74166" y="59383"  class="fil1 fnt1">东达拉</text>
  <polygon class="fil0 str4" points="74275,52312 72823,57271 73383,58891 76636,58911 "/>
  <path id="_36_15" attrib:name="风毛菊、红景天流石坡稀疏植被" class="fil4 str4" d="M73862 53724c0,0 94,41 112,66 18,25 100,90 139,120 39,31 67,102 134,43 67,-59 77,-71 108,-43 31,29 79,80 124,31 45,-49 86,-139 116,-67 31,71 55,141 124,67 69,-74 96,-120 96,-120l204 571 -1357 12 199 -680z"/>
  <text x="74169" y="54296"  class="fil1 fnt0">36</text>
  <polygon id="_19_16" attrib:name="嵩草草甸" class="fil10 str4" points="73662,54405 75020,54392 75164,54797 73544,54809 "/>
  <text x="74159" y="54727"  class="fil1 fnt0">19</text>
  <polygon id="_11_17" attrib:name="杜鹃灌丛与嵩草草甸相结合" class="fil16 str4" points="73544,54809 75164,54797 75456,55612 73306,55621 "/>
  <text x="74159" y="55379"  class="fil1 fnt0">11</text>
  <polygon id="_17" attrib:name="圆柏灌丛与嵩草草甸相结合" class="fil23 str4" points="73306,55621 73168,56094 74213,55617 "/>
  <text x="73290" y="55896"  class="fil1 fnt0">17</text>
  <polygon id="_3_18" attrib:name="硬叶常绿阔叶林" class="fil21 str4" points="73168,56094 74213,55617 74310,55616 74302,57864 73028,57863 72826,57260 "/>
  <text x="73562" y="57132"  class="fil1 fnt0">3</text>
  <polygon id="_7_19" attrib:name="云杉林" class="fil15 str4" points="75456,55612 74310,55616 74302,57864 76263,57870 "/>
  <text x="74948" y="57132"  class="fil1 fnt0">7</text>
  <polygon id="_18" attrib:name=" " class="fil24 str4" points="76263,57870 73028,57863 73383,58891 76636,58911 "/>
  <text x="74159" y="58422"  class="fil1 fnt0">18</text>
  <polygon id="_2_20" attrib:name="常绿阔叶林" class="fil22 str4" points="63977,59814 63771,60646 63380,62223 70284,62258 69679,59874 "/>
  <polygon id="_5_21" attrib:name="松林" class="fil20 str6" points="63774,60631 65985,60650 63487,61791 "/>
  <line class="fil2 str4" x1="66790" y1="48483" x2="66795" y2= "64118" />
  <g>
   <path class="fil25 str7" d="M66354 62132l62 -30 6 0 0 215c0,14 1,23 2,27 1,3 4,6 7,8 4,2 11,3 23,3l0 7 -96 0 0 -7c12,0 20,-1 23,-3 4,-2 6,-4 7,-7 1,-3 2,-12 2,-28l0 -138c0,-19 -1,-30 -2,-36 -1,-4 -3,-7 -5,-9 -2,-2 -5,-3 -8,-3 -5,0 -11,2 -19,6l-3 -6z"/>
  </g>
  <g>
   <path id="1" class="fil25 str7" d="M66610 62236c0,-29 4,-54 13,-75 9,-21 20,-37 35,-47 11,-8 23,-12 35,-12 20,0 37,10 53,30 19,25 29,58 29,100 0,30 -4,55 -13,75 -9,21 -19,36 -33,45 -13,9 -26,14 -38,14 -24,0 -45,-14 -61,-43 -14,-24 -20,-53 -20,-87zm37 5c0,35 4,64 13,86 7,19 18,28 32,28 7,0 14,-3 21,-9 7,-6 13,-16 16,-31 6,-21 9,-52 9,-91 0,-29 -3,-53 -9,-73 -4,-14 -10,-25 -17,-31 -5,-4 -11,-6 -19,-6 -8,0 -16,4 -23,11 -9,10 -15,27 -18,49 -3,22 -5,44 -5,66z"/>
  </g>
  <g>
   <path id="2" class="fil25 str7" d="M66802 62236c0,-29 4,-54 13,-75 9,-21 20,-37 35,-47 11,-8 23,-12 35,-12 20,0 37,10 53,30 19,25 29,58 29,100 0,30 -4,55 -13,75 -9,21 -19,36 -33,45 -13,9 -26,14 -38,14 -24,0 -45,-14 -61,-43 -14,-24 -20,-53 -20,-87zm37 5c0,35 4,64 13,86 7,19 18,28 32,28 7,0 14,-3 21,-9 7,-6 13,-16 16,-31 6,-21 9,-52 9,-91 0,-29 -3,-53 -9,-73 -4,-14 -10,-25 -17,-31 -5,-4 -11,-6 -19,-6 -8,0 -16,4 -23,11 -9,10 -15,27 -18,49 -3,22 -5,44 -5,66z"/>
  </g>
  <g>
   <path id="3" class="fil25 str7" d="M66995 62236c0,-29 4,-54 13,-75 9,-21 20,-37 35,-47 11,-8 23,-12 35,-12 20,0 37,10 53,30 19,25 29,58 29,100 0,30 -4,55 -13,75 -9,21 -19,36 -33,45 -13,9 -26,14 -38,14 -24,0 -45,-14 -61,-43 -14,-24 -20,-53 -20,-87zm37 5c0,35 4,64 13,86 7,19 18,28 32,28 7,0 14,-3 21,-9 7,-6 13,-16 16,-31 6,-21 9,-52 9,-91 0,-29 -3,-53 -9,-73 -4,-14 -10,-25 -17,-31 -5,-4 -11,-6 -19,-6 -8,0 -16,4 -23,11 -9,10 -15,27 -18,49 -3,22 -5,44 -5,66z"/>
  </g>
  <text x="66501" y="62362" id="3" class="fil2 fnt3"> </text>
  <text x="66309" y="62362" id="3" class="fil1 fnt0">1</text>
  <text x="66596" y="62362" id="3" class="fil1 fnt0">000</text>
  <text x="66501" y="62362" id="3" class="fil1 fnt3"> </text>
  <g>
   <path class="fil25 str7" d="M66488 56179l0 27 -34 0 0 67 -31 0 0 -67 -107 0 0 -24 118 -169 21 0 0 166 34 0zm-65 0l0 -127 -89 127 89 0z"/>
  </g>
  <g>
   <path id="1" class="fil25 str7" d="M66610 56147c0,-29 4,-54 13,-75 9,-21 20,-37 35,-47 11,-8 23,-12 35,-12 20,0 37,10 53,30 19,25 29,58 29,100 0,30 -4,55 -13,75 -9,21 -19,36 -33,45 -13,9 -26,14 -38,14 -24,0 -45,-14 -61,-43 -14,-24 -20,-53 -20,-87zm37 5c0,35 4,64 13,86 7,19 18,28 32,28 7,0 14,-3 21,-9 7,-6 13,-16 16,-31 6,-21 9,-52 9,-91 0,-29 -3,-53 -9,-73 -4,-14 -10,-25 -17,-31 -5,-4 -11,-6 -19,-6 -8,0 -16,4 -23,11 -9,10 -15,27 -18,49 -3,22 -5,44 -5,66z"/>
  </g>
  <g>
   <path id="2" class="fil25 str7" d="M66802 56147c0,-29 4,-54 13,-75 9,-21 20,-37 35,-47 11,-8 23,-12 35,-12 20,0 37,10 53,30 19,25 29,58 29,100 0,30 -4,55 -13,75 -9,21 -19,36 -33,45 -13,9 -26,14 -38,14 -24,0 -45,-14 -61,-43 -14,-24 -20,-53 -20,-87zm37 5c0,35 4,64 13,86 7,19 18,28 32,28 7,0 14,-3 21,-9 7,-6 13,-16 16,-31 6,-21 9,-52 9,-91 0,-29 -3,-53 -9,-73 -4,-14 -10,-25 -17,-31 -5,-4 -11,-6 -19,-6 -8,0 -16,4 -23,11 -9,10 -15,27 -18,49 -3,22 -5,44 -5,66z"/>
  </g>
  <g>
   <path id="3" class="fil25 str7" d="M66995 56147c0,-29 4,-54 13,-75 9,-21 20,-37 35,-47 11,-8 23,-12 35,-12 20,0 37,10 53,30 19,25 29,58 29,100 0,30 -4,55 -13,75 -9,21 -19,36 -33,45 -13,9 -26,14 -38,14 -24,0 -45,-14 -61,-43 -14,-24 -20,-53 -20,-87zm37 5c0,35 4,64 13,86 7,19 18,28 32,28 7,0 14,-3 21,-9 7,-6 13,-16 16,-31 6,-21 9,-52 9,-91 0,-29 -3,-53 -9,-73 -4,-14 -10,-25 -17,-31 -5,-4 -11,-6 -19,-6 -8,0 -16,4 -23,11 -9,10 -15,27 -18,49 -3,22 -5,44 -5,66z"/>
  </g>
  <text x="66309" y="56273" id="3" class="fil1 fnt0">4</text>
  <text x="66596" y="56273" id="3" class="fil1 fnt0">000</text>
  <text x="66501" y="56273" id="3" class="fil1 fnt3"> </text>
  <g>
   <path class="fil25 str7" d="M66476 53945l-15 32 -77 0 -17 34c34,5 60,17 79,37 17,17 25,37 25,60 0,13 -3,26 -8,37 -5,11 -12,21 -21,29 -8,8 -17,14 -28,19 -14,7 -29,10 -44,10 -15,0 -26,-3 -33,-8 -7,-5 -10,-11 -10,-17 0,-3 1,-7 4,-9 3,-3 7,-4 11,-4 3,0 6,0 9,1 2,1 7,4 12,8 9,6 19,10 29,10 15,0 28,-6 39,-17 11,-11 17,-25 17,-41 0,-15 -5,-30 -15,-43 -10,-13 -24,-24 -41,-31 -14,-6 -32,-9 -56,-10l49 -99 91 0z"/>
  </g>
  <g>
   <path id="1" class="fil25 str7" d="M66610 54075c0,-29 4,-54 13,-75 9,-21 20,-37 35,-47 11,-8 23,-12 35,-12 20,0 37,10 53,30 19,25 29,58 29,100 0,30 -4,55 -13,75 -9,21 -19,36 -33,45 -13,9 -26,14 -38,14 -24,0 -45,-14 -61,-43 -14,-24 -20,-53 -20,-87zm37 5c0,35 4,64 13,86 7,19 18,28 32,28 7,0 14,-3 21,-9 7,-6 13,-16 16,-31 6,-21 9,-52 9,-91 0,-29 -3,-53 -9,-73 -4,-14 -10,-25 -17,-31 -5,-4 -11,-6 -19,-6 -8,0 -16,4 -23,11 -9,10 -15,27 -18,49 -3,22 -5,44 -5,66z"/>
  </g>
  <g>
   <path id="2" class="fil25 str7" d="M66802 54075c0,-29 4,-54 13,-75 9,-21 20,-37 35,-47 11,-8 23,-12 35,-12 20,0 37,10 53,30 19,25 29,58 29,100 0,30 -4,55 -13,75 -9,21 -19,36 -33,45 -13,9 -26,14 -38,14 -24,0 -45,-14 -61,-43 -14,-24 -20,-53 -20,-87zm37 5c0,35 4,64 13,86 7,19 18,28 32,28 7,0 14,-3 21,-9 7,-6 13,-16 16,-31 6,-21 9,-52 9,-91 0,-29 -3,-53 -9,-73 -4,-14 -10,-25 -17,-31 -5,-4 -11,-6 -19,-6 -8,0 -16,4 -23,11 -9,10 -15,27 -18,49 -3,22 -5,44 -5,66z"/>
  </g>
  <g>
   <path id="3" class="fil25 str7" d="M66995 54075c0,-29 4,-54 13,-75 9,-21 20,-37 35,-47 11,-8 23,-12 35,-12 20,0 37,10 53,30 19,25 29,58 29,100 0,30 -4,55 -13,75 -9,21 -19,36 -33,45 -13,9 -26,14 -38,14 -24,0 -45,-14 -61,-43 -14,-24 -20,-53 -20,-87zm37 5c0,35 4,64 13,86 7,19 18,28 32,28 7,0 14,-3 21,-9 7,-6 13,-16 16,-31 6,-21 9,-52 9,-91 0,-29 -3,-53 -9,-73 -4,-14 -10,-25 -17,-31 -5,-4 -11,-6 -19,-6 -8,0 -16,4 -23,11 -9,10 -15,27 -18,49 -3,22 -5,44 -5,66z"/>
  </g>
  <text x="66501" y="54201" id="3" class="fil2 fnt3"> </text>
  <text x="66309" y="54201" id="3" class="fil1 fnt0">5</text>
  <text x="66596" y="54201" id="3" class="fil1 fnt0">000</text>
  <text x="66501" y="54201" id="3" class="fil1 fnt3"> </text>
  <g>
   <path class="fil25 str7" d="M66481 51911l0 7c-16,2 -30,5 -40,10 -10,5 -21,12 -31,23 -10,10 -19,21 -25,34 -7,12 -12,27 -17,44 18,-12 36,-18 54,-18 17,0 32,7 45,21 13,14 19,32 19,54 0,21 -6,41 -19,58 -16,21 -36,32 -62,32 -17,0 -32,-6 -44,-17 -24,-22 -36,-52 -36,-87 0,-23 5,-44 14,-65 9,-21 22,-39 39,-55 17,-16 33,-27 49,-32 16,-6 30,-8 43,-8l11 0zm-117 131c-2,17 -3,31 -3,41 0,12 2,25 7,39 4,14 11,25 20,34 6,6 14,9 23,9 11,0 21,-5 29,-15 9,-10 13,-25 13,-44 0,-21 -4,-40 -13,-56 -9,-16 -21,-23 -36,-23 -5,0 -10,1 -15,3 -5,2 -13,6 -24,13z"/>
  </g>
  <g>
   <path id="1" class="fil25 str7" d="M66610 52045c0,-29 4,-54 13,-75 9,-21 20,-37 35,-47 11,-8 23,-12 35,-12 20,0 37,10 53,30 19,25 29,58 29,100 0,30 -4,55 -13,75 -9,21 -19,36 -33,45 -13,9 -26,14 -38,14 -24,0 -45,-14 -61,-43 -14,-24 -20,-53 -20,-87zm37 5c0,35 4,64 13,86 7,19 18,28 32,28 7,0 14,-3 21,-9 7,-6 13,-16 16,-31 6,-21 9,-52 9,-91 0,-29 -3,-53 -9,-73 -4,-14 -10,-25 -17,-31 -5,-4 -11,-6 -19,-6 -8,0 -16,4 -23,11 -9,10 -15,27 -18,49 -3,22 -5,44 -5,66z"/>
  </g>
  <g>
   <path id="2" class="fil25 str7" d="M66802 52045c0,-29 4,-54 13,-75 9,-21 20,-37 35,-47 11,-8 23,-12 35,-12 20,0 37,10 53,30 19,25 29,58 29,100 0,30 -4,55 -13,75 -9,21 -19,36 -33,45 -13,9 -26,14 -38,14 -24,0 -45,-14 -61,-43 -14,-24 -20,-53 -20,-87zm37 5c0,35 4,64 13,86 7,19 18,28 32,28 7,0 14,-3 21,-9 7,-6 13,-16 16,-31 6,-21 9,-52 9,-91 0,-29 -3,-53 -9,-73 -4,-14 -10,-25 -17,-31 -5,-4 -11,-6 -19,-6 -8,0 -16,4 -23,11 -9,10 -15,27 -18,49 -3,22 -5,44 -5,66z"/>
  </g>
  <g>
   <path id="3" class="fil25 str7" d="M66995 52045c0,-29 4,-54 13,-75 9,-21 20,-37 35,-47 11,-8 23,-12 35,-12 20,0 37,10 53,30 19,25 29,58 29,100 0,30 -4,55 -13,75 -9,21 -19,36 -33,45 -13,9 -26,14 -38,14 -24,0 -45,-14 -61,-43 -14,-24 -20,-53 -20,-87zm37 5c0,35 4,64 13,86 7,19 18,28 32,28 7,0 14,-3 21,-9 7,-6 13,-16 16,-31 6,-21 9,-52 9,-91 0,-29 -3,-53 -9,-73 -4,-14 -10,-25 -17,-31 -5,-4 -11,-6 -19,-6 -8,0 -16,4 -23,11 -9,10 -15,27 -18,49 -3,22 -5,44 -5,66z"/>
  </g>
  <text x="66501" y="52171" id="3" class="fil2 fnt3"> </text>
  <text x="66309" y="52171" id="3" class="fil1 fnt0">6</text>
  <text x="66596" y="52171" id="3" class="fil1 fnt0">000</text>
  <text x="66501" y="52171" id="3" class="fil1 fnt3"> </text>
  <g>
   <path class="fil25 str7" d="M66347 49903l137 0 0 7 -85 253 -21 0 76 -230 -70 0c-14,0 -24,2 -30,5 -11,6 -19,15 -25,27l-5 -2 24 -60z"/>
  </g>
  <g>
   <path id="1" class="fil25 str7" d="M66610 50032c0,-29 4,-54 13,-75 9,-21 20,-37 35,-47 11,-8 23,-12 35,-12 20,0 37,10 53,30 19,25 29,58 29,100 0,30 -4,55 -13,75 -9,21 -19,36 -33,45 -13,9 -26,14 -38,14 -24,0 -45,-14 -61,-43 -14,-24 -20,-53 -20,-87zm37 5c0,35 4,64 13,86 7,19 18,28 32,28 7,0 14,-3 21,-9 7,-6 13,-16 16,-31 6,-21 9,-52 9,-91 0,-29 -3,-53 -9,-73 -4,-14 -10,-25 -17,-31 -5,-4 -11,-6 -19,-6 -8,0 -16,4 -23,11 -9,10 -15,27 -18,49 -3,22 -5,44 -5,66z"/>
  </g>
  <g>
   <path id="2" class="fil25 str7" d="M66802 50032c0,-29 4,-54 13,-75 9,-21 20,-37 35,-47 11,-8 23,-12 35,-12 20,0 37,10 53,30 19,25 29,58 29,100 0,30 -4,55 -13,75 -9,21 -19,36 -33,45 -13,9 -26,14 -38,14 -24,0 -45,-14 -61,-43 -14,-24 -20,-53 -20,-87zm37 5c0,35 4,64 13,86 7,19 18,28 32,28 7,0 14,-3 21,-9 7,-6 13,-16 16,-31 6,-21 9,-52 9,-91 0,-29 -3,-53 -9,-73 -4,-14 -10,-25 -17,-31 -5,-4 -11,-6 -19,-6 -8,0 -16,4 -23,11 -9,10 -15,27 -18,49 -3,22 -5,44 -5,66z"/>
  </g>
  <g>
   <path id="3" class="fil25 str7" d="M66995 50032c0,-29 4,-54 13,-75 9,-21 20,-37 35,-47 11,-8 23,-12 35,-12 20,0 37,10 53,30 19,25 29,58 29,100 0,30 -4,55 -13,75 -9,21 -19,36 -33,45 -13,9 -26,14 -38,14 -24,0 -45,-14 -61,-43 -14,-24 -20,-53 -20,-87zm37 5c0,35 4,64 13,86 7,19 18,28 32,28 7,0 14,-3 21,-9 7,-6 13,-16 16,-31 6,-21 9,-52 9,-91 0,-29 -3,-53 -9,-73 -4,-14 -10,-25 -17,-31 -5,-4 -11,-6 -19,-6 -8,0 -16,4 -23,11 -9,10 -15,27 -18,49 -3,22 -5,44 -5,66z"/>
  </g>
  <text x="66501" y="50158" id="3" class="fil2 fnt3"> </text>
  <text x="66309" y="50158" id="3" class="fil1 fnt0">7</text>
  <text x="66596" y="50158" id="3" class="fil1 fnt0">000</text>
  <text x="66501" y="50158" id="3" class="fil1 fnt3"> </text>
  <text x="64159" y="61108"  class="fil1 fnt0">5</text>
  <line class="fil2 str6" x1="65949" y1="60650" x2="69878" y2= "60660" />
  <text x="65545" y="60394"  class="fil1 fnt0">2</text>
  <text x="67513" y="60394"  class="fil1 fnt0">2</text>
  <line class="fil2 str4" x1="66721" y1="60280" x2="66870" y2= "60280" />
  <text x="65545" y="61569"  class="fil1 fnt0">2</text>
  <text x="67513" y="61569"  class="fil1 fnt0">2</text>
  <g>
   <path class="fil25 str7" d="M66485 60345l-18 50 -150 0 0 -7c44,-40 75,-73 93,-99 18,-26 27,-49 27,-70 0,-16 -5,-29 -15,-40 -10,-10 -22,-16 -35,-16 -13,0 -24,4 -34,11 -10,7 -17,18 -22,32l-7 0c3,-23 11,-41 24,-53 13,-12 29,-18 49,-18 21,0 38,7 52,20 14,13 21,29 21,47 0,13 -3,26 -9,39 -9,20 -24,42 -45,64 -31,34 -50,54 -58,61l66 0c13,0 23,-1 28,-1 5,-1 10,-3 15,-6 4,-3 8,-7 11,-13l7 0z"/>
  </g>
  <g>
   <path id="1" class="fil25 str7" d="M66610 60268c0,-29 4,-54 13,-75 9,-21 20,-37 35,-47 11,-8 23,-12 35,-12 20,0 37,10 53,30 19,25 29,58 29,100 0,30 -4,55 -13,75 -9,21 -19,36 -33,45 -13,9 -26,14 -38,14 -24,0 -45,-14 -61,-43 -14,-24 -20,-53 -20,-87zm37 5c0,35 4,64 13,86 7,19 18,28 32,28 7,0 14,-3 21,-9 7,-6 13,-16 16,-31 6,-21 9,-52 9,-91 0,-29 -3,-53 -9,-73 -4,-14 -10,-25 -17,-31 -5,-4 -11,-6 -19,-6 -8,0 -16,4 -23,11 -9,10 -15,27 -18,49 -3,22 -5,44 -5,66z"/>
  </g>
  <g>
   <path id="2" class="fil25 str7" d="M66802 60268c0,-29 4,-54 13,-75 9,-21 20,-37 35,-47 11,-8 23,-12 35,-12 20,0 37,10 53,30 19,25 29,58 29,100 0,30 -4,55 -13,75 -9,21 -19,36 -33,45 -13,9 -26,14 -38,14 -24,0 -45,-14 -61,-43 -14,-24 -20,-53 -20,-87zm37 5c0,35 4,64 13,86 7,19 18,28 32,28 7,0 14,-3 21,-9 7,-6 13,-16 16,-31 6,-21 9,-52 9,-91 0,-29 -3,-53 -9,-73 -4,-14 -10,-25 -17,-31 -5,-4 -11,-6 -19,-6 -8,0 -16,4 -23,11 -9,10 -15,27 -18,49 -3,22 -5,44 -5,66z"/>
  </g>
  <g>
   <path id="3" class="fil25 str7" d="M66995 60268c0,-29 4,-54 13,-75 9,-21 20,-37 35,-47 11,-8 23,-12 35,-12 20,0 37,10 53,30 19,25 29,58 29,100 0,30 -4,55 -13,75 -9,21 -19,36 -33,45 -13,9 -26,14 -38,14 -24,0 -45,-14 -61,-43 -14,-24 -20,-53 -20,-87zm37 5c0,35 4,64 13,86 7,19 18,28 32,28 7,0 14,-3 21,-9 7,-6 13,-16 16,-31 6,-21 9,-52 9,-91 0,-29 -3,-53 -9,-73 -4,-14 -10,-25 -17,-31 -5,-4 -11,-6 -19,-6 -8,0 -16,4 -23,11 -9,10 -15,27 -18,49 -3,22 -5,44 -5,66z"/>
  </g>
  <text x="66501" y="60394" id="3" class="fil2 fnt3"> </text>
  <text x="66309" y="60394" id="3" class="fil1 fnt0">2</text>
  <text x="66596" y="60394" id="3" class="fil1 fnt0">000</text>
  <text x="66501" y="60394" id="3" class="fil1 fnt3"> </text>
 </g>
 <g id="图例">
  <metadata id="CorelCorpID_1Corel-Layer"/>
  <rect id="_1_22" class="fil19 str4" x="78022" y="51746" width="1273" height="727"/>
  <rect id="_2_23" class="fil22 str4" x="78022" y="52851" width="1273" height="727"/>
  <rect id="_3_24" class="fil21 str4" x="78022" y="53957" width="1273" height="727"/>
  <rect id="_10_25" class="fil12 str4" x="78016" y="61697" width="1273" height="727"/>
  <rect id="_11_26" class="fil16 str4" x="78016" y="62802" width="1273" height="727"/>
  <rect id="_29_27" class="fil8 str4" x="86468" y="56169" width="1273" height="727"/>
  <rect id="_30_28" class="fil9 str4" x="86468" y="57274" width="1273" height="727"/>
  <rect id="_4_29" class="fil13 str4" x="78022" y="55062" width="1273" height="727"/>
  <rect id="_5_30" class="fil20 str4" x="78022" y="56167" width="1273" height="727"/>
  <rect id="_6_31" class="fil18 str0" x="78022" y="57273" width="1273" height="727"/>
  <rect id="_33_32" class="fil7 str4" x="86468" y="58380" width="1273" height="727"/>
  <rect id="_7_33" class="fil15 str4" x="78022" y="58378" width="1273" height="727"/>
  <rect id="_8_34" class="fil17 str4" x="78022" y="59484" width="1273" height="727"/>
  <rect id="_9_35" class="fil14 str4" x="78022" y="60589" width="1273" height="727"/>
  <rect id="_27_36" class="fil6 str4" x="86468" y="55063" width="1273" height="727"/>
  <rect id="_34_37" class="fil5 str4" x="86464" y="59496" width="1273" height="727"/>
  <rect id="_36_38" class="fil4 str4" x="86464" y="60602" width="1273" height="727"/>
  <text x="78587" y="52232"  class="fil1 fnt4">1</text>
  <text x="78572" y="53338"  class="fil1 fnt4">2</text>
  <text x="78580" y="54442"  class="fil1 fnt4">3</text>
  <text x="78572" y="55549"  class="fil1 fnt4">4</text>
  <text x="78579" y="56655"  class="fil1 fnt4">5</text>
  <text x="78573" y="57760"  class="fil1 fnt4">6</text>
  <text x="78577" y="58862"  class="fil1 fnt4">7</text>
  <text x="78576" y="59970"  class="fil1 fnt4">8</text>
  <text x="78575" y="61074"  class="fil1 fnt4">9</text>
  <text x="78476" y="62183"  class="fil1 fnt4">10</text>
  <text x="78492" y="63289"  class="fil1 fnt4">11</text>
  <rect id="_17_39" class="fil23 str4" x="86468" y="51747" width="1273" height="727"/>
  <text x="86933" y="52234"  class="fil1 fnt4">17</text>
  <rect id="_19_40" class="fil10 str4" x="86468" y="52853" width="1273" height="727"/>
  <text x="86931" y="53337"  class="fil1 fnt4">19</text>
  <rect id="_23_41" class="fil11 str0" x="86468" y="53958" width="1273" height="727"/>
  <text x="86936" y="54444"  class="fil1 fnt4">23</text>
  <text x="86933" y="55550"  class="fil1 fnt4">27</text>
  <text x="86931" y="56653"  class="fil1 fnt4">29</text>
  <text x="86928" y="57760"  class="fil1 fnt4">30</text>
  <text x="86936" y="58866"  class="fil1 fnt4">33</text>
  <text x="86924" y="59982"  class="fil1 fnt4">34</text>
  <text x="86925" y="61089"  class="fil1 fnt4">36</text>
  <path class="fil2 str4" d="M87037 61895c-1,6 -53,91 -53,91l39 -28 -53 128 44 -33 -50 119 79 -44 -3 119 11 -1 -2 -117 78 44 -53 -117 39 22 -61 -118 41 28 -55 -92z"/>
  <rect id="_37_42" attrib:name="落叶松" class="fil2 str4" x="86464" y="61707" width="1273" height="727"/>
 </g>
 <g id="图名">
  <metadata id="CorelCorpID_2Corel-Layer"/>
  <g>
   <text x="57187" y="47649"  class="fil1 fnt5">            Vertical distribution of main mountainous vegetations</text>
   <g transform="matrix(1.2 0 0 1 4694.46 11493.7)">
    <text x="46633" y="35455"  class="fil1 fnt6">  主要山地植被垂直分布</text>
   </g>
  </g>
 </g>
 <g id="文字">
  <metadata id="CorelCorpID_3Corel-Layer"/>
  <text x="79565" y="52026"  class="fil1 fnt7">雨林</text>
  <text x="79565" y="52462"  class="fil1 fnt8">Rainforest</text>
  <text x="79565" y="53148"  class="fil1 fnt7">常绿阔叶林</text>
  <text x="79565" y="53541"  class="fil1 fnt8">Evergreen broad-leaved forest</text>
  <text x="79565" y="54301"  class="fil1 fnt7">硬叶常绿阔叶林</text>
  <text x="79565" y="54726"  class="fil1 fnt8">Sclerophyll evergreen broad-leaved forest</text>
  <text x="79565" y="55393"  class="fil1 fnt7">落叶阔叶林</text>
  <text x="79565" y="55782"  class="fil1 fnt8">Deciduous evebroad-leaved forest</text>
  <text x="79565" y="56468"  class="fil1 fnt7">松林</text>
  <text x="79565" y="56854"  class="fil1 fnt8">Pinery</text>
  <text x="79565" y="57615"  class="fil1 fnt7">铁杉林</text>
  <text x="79565" y="57986"  class="fil1 fnt8">Hemlock forest</text>
  <text x="79565" y="58686"  class="fil1 fnt7">云杉林</text>
  <text x="79565" y="59061"  class="fil1 fnt8">Spruce forest</text>
  <text x="79565" y="59811"  class="fil1 fnt7">冷杉林</text>
  <text x="79565" y="60211"  class="fil1 fnt8">Fir forest</text>
  <text x="79565" y="60904"  class="fil1 fnt7">圆柏林</text>
  <text x="79565" y="61311"  class="fil1 fnt8">China savin forest</text>
  <text x="79565" y="62072"  class="fil1 fnt7">杜鹃灌丛</text>
  <text x="79565" y="62413"  class="fil1 fnt8">Cuckoo elfin bush</text>
  <text x="79565" y="63080"  class="fil1 fnt7">杜鹃灌丛与嵩草草甸相结合</text>
  <text x="79565" y="63433"  class="fil1 fnt8">Combination of cuckoo elfin bush </text>
  <text x="79565" y="63774"  class="fil1 fnt8">with kobresia meadow</text>
  <text x="88013" y="51896"  class="fil1 fnt7">圆柏灌丛与嵩草草甸相结合</text>
  <text x="88013" y="52289"  class="fil1 fnt8">Combination of China savin bush </text>
  <text x="88013" y="52630"  class="fil1 fnt8">with kobresia meadow</text>
  <text x="88013" y="53189"  class="fil1 fnt7">嵩草草甸</text>
  <text x="88013" y="53607"  class="fil1 fnt8">Kobresia meadow</text>
  <text x="88013" y="54261"  class="fil1 fnt7">紫花针茅草原</text>
  <text x="88013" y="54683"  class="fil1 fnt8">Grassland of stipa purpurea</text>
  <text x="88013" y="55366"  class="fil1 fnt7">沙生针茅草原</text>
  <text x="88013" y="55785"  class="fil1 fnt8">Grassland of stipa glareosa</text>
  <text x="88013" y="56506"  class="fil1 fnt7">青藏苔草草原</text>
  <text x="88013" y="56925"  class="fil1 fnt8">Grassland of carex moorcroftii</text>
  <text x="88013" y="57521"  class="fil1 fnt7">青藏苔草、垫状驼绒藜草原</text>
  <text x="88013" y="57875"  class="fil1 fnt8">Grassland of carex moorcroftii and</text>
  <text x="88013" y="58216"  class="fil1 fnt8">ceratoides compacta</text>
  <text x="88013" y="58712"  class="fil1 fnt7">驼绒藜荒漠</text>
  <text x="88013" y="59139"  class="fil1 fnt8">Ceratoides desert</text>
  <text x="88009" y="59836"  class="fil1 fnt7">垫状驼绒藜荒漠</text>
  <text x="88030" y="60220"  class="fil1 fnt8">Ceratoides compacta desert</text>
  <text x="88009" y="60765"  class="fil1 fnt7">风毛菊、红景天流石坡稀疏植被</text>
  <text x="88030" y="61136"  class="fil1 fnt8">Sparse vegetation with Saussurea japonica</text>
  <text x="88030" y="61520"  class="fil1 fnt8">and Rhodiola rosea on flowstone hillside</text>
  <text x="88030" y="62039"  class="fil1 fnt7">落叶松</text>
  <g transform="matrix(1 0 -0.267949 1 47505.7 26979.7)">
   <text x="50000" y="35455"  class="fil1 fnt8">Larix gmelini</text>
  </g>
  <text x="55163" y="57496"  class="fil1 fnt8">Palgon Lake </text>
  <text x="58301" y="51439"  class="fil1 fnt9">Muzitage</text>
  <text x="58463" y="55732"  class="fil1 fnt8">Ba Mao Qiongzong</text>
  <text x="61538" y="56079"  class="fil1 fnt8">Nakchu</text>
  <text x="63537" y="57530"  class="fil1 fnt8">Lhari</text>
  <text x="65743" y="65002"  class="fil1 fnt8">Namcha Barwa</text>
  <text x="70507" y="61264"  class="fil1 fnt8">Nyainqentanglha</text>
  <text x="73960" y="59768"  class="fil1 fnt8">Dong Da La</text>
 </g>
 <g id="toolTip">
		
	</g>
 </g>
</svg>
