<?xml version="1.0" encoding="UTF-8"?>
<!DOCTYPE svg PUBLIC "-//W3C//DTD SVG 1.1//EN" "http://www.w3.org/Graphics/SVG/1.1/DTD/svg11.dtd">
<!-- Creator: CorelDRAW X6 -->
<svg  onload="Init(evt)" xmlns="http://www.w3.org/2000/svg" xml:space="preserve" x="0px" y="0px" width="1000px" height="600px" version="1.1" style="shape-rendering:geometricPrecision; text-rendering:geometricPrecision; image-rendering:optimizeQuality; fill-rule:evenodd; clip-rule:evenodd"
viewBox="0 0 100000 60000"
 xmlns:xlink="http://www.w3.org/1999/xlink">
  <script  xlink:href="../js/Map.js"></script>
 <defs>
  <style type="text/css">
   <![CDATA[
    .str0 {stroke:#332C2B;stroke-width:38.1}
    .str1 {stroke:#00A2E9;stroke-width:40;stroke-linejoin:round}
    .str4 {stroke:#332C2B;stroke-width:50}
    .str3 {stroke:#332C2B;stroke-width:50;stroke-linejoin:round}
    .str6 {stroke:#332C2B;stroke-width:50;stroke-linecap:round;stroke-linejoin:round}
    .str2 {stroke:#6D583D;stroke-width:50;stroke-linejoin:round}
    .str5 {stroke:#823520;stroke-width:50;stroke-linejoin:round}
    .str8 {stroke:#332C2B;stroke-width:60}
    .str7 {stroke:#E62129;stroke-width:200}
    .fil4 {fill:none}
    .fil1 {fill:#332C2B}
    .fil0 {fill:#FEFEFE}
    .fil2 {fill:#00A2E9}
    .fil3 {fill:#6D583D}
    .fil5 {fill:#823520}
    .fil7 {fill:#C7D2E1}
    .fil6 {fill:#E62129;fill-rule:nonzero}
    .fnt6 {font-weight:normal;font-size:705.55px;font-family:'宋体'}
    .fnt1 {font-weight:normal;font-size:705.55px;font-family:'方正细等线简体'}
    .fnt0 {font-weight:normal;font-size:875.05px;font-family:'方正美黑简体'}
    .fnt3 {font-weight:normal;font-size:881.95px;font-family:'宋体'}
    .fnt4 {font-weight:normal;font-size:881.95px;font-family:'方正细等线简体'}
    .fnt10 {font-weight:normal;font-size:1058.3px;font-family:'Times New Roman'}
    .fnt7 {font-weight:normal;font-size:1058.35px;font-family:'Times New Roman'}
    .fnt2 {font-weight:normal;font-size:1058.35px;font-family:'宋体'}
    .fnt5 {font-weight:normal;font-size:1200px;font-family:'黑体'}
    .fnt8 {font-weight:normal;font-size:1234.7px;font-family:'宋体'}
    .fnt11 {font-weight:normal;font-size:1411.1px;font-family:'Arial'}
    .fnt9 {font-weight:normal;font-size:1763.9px;font-family:'方正准圆简体'}
   ]]>
  </style>
   <clipPath id="id0">
    <rect x="10905" y="12600" width="77307" height="42337"/>
   </clipPath>
   <clipPath id="id1">
    <rect x="9238" y="12024" width="82746" height="44553"/>
   </clipPath>
 </defs>
<symbol id="符号34" viewBox="49431 29431 1138 1138">
 <circle class="fil0 str0" cx="50000" cy="30000" r="550"/>
 <circle class="fil1 str0" cx="50000" cy="30000" r="325"/>
</symbol>
<symbol id="符号12" viewBox="49580 29820 820 360">
 <polygon class="fil2" points="49885,29950 49888,29950 49895,29950 49906,29951 49920,29951 49937,29951 49957,29950 49978,29949 50001,29948 50025,29946 50049,29943 50073,29939 50097,29935 50119,29929 50140,29922 50158,29914 50174,29905 50188,29895 50202,29886 50216,29877 50229,29869 50243,29863 50257,29857 50271,29852 50285,29849 50298,29847 50312,29846 50327,29846 50341,29849 50355,29852 50369,29858 50400,29881 50400,29882 50395,29882 50388,29881 50377,29880 50365,29878 50352,29877 50337,29877 50320,29878 50303,29880 50286,29883 50269,29889 50251,29896 50234,29906 50217,29919 50202,29935 50178,29951 50153,29966 50129,29979 50104,29991 50080,30002 50057,30011 50034,30018 50013,30025 49993,30030 49975,30035 49945,30043 49933,30045 49921,30048 49912,30049 "/>
 <path class="fil2 str1" d="M49922 30000c0,-88 -72,-160 -161,-160 -89,0 -161,72 -161,160 0,88 72,160 161,160 89,0 161,-72 161,-160z"/>
</symbol>
<symbol id="符号56" viewBox="49885 29885 230 230">
 <path class="fil3 str2" d="M50090 30000c0,-50 -40,-90 -90,-90 -50,0 -90,40 -90,90 0,50 40,90 90,90 50,0 90,-40 90,-90z"/>
</symbol>
<symbol id="符号57" viewBox="49765 29645 470 710">
 <polygon class="fil3" points="49771,30355 49997,29645 50235,30355 49765,30355 "/>
</symbol>
<symbol id="符号52" viewBox="49675 29675 650 650">
 <path class="fil0 str3" d="M50300 30000c0,-166 -134,-300 -300,-300 -166,0 -300,134 -300,300 0,166 134,300 300,300 166,0 300,-134 300,-300z"/>
</symbol>
<symbol id="符号61" viewBox="49698 29698 605 605">
 <circle class="fil0 str0" cx="50000" cy="30000" r="283"/>
 <circle class="fil4 str0" cx="50000" cy="30000" r="101"/>
</symbol>
<symbol id="符号46" viewBox="49675 29675 650 650">
 <path class="fil0 str3" d="M50300 30000c0,-166 -134,-300 -300,-300 -166,0 -300,134 -300,300 0,166 134,300 300,300 166,0 300,-134 300,-300z"/>
</symbol>
<symbol id="符号40" viewBox="49675 29675 650 650">
 <path class="fil0 str3" d="M50300 30000c0,-166 -134,-300 -300,-300 -166,0 -300,134 -300,300 0,166 134,300 300,300 166,0 300,-134 300,-300z"/>
</symbol>
<symbol id="符号26" viewBox="49626 29626 748 748">
 <circle class="fil0 str0" cx="50000" cy="30000" r="355"/>
 <circle class="fil4 str0" cx="50000" cy="30000" r="133"/>
</symbol>
<symbol id="符号20" viewBox="49431 29431 1138 1138">
 <circle class="fil0 str0" cx="50000" cy="30000" r="550"/>
 <circle class="fil1 str0" cx="50000" cy="30000" r="325"/>
</symbol>
<symbol id="符号3" viewBox="49682 29682 635 635">
 <rect class="fil0" x="49700" y="29700" width="600" height="600"/>
 <line class="fil4 str4" x1="49700" y1="29700" x2="50300" y2= "30300" />
 <line class="fil4 str4" x1="49700" y1="30300" x2="50300" y2= "29700" />
</symbol>
<symbol id="符号49" viewBox="49682 29682 635 635">
 <line class="fil4 str4" x1="49700" y1="29700" x2="50300" y2= "30300" />
 <line class="fil4 str4" x1="49700" y1="30300" x2="50300" y2= "29700" />
</symbol>
<symbol id="符号48" viewBox="49431 29431 1138 1138">
 <circle class="fil0 str0" cx="50000" cy="30000" r="550"/>
 <circle class="fil1 str0" cx="50000" cy="30000" r="325"/>
</symbol>
<symbol id="符号36" viewBox="49532 29532 935 935">
 <rect class="fil0" x="49550" y="29550" width="900" height="900"/>
 <line class="fil4 str4" x1="49550" y1="29550" x2="50450" y2= "30450" />
 <line class="fil4 str4" x1="49550" y1="30450" x2="50450" y2= "29550" />
</symbol>
<symbol id="符号7" viewBox="49431 29431 1138 1138">
 <circle class="fil0 str0" cx="50000" cy="30000" r="550"/>
 <circle class="fil1 str0" cx="50000" cy="30000" r="325"/>
</symbol>
<symbol id="符号58" viewBox="49675 29675 650 650">
 <path class="fil0 str3" d="M50300 30000c0,-166 -134,-300 -300,-300 -166,0 -300,134 -300,300 0,166 134,300 300,300 166,0 300,-134 300,-300z"/>
</symbol>
<symbol id="符号45" viewBox="49800 29700 400 600">
 <polygon class="fil3" points="49805,30300 49997,29700 50200,30300 49800,30300 "/>
</symbol>
<symbol id="符号24" viewBox="49765 29645 470 710">
 <polygon class="fil5" points="49771,30355 49997,29645 50235,30355 49765,30355 "/>
</symbol>
<symbol id="符号18" viewBox="49675 29675 650 650">
 <path class="fil0 str3" d="M50300 30000c0,-166 -134,-300 -300,-300 -166,0 -300,134 -300,300 0,166 134,300 300,300 166,0 300,-134 300,-300z"/>
</symbol>
<symbol id="符号42" viewBox="49431 29431 1138 1138">
 <circle class="fil0 str0" cx="50000" cy="30000" r="550"/>
 <circle class="fil1 str0" cx="50000" cy="30000" r="325"/>
</symbol>
<symbol id="符号29" viewBox="49682 29682 635 635">
 <rect class="fil0" x="49700" y="29700" width="600" height="600"/>
 <line class="fil4 str4" x1="49700" y1="29700" x2="50300" y2= "30300" />
 <line class="fil4 str4" x1="49700" y1="30300" x2="50300" y2= "29700" />
</symbol>
<symbol id="符号11" viewBox="49431 29431 1138 1138">
 <circle class="fil0 str0" cx="50000" cy="30000" r="550"/>
 <circle class="fil1 str0" cx="50000" cy="30000" r="325"/>
</symbol>
<symbol id="符号37" viewBox="49885 29885 230 230">
 <path class="fil5 str5" d="M50090 30000c0,-50 -40,-90 -90,-90 -50,0 -90,40 -90,90 0,50 40,90 90,90 50,0 90,-40 90,-90z"/>
</symbol>
<symbol id="符号9" viewBox="49681 29681 638 638">
 <circle class="fil0 str0" cx="50000" cy="30000" r="300"/>
 <circle class="fil4 str0" cx="50000" cy="30000" r="113"/>
</symbol>
<symbol id="符号14" viewBox="49675 29675 650 650">
 <path class="fil0 str3" d="M50300 30000c0,-166 -134,-300 -300,-300 -166,0 -300,134 -300,300 0,166 134,300 300,300 166,0 300,-134 300,-300z"/>
</symbol>
<symbol id="符号54" viewBox="49431 29431 1138 1138">
 <circle class="fil0 str0" cx="50000" cy="30000" r="550"/>
 <circle class="fil1 str0" cx="50000" cy="30000" r="325"/>
</symbol>
<symbol id="符号15" viewBox="49682 29682 635 635">
 <rect class="fil0" x="49700" y="29700" width="600" height="600"/>
 <line class="fil4 str4" x1="49700" y1="29700" x2="50300" y2= "30300" />
 <line class="fil4 str4" x1="49700" y1="30300" x2="50300" y2= "29700" />
</symbol>
<symbol id="符号1" viewBox="49800 29700 400 600">
 <polygon class="fil5" points="49805,30300 49997,29700 50200,30300 49800,30300 "/>
</symbol>
<symbol id="符号53" viewBox="49331 29331 1338 1338">
 <circle class="fil0 str0" cx="50000" cy="30000" r="650"/>
 <circle class="fil4 str0" cx="50000" cy="30000" r="244"/>
</symbol>
<symbol id="符号55" viewBox="49532 29532 935 935">
 <line class="fil4 str4" x1="49550" y1="29550" x2="50450" y2= "30450" />
 <line class="fil4 str4" x1="49550" y1="30450" x2="50450" y2= "29550" />
</symbol>
<symbol id="符号44" viewBox="49900 29900 200 200">
 <path class="fil3 str2" d="M50075 30000c0,-41 -34,-75 -75,-75 -42,0 -75,34 -75,75 0,41 34,75 75,75 41,0 75,-34 75,-75z"/>
</symbol>
<symbol id="符号21" viewBox="49580 29820 820 360">
 <polygon class="fil2" points="49885,29950 49888,29950 49895,29950 49906,29951 49920,29951 49937,29951 49957,29950 49978,29949 50001,29948 50025,29946 50049,29943 50073,29939 50097,29935 50119,29929 50140,29922 50158,29914 50174,29905 50188,29895 50202,29886 50216,29877 50229,29869 50243,29863 50257,29857 50271,29852 50285,29849 50298,29847 50312,29846 50327,29846 50341,29849 50355,29852 50369,29858 50400,29881 50400,29882 50395,29882 50388,29881 50377,29880 50365,29878 50352,29877 50337,29877 50320,29878 50303,29880 50286,29883 50269,29889 50251,29896 50234,29906 50217,29919 50202,29935 50178,29951 50153,29966 50129,29979 50104,29991 50080,30002 50057,30011 50034,30018 50013,30025 49993,30030 49975,30035 49945,30043 49933,30045 49921,30048 49912,30049 "/>
 <path class="fil2 str1" d="M49922 30000c0,-88 -72,-160 -161,-160 -89,0 -161,72 -161,160 0,88 72,160 161,160 89,0 161,-72 161,-160z"/>
</symbol>
<symbol id="符号8" viewBox="49675 29675 650 650">
 <path class="fil0 str3" d="M50300 30000c0,-166 -134,-300 -300,-300 -166,0 -300,134 -300,300 0,166 134,300 300,300 166,0 300,-134 300,-300z"/>
</symbol>
<symbol id="符号4" viewBox="49580 29820 820 360">
 <polygon class="fil2" points="49885,29950 49888,29950 49895,29950 49906,29951 49920,29951 49937,29951 49957,29950 49978,29949 50001,29948 50025,29946 50049,29943 50073,29939 50097,29935 50119,29929 50140,29922 50158,29914 50174,29905 50188,29895 50202,29886 50216,29877 50229,29869 50243,29863 50257,29857 50271,29852 50285,29849 50298,29847 50312,29846 50327,29846 50341,29849 50355,29852 50369,29858 50400,29881 50400,29882 50395,29882 50388,29881 50377,29880 50365,29878 50352,29877 50337,29877 50320,29878 50303,29880 50286,29883 50269,29889 50251,29896 50234,29906 50217,29919 50202,29935 50178,29951 50153,29966 50129,29979 50104,29991 50080,30002 50057,30011 50034,30018 50013,30025 49993,30030 49975,30035 49945,30043 49933,30045 49921,30048 49912,30049 "/>
 <path class="fil2 str1" d="M49922 30000c0,-88 -72,-160 -161,-160 -89,0 -161,72 -161,160 0,88 72,160 161,160 89,0 161,-72 161,-160z"/>
</symbol>
<symbol id="符号50" viewBox="49885 29885 230 230">
 <path class="fil3 str2" d="M50090 30000c0,-50 -40,-90 -90,-90 -50,0 -90,40 -90,90 0,50 40,90 90,90 50,0 90,-40 90,-90z"/>
</symbol>
<symbol id="符号10" viewBox="49431 29431 1138 1138">
 <circle class="fil0 str0" cx="50000" cy="30000" r="550"/>
 <circle class="fil1 str0" cx="50000" cy="30000" r="325"/>
</symbol>
<symbol id="符号62" viewBox="49675 29675 650 650">
 <path class="fil0 str3" d="M50300 30000c0,-166 -134,-300 -300,-300 -166,0 -300,134 -300,300 0,166 134,300 300,300 166,0 300,-134 300,-300z"/>
</symbol>
<symbol id="符号59" viewBox="49698 29698 605 605">
 <circle class="fil0 str0" cx="50000" cy="30000" r="283"/>
 <circle class="fil4 str0" cx="50000" cy="30000" r="101"/>
</symbol>
<symbol id="符号38" viewBox="49650 29350 700 1300">
 <polygon class="fil5" points="49659,30650 49996,29350 50350,30650 49650,30650 "/>
</symbol>
<symbol id="符号35" viewBox="49580 29820 820 360">
 <polygon class="fil2" points="49885,29950 49888,29950 49895,29950 49906,29951 49920,29951 49937,29951 49957,29950 49978,29949 50001,29948 50025,29946 50049,29943 50073,29939 50097,29935 50119,29929 50140,29922 50158,29914 50174,29905 50188,29895 50202,29886 50216,29877 50229,29869 50243,29863 50257,29857 50271,29852 50285,29849 50298,29847 50312,29846 50327,29846 50341,29849 50355,29852 50369,29858 50400,29881 50400,29882 50395,29882 50388,29881 50377,29880 50365,29878 50352,29877 50337,29877 50320,29878 50303,29880 50286,29883 50269,29889 50251,29896 50234,29906 50217,29919 50202,29935 50178,29951 50153,29966 50129,29979 50104,29991 50080,30002 50057,30011 50034,30018 50013,30025 49993,30030 49975,30035 49945,30043 49933,30045 49921,30048 49912,30049 "/>
 <path class="fil2 str1" d="M49922 30000c0,-88 -72,-160 -161,-160 -89,0 -161,72 -161,160 0,88 72,160 161,160 89,0 161,-72 161,-160z"/>
</symbol>
<symbol id="符号31" viewBox="49765 29645 470 710">
 <polygon class="fil5" points="49771,30355 49997,29645 50235,30355 49765,30355 "/>
</symbol>
<symbol id="符号23" viewBox="49885 29885 230 230">
 <path class="fil5 str5" d="M50090 30000c0,-50 -40,-90 -90,-90 -50,0 -90,40 -90,90 0,50 40,90 90,90 50,0 90,-40 90,-90z"/>
</symbol>
<symbol id="符号2" viewBox="49900 29900 200 200">
 <path class="fil5 str5" d="M50075 30000c0,-41 -34,-75 -75,-75 -42,0 -75,34 -75,75 0,41 34,75 75,75 41,0 75,-34 75,-75z"/>
</symbol>
<symbol id="符号13" viewBox="49681 29681 638 638">
 <circle class="fil0 str0" cx="50000" cy="30000" r="300"/>
 <circle class="fil4 str0" cx="50000" cy="30000" r="113"/>
</symbol>
<symbol id="符号60" viewBox="49675 29675 650 650">
 <path class="fil0 str3" d="M50300 30000c0,-166 -134,-300 -300,-300 -166,0 -300,134 -300,300 0,166 134,300 300,300 166,0 300,-134 300,-300z"/>
</symbol>
<symbol id="符号43" viewBox="49682 29682 635 635">
 <line class="fil4 str4" x1="49700" y1="29700" x2="50300" y2= "30300" />
 <line class="fil4 str4" x1="49700" y1="30300" x2="50300" y2= "29700" />
</symbol>
<symbol id="符号33" viewBox="49331 29331 1338 1338">
 <circle class="fil0 str0" cx="50000" cy="30000" r="650"/>
 <circle class="fil4 str0" cx="50000" cy="30000" r="244"/>
</symbol>
<symbol id="符号30" viewBox="49885 29885 230 230">
 <path class="fil5 str5" d="M50090 30000c0,-50 -40,-90 -90,-90 -50,0 -90,40 -90,90 0,50 40,90 90,90 50,0 90,-40 90,-90z"/>
</symbol>
<symbol id="符号25" viewBox="49675 29675 650 650">
 <path class="fil0 str3" d="M50300 30000c0,-166 -134,-300 -300,-300 -166,0 -300,134 -300,300 0,166 134,300 300,300 166,0 300,-134 300,-300z"/>
</symbol>
<symbol id="符号5" viewBox="49675 29675 650 650">
 <path class="fil0 str3" d="M50300 30000c0,-166 -134,-300 -300,-300 -166,0 -300,134 -300,300 0,166 134,300 300,300 166,0 300,-134 300,-300z"/>
</symbol>
<symbol id="符号63" viewBox="49698 29698 605 605">
 <circle class="fil0 str0" cx="50000" cy="30000" r="283"/>
 <circle class="fil4 str0" cx="50000" cy="30000" r="101"/>
</symbol>
<symbol id="符号51" viewBox="49765 29645 470 710">
 <polygon class="fil3" points="49771,30355 49997,29645 50235,30355 49765,30355 "/>
</symbol>
<symbol id="符号47" viewBox="49626 29626 748 748">
 <circle class="fil0 str0" cx="50000" cy="30000" r="355"/>
 <circle class="fil4 str0" cx="50000" cy="30000" r="133"/>
</symbol>
<symbol id="符号17" viewBox="49800 29700 400 600">
 <polygon class="fil5" points="49805,30300 49997,29700 50200,30300 49800,30300 "/>
</symbol>
<symbol id="符号39" viewBox="49765 29645 470 710">
 <polygon class="fil5" points="49771,30355 49997,29645 50235,30355 49765,30355 "/>
</symbol>
<symbol id="符号6" viewBox="49681 29681 638 638">
 <circle class="fil0 str0" cx="50000" cy="30000" r="300"/>
 <circle class="fil4 str0" cx="50000" cy="30000" r="113"/>
</symbol>
<symbol id="符号41" viewBox="49681 29681 638 638">
 <circle class="fil0 str0" cx="50000" cy="30000" r="300"/>
 <circle class="fil4 str0" cx="50000" cy="30000" r="113"/>
</symbol>
<symbol id="符号28" viewBox="49580 29820 820 360">
 <polygon class="fil2" points="49885,29950 49888,29950 49895,29950 49906,29951 49920,29951 49937,29951 49957,29950 49978,29949 50001,29948 50025,29946 50049,29943 50073,29939 50097,29935 50119,29929 50140,29922 50158,29914 50174,29905 50188,29895 50202,29886 50216,29877 50229,29869 50243,29863 50257,29857 50271,29852 50285,29849 50298,29847 50312,29846 50327,29846 50341,29849 50355,29852 50369,29858 50400,29881 50400,29882 50395,29882 50388,29881 50377,29880 50365,29878 50352,29877 50337,29877 50320,29878 50303,29880 50286,29883 50269,29889 50251,29896 50234,29906 50217,29919 50202,29935 50178,29951 50153,29966 50129,29979 50104,29991 50080,30002 50057,30011 50034,30018 50013,30025 49993,30030 49975,30035 49945,30043 49933,30045 49921,30048 49912,30049 "/>
 <path class="fil2 str1" d="M49922 30000c0,-88 -72,-160 -161,-160 -89,0 -161,72 -161,160 0,88 72,160 161,160 89,0 161,-72 161,-160z"/>
</symbol>
<symbol id="符号27" viewBox="49431 29431 1138 1138">
 <circle class="fil0 str0" cx="50000" cy="30000" r="550"/>
 <circle class="fil1 str0" cx="50000" cy="30000" r="325"/>
</symbol>
<symbol id="符号19" viewBox="49626 29626 748 748">
 <circle class="fil0 str0" cx="50000" cy="30000" r="355"/>
 <circle class="fil4 str0" cx="50000" cy="30000" r="133"/>
</symbol>
<symbol id="符号22" viewBox="49682 29682 635 635">
 <rect class="fil0" x="49700" y="29700" width="600" height="600"/>
 <line class="fil4 str4" x1="49700" y1="29700" x2="50300" y2= "30300" />
 <line class="fil4 str4" x1="49700" y1="30300" x2="50300" y2= "29700" />
</symbol>
<symbol id="符号32" viewBox="49675 29675 650 650">
 <path class="fil0 str3" d="M50300 30000c0,-166 -134,-300 -300,-300 -166,0 -300,134 -300,300 0,166 134,300 300,300 166,0 300,-134 300,-300z"/>
</symbol>
<symbol id="符号16" viewBox="49900 29900 200 200">
 <path class="fil5 str5" d="M50075 30000c0,-41 -34,-75 -75,-75 -42,0 -75,34 -75,75 0,41 34,75 75,75 41,0 75,-34 75,-75z"/>
</symbol>
<g id="map">
 <g id="图层_x0020_2">
  <metadata id="CorelCorpID_0Corel-Layer"/>
  <g style="clip-path:url(#id0)">
   <image id="_50-51c.png" x="10905" y="12600" width="77307" height="42337" xlink:href="50-51c_ImgID1.png"/>
  </g>
 </g>
 <g id="layer_1">
  <metadata id="CorelCorpID_1Corel-Layer"/>
  <g style="clip-path:url(#id1)">
   <image id="midu5.png" x="9238" y="12024" width="82745" height="44553" xlink:href="50-51c_ImgID2.png"/>
  </g>
 </g>
 <g id="注记">
  <metadata id="CorelCorpID_2Corel-Layer"/>
  <g transform="matrix(0.961262 -0.275632 0 1 -7728.11 -706.779)">
   <text x="50000" y="30000"  class="fil3 fnt0">昆</text>
  </g>
  <g transform="matrix(0.961262 -0.275632 0 1 -4484.91 -1370.28)">
   <text x="50000" y="30000"  class="fil3 fnt0">仑</text>
  </g>
  <g transform="matrix(0.961262 -0.275632 0 1 -660.163 -1783.03)">
   <text x="50000" y="30000"  class="fil3 fnt0">山</text>
  </g>
  <g transform="matrix(0.961262 -0.275632 0 1 2277.89 -797.679)">
   <text x="50000" y="30000"  class="fil3 fnt0">脉</text>
  </g>
  <g transform="matrix(1.00001 -0.286699 0 1 -39155.6 14479.7)">
   <text x="50000" y="30000"  class="fil3 fnt0">喜</text>
  </g>
  <g transform="matrix(1.00001 -0.286699 0 1 -38376.6 16846.3)">
   <text x="50000" y="30000"  class="fil3 fnt0">马</text>
  </g>
  <g transform="matrix(0.961262 -0.275632 0 1 -35123.9 18201.6)">
   <text x="50000" y="30000"  class="fil3 fnt0">拉</text>
  </g>
  <g transform="matrix(0.961262 -0.275632 0 1 -33136.7 19986.5)">
   <text x="50000" y="30000"  class="fil3 fnt0">雅</text>
  </g>
  <g transform="matrix(0.961262 -0.275632 0 1 -30801.8 20900.6)">
   <text x="50000" y="30000"  class="fil3 fnt0">山</text>
  </g>
  <g transform="matrix(0.961262 -0.275632 0 1 -28760.7 22055.4)">
   <text x="50000" y="30000"  class="fil3 fnt0">脉</text>
  </g>
  <g transform="matrix(0.961262 -0.275632 0 1 -17934.3 28408.6)">
   <text x="50000" y="30000"  class="fil3 fnt0">马</text>
  </g>
  <g transform="matrix(0.961262 -0.275632 0 1 -20394.1 27172.7)">
   <text x="50000" y="30000"  class="fil3 fnt0">喜</text>
  </g>
  <g transform="matrix(0.961262 -0.275632 0 1 -15532.1 29591.7)">
   <text x="50000" y="30000"  class="fil3 fnt0">拉</text>
  </g>
  <g transform="matrix(0.961262 -0.275632 0 1 -12639.6 30457.3)">
   <text x="50000" y="30000"  class="fil3 fnt0">雅</text>
  </g>
  <g transform="matrix(0.961262 -0.275632 0 1 -10426.7 32065.5)">
   <text x="50000" y="30000"  class="fil3 fnt0">山</text>
  </g>
  <g transform="matrix(0.961262 -0.275632 0 1 -8443.86 33238.8)">
   <text x="50000" y="30000"  class="fil3 fnt0">脉</text>
  </g>
  <g transform="matrix(0.961262 -0.275632 0 1 7456.34 32752.1)">
   <text x="50000" y="30000"  class="fil3 fnt0">拉</text>
  </g>
  <g transform="matrix(0.961262 -0.275632 0 1 3875.29 32431.6)">
   <text x="50000" y="30000"  class="fil3 fnt0">马</text>
  </g>
  <g transform="matrix(0.961262 -0.275632 0 1 588.937 32783.1)">
   <text x="50000" y="30000"  class="fil3 fnt0">喜</text>
  </g>
  <g transform="matrix(0.961262 -0.275632 0 1 11325.8 33279.1)">
   <text x="50000" y="30000"  class="fil3 fnt0">雅</text>
  </g>
  <g transform="matrix(0.961262 -0.275632 0 1 15329.6 32963.4)">
   <text x="50000" y="30000"  class="fil3 fnt0">山</text>
  </g>
  <g transform="matrix(0.961262 -0.275632 0 1 18866.5 32451.2)">
   <text x="50000" y="30000"  class="fil3 fnt0">脉</text>
  </g>
  <g transform="matrix(0.750046 0 0 1 -17483.3 -13998.6)">
   <text x="50000" y="30000"  class="fil3 fnt1">玉龙塔格峰</text>
  </g>
  <g transform="matrix(1.00006 0 0 1 -29247.2 -13336.7)">
   <text x="50000" y="30000"  class="fil3 fnt1">7167</text>
  </g>
  <g transform="matrix(0.770535 0 0 1 -18995.2 4638.6)">
   <text x="50000" y="30000"  class="fil3 fnt1">冈仁波齐峰</text>
  </g>
  <g transform="matrix(1.00006 0 0 1 -30052.3 5481.3)">
   <text x="50000" y="30000"  class="fil3 fnt1">66</text>
   <text x="50683" y="30000"  class="fil3 fnt1">56</text>
  </g>
  <g transform="matrix(0.750046 0 0 1 5183.24 -17568.3)">
   <text x="50000" y="30000"  class="fil3 fnt1">木孜塔格峰</text>
  </g>
  <g transform="matrix(1.00006 0 0 1 -6580.73 -16906.4)">
   <text x="50000" y="30000"  class="fil3 fnt1">6973</text>
  </g>
  <g transform="matrix(1.00006 0 0 1 5059.22 10164)">
   <text x="50000" y="30000"  class="fil3 fnt1">7162</text>
  </g>
  <g transform="matrix(0.770535 0 0 1 17220.1 9475.95)">
   <text x="50000" y="30000"  class="fil3 fnt1">念青唐古拉峰</text>
  </g>
  <g transform="matrix(0.770483 0 0 1 1949.63 18535.4)">
   <text x="50000" y="30000"  class="fil3 fnt1">珠穆朗玛峰</text>
  </g>
  <g transform="matrix(0.999994 0 0 1 -9709.8 20021.6)">
   <text x="50000" y="30000"  class="fil3 fnt1">8844.43</text>
  </g>
  <g transform="matrix(1.00006 0 0.25883 0.965927 -19604.4 15171.8)">
   <text x="50000" y="30000"  class="fil2 fnt2">雅</text>
  </g>
  <g transform="matrix(1.00006 0 0.25883 0.965927 -17058.4 15071.9)">
   <text x="50000" y="30000"  class="fil2 fnt2">鲁</text>
  </g>
  <g transform="matrix(1.00006 0 0.25883 0.965927 -14500.5 14939)">
   <text x="50000" y="30000"  class="fil2 fnt2">藏</text>
  </g>
  <g transform="matrix(1.00006 0 0.25883 0.965927 -12143.3 14420.5)">
   <text x="50000" y="30000"  class="fil2 fnt2">布</text>
  </g>
  <g transform="matrix(1.00006 0 0.25883 0.965927 -9814.88 14400.3)">
   <text x="50000" y="30000"  class="fil2 fnt2">江</text>
  </g>
  <g transform="matrix(1.00006 0 0.25883 0.965927 10584.5 14575)">
   <text x="50000" y="30000"  class="fil2 fnt2">雅</text>
  </g>
  <g transform="matrix(1.00006 0 0.25883 0.965927 12830.6 12995.5)">
   <text x="50000" y="30000"  class="fil2 fnt2">鲁</text>
  </g>
  <g transform="matrix(1.00006 0 0.25883 0.965927 15870.8 12590.5)">
   <text x="50000" y="30000"  class="fil2 fnt2">藏</text>
  </g>
  <g transform="matrix(1.00006 0 0.25883 0.965927 15840.9 15036.3)">
   <text x="50000" y="30000"  class="fil2 fnt2">布</text>
  </g>
  <g transform="matrix(1.00006 0 0.25883 0.965927 14834.2 17175.6)">
   <text x="50000" y="30000"  class="fil2 fnt2">江</text>
  </g>
  <g transform="matrix(1.00006 0 0.25883 0.965927 24214.5 1397.64)">
   <text x="50000" y="30000"  class="fil2 fnt2">金</text>
  </g>
  <g transform="matrix(1.00006 0 0.25883 0.965927 26130.1 5527.94)">
   <text x="50000" y="30000"  class="fil2 fnt2">沙</text>
  </g>
  <g transform="matrix(1.00006 0 0.25883 0.965927 27937.1 10275.2)">
   <text x="50000" y="30000"  class="fil2 fnt2">江</text>
  </g>
  <g transform="matrix(1.00006 0 0.25883 0.965927 23900.8 8720.18)">
   <text x="50000" y="30000"  class="fil2 fnt3">澜</text>
  </g>
  <g transform="matrix(1.00006 0 0.25883 0.965927 25183.7 9906.83)">
   <text x="50000" y="30000"  class="fil2 fnt3">沧</text>
  </g>
  <g transform="matrix(1.00006 0 0.25883 0.965927 26265.4 11239)">
   <text x="50000" y="30000"  class="fil2 fnt3">江</text>
  </g>
  <g transform="matrix(1.00009 0 0.258823 0.965929 -6620.23 15769.7)">
   <text x="50000" y="30000"  class="fil2 fnt3">年</text>
  </g>
  <g transform="matrix(1.00009 0 0.258823 0.965929 -5356.08 16694.4)">
   <text x="50000" y="30000"  class="fil2 fnt3">楚</text>
  </g>
  <g transform="matrix(1.00009 0 0.258823 0.965929 -4526.93 18359.3)">
   <text x="50000" y="30000"  class="fil2 fnt3">河</text>
  </g>
  <g transform="matrix(1.00009 0 0.258823 0.965929 1329.87 12235.5)">
   <text x="50000" y="30000"  class="fil2 fnt3">河</text>
  </g>
  <g transform="matrix(1.00009 0 0.258823 0.965929 238.919 13015.1)">
   <text x="50000" y="30000"  class="fil2 fnt3">萨</text>
  </g>
  <g transform="matrix(1.00009 0 0.258823 0.965929 -1678.43 14070.2)">
   <text x="50000" y="30000"  class="fil2 fnt3">拉</text>
  </g>
  <g transform="matrix(1.00006 0 0.25883 0.965927 24287.6 12677.4)">
   <text x="50000" y="30000"  class="fil2 fnt3">江</text>
  </g>
  <g transform="matrix(1.00006 0 0.25883 0.965927 23118.9 10834.5)">
   <text x="50000" y="30000"  class="fil2 fnt3">怒</text>
  </g>
  <g transform="matrix(1.00006 0 0 1 10210.3 3847.15)">
   <text x="50000" y="30000"  class="fil1 fnt4">那曲</text>
  </g>
  <g transform="matrix(1.00006 0 0 1 9320.32 13541.8)">
   <text x="50000" y="30000"  class="fil1 fnt4">乃东</text>
  </g>
  <g transform="matrix(1.00006 0 0 1 -2990.33 15348.1)">
   <text x="50000" y="30000"  class="fil1 fnt4">日喀则市</text>
  </g>
  <g transform="matrix(1.00006 0 0 1 -32199.9 -45.2)">
   <text x="50000" y="30000"  class="fil1 fnt4">噶尔</text>
  </g>
  <g transform="matrix(1.00006 0 0 1 30338.6 5108.1)">
   <text x="50000" y="30000"  class="fil1 fnt4">昌都</text>
  </g>
  <g transform="matrix(1.00006 0 0 1 9857.27 -1905.4)">
   <text x="50000" y="30000"  class="fil1 fnt1">唐古拉山口</text>
  </g>
  <g transform="matrix(1.00006 0 0 1 17545 11976.8)">
   <text x="50000" y="30000"  class="fil1 fnt4">林芝</text>
  </g>
  <g transform="matrix(1.00006 0 0 1 -35190.5 -7705)">
   <text x="50000" y="30000"  class="fil3 fnt1">6287</text>
  </g>
  <g transform="matrix(1.00006 0 0 1 29883.6 3476.05)">
   <text x="50000" y="30000"  class="fil3 fnt1">5220</text>
  </g>
  <g transform="matrix(1.00006 0 0 1 15044.6 5175.8)">
   <text x="50000" y="30000"  class="fil3 fnt1">5849</text>
  </g>
  <g transform="matrix(1.00006 0 0 1 27280.7 16485.7)">
   <text x="50000" y="30000"  class="fil3 fnt1">5700</text>
  </g>
  <g transform="matrix(1.00006 0 0 1 -17141.5 745.65)">
   <text x="50000" y="30000"  class="fil3 fnt1">4402</text>
  </g>
  <g transform="matrix(1.00006 0 0 1 -17141.5 745.65)">
  </g>
  <g transform="matrix(1.00006 0 0 1 5294.32 12236.3)">
   <text x="50000" y="30000"  class="fil1 fnt5">拉萨</text>
  </g>
  <g id="_117158024">
   <g transform="matrix(1.00006 0 0.258829 0.965927 -6812.1 5254.43)">
    <text x="50000" y="30000"  class="fil2 fnt6">色林错</text>
   </g>
   <g transform="matrix(1.00006 0 0.258829 0.965927 -5509.35 9177.38)">
    <text x="50000" y="30000"  class="fil2 fnt6">纳木错</text>
   </g>
   <g transform="matrix(1.00006 0 0.258829 0.965927 -132.846 16652.7)">
    <text x="50000" y="30000"  class="fil2 fnt6">羊卓雍错</text>
   </g>
  </g>
  <use transform="scale(0.461402 0.461374)" x="172143" y="75113" width="1338" height="1338" xlink:href="#符号53"/>
  <g id="_216197360">
   <line class="fil4 str6" x1="60216" y1="34014" x2="61865" y2= "34011" />
  </g>
  <line class="fil4 str6" x1="80385" y1="35280" x2="82099" y2= "35280" />
  <use transform="scale(0.461402 0.461374)" x="150318" y="89870" width="1338" height="1338" xlink:href="#符号53"/>
  <line class="fil4 str6" x1="67591" y1="42149" x2="69306" y2= "42149" />
  <use transform="matrix(0.323237 0.329256 -0.329242 0.323212 53941.8 2390.91)" x="49532" y="29532" width="935" height="935" xlink:href="#符号55"/>
  <use transform="scale(0.461402 0.461374)" x="37568" y="62099" width="1338" height="1338" xlink:href="#符号53"/>
  <use transform="scale(0.461402 0.461374)" x="106131" y="94955" width="1338" height="1338" xlink:href="#符号53"/>
  <use transform="scale(0.461402 0.461374)" x="129720" y="95042" width="1338" height="1338" xlink:href="#符号53"/>
  <use transform="scale(0.461402 0.461374)" x="131324" y="74125" width="1338" height="1338" xlink:href="#符号53"/>
  <g id="_216196352">
   <line class="fil4 str6" x1="17838" y1="30132" x2="19548" y2= "30126" />
  </g>
  <g id="_216195800">
   <line class="fil4 str6" x1="47114" y1="45527" x2="50482" y2= "45527" />
  </g>
  <g id="_216192176">
   <line class="fil4 str6" x1="59348" y1="43713" x2="61062" y2= "43714" />
  </g>
  <use transform="scale(0.833307 0.833406)" x="83276" y="49814" width="650" height="650" xlink:href="#符号52"/>
  <use transform="scale(0.681813 0.681825)" x="84171" y="61609" width="1138" height="1138" xlink:href="#符号54"/>
  <use transform="scale(0.7059 0.705904)" x="78393" y="55183" width="470" height="710" xlink:href="#符号57"/>
  <use transform="scale(0.7059 0.705904)" x="30330" y="49632" width="470" height="710" xlink:href="#符号57"/>
  <use transform="scale(0.7059 0.705904)" x="62352" y="18683" width="470" height="710" xlink:href="#符号57"/>
  <use transform="scale(0.7059 0.705904)" x="58761" y="69103" width="470" height="710" xlink:href="#符号57"/>
  <use transform="scale(0.461402 0.461374)" x="31677" y="47868" width="230" height="230" xlink:href="#符号56"/>
  <use transform="scale(0.461402 0.461374)" x="140526" y="75837" width="230" height="230" xlink:href="#符号56"/>
  <use transform="scale(0.461402 0.461374)" x="176307" y="71920" width="230" height="230" xlink:href="#符号56"/>
  <use transform="scale(0.461402 0.461374)" x="170684" y="100145" width="230" height="230" xlink:href="#符号56"/>
  <use transform="scale(0.461402 0.461374)" x="72664" y="66847" width="230" height="230" xlink:href="#符号56"/>
  <circle class="fil1 str0" cx="69665" cy="41777" r="75"/>
  <use transform="scale(0.7059 0.705904)" x="30242" y="23740" width="470" height="710" xlink:href="#符号57"/>
  <polygon class="fil6 str7" points="16234,47801 16234,47801 16234,47804 16233,47807 16232,47810 16230,47812 16228,47814 16225,47816 16222,47817 16219,47818 16216,47818 16214,47818 16211,47817 16208,47815 16206,47813 16204,47811 16202,47808 16201,47806 16201,47803 16201,47800 16201,47797 16202,47794 16204,47791 16206,47789 16208,47787 16211,47786 16214,47785 16216,47785 16219,47785 16222,47785 16225,47786 16228,47788 16230,47790 16232,47793 16233,47795 16234,47798 16234,47801 "/>
  <text x="17237" y="48627"  class="fil1 fnt7">Settlement place</text>
  <text x="17237" y="47343"  class="fil1 fnt8">居民地</text>
  <g transform="matrix(1.2 0 0 1 9649.06 -17142.5)">
   <text x="45149" y="30000"  class="fil1 fnt9">  </text>
   <text x="46031" y="30000"  class="fil1 fnt9">居民点分布</text>
  </g>
  <text x="79451" y="17503"  class="fil1 fnt7">k</text>
  <text x="80033" y="17503"  class="fil1 fnt7">m</text>
  <text x="68097" y="17489"  class="fil1 fnt10">0</text>
  <g transform="matrix(1.05226 0 0 1 19810.5 -12510.8)">
   <text x="50000" y="30000"  class="fil1 fnt7">130</text>
  </g>
  <text x="77419" y="17488"  class="fil1 fnt10">2</text>
  <text x="78001" y="17488"  class="fil1 fnt10">6</text>
  <text x="78583" y="17488"  class="fil1 fnt10">0</text>
  <rect class="fil7 str8" x="68254" y="17820" width="5000" height="400"/>
  <rect class="fil0 str8" x="73254" y="17820" width="5000" height="400"/>
  <text x="60837" y="14785"  class="fil1 fnt11">Distribution of residential area</text>
 </g>
 </g>
</svg>
