<?xml version="1.0" encoding="UTF-8"?>
<!DOCTYPE svg PUBLIC "-//W3C//DTD SVG 1.1//EN" "http://www.w3.org/Graphics/SVG/1.1/DTD/svg11.dtd">
<!-- Creator: CorelDRAW X6 -->
<svg  onload="Init(evt)" x="0px" y="0px" xmlns="http://www.w3.org/2000/svg" xml:space="preserve" width="1000px" height="720px" version="1.1" style="shape-rendering:geometricPrecision; text-rendering:geometricPrecision; image-rendering:optimizeQuality; fill-rule:evenodd; clip-rule:evenodd"
viewBox="0 0 100000 72000"
 xmlns:xlink="http://www.w3.org/1999/xlink">
 <script  xlink:href="../js/Map.js"></script>
 <script language="Javascript">
      <![CDATA[
	var id;
var bar;
 var done = 0;
function ProgressBar(info) {
    var stem = {}; // 此函数最后返回的代表进度条的对象。
    var length, outline, barr; // 声明内部变量。
    barr = document.getElementById('done'); // 进度条中绿色的变化部分。
    length = 50400;
    var ll=barr.getAttribute("width");
    function reset() {
        return to(0);
    }
    // 设置进度到某个值。
    function to(value) {
        if (value >= 50400) {
            done = 50400;
            barr.setAttribute('width', length);
        } else {
            done = value;
            barr.setAttribute('width', Math.round(done * length / 50400));
        }
        return stem;
    }
    // 进度变化某个值。
    function advance(step) {
        return to(done + step);
    }
    // 以下给进度条对象添加方法。
    // 获得当前进度值。
    stem.getDone = function() {
        return done
    };
    stem.reset = reset;
    stem.to = to;
    stem.advance = advance;
    return stem; // 返回可供脚本使用的进度条对象。
}
// 测试进度条对象。
function testBar() {
     bar = ProgressBar();
    // 此内部函数每运行一次，增加进度值 1，直到进度值为 100。
    function test() {
        if (bar.getDone() === 44800) {
            clearInterval(id);
        } else {
            bar.advance(100);

            if (bar.getDone() === 0) {

                document.getElementById("layer_1").style.display = "block";
                document.getElementById("layer_2").style.display = "none";
                document.getElementById("layer_3").style.display = "none";
                document.getElementById("layer_4").style.display = "none";
                document.getElementById("layer_5").style.display = "none";
            } else if (bar.getDone() === 11200) {

                document.getElementById('layer_2').style.display = "block";
                document.getElementById("layer_1").style.display = "none";
                document.getElementById("layer_3").style.display = "none";
                document.getElementById("layer_4").style.display = "none";
                document.getElementById("layer_5").style.display = "none";
            } else if (bar.getDone() === 22400) {
                document.getElementById('layer_3').style.display = "block";
                document.getElementById("layer_1").style.display = "none";
                document.getElementById("layer_2").style.display = "none";
                document.getElementById("layer_4").style.display = "none";
                document.getElementById("layer_5").style.display = "none";
            } else if (bar.getDone() === 33600) {
                document.getElementById('layer_4').style.display = "block";
                document.getElementById("layer_1").style.display = "none";
                document.getElementById("layer_2").style.display = "none";
                document.getElementById("layer_3").style.display = "none";
                document.getElementById("layer_5").style.display = "none";
            } else if (bar.getDone() === 44800) {
                document.getElementById('layer_5').style.display = "block";
                document.getElementById("layer_1").style.display = "none";
                document.getElementById("layer_2").style.display = "none";
                document.getElementById("layer_3").style.display = "none";
                document.getElementById("layer_4").style.display = "none";
            } 
        }
    }
    // 每十分之一秒改变一次进度。
     id = setInterval(test, 100);
}
// 页面载入后开始测试。
//window.addEventListener('load', testBar, true);
function SetLength(length) {
    document.getElementById('done').setAttribute('width', length);
    if (length == 0) {
        document.getElementById("layer_1").style.display = "block";
        document.getElementById("layer_2").style.display = "none";
        document.getElementById("layer_3").style.display = "none";
        document.getElementById("layer_4").style.display = "none";
        document.getElementById("layer_5").style.display = "none";
    } else if (length == 11200) {
        document.getElementById('layer_2').style.display = "block";
        document.getElementById("layer_1").style.display = "none";
        document.getElementById("layer_3").style.display = "none";
        document.getElementById("layer_4").style.display = "none";
        document.getElementById("layer_5").style.display = "none";
    } else if (length == 22400) {
        document.getElementById('layer_3').style.display = "block";
        document.getElementById("layer_1").style.display = "none";
        document.getElementById("layer_2").style.display = "none";
        document.getElementById("layer_4").style.display = "none";
        document.getElementById("layer_5").style.display = "none";
    } else if (length == 33600) {
        document.getElementById('layer_4').style.display = "block";
        document.getElementById("layer_1").style.display = "none";
        document.getElementById("layer_2").style.display = "none";
        document.getElementById("layer_3").style.display = "none";
        document.getElementById("layer_5").style.display = "none";
    } else if (length == 44800) {
        document.getElementById('layer_5').style.display = "block";
        document.getElementById("layer_1").style.display = "none";
        document.getElementById("layer_2").style.display = "none";
        document.getElementById("layer_3").style.display = "none";
        document.getElementById("layer_4").style.display = "none";
    }
}
 function play()
	  {
	 
	  testBar();
	  }
	   ]]>  
    </script>
 <defs>
  <style type="text/css">
   <![CDATA[
    .str0 {stroke:#332C2B;stroke-width:30.48}
    .str2 {stroke:#00A2E9;stroke-width:32;stroke-linejoin:round}
    .str3 {stroke:#332C2B;stroke-width:40}
    .str1 {stroke:#332C2B;stroke-width:40;stroke-linejoin:round}
    .str4 {stroke:#6D583D;stroke-width:40;stroke-linejoin:round}
    .str5 {stroke:#823520;stroke-width:40;stroke-linejoin:round}
    .str8 {stroke:#332C2B;stroke-width:48}
    .str6 {stroke:#FEFEFE;stroke-width:80}
    .str7 {stroke:#FEFEFE;stroke-width:80;stroke-linejoin:round}
    .fil1 {fill:none}
    .fil2 {fill:#332C2B}
    .fil0 {fill:#FEFEFE}
    .fil3 {fill:#00A2E9}
    .fil4 {fill:#6D583D}
    .fil5 {fill:#823520}
    .fil6 {fill:#C7D2E1}
    .fnt2 {font-weight:normal;font-size:846.68px;font-family:'Times New Roman'}
    .fnt3 {font-weight:normal;font-size:987.76px;font-family:'Times New Roman'}
    .fnt1 {font-weight:normal;font-size:1128.88px;font-family:'Arial'}
    .fnt0 {font-weight:normal;font-size:1411.12px;font-family:'方正准圆简体'}
    .fnt4 {font-weight:normal;font-size:1481.68px;font-family:'Arial'}
    .fnt5 {font-weight:normal;font-size:1481.68px;font-family:'黑体'}
    .fnt7 {font-weight:normal;font-size:1834.44px;font-family:'Arial'}
    .fnt6 {font-weight:normal;font-size:1834.44px;font-family:'黑体'}
   ]]>
  </style>
   <clipPath id="id0">
    <rect x="10516" y="5478" width="76098" height="54288"/>
   </clipPath>
   <clipPath id="id1">
    <rect x="10516" y="5478" width="75353" height="53577"/>
   </clipPath>
   <clipPath id="id2">
    <rect x="10516" y="5478" width="75286" height="53882"/>
   </clipPath>
   <clipPath id="id3">
    <rect x="10516" y="5478" width="75523" height="54288"/>
   </clipPath>
   <clipPath id="id4">
    <rect x="10516" y="5478" width="75963" height="54288"/>
   </clipPath>
    <clipPath id="id5">
     <rect x="18447" y="41149" width="2080" height="7800"/>
    </clipPath>
 </defs>
  <g id="map">
<symbol id="符号44" viewBox="49758 35758 484 484">
 <circle class="fil0 str0" cx="50000" cy="36000" r="227"/>
 <circle class="fil1 str0" cx="50000" cy="36000" r="81"/>
</symbol>
<symbol id="符号33" viewBox="49740 35740 520 520">
 <path class="fil0 str1" d="M50240 36000c0,-133 -107,-240 -240,-240 -133,0 -240,107 -240,240 0,133 107,240 240,240 133,0 240,-107 240,-240z"/>
 <circle class="fil2 str0" cx="50000" cy="36000" r="60"/>
</symbol>
<symbol id="符号23" viewBox="49545 35545 910 910">
 <circle class="fil0 str0" cx="50000" cy="36000" r="440"/>
 <circle class="fil2 str0" cx="50000" cy="36000" r="260"/>
</symbol>
<symbol id="符号12" viewBox="49740 35740 520 520">
 <path class="fil0 str1" d="M50240 36000c0,-133 -107,-240 -240,-240 -133,0 -240,107 -240,240 0,133 107,240 240,240 133,0 240,-107 240,-240z"/>
</symbol>
<symbol id="符号5" viewBox="49740 35740 520 520">
 <path class="fil0 str1" d="M50240 36000c0,-133 -107,-240 -240,-240 -133,0 -240,107 -240,240 0,133 107,240 240,240 133,0 240,-107 240,-240z"/>
</symbol>
<symbol id="符号4" viewBox="49664 35856 656 288">
 <polygon class="fil3" points="49908,35960 49910,35960 49916,35960 49924,35961 49936,35961 49950,35960 49965,35960 49983,35959 50001,35958 50020,35957 50040,35954 50059,35951 50078,35948 50095,35943 50112,35938 50126,35931 50139,35924 50150,35916 50161,35908 50172,35902 50184,35895 50195,35890 50206,35885 50217,35882 50228,35879 50239,35877 50250,35877 50261,35877 50272,35879 50284,35882 50295,35886 50320,35905 50320,35906 50316,35906 50310,35905 50302,35904 50292,35903 50281,35902 50269,35902 50256,35902 50243,35904 50229,35907 50215,35911 50201,35917 50187,35925 50174,35935 50161,35948 50142,35961 50123,35973 50103,35983 50083,35993 50064,36001 50045,36008 50027,36015 50010,36020 49994,36024 49980,36028 49956,36035 49947,36036 49936,36038 49930,36039 "/>
 <path class="fil3 str2" d="M49938 36000c0,-71 -58,-128 -129,-128 -71,0 -129,57 -129,128 0,71 58,128 129,128 71,0 129,-57 129,-128z"/>
</symbol>
<symbol id="符号43" viewBox="49740 35740 520 520">
 <path class="fil0 str1" d="M50240 36000c0,-133 -107,-240 -240,-240 -133,0 -240,107 -240,240 0,133 107,240 240,240 133,0 240,-107 240,-240z"/>
</symbol>
<symbol id="符号38" viewBox="49677 35400 646 1200">
 <polygon class="fil4" points="49685,36600 49996,35400 50323,36600 49677,36600 "/>
</symbol>
<symbol id="符号30" viewBox="49746 35746 508 508">
 <line class="fil1 str3" x1="49760" y1="35760" x2="50240" y2= "36240" />
 <line class="fil1 str3" x1="49760" y1="36240" x2="50240" y2= "35760" />
</symbol>
<symbol id="符号26" viewBox="49812 35716 376 568">
 <polygon class="fil4" points="49817,36284 49998,35716 50188,36284 49812,36284 "/>
</symbol>
<symbol id="符号7" viewBox="49545 35545 910 910">
 <circle class="fil0 str0" cx="50000" cy="36000" r="440"/>
 <circle class="fil2 str0" cx="50000" cy="36000" r="260"/>
</symbol>
<symbol id="符号9" viewBox="49745 35745 510 510">
 <circle class="fil0 str0" cx="50000" cy="36000" r="240"/>
 <circle class="fil1 str0" cx="50000" cy="36000" r="90"/>
</symbol>
<symbol id="符号36" viewBox="49626 35626 748 748">
 <rect class="fil0" x="49640" y="35640" width="720" height="720"/>
 <line class="fil1 str3" x1="49640" y1="35640" x2="50360" y2= "36360" />
 <line class="fil1 str3" x1="49640" y1="36360" x2="50360" y2= "35640" />
</symbol>
<symbol id="符号24" viewBox="49746 35746 508 508">
 <rect class="fil0" x="49760" y="35760" width="480" height="480"/>
 <line class="fil1 str3" x1="49760" y1="35760" x2="50240" y2= "36240" />
 <line class="fil1 str3" x1="49760" y1="36240" x2="50240" y2= "35760" />
</symbol>
<symbol id="符号37" viewBox="49830 35830 340 340">
 <path class="fil4 str4" d="M50150 36000c0,-83 -67,-150 -150,-150 -83,0 -150,67 -150,150 0,83 67,150 150,150 83,0 150,-67 150,-150z"/>
</symbol>
<symbol id="符号34" viewBox="49380 35380 1240 1240">
 <circle class="fil0 str3" cx="50000" cy="36000" r="600"/>
 <circle class="fil1 str3" cx="50000" cy="36000" r="225"/>
</symbol>
<symbol id="符号25" viewBox="49908 35908 184 184">
 <path class="fil4 str4" d="M50072 36000c0,-40 -32,-72 -72,-72 -40,0 -72,32 -72,72 0,40 32,72 72,72 40,0 72,-32 72,-72z"/>
</symbol>
<symbol id="符号8" viewBox="49740 35740 520 520">
 <path class="fil0 str1" d="M50240 36000c0,-133 -107,-240 -240,-240 -133,0 -240,107 -240,240 0,133 107,240 240,240 133,0 240,-107 240,-240z"/>
</symbol>
<symbol id="符号1" viewBox="49840 35760 320 480">
 <polygon class="fil5" points="49844,36240 49998,35760 50160,36240 49840,36240 "/>
</symbol>
<symbol id="符号14" viewBox="49740 35740 520 520">
 <path class="fil0 str1" d="M50240 36000c0,-133 -107,-240 -240,-240 -133,0 -240,107 -240,240 0,133 107,240 240,240 133,0 240,-107 240,-240z"/>
</symbol>
<symbol id="符号39" viewBox="49812 35716 376 568">
 <polygon class="fil4" points="49817,36284 49998,35716 50188,36284 49812,36284 "/>
</symbol>
<symbol id="符号18" viewBox="49835 35835 329 329">
 <rect class="fil0" x="49850" y="35850" width="301" height="301"/>
 <line class="fil1 str3" x1="49850" y1="35850" x2="50150" y2= "36150" />
 <line class="fil1 str3" x1="49850" y1="36150" x2="50150" y2= "35850" />
</symbol>
<symbol id="符号13" viewBox="49745 35745 510 510">
 <circle class="fil0 str0" cx="50000" cy="36000" r="240"/>
 <circle class="fil1 str0" cx="50000" cy="36000" r="90"/>
</symbol>
<symbol id="符号20" viewBox="49858 35786 284 428">
 <polygon class="fil5" points="49862,36214 49998,35786 50142,36214 49858,36214 "/>
</symbol>
<symbol id="符号19" viewBox="49930 35930 140 140">
 <path class="fil5 str5" d="M50050 36000c0,-28 -22,-50 -50,-50 -28,0 -50,22 -50,50 0,28 22,50 50,50 28,0 50,-22 50,-50z"/>
</symbol>
<symbol id="符号50" viewBox="49540 35540 920 920">
 <circle class="fil0 str3" cx="50000" cy="36000" r="440"/>
 <circle class="fil2 str3" cx="50000" cy="36000" r="260"/>
</symbol>
<symbol id="符号16" viewBox="49545 35545 910 910">
 <circle class="fil0 str0" cx="50000" cy="36000" r="440"/>
 <circle class="fil2 str0" cx="50000" cy="36000" r="260"/>
</symbol>
<symbol id="符号2" viewBox="49920 35920 160 160">
 <path class="fil5 str5" d="M50060 36000c0,-33 -27,-60 -60,-60 -33,0 -60,27 -60,60 0,33 27,60 60,60 33,0 60,-27 60,-60z"/>
</symbol>
<symbol id="符号45" viewBox="49545 35545 910 910">
 <circle class="fil0 str0" cx="50000" cy="36000" r="440"/>
 <circle class="fil2 str0" cx="50000" cy="36000" r="260"/>
</symbol>
<symbol id="符号41" viewBox="49685 35685 630 630">
 <circle class="fil0 str0" cx="50000" cy="36000" r="300"/>
 <circle class="fil1 str0" cx="50000" cy="36000" r="112"/>
</symbol>
<symbol id="符号11" viewBox="49545 35545 910 910">
 <circle class="fil0 str0" cx="50000" cy="36000" r="440"/>
 <circle class="fil2 str0" cx="50000" cy="36000" r="260"/>
</symbol>
<symbol id="符号48" viewBox="49823 35658 374 596">
 <polygon class="fil1 str6" points="49862,36214 49998,35786 50142,36214 49858,36214 "/>
 <polygon id="1" class="fil4" points="49862,36214 49998,35786 50142,36214 49858,36214 "/>
</symbol>
<symbol id="符号46" viewBox="49835 35835 329 329">
 <line class="fil1 str3" x1="49850" y1="35850" x2="50150" y2= "36150" />
 <line class="fil1 str3" x1="49850" y1="36150" x2="50150" y2= "35850" />
</symbol>
<symbol id="符号22" viewBox="49701 35701 598 598">
 <circle class="fil0 str0" cx="50000" cy="36000" r="284"/>
 <circle class="fil1 str0" cx="50000" cy="36000" r="106"/>
</symbol>
<symbol id="符号40" viewBox="49740 35740 520 520">
 <path class="fil0 str1" d="M50240 36000c0,-133 -107,-240 -240,-240 -133,0 -240,107 -240,240 0,133 107,240 240,240 133,0 240,-107 240,-240z"/>
</symbol>
<symbol id="符号3" viewBox="49746 35746 508 508">
 <rect class="fil0" x="49760" y="35760" width="480" height="480"/>
 <line class="fil1 str3" x1="49760" y1="35760" x2="50240" y2= "36240" />
 <line class="fil1 str3" x1="49760" y1="36240" x2="50240" y2= "35760" />
</symbol>
<symbol id="符号32" viewBox="49840 35760 320 480">
 <polygon class="fil4" points="49844,36240 49998,35760 50160,36240 49840,36240 "/>
</symbol>
<symbol id="符号28" viewBox="49745 35745 510 510">
 <circle class="fil0 str0" cx="50000" cy="36000" r="240"/>
 <circle class="fil1 str0" cx="50000" cy="36000" r="90"/>
</symbol>
<symbol id="符号21" viewBox="49740 35740 520 520">
 <path class="fil0 str1" d="M50240 36000c0,-133 -107,-240 -240,-240 -133,0 -240,107 -240,240 0,133 107,240 240,240 133,0 240,-107 240,-240z"/>
</symbol>
<symbol id="符号17" viewBox="49701 35871 582 258">
 <polygon class="fil3" points="49919,35965 49921,35965 49925,35965 49933,35965 49943,35965 49955,35965 49969,35965 49985,35964 50001,35963 50018,35962 50035,35960 50052,35957 50069,35954 50084,35950 50099,35945 50112,35939 50123,35933 50133,35926 50143,35919 50153,35913 50162,35908 50172,35903 50182,35899 50192,35896 50201,35893 50211,35892 50221,35891 50231,35892 50241,35893 50251,35896 50261,35900 50283,35916 50283,35917 50280,35917 50274,35916 50267,35915 50258,35914 50249,35913 50238,35913 50227,35914 50215,35915 50202,35918 50190,35921 50178,35927 50165,35934 50154,35943 50143,35954 50126,35965 50108,35976 50091,35985 50074,35994 50057,36001 50040,36007 50024,36013 50009,36018 49995,36021 49982,36025 49961,36030 49953,36032 49944,36034 49938,36034 "/>
 <path class="fil3 str2" d="M49945 36000c0,-62 -51,-113 -114,-113 -63,0 -114,51 -114,113 0,62 51,113 114,113 63,0 114,-51 114,-113z"/>
</symbol>
<symbol id="符号47" viewBox="49910 35910 180 180">
 <path class="fil1 str7" d="M50050 36000c0,-28 -22,-50 -50,-50 -28,0 -50,22 -50,50 0,28 22,50 50,50 28,0 50,-22 50,-50z"/>
 <path id="1" class="fil4" d="M50050 36000c0,-28 -22,-50 -50,-50 -28,0 -50,22 -50,50 0,28 22,50 50,50 28,0 50,-22 50,-50z"/>
</symbol>
<symbol id="符号35" viewBox="49540 35540 920 920">
 <circle class="fil0 str3" cx="50000" cy="36000" r="440"/>
 <circle class="fil2 str3" cx="50000" cy="36000" r="260"/>
</symbol>
<symbol id="符号27" viewBox="49740 35740 520 520">
 <path class="fil0 str1" d="M50240 36000c0,-133 -107,-240 -240,-240 -133,0 -240,107 -240,240 0,133 107,240 240,240 133,0 240,-107 240,-240z"/>
</symbol>
<symbol id="符号10" viewBox="49545 35545 910 910">
 <circle class="fil0 str0" cx="50000" cy="36000" r="440"/>
 <circle class="fil2 str0" cx="50000" cy="36000" r="260"/>
</symbol>
<symbol id="符号49" viewBox="49380 35380 1240 1240">
 <circle class="fil0 str3" cx="50000" cy="36000" r="600"/>
 <circle class="fil1 str3" cx="50000" cy="36000" r="225"/>
</symbol>
<symbol id="符号42" viewBox="49545 35545 910 910">
 <circle class="fil0 str0" cx="50000" cy="36000" r="440"/>
 <circle class="fil2 str0" cx="50000" cy="36000" r="260"/>
</symbol>
<symbol id="符号31" viewBox="49920 35920 160 160">
 <path class="fil4 str4" d="M50060 36000c0,-33 -27,-60 -60,-60 -33,0 -60,27 -60,60 0,33 27,60 60,60 33,0 60,-27 60,-60z"/>
</symbol>
<symbol id="符号29" viewBox="49545 35545 910 910">
 <circle class="fil0 str0" cx="50000" cy="36000" r="440"/>
 <circle class="fil2 str0" cx="50000" cy="36000" r="260"/>
</symbol>
<symbol id="符号15" viewBox="49758 35758 484 484">
 <circle class="fil0 str0" cx="50000" cy="36000" r="227"/>
 <circle class="fil1 str0" cx="50000" cy="36000" r="81"/>
</symbol>
<symbol id="符号6" viewBox="49745 35745 510 510">
 <circle class="fil0 str0" cx="50000" cy="36000" r="240"/>
 <circle class="fil1 str0" cx="50000" cy="36000" r="90"/>
</symbol>
 <g id="layer_5">
  <metadata id="CorelCorpID_0Corel-Layer"/>
  <g style="clip-path:url(#id0)">
   <image id="_94-95NDVI2004.png" x="10516" y="5478" width="76098" height="54288" xlink:href="94-95_ImgID1.png"/>
  </g>
  <g transform="matrix(1.2 0 0 1 4055.54 -21158.9)">
   <text x="50000" y="36000"  class="fil2 fnt0">2004</text>
   <text x="54432" y="36000"  class="fil2 fnt0">NDVI</text>
   <text x="53021" y="36000"  class="fil2 fnt0">年</text>
   <text x="57331" y="36000"  class="fil2 fnt0">最大值</text>
  </g>
  <g transform="matrix(1 0 0 1 13552.2 -19557.1)">
   <text x="50000" y="36000"  class="fil2 fnt1">Maximum NDVI value in 2004</text>
  </g>
  <text x="78434" y="18695"  class="fil2 fnt2">k</text>
  <text x="78900" y="18695"  class="fil2 fnt2">m</text>
  <text x="69251" y="18679"  class="fil2 fnt2">0</text>
  <g transform="matrix(1.05226 0 0 1 21492.5 -17377.6)">
   <text x="48762" y="36000"  class="fil2 fnt2">110</text>
  </g>
  <text x="76813" y="18679"  class="fil2 fnt2">2</text>
  <text x="77279" y="18679"  class="fil2 fnt2">2</text>
  <text x="77745" y="18679"  class="fil2 fnt2">0</text>
  <rect class="fil6 str8" x="69435" y="18944" width="4000" height="320"/>
  <rect class="fil0 str8" x="73435" y="18944" width="4000" height="320"/>
 </g>
 <g id="layer_4">
  <metadata id="CorelCorpID_1Corel-Layer"/>
  <g style="clip-path:url(#id1)">
   <image id="_94-95NDVI2003.png" x="10516" y="5478" width="75353" height="53577" xlink:href="94-95_ImgID2.png"/>
  </g>
  <g transform="matrix(1.2 0 0 1 4055.56 -21158.9)">
   <text x="50000" y="36000"  class="fil2 fnt0">2003</text>
   <text x="54432" y="36000"  class="fil2 fnt0">NDVI</text>
   <text x="53021" y="36000"  class="fil2 fnt0">年</text>
   <text x="57331" y="36000"  class="fil2 fnt0">最大值</text>
  </g>
  <g transform="matrix(1 0 0 1 13550.6 -19600)">
   <text x="50000" y="36000"  class="fil2 fnt1">Maximum NDVI value in 2003</text>
  </g>
  <text x="78434" y="18673"  class="fil2 fnt2">k</text>
  <text x="78900" y="18673"  class="fil2 fnt2">m</text>
  <text x="69251" y="18658"  class="fil2 fnt2">0</text>
  <g transform="matrix(1.05226 0 0 1 21492.5 -17399.2)">
   <text x="48762" y="36000"  class="fil2 fnt2">110</text>
  </g>
  <text x="76813" y="18658"  class="fil2 fnt2">2</text>
  <text x="77279" y="18658"  class="fil2 fnt2">2</text>
  <text x="77745" y="18658"  class="fil2 fnt2">0</text>
  <rect class="fil6 str8" x="69435" y="18923" width="4000" height="320"/>
  <rect class="fil0 str8" x="73435" y="18923" width="4000" height="320"/>
 </g>
 <g id="layer_3">
  <metadata id="CorelCorpID_2Corel-Layer"/>
  <g style="clip-path:url(#id2)">
   <image id="_94-95NDVI2002.png" x="10516" y="5478" width="75286" height="53882" xlink:href="94-95_ImgID3.png"/>
  </g>
  <g transform="matrix(1.2 0 0 1 4055.57 -21158.9)">
   <text x="50000" y="36000"  class="fil2 fnt0">2002</text>
   <text x="54432" y="36000"  class="fil2 fnt0">NDVI</text>
   <text x="53021" y="36000"  class="fil2 fnt0">年</text>
   <text x="57331" y="36000"  class="fil2 fnt0">最大值</text>
  </g>
  <g transform="matrix(1 0 0 1 13554.6 -19614.5)">
   <text x="50000" y="36000"  class="fil2 fnt1">Maximum NDVI value in 2002</text>
  </g>
  <text x="78434" y="18610"  class="fil2 fnt2">k</text>
  <text x="78900" y="18610"  class="fil2 fnt2">m</text>
  <text x="69251" y="18594"  class="fil2 fnt2">0</text>
  <g transform="matrix(1.05226 0 0 1 21492.5 -17462.4)">
   <text x="48762" y="36000"  class="fil2 fnt2">110</text>
  </g>
  <text x="76813" y="18594"  class="fil2 fnt2">2</text>
  <text x="77279" y="18594"  class="fil2 fnt2">2</text>
  <text x="77745" y="18594"  class="fil2 fnt2">0</text>
  <rect class="fil6 str8" x="69435" y="18860" width="4000" height="320"/>
  <rect class="fil0 str8" x="73435" y="18860" width="4000" height="320"/>
 </g>
 <g id="layer_2">
  <metadata id="CorelCorpID_3Corel-Layer"/>
  <g style="clip-path:url(#id3)">
   <image id="_94-95NDVI2001.png" x="10516" y="5478" width="75523" height="54288" xlink:href="94-95_ImgID4.png"/>
  </g>
  <g transform="matrix(1.2 0 0 1 4211.07 -21158.9)">
   <text x="50000" y="36000"  class="fil2 fnt0">2001</text>
   <text x="54173" y="36000"  class="fil2 fnt0">NDVI</text>
   <text x="52762" y="36000"  class="fil2 fnt0">年</text>
   <text x="57072" y="36000"  class="fil2 fnt0">最大值</text>
  </g>
  <g transform="matrix(1 0 0 1 13628.6 -19600)">
   <text x="50000" y="36000"  class="fil2 fnt1">Maximum NDVI value in 2001</text>
  </g>
  <text x="78434" y="18644"  class="fil2 fnt2">k</text>
  <text x="78900" y="18644"  class="fil2 fnt2">m</text>
  <text x="69251" y="18629"  class="fil2 fnt2">0</text>
  <g transform="matrix(1.05226 0 0 1 21492.5 -17428)">
   <text x="48762" y="36000"  class="fil2 fnt2">110</text>
  </g>
  <text x="76813" y="18629"  class="fil2 fnt2">2</text>
  <text x="77279" y="18629"  class="fil2 fnt2">2</text>
  <text x="77745" y="18629"  class="fil2 fnt2">0</text>
  <rect class="fil6 str8" x="69435" y="18894" width="4000" height="320"/>
  <rect class="fil0 str8" x="73435" y="18894" width="4000" height="320"/>
 </g>
 <g id="layer_1">
  <metadata id="CorelCorpID_4Corel-Layer"/>
  <g style="clip-path:url(#id4)">
   <image id="_94-95NDVI2000.png" x="10516" y="5478" width="75963" height="54288" xlink:href="94-95_ImgID5.png"/>
  </g>
  <g transform="matrix(1.2 0 0 1 4227.13 -21158.9)">
   <text x="50000" y="36000"  class="fil2 fnt0">2000</text>
   <text x="54432" y="36000"  class="fil2 fnt0">NDVI</text>
   <text x="53021" y="36000"  class="fil2 fnt0">年</text>
   <text x="57331" y="36000"  class="fil2 fnt0">最大值</text>
  </g>
  <g transform="matrix(1 0 0 1 13723.5 -19621.5)">
   <text x="50000" y="36000"  class="fil2 fnt1">Maximum NDVI value in 2000</text>
  </g>
  <text x="78434" y="18619"  class="fil2 fnt2">k</text>
  <text x="78900" y="18619"  class="fil2 fnt2">m</text>
  <text x="69251" y="18603"  class="fil2 fnt2">0</text>
  <g transform="matrix(1.05226 0 0 1 21492.5 -17453.4)">
   <text x="48762" y="36000"  class="fil2 fnt2">110</text>
  </g>
  <text x="76813" y="18603"  class="fil2 fnt2">2</text>
  <text x="77279" y="18603"  class="fil2 fnt2">2</text>
  <text x="77745" y="18603"  class="fil2 fnt2">0</text>
  <rect class="fil6 str8" x="69435" y="18869" width="4000" height="320"/>
  <rect class="fil0 str8" x="73435" y="18869" width="4000" height="320"/>
 </g>
 <g id="图层_x0020_1">
  <metadata id="CorelCorpID_5Corel-Layer"/>
  <g id="_382351656">
   <g style="clip-path:url(#id5)">
    <image x="18447" y="41149" width="2080" height="7800" xlink:href="94-95_ImgID6.png"/>
   </g>
   <rect class="fil1 str3" x="18435" y="41165" width="2080" height="7800"/>
   <text x="21039" y="42345"  class="fil2 fnt3">1</text>
   <text x="21033" y="48393"  class="fil2 fnt3">0</text>
  </g>
 </g>
 <g id="图名例">
  <metadata id="CorelCorpID_6Corel-Layer"/>
  <text x="35741" y="9199"  class="fil2 fnt4">Maximum NDVI value of Tibet during 2000</text>
  <text x="65059" y="9199"  class="fil2 fnt4">2004</text>
  <text x="63577" y="9199"  class="fil2 fnt5">～</text>
  <g transform="matrix(1.2 0 0 1 -23925.1 -28666.2)">
   <text x="50000" y="36000"  class="fil2 fnt6">西藏</text>
   <text x="58052" y="36000"  class="fil2 fnt6">(</text>
   <text x="63050" y="36000"  class="fil2 fnt6">～</text>
   <text x="68965" y="36000"  class="fil2 fnt6">年)最大值</text>
   <text x="53669" y="36000"  class="fil2 fnt7">NDVI</text>
   <text x="58969" y="36000"  class="fil2 fnt7">2000</text>
   <text x="64884" y="36000"  class="fil2 fnt7">2004</text>
  </g>
 </g>
 <g transform ="translate(5500,-1000)">
	<circle fill="#B6B6B7" onclick="play()" cx="24614" cy="54880" r="982"/>
    <polygon fill="#FEFEFE" onclick="play()" points="25171,54871 24746,55103 24321,55336 24321,54871 24321,54405 24746,54638 "/>
	
  </g>
  <g id='progBar' transform ="translate(18000,5000)"> 
    <rect x='12000' y='51000' width='44800' height='600' stroke='grey' fill='white' stroke-width='250' ry="300" rx="300"/> 
	<rect id='done' x='12000' y='51000' width='0' height='600' fill='grey' fill-opacity="0.5" ry="300" rx="300"/>
	<circle onclick="SetLength(0)" style="cursor:pointer;" r="500" cx="12000" cy="51300" fill='grey' ></circle>
	<text x="12000" y="53000"  font-family="黑体" font-size="800" fill="#000000" stroke="none" stroke-opacity="0" >
    2000年</text>
   
    <circle onclick="SetLength(11200)" style="cursor:pointer;" r="500" cx="23200" cy="51300" fill='grey' ></circle>
	<text x="23200" y="53000"  font-family="黑体" font-size="800" fill="#000000" stroke="none" stroke-opacity="0" >
    2001年</text>
	
	<circle onclick="SetLength(22400)" style="cursor:pointer;" r="500" cx="34400" cy="51300" fill='grey' ></circle>
	<text x="34400" y="53000"  font-family="黑体" font-size="800" fill="#000000" stroke="none" stroke-opacity="0" >
    2002年</text>
	
	<circle onclick="SetLength(33600)" style="cursor:pointer;" r="500" cx="45600" cy="51300" fill='grey' ></circle>
	<text x="45600" y="53000"  font-family="黑体" font-size="800" fill="#000000" stroke="none" stroke-opacity="0" >
    2003年</text>
	<circle onclick="SetLength(44800)" style="cursor:pointer;" r="500" cx="56800" cy="51300" fill='grey' ></circle>
	<text x="56800" y="53000"  font-family="黑体" font-size="800" fill="#000000" stroke="none" stroke-opacity="0" >
    2004年</text>
	
	
	<text x="26000" y="50000" font-family="黑体" font-size="1200" fill="#000000" stroke="none" stroke-opacity="0" >
	西藏NDVI(2000~2004年)最大值</text>
	</g>
	
	</g> 
</svg>
