<?xml version="1.0" encoding="UTF-8"?>
<!DOCTYPE svg PUBLIC "-//W3C//DTD SVG 1.1//EN" "http://www.w3.org/Graphics/SVG/1.1/DTD/svg11.dtd">
<!-- Creator: CorelDRAW X6 -->
<svg onload="Init(evt)" xmlns="http://www.w3.org/2000/svg" xml:space="preserve" width="1000px" height="680px" version="1.1" style="shape-rendering:geometricPrecision; text-rendering:geometricPrecision; image-rendering:optimizeQuality; fill-rule:evenodd; clip-rule:evenodd"
viewBox="0 0 10000 6800"
 xmlns:xlink="http://www.w3.org/1999/xlink">
 <defs>
 <script  xlink:href="../js/Map0_2.js"></script>
 <script type="text/javascript">
 
 function changecolor(evt){

document.getElementById('button').setAttribute("class","fil8" );
}
function recover(evt){
document.getElementById('button').setAttribute("class","fil6" );
}
function shuomin(){
   document.getElementById('arrow').setAttribute("style", "visibility: visible");
  var t=setTimeout("hideshoumin()",1000)
 }
 
 function timeshow(){
  document.getElementById('mountainr1').setAttribute("style", "visibility: hidden");
  document.getElementById('mountainr2').setAttribute("style", "visibility: hidden");
	document.getElementById('mountainr3').setAttribute("style", "visibility: hidden");
	document.getElementById('peak1').setAttribute("style", "visibility: hidden");
	document.getElementById('peak2').setAttribute("style", "visibility: hidden");
document.getElementById('peak3').setAttribute("style", "visibility: hidden");
document.getElementById('explain1').setAttribute("style", "visibility: visible");
 var t=setTimeout("showExplain1()",700)
 }
 function showExplain1(){
 
  document.getElementById('mountainr1').setAttribute("style", "visibility: visible");
 document.getElementById('peak1').setAttribute("style", "visibility: visible");
 document.getElementById('mountainr2').setAttribute("style", "visibility: visible");
 document.getElementById('peak2').setAttribute("style", "visibility: visible");
var t=setTimeout("hideExplain1()",1800)
 }
  function hideExplain1(){

document.getElementById('explain1').setAttribute("style", "visibility: hidden");
  document.getElementById('explain2').setAttribute("style", "visibility: visible");

var t=setTimeout("showExplain2()",1200)
  }  
 
  function showExplain2(){
document.getElementById('mountainr3').setAttribute("style", "visibility: visible");
document.getElementById('peak3').setAttribute("style", "visibility: visible");
var t=setTimeout("hideExplain2()",2000)
 }
   function hideExplain2(){
document.getElementById('explain2').setAttribute("style", "visibility: hidden");

  }  
  function closeinfotip(n)
{
  document.getElementById('infotip'+n).setAttribute("style", "visibility: hidden");
}
 
 </script>
  <style type="text/css">
   <![CDATA[
    .str1 {stroke:#332C2B;stroke-width:3.048}
    .str2 {stroke:#00A2E9;stroke-width:3.2;stroke-linejoin:round}
    .str0 {stroke:#332C2B;stroke-width:4}
    .str6 {stroke:#332C2B;stroke-width:4;stroke-linejoin:round}
    .str8 {stroke:#6D583D;stroke-width:4;stroke-linejoin:round}
    .str3 {stroke:#823520;stroke-width:4;stroke-linejoin:round}
    .str9 {stroke:#332C2B;stroke-width:8;stroke-opacity:0.149020}
    .str5 {stroke:#FEFEFE;stroke-width:8}
    .str4 {stroke:#FEFEFE;stroke-width:12;stroke-linejoin:round}
    .str7 {stroke:#FEFEFE;stroke-width:12;stroke-linecap:round;stroke-linejoin:round}
    .fil1 {fill:none}
    .fil3 {fill:#332C2B}
    .fil0 {fill:#FEFEFE}
    .fil4 {fill:#00A2E9}
    .fil2 {fill:#6D583D}
    .fil5 {fill:#823520}
    .fil6 {fill:#F08519;fill-opacity:0.000000}
    .fil7 {fill:#F08519;fill-opacity:0.270588}
	.fil8 {fill:#F08519;fill-opacity:0.149020}
    .fnt0 {font-weight:normal;font-size:169.332px;font-family:'幼圆'}
    .fnt1 {font-weight:normal;font-size:183.444px;font-family:'幼圆'}
   ]]>
  </style>
   <clipPath id="id0">
    <rect x="591" y="1240" width="8958" height="4910"/>
   </clipPath>
   <clipPath id="id1">
    <rect x="989" y="2428" width="8362" height="2987"/>
   </clipPath>
   <clipPath id="id2">
    <rect x="541" y="5002" width="2405" height="772"/>
   </clipPath>
   <clipPath id="id3">
    <rect x="867" y="1860" width="8267" height="3793"/>
   </clipPath>
   <clipPath id="id4">
    <rect x="1019" y="1517" width="8385" height="4481"/>
   </clipPath>
   <clipPath id="id5">
    <rect x="567" y="1172" width="7437" height="4670"/>
   </clipPath>
   <clipPath id="id6">
    <rect x="1869" y="1578" width="7400" height="3603"/>
   </clipPath>
   <clipPath id="id7">
    <rect x="656" y="1258" width="8873" height="4166"/>
   </clipPath>
   <clipPath id="id8">
    <rect x="1661" y="1686" width="6299" height="3983"/>
   </clipPath>
   <clipPath id="id9">
    <rect x="1330" y="3103" width="7275" height="1981"/>
   </clipPath>
   <clipPath id="id10">
    <rect x="843" y="468" width="2178" height="650"/>
   </clipPath>
 </defs>
<symbol id="符号35" viewBox="4975 3375 49 49">
 <circle class="fil0 str0" cx="5000" cy="3400" r="23"/>
 <circle class="fil1 str0" cx="5000" cy="3400" r="8"/>
</symbol>
<symbol id="符号3" viewBox="4975 3375 51 51">
 <rect class="fil0" x="4976" y="3376" width="48" height="48"/>
 <line class="fil1 str0" x1="4976" y1="3376" x2="5024" y2= "3424" />
 <line class="fil1 str0" x1="4976" y1="3424" x2="5024" y2= "3376" />
</symbol>
<symbol id="符号32" viewBox="4981 3372 38 57">
 <polygon class="fil2" points="4982,3428 5000,3372 5019,3428 4981,3428 "/>
</symbol>
<symbol id="符号29" viewBox="4954 3354 91 91">
 <circle class="fil0 str1" cx="5000" cy="3400" r="44"/>
 <circle class="fil3 str1" cx="5000" cy="3400" r="26"/>
</symbol>
<symbol id="符号21" viewBox="4974 3374 51 51">
 <circle class="fil0 str1" cx="5000" cy="3400" r="24"/>
 <circle class="fil1 str1" cx="5000" cy="3400" r="9"/>
</symbol>
<symbol id="符号6" viewBox="4970 3387 58 26">
 <polygon class="fil4" points="4992,3396 4992,3396 4993,3397 4993,3397 4994,3397 4996,3397 4997,3396 4998,3396 5000,3396 5002,3396 5003,3396 5005,3396 5007,3395 5008,3395 5010,3395 5011,3394 5012,3393 5013,3393 5014,3392 5015,3391 5016,3391 5017,3390 5018,3390 5019,3390 5020,3389 5021,3389 5022,3389 5023,3389 5024,3389 5025,3390 5026,3390 5028,3392 5028,3392 5028,3392 5027,3392 5027,3392 5026,3391 5025,3391 5024,3391 5023,3391 5021,3392 5020,3392 5019,3392 5018,3393 5017,3393 5015,3394 5014,3395 5013,3397 5011,3398 5009,3399 5007,3399 5006,3400 5004,3401 5002,3401 5001,3402 4999,3402 4998,3402 4996,3403 4995,3403 4994,3403 4994,3403 "/>
 <path class="fil4 str2" d="M4995 3400c0,-6 -5,-11 -11,-11 -6,0 -11,5 -11,11 0,6 5,11 11,11 6,0 11,-5 11,-11z"/>
</symbol>
<symbol id="符号46" viewBox="4968 3368 63 63">
 <circle class="fil0 str1" cx="5000" cy="3400" r="30"/>
 <circle class="fil1 str1" cx="5000" cy="3400" r="11"/>
</symbol>
<symbol id="符号18" viewBox="4991 3391 18 18">
 <path class="fil5 str3" d="M5007 3400c0,-4 -3,-7 -7,-7 -4,0 -7,3 -7,7 0,4 3,7 7,7 4,0 7,-3 7,-7z"/>
</symbol>
<symbol id="符号37" viewBox="4984 3384 33 33">
 <line class="fil1 str0" x1="4985" y1="3385" x2="5015" y2= "3415" />
 <line class="fil1 str0" x1="4985" y1="3415" x2="5015" y2= "3385" />
</symbol>
<symbol id="符号12" viewBox="4968 3368 63 63">
 <circle class="fil0 str1" cx="5000" cy="3400" r="30"/>
 <circle class="fil1 str1" cx="5000" cy="3400" r="11"/>
</symbol>
<symbol id="符号41" viewBox="4968 3368 63 63">
 <circle class="fil0 str1" cx="5000" cy="3400" r="30"/>
 <circle class="fil1 str1" cx="5000" cy="3400" r="11"/>
</symbol>
<symbol id="符号26" viewBox="4984 3376 32 48">
 <polygon class="fil5" points="4984,3424 5000,3376 5016,3424 4984,3424 "/>
</symbol>
<symbol id="符号8" viewBox="4993 3393 14 14">
 <path class="fil5 str3" d="M5005 3400c0,-3 -2,-5 -5,-5 -3,0 -5,2 -5,5 0,3 2,5 5,5 3,0 5,-2 5,-5z"/>
</symbol>
<symbol id="符号38" viewBox="4989 3389 22 22">
 <path class="fil1 str4" d="M5005 3400c0,-3 -2,-5 -5,-5 -3,0 -5,2 -5,5 0,3 2,5 5,5 3,0 5,-2 5,-5z"/>
 <path id="1" class="fil2" d="M5005 3400c0,-3 -2,-5 -5,-5 -3,0 -5,2 -5,5 0,3 2,5 5,5 3,0 5,-2 5,-5z"/>
</symbol>
<symbol id="符号2" viewBox="4976 3376 48 48">
 <circle class="fil0 str1" cx="5000" cy="3400" r="23"/>
 <circle class="fil1 str1" cx="5000" cy="3400" r="8"/>
</symbol>
<symbol id="符号11" viewBox="4954 3354 91 91">
 <circle class="fil0 str1" cx="5000" cy="3400" r="44"/>
 <circle class="fil3 str1" cx="5000" cy="3400" r="26"/>
</symbol>
<symbol id="符号47" viewBox="4954 3354 91 91">
 <circle class="fil0 str1" cx="5000" cy="3400" r="44"/>
 <circle class="fil3 str1" cx="5000" cy="3400" r="26"/>
</symbol>
<symbol id="符号48" viewBox="4982 3366 37 60">
 <polygon class="fil1 str5" points="4986,3421 5000,3379 5014,3421 4986,3421 "/>
 <polygon id="1" class="fil2" points="4986,3421 5000,3379 5014,3421 4986,3421 "/>
</symbol>
<symbol id="符号24" viewBox="4975 3375 51 51">
 <rect class="fil0" x="4976" y="3376" width="48" height="48"/>
 <line class="fil1 str0" x1="4976" y1="3376" x2="5024" y2= "3424" />
 <line class="fil1 str0" x1="4976" y1="3424" x2="5024" y2= "3376" />
</symbol>
<symbol id="符号23" viewBox="4958 3382 82 35">
 <polygon class="fil4" points="4988,3396 4988,3396 4989,3396 4990,3396 4992,3396 4993,3396 4995,3396 4997,3396 5000,3396 5002,3396 5005,3396 5007,3395 5009,3395 5012,3395 5014,3394 5016,3394 5017,3393 5019,3392 5020,3392 5021,3391 5023,3390 5024,3390 5026,3390 5027,3389 5028,3389 5030,3389 5031,3389 5033,3389 5034,3389 5036,3389 5037,3390 5040,3391 5040,3391 5040,3391 5039,3391 5038,3391 5037,3391 5035,3391 5034,3391 5032,3391 5030,3391 5029,3391 5027,3392 5025,3392 5023,3393 5022,3394 5020,3395 5018,3396 5015,3397 5013,3398 5010,3399 5008,3400 5005,3400 5003,3401 5001,3401 4999,3402 4997,3402 4994,3403 4993,3403 4992,3403 4991,3403 "/>
 <path class="fil4 str2" d="M4992 3400c0,-9 -7,-16 -16,-16 -9,0 -16,7 -16,16 0,9 7,16 16,16 9,0 16,-7 16,-16z"/>
</symbol>
<symbol id="符号15" viewBox="4954 3354 91 91">
 <circle class="fil0 str1" cx="5000" cy="3400" r="44"/>
 <circle class="fil3 str1" cx="5000" cy="3400" r="26"/>
</symbol>
<symbol id="符号42" viewBox="4954 3354 91 91">
 <circle class="fil0 str1" cx="5000" cy="3400" r="44"/>
 <circle class="fil3 str1" cx="5000" cy="3400" r="26"/>
</symbol>
<symbol id="符号28" viewBox="4968 3368 63 63">
 <circle class="fil0 str1" cx="5000" cy="3400" r="30"/>
 <circle class="fil1 str1" cx="5000" cy="3400" r="11"/>
</symbol>
<symbol id="符号5" viewBox="4954 3354 91 91">
 <circle class="fil0 str1" cx="5000" cy="3400" r="44"/>
 <circle class="fil3 str1" cx="5000" cy="3400" r="26"/>
</symbol>
<symbol id="符号4" viewBox="4966 3386 66 29">
 <polygon class="fil4" points="4991,3396 4991,3396 4992,3396 4992,3396 4994,3396 4995,3396 4997,3396 4998,3396 5000,3396 5002,3396 5004,3395 5006,3395 5008,3395 5010,3394 5011,3394 5013,3393 5014,3392 5015,3392 5016,3391 5017,3390 5018,3390 5019,3389 5021,3389 5022,3388 5023,3388 5024,3388 5025,3388 5026,3388 5027,3388 5028,3388 5030,3389 5032,3391 5032,3391 5032,3391 5031,3391 5030,3390 5029,3390 5028,3390 5027,3390 5026,3390 5024,3390 5023,3391 5021,3391 5020,3392 5019,3392 5017,3394 5016,3395 5014,3396 5012,3397 5010,3398 5008,3399 5006,3400 5005,3401 5003,3401 5001,3402 4999,3402 4998,3403 4996,3403 4995,3404 4994,3404 4993,3404 "/>
 <path class="fil4 str2" d="M4994 3400c0,-7 -6,-13 -13,-13 -7,0 -13,6 -13,13 0,7 6,13 13,13 7,0 13,-6 13,-13z"/>
</symbol>
<symbol id="符号45" viewBox="4974 3374 52 52">
 <path class="fil0 str6" d="M5024 3400c0,-13 -11,-24 -24,-24 -13,0 -24,11 -24,24 0,13 11,24 24,24 13,0 24,-11 24,-24z"/>
</symbol>
<symbol id="符号1" viewBox="4974 3374 52 52">
 <path class="fil0 str6" d="M5024 3400c0,-13 -11,-24 -24,-24 -13,0 -24,11 -24,24 0,13 11,24 24,24 13,0 24,-11 24,-24z"/>
</symbol>
<symbol id="符号27" viewBox="4974 3374 52 52">
 <path class="fil0 str6" d="M5024 3400c0,-13 -11,-24 -24,-24 -13,0 -24,11 -24,24 0,13 11,24 24,24 13,0 24,-11 24,-24z"/>
</symbol>
<symbol id="符号16" viewBox="4966 3386 66 29">
 <polygon class="fil4" points="4991,3396 4991,3396 4992,3396 4992,3396 4994,3396 4995,3396 4997,3396 4998,3396 5000,3396 5002,3396 5004,3395 5006,3395 5008,3395 5010,3394 5011,3394 5013,3393 5014,3392 5015,3392 5016,3391 5017,3390 5018,3390 5019,3389 5021,3389 5022,3388 5023,3388 5024,3388 5025,3388 5026,3388 5027,3388 5028,3388 5030,3389 5032,3391 5032,3391 5032,3391 5031,3391 5030,3390 5029,3390 5028,3390 5027,3390 5026,3390 5024,3390 5023,3391 5021,3391 5020,3392 5019,3392 5017,3394 5016,3395 5014,3396 5012,3397 5010,3398 5008,3399 5006,3400 5005,3401 5003,3401 5001,3402 4999,3402 4998,3403 4996,3403 4995,3404 4994,3404 4993,3404 "/>
 <path class="fil4 str2" d="M4994 3400c0,-7 -6,-13 -13,-13 -7,0 -13,6 -13,13 0,7 6,13 13,13 7,0 13,-6 13,-13z"/>
</symbol>
<symbol id="符号43" viewBox="4975 3375 51 51">
 <rect class="fil0" x="4976" y="3376" width="48" height="48"/>
 <line class="fil1 str0" x1="4976" y1="3376" x2="5024" y2= "3424" />
 <line class="fil1 str0" x1="4976" y1="3424" x2="5024" y2= "3376" />
</symbol>
<symbol id="符号39" viewBox="4980 3373 40 55">
 <polygon class="fil1 str7" points="4986,3421 5000,3379 5014,3421 4986,3421 "/>
 <polygon id="1" class="fil2" points="4986,3421 5000,3379 5014,3421 4986,3421 "/>
</symbol>
<symbol id="符号36" viewBox="4954 3354 92 92">
 <circle class="fil0 str0" cx="5000" cy="3400" r="44"/>
 <circle class="fil3 str1" cx="5000" cy="3400" r="26"/>
</symbol>
<symbol id="符号34" viewBox="4974 3374 52 52">
 <path class="fil0 str6" d="M5024 3400c0,-13 -11,-24 -24,-24 -13,0 -24,11 -24,24 0,13 11,24 24,24 13,0 24,-11 24,-24z"/>
</symbol>
<symbol id="符号17" viewBox="4975 3375 51 51">
 <rect class="fil0" x="4976" y="3376" width="48" height="48"/>
 <line class="fil1 str0" x1="4976" y1="3376" x2="5024" y2= "3424" />
 <line class="fil1 str0" x1="4976" y1="3424" x2="5024" y2= "3376" />
</symbol>
<symbol id="符号9" viewBox="4986 3379 28 43">
 <polygon class="fil5" points="4986,3421 5000,3379 5014,3421 4986,3421 "/>
</symbol>
<symbol id="符号44" viewBox="4991 3391 18 18">
 <path class="fil2 str8" d="M5007 3400c0,-4 -3,-7 -7,-7 -4,0 -7,3 -7,7 0,4 3,7 7,7 4,0 7,-3 7,-7z"/>
</symbol>
<symbol id="符号7" viewBox="4984 3384 33 33">
 <rect class="fil0" x="4985" y="3385" width="30.08" height="30.08"/>
 <line class="fil1 str0" x1="4985" y1="3385" x2="5015" y2= "3415" />
 <line class="fil1 str0" x1="4985" y1="3415" x2="5015" y2= "3385" />
</symbol>
<symbol id="符号30" viewBox="4975 3375 51 51">
 <rect class="fil0" x="4976" y="3376" width="48" height="48"/>
 <line class="fil1 str0" x1="4976" y1="3376" x2="5024" y2= "3424" />
 <line class="fil1 str0" x1="4976" y1="3424" x2="5024" y2= "3376" />
</symbol>
<symbol id="符号22" viewBox="4954 3354 91 91">
 <circle class="fil0 str1" cx="5000" cy="3400" r="44"/>
 <circle class="fil3 str1" cx="5000" cy="3400" r="26"/>
</symbol>
<symbol id="符号20" viewBox="4974 3374 52 52">
 <path class="fil0 str6" d="M5024 3400c0,-13 -11,-24 -24,-24 -13,0 -24,11 -24,24 0,13 11,24 24,24 13,0 24,-11 24,-24z"/>
</symbol>
<symbol id="符号31" viewBox="4991 3391 18 18">
 <path class="fil2 str8" d="M5007 3400c0,-4 -3,-7 -7,-7 -4,0 -7,3 -7,7 0,4 3,7 7,7 4,0 7,-3 7,-7z"/>
</symbol>
<symbol id="符号33" viewBox="4984 3376 32 48">
 <polygon class="fil2" points="4984,3424 5000,3376 5016,3424 4984,3424 "/>
</symbol>
<symbol id="符号10" viewBox="4974 3374 52 52">
 <path class="fil0 str6" d="M5024 3400c0,-13 -11,-24 -24,-24 -13,0 -24,11 -24,24 0,13 11,24 24,24 13,0 24,-11 24,-24z"/>
</symbol>
<symbol id="符号40" viewBox="4974 3374 52 52">
 <path class="fil0 str6" d="M5024 3400c0,-13 -11,-24 -24,-24 -13,0 -24,11 -24,24 0,13 11,24 24,24 13,0 24,-11 24,-24z"/>
</symbol>
<symbol id="符号19" viewBox="4981 3372 38 57">
 <polygon class="fil5" points="4982,3428 5000,3372 5019,3428 4981,3428 "/>
</symbol>
<symbol id="符号13" viewBox="4968 3368 63 63">
 <circle class="fil0 str1" cx="5000" cy="3400" r="30"/>
 <circle class="fil1 str1" cx="5000" cy="3400" r="11"/>
</symbol>
<symbol id="符号25" viewBox="4992 3392 16 16">
 <path class="fil5 str3" d="M5006 3400c0,-3 -3,-6 -6,-6 -3,0 -6,3 -6,6 0,3 3,6 6,6 3,0 6,-3 6,-6z"/>
</symbol>
<symbol id="符号14" viewBox="4974 3374 52 52">
 <path class="fil0 str6" d="M5024 3400c0,-13 -11,-24 -24,-24 -13,0 -24,11 -24,24 0,13 11,24 24,24 13,0 24,-11 24,-24z"/>
</symbol>

<g id="map">
 <g id="background">
  <metadata id="CorelCorpID_0Corel-Layer"/>
  <g style="clip-path:url(#id0)">
   <image x="591" y="1240" width="8958" height="4910" xlink:href=" 4-5b_ImgID1.png"/>
  </g>
 </g>
 <g id="river">
  <metadata id="CorelCorpID_1Corel-Layer"/>
  <g style="clip-path:url(#id1)">
   <image x="989" y="2428" width="8362" height="2987" xlink:href="4-5b_ImgID2.png"/>
  </g>
 </g>
 <g id="legend">
  <metadata id="CorelCorpID_2Corel-Layer"/>
  <g style="clip-path:url(#id2)">
   <image x="541" y="5002" width="2405" height="772" xlink:href=" 4-5b_ImgID3.png"/>
  </g>
 </g>
 <g id="mountainr3">
  <metadata id="CorelCorpID_3Corel-Layer"/>
  <g style="clip-path:url(#id3)">
   <image x="867" y="1860" width="8267" height="3793" xlink:href=" 4-5b_ImgID4.png"/>
  </g>
 </g>
 <g id="mountainr2">
  <metadata id="CorelCorpID_4Corel-Layer"/>
  <g style="clip-path:url(#id4)">
   <image x="1019" y="1517" width="8385" height="4481" xlink:href=" 4-5b_ImgID5.png"/>
  </g>
 </g>
 <g id="mountainr1">
  <metadata id="CorelCorpID_5Corel-Layer"/>
  <g style="clip-path:url(#id5)">
   <image x="567" y="1172" width="7437" height="4670" xlink:href=" 4-5b_ImgID6.png"/>
  </g>
 </g>
 <g id="peak3">
  <metadata id="CorelCorpID_6Corel-Layer"/>
  <g style="clip-path:url(#id6)">
   <image x="1869" y="1578" width="7400" height="3603" xlink:href=" 4-5b_ImgID7.png"/>
  </g>
 </g>
 <g id="peak2">
  <metadata id="CorelCorpID_7Corel-Layer"/>
  <g style="clip-path:url(#id7)">
   <image x="656" y="1258" width="8873" height="4166" xlink:href=" 4-5b_ImgID8.png"/>
  </g>
 </g>
 <g id="peak1">
  <metadata id="CorelCorpID_8Corel-Layer"/>
  <g style="clip-path:url(#id8)">
   <image x="1661" y="1686" width="6299" height="3983" xlink:href=" 4-5b_ImgID9.png"/>
  </g>
 </g>
 <g id="resident">
  <metadata id="CorelCorpID_9Corel-Layer"/>
  <g style="clip-path:url(#id9)">
   <image x="1330" y="3103" width="7275" height="1981" xlink:href=" 4-5b_ImgID10.png"/>
  </g>
 </g>
 <g id="title">
  <metadata id="CorelCorpID_10Corel-Layer"/>
  <g style="clip-path:url(#id10)">
   <image x="843" y="468" width="2178" height="650" xlink:href=" 4-5b_ImgID11.png"/>
  </g>
 </g>
 <g id="图层_x0020_1">
  <metadata id="CorelCorpID_11Corel-Layer"/>
  <text x="5972" y="1401"  class="fil3 fnt0">    </text>
  <text x="6311" y="1401"  class="fil3 fnt1">高</text>
  <text x="6494" y="1401"  class="fil3 fnt1">原</text>
  <text x="6677" y="1401"  class="fil3 fnt1">面</text>
  <text x="6861" y="1401"  class="fil3 fnt1">上</text>
  <text x="7044" y="1401"  class="fil3 fnt1">纵</text>
  <text x="7227" y="1401"  class="fil3 fnt1">横</text>
  <text x="7411" y="1401"  class="fil3 fnt1">延</text>
  <text x="7594" y="1401"  class="fil3 fnt1">展</text>
  <text x="7777" y="1401"  class="fil3 fnt1">着</text>
  <text x="7961" y="1401"  class="fil3 fnt1">一</text>
  <text x="8144" y="1401"  class="fil3 fnt1">系</text>
  <text x="8327" y="1401"  class="fil3 fnt1">列</text>
  <text x="8511" y="1401"  class="fil3 fnt1">巨</text>
  <text x="8694" y="1401"  class="fil3 fnt1">大</text>
  <text x="5972" y="1676"  class="fil3 fnt1">山</text>
  <text x="6155" y="1676"  class="fil3 fnt1">脉</text>
  <text x="6339" y="1676"  class="fil3 fnt1">，</text>
  <text x="6522" y="1676"  class="fil3 fnt1">构</text>
  <text x="6705" y="1676"  class="fil3 fnt1">成</text>
  <text x="6889" y="1676"  class="fil3 fnt1">高</text>
  <text x="7072" y="1676"  class="fil3 fnt1">原</text>
  <text x="7255" y="1676"  class="fil3 fnt1">地</text>
  <text x="7439" y="1676"  class="fil3 fnt1">貌</text>
  <text x="7622" y="1676"  class="fil3 fnt1">的</text>
  <text x="7805" y="1676"  class="fil3 fnt1">骨</text>
  <text x="7989" y="1676"  class="fil3 fnt1">架</text>
  <text x="8172" y="1676"  class="fil3 fnt1">，</text>
  <text x="8355" y="1676"  class="fil3 fnt1">山</text>
  <text x="8539" y="1676"  class="fil3 fnt1">系</text>
  <text x="8722" y="1676"  class="fil3 fnt1">之</text>
  <text x="5972" y="1951"  class="fil3 fnt1">间</text>
  <text x="6155" y="1951"  class="fil3 fnt1">的</text>
  <text x="6339" y="1951"  class="fil3 fnt1">网</text>
  <text x="6522" y="1951"  class="fil3 fnt1">格</text>
  <text x="6705" y="1951"  class="fil3 fnt1">中</text>
  <text x="6889" y="1951"  class="fil3 fnt1">分</text>
  <text x="7072" y="1951"  class="fil3 fnt1">布</text>
  <text x="7255" y="1951"  class="fil3 fnt1">着</text>
  <text x="7439" y="1951"  class="fil3 fnt1">次</text>
  <text x="7622" y="1951"  class="fil3 fnt1">一</text>
  <text x="7805" y="1951"  class="fil3 fnt1">级</text>
  <text x="7989" y="1951"  class="fil3 fnt1">的</text>
  <text x="8172" y="1951"  class="fil3 fnt1">山</text>
  <text x="8355" y="1951"  class="fil3 fnt1">脉</text>
  <text x="8539" y="1951"  class="fil3 fnt1">、</text>
  <text x="8722" y="1951"  class="fil3 fnt1">山</text>
  <text x="5972" y="2226"  class="fil3 fnt1">原</text>
  <text x="6155" y="2226"  class="fil3 fnt1">、</text>
  <text x="6339" y="2226"  class="fil3 fnt1">盆</text>
  <text x="6522" y="2226"  class="fil3 fnt1">地</text>
  <text x="6705" y="2226"  class="fil3 fnt1">和</text>
  <text x="6889" y="2226"  class="fil3 fnt1">河</text>
  <text x="7072" y="2226"  class="fil3 fnt1">谷</text>
  <text x="7255" y="2226"  class="fil3 fnt1">，</text>
  <text x="7439" y="2226"  class="fil3 fnt1">从</text>
  <text x="7622" y="2226"  class="fil3 fnt1">而</text>
  <text x="7805" y="2226"  class="fil3 fnt1">形</text>
  <text x="7989" y="2226"  class="fil3 fnt1">成</text>
  <text x="8172" y="2226"  class="fil3 fnt1">了</text>
  <text x="8355" y="2226"  class="fil3 fnt1">西</text>
  <text x="8539" y="2226"  class="fil3 fnt1">藏</text>
  <text x="8722" y="2226"  class="fil3 fnt1">高</text>
  <text x="5972" y="2502"  class="fil3 fnt1">原</text>
  <text x="6155" y="2502"  class="fil3 fnt1">地</text>
  <text x="6339" y="2502"  class="fil3 fnt1">貌</text>
  <text x="6522" y="2502"  class="fil3 fnt1">的</text>
  <text x="6705" y="2502"  class="fil3 fnt1">网</text>
  <text x="6889" y="2502"  class="fil3 fnt1">格</text>
  <text x="7072" y="2502"  class="fil3 fnt1">状</text>
  <text x="7255" y="2502"  class="fil3 fnt1">结</text>
  <text x="7439" y="2502"  class="fil3 fnt1">构</text>
  <text x="7622" y="2502"  class="fil3 fnt1">特</text>
  <text x="7805" y="2502"  class="fil3 fnt1">征</text>
  <text x="7989" y="2502"  class="fil3 fnt1">。</text>
  <path id="button" onclick="timeshow()"  onmouseover="changecolor(evt)"  onmouseout="recover(evt)"   class="fil6 str9" d="M5930 1115l3015 0c44,0 80,36 80,80l0 1392c0,44 -36,80 -80,80l-3015 0c-44,0 -80,-36 -80,-80l0 -1392c0,-44 36,-80 80,-80z"/>
 </g>
 <g id="explain1" visibility="hidden">
  <metadata id="CorelCorpID_12Corel-Layer"/>
  <polygon class="fil7" points="5939,1686 5941,1686 5941,1220 8953,1220 8953,1734 8618,1734 8618,2017 5939,2017 "/>
 </g>
 <g id="explain2" visibility="hidden">
  <metadata id="CorelCorpID_13Corel-Layer"/>
  <polygon class="fil7" points="7208,2568 7208,2568 8966,2568 8959,1778 8676,1778 8676,2032 5921,2050 5928,2561 "/>
 </g>
 <g id="infotip1">
  <metadata id="CorelCorpID_0Corel-Layer"/>
  <path fill="#FEFEFE" stroke="#00A2E9" stroke-width="8" d="M8780 617c0,0 1,-82 -55,-81 -56,1 -2068,2 -2068,2 0,0 -43,-3 -44,89 -1,92 0,390 0,390 0,0 -4,56 78,56 82,0 964,-2 964,-2l-1 181 133 -179 420 -1 519 -1c0,0 54,-7 54,-66 0,-59 1,-388 1,-388z"/>
  <g transform="matrix(0.837363 0 0 1 2655.09 -2508.28)">
   <text x="5000" y="3400"  fill="#332C2B" font-weight="normal" font-size="192.3px" font-family="黑体">点</text>
   <text x="5212" y="3400"  fill="#332C2B" font-weight="normal" font-size="192.3px" font-family="黑体">击</text>
   <text x="5423" y="3400"  fill="#332C2B" font-weight="normal" font-size="192.3px" font-family="黑体">查</text>
   <text x="5635" y="3400"  fill="#332C2B" font-weight="normal" font-size="192.3px" font-family="黑体">看</text>
   <text x="5846" y="3400"  fill="#332C2B" font-weight="normal" font-size="192.3px" font-family="黑体">知</text>
   <text x="6058" y="3400"  fill="#332C2B" font-weight="normal" font-size="192.3px" font-family="黑体">识</text>
   <text x="6269" y="3400"  fill="#332C2B" font-weight="normal" font-size="192.3px" font-family="黑体">图</text>
   <text x="6481" y="3400"  fill="#332C2B" font-weight="normal" font-size="192.3px" font-family="黑体">示</text>
  </g>
  <g transform="matrix(0.837363 0 0 1 2655.09 -2508.28)">
  </g>
  <line fill="none" stroke="#00A2E9" stroke-width="8" x1="8593" y1="742" x2="8423" y2= "912" />
  <line fill="none" stroke="#00A2E9" stroke-width="8" x1="8423" y1="742" x2="8593" y2= "912" />
  <path id="close" onclick="closeinfotip(1)" fill="#FEFEFE" fill-opacity="0.000000" stroke="#00A2E9" stroke-width="8" stroke-opacity="0.000000" d="M8398 666l221 0c28,0 50,23 50,50l0 221c0,28 -23,50 -50,50l-221 0c-28,0 -50,-23 -50,-50l0 -221c0,-28 23,-50 50,-50z"/>
 </g>
 </g>
</svg>
